<svg id="Layer_1" data-name="Layer 1" xmlns="http://www.w3.org/2000/svg" viewBox="0 0 74.5 74.5"><defs><style>.cls-1{fill:#191f11;isolation:isolate;opacity:0.8;}.cls-2{fill:#fff;}</style></defs><circle class="cls-1" cx="37.2" cy="37.2" r="37.2"/><path class="cls-2" d="M48.46,33.45,37.68,27.07a.83.83,0,0,0-.86,0L26,33.45A.85.85,0,0,0,26.47,35h1.39a.85.85,0,0,1,.85.85V46.7a.85.85,0,0,0,.85.85h4a.85.85,0,0,0,.85-.85V39.62a.85.85,0,0,1,.85-.85h4.06a.85.85,0,0,1,.85.85V46.7a.85.85,0,0,0,.85.85h4a.85.85,0,0,0,.85-.85V35.88a.85.85,0,0,1,.85-.85H48A.85.85,0,0,0,48.46,33.45Z"/></svg>