<svg xmlns="http://www.w3.org/2000/svg" viewBox="0 0 89.11 89.09"><defs><style>.cls-1{fill:none;stroke:#3c3c3b;stroke-linecap:round;stroke-linejoin:round;}.cls-2{fill:#3c3c3b;}</style></defs><g id="DESIGNED_BY_FREEPIK" data-name="DESIGNED BY FREEPIK"><line class="cls-1" x1="19.01" y1="34.35" x2="18.32" y2="26.82"/><line class="cls-1" x1="13.16" y1="33.86" x2="15.07" y2="26.55"/><line class="cls-1" x1="7.82" y1="31.42" x2="12.11" y2="25.19"/><line class="cls-1" x1="3.63" y1="27.3" x2="9.78" y2="22.9"/><line class="cls-1" x1="1.09" y1="22.01" x2="8.37" y2="19.96"/><line class="cls-1" x1="0.5" y1="16.16" x2="8.04" y2="16.72"/><line class="cls-1" x1="1.93" y1="10.47" x2="8.84" y2="13.55"/><line class="cls-1" x1="5.22" y1="5.6" x2="10.66" y2="10.85"/><line class="cls-1" x1="9.97" y1="2.14" x2="13.3" y2="8.92"/><line class="cls-1" x1="15.61" y1="0.5" x2="16.43" y2="8.01"/><line class="cls-1" x1="21.47" y1="0.88" x2="19.69" y2="8.22"/><line class="cls-1" x1="26.85" y1="3.23" x2="22.68" y2="9.53"/><line class="cls-1" x1="31.12" y1="7.26" x2="25.05" y2="11.77"/><line class="cls-1" x1="33.75" y1="12.51" x2="26.51" y2="14.69"/><line class="cls-1" x1="34.45" y1="18.35" x2="26.9" y2="17.93"/><path class="cls-2" d="M88,44.71,19,16.59a1.79,1.79,0,0,0-2.33,2.33L44.74,88a1.79,1.79,0,0,0,3.37-.17l7.41-25.56L69.74,76.46a4.76,4.76,0,0,0,6.75,0h0a4.77,4.77,0,0,0,0-6.74L62.26,55.49l25.56-7.41A1.79,1.79,0,0,0,88,44.71Z"/></g></svg>