<svg id="Layer_1" data-name="Layer 1" xmlns="http://www.w3.org/2000/svg" viewBox="0 0 74.46 74.46"><defs><style>.cls-1{fill:#191f11;opacity:0.8;}.cls-2{fill:#fff;}</style></defs><circle class="cls-1" cx="37.23" cy="37.23" r="37.23"/><path class="cls-2" d="M47.35,26.25,39.64,22a1.31,1.31,0,0,0-2,1.17V40.58c-2.67-1.91-6.53-1.26-9.2.28a10.41,10.41,0,0,0-4,4,6,6,0,0,0-.22,5.87c2.13,3.69,7.46,3.13,10.64,1.29,2.63-1.52,5.07-4.43,4.88-7.63V24.5L46.27,28C47.6,28.69,48.78,27,47.35,26.25Z"/><rect class="cls-2" x="36.5" y="14.12" width="1.33" height="50.97" rx="0.66" transform="translate(35.44 93.89) rotate(-135)"/></svg>