<svg id="Layer_1" data-name="Layer 1" xmlns="http://www.w3.org/2000/svg" viewBox="0 0 74.46 74.46"><defs><style>.cls-1{fill:#191f11;isolation:isolate;opacity:0.8;}.cls-2{fill:#fff;}</style></defs><circle class="cls-1" cx="37.23" cy="37.66" r="37.23"/><path class="cls-2" d="M20.51,44.51a3,3,0,0,0,2.92-2.19L30,24.88h.56l6.6,17.29A4.47,4.47,0,0,0,38.24,44a2.47,2.47,0,0,0,1.66.53v.29H38.51l-.87,0-.67,0-.75,0-.74,0-.67,0-.92,0H32.4v-.29a5.07,5.07,0,0,0,.68,0,2.1,2.1,0,0,0,.63-.18,1.17,1.17,0,0,0,.47-.38,1.09,1.09,0,0,0,.17-.63,2.32,2.32,0,0,0-.1-.67c-.07-.23-.14-.45-.22-.64l-1.9-5H26l-1.93,5.32a3.11,3.11,0,0,0-.17.91,1.26,1.26,0,0,0,.17.67,1.43,1.43,0,0,0,.44.41,1.92,1.92,0,0,0,.6.19,4.87,4.87,0,0,0,.66,0v.29h-1l-.64,0-.48,0-.51,0-.54,0-.48,0-.65,0h-1ZM32,36.45l-2.81-7.92-3,7.92Z"/><path class="cls-2" d="M46.41,32.27a6.87,6.87,0,0,0-.78.06,6.29,6.29,0,0,0-1,.19,3.34,3.34,0,0,0-.83.35.63.63,0,0,0-.36.51,1.84,1.84,0,0,0,.11.34,2.28,2.28,0,0,1,.1.71,1.12,1.12,0,0,1-.26.69.93.93,0,0,1-.76.34,1.06,1.06,0,0,1-.7-.3,1.15,1.15,0,0,1-.35-1,1.38,1.38,0,0,1,.55-1.12,4.2,4.2,0,0,1,1.34-.73,8.28,8.28,0,0,1,1.65-.4,11.06,11.06,0,0,1,1.48-.12A9.43,9.43,0,0,1,48.5,32a4.18,4.18,0,0,1,1.55.66,3.24,3.24,0,0,1,1,1.26,4.57,4.57,0,0,1,.38,2v6.4a5,5,0,0,0,0,.52,2.53,2.53,0,0,0,.11.56,1,1,0,0,0,.28.45.73.73,0,0,0,.54.19.74.74,0,0,0,.58-.25,2.28,2.28,0,0,0,.38-.48l.27.12a2.13,2.13,0,0,1-.25.42,3.15,3.15,0,0,1-.5.56,3.32,3.32,0,0,1-.73.49,2.14,2.14,0,0,1-2.38-.33,2.43,2.43,0,0,1-.73-1.35,9.92,9.92,0,0,1-2.13,1.38,5.74,5.74,0,0,1-2.48.52A4.26,4.26,0,0,1,43.25,45a3,3,0,0,1-1-.54,2.68,2.68,0,0,1-.7-.92,3,3,0,0,1-.27-1.32,2.4,2.4,0,0,1,.53-1.59,4.84,4.84,0,0,1,1.08-1,10.92,10.92,0,0,1,2-1c.74-.31,1.48-.62,2.22-1l.67-.31.63-.31a4.09,4.09,0,0,0,.45-.27.35.35,0,0,0,.17-.28V35.22c0-.19,0-.45,0-.79a2.68,2.68,0,0,0-.28-1,2,2,0,0,0-.77-.84A2.79,2.79,0,0,0,46.41,32.27ZM49,37.21c-.56.29-1.18.58-1.84.86a10.21,10.21,0,0,0-1.72.92,3.92,3.92,0,0,0-1.24,1.31,3.16,3.16,0,0,0-.39,1.49,3,3,0,0,0,.11.85,2.65,2.65,0,0,0,.35.74,1.82,1.82,0,0,0,.59.55,1.68,1.68,0,0,0,.84.2,4.09,4.09,0,0,0,1.9-.45,5.05,5.05,0,0,0,1.4-1Z"/></svg>