<?xml version="1.0" encoding="utf-8"?>
<!-- Generator: Adobe Illustrator 26.0.1, SVG Export Plug-In . SVG Version: 6.00 Build 0)  -->
<svg version="1.1" id="Layer_1" xmlns="http://www.w3.org/2000/svg" xmlns:xlink="http://www.w3.org/1999/xlink" x="0px" y="0px"
	 viewBox="0 0 74.5 74.5" style="enable-background:new 0 0 74.5 74.5;" xml:space="preserve">
<style type="text/css">
	.st0{opacity:0.8;fill:#191F11;enable-background:new    ;}
	.st1{fill:#FFFFFF;}
	.st2{fill:none;stroke:#FFFFFF;stroke-miterlimit:10;}
</style>
<g>
	<circle class="st0" cx="37.2" cy="37.2" r="37.2"/>
	<path class="st1" d="M43.3,37.2c0,3.3-2.7,6.1-6,6.1s-6.1-2.7-6.1-6c0-3.3,2.7-6.1,6-6.1c0,0,0.1,0,0.1,0l0,0V33l4.7-2.8l-4.7-2.7
		V29l0,0c-4.5,0-8.2,3.7-8.2,8.2s3.7,8.2,8.2,8.2s8.2-3.7,8.2-8.2L43.3,37.2L43.3,37.2z"/>
	<path class="st2" d="M57,36.5c0-8.9-8.8-16.1-19.7-16.1s-19.8,7.2-19.8,16.1c0,7,5.5,13.1,13.2,15.2c-0.2,1.8-1.5,3.2-3.3,3.6
		c-5.2,1.4,4.2,2.9,10.1-2.7C48.3,52.5,57,45.3,57,36.5z"/>
</g>
</svg>
