<?xml version="1.0" encoding="utf-8"?>
<!-- Generator: Adobe Illustrator 26.0.1, SVG Export Plug-In . SVG Version: 6.00 Build 0)  -->
<svg version="1.1" id="Layer_1" xmlns="http://www.w3.org/2000/svg" xmlns:xlink="http://www.w3.org/1999/xlink" x="0px" y="0px"
	 viewBox="0 0 74.5 74.5" style="enable-background:new 0 0 74.5 74.5;" xml:space="preserve">
<style type="text/css">
	.st0{opacity:0.8;fill:#191F11;enable-background:new    ;}
	.st1{fill:#FFFFFF;}
</style>
<g>
	<circle class="st0" cx="37.2" cy="37.2" r="37.2"/>
	<path class="st1" d="M48.5,37.7c0,6.2-5.1,11.3-11.3,11.2C31,48.9,26,43.9,26,37.7c0-6.2,5.1-11.3,11.3-11.2c0,0,0,0,0,0l0,0v3.2
		l8.8-5.1l-8.8-5.1v2.9l0,0c-8.5,0-15.3,6.8-15.3,15.3S28.8,53,37.2,53c8.5,0,15.3-6.8,15.3-15.3c0,0,0,0,0,0H48.5L48.5,37.7z"/>
</g>
</svg>
