<svg id="Layer_1" data-name="Layer 1" xmlns="http://www.w3.org/2000/svg" viewBox="0 0 68.46 119.26"><defs><style>.cls-1{fill:#231f20;}</style></defs><path class="cls-1" d="M68.25,34.58A34.09,34.09,0,0,1,61.18,55.4a44.25,44.25,0,0,0-9.34,26.93c0,4.9-6.07,7.7-13.19,8.46.09-16.22,9.94-32.37,10.25-32.87a34.37,34.37,0,0,1-29.77,0,81.31,81.31,0,0,1,5.12,10.33c2.53,6.12,5.06,14.26,5.12,22.42-7.11-1-13.17-3.91-13.17-8.81A43.54,43.54,0,0,0,6.87,55.42,34.23,34.23,0,1,1,68.25,34.58Z" transform="translate(0.21 -0.34)"/><rect class="cls-1" x="19.33" y="95.1" width="29.8" height="5.1" rx="1.9"/><rect class="cls-1" x="19.33" y="104.63" width="29.8" height="5.1" rx="1.9"/><rect class="cls-1" x="23.89" y="114.16" width="20.67" height="5.1" rx="1.9"/></svg>