<svg id="Flag" xmlns="http://www.w3.org/2000/svg" xmlns:xlink="http://www.w3.org/1999/xlink" viewBox="0 0 1034.7 1034.7"><defs><style>.cls-1{fill:none;}.cls-2{clip-path:url(#clip-path);}.cls-3{fill:#fff;}.cls-4{fill:#b22234;}.cls-5{fill:#3c3b6e;}</style><clipPath id="clip-path"><circle class="cls-1" cx="517.35" cy="517.35" r="517.35"/></clipPath></defs><g class="cls-2"><rect class="cls-3" x="-234.15" y="-3.72" width="1989.97" height="1042.19"/><rect class="cls-4" x="-234.13" y="-7.64" width="1988.3" height="82.44"/><rect class="cls-4" x="-234.13" y="153.62" width="1988.3" height="82.44"/><rect class="cls-4" x="-234.13" y="314.88" width="1988.3" height="82.44"/><rect class="cls-4" x="-234.13" y="476.14" width="1988.3" height="82.44"/><rect class="cls-4" x="-234.13" y="637.39" width="1988.3" height="82.44"/><rect class="cls-4" x="-234.13" y="798.65" width="1988.3" height="82.44"/><rect class="cls-4" x="-234.13" y="959.91" width="1988.3" height="82.44"/><rect class="cls-5" x="-234.18" y="-7.65" width="794.11" height="566.25"/><polygon class="cls-3" points="31.48 72.14 38.91 95.25 62.96 95.25 43.51 109.54 50.94 132.65 31.48 118.37 12.03 132.65 19.46 109.54 0 95.25 24.05 95.25 31.48 72.14"/><polygon class="cls-3" points="31.48 185.66 38.91 208.77 62.96 208.77 43.51 223.06 50.94 246.17 31.48 231.89 12.03 246.17 19.46 223.06 0 208.77 24.05 208.77 31.48 185.66"/><polygon class="cls-3" points="31.48 299.18 38.91 322.29 62.96 322.29 43.51 336.58 50.94 359.69 31.48 345.41 12.03 359.69 19.46 336.58 0 322.29 24.05 322.29 31.48 299.18"/><polygon class="cls-3" points="31.48 412.7 38.91 435.81 62.96 435.81 43.51 450.1 50.94 473.21 31.48 458.93 12.03 473.21 19.46 450.1 0 435.81 24.05 435.81 31.48 412.7"/><polygon class="cls-3" points="164.15 72.14 171.58 95.25 195.63 95.25 176.18 109.54 183.61 132.65 164.15 118.37 144.7 132.65 152.13 109.54 132.67 95.25 156.72 95.25 164.15 72.14"/><polygon class="cls-3" points="164.15 185.66 171.58 208.77 195.63 208.77 176.18 223.06 183.61 246.17 164.15 231.89 144.7 246.17 152.13 223.06 132.67 208.77 156.72 208.77 164.15 185.66"/><polygon class="cls-3" points="164.15 299.18 171.58 322.29 195.63 322.29 176.18 336.58 183.61 359.69 164.15 345.41 144.7 359.69 152.13 336.58 132.67 322.29 156.72 322.29 164.15 299.18"/><polygon class="cls-3" points="164.15 412.7 171.58 435.81 195.63 435.81 176.18 450.1 183.61 473.21 164.15 458.93 144.7 473.21 152.13 450.1 132.67 435.81 156.72 435.81 164.15 412.7"/><polygon class="cls-3" points="296.82 72.14 304.25 95.25 328.3 95.25 308.85 109.54 316.28 132.65 296.82 118.37 277.37 132.65 284.8 109.54 265.34 95.25 289.39 95.25 296.82 72.14"/><polygon class="cls-3" points="296.82 185.66 304.25 208.77 328.3 208.77 308.85 223.06 316.28 246.17 296.82 231.89 277.37 246.17 284.8 223.06 265.34 208.77 289.39 208.77 296.82 185.66"/><polygon class="cls-3" points="296.82 299.18 304.25 322.29 328.3 322.29 308.85 336.58 316.28 359.69 296.82 345.41 277.37 359.69 284.8 336.58 265.34 322.29 289.39 322.29 296.82 299.18"/><polygon class="cls-3" points="296.82 412.7 304.25 435.81 328.3 435.81 308.85 450.1 316.28 473.21 296.82 458.93 277.37 473.21 284.8 450.1 265.34 435.81 289.39 435.81 296.82 412.7"/><polygon class="cls-3" points="429.49 72.14 436.93 95.25 460.97 95.25 441.52 109.54 448.95 132.65 429.49 118.37 410.04 132.65 417.47 109.54 398.01 95.25 422.06 95.25 429.49 72.14"/><polygon class="cls-3" points="429.49 185.66 436.93 208.77 460.97 208.77 441.52 223.06 448.95 246.17 429.49 231.89 410.04 246.17 417.47 223.06 398.01 208.77 422.06 208.77 429.49 185.66"/><polygon class="cls-3" points="429.49 299.18 436.93 322.29 460.97 322.29 441.52 336.58 448.95 359.69 429.49 345.41 410.04 359.69 417.47 336.58 398.01 322.29 422.06 322.29 429.49 299.18"/><polygon class="cls-3" points="429.49 412.7 436.93 435.81 460.97 435.81 441.52 450.1 448.95 473.21 429.49 458.93 410.04 473.21 417.47 450.1 398.01 435.81 422.06 435.81 429.49 412.7"/><polygon class="cls-3" points="98.7 14.04 106.13 37.15 130.18 37.15 110.73 51.43 118.16 74.55 98.7 60.26 79.25 74.55 86.68 51.43 67.22 37.15 91.27 37.15 98.7 14.04"/><polygon class="cls-3" points="98.7 127.56 106.13 150.67 130.18 150.67 110.73 164.96 118.16 188.07 98.7 173.78 79.25 188.07 86.68 164.96 67.22 150.67 91.27 150.67 98.7 127.56"/><polygon class="cls-3" points="98.7 241.08 106.13 264.19 130.18 264.19 110.73 278.48 118.16 301.59 98.7 287.31 79.25 301.59 86.68 278.48 67.22 264.19 91.27 264.19 98.7 241.08"/><polygon class="cls-3" points="98.7 354.6 106.13 377.71 130.18 377.71 110.73 392 118.16 415.11 98.7 400.83 79.25 415.11 86.68 392 67.22 377.71 91.27 377.71 98.7 354.6"/><polygon class="cls-3" points="98.7 468.12 106.13 491.23 130.18 491.23 110.73 505.52 118.16 528.63 98.7 514.35 79.25 528.63 86.68 505.52 67.22 491.23 91.27 491.23 98.7 468.12"/><polygon class="cls-3" points="230.49 14.04 237.92 37.15 261.97 37.15 242.51 51.43 249.94 74.55 230.49 60.26 211.03 74.55 218.46 51.43 199.01 37.15 223.06 37.15 230.49 14.04"/><polygon class="cls-3" points="230.49 127.56 237.92 150.67 261.97 150.67 242.51 164.96 249.94 188.07 230.49 173.78 211.03 188.07 218.46 164.96 199.01 150.67 223.06 150.67 230.49 127.56"/><polygon class="cls-3" points="230.49 241.08 237.92 264.19 261.97 264.19 242.51 278.48 249.94 301.59 230.49 287.31 211.03 301.59 218.46 278.48 199.01 264.19 223.06 264.19 230.49 241.08"/><polygon class="cls-3" points="230.49 354.6 237.92 377.71 261.97 377.71 242.51 392 249.94 415.11 230.49 400.83 211.03 415.11 218.46 392 199.01 377.71 223.06 377.71 230.49 354.6"/><polygon class="cls-3" points="230.49 468.12 237.92 491.23 261.97 491.23 242.51 505.52 249.94 528.63 230.49 514.35 211.03 528.63 218.46 505.52 199.01 491.23 223.06 491.23 230.49 468.12"/><polygon class="cls-3" points="362.27 14.04 369.7 37.15 393.75 37.15 374.3 51.43 381.73 74.55 362.27 60.26 342.82 74.55 350.25 51.43 330.79 37.15 354.84 37.15 362.27 14.04"/><polygon class="cls-3" points="362.27 127.56 369.7 150.67 393.75 150.67 374.3 164.96 381.73 188.07 362.27 173.78 342.82 188.07 350.25 164.96 330.79 150.67 354.84 150.67 362.27 127.56"/><polygon class="cls-3" points="362.27 241.08 369.7 264.19 393.75 264.19 374.3 278.48 381.73 301.59 362.27 287.31 342.82 301.59 350.25 278.48 330.79 264.19 354.84 264.19 362.27 241.08"/><polygon class="cls-3" points="362.27 354.6 369.7 377.71 393.75 377.71 374.3 392 381.73 415.11 362.27 400.83 342.82 415.11 350.25 392 330.79 377.71 354.84 377.71 362.27 354.6"/><polygon class="cls-3" points="362.27 468.12 369.7 491.23 393.75 491.23 374.3 505.52 381.73 528.63 362.27 514.35 342.82 528.63 350.25 505.52 330.79 491.23 354.84 491.23 362.27 468.12"/><polygon class="cls-3" points="496.71 14.04 504.14 37.15 528.19 37.15 508.74 51.43 516.17 74.55 496.71 60.26 477.26 74.55 484.69 51.43 465.23 37.15 489.28 37.15 496.71 14.04"/><polygon class="cls-3" points="496.71 127.56 504.14 150.67 528.19 150.67 508.74 164.96 516.17 188.07 496.71 173.78 477.26 188.07 484.69 164.96 465.23 150.67 489.28 150.67 496.71 127.56"/><polygon class="cls-3" points="496.71 241.08 504.14 264.19 528.19 264.19 508.74 278.48 516.17 301.59 496.71 287.31 477.26 301.59 484.69 278.48 465.23 264.19 489.28 264.19 496.71 241.08"/><polygon class="cls-3" points="496.71 354.6 504.14 377.71 528.19 377.71 508.74 392 516.17 415.11 496.71 400.83 477.26 415.11 484.69 392 465.23 377.71 489.28 377.71 496.71 354.6"/><polygon class="cls-3" points="496.71 468.12 504.14 491.23 528.19 491.23 508.74 505.52 516.17 528.63 496.71 514.35 477.26 528.63 484.69 505.52 465.23 491.23 489.28 491.23 496.71 468.12"/></g></svg>