<svg id="Layer_1" data-name="Layer 1" xmlns="http://www.w3.org/2000/svg" viewBox="0 0 119 119"><defs><style>.cls-1{fill:#231f20;}</style></defs><path class="cls-1" d="M100.67,17.45a58.93,58.93,0,0,0-83.34,83.34h0c17.36,17.35,38.83,22.48,45.42,15.88,12.61-12.6-7.87-41.17,2.38-51.42s39.23,9.81,51.43-2.38C123,56.47,118,34.8,100.67,17.45Zm-78,5.35a9.48,9.48,0,1,1,0,13.41h0a9.48,9.48,0,0,1,0-13.4ZM18.8,74.2a9.47,9.47,0,1,1,8.09-10.67h0A9.47,9.47,0,0,1,18.8,74.2Zm27.49,25.94A9.47,9.47,0,1,1,42.82,87.2a9.47,9.47,0,0,1,3.47,12.94Zm27.8-81.23A9.48,9.48,0,1,1,66,8.24h0A9.49,9.49,0,0,1,74.09,18.91ZM100,46.41a9.48,9.48,0,1,1,3.48-12.95h0A9.48,9.48,0,0,1,100,46.41Z"/></svg>