<svg xmlns="http://www.w3.org/2000/svg" xmlns:xlink="http://www.w3.org/1999/xlink" viewBox="0 0 185.1 387.6"><defs><style>.cls-1{fill:none;}.cls-2{clip-path:url(#clip-path);}.cls-3{fill:#cce277;}.cls-4{clip-path:url(#clip-path-2);}.cls-5{opacity:0.61;}.cls-6{fill:#fff;}.cls-7{fill:#e06124;}.cls-8{fill:#a2d9d7;}.cls-9{fill:#8b2ab1;}</style><clipPath id="clip-path"><rect class="cls-1" x="-6853.22" y="-690.75" width="2248" height="2508"/></clipPath><clipPath id="clip-path-2"><path class="cls-1" d="M-132.86,1326.88c-38.6-56.82-34.92-129.28,2.88-187.69,46-71.15,135.83-120.14,182.77-191,45-67.93,44.94-151.28,7.68-220.78s-109.24-125.18-194-159.76c-51.24-20.91-108.78-35.48-148.74-68.22C-330.88,459.66-345,399.69-391,358c-55.87-50.69-148.27-65.31-234.18-65.84s-173.09,9.93-257.13-2.91c-95.77-14.63-179-58.19-268.06-89s-196.11-48.21-282.74-10.68c-134.19,58.13-149.25,212.4-268,288.94-60.34,38.88-140.64,52.9-203.29,89.4-68.89,40.13-110.72,105.44-121.53,172s7.3,134.21,40.64,195.22c32.86,60.15,80.38,115.12,105.43,177.68,19.11,47.68,24.28,97.3,23.87,147.69,29.19,10,55.49,24,76.57,43.15,46,41.72,60.09,101.68,108.69,141.51,40,32.74,97.49,47.31,148.75,68.22,84.77,34.58,156.75,90.27,194,159.76,19.84,37,29,77.92,26.59,118.36,27.45,10.17,53.74,23.49,81,34.11,143.54,56,332.18,32.23,450.22-56.73,34.43-26,63.05-56.6,99.47-80.78s84.21-41.79,130.15-34.36c40.09,6.49,71,30.42,99.6,53.3l146,117c44.26,35.46,124.7,60.27,121.44,110.58C-84.79,1876.65-5.83,1805.8,34.81,1721S73,1536,9.55,1462.27C-32.33,1413.59-97.6,1378.8-132.86,1326.88Z"/></clipPath></defs><g id="Layer_4" data-name="Layer 4"><g class="cls-2"><path class="cls-3" d="M-132.86,1326.88c-38.6-56.82-34.92-129.28,2.88-187.69,46-71.15,135.83-120.14,182.77-191,45-67.93,44.94-151.28,7.68-220.78s-109.24-125.18-194-159.76c-51.24-20.91-108.78-35.48-148.74-68.22C-330.88,459.66-345,399.69-391,358c-55.87-50.69-148.27-65.31-234.18-65.84s-173.09,9.93-257.13-2.91c-95.77-14.63-179-58.19-268.06-89s-196.11-48.21-282.74-10.68c-134.19,58.13-149.25,212.4-268,288.94-60.34,38.88-140.64,52.9-203.29,89.4-68.89,40.13-110.72,105.44-121.53,172s7.3,134.21,40.64,195.22c32.86,60.15,80.38,115.12,105.43,177.68,19.11,47.68,24.28,97.3,23.87,147.69,29.19,10,55.49,24,76.57,43.15,46,41.72,60.09,101.68,108.69,141.51,40,32.74,97.49,47.31,148.75,68.22,84.77,34.58,156.75,90.27,194,159.76,19.84,37,29,77.92,26.59,118.36,27.45,10.17,53.74,23.49,81,34.11,143.54,56,332.18,32.23,450.22-56.73,34.43-26,63.05-56.6,99.47-80.78s84.21-41.79,130.15-34.36c40.09,6.49,71,30.42,99.6,53.3l146,117c44.26,35.46,124.7,60.27,121.44,110.58C-84.79,1876.65-5.83,1805.8,34.81,1721S73,1536,9.55,1462.27C-32.33,1413.59-97.6,1378.8-132.86,1326.88Z"/><g class="cls-4"><g class="cls-5"><path class="cls-6" d="M340.54-147.23c-12.92-42.29-31.15-79.25-51.56-104.59-36.93-45.83-56.66-30.22-87.67-17.68-44.86,18.15-24.94,76.48-87.74-2.65-5.27-8.28-16-8.76-20.55-5-3.8,3.16-1.23,12.6.66,20.24.54,2.19,1.13,4.46,1.7,6.7a8,8,0,0,0,.13.95l185.74,751.1c-29.65-17.57-65.62-6.63-92.22,33.16-36.95,55.28-41.76,145-10.75,200.35s86.12,55.46,123.07.19c30.84-46.14,34.22-115.48,20.58-169.84L158.24-96.2c40,5.61,22.47,6.55,44.85-19.73,17.81-20.91,33-56.49,57.13-58.67,35.38-3.2,30.61,45,54.74,101.85,8,18.88,18.37,35.53,28.33,40.78C377-14.18,352.5-108,340.54-147.23Z"/><path class="cls-6" d="M8.11,369.84A324,324,0,0,0-32.25,471.15c-4.06,19.29-6.22,39.47.15,58.28s22.84,36,44.85,40.19c14.13,2.67,28.79-.18,42.81-3.26,37.86-8.32,78.64-20.69,98.45-50,18.06-26.71,13.19-61.91-5.22-88.43S100.42,382.41,69,367.87c-11.43-5.28-23.55-10.17-36.47-10.73-21.47-.93-42.78,11.68-49.69,29.4"/><path class="cls-6" d="M18.31,279C55.7,276.81,90,228.24,91,188.51s-17.41-77.58-33.4-114.8a798,798,0,0,1-32.23-87.5c-26.46-89-32.58-182.37-66.92-269.29-1.39-3.52-3.24-7.42-7.21-8.81-5.31-1.86-10.93,1.81-14.85,5.44-35.84,33.11-45.52,82.29-40.46,127.57S-81.16-70.26-68.81-26c24.24,86.78,27.32,177,47.46,264.59,2.18,9.46,4.77,19.28,11.8,26.74s6.8,12,27.86,13.69"/><path class="cls-6" d="M443.41,1187.2a123.68,123.68,0,0,0,27.37,44,234.38,234.38,0,0,0-69.48,2.59c-61.71,11.94-115.22,44.21-167.06,75.63.18-33.57,15-65.68,20.19-98.92,5-33.23-2.94-72.08-35.68-89.85-15.29-8.2-33.6-10.51-51.48-11.49A423.23,423.23,0,0,0-3.24,1134.53a247.36,247.36,0,0,0,34-111c.85-14.65-.11-30.25-9.3-42.69-11.51-15.77-33.79-22.83-55-26.5-71.11-12.82-147.52-1-209.25,32.34,8.47-31.16,34.16-56,52.4-83.67s28.17-64.89,5.45-90c-24.62-27.4-72.68-25.08-111.28-16.2A535.57,535.57,0,0,0-426.26,845.8c25.66-37.22,52.08-76.13,55.69-119.52,3.46-43.23-23.38-91.88-72-102-22.83-4.92-47.06-.59-69.86,4.41A926.53,926.53,0,0,0-676.16,681c44.25-43.35,73.67-98.08,83.72-155.36,2.73-14.9,3.8-31.21-5.09-44.27-15.68-23.22-53.14-24.94-83.6-20.72-74.3,10.08-145,38.92-201.35,82,9.69-55,93.67-84.27,97.46-139.7,3-46.52-57.14-80.56-110.29-76.91-53.14,3.81-98.92,32.94-141.33,61a366.08,366.08,0,0,0,47.85-130.08c3.79-24.13,4.88-49.92-8.42-71.32-19.59-32-66.34-45.14-107.67-40.63s-78.72,23.11-114.74,41.33c27-33.68,43.08-73.84,46.18-114.79,1.44-18.44-.74-39.09-16-51.95C-1208,3.72-1238,5.81-1263.37,10.81-1321,22.23-1376,43.59-1424.14,73.15c39.36-46.39,48.89-110.87,24.28-164.61-24.77-53.57-82.7-94.66-148.07-104.63a2179.62,2179.62,0,0,1,239.48-30.23c15.3-1.13,35,1.4,45.11,9.58q44.1-21.36,88.21-42.59c-26.75,41.49-53.94,91.13-31.8,134.62,20.31,39.53,76.21,57.24,125.47,52.45s93.62-27.38,136.28-49.43c-35.24,19.53-62.52,51.12-69.79,87s7.15,75.31,39.73,98.06c59.88,41.73,147.41,16.34,217.55-10.67-33.21,45.31-57.83,106.7-22,150.49,21.83,27.1,62,39.36,99.81,39.4,38,0,74.79-10.4,110.86-20.79-51.45,34.41-49.29,110-2.89,149.44s123.09,43.4,181.27,18.4c-9.45,27.3-19,55.81-13,83.78,9.19,43.59,55.08,75.85,104.44,86.85,49.19,11,101.25,4.26,150.86-5.37-38,43.76-67.1,105.09-34.34,152.06,22.75,32.62,70,47.5,113.78,46.16s85.63-16,126.25-30.36c-12.49,30.63-25.07,62.32-23.43,94.73,1.65,32.57,21.21,66.57,55.94,78.36,62,20.85,126.7-36.1,192.71-29.17-42.86,48.09-39.38,122.84,7.58,167.68,47,45,132.21,54.79,191,22.08C442.79,1089.72,427.73,1142.16,443.41,1187.2Z"/></g></g></g></g><g id="Layer_8" data-name="Layer 8"><path class="cls-7" d="M133.84,208.64c3.74-1.37,6.68-2.38,9.57-3.54,5.33-2.14,10.33-1.54,12.1,1.56s-.39,8.5-5,11.51c-3,2-6.36,3.33-9.39,5.24-.86.54-1.85,2.55-1.53,3,8.26,11.78,9.9,25.73,13,39.19.82,3.51,1.79,7,2.58,10.49.57,2.54,1.58,2.26,3.68,1.31a85.22,85.22,0,0,1,13.7-5c3.17-.8,8.74,2.52,9.28,5.55.34,1.88-.78,5.19-2.26,6-5.3,2.92-11,5.05-16.62,7.46-.59.26-1.23.39-2.79.87,3.54,8,6.76,15.76,10.46,23.33,3,6.09,6.56,11.88,9.77,17.86,4.53,8.44,2.41,16.17-2.57,23.66-4.54,6.81-11.23,10.46-18.58,13.21-2,.75-4.12,1.21-6.09,2-3.83,1.57-7,1.21-9.92-2.08-2.63-3-6.15-3.45-9.93-2.49-1.79.46-3.61.81-5.82,1.29-.52-3-1.09-5.73-1.43-8.45a67.12,67.12,0,0,0-7.75-24.67c-2.77-5-2.36-10-.54-15.07,2.26-6.24-.23-12.08-1.24-18-.09-.55-1.86-1.21-2.82-1.17-8.25.36-8.74.12-10.44-7.66a255.07,255.07,0,0,0-17.47-51.88c-1.11-2.42-1.93-5-2.83-7.48a13,13,0,0,1-.38-2.14c1-.49,1.88-1,2.82-1.42,5.44-2.42,5.74-2.66,3.56-8.44-2.55-6.73-5.28-13.42-8.42-19.88C73,187.28,70.12,170.57,67,153.91c-.57-3-.9-6.1-1.69-9.06-.63-2.34.3-3.35,2.22-4.31,2.61-1.31,5.42-2.53,7.53-4.46,6.49-6,14.59-8,22.77-8.78,4.16-.42,9,1.2,12.83,3.27,15.34,8.37,22.34,22.2,23.11,39.13C134.32,182.3,133.85,195,133.84,208.64ZM119,292.57c4.47,16.31,7.53,18.11,20.23,15a8,8,0,0,0,1.55-.4c5.12-2.3,11.47-3.2,12.69-10.16a7,7,0,0,0-1.16-5.2c-.88-1-3.32-1.38-4.77-1-4.34,1.23-8.51,3-12.76,4.52-3.43,1.22-5.41-.54-5.53-3.65a97.76,97.76,0,0,1,.53-15.4c.68-5.62,2.87-11.15,3-16.75.24-11.42-3.05-21.77-12.18-29.52-6.72-5.69-15.13-6.57-21.79-1.94-1.33.92-1.92,2.92-2.86,4.43,1.84,1,3.71,2.9,5.49,2.82,10-.46,18.7,7.48,18.44,17.52-.17,6.39-.84,12.77-.95,19.17C118.72,280.1,118.92,288.19,119,292.57Z"/><path class="cls-7" d="M43.75,273.34c-2.33-5.32-4.67-10.63-7.27-16.57-5.11,2.74-9.9,5.48-14.84,7.91a15.52,15.52,0,0,1-6.72,1.9c-4.29-.11-5.92-3.48-3.35-6.93a13.2,13.2,0,0,1,5.63-4.13c3.72-1.43,7.69-2.2,11.55-3.29a8.11,8.11,0,0,0,1.53-.62c-6.2-10.72-13.09-20.78-18-31.72-5.86-13-10.84-26.43-9.85-41.26.87-13.06,7.66-22.31,19.83-26.89,8.32-3.13,16.7-5.51,25.67-5.37,2.7,0,4.56.77,4.73,4C53.74,171.74,59.9,192.17,64,213c1.23,6.28,1.86,12.67,2.79,19,.22,1.55.52,3.09.84,4.94l6.48-2.08c1.3,8.06,2.21,15.73,3.82,23.25,2.41,11.34,5.23,22.59,8,33.84a120.29,120.29,0,0,0,3.69,11.85c1.09,3,.42,4.76-2.52,6.34-5,2.72-4.86,2.89-2.68,8.18C87.17,325,91,330.66,97,335a17.79,17.79,0,0,1,5.92,7.8c2.66,7.1,4.58,14.48,6.76,21.76.41,1.36.63,2.76,1.17,5.24-1.67-1.46-2.57-2.13-3.34-2.92-6.32-6.58-14.38-10.26-22.94-12.43-3.2-.81-7.45.27-10.54,1.83-5.11,2.58-8.55,7.14-10.55,12.63-.59,1.61-1.31,3.17-2,4.8C44.9,363.4,30.94,334,38.07,318.38c-3.5-.08-6.9,0-10.26-.29-5.38-.48-6.77-1.86-8.36-7-.75-2.47-.14-4.21,2.48-4.14a104.08,104.08,0,0,1,16.2,1.24c3.85.72,4-.56,4.77-3.77,1.9-7.71,3.09-15.34,2-23.24-.36-2.64-.84-5.27-1.27-7.9,4.27,4.91,8.4,9.94,12.84,14.69s8.25,9.72,9.34,16c1,5.49-.23,9.74-7.26,7.9a18.21,18.21,0,0,0-2-.33c-2.87-.41-5.25.29-6.89,2.92s-1.33,5.31.26,7.88c3.45,5.55,9.93,7.24,15.67,3.63C73.49,321,77.93,313.8,78.4,304.49c.42-8.43-3.12-15.59-8.14-22-4.76-6.09-10.11-11.72-14.76-17.88-5.43-7.19-5.33-10.49,4.69-11.84,2.33-.31,5.63-.87,4.86-3.93a8.28,8.28,0,0,0-5.19-5c-9.66-2.32-19.67,7.76-18.61,18.62C41.61,266.15,42.89,269.72,43.75,273.34Z"/><path class="cls-8" d="M93,315.4c1.94-3.25-.79-8.39,4.88-7.89l1.52,5.18,1.57-.15c-.09-2-.18-4-.28-6.22l3.66-1.38L107,310.6l1.31-.42-.63-5.51c5.67-1.29,7.27-.52,7.83,5a35.27,35.27,0,0,1-.55,12.14c-1.46,5.66-1.22,10.77,1.67,15.78,5,8.74,6.91,18.38,8.06,28.25.3,2.61-.28,3.8-3,4.35-7.67,1.53-7.52,1.63-9.55-5.72s-3.8-14.77-6.68-21.76a28,28,0,0,0-8.1-10.51c-5.44-4.41-8.78-10-11.2-16.22-1.68-4.32,2.88-3.73,4.69-5.63Z"/><path class="cls-9" d="M63.75,375.22c2-7,4.9-13.07,11.08-17.16a11.12,11.12,0,0,1,10.24-1.29c9.9,3.19,18.48,8.38,25,16.53,1.73,2.18,2.22,5.36,3.31,8.17C99.2,384.93,76.23,385.32,63.75,375.22Z"/><path class="cls-9" d="M35.83,27.51,23.92,31.72l-2-9.26L10.06,25.05c1.9-4.12,4-5.69,7.1-5.47,2.91.2,3-1.25,2.5-3.49a39.76,39.76,0,0,1-1.12-7.48c-.08-2.92.72-5.63,4.26-6.22,3.75-.63,5.76,1.34,6.66,4.7.62,2.33,1.08,4.7,1.62,7.06a58.22,58.22,0,0,1,6.68-2.35c.85-.2,2,.64,3,1-.48.81-.77,1.91-1.48,2.37-2.21,1.42-4.57,2.59-7,4C33.47,22,34.6,24.67,35.83,27.51Z"/><path class="cls-9" d="M103.4,302.73l-3.2,1c-7.78-20.15-15-40.24-17.67-62.45C93,261,98.09,281.77,103.4,302.73Z"/><path class="cls-9" d="M97.64,304.65l-4.44,2c-8.32-23.53-14-47.51-15.62-72.71a12.74,12.74,0,0,1,1.48,2.95c1.7,8.36,2.76,16.89,5,25.08,3.26,11.65,7.4,23.06,11.14,34.58C96.1,299.21,96.82,301.88,97.64,304.65Z"/><path class="cls-9" d="M58.6,142.57c-.61-5.35-1-10.74-1.87-16C54.24,111.1,51,95.89,45.16,81.27c-3.51-8.75-5.9-18-8.38-27.12a190.8,190.8,0,0,1-4.42-22.4c.71,1.85,1.59,3.66,2.12,5.57C37.39,47.86,40.16,58.45,43.13,69c.93,3.32,2.41,6.49,3.47,9.79,2.2,6.83,4.72,13.61,6.32,20.59,2.87,12.47,5.21,25.06,7.61,37.63.34,1.79-.18,3.74-.31,5.62Z"/><path class="cls-9" d="M81.52,230.24l-8.74-39.81c4.21,9.81,8.61,20,13,30.29A20,20,0,0,1,86.6,223C88.16,228.22,87.89,228.65,81.52,230.24Z"/><path class="cls-9" d="M45.05,89.5C55.88,116.61,54.76,146,60,174.16Z"/><path class="cls-9" d="M60.73,180.91l13,52-3.32.73L58.86,181Z"/><path class="cls-9" d="M144.05,374.8,129.39,378c-.44-2-.91-4.15-1.39-6.3C135.55,368.48,140.11,369.09,144.05,374.8Z"/><path class="cls-9" d="M114,374.09l11.23-2.47c.35,1.59.6,3,1,4.34.55,2.05,0,3.33-2.22,3.76-2.72.52-5.41,1.17-8.35,1.81Z"/><path class="cls-9" d="M16.93,63.32c-.8-2.58-1.45-4.68-2.26-7.26L26.93,51.9c1.56,3.62,2.22,6.17-2,7.62A83.21,83.21,0,0,0,16.93,63.32Z"/><path class="cls-9" d="M15.58,44c.51,1.33,1,2,.91,2.52a19.44,19.44,0,0,1-1,3.25c-1.28-.59-3.42-.93-3.68-1.82a53.87,53.87,0,0,1-1.49-9.43c-.06-.54.66-1.36,1.23-1.68.33-.19,1.5.27,1.57.6,1.13,5.26,4.6,2.82,7.46,2.33.77-.13,1.52-.4,2.6-.69.41,1.09.81,2.13,1.35,3.55Z"/><path class="cls-9" d="M54.39,49.14l-8.75,3.71c-1.35-2.16-1.54-3.7,1.52-4.2,3.55-.58,7.35-1,4.35-6.89l1.25-.38c1.58,1,3.92,1.61,4.56,3,1,2.24,1,5,1.2,7.54,0,.26-1.75,1-1.87.89A30.09,30.09,0,0,1,54.39,49.14Z"/><path class="cls-9" d="M48.79,32.31,41,35.87c-1.65-3.23-.69-3.91,8.57-5.93-.65-2.05-1.28-4.07-2.14-6.83,1.38.34,2.78.3,3,.83a76.5,76.5,0,0,1,4,9.39c.19.57-1.2,1.66-1.86,2.52Z"/><path class="cls-9" d="M55.13,94.76,41.84,56.89l1.59-.54L56.12,94.62Z"/><path class="cls-9" d="M75.7,232.33l-6.57-30c3.65,9.63,7,19.35,8.66,29.5Z"/><path class="cls-9" d="M44.91,107.49,37.6,74.19l.38-.1,7.31,33.29Z"/><path class="cls-9" d="M63.43,149.78l7.5,34.14C67.66,172.81,62.23,162.12,63.43,149.78Z"/><path class="cls-9" d="M70.48,198.73,61.6,166.26l.94-.26q4.58,16.13,9.16,32.26Z"/><path class="cls-9" d="M29.26,33.54l4.63,21.11-.43.13-5.67-21Z"/><path class="cls-9" d="M60.68,144.6q.2,8.07.38,16.13l-.29.05q-1-8-2-16Z"/><path class="cls-9" d="M98.08,232.67c2.4-3.79,5.17-5.4,8.83-5.44,8.93-.1,17.41,8,19.56,13.86,2.6,7.18,5.74,14.49,3.9,22.52-.89,3.87-2.33,7.66-2.8,11.58a82.14,82.14,0,0,0-.74,16.56c.48,5.53,2.77,6.94,8.17,5.71,3.84-.87,7.43-2.81,11.21-4,1.36-.45,3.82-.77,4.23-.14a5.81,5.81,0,0,1,.33,4.6c-2.1,5.53-7.68,6.12-12.29,7.82a24.43,24.43,0,0,1-7.9,1c-3.59.08-5.86-2.34-6.66-5.38-1.35-5.09-2.79-10.35-2.83-15.55-.1-11.44.93-22.88,1-34.32,0-10.36-9.1-18.59-19.43-18.24A35,35,0,0,1,98.08,232.67Z"/><path class="cls-9" d="M62.79,250c-1.72.38-3,.62-4.17.92a37.48,37.48,0,0,0-5,1.38c-4.19,1.73-5.54,4.71-3.32,8.59a90.48,90.48,0,0,0,7.63,10.7c5.81,7.41,12.84,13.89,16.41,23,4.2,10.73.25,23.48-9.53,29.46-5.62,3.44-12.27,1-13.71-5-.81-3.37.45-5.18,3.87-5.39a14.45,14.45,0,0,1,2.77.27c8.44,1.22,12.78-3.86,10-12.15A38.07,38.07,0,0,0,56.91,285.2c-5.82-5.22-11-10.82-12.83-18.83-2.18-9.37.77-16.56,8.68-20C56.85,244.6,60,245.52,62.79,250Z"/><path d="M52.37,144.42c-1.58-7.8-2-15.57-4.76-22.46-6.47-16.4-9.56-33.61-13.82-50.54-1-3.81-2.66-7.44-4.21-11.67L15.71,66.4c-1.43-3.71-2.79-7.23-4.32-11.22l15.24-5.26c-.21-5.12-.82-5.54-6.95-4.27-.31,2.78-.49,5.59-4.5,6.16-3.36.47-5.31-.71-6.06-3.63a32.66,32.66,0,0,1-1.35-9.47c.06-1.44,1.91-3.29,3.41-4.06s3.4-.69,4.46,1.8c1.76,4.13,4.14.08,6.28.37L18.74,25.67c-3.89.3-7.83,3.08-11.62-2l9.55-7.77c-.14-1.39-1-4-.51-6.34C16.8,6.66,17.9,3.15,20,1.43c2.71-2.18,6.68-1.7,9.8.34,1,.66,1.6,2.23,2,3.5a55.39,55.39,0,0,1,1.09,6.17c1.89-.73,3.41-1.89,4.76-1.71,2,.25,4.54.93,5.65,2.37,1.8,2.34-.67,3.77-2.48,4.88-1.57,1-3.29,1.67-5,2.49,1.21,3.81,2.33,7.35,3.55,11.22l6.17-2c.12-2.42-.45-4.79.47-6.2,1.61-2.5,6.19-1.62,7.74,1.33A42.92,42.92,0,0,1,57,31.57a5,5,0,0,1-3,6.28c-2.74,1.29-4.92.57-5.94-2.34-7,1.87-7.72,3-5.91,8.61,1,3.19,1.53,3.28,6.25.54,1.15-1.56,2-3.87,3.5-4.52,3.13-1.35,6.52-.29,7.74,3,1.09,2.91,1.73,6.57,1,9.48-1,3.64-4.59,3.42-8.25-.23L46.6,54.79C50.5,69,55.06,82.82,58,97s4,28.43,6.09,43.59c4.4-2.61,8-4.52,11.4-6.79,21-14.13,37.1-10.67,51.76,8.24,8.25,10.64,9.53,23.49,9.18,36.56-.23,8.51-.21,17-.31,26,4.76-1,8.82-2,12.91-2.82a7.78,7.78,0,0,1,8.82,4.07c1,2.25.4,6.33-1.11,8.43-2.36,3.31-6,5.75-9.28,8.35-1.41,1.12-3.23,1.74-5.22,2.78,9.6,15.31,10.68,33,15.2,49.94,2.76-1.32,5-2.52,7.29-3.45,5.88-2.34,11.59-3,16.8,1.8,4.42,4.07,4.47,9.12-.58,12.39-3.76,2.44-8,4.12-12.1,6a52.57,52.57,0,0,1-5.34,1.77c3.4,7.47,6.51,14.64,9.9,21.67,3.06,6.36,6.46,12.55,9.63,18.85,4.36,8.66,1.35,16.36-3.44,23.67-5.86,8.93-15.06,12.71-24.75,15.84-12.54,4.06-25.51,6.42-38.21,9.53-.18,1.48-.33,2.77-.48,4.06l-1,.15-2.29-3.55c-20,3.05-39.76,3.77-56.32-11C41,359.21,32.44,342.22,34.11,320.64c-2.76-.24-5.79-.34-8.77-.79-4.92-.75-9.18-6.59-8.19-11.4a4.28,4.28,0,0,1,2.76-2.82A87.91,87.91,0,0,1,32.16,305a48,48,0,0,1,7.26,1.16c5.72-14.25,4.45-27.89-1.91-41.27-2.24-4.71-2.82-4.93-7.49-2.49-3.19,1.68-6.29,3.52-9.52,5.11C16,269.7,10.35,268.8,8.91,265.82c-1.76-3.68.57-8.89,5.26-11.23a37.13,37.13,0,0,1,6.41-2.24c2.05-.58,4.16-.94,7-1.56-1.16-1.86-1.93-3.32-2.9-4.62C14,231.84,7.11,215.69,2.07,198.72A55.19,55.19,0,0,1,1,173.33c2.46-13.93,12.22-20.74,24.8-25A70.89,70.89,0,0,1,52.37,144.42ZM43.65,273.25c.43,2.63.91,5.26,1.27,7.9,1.07,7.9-.12,15.53-2,23.24-.79,3.21-.92,4.49-4.77,3.77a104.08,104.08,0,0,0-16.2-1.24c-2.62-.07-3.23,1.67-2.48,4.14,1.59,5.17,3,6.55,8.36,7,3.36.31,6.76.21,10.26.29-7.13,15.63,6.83,45,23.42,55.31.67-1.63,1.39-3.19,2-4.8,2-5.49,5.44-10.05,10.55-12.63,3.09-1.56,7.34-2.64,10.54-1.83,8.56,2.17,16.62,5.85,22.94,12.43.77.79,1.67,1.46,3.34,2.92-.54-2.48-.76-3.88-1.17-5.24-2.18-7.28-4.1-14.66-6.76-21.76A17.79,17.79,0,0,0,97,335c-6-4.32-9.82-10-12.58-16.68-2.18-5.29-2.37-5.46,2.68-8.18,2.94-1.58,3.61-3.31,2.52-6.34a120.29,120.29,0,0,1-3.69-11.85c-2.79-11.25-5.61-22.5-8-33.84-1.61-7.52-2.52-15.19-3.82-23.25l-6.48,2.08c-.32-1.85-.62-3.39-.84-4.94-.93-6.33-1.56-12.72-2.79-19-4.07-20.81-10.23-41.24-11.34-62.59-.17-3.25-2-4-4.73-4-9-.14-17.35,2.24-25.67,5.37-12.17,4.58-19,13.83-19.83,26.89-1,14.83,4,28.3,9.85,41.26,4.94,10.94,11.83,21,18,31.72a8.11,8.11,0,0,1-1.53.62c-3.86,1.09-7.83,1.86-11.55,3.29a13.2,13.2,0,0,0-5.63,4.13c-2.57,3.45-.94,6.82,3.35,6.93a15.52,15.52,0,0,0,6.72-1.9c4.94-2.43,9.73-5.17,14.84-7.91,2.6,5.94,4.94,11.25,7.27,16.57Zm90.19-64.61c0-13.69.48-26.34-.09-38.94-.77-16.93-7.77-30.76-23.11-39.13-3.8-2.07-8.67-3.69-12.83-3.27-8.18.82-16.28,2.82-22.77,8.78-2.11,1.93-4.92,3.15-7.53,4.46-1.92,1-2.85,2-2.22,4.31.79,3,1.12,6,1.69,9.06,3.14,16.66,6.06,33.37,13.6,48.84,3.14,6.46,5.87,13.15,8.42,19.88,2.18,5.78,1.88,6-3.56,8.44-.94.42-1.85.93-2.82,1.42a13,13,0,0,0,.38,2.14c.9,2.5,1.72,5.06,2.83,7.48A255.07,255.07,0,0,1,103.3,294c1.7,7.78,2.19,8,10.44,7.66,1,0,2.73.62,2.82,1.17,1,6,3.5,11.8,1.24,18-1.82,5-2.23,10.06.54,15.07a67.12,67.12,0,0,1,7.75,24.67c.34,2.72.91,5.41,1.43,8.45,2.21-.48,4-.83,5.82-1.29,3.78-1,7.3-.48,9.93,2.49,2.9,3.29,6.09,3.65,9.92,2.08,2-.8,4.09-1.26,6.09-2,7.35-2.75,14-6.4,18.58-13.21,5-7.49,7.1-15.22,2.57-23.66-3.21-6-6.8-11.77-9.77-17.86-3.7-7.57-6.92-15.37-10.46-23.33,1.56-.48,2.2-.61,2.79-.87,5.58-2.41,11.32-4.54,16.62-7.46,1.48-.81,2.6-4.12,2.26-6-.54-3-6.11-6.35-9.28-5.55a85.22,85.22,0,0,0-13.7,5c-2.1.95-3.11,1.23-3.68-1.31-.79-3.51-1.76-7-2.58-10.49-3.14-13.46-4.78-27.41-13-39.19-.32-.46.67-2.47,1.53-3,3-1.91,6.4-3.28,9.39-5.24,4.61-3,6.78-8.41,5-11.51s-6.77-3.7-12.1-1.56C140.52,206.26,137.58,207.27,133.84,208.64ZM93,315.4l-2.18-5c-1.81,1.9-6.37,1.31-4.69,5.63,2.42,6.25,5.76,11.81,11.2,16.22a28,28,0,0,1,8.1,10.51c2.88,7,4.66,14.44,6.68,21.76s1.88,7.25,9.55,5.72c2.76-.55,3.34-1.74,3-4.35-1.15-9.87-3-19.51-8.06-28.25-2.89-5-3.13-10.12-1.67-15.78a35.27,35.27,0,0,0,.55-12.14c-.56-5.56-2.16-6.33-7.83-5l.63,5.51-1.31.42-2.66-5.66-3.66,1.38c.1,2.26.19,4.24.28,6.22l-1.57.15-1.52-5.18C92.16,307,94.89,312.15,93,315.4Zm-29.2,59.82c12.48,10.1,35.45,9.71,49.58,6.25-1.09-2.81-1.58-6-3.31-8.17-6.47-8.15-15-13.34-25-16.53a11.12,11.12,0,0,0-10.24,1.29C68.65,362.15,65.72,368.27,63.75,375.22ZM35.83,27.51c-1.23-2.84-2.36-5.47-3.62-8.39,2.45-1.36,4.81-2.53,7-4,.71-.46,1-1.56,1.48-2.37-1-.36-2.1-1.2-3-1a58.22,58.22,0,0,0-6.68,2.35c-.54-2.36-1-4.73-1.62-7.06-.9-3.36-2.91-5.33-6.66-4.7-3.54.59-4.34,3.3-4.26,6.22a39.76,39.76,0,0,0,1.12,7.48c.49,2.24.41,3.69-2.5,3.49-3.13-.22-5.2,1.35-7.1,5.47l11.83-2.59,2,9.26ZM103.4,302.73C98.09,281.77,93,261,82.53,241.25c2.64,22.21,9.89,42.3,17.67,62.45Zm-5.76,1.92c-.82-2.77-1.54-5.44-2.39-8.07-3.74-11.52-7.88-22.93-11.14-34.58-2.29-8.19-3.35-16.72-5-25.08A12.74,12.74,0,0,0,77.58,234c1.6,25.2,7.3,49.18,15.62,72.71Zm-39-162.08,1.62.05c.13-1.88.65-3.83.31-5.62-2.4-12.57-4.74-25.16-7.61-37.63-1.6-7-4.12-13.76-6.32-20.59-1.06-3.3-2.54-6.47-3.47-9.79-3-10.54-5.74-21.13-8.65-31.67-.53-1.91-1.41-3.72-2.12-5.57a190.8,190.8,0,0,0,4.42,22.4c2.48,9.13,4.87,18.37,8.38,27.12C51,95.89,54.24,111.1,56.73,126.52,57.59,131.83,58,137.22,58.6,142.57Zm22.92,87.67c6.37-1.59,6.64-2,5.08-7.28a20,20,0,0,0-.82-2.24c-4.39-10.24-8.79-20.48-13-30.29ZM45.05,89.5,60,174.16C54.76,146,55.88,116.61,45.05,89.5Zm15.68,91.41-1.87.11,11.55,52.61,3.32-.73ZM144.05,374.8c-3.94-5.71-8.5-6.32-16-3.08l1.38,6.3Zm-30-.71,1.63,7.44c2.94-.64,5.63-1.29,8.35-1.81,2.25-.43,2.77-1.71,2.22-3.76-.37-1.36-.62-2.75-1-4.34ZM16.93,63.32a83.21,83.21,0,0,1,8-3.8c4.21-1.45,3.55-4,2-7.62L14.67,56.06C15.48,58.64,16.13,60.74,16.93,63.32ZM15.58,44l8.92-1.37c-.54-1.42-.94-2.46-1.35-3.55-1.08.29-1.83.56-2.6.69-2.86.49-6.33,2.93-7.46-2.33-.07-.33-1.24-.79-1.57-.6-.57.32-1.29,1.14-1.23,1.68a53.87,53.87,0,0,0,1.49,9.43c.26.89,2.4,1.23,3.68,1.82a19.44,19.44,0,0,0,1-3.25C16.58,45.93,16.09,45.29,15.58,44Zm38.81,5.18a30.09,30.09,0,0,0,2.26,3.69c.12.14,1.89-.63,1.87-.89-.22-2.55-.17-5.3-1.2-7.54-.64-1.41-3-2-4.56-3l-1.25.38c3,5.87-.8,6.31-4.35,6.89-3.06.5-2.87,2-1.52,4.2Zm-5.6-16.83,3.77,3.54c.66-.86,2-2,1.86-2.52a76.5,76.5,0,0,0-4-9.39c-.26-.53-1.66-.49-3-.83.86,2.76,1.49,4.78,2.14,6.83-9.26,2-10.22,2.7-8.57,5.93Zm6.34,62.45,1-.14L43.43,56.35l-1.59.54ZM75.7,232.33l2.09-.45c-1.69-10.15-5-19.87-8.66-29.5ZM44.91,107.49l.38-.11L38,74.09l-.38.1Zm18.52,42.29c-1.2,12.34,4.23,23,7.5,34.14Zm7.05,48.95,1.22-.47Q67.11,182.14,62.54,166l-.94.26ZM29.26,33.54l-1.47.28,5.67,21,.43-.13ZM60.68,144.6l-1.88.2q1,8,2,16l.29-.05Q60.86,152.66,60.68,144.6Z"/><path d="M119,292.57c0-4.38-.23-12.47-.08-20.55.11-6.4.78-12.78.95-19.17.26-10-8.44-18-18.44-17.52-1.78.08-3.65-1.83-5.49-2.82.94-1.51,1.53-3.51,2.86-4.43,6.66-4.63,15.07-3.75,21.79,1.94,9.13,7.75,12.42,18.1,12.18,29.52-.12,5.6-2.31,11.13-3,16.75a97.76,97.76,0,0,0-.53,15.4c.12,3.11,2.1,4.87,5.53,3.65,4.25-1.52,8.42-3.29,12.76-4.52,1.45-.41,3.89,0,4.77,1a7,7,0,0,1,1.16,5.2c-1.22,7-7.57,7.86-12.69,10.16a8,8,0,0,1-1.55.4C126.48,310.68,123.42,308.88,119,292.57Zm-20.87-59.9a35,35,0,0,0,4.55.53c10.33-.35,19.47,7.88,19.43,18.24,0,11.44-1.07,22.88-1,34.32,0,5.2,1.48,10.46,2.83,15.55.8,3,3.07,5.46,6.66,5.38a24.43,24.43,0,0,0,7.9-1c4.61-1.7,10.19-2.29,12.29-7.82a5.81,5.81,0,0,0-.33-4.6c-.41-.63-2.87-.31-4.23.14-3.78,1.23-7.37,3.17-11.21,4-5.4,1.23-7.69-.18-8.17-5.71a82.14,82.14,0,0,1,.74-16.56c.47-3.92,1.91-7.71,2.8-11.58,1.84-8-1.3-15.34-3.9-22.52-2.15-5.91-10.63-14-19.56-13.86C103.25,227.27,100.48,228.88,98.08,232.67Z"/><path d="M43.75,273.34c-.86-3.62-2.14-7.19-2.5-10.85-1.06-10.86,9-20.94,18.61-18.62a8.28,8.28,0,0,1,5.19,5c.77,3.06-2.53,3.62-4.86,3.93-10,1.35-10.12,4.65-4.69,11.84,4.65,6.16,10,11.79,14.76,17.88,5,6.42,8.56,13.58,8.14,22C77.93,313.8,73.49,321,65.65,326c-5.74,3.61-12.22,1.92-15.67-3.63-1.59-2.57-2-5.16-.26-7.88s4-3.33,6.89-2.92a18.21,18.21,0,0,1,2,.33c7,1.84,8.22-2.41,7.26-7.9-1.09-6.29-5-11.34-9.34-16s-8.57-9.78-12.84-14.69Zm19-23.36c-2.76-4.46-5.94-5.38-10-3.61-7.91,3.44-10.86,10.63-8.68,20,1.87,8,7,13.61,12.83,18.83a38.07,38.07,0,0,1,10.87,16.54c2.75,8.29-1.59,13.37-10,12.15a14.45,14.45,0,0,0-2.77-.27c-3.42.21-4.68,2-3.87,5.39,1.44,6,8.09,8.44,13.71,5,9.78-6,13.73-18.73,9.53-29.46-3.57-9.09-10.6-15.57-16.41-23a90.48,90.48,0,0,1-7.63-10.7c-2.22-3.88-.87-6.86,3.32-8.59a37.48,37.48,0,0,1,5-1.38C59.83,250.6,61.07,250.36,62.79,250Z"/></g></svg>