<svg id="Layer_1" data-name="Layer 1" xmlns="http://www.w3.org/2000/svg" viewBox="0 0 100.02 100.01"><defs><style>.cls-1{fill:#231f20;}</style></defs><path class="cls-1" d="M45.32,70.09A8.58,8.58,0,0,1,44.08,70a13.7,13.7,0,0,1-9.8-6.22,21.75,21.75,0,0,1-3.44-14.55c1-9.93,8-17.72,15.93-17.72a10.31,10.31,0,0,1,1.24.07,13.73,13.73,0,0,1,9.8,6.21,21.75,21.75,0,0,1,3.44,14.55C60.23,62.31,53.24,70.09,45.32,70.09Z" transform="translate(0.25 -0.75)"/><path class="cls-1" d="M73,59.47l5.63-33.8-8.85-1.61L67.54,38.33C64.37,29.76,57.42,23.48,48.8,22.59,36,21.28,24.34,32.4,22.8,47.43S30.4,75.71,43.23,77c8.67.9,16.81-3.9,21.63-11.76C66.54,71,71.56,76,80.21,77.17A23,23,0,0,0,93.6,75.05a49.65,49.65,0,0,1-8.22,11h0s-3.73,3.49-5.77,5c-.52.39-1.06.77-1.58,1.12l-1.58,1-.09,0a49.68,49.68,0,0,1-6.9,3.6c-.59.26-1.21.5-1.83.74s-1.23.45-1.85.66c-.94.32-1.89.61-2.86.87-.4.12-.81.22-1.22.32-.24.06-.48.12-.72.16-1.31.3-2.63.55-4,.74l-1,.14c-.54.07-1.08.12-1.63.17s-1.31.11-2,.14H49.8a50.17,50.17,0,0,1-40.1-20c-.73-1-1.41-2-2.06-3s-1.27-2.06-1.85-3.12a39.82,39.82,0,0,1-2.1-4.36c-.32-.74-.62-1.5-.9-2.26l-.4-1.16c-.27-.78-.51-1.55-.74-2.35A50.41,50.41,0,0,1-.25,50.81a49.86,49.86,0,0,1,2-14.05c.15-.54.32-1.08.5-1.62A49.84,49.84,0,0,1,14.42,15.42c.56-.57,1.14-1.11,1.73-1.65A51.23,51.23,0,0,1,20.84,10c.52-.37,1.05-.74,1.59-1.09s.94-.6,1.43-.9S25,7.33,25.57,7a49.38,49.38,0,0,1,8.56-3.75c.54-.18,1.07-.35,1.62-.5a49.93,49.93,0,0,1,14.06-2h1.28a10.7,10.7,0,0,1,1.39.06c.46.06.79,0,1.17.07a18.27,18.27,0,0,1,2.08.19l1.06.14c.39.06.77.11,1.15.18l1.13.2,1.12.22c.71.16,1.41.32,2.12.5a.17.17,0,0,1,.1,0,50.53,50.53,0,0,1,37,41.83c.06.42.11.83.16,1.24s.08.81.11,1.21C101.62,73.34,69.84,76.27,73,59.47Z" transform="translate(0.25 -0.75)"/></svg>