<svg id="Layer_1" data-name="Layer 1" xmlns="http://www.w3.org/2000/svg" xmlns:xlink="http://www.w3.org/1999/xlink" viewBox="0 0 484.14 309.81"><defs><style>.cls-1{fill:none;}.cls-2{clip-path:url(#clip-path);}.cls-3{clip-path:url(#clip-path-2);}.cls-4{opacity:0.61;}.cls-5{fill:#fff;}.cls-6{fill:#e06124;}.cls-7{fill:#a2d9d7;}.cls-8{fill:#8b2ab1;}.cls-9{fill:#82a637;}.cls-10{clip-path:url(#clip-path-3);}.cls-11{clip-path:url(#clip-path-4);}.cls-12{clip-path:url(#clip-path-5);}.cls-13{fill:#ffe882;}</style><clipPath id="clip-path"><rect class="cls-1" x="-4769.35" y="957.57" width="2248" height="2508"/></clipPath><clipPath id="clip-path-2"><path class="cls-1" d="M1951,2975.21c-38.6-56.83-34.92-129.28,2.88-187.7,46-71.15,135.83-120.14,182.77-190.94,45-67.94,44.94-151.29,7.68-220.79s-109.24-125.17-194-159.76c-51.25-20.91-108.78-35.47-148.74-68.22-48.6-39.82-62.7-99.79-108.69-141.51-55.87-50.68-148.27-65.3-234.18-65.84s-173.09,9.93-257.13-2.91c-95.77-14.63-179-58.18-268.06-89s-196.11-48.2-282.74-10.67c-134.19,58.13-149.25,212.4-268,288.93-60.34,38.88-140.64,52.91-203.29,89.41-68.89,40.13-110.72,105.44-121.53,172s7.3,134.21,40.64,195.23C131.44,2643.6,179,2698.58,204,2761.13c19.1,47.69,24.28,97.3,23.87,147.69,29.19,10,55.49,24,76.57,43.15,46,41.72,60.09,101.69,108.69,141.51,40,32.75,97.49,47.31,148.74,68.22,84.78,34.59,156.76,90.27,194,159.76,19.84,37,29,77.92,26.59,118.36,27.44,10.18,53.74,23.49,81,34.11,143.54,56,332.18,32.23,450.21-56.73,34.44-25.94,63-56.6,99.48-80.78s84.21-41.79,130.15-34.35c40.09,6.48,71,30.41,99.6,53.3l146,117c44.26,35.45,124.7,60.26,121.44,110.57,88.76-57.92,167.72-128.77,208.36-213.56s38.2-185-25.26-258.74C2051.54,3061.91,1986.27,3027.13,1951,2975.21Z"/></clipPath><clipPath id="clip-path-3"><rect class="cls-1" x="1246.98" y="-307.43" width="438" height="452"/></clipPath><clipPath id="clip-path-4"><rect class="cls-1" x="1232.98" y="-306.43" width="452" height="451"/></clipPath><clipPath id="clip-path-5"><rect class="cls-1" x="1248.67" y="-172.43" width="432.42" height="310.46"/></clipPath></defs><g id="Layer_4" data-name="Layer 4"><g class="cls-2"><g class="cls-3"><g class="cls-4"><path class="cls-5" d="M362.49-113.46c-12.92-42.29-31.14-79.25-51.56-104.59-36.93-45.84-56.66-30.22-87.67-17.68-44.86,18.15-24.94,76.47-87.74-2.65-5.27-8.28-16-8.76-20.55-5-3.8,3.17-1.23,12.61.66,20.25.54,2.18,1.13,4.46,1.7,6.7a4.52,4.52,0,0,0,.13,1L303.2,535.66c-29.65-17.57-65.62-6.66-92.2,33.16-36.95,55.27-41.76,145-10.74,200.35s86.11,55.46,123.06.18c30.84-46.13,34.22-115.47,20.59-169.83L180.19-62.43c40,5.61,22.47,6.55,44.85-19.73,17.81-20.91,33-56.49,57.13-58.68,35.39-3.2,30.62,45,54.74,101.86,8,18.87,18.37,35.53,28.33,40.78C399,19.59,374.45-74.27,362.49-113.46Z"/><path class="cls-5" d="M40.26,302.37c37.4-2.16,71.69-50.73,72.71-90.46s-17.4-77.58-33.4-114.8A798.87,798.87,0,0,1,47.34,9.6c-26.46-89-32.58-182.36-66.91-269.28-1.4-3.53-3.24-7.43-7.22-8.82-5.31-1.86-10.92,1.82-14.85,5.45-35.84,33.11-45.51,82.29-40.46,127.57S-59.2-46.86-46.86-2.66c24.24,86.78,27.32,177,47.47,264.59,2.17,9.47,4.76,19.28,11.79,26.74s6.8,12,27.86,13.7"/><path class="cls-5" d="M446.48,625.84c37.39-2.16,71.69-50.74,72.71-90.47s-17.41-77.58-33.4-114.8a798,798,0,0,1-32.23-87.5c-26.46-89-32.58-182.36-66.92-269.28-1.39-3.53-3.24-7.43-7.21-8.82-5.31-1.86-10.93,1.82-14.85,5.45C328.74,93.53,319.07,142.7,324.12,188S347,276.6,359.36,320.81c24.24,86.78,27.32,177,47.47,264.59,2.17,9.46,4.76,19.28,11.79,26.74s6.8,12,27.86,13.7"/><path class="cls-5" d="M871.59,1534.07A123.51,123.51,0,0,0,899,1578a234.33,234.33,0,0,0-69.48,2.58c-61.71,12-115.22,44.22-167.06,75.64.18-33.57,15-65.68,20.19-98.92,5-33.24-2.94-72.08-35.68-89.86-15.29-8.19-33.6-10.5-51.48-11.48A423.32,423.32,0,0,0,425,1481.36a247.26,247.26,0,0,0,34-111c.85-14.64-.11-30.24-9.3-42.68-11.5-15.78-33.79-22.84-55-26.5-71.11-12.82-147.52-1-209.25,32.34,8.47-31.16,34.17-56,52.4-83.67s28.17-64.9,5.45-90c-24.62-27.4-72.68-25.08-111.28-16.2a536.1,536.1,0,0,0-130.09,49c25.67-37.21,52.08-76.13,55.69-119.52,3.46-43.23-23.38-91.88-72-102-22.82-4.93-47.06-.6-69.86,4.41A926.26,926.26,0,0,0-248,1027.82c44.25-43.35,73.67-98.08,83.72-155.36,2.73-14.9,3.8-31.21-5.09-44.27C-185,805-222.5,803.25-253,807.47c-74.3,10.07-145,38.91-201.35,82,9.69-55,93.67-84.27,97.46-139.71,3-46.52-57.14-80.55-110.29-76.9s-98.92,32.94-141.33,61a366,366,0,0,0,47.85-130.08c3.8-24.14,4.88-49.93-8.42-71.33-19.59-32-66.34-45.14-107.67-40.62s-78.68,23.17-114.7,41.34c27-33.68,43.08-73.84,46.18-114.79,1.44-18.44-.74-39.09-16-51.95-18.6-15.84-48.53-13.76-73.92-8.76C-892.81,369.09-947.79,390.45-996,420c39.36-46.39,48.89-110.87,24.28-164.61-24.77-53.57-82.7-94.66-148.07-104.64a2179.11,2179.11,0,0,1,239.48-30.22c15.3-1.14,35,1.4,45.11,9.58q44.1-21.38,88.21-42.59c-26.75,41.49-53.94,91.13-31.8,134.62,20.31,39.52,76.21,57.24,125.47,52.44S-559.7,247.2-517,225.16c-35.24,19.53-62.52,51.12-69.79,87s7.15,75.31,39.73,98.06C-487.19,452-399.65,426.6-329.52,399.6c-33.21,45.31-57.83,106.7-22,150.49,21.82,27.1,61.95,39.36,99.8,39.4,38,0,74.79-10.4,110.86-20.8-51.45,34.41-49.29,110-2.89,149.45s123.09,43.39,181.27,18.4c-9.45,27.3-19,55.81-13,83.78C33.7,863.91,79.59,896.17,129,907.17c49.19,11,101.26,4.25,150.86-5.38-38,43.76-67.1,105.1-34.34,152.07,22.75,32.62,70,47.5,113.78,46.16s85.63-16,126.25-30.37c-12.49,30.63-25.07,62.32-23.43,94.74S483.31,1231,518,1242.75c62,20.85,126.7-36.11,192.71-29.18-42.86,48.09-39.38,122.85,7.58,167.69,47,45,132.21,54.79,191,22.08C871,1436.59,855.9,1489,871.59,1534.07Z"/></g></g></g></g><g id="Layer_8" data-name="Layer 8"><path d="M432.32,309.73c-.36-19.7-.72-38.71-1.09-58.58-6.75-.31-12.46-.82-18.16-.76-6.09.06-8.45-3.5-8.67-8.66-.48-11.15-.55-22.31-.73-33.47a15.19,15.19,0,0,1,.48-4.84c2.21-6.55-2-8.33-6.93-9.46a44.63,44.63,0,0,0-7-.86c-7.35-.51-14.71-1.15-22.07-1.36-10.64-.31-21.29-.35-31.93-.37-16.1,0-32.19.1-48.29.1-27.67,0-55.37.52-83-.26-25.14-.71-50.24-2.78-75.34-4.44-10.1-.67-20.16-2.09-30.27-2.68-8-.46-8.51.31-8.56,8.48-.07,8.68.23,17.38-.06,26.05-.37,10.92-3.85,14.38-14.57,15.59-9.14,1-18.27,2.14-28.46,3.34.23,10.68.45,21.83.73,33,.11,4.68.48,9.34.52,14,0,2.94-1.12,4.57-4.66,4.27-7-.61-14.06-.73-21.47-1.07-.2-7.06-.36-13.13-.55-19.19-.45-15.13-1-30.16-3.37-45.24-1.7-11,.4-22.57.33-33.88a186,186,0,0,0-1.51-22c-2.58-20.58-5.58-41.11-8.18-61.69C8.17,95.06,7.27,84.26,6.24,73.48,5.65,67.29,5.53,61,4.6,54.9,3.77,49.46,2,44.16.85,38.77-2.17,25.18,3,15.14,14.43,7.89c1.84-1.16,4.08-2.1,5.27-3.76,4.06-5.64,8.51-4,13.13-1.21C43.26,9.23,47.52,19,48,30.72c1,27.54,1.82,55.08,2.92,82.61.24,6.11,1.32,12.19,2,18.06.64.35,1,.69,1.22.65,10.81-1.92,11.12-1.65,12,9.43.4,5.2.94,10.38,1.48,16.26l8.85-1.37A35.32,35.32,0,0,0,74,152.88c-9-10-9.41-21.91-7.06-34,1.55-8,6.29-11,14.51-10.9,3.79,0,7.59.31,11.39.57,2.75.2,4-.76,3.85-3.71a28,28,0,0,1,.66-6.45,9.33,9.33,0,0,1,9.48-7.91c5.5.2,9.09,3.15,9.89,8.25.39,2.47.57,5,.75,6.55,8.62-.87,16.72-2.06,24.87-2.39,6.54-.26,9.19,2.3,10,8.91,1.48,12.2-1.17,23.67-7,34.44-.33.61-.6,1.25-1.27,2.65l15.47-.6c-.53-8.28-1-16.28-1.61-25.14a117.43,117.43,0,0,1,12,.71c1,.15,2.33,2.1,2.59,3.41,1.26,6.36,2.2,12.79,3.38,20l13.54-.71c-7.86-5.79-9.18-14.12-11.06-21.83-3-12.13,9.25-24.44,21.37-22.27,3.74.67,7.45,1.48,11.2,2,3,.41,4.61-.69,4.78-4.16a54.34,54.34,0,0,1,1.89-11.18c1.22-4.61,4.61-6.91,9.33-6.64,4.48.26,8.12,2.08,9.08,7,.8,4,1.42,8.12,2.17,12.5,4-.88,7.91-2.07,12-2.59,9.2-1.18,13.35,1.75,16,10.54A33.43,33.43,0,0,1,265,133.22c-1,2.49-2,5-3.32,8.17l10-.8,1-22.41c5.95,1,11.4,1.72,16.78,2.87.64.14,1.26,2.43,1.16,3.66-.42,5-1.13,10-1.76,15.17l16.25.74c-3.23-5.11-6.58-9.55-9-14.45-3.9-7.93-2.76-15.23,4.09-19.75,3.87-2.54,9.36-3.32,14.19-3.54,7.33-.34,14.72.5,22.16.84.13-2.81.22-6.34.47-9.85.31-4.32,1.94-7.84,6.66-8.67,5.22-.91,9.52,1,11.67,5.81,1.86,4.22,2.83,8.82,4.1,12.93,6.75-.91,13.31-1.89,19.91-2.6a5.64,5.64,0,0,1,4.2,1.23c7.42,8.11,8.16,19.32,2.26,28.55-2.91,4.55-5.62,9.21-9,14.77L401.49,147V124.79c6.29.28,12,.37,17.72,1a4.65,4.65,0,0,1,3.09,3.27,93.8,93.8,0,0,1-.48,15.08c-.54,4.3-.93,7.62,5,7.33,2.26-.11,4.56.7,7.76,1.24,0-9.14-.13-17.75-.09-26.37.08-19,.26-38,.34-57,0-7.48-.07-15-.18-22.44a5.16,5.16,0,0,0-.74-3.07c-10.28-12.2-1.08-30.15,10.39-36.25a17.38,17.38,0,0,0,4.83-3.4c5.33-6,11.35-4.64,17.25-1.56,10.83,5.66,15,15.74,16.76,27,2.27,14.43-.18,28.61-1.89,43-3.2,26.89-9.06,53.54-7.46,80.95.42,7.09-1.76,14.3-2.35,21.48-.42,5.17.09,10.42-.27,15.59-.38,5.55-1.36,11.05-1.94,16.58a88.7,88.7,0,0,0-.75,11.29,117.33,117.33,0,0,1-3.41,32.65c-2,7.54-.36,16.11.22,24.17.75,10.45,2.16,20.84,3,31.28.08,1-1.71,2.11-2.65,3.14-.09.1-.35.05-.53,0C453.84,309.09,442.53,305.43,432.32,309.73Zm36.84-145.07c-17.05-3.34-33.86-6.75-50.72-9.9-9.09-1.7-18.21-3.33-27.4-4.31-9.45-1-19-1.17-28.5-1.74-6.32-.38-12.63-.92-19-1.23-23.56-1.14-47.13-3-70.7-3-17.24,0-34.48,2.48-51.74,3.67-19.63,1.35-39.27,2.5-58.92,3.7-7.55.46-15.11.76-22.66,1.22-13.11.79-26.3,1-39.29,2.68-11.15,1.45-22,5.32-33.11,6.92-12.23,1.76-24.65,2.15-37,3.12-10.9.86-12.28,2.85-8.63,13.22.48,1.35,2.22,3.12,3.46,3.2,8.61.5,17.25,1,25.86.72,5.74-.18,11.42-2.08,17.16-2.38,8.48-.44,16.82-3,25.57.38,4.4,1.71,10,.06,15,.4,24.91,1.73,49.77,4.4,74.7,5.27,42.31,1.48,84.66,1.93,127,2.66,8,.13,15.9-.53,23.86-.64,11.19-.16,22.43-.72,33.58,0,12.5.75,24.93,2.69,37.4,4.09.52,0,1.07-.22,1.6-.21,8.66.28,17.37,0,26,1a96,96,0,0,0,32.59-1.87C466.61,182.53,467.76,174.51,469.16,164.66Zm-354.64-53.8c-.39-4.29-.45-7.92-1.09-11.45-.75-4-3.82-6.86-7.61-6.26-2.21.35-4.52,3.58-5.66,6-1,2.09-.73,5-.33,7.42.71,4.32-.16,6.07-5,5.25a114.08,114.08,0,0,0-15.66-1.21c-5.48-.15-9.67,2.83-9.75,8.12-.14,8.37.07,17,2.09,25.07,2.11,8.35,9.12,11.36,17.66,10.32,15.24-1.86,30.48-3.86,45.78-5.06,5-.4,7.44-2.43,9.55-6.38,4.57-8.6,5.64-17.88,5.37-27.35-.11-4-.85-8.64-5.89-9.1a68.94,68.94,0,0,0-16.11.54C123.48,107.45,119.31,109.35,114.52,110.86ZM438.63,64.52c-.38,8.24-1,16.14-1.05,24-.1,19.89.09,39.77.13,59.66,0,3.84,1,6.3,5.49,7.15,6,1.15,11.82,3.31,17.76,4.83,3,.77,6.17,1.1,9.27,1.63.41-9,.72-17.07,1.17-25.12.42-7.38.8-14.77,1.53-22.13,1.38-14,3-28,4.53-42,.49-4.41-.76-6.53-5.77-6.63-9.57-.18-19.12-1.08-28.69-1.63A39.86,39.86,0,0,0,438.63,64.52ZM218,107.72c-6.49-.91-13.38-1.58-20.14-2.91-5-1-8.73.13-12,4.08-5.89,7.14-5.58,14.43-2.46,22.8,3.59,9.62,8.6,14.69,18.39,14.2,17.31-.87,34.6-2.24,51.87-3.76A9.5,9.5,0,0,0,260,138.2c5.2-8.61,6.12-18,3.2-27.65-1.73-5.76-5.11-8.5-11.2-8-4.07.31-8.07,1.65-12.07,2.64-1.65.42-3.22,1.15-5,1.78-.8-6-1-11.39-2.48-16.47-.63-2.17-3.84-4.91-5.95-5s-5.18,2.74-5.83,4.89C219.26,95.28,219,100.55,218,107.72Zm-169,54c.42-9.09,1.32-17.19,1.06-25.25-.66-20.57-1.77-41.13-2.87-61.68a36.15,36.15,0,0,0-1.55-7.19L9.23,65.93c.87,11.94,1.29,22.58,2.5,33.13,2.09,18.31,4.65,36.57,7.08,54.84a15.58,15.58,0,0,0,1.53,5.72c.83,1.41,2.65,3.2,4,3.18C32.8,162.69,41.25,162.12,49,161.73Zm307.5-53.61c-1.44-5.09-2.34-10.71-4.73-15.6-1-2.14-5.14-3.73-7.85-3.73-1.31,0-3.52,4.21-3.7,6.64-.3,4,.71,8.11,1.23,12.81a33.09,33.09,0,0,1-4.67.15c-8.44-1-16.86-2.17-25.31-3-8-.73-14.58,4.64-15,11.67-.51,9.41,11,23.43,20.5,24.41,13.67,1.4,27.52,1.55,41,3.76,12.56,2.05,19.52-2.59,25.14-13.45,4.44-8.57,4.69-15.93,0-24-1.55-2.68-3.23-3.94-6.53-3.26C369.89,106,363,107,356.5,108.12Zm111,87.1c-1.73-.08-3-.44-4.19-.15-13.46,3.29-26.92,2.26-40.4.25-2.81-.42-5.67-.91-6.94,2.82a2.55,2.55,0,0,1-2.33.88c-6.67-2.65-6.65,1.82-6.89,6.23-.1,2-.77,3.95-.73,5.92.23,10.41.39,20.83,1.12,31.21.12,1.76,2.83,4.67,4.48,4.77q22.94,1.41,45.93,1.77c2.06,0,5.33-2,6-3.89a40.16,40.16,0,0,0,1.88-12.21c.4-11.68-1.39-23.48,2.24-35a8.72,8.72,0,0,0-.14-2.6ZM21.85,187.06a32.09,32.09,0,0,1,.29,11.52c-1,7.75.21,15.83.9,23.73.49,5.53,1.89,10.68,9.55,8.7.78-.2,1.75.49,2.64.51,10.61.24,21.22.54,31.83.57,3,0,6.07-1,9.13-1.23,8.62-.66,10.92-2.54,11.21-11.24.35-10.66.09-21.34.07-32,0-4.15-2-5.78-6.17-5.22-7.17,1-14.34,2-21.54,2.52C47.44,185.8,35.09,186.33,21.85,187.06ZM481.29,43.72c-.74-6.37-.88-12-2.13-17.32-2-8.63-6-16.26-14-21-4.2-2.48-8.2-3.28-12.46.2-3.2,2.61-6.9,4.6-10.27,7-7.39,5.31-10.59,12.64-9.63,21.61.65,6.18,3.83,9.12,9.94,9.23C455.12,43.68,467.55,43.64,481.29,43.72ZM23.5,47.66v.16l6.49.29c2.16.1,4.33.22,6.49.25,7.66.12,7.88-.1,8.12-7.53.08-2.52.38-5,.33-7.58-.23-9.73-2.73-18.52-10.63-25-6.09-5-7.9-5.13-14.49-.69-1.34.91-2.81,1.63-4.17,2.52C3.75,17.81-.38,30.5,5,43.52a6.6,6.6,0,0,0,4.44,3.34C14.09,47.5,18.82,47.44,23.5,47.66ZM464.63,305.92c-.45-4.58-.9-8.66-1.24-12.74-1-11.84-2-23.69-2.85-35.54-.21-2.86-1.27-4.36-4.29-4.21-7.13.36-14.27.66-21.74,1,.39,17.08.78,34.05,1.16,50.16ZM23.94,235.14c.42,16.36.84,32.29,1.27,48.76l19.42-1.32a5.09,5.09,0,0,0,.57-1.29c-.08-14.07-.09-28.15-.48-42.22,0-1.1-2.71-2.85-4.31-3C35.28,235.43,30.08,235.42,23.94,235.14ZM480.47,48c-13.3-.61-25.36-1-37.38-1.8-6.91-.48-5.61,4.87-6.26,8.38-.74,4,.91,6.84,5.81,7s9.67,1,14.52,1.29c7.5.46,15,.72,22.58,1.07ZM7.68,62.36c9.78.45,19.11.93,28.46,1.3s9.74-.08,8.43-9.14c-.17-1.23-2.22-3-3.49-3.11-7.56-.52-15.14-.63-22.71-.85-11-.32-10.48-2.78-11,11A2.06,2.06,0,0,0,7.68,62.36Zm397.5,65.91c-.27,6-.69,11.73-.67,17.47a4.33,4.33,0,0,0,2.71,3.1q5.4.9,10.88,1.26c.51-3.33,1.09-6.13,1.35-9,1.18-12.88.07-14-12.93-13.37A6.48,6.48,0,0,0,405.18,128.27Zm-129.36-6.58c-.26,5.6-.59,10.74-.63,15.87a3.5,3.5,0,0,0,2,2.55c5.47,1.73,8.25-.19,9-5.85.21-1.58.76-3.12,1.07-4.7.78-3.94,0-6.8-4.8-7C280.59,122.43,278.68,122.06,275.82,121.69Zm-103.14,25.4c-.92-5.91-1.41-11.66-2.9-17.15-.44-1.61-3.67-2.47-5.62-3.67-.8,1.65-2.15,3.27-2.29,5a45.07,45.07,0,0,0,.42,9.71c1.09,7.82,1.19,7.81,10.39,6.11ZM64.29,158.94c-.33-4.88-.5-9.19-1-13.48a56.13,56.13,0,0,0-1.66-9c-.25-.9-1.75-1.46-2.67-2.17-.7.93-2,1.89-2,2.8.25,7.47.76,14.94,1.21,22.76ZM54.11,144.17l-1.57.11q.42,7.4.85,14.79L55,159Z"/><path class="cls-6" d="M469.16,164.66c-1.4,9.85-2.55,17.87-3.83,26.86a96,96,0,0,1-32.59,1.87c-8.59-1-17.3-.71-26-1-.53,0-1.08.26-1.6.21-12.47-1.4-24.9-3.34-37.4-4.09-11.15-.67-22.39-.11-33.58,0-8,.11-15.91.77-23.86.64-42.33-.73-84.68-1.18-127-2.66-24.93-.87-49.79-3.54-74.7-5.27-5-.34-10.65,1.31-15-.4-8.75-3.39-17.09-.82-25.57-.38-5.74.3-11.42,2.2-17.16,2.38-8.61.27-17.25-.22-25.86-.72-1.24-.08-3-1.85-3.46-3.2-3.65-10.37-2.27-12.36,8.63-13.22,12.34-1,24.76-1.36,37-3.12,11.14-1.6,22-5.47,33.11-6.92,13-1.7,26.18-1.89,39.29-2.68,7.55-.46,15.11-.76,22.66-1.22,19.65-1.2,39.29-2.35,58.92-3.7,17.26-1.19,34.5-3.7,51.74-3.67,23.57,0,47.14,1.91,70.7,3,6.32.31,12.63.85,19,1.23,9.5.57,19,.73,28.5,1.74,9.19,1,18.31,2.61,27.4,4.31C435.3,157.91,452.11,161.32,469.16,164.66Z"/><path class="cls-7" d="M114.52,110.86c4.79-1.51,9-3.41,13.32-4.06a68.94,68.94,0,0,1,16.11-.54c5,.46,5.78,5.13,5.89,9.1.27,9.47-.8,18.75-5.37,27.35-2.11,3.95-4.58,6-9.55,6.38-15.3,1.2-30.54,3.2-45.78,5.06-8.54,1-15.55-2-17.66-10.32-2-8-2.23-16.7-2.09-25.07.08-5.29,4.27-8.27,9.75-8.12a114.08,114.08,0,0,1,15.66,1.21c4.87.82,5.74-.93,5-5.25-.4-2.43-.64-5.33.33-7.42,1.14-2.45,3.45-5.68,5.66-6,3.79-.6,6.86,2.21,7.61,6.26C114.07,102.94,114.13,106.57,114.52,110.86Z"/><path class="cls-8" d="M438.63,64.52a39.83,39.83,0,0,1,4.37-.21c9.57.55,19.12,1.45,28.69,1.63,5,.1,6.26,2.22,5.77,6.63-1.56,14-3.15,28-4.53,42-.73,7.36-1.11,14.75-1.53,22.13-.45,8-.76,16.11-1.17,25.12-3.1-.53-6.24-.86-9.27-1.63-5.94-1.52-11.75-3.68-17.76-4.83-4.45-.85-5.48-3.31-5.49-7.15,0-19.89-.23-39.77-.13-59.66C437.62,80.66,438.25,72.76,438.63,64.52Z"/><path class="cls-7" d="M218,107.72c1-7.17,1.28-12.44,2.75-17.34.65-2.15,3.86-4.95,5.83-4.89s5.32,2.8,5.95,5C234,95.54,234.19,101,235,106.93c1.73-.63,3.3-1.36,4.95-1.78,4-1,8-2.33,12.07-2.64,6.09-.46,9.47,2.28,11.2,8,2.92,9.68,2,19-3.2,27.65a9.45,9.45,0,0,1-6.36,3.93c-17.27,1.52-34.56,2.89-51.87,3.76-9.79.49-14.8-4.58-18.39-14.2-3.12-8.37-3.43-15.66,2.46-22.8,3.26-4,7-5.07,12-4.08C204.6,106.14,211.49,106.81,218,107.72Z"/><path class="cls-8" d="M49,161.73c-7.79.39-16.24,1-24.7,1.07-1.35,0-3.17-1.77-4-3.18a15.58,15.58,0,0,1-1.53-5.72c-2.43-18.27-5-36.53-7.08-54.84-1.21-10.55-1.63-21.19-2.5-33.13l36.45,1.68a36.15,36.15,0,0,1,1.55,7.19c1.1,20.55,2.21,41.11,2.87,61.68C50.36,144.54,49.46,152.64,49,161.73Z"/><path class="cls-7" d="M356.5,108.12c6.5-1.11,13.39-2.13,20.2-3.54,3.3-.68,5,.58,6.53,3.26,4.66,8.06,4.41,15.42,0,24-5.62,10.86-12.58,15.5-25.14,13.45-13.52-2.21-27.37-2.36-41-3.76-9.52-1-21-15-20.5-24.41.37-7,7-12.4,15-11.67,8.45.78,16.87,2,25.31,3a33.09,33.09,0,0,0,4.67-.15c-.52-4.7-1.53-8.8-1.23-12.81.18-2.43,2.39-6.64,3.7-6.64,2.71,0,6.8,1.59,7.85,3.73C354.16,97.41,355.06,103,356.5,108.12Z"/><path class="cls-9" d="M467.53,195.22a8.69,8.69,0,0,1,.17,2.64c-3.63,11.48-1.84,23.28-2.24,35A40.34,40.34,0,0,1,463.58,245c-.67,1.84-3.94,3.93-6,3.89q-23-.36-45.93-1.77c-1.65-.1-4.36-3-4.48-4.77-.73-10.38-.89-20.8-1.12-31.21,0-2,.63-3.94.73-5.92.24-4.41.22-8.88,6.89-6.23a2.55,2.55,0,0,0,2.33-.88c1.27-3.73,4.13-3.24,6.94-2.82,13.48,2,26.94,3,40.4-.25C464.49,194.78,465.8,195.14,467.53,195.22Z"/><path class="cls-9" d="M21.85,187.06c13.24-.73,25.59-1.26,37.91-2.15,7.2-.53,14.37-1.57,21.54-2.52,4.13-.56,6.17,1.07,6.17,5.22,0,10.67.28,21.35-.07,32-.29,8.7-2.59,10.58-11.21,11.24-3.06.23-6.09,1.23-9.13,1.23-10.61,0-21.22-.33-31.83-.57-.89,0-1.86-.71-2.64-.51-7.66,2-9.06-3.17-9.55-8.7-.69-7.9-1.89-16-.9-23.73A32.27,32.27,0,0,0,21.85,187.06Z"/><path class="cls-6" d="M481.29,43.72c-13.74-.08-26.17,0-38.58-.27-6.11-.11-9.29-3.05-9.94-9.23-1-9,2.24-16.3,9.63-21.61,3.37-2.42,7.07-4.41,10.27-7,4.26-3.48,8.26-2.68,12.46-.2,8.05,4.75,12,12.38,14,21C480.41,31.74,480.55,37.35,481.29,43.72Z"/><path class="cls-6" d="M23.5,47.66c-4.68-.22-9.41-.16-14-.8A6.6,6.6,0,0,1,5,43.52c-5.41-13-1.28-25.71,10.61-33.47,1.36-.89,2.83-1.61,4.17-2.52,6.59-4.44,8.4-4.34,14.49.69,7.9,6.51,10.4,15.3,10.63,25,0,2.53-.25,5.06-.33,7.58-.24,7.43-.46,7.65-8.12,7.53-2.16,0-4.33-.15-6.49-.25l-6.49-.29Z"/><path class="cls-6" d="M464.63,305.92l-29-1.34c-.38-16.11-.77-33.08-1.16-50.16,7.47-.33,14.61-.63,21.74-1,3-.15,4.08,1.35,4.29,4.21.87,11.85,1.86,23.7,2.85,35.54C463.73,297.26,464.18,301.34,464.63,305.92Z"/><path class="cls-6" d="M23.94,235.14c6.14.28,11.34.29,16.47.89,1.6.19,4.28,1.94,4.31,3,.39,14.07.4,28.15.48,42.22,0,.33-.28.65-.57,1.29L25.21,283.9C24.78,267.43,24.36,251.5,23.94,235.14Z"/><path class="cls-6" d="M480.47,48l-.73,15.9c-7.57-.35-15.08-.61-22.58-1.07-4.85-.3-9.67-1.16-14.52-1.29s-6.55-2.95-5.81-7c.65-3.51-.65-8.86,6.26-8.38C455.11,47,467.17,47.39,480.47,48Z"/><path class="cls-6" d="M7.68,62.36a2.22,2.22,0,0,1-.29-.83c.5-13.75,0-11.29,11-11,7.57.22,15.15.33,22.71.85,1.27.09,3.32,1.88,3.49,3.11,1.31,9.06.83,9.5-8.43,9.14S17.46,62.81,7.68,62.36Z"/><path class="cls-8" d="M405.18,128.27a6.6,6.6,0,0,1,1.34-.51c13-.63,14.11.49,12.93,13.37-.26,2.84-.84,5.64-1.35,9q-5.48-.36-10.88-1.26a4.33,4.33,0,0,1-2.71-3.1C404.49,140,404.91,134.25,405.18,128.27Z"/><path class="cls-8" d="M275.82,121.69c2.86.37,4.77.74,6.68.83,4.78.24,5.58,3.1,4.8,7-.31,1.58-.86,3.12-1.07,4.7-.77,5.66-3.55,7.58-9,5.85a3.5,3.5,0,0,1-2-2.55C275.23,132.43,275.56,127.29,275.82,121.69Z"/><path class="cls-8" d="M172.68,147.09c-9.2,1.7-9.3,1.71-10.39-6.13a45.07,45.07,0,0,1-.42-9.71c.14-1.71,1.49-3.33,2.29-5,2,1.2,5.18,2.06,5.62,3.67C171.27,135.43,171.76,141.18,172.68,147.09Z"/><path class="cls-8" d="M64.29,158.94l-6.05.92c-.45-7.82-1-15.29-1.21-22.76,0-.91,1.28-1.87,2-2.8.92.71,2.42,1.27,2.67,2.17a56.13,56.13,0,0,1,1.66,9C63.79,149.75,64,154.06,64.29,158.94Z"/><path class="cls-8" d="M54.11,144.17,55,159l-1.65.12q-.42-7.4-.85-14.79Z"/><g class="cls-10"><g class="cls-11"><g class="cls-12"><path class="cls-13" d="M363.92,62.24c9.87,9.43,23.41,13.61,33.78,22.35l-.58-.49a27.6,27.6,0,0,1,4.9,5.34,16.71,16.71,0,0,1,1.72,3.2s.3.87.16.42c.15.48.29,2.63.27.91a31.68,31.68,0,0,1,1.18-9.29c1-3.29-.58.68.44-1.24A12.43,12.43,0,0,1,404.11,86a27.29,27.29,0,0,1-5.31,4.58c-8,5.52-17.62,8.61-25.11,14.92a30.31,30.31,0,0,0-8.87,13,56.29,56.29,0,0,0-2.93,26.27c1.3,9.25,7.28,16.31,14.25,22.08,9.43,7.79,20.67,13.28,31.87,18,1.54.65,3.1-6.3,3.17-6.59a43.38,43.38,0,0,0,1.24-12.33c.67,11.88-5.28,20.26-2.32,15.07-.64,1.11-.22.31.08.05a17.64,17.64,0,0,1,1.57-1.29,26.85,26.85,0,0,1,4.54-2.45l-.7.31c3.39-1.5,6.89-2.72,10.34-4.07A129.13,129.13,0,0,0,437.7,168c9.29-4.79,18.47-10,28-14.3L465,154a43.73,43.73,0,0,1,16.51-4.09,51.53,51.53,0,0,1,16.72,2.45c10.53,3.27,19.4,10.1,29.58,14.21,18.9,7.62,40.38,9.65,60.57,8.12a129.8,129.8,0,0,0,16.88-2.35c6.73-1.41,13.25-3.62,19.93-5.22,2.12-.5,2.81-5.05,3.17-6.59a41.29,41.29,0,0,0,1.24-12.33c-.06-1-.07-.83,0,.45a30.56,30.56,0,0,1-.64,5.56,16.62,16.62,0,0,1-.63,2.4c.27-.69.31-.82.12-.38s-.14.31.18-.38c.21-.4.43-.81.66-1.2a16.08,16.08,0,0,1,1.28-1.89,36.35,36.35,0,0,1,5.2-5.25,64.9,64.9,0,0,1,14.82-8.92l-.7.31A122.94,122.94,0,0,1,670.27,132c6.6-1.63,13.33-2.94,19.77-5.16a40.44,40.44,0,0,0,16.08-10.11c4.64-4.75,8.91-9.22,15-12l-.69.31a61,61,0,0,1,11.19-3.58c1.82-.41,2.47-3.87,2.86-5.27a42.59,42.59,0,0,0,1.61-11.33v-2c0-1.94-.21,2,0,0,0,.17-.45,2.88-.1,1,0-.12-.51,2.57-.23,1.32s-.28,1-.26,1c.14-.32.11-1.06.36-1.31,0,0-.6,1.59-.16.6.14-.31.24-.65.37-1-.39,1,.31-.61.45-.88a26.4,26.4,0,0,1,2.11-3.4c3.42-4.57,7.7-8.43,11.77-12.39,4.45-4.33,8.7-8.83,11.89-14.2,4.84-8.16,6.68-18,7-27.42.21-5.73-.6-11.62-3.52-16.64a33.62,33.62,0,0,0-9.59-10c-9.36-6.75-20.84-9.19-31.87-11.78a130.74,130.74,0,0,1-18.51-5.3,56,56,0,0,1-15.27-9.22l.58.49c-5.62-4.79-10.41-10.44-16-15.31a55.23,55.23,0,0,0-21.77-12.06c-18.16-5.07-38.12-2.44-56.18,1.72-9.52,2.19-18.91,4.86-28.43,7a168.46,168.46,0,0,1-30.23,4.2c-20.51.86-41.1-1.59-61.55,1-9.07,1.14-18.75,3.12-26.46,8.3-3.8,2.56-6.79,6-10,9.24a37.61,37.61,0,0,1-11.36,8.25l.7-.31c-6.85,3-14.26,4.45-21.5,6.17a127.74,127.74,0,0,0-22,7.14c-6.11,2.7-12.1,5.92-17.13,10.38-6.44,5.72-9.78,13.17-11.44,21.55-2.18,11-2.26,22.86,6.15,31.24,2.18,2.17,3.86-6.38,4.06-7.42a45.2,45.2,0,0,0,1-8.68c0-1.38.33-4.33-.7-5.37a20.52,20.52,0,0,1-6.08-10.45c.11.55.11,1,.06.17A21.88,21.88,0,0,1,362,35.2c-.2,1.36-.54,2.66-.86,4s.1-.2.22-.52c-.36.93-.18.41.14-.19s.48-.9.74-1.33a18.89,18.89,0,0,1,1.65-2.23c5.11-6.06,12.26-10.19,19.39-13.43l-.69.31A121.33,121.33,0,0,1,403,15c6.93-1.7,14-3,20.71-5.48A40.3,40.3,0,0,0,439.48-1c4.37-4.56,8.61-8.74,14.44-11.41l-.7.32c12.34-5.45,26.64-6.27,39.95-6.43,16-.18,32.1,1.13,48.12-.1,15.13-1.17,29.73-5.13,44.39-8.82C599.75-31,614-33.82,628.6-33.84c15.31,0,30.18,3.47,42.07,13.51l-.58-.49C678.83-13.32,685.87-4,696,1.72c12.06,6.84,26.29,8.2,39.4,12.08,7.19,2.13,14.13,5.15,20,10l-.58-.5a28.87,28.87,0,0,1,8.31,11.09c.34.85,0-.42.14.46.13.66.29,1.31.43,2s0-.16,0-.28V36.1c0,.34-.09,1.45,0-.12a31.84,31.84,0,0,1,.5-4.24c0,.08.54-2.24.24-1.12s.22-.69.22-.69a5.43,5.43,0,0,1-.45,1.22c0-.13.44-.91.07-.17A41.23,41.23,0,0,1,762,35.09c-6.87,10.68-18.75,17.17-24.86,28.49-5.13,9.51-6.78,21.3-6.7,32L734.85,79c-7.78,1.76-15.31,4.62-21.24,10.12-2.59,2.4-4.86,5.1-7.43,7.52a34.87,34.87,0,0,1-9.6,6.51l.69-.31c-11.58,5-24.49,6.25-36.38,10.46-10.24,3.62-21.32,8.68-28.32,17.32A35.38,35.38,0,0,0,626.25,143a57.81,57.81,0,0,0-2.3,20.51l4.41-18.92c-7.08,1.69-14,4-21.13,5.46a133.61,133.61,0,0,1-18.91,2.32,151.51,151.51,0,0,1-38.6-2.8,112.54,112.54,0,0,1-17.17-4.92,133.09,133.09,0,0,1-16.91-8.41c-12.29-6.81-26.44-11.36-40.45-7.38C467.8,131,461,135,454.24,138.5c-7.46,3.85-14.84,8.07-22.5,11.51l.69-.31c-5.37,2.35-11.06,4-16.29,6.67A13.41,13.41,0,0,0,410.6,161a19.53,19.53,0,0,0-2.19,5.5,47.39,47.39,0,0,0-1.63,14.8l4.42-18.92C399.8,157.55,388.41,152,378.86,144l.59.49A44.16,44.16,0,0,1,370.09,134a22.77,22.77,0,0,1-2.43-5.28c-.14-.5-.26-1-.36-1.52l-.09-.51c-.13-.77-.11-.68,0,.3-.18-.3-.08-2.91,0,.29,0-1.07,0-.68-.06,1.2a25.12,25.12,0,0,1-.39,3c0,.27-.95,4-.42,2.13-.75,2.59-.23.81,0,.25-.67,1.7,0,0,.18-.26a16.35,16.35,0,0,1,.85-1.43c.19-.28,1.22-1.58,1.78-2.19a30.43,30.43,0,0,1,3.26-3.06c4-3.27,8.71-5.64,13.28-8a88.84,88.84,0,0,0,12.71-7.46c5.14-3.87,8-9.15,9.61-15.33,2.07-8.12,3.47-18.14-.41-26-2.21-4.46-6.22-7.82-10.22-10.66-8.9-6.31-19.27-10.41-27.73-17.38l.58.49c-.67-.57-1.33-1.16-2-1.77-2.22-2.12-3.86,6.34-4.07,7.43a46.1,46.1,0,0,0-1,8.68C363.22,58.24,362.88,61.25,363.92,62.24Z"/></g></g></g></g></svg>