<svg xmlns="http://www.w3.org/2000/svg" xmlns:xlink="http://www.w3.org/1999/xlink" viewBox="0 0 391.74 410.32"><defs><style>.cls-1{opacity:0.3;}.cls-2{fill:#fff;}.cls-3{fill:#213038;}.cls-4{fill:url(#linear-gradient);}.cls-5{opacity:0.15;}.cls-6{fill:#577b93;}</style><linearGradient id="linear-gradient" x1="195.87" y1="354.06" x2="195.87" y2="20.65" gradientUnits="userSpaceOnUse"><stop offset="0" stop-color="#2e424f"/><stop offset="1" stop-color="#3e586d"/></linearGradient></defs><g id="buttons"><g id="play_button"><circle id="shadow" class="cls-1" cx="195.87" cy="214.45" r="195.87" transform="translate(-94.27 201.31) rotate(-45)"/><g id="Button"><circle class="cls-2" cx="195.87" cy="195.87" r="195.87"/><circle class="cls-3" cx="195.87" cy="195.87" r="185.29"/><circle class="cls-4" cx="195.87" cy="187.35" r="166.71"/><path class="cls-5" d="M195.87,328.26A166.68,166.68,0,0,1,29.71,174.45c-.33,4.26-.55,8.56-.55,12.9a166.71,166.71,0,0,0,333.42,0c0-4.34-.22-8.64-.54-12.9C355.44,260.49,283.6,328.26,195.87,328.26Z"/><path class="cls-6" d="M195.87,36.9A166.72,166.72,0,0,1,362.38,195.48c.12-2.69.2-5.4.2-8.13a166.71,166.71,0,0,0-333.42,0c0,2.73.08,5.44.21,8.13A166.71,166.71,0,0,1,195.87,36.9Z"/><path class="cls-6" d="M232.67,57a10.76,10.76,0,1,1-10.75-10.75A10.75,10.75,0,0,1,232.67,57Z"/><path class="cls-6" d="M279.94,76.79c-1.59,4.66-20.15,2.47-31.61-3.4-4.45-2.28-6.6-4.48-7.13-7.13a9.25,9.25,0,0,1,3.51-8.73C253.86,51.23,282.07,70.55,279.94,76.79Z"/><path class="cls-3" d="M166.82,106a30,30,0,0,1,15.1,4.11l103.19,59.58a30.28,30.28,0,0,1,0,52.45L181.92,281.68a30.22,30.22,0,0,1-45.42-26.23V136.29A30.32,30.32,0,0,1,166.82,106m0-9.76a40.14,40.14,0,0,0-40.09,40.09V255.45a40,40,0,0,0,60.07,34.68L290,230.55a40,40,0,0,0,0-69.36L186.8,101.61a40,40,0,0,0-20-5.41Z"/><path class="cls-2" d="M285.11,169.65,181.92,110.07a30.28,30.28,0,0,0-45.42,26.22V255.45a30.28,30.28,0,0,0,45.42,26.22L285.11,222.1A30.28,30.28,0,0,0,285.11,169.65Z"/><path class="cls-5" d="M136.5,255.45a30.28,30.28,0,0,0,45.42,26.22L285.11,222.1a30,30,0,0,0,15.14-26.23H136.5Z"/></g></g></g></svg>