<svg xmlns="http://www.w3.org/2000/svg" viewBox="0 0 109.09 121.2"><defs><style>.cls-1{opacity:0.28;}.cls-2{fill:#231f20;}</style></defs><g id="Layer_1" data-name="Layer 1"><path class="cls-2" d="M109.09,1.65s0,0,0-.07a.85.85,0,0,0,0-.23.58.58,0,0,0,0-.14.2.2,0,0,0,0-.07S109,1,108.94,1a1.17,1.17,0,0,1,0-.11,1.51,1.51,0,0,0-.46-.54l0,0-.06,0a1.88,1.88,0,0,0-.24-.14l-.1,0L107.76,0l-.11,0h-.36a1.53,1.53,0,0,0-.36.07L32.6,23.88l-.06,0-.17.08-.13.07-.14.09-.12.1-.11.12-.1.12-.09.14s-.05.08-.07.13l-.06.15a.88.88,0,0,0-.05.15l0,.16c0,.06,0,.11,0,.17v.07l0,74.91c-3.83-2.45-10-3.19-16.49-1.54C5.29,101.28-1.3,108.09.22,114s10.55,8.75,20.18,6.29,16.22-9.27,14.71-15.2a6.83,6.83,0,0,0-.39-1.1l0-55.32,71-23.15v52c-3.76-2.8-10.29-3.72-17.13-2C79,78,72.43,84.83,74,90.76S84.5,99.5,94.13,97.05c9.28-2.37,15.71-8.77,14.82-14.54a1.59,1.59,0,0,0,.14-.66Z"/></g></svg>