<?xml version="1.0" encoding="utf-8"?>
<!-- Generator: Adobe Illustrator 26.0.1, SVG Export Plug-In . SVG Version: 6.00 Build 0)  -->
<svg version="1.1" id="Layer_1" xmlns="http://www.w3.org/2000/svg" xmlns:xlink="http://www.w3.org/1999/xlink" x="0px" y="0px"
	 viewBox="0 0 117 87" style="enable-background:new 0 0 117 87;" xml:space="preserve">
<style type="text/css">
	.st0{fill:#1F1D1E;}
</style>
<path class="st0" d="M58.7,16.6v70.5c15.8-12.9,35.4-16.8,57.9-16.3l-5.1-70.2C90.6-1.8,69.2,3.2,58.7,16.6z"/>
<path class="st0" d="M4.9,0.5l-5.1,70.2c22.5-0.5,42.1,3.4,57.9,16.3V16.6C47.2,3.2,25.8-1.8,4.9,0.5z M43.9,30.3l-9.8-5.4v22.6
	c0.1,0.5,0.2,0.9,0.2,1.4c0,3.6-2.9,6.5-6.5,6.5c-3.6,0-6.5-2.9-6.5-6.5c0-3.6,2.9-6.5,6.5-6.5c0,0,0,0,0,0c1.5,0,2.9,0.5,4,1.4V19
	c0-0.7,0.5-1.2,1.2-1.2c0,0,0,0,0,0c0.6,0,1,0.4,1.1,1l9.8,5.5L43.9,30.3z"/>
</svg>
