<?xml version="1.0" encoding="utf-8"?>
<!-- Generator: Adobe Illustrator 26.0.1, SVG Export Plug-In . SVG Version: 6.00 Build 0)  -->
<svg version="1.1" id="Layer_1" xmlns="http://www.w3.org/2000/svg" xmlns:xlink="http://www.w3.org/1999/xlink" x="0px" y="0px"
	 viewBox="0 0 75 116" style="enable-background:new 0 0 75 116;" xml:space="preserve">
<style type="text/css">
	.st0{fill:#231F20;}
</style>
<path class="st0" d="M38.7,79.2c-7.8,0.3-15.6-1.9-22.1-6.2l-7.8,29.3l14.5-6.8l9.2,13.1l7.9-29.6C39.8,79.1,39.2,79.2,38.7,79.2z"
	/>
<path class="st0" d="M66.4,109.3l-14.2-6l-8.4,13l-5.4-17.8l5.3-19.8c4.3-0.7,8.4-2.2,12.1-4.3L66.4,109.3z"/>
<path class="st0" d="M38.6,62.7c-13.9,0.6-25.7-10.2-26.3-24.2c-0.6-13.9,10.2-25.7,24.2-26.3c13.9-0.6,25.7,10.2,26.3,24.2
	C63.4,50.3,52.6,62.1,38.6,62.7C38.6,62.6,38.6,62.6,38.6,62.7z"/>
<path class="st0" d="M74.9,35.8C74,15.2,56.6-0.8,36,0.1S-0.7,18.4,0.2,39c0.5,11.3,6,21.8,15.1,28.5l0,0c6.9,5.1,15.3,7.7,23.8,7.3
	c1.2,0,2.4-0.2,3.6-0.3c5.3-0.7,10.5-2.6,15-5.5l0,0C68.9,61.7,75.5,49.1,74.9,35.8z M38.8,66h-1.2C21.7,66.3,8.7,53.8,8.4,38
	C8,22.2,20.6,9.2,36.3,8.8c15.8-0.7,29.1,11.6,29.8,27.4C66.8,52,54.6,65.3,38.8,66z"/>
</svg>
