<svg id="Layer_1" data-name="Layer 1" xmlns="http://www.w3.org/2000/svg" viewBox="0 0 924.11 1168.75"><defs><style>.cls-1{fill:#231f20;}.cls-2{fill:none;stroke:#231f20;stroke-linecap:round;stroke-linejoin:round;stroke-width:3.31px;}.cls-3{fill:#1f1d1e;}</style></defs><path class="cls-1" d="M715.76,1109.64v53.76l-11.09-11.71h-58a15.47,15.47,0,0,1-15.46-15.45v-1h37.39a22.82,22.82,0,0,0,22.81-22.8v-18.26h8.92A15.49,15.49,0,0,1,715.76,1109.64Z" transform="translate(0.19 0.31)"/><path class="cls-1" d="M591.15,1136.34" transform="translate(0.19 0.31)"/><path class="cls-1" d="M469.25,1136.34" transform="translate(0.19 0.31)"/><path class="cls-1" d="M264.48,35.77c0,20.33-14.54,36.81-26.81,36.81-10.45,0-26.81-16.48-26.81-36.81s12-30.45,26.81-30.45S264.48,15.44,264.48,35.77Z" transform="translate(0.19 0.31)"/><path class="cls-1" d="M253.09,70.93a85.33,85.33,0,0,1-15.42,15.73,85.69,85.69,0,0,1-15.42-15.73c-17.16,8.29-29.4,27.23-29.4,27.23a133.83,133.83,0,0,0,44.82,8,133.85,133.85,0,0,0,44.83-8S270.25,79.22,253.09,70.93Z" transform="translate(0.19 0.31)"/><path class="cls-1" d="M304.38,43.51c0,12.46-8.91,22.55-16.42,22.55-6.41,0-16.43-10.09-16.43-22.55S278.88,24.86,288,24.86,304.38,31.06,304.38,43.51Z" transform="translate(0.19 0.31)"/><path class="cls-1" d="M267.61,73.14a41.43,41.43,0,0,1,10.9-8.09A52,52,0,0,0,288,74.69a52.16,52.16,0,0,0,9.44-9.64c10.51,5.08,18,16.68,18,16.68A82,82,0,0,1,288,86.66a75.33,75.33,0,0,1-8.58-.5S272.48,77.91,267.61,73.14Z" transform="translate(0.19 0.31)"/><path class="cls-1" d="M171,43.51c0,12.46,8.91,22.55,16.43,22.55,6.4,0,16.42-10.09,16.42-22.55s-7.35-18.65-16.42-18.65S171,31.06,171,43.51Z" transform="translate(0.19 0.31)"/><path class="cls-1" d="M207.73,73.14a41.1,41.1,0,0,0-10.9-8.09,52.16,52.16,0,0,1-9.44,9.64,52,52,0,0,1-9.45-9.64c-10.51,5.08-18,16.68-18,16.68a81.89,81.89,0,0,0,27.46,4.93,75.29,75.29,0,0,0,8.57-.5S202.86,77.91,207.73,73.14Z" transform="translate(0.19 0.31)"/><polygon class="cls-1" points="114.09 820.16 96.99 820.16 96.99 877.57 59.76 877.57 59.76 820.16 42.65 820.16 78.37 778.23 114.09 820.16"/><polyline class="cls-2" points="133.43 877.57 133.43 912.71 23.31 912.71 23.31 877.57"/><line class="cls-2" x1="133.43" y1="898.65" x2="23.31" y2="898.65"/><path class="cls-1" d="M59.94-.31,39.55,20.16V6.43H27.43V32.35L6.08,53.79H17.15v65.15H44.61V69.08H75.26v49.86h27.46V53.79h11.07ZM70.72,48.87H49.16V27.31H70.72Z" transform="translate(0.19 0.31)"/><path class="cls-1" d="M80.53,609l56.75,32.76a5,5,0,0,1,0,8.73L80.53,683.22A5,5,0,0,1,73,678.86V613.33A5,5,0,0,1,80.53,609Z" transform="translate(0.19 0.31)"/><path class="cls-3" d="M156,584.46H52.05a7.67,7.67,0,0,0-7.67,7.67V696.05a7.67,7.67,0,0,0,7.67,7.66H156a7.67,7.67,0,0,0,7.67-7.66V592.13A7.67,7.67,0,0,0,156,584.46Zm-1.61,105.11a4.87,4.87,0,0,1-4.87,4.87h-91a4.87,4.87,0,0,1-4.87-4.87v-91a4.87,4.87,0,0,1,4.87-4.86h91a4.87,4.87,0,0,1,4.87,4.87Z" transform="translate(0.19 0.31)"/><path class="cls-1" d="M359.32,1128.09c-.41,0-.83,0-1.24-.06a13.7,13.7,0,0,1-9.8-6.22,21.69,21.69,0,0,1-3.44-14.55c1-9.93,8-17.72,15.93-17.72a10.43,10.43,0,0,1,1.24.07,13.72,13.72,0,0,1,9.8,6.21,21.7,21.7,0,0,1,3.44,14.55C374.23,1120.31,367.24,1128.09,359.32,1128.09Z" transform="translate(0.19 0.31)"/><path class="cls-1" d="M664.72,1064.22H611.05a19.13,19.13,0,0,0-19.13,19.14v63l16.33-17.27h56.47A19.14,19.14,0,0,0,683.85,1110v-26.6A19.14,19.14,0,0,0,664.72,1064.22Zm-48.61,39.3a5.23,5.23,0,1,1,5.23-5.23A5.24,5.24,0,0,1,616.11,1103.52Zm21.77,0a5.23,5.23,0,1,1,5.23-5.23A5.24,5.24,0,0,1,637.88,1103.52Zm21.78,0a5.23,5.23,0,1,1,5.23-5.23A5.24,5.24,0,0,1,659.66,1103.52Z" transform="translate(0.19 0.31)"/><path class="cls-1" d="M541.67,1066.45a58.93,58.93,0,1,0-83.34,83.34c17.36,17.35,38.83,22.48,45.42,15.88,12.61-12.6-7.87-41.17,2.38-51.42s39.23,9.81,51.43-2.38C564,1105.47,559,1083.8,541.67,1066.45Zm-78,5.35a9.48,9.48,0,1,1,0,13.4A9.48,9.48,0,0,1,463.69,1071.8Zm-3.89,51.4a9.47,9.47,0,1,1,8.09-10.67A9.47,9.47,0,0,1,459.8,1123.2Zm27.49,25.94a9.47,9.47,0,1,1-3.47-12.94A9.47,9.47,0,0,1,487.29,1149.14Zm27.8-81.23a9.48,9.48,0,1,1-8.1-10.67A9.49,9.49,0,0,1,515.09,1067.91Zm25.93,27.5a9.48,9.48,0,1,1,3.48-12.94A9.48,9.48,0,0,1,541,1095.41Z" transform="translate(0.19 0.31)"/><path class="cls-1" d="M163.52,1075.15v61.35a20.59,20.59,0,0,1-20.59,20.59h-24.5l0-8.72-.13-34H132v-13.81H118.33v-6.73a5.23,5.23,0,0,1,5.24-5.24H132v-16.2H116.49a16.93,16.93,0,0,0-16.94,16.94v11.23h-7v13.81h7v42.71h-18A20.6,20.6,0,0,1,61,1136.5v-61.35a20.6,20.6,0,0,1,20.61-20.6h61.35A20.59,20.59,0,0,1,163.52,1075.15Z" transform="translate(0.19 0.31)"/><circle class="cls-2" cx="236.72" cy="1106.98" r="30.01" transform="translate(-875.91 1314.82) rotate(-88.49)"/><path class="cls-2" d="M272.72,1070.18c5.62,5.63,4.95,15.43,2.51,17.87s-5.75-3.38-11.38-9-11.45-8.93-9-11.38S267.08,1064.56,272.72,1070.18Z" transform="translate(0.19 0.31)"/><path class="cls-1" d="M270.49,1057H203a16,16,0,0,0-15.95,16v68.15A16,16,0,0,0,203,1157h67.54a15.94,15.94,0,0,0,15.95-16V1072.9A15.94,15.94,0,0,0,270.49,1057Zm-33.77,80a30,30,0,1,1,30-30A30,30,0,0,1,236.72,1137Zm38.51-48.94c-2.45,2.45-5.75-3.38-11.38-9s-11.45-8.93-9-11.38,12.23-3.11,17.87,2.51S277.67,1085.61,275.23,1088.05Z" transform="translate(0.19 0.31)"/><circle class="cls-2" cx="236.72" cy="1106.98" r="30.01" transform="translate(-875.91 1314.82) rotate(-88.49)"/><path class="cls-2" d="M275.23,1088.05c-2.45,2.45-5.75-3.38-11.38-9s-11.45-8.93-9-11.38,12.23-3.11,17.87,2.51S277.67,1085.61,275.23,1088.05Z" transform="translate(0.19 0.31)"/><circle class="cls-2" cx="236.72" cy="1106.98" r="30.01" transform="translate(-875.91 1314.82) rotate(-88.49)"/><circle class="cls-1" cx="236.72" cy="1106.97" r="18.8" transform="translate(-893.69 1163.63) rotate(-80.78)"/><path class="cls-2" d="M275.23,1088.05c-2.45,2.45-5.75-3.38-11.38-9s-11.45-8.93-9-11.38,12.23-3.11,17.87,2.51S277.67,1085.61,275.23,1088.05Z" transform="translate(0.19 0.31)"/><path class="cls-1" d="M814.25,1081.58a34.08,34.08,0,0,1-7.07,20.82,44.28,44.28,0,0,0-9.34,26.93c0,4.9-6.07,7.7-13.19,8.46.09-16.22,9.94-32.37,10.25-32.87a34.37,34.37,0,0,1-29.77,0,80.54,80.54,0,0,1,5.12,10.33c2.53,6.12,5.06,14.26,5.12,22.42-7.11-1-13.17-3.91-13.17-8.81a43.48,43.48,0,0,0-9.33-26.44,34.23,34.23,0,1,1,61.38-20.84Z" transform="translate(0.19 0.31)"/><rect class="cls-1" x="765.31" y="1142.75" width="29.8" height="5.1" rx="1.9"/><rect class="cls-1" x="765.31" y="1152.28" width="29.8" height="5.1" rx="1.9"/><rect class="cls-1" x="769.87" y="1161.81" width="20.67" height="5.1" rx="1.9"/><path class="cls-1" d="M887.7,1123.19a37.41,37.41,0,0,1-22.14-6.15l-7.84,29.31,14.5-6.78,9.17,13.11,7.92-29.59C888.77,1123.13,888.24,1123.17,887.7,1123.19Z" transform="translate(0.19 0.31)"/><path class="cls-1" d="M915.39,1153.32l-14.25-6-8.41,13-5.43-17.7,5.3-19.79a35.77,35.77,0,0,0,12.11-4.33Z" transform="translate(0.19 0.31)"/><path class="cls-1" d="M887.63,1106.65a25.27,25.27,0,1,1,24.18-26.32A25.27,25.27,0,0,1,887.63,1106.65Z" transform="translate(0.19 0.31)"/><path class="cls-1" d="M923.89,1079.82a37.37,37.37,0,1,0-59.56,31.62h0a37.19,37.19,0,0,0,23.8,7.29,36.19,36.19,0,0,0,3.64-.33,37.22,37.22,0,0,0,15-5.54h0A37.34,37.34,0,0,0,923.89,1079.82ZM887.77,1110l-1.25,0a28.47,28.47,0,1,1,1.25,0Z" transform="translate(0.19 0.31)"/><path class="cls-3" d="M58.66,446.57v70.49c15.8-12.94,35.42-16.85,57.88-16.35l-5.1-70.23C90.55,428.22,69.16,433.23,58.66,446.57Z" transform="translate(0.19 0.31)"/><path class="cls-1" d="M174,167.73s0,0,0-.07l0-.24,0-.13a.2.2,0,0,1,0-.07c0-.06-.05-.11-.07-.16l-.05-.11a1.79,1.79,0,0,0-.47-.55h0l-.06,0-.24-.13-.11,0-.24-.07-.11,0h-.36a1.61,1.61,0,0,0-.37.07L97.53,190l-.07,0-.16.07-.14.08-.13.09-.12.1-.11.12a.4.4,0,0,0-.1.12,1,1,0,0,0-.09.13.91.91,0,0,0-.07.14,1,1,0,0,0-.07.15c0,.05,0,.1,0,.15l0,.16a.88.88,0,0,0,0,.17s0,0,0,.07l0,74.91c-3.84-2.45-10-3.19-16.49-1.54-9.64,2.46-16.22,9.26-14.71,15.19s10.56,8.75,20.19,6.29,16.22-9.26,14.71-15.19a6.83,6.83,0,0,0-.39-1.1l0-55.32,71-23.16v52c-3.76-2.8-10.28-3.73-17.12-2-9.64,2.46-16.22,9.26-14.71,15.19s10.55,8.75,20.19,6.29c9.28-2.37,15.71-8.76,14.82-14.53a1.81,1.81,0,0,0,.14-.66Z" transform="translate(0.19 0.31)"/><rect class="cls-1" x="23.31" y="898.65" width="110.13" height="14.06"/><path class="cls-1" d="M387,1117.47l5.63-33.8-8.85-1.61-2.21,14.27c-3.17-8.57-10.12-14.85-18.74-15.74-12.82-1.31-24.46,9.81-26,24.84s7.6,28.28,20.43,29.59c8.67.9,16.81-3.9,21.63-11.76,1.68,5.69,6.7,10.76,15.35,11.91a23,23,0,0,0,13.39-2.12,49.71,49.71,0,0,1-8.22,11h0s-3.73,3.49-5.77,5c-.52.39-1.06.77-1.58,1.12l-1.58,1-.09,0a49.63,49.63,0,0,1-6.9,3.6c-.59.26-1.21.5-1.83.74s-1.23.45-1.85.66c-.94.32-1.89.61-2.86.87-.4.12-.81.22-1.22.32-.24.06-.48.12-.72.16-1.31.3-2.63.55-4,.74l-1,.14c-.54.07-1.08.12-1.63.17s-1.31.11-2,.14c-.43,0-.85,0-1.28,0l-1.27,0h0a50.18,50.18,0,0,1-40.11-20.1c-.73-1-1.41-2-2.06-3s-1.27-2.06-1.85-3.12c-.76-1.42-1.47-2.88-2.1-4.39-.32-.74-.62-1.5-.9-2.26l-.4-1.16c-.27-.78-.51-1.55-.74-2.35a50.33,50.33,0,0,1-1.9-13.71,49.76,49.76,0,0,1,2-14c.15-.54.32-1.08.5-1.62a49.93,49.93,0,0,1,12.16-19.72c.56-.57,1.14-1.11,1.73-1.65a51.9,51.9,0,0,1,4.69-3.77c.52-.37,1.05-.74,1.59-1.09s.94-.6,1.43-.9,1.13-.68,1.71-1a49.56,49.56,0,0,1,8.56-3.75c.54-.18,1.07-.35,1.62-.5a49.82,49.82,0,0,1,14.06-2h0l1.28,0c.47,0,.93,0,1.39.06s.79,0,1.17.07c.7,0,1.38.11,2.08.19l1.06.14c.39.06.77.11,1.15.18l1.13.2,1.12.22c.71.16,1.41.32,2.12.5a.19.19,0,0,1,.1,0,50.54,50.54,0,0,1,37,41.83c.06.42.11.83.16,1.24s.08.81.11,1.21C415.62,1131.34,383.84,1134.27,387,1117.47Z" transform="translate(0.19 0.31)"/><path class="cls-1" d="M158.44,333.24l-18.06-10.06v-.07h-2.83V370a11.93,11.93,0,1,0,2.67,8.11h.16V334.29l18.06,10Z" transform="translate(0.19 0.31)"/><path class="cls-3" d="M4.91,430.48l-5.1,70.23c22.46-.5,42.09,3.41,57.88,16.35V446.57C47.19,433.23,25.81,428.22,4.91,430.48Zm39,29.82-9.76-5.44v22.62a6.34,6.34,0,0,1,.15,1.38,6.54,6.54,0,1,1-6.53-6.54,6.43,6.43,0,0,1,4,1.39V449A1.2,1.2,0,0,1,33,447.8a1.18,1.18,0,0,1,1.14.95l9.81,5.46Z" transform="translate(0.19 0.31)"/></svg>