<svg id="Layer_1" data-name="Layer 1" xmlns="http://www.w3.org/2000/svg" viewBox="0 0 99.49 100.05"><defs><style>.cls-1,.cls-2{fill:none;stroke:#231f20;stroke-linecap:round;stroke-linejoin:round;}.cls-1{stroke-width:3.31px;}.cls-2{stroke-width:3.31px;}.cls-3{fill:#231f20;}</style></defs><circle class="cls-1" cx="49.73" cy="49.98" r="30.01"/><path class="cls-2" d="M85.72,13.18c5.62,5.63,5,15.43,2.51,17.87s-5.75-3.38-11.38-9-11.45-8.93-9-11.38S80.08,7.56,85.72,13.18Z" transform="translate(0 0)"/><path class="cls-3" d="M83.49,0H16A16,16,0,0,0,0,15.9V84.05a16,16,0,0,0,16,16H83.49a15.94,15.94,0,0,0,16-15.88V15.9A15.94,15.94,0,0,0,83.51,0ZM49.72,80a30,30,0,1,1,30-30A30,30,0,0,1,49.72,80ZM88.23,31.05c-2.45,2.45-5.75-3.38-11.38-9s-11.45-8.93-9-11.38,12.23-3.11,17.87,2.51S90.67,28.61,88.23,31.05Z" transform="translate(0 0)"/><circle class="cls-1" cx="49.73" cy="49.98" r="30.01"/><path class="cls-2" d="M88.23,31.05c-2.45,2.45-5.75-3.38-11.38-9s-11.45-8.93-9-11.38,12.23-3.11,17.87,2.51S90.67,28.61,88.23,31.05Z" transform="translate(0 0)"/><circle class="cls-1" cx="49.73" cy="49.98" r="30.01"/><circle class="cls-3" cx="49.72" cy="49.98" r="18.8"/><path class="cls-2" d="M88.23,31.05c-2.45,2.45-5.75-3.38-11.38-9s-11.45-8.93-9-11.38,12.23-3.11,17.87,2.51S90.67,28.61,88.23,31.05Z" transform="translate(0 0)"/></svg>