<svg xmlns="http://www.w3.org/2000/svg" xmlns:xlink="http://www.w3.org/1999/xlink" viewBox="0 0 665.46 390.72"><defs><style>.cls-1{fill:none;}.cls-2{clip-path:url(#clip-path);}.cls-3{clip-path:url(#clip-path-2);}.cls-4{opacity:0.61;}.cls-5{fill:#fff;}.cls-6{clip-path:url(#clip-path-3);}.cls-7{fill:#ffe882;}.cls-8{clip-path:url(#clip-path-4);}.cls-9{clip-path:url(#clip-path-6);}.cls-10{fill:#e06124;}.cls-11{clip-path:url(#clip-path-7);}.cls-12{fill:#0c0c0c;}.cls-13{fill:#ebd540;}.cls-14{clip-path:url(#clip-path-8);}.cls-15{fill:#9fd6d4;}.cls-16{fill:#80a337;}.cls-17{fill:#a357a3;}</style><clipPath id="clip-path"><rect class="cls-1" x="-4225.87" y="1449.16" width="2248" height="2508"/></clipPath><clipPath id="clip-path-2"><path class="cls-1" d="M2494.49,3466.8c-38.6-56.83-34.91-129.28,2.88-187.69,46.05-71.16,135.83-120.15,182.77-191,45-67.94,44.94-151.29,7.69-220.78s-109.24-125.18-194-159.77c-51.24-20.91-108.77-35.47-148.74-68.22-48.6-39.82-62.7-99.79-108.68-141.51-55.87-50.68-148.28-65.3-234.18-65.84s-173.1,9.93-257.14-2.91c-95.77-14.63-179-58.18-268-89s-196.12-48.2-282.75-10.67c-134.19,58.13-149.24,212.4-268,288.93-60.33,38.88-140.64,52.91-203.29,89.41-68.89,40.13-110.72,105.44-121.52,172s7.29,134.21,40.63,195.23c32.86,60.14,80.38,115.12,105.43,177.67,19.11,47.69,24.28,97.3,23.88,147.69,29.18,10,55.48,24,76.57,43.15,46,41.72,60.08,101.69,108.68,141.51,40,32.75,97.5,47.31,148.75,68.22,84.77,34.59,156.75,90.27,194,159.76,19.83,37,29,77.92,26.58,118.36,27.45,10.18,53.74,23.5,81,34.11,143.54,56,332.18,32.23,450.22-56.73,34.43-25.94,63-56.6,99.47-80.78s84.22-41.79,130.15-34.35c40.1,6.48,71,30.41,99.6,53.3l146,116.95c44.26,35.45,124.7,60.26,121.44,110.58,88.76-57.92,167.72-128.78,208.36-213.57s38.2-185-25.25-258.74C2595,3553.5,2529.75,3518.72,2494.49,3466.8Z"/></clipPath><clipPath id="clip-path-3"><rect class="cls-1" x="1313.15" y="-235.84" width="432.42" height="310.46"/></clipPath><clipPath id="clip-path-4"><rect class="cls-1" x="1296.46" y="184.16" width="439" height="444"/></clipPath><clipPath id="clip-path-6"><rect class="cls-1" x="1299.15" y="318.16" width="432.42" height="310.46"/></clipPath><clipPath id="clip-path-7"><path class="cls-1" d="M298.58,311.31c.47,10.79,11.32,7.81,16.36,14.91-4.84-.32-8.21-.93-11.5-.63-2.1.19-4.08,1.71-6.11,2.64,1.76,1.38,3.32,3.26,5.32,4,3.38,1.32,7,1.95,10.56,2.87-.15.87-.31,1.75-.47,2.63A61.5,61.5,0,0,0,305,337c-1.33,0-2.65,1-4,1.6.54,1.17,1,3.3,1.63,3.37,9.57,1.09,19.17,1.89,28.75,2.77,3-7.29,9.41-7.38,15.83-8,1.21-.11,3-2.3,3.2-3.72,2.2-14.81,4.17-29.66,6.13-44.51.67-5.09-1.51-7.56-6.86-7.64-5.89-.09-11.79-.64-17.67-1.17-4.47-.4-5.94,1.81-6.33,5.93-.65,6.77-1.63,13.52-2.63,20.25-.71,4.79-3.49,7.2-8.51,6.73S304.33,311.78,298.58,311.31Z"/></clipPath><clipPath id="clip-path-8"><path class="cls-1" d="M21.38,343.55c-2-.57-4-1-5.92-1.72-4.34-1.54-11.32-.28-10.53-7.87.74-7.06,7-5.13,11.37-5.36,11.8-.62,11.92-.59,12.28-12.86,0-1.14,0-2.28.06-3.42,1.81-34.4,3.23-68.73,9.11-102.91C41.49,187.66,40,165,40.9,142.77a49.25,49.25,0,0,0,0-8.84c-.29-2-1.13-4.76-2.64-5.68-10.14-6.18-17.5-14.48-21.07-25.9-7.26-23.27-6.17-36.6,12.65-51a24.29,24.29,0,0,0,2.94-3.44c-4.34-5-9.2-9.41-12.4-14.77a91.12,91.12,0,0,1-8.3-19.63C11,10,13,6.81,17.62,6.82A18,18,0,0,1,35.25,21.14c-3.67-1.81-7.58-4.13-11.79-5.53-1.05-.35-4.62,2.65-4.42,3.53C20.93,27.66,24.55,35.28,33,40.88c1.3-2.85,2.76-5.16,3.44-7.68,2-7.47,7.7-10.21,14.43-11.3,21.65-3.5,42.41.34,62.53,8.38,4.07,1.63,7.71,5.53,11.75,5.83,21.84,1.65,43.68,2.76,62.66,15.75,1.21.83,3.26.81,4.84.62,2.34-.28,4.74-1.84,6.88-1.49,5.6.92,11,2.89,16.61,3.87,17,3,34.32,4.68,51,8.83C290.16,69.42,313.19,74.42,337,75.5c22.39,1,44.11,4.68,65.38,12.53,37.26,13.76,63.25,37.92,75.33,76.17,13.29,42.11,40.46,73.48,76.58,97.38,16.38,10.84,34.25,19.13,54.72,19.17,2.9,0,6.09,1.39,8.64.57,6.8-2.18,14-15.83,12.55-23-1.93-9.35-4.38-18.6-6.24-28a214,214,0,0,1-3.26-21.52c-.52-5.6,2.87-8.14,8.36-8.47,9.74-.57,21.17,6.13,25.27,15.71,7.41,17.27,12,35,6,53.75-3,9.27-6.7,18.3-10.19,27.39-6.33,16.51-19.4,23.87-36,22.73-20.36-1.4-40.58-4.92-60.81-7.87-3.48-.51-6.93-2.34-10-4.16-21.87-12.85-40.08-30.11-56.54-49.08-17.12-19.72-36.8-35.11-62.11-42.67-14.2-4.24-26.49,3.34-26.81,18.06-.42,19.34.49,38.71.84,58.07.44,24.37,1.22,48.73,1.2,73.09,0,9.61-4.3,14-13.65,16.23-7.51,1.8-15.11,3.58-22.78,4.29a31.73,31.73,0,0,1-14.59-2.05c-2.53-1.05-4.29-5.28-5.09-8.41-.24-.94,3.83-3.18,6.12-4.49a26.09,26.09,0,0,1,5.05-1.71l-.23-2.08c-3.91-.47-7.95-.52-11.7-1.57-2-.56-3.45-2.86-5.14-4.38,1.9-.91,3.73-2.34,5.72-2.6,3.1-.42,6.3,0,9.46,0l.39-2.88c-4-.89-7.94-1.7-11.87-2.68-3.19-.8-5.46-1.1-4.14-6.27,1.16-4.52,3.07-5.14,6.51-5.4,4.53-.33,9.07-.74,13.61-.89s7.32-2.21,8.35-6.55c1.56-6.62,3.61-13.21,4.35-19.93a119.7,119.7,0,0,0,.41-23.71c-.29-3.13-3.22-7.08-6.06-8.72-10.38-6-22.12-6.07-33.72-5.81-19.82.43-39.63,1.15-59.44,1.55-47.57,1-95.15,1.61-142.72,2.86-9.23.25-18.44,2.44-27.57,4.2-1.67.32-4.22,3-4.12,4.4.78,10.65,1.5,21.38,3.42,31.86a177.26,177.26,0,0,1,1.42,53.76c-.81,6.6-5.28,10.54-11.15,10.65a113.07,113.07,0,0,0-16.56,1.31c-11.18,1.88-18.54-3.65-18.8-14.9,2.23-.1,4.47-.25,6.72-.28s4.45,0,6.68.07l.41-2.65c-3.43-.84-7-1.3-10.25-2.65-2.61-1.08-4.77-3.24-7.13-4.93,2.75-1,5.43-2.42,8.28-3,2.3-.48,4.81,0,7.22,0l.39-2.48c-3.52-1.15-7.24-1.9-10.47-3.59-2.49-1.31-4.34-3.82-6.48-5.79,2.54-.83,5.07-2.32,7.62-2.36,9-.14,12.35-3.19,12.09-12.41-.27-9.56-.77-19.12-1.24-28.67-.34-7-.8-14.07-1.21-21.11l-2.27-.2c-.43,1.83-1.29,3.68-1.22,5.49.59,14.56,1.42,29.11,2,43.67.31,7.65-1.09,8.59-8.33,9.14-3.75.29-9.45,1.26-10.53,3.62-1.34,2.94,1.19,7.65,2.29,12.69-3.59,3.44-2.45,8.09,2.68,12.91-2.38,1.38-4.32,3.5-6.09,3.37A246.94,246.94,0,0,1,18.87,369c-2.68-.5-4.8-4-7.17-6.18,2.18-1.51,4.38-3,6.52-4.55.32-.23.39-.79,1-2.21-1.81-.59-3.71-.83-5.17-1.76a45.51,45.51,0,0,1-5.23-4.53c1.94-1.08,3.78-2.47,5.85-3.14s4.36-.62,6.55-.89ZM75,119.92c1.79-.51,4.06-1.89,4.7-3.45a168.08,168.08,0,0,0,7.5-21.1c1.48-5.67-.73-10.51-5.76-14.19-2-1.44-2.74-4.43-4.17-6.63-1.06-1.64-2.15-4.36-3.5-4.53a164.51,164.51,0,0,0-18.84-1.11c-1.25,0-3.69,1.7-3.6,2.35.84,6-3.87,8-7.35,11.16C38.52,87.33,38.3,95,42.79,100.78a7.13,7.13,0,0,1,1.73,4c-.46,13.3,3.25,17.34,16.58,18.21C65.73,122,70.43,121.22,75,119.92ZM47.44,59.33c5.54-.15,10.9-4.53,10.48-8.59s-1.63-8.69-6.58-7.5c-3.86.94-11.35-.89-10,7.42C41.41,55.08,41.49,59.48,47.44,59.33Zm42-9.74c0-5.42-4.52-5.94-8.78-6.41-5.43-.6-8.08,2.26-7.29,7,.42,2.59,3.48,4.76,5.35,7.12C85,56.26,89.49,55.42,89.47,49.59Z"/></clipPath></defs><g id="Layer_4" data-name="Layer 4"><g class="cls-2"><g class="cls-3"><g class="cls-4"><path class="cls-5" d="M109.43-301.41C96.51-343.7,78.28-380.66,57.87-406,20.94-451.83,1.21-436.22-29.8-423.68c-44.86,18.15-24.94,76.48-87.74-2.65-5.27-8.28-16-8.75-20.55-4.95-3.8,3.16-1.23,12.61.66,20.24.54,2.19,1.13,4.47,1.7,6.7a8,8,0,0,0,.13.95L50.14,347.71c-29.65-17.57-65.62-6.63-92.22,33.16-36.95,55.28-41.76,145-10.75,200.35s86.12,55.46,123.07.19c30.84-46.13,34.22-115.48,20.58-169.84L-72.87-250.37c40,5.6,22.47,6.54,44.85-19.74C-10.21-291,5-326.6,29.11-328.78c35.38-3.2,30.61,45,54.74,101.86,8,18.87,18.37,35.52,28.33,40.77C145.93-168.35,121.39-262.22,109.43-301.41Z"/><path class="cls-5" d="M507.7,76.05C494.78,33.76,476.56-3.2,456.14-28.54c-36.93-45.83-56.66-30.22-87.67-17.68-44.86,18.15-24.94,76.48-87.74-2.65-5.27-8.28-16-8.75-20.55-5-3.8,3.16-1.23,12.6.66,20.24.54,2.19,1.13,4.47,1.7,6.7,0,.32,0,.62.13.95l185.74,751.1c-29.65-17.57-65.62-6.63-92.22,33.16-36.95,55.28-41.76,145-10.74,200.35s86.11,55.46,123.06.19C499.35,912.73,502.73,843.39,489.1,789L325.4,127.09c40,5.6,22.47,6.54,44.85-19.74,17.81-20.91,33.05-56.49,57.13-58.67,35.39-3.2,30.61,45,54.74,101.86,8,18.87,18.37,35.52,28.33,40.77C544.21,209.1,519.66,115.24,507.7,76.05Z"/><path class="cls-5" d="M906,378.13c-12.92-42.29-31.14-79.25-51.56-104.59-36.93-45.83-56.65-30.22-87.67-17.68C721.88,274,741.8,332.34,679,253.21c-5.26-8.28-16-8.76-20.55-5-3.8,3.16-1.22,12.6.66,20.24.54,2.19,1.14,4.46,1.7,6.7.06.32.05.62.13.95l185.75,751.1c-29.66-17.57-65.63-6.63-92.23,33.16-37,55.28-41.76,145-10.74,200.35s86.11,55.46,123.06.19c30.84-46.14,34.22-115.48,20.59-169.84L723.67,429.16c40,5.61,22.48,6.55,44.85-19.73,17.81-20.91,33.05-56.49,57.14-58.67,35.38-3.21,30.61,45,54.73,101.85,8,18.88,18.37,35.53,28.33,40.78C942.48,511.18,917.93,417.32,906,378.13Z"/><path class="cls-5" d="M185.47,470.49c37.4-2.16,71.69-50.73,72.71-90.46s-17.4-77.58-33.4-114.8a798,798,0,0,1-32.23-87.5C166.09,88.74,160-4.64,125.64-91.56c-1.4-3.52-3.24-7.42-7.22-8.81-5.31-1.86-10.92,1.81-14.85,5.44C67.73-61.82,58.06-12.64,63.11,32.64S86,121.26,98.35,165.47c24.24,86.78,27.32,177,47.47,264.59,2.17,9.46,4.76,19.28,11.79,26.74s6.8,12,27.86,13.69"/><path class="cls-5" d="M583.75,794c37.39-2.16,71.68-50.73,72.7-90.46s-17.4-77.58-33.4-114.8a799.51,799.51,0,0,1-32.23-87.51c-26.45-89-32.57-182.36-66.91-269.28-1.39-3.53-3.24-7.43-7.21-8.82-5.31-1.85-10.93,1.82-14.86,5.45-35.83,33.11-45.51,82.29-40.45,127.57s22.89,88.62,35.24,132.82c24.23,86.78,27.31,177,47.46,264.59,2.18,9.47,4.76,19.28,11.79,26.74s6.8,12,27.87,13.7"/></g></g></g></g><g id="Layer_8" data-name="Layer 8"><g class="cls-6"><path class="cls-7" d="M428.4-1.17c9.87,9.43,23.41,13.61,33.78,22.35l-.58-.49A27.29,27.29,0,0,1,466.5,26a18,18,0,0,1,1.73,3.2s.29.87.15.42c.15.48.29,2.63.27.91a31.68,31.68,0,0,1,1.18-9.29c1-3.29-.58.69.44-1.23a12.61,12.61,0,0,1-1.67,2.53,27.7,27.7,0,0,1-5.32,4.58c-8,5.52-17.62,8.61-25.11,14.92a30.4,30.4,0,0,0-8.87,13,56.58,56.58,0,0,0-2.93,26.27c1.3,9.25,7.28,16.31,14.25,22.08,9.43,7.79,20.67,13.28,31.87,18,1.55.65,3.11-6.3,3.17-6.59a43.39,43.39,0,0,0,1.25-12.33c.66,11.88-5.29,20.26-2.33,15.07-.63,1.11-.22.31.09,0a17.5,17.5,0,0,1,1.56-1.29,28.41,28.41,0,0,1,4.54-2.45l-.69.31c3.38-1.5,6.88-2.71,10.33-4.07a125.33,125.33,0,0,0,11.77-5.59c9.29-4.79,18.48-10,28-14.3l-.69.31A43.62,43.62,0,0,1,546,86.45a51.29,51.29,0,0,1,16.72,2.44c10.53,3.27,19.4,10.1,29.58,14.21,18.9,7.62,40.38,9.65,60.57,8.12a129.56,129.56,0,0,0,16.88-2.35c6.73-1.41,13.25-3.62,19.93-5.22,2.12-.5,2.81-5.05,3.17-6.59a41.32,41.32,0,0,0,1.24-12.33c-.06-1-.07-.83,0,.45a30.56,30.56,0,0,1-.64,5.56,16.28,16.28,0,0,1-.63,2.4c.27-.69.31-.82.12-.38s-.14.31.19-.38c.2-.4.42-.8.65-1.2A16.48,16.48,0,0,1,695,89.29a35.78,35.78,0,0,1,5.2-5.24A64.73,64.73,0,0,1,715,75.12l-.69.32a121.06,121.06,0,0,1,20.4-6.85c6.61-1.63,13.33-2.94,19.77-5.16A40.44,40.44,0,0,0,770.6,53.32c4.64-4.75,8.91-9.22,15-12l-.69.31A61,61,0,0,1,796.15,38c1.82-.41,2.47-3.86,2.86-5.27a42.14,42.14,0,0,0,1.61-11.33c0-.67,0-1.34,0-2,0-1.94-.21,2,0,.05,0,.17-.45,2.89-.1,1,0-.12-.51,2.57-.23,1.32s-.28,1.05-.26,1c.14-.32.11-1.06.36-1.3,0,0-.6,1.58-.16.59.14-.31.24-.65.37-1-.39,1,.32-.61.46-.88a26.13,26.13,0,0,1,2.1-3.4c3.42-4.57,7.7-8.43,11.78-12.39,4.44-4.32,8.7-8.83,11.88-14.2,4.84-8.16,6.68-18,7-27.42.21-5.73-.6-11.62-3.52-16.64a33.63,33.63,0,0,0-9.59-10c-9.36-6.75-20.84-9.19-31.87-11.78a131.7,131.7,0,0,1-18.51-5.3,55.48,55.48,0,0,1-15.27-9.22l.58.49c-5.62-4.78-10.41-10.44-16-15.31A55.46,55.46,0,0,0,718-117c-18.16-5.07-38.12-2.44-56.18,1.72-9.51,2.2-18.91,4.86-28.43,7a168.46,168.46,0,0,1-30.22,4.19c-20.51.86-41.11-1.59-61.55,1-9.08,1.14-18.75,3.12-26.47,8.3-3.8,2.56-6.79,6-10,9.24a37.49,37.49,0,0,1-11.36,8.25l.7-.31c-6.85,3-14.26,4.45-21.5,6.17a128.58,128.58,0,0,0-22.18,7.14c-6.11,2.7-12.1,5.92-17.12,10.38-6.45,5.72-9.79,13.17-11.45,21.55-2.18,11-2.26,22.87,6.15,31.24,2.18,2.17,3.86-6.38,4.07-7.42a46.17,46.17,0,0,0,1-8.68c0-1.38.34-4.33-.7-5.37a20.53,20.53,0,0,1-6.08-10.45c.11.55.11,1,.07.17a22.51,22.51,0,0,1-.29,4.71c-.2,1.36-.54,2.66-.86,4s.1-.21.22-.53c-.36.94-.18.41.14-.19.23-.45.48-.9.74-1.33a18.84,18.84,0,0,1,1.65-2.23c5.12-6.06,12.27-10.19,19.4-13.43l-.7.31a121.24,121.24,0,0,1,20.42-6.84c6.92-1.7,14-3,20.7-5.47A40.35,40.35,0,0,0,504-64.38c4.38-4.56,8.61-8.74,14.44-11.4l-.69.31c12.34-5.45,26.63-6.27,39.94-6.42,16-.19,32.1,1.12,48.13-.11,15.12-1.17,29.73-5.13,44.38-8.82,14.07-3.55,28.35-6.41,42.92-6.42,15.31,0,30.18,3.46,42.08,13.5l-.58-.49c8.73,7.5,15.77,16.78,25.93,22.54,12.06,6.84,26.29,8.2,39.4,12.08,7.19,2.13,14.14,5.16,20,10l-.58-.49A28.62,28.62,0,0,1,827.6-29c.34.85,0-.42.14.46.13.66.29,1.31.43,2s0-.16,0-.28c0,1.59,0-.24,0-.47,0,.34-.08,1.45,0-.12a31.84,31.84,0,0,1,.5-4.24c0,.08.54-2.24.24-1.11s.22-.7.22-.7a4.89,4.89,0,0,1-.45,1.22c0-.13.44-.91.07-.17a43.36,43.36,0,0,1-2.31,4.17C819.57-17.64,807.68-11.15,801.58.17c-5.13,9.51-6.79,21.31-6.71,32l4.46-16.6c-7.78,1.76-15.31,4.63-21.24,10.12-2.58,2.4-4.86,5.1-7.42,7.52a34.84,34.84,0,0,1-9.61,6.51l.7-.31c-11.59,5-24.5,6.25-36.39,10.46-10.23,3.62-21.32,8.69-28.32,17.32a35.31,35.31,0,0,0-6.32,12.44,58.1,58.1,0,0,0-2.3,20.52l4.41-18.93c-7.08,1.7-14,4-21.13,5.46A133.43,133.43,0,0,1,652.8,89a151.55,151.55,0,0,1-38.6-2.8A112.54,112.54,0,0,1,597,81.26a132.43,132.43,0,0,1-16.91-8.41c-12.29-6.81-26.43-11.36-40.44-7.38-7.4,2.1-14.17,6.12-21,9.62-7.46,3.85-14.84,8.07-22.5,11.51l.69-.31c-5.37,2.35-11.06,4-16.29,6.67a13.37,13.37,0,0,0-5.53,4.62,19.44,19.44,0,0,0-2.2,5.5,47.68,47.68,0,0,0-1.63,14.8L475.68,99c-11.4-4.82-22.78-10.42-32.33-18.41l.58.49a44.39,44.39,0,0,1-9.36-10.45,23.18,23.18,0,0,1-2.43-5.27q-.21-.76-.36-1.53l-.09-.51q-.18-1.16,0,.3c-.18-.3-.08-2.91,0,.29q0-1.6-.06,1.2a24.62,24.62,0,0,1-.39,3c0,.27-.95,3.95-.42,2.13-.75,2.59-.22.81,0,.25-.67,1.7,0,0,.19-.26.26-.49.54-1,.84-1.43.19-.28,1.22-1.58,1.78-2.19a28.74,28.74,0,0,1,3.27-3.06c4-3.26,8.71-5.64,13.28-8A91.39,91.39,0,0,0,462.89,48c5.13-3.87,8-9.15,9.61-15.33,2.06-8.12,3.46-18.14-.42-26C469.87,2.22,465.86-1.14,461.87-4c-8.91-6.32-19.28-10.42-27.74-17.39l.58.49c-.67-.57-1.32-1.16-2-1.77-2.22-2.12-3.85,6.35-4.06,7.43a45.28,45.28,0,0,0-1,8.68C427.7-5.17,427.36-2.16,428.4-1.17Z"/></g><path class="cls-5" d="M18,19.86C20.43,24.43,22.85,29,25.52,34,31.15,26.82,29.37,23.08,18,19.86Z"/><path class="cls-5" d="M117.4,12.62l-9.68,11,.83,1.89c1.93.14,5.06,1.07,5.59.27,2.38-3.58,4-7.66,5.92-11.55C119.18,13.7,118.29,13.16,117.4,12.62Z"/><path d="M39.69,103.76a7,7,0,0,0-1.73-4C33.48,94,33.7,86.33,39.13,81.42c3.48-3.14,8.2-5.11,7.36-11.16-.09-.65,2.35-2.36,3.59-2.35A164.55,164.55,0,0,1,68.93,69c1.34.17,2.43,2.89,3.5,4.53,1.43,2.2,2.21,5.19,4.16,6.63,5,3.68,7.25,8.52,5.77,14.19a166.56,166.56,0,0,1-7.51,21.1c-.64,1.56-2.91,2.94-4.7,3.45-4.54,1.3-9.24,2.07-13.88,3C43,121.1,39.24,117.06,39.69,103.76ZM73,110.37c2.13-6,.31-9.81-5.78-11.35-8.09-2-15.6.57-22.67,4-3.72,1.82-2.83,10.1,1.4,12.23,3.31,1.67,7.24,2.11,9.54,2.73C63.22,117.05,70.2,118.28,73,110.37ZM38.9,91.48c-1.24,4.07,1.17,6.75,6.4,5.48,9.26-2.24,18.53-4.13,27.92.24,5.91,2.75,6.35-2.2,5.5-5.65-.78-3.14-3.3-6-5.58-8.46-.34-.38-3.85,1.6-5.42,3-5.2,4.67-15.84,1.38-20.53-8.62C43.77,83,40.29,86.93,38.9,91.48ZM62.05,73l-7.48,1.5,7.28,9.2L63,82.52C62.72,79.68,62.44,76.84,62.05,73Z"/><path d="M36.5,49.66c.09,4.42.16,8.82,6.11,8.67,5.54-.15,10.9-4.53,10.49-8.59s-1.64-8.69-6.58-7.5C42.66,43.18,35.17,41.35,36.5,49.66Z"/><path d="M73.92,56.33c6.29-1.07,10.75-1.91,10.72-7.74,0-5.42-4.51-5.94-8.78-6.41-5.42-.6-8.07,2.26-7.29,7C69,51.8,72.05,54,73.92,56.33Z"/><path class="cls-5" d="M55.52,118c7.7-1,14.68.28,17.51-7.63,2.13-6,.31-9.81-5.78-11.35-8.09-2-15.6.57-22.67,4-3.72,1.82-2.83,10.1,1.4,12.23C49.29,116.94,53.22,117.38,55.52,118Z"/><path class="cls-5" d="M47.19,77.48c-3.42,5.55-6.9,9.45-8.29,14-1.24,4.07,1.17,6.75,6.4,5.48,9.26-2.24,18.53-4.13,27.92.24,5.91,2.75,6.35-2.2,5.5-5.65-.78-3.14-3.3-6-5.58-8.46-.34-.38-3.85,1.6-5.42,3C62.52,90.77,51.88,87.48,47.19,77.48Z"/><path class="cls-5" d="M63,82.52c-.29-2.84-.57-5.68-1-9.48l-7.48,1.5,7.28,9.2Z"/><path class="cls-5" d="M49.86,50.22c.07-5-2.17-5-4.92-5.06s-6.42-.8-6.5,5.62,3.6,4.33,6.36,4.37S49.79,55.21,49.86,50.22Z"/><path class="cls-5" d="M82.36,48.16c0-2.76-3.25-4-6-4s-5-.78-5,2.78,2.14,7.17,4.89,7.21S82.32,50.92,82.36,48.16Z"/><ellipse cx="44.87" cy="50.15" rx="6.42" ry="2.14" transform="translate(-5.89 94.34) rotate(-89.22)"/><ellipse cx="76.28" cy="49.15" rx="6.42" ry="2.14" transform="translate(26.1 124.76) rotate(-89.22)"/><path d="M314.31,280.62c-43.49.76-87,1.45-130.47,2.32-22.08.44-44.17.95-66.24,1.88-16.54.71-18.67,3.68-16.32,19.83,3.38,23.22,6.64,46.41,3.83,70-1,8.67-6.64,14-15.3,13.69a47.71,47.71,0,0,0-12,1.13c-9.4,2-18.5.82-24.37-6.63-4.49-5.69-9.51-6.62-15.66-7.31-7.86-.89-15.84-1.76-23.38-4-2.75-.8-4.83-5.2-6.4-8.36s-2-6.56-2.87-9.89c-.41-1.53-1.5-3.56-.91-4.55,2.4-4-.59-5.91-2.42-8.63-4.26-6.34-.72-14.21,6.78-15.39a67.41,67.41,0,0,1,8.18-.52c4.38-.14,7.13-1.35,7.09-6.72-.06-8.61.5-17.24,1.05-25.85Q27.38,253.5,30,215.37a16.64,16.64,0,0,1,.86-3.93c1.31-4.12,3.38-8.13,3.93-12.34A188.82,188.82,0,0,0,36,178c.22-14,.38-28.06.12-42.08a9.47,9.47,0,0,0-3.66-6.63C15.65,117.94,10.55,101.09,9,82.2,8.09,71,12.42,62.37,20.11,54.76c7.46-7.38,7.54-7.69-.33-15.47C12.84,32.43,8.53,24.57,7.71,14.77,7.13,7.84,10.5,2.2,16,3.22,24.22,4.77,33.18,5.8,37.3,15.5c.92,2.15,4.81,4.69,7,4.39C62.69,17.31,81,14.41,99,22.08a32.51,32.51,0,0,0,5,1.3l-1.15-1.64c5.51-6.43,10.55-13.35,16.66-19.15,5.36-5.08,12.4-2.3,13.48,5a26.41,26.41,0,0,1-1,11.11c-1.39,4.7-3.75,9.11-5.85,14,1.66.17,2.76.21,3.84.39,15.43,2.45,31.48,1.59,46,9a57,57,0,0,0,13.11,5.14c6.81,1.54,13.85,2,20.75,3.21,5.16.86,10.23,2.23,15.39,3.1,14.34,2.43,29,3.56,43,7.32,23.66,6.35,47.47,11,71.93,11.93a196.62,196.62,0,0,1,75.25,17.79c29.12,13.32,50,34,61.7,64.2,6.4,16.5,12.89,33.22,21.72,48.46,13.59,23.43,34,41.05,56.28,55.94,17,11.34,35.54,19.64,56.77,19,2.16-.06,4.89-.12,6.33-1.37,5.77-5,9.37-11.32,8-19.28-1.08-6.5-2.76-12.9-4.1-19.36-1.89-9.13-4.12-18.21-5.44-27.42s3.31-13.86,12.54-13.53c7.68.27,14.64,2.56,20.37,8.23,10.61,10.5,13.22,24.51,15,38,3.09,23.55-5.47,44.86-17.48,64.66-4.65,7.68-12.27,11.79-21.16,13.68-18.4,3.92-36.16-1.43-54.23-2.92-20.87-1.72-38.13-10.09-52.88-24.23-16.75-16.07-33.37-32.29-49.65-48.84-13.39-13.6-29.92-21.33-47.71-26.68-10.73-3.22-20.21,3.48-20.53,14.6-.48,16.61-.18,33.26.13,49.88.5,27.1,1.36,54.19,1.87,81.28.16,8.72-3.37,16.41-12,18.49-12,2.88-24.53,5.34-36.81,5.29-12.61-.06-16.43-6.63-15.49-18.82-2.19-3.34-4.79-7.06-4.55-10.59.46-6.85-1.66-10-8.28-10.31a165,165,0,0,1-20.31-2.3c-5-.88-9-3.47-8.5-9.62.06-.83,0-2.06-.52-2.49-6.48-5.41-2.91-9.73.29-12.42l-1.9-11.82c3.74-.58,7.48-1.4,11.25-1.68,2.91-.21,5.93.69,8.79.28,1.65-.24,4.16-1.88,4.41-3.24,1.48-7.95,2.4-16,3.63-24.86C318.83,280.68,316.57,280.58,314.31,280.62Zm-300.21,66c-2.07.67-3.91,2.06-5.85,3.14a44.59,44.59,0,0,0,5.22,4.53c1.46.93,3.37,1.17,5.18,1.76-.63,1.42-.7,2-1,2.21-2.15,1.56-4.35,3-6.53,4.55,2.38,2.15,4.49,5.68,7.17,6.18A246.94,246.94,0,0,0,46,372.26c1.77.13,3.71-2,6.09-3.37C47,364.07,45.81,359.42,49.4,356c-1.1-5-3.62-9.75-2.29-12.69,1.08-2.36,6.78-3.33,10.53-3.62,7.24-.55,8.64-1.49,8.33-9.14-.6-14.56-1.44-29.11-2-43.67-.07-1.81.79-3.66,1.22-5.49l2.27.2c.41,7,.87,14.07,1.21,21.11.47,9.55,1,19.11,1.24,28.67.26,9.22-3,12.27-12.09,12.41-2.55,0-5.08,1.53-7.62,2.36,2.14,2,4,4.48,6.48,5.79,3.23,1.69,7,2.44,10.47,3.59L66.73,358c-2.41,0-4.91-.48-7.22,0-2.85.6-5.53,2-8.28,3,2.36,1.69,4.52,3.85,7.13,4.93,3.22,1.35,6.82,1.81,10.26,2.65l-.42,2.65c-2.22,0-4.45-.11-6.68-.07s-4.49.18-6.72.28c.26,11.25,7.62,16.78,18.8,14.9A113.21,113.21,0,0,1,90.17,385c5.86-.11,10.33-4,11.14-10.65a177.26,177.26,0,0,0-1.42-53.76c-1.92-10.48-2.64-21.21-3.42-31.86-.1-1.42,2.46-4.08,4.12-4.4,9.13-1.76,18.34-3.95,27.57-4.2,47.57-1.25,95.15-1.9,142.72-2.86,19.82-.4,39.62-1.12,59.44-1.55,11.61-.26,23.34-.2,33.72,5.81,2.85,1.64,5.77,5.59,6.06,8.72a119.7,119.7,0,0,1-.41,23.71c-.73,6.72-2.79,13.31-4.35,19.93-1,4.34-3.87,6.4-8.34,6.55s-9.09.56-13.62.89c-3.44.26-5.35.88-6.51,5.4-1.32,5.17,1,5.47,4.14,6.27,3.93,1,7.91,1.79,11.87,2.68l-.39,2.88c-3.16,0-6.36-.43-9.46,0-2,.26-3.82,1.69-5.72,2.6,1.7,1.52,3.17,3.82,5.14,4.38,3.75,1.05,7.79,1.1,11.71,1.57l.22,2.08a26.09,26.09,0,0,0-5.05,1.71c-2.29,1.31-6.36,3.55-6.12,4.49.8,3.13,2.56,7.36,5.09,8.41a31.77,31.77,0,0,0,14.6,2.05c7.66-.71,15.26-2.49,22.77-4.29,9.35-2.24,13.64-6.62,13.65-16.23,0-24.36-.76-48.72-1.2-73.09-.35-19.36-1.26-38.73-.84-58.07.32-14.72,12.61-22.3,26.81-18.06,25.31,7.56,45,23,62.11,42.67,16.47,19,34.67,36.23,56.54,49.08,3.1,1.82,6.55,3.65,10,4.16,20.23,2.95,40.45,6.47,60.81,7.87,16.57,1.14,29.64-6.22,36-22.73,3.49-9.09,7.24-18.12,10.19-27.39,6-18.71,1.38-36.48-6-53.75-4.11-9.58-15.54-16.28-25.28-15.71-5.49.33-8.88,2.87-8.35,8.47a211.19,211.19,0,0,0,3.25,21.52c1.86,9.36,4.31,18.61,6.24,28,1.49,7.21-5.75,20.86-12.55,23-2.55.82-5.74-.57-8.64-.57-20.47,0-38.34-8.33-54.72-19.17-36.12-23.9-63.29-55.27-76.58-97.38C465,126,439,101.79,401.76,88c-21.26-7.85-43-11.52-65.38-12.53-23.78-1.08-46.81-6.08-69.85-11.81-16.71-4.15-34-5.83-51-8.83-5.59-1-11-3-16.6-3.87-2.15-.35-4.55,1.21-6.88,1.49-1.59.19-3.64.21-4.84-.62-19-13-40.82-14.1-62.67-15.75-4-.3-7.68-4.2-11.75-5.83-20.12-8-40.87-11.88-62.53-8.38C43.5,23,37.82,25.73,35.8,33.2c-.68,2.52-2.13,4.83-3.44,7.68-8.4-5.6-12-13.22-13.91-21.74-.19-.88,3.38-3.88,4.42-3.53,4.21,1.4,8.12,3.72,11.8,5.53A18,18,0,0,0,17,6.82c-4.6,0-6.62,3.2-5.54,6.71A90.66,90.66,0,0,0,19.8,33.16c3.19,5.36,8.05,9.72,12.39,14.77a23.65,23.65,0,0,1-2.94,3.44c-18.82,14.38-19.91,27.71-12.64,51,3.56,11.42,10.92,19.72,21.06,25.9,1.51.92,2.35,3.66,2.65,5.68a49.25,49.25,0,0,1,0,8.84c-.85,22.24.59,44.89-3.15,66.64-5.88,34.18-7.3,68.51-9.1,102.91-.06,1.14,0,2.28-.07,3.42C27.63,328,27.52,328,15.71,328.6c-4.38.23-10.63-1.7-11.36,5.36-.8,7.59,6.18,6.33,10.53,7.87,1.93.69,3.94,1.15,5.91,1.72l-.15,2.2C18.45,346,16.16,346,14.1,346.64Zm300.84-20.42c-4.84-.32-8.21-.93-11.5-.63-2.1.19-4.08,1.71-6.11,2.64,1.76,1.38,3.32,3.26,5.32,4,3.38,1.32,7,1.95,10.56,2.87-.15.87-.31,1.75-.47,2.63A61.5,61.5,0,0,0,305,337c-1.33,0-2.65,1-4,1.6.54,1.17,1,3.3,1.63,3.37,9.57,1.09,19.17,1.89,28.75,2.77,3-7.29,9.41-7.38,15.83-8,1.21-.11,3-2.3,3.2-3.72,2.2-14.81,4.17-29.66,6.13-44.51.67-5.09-1.51-7.56-6.86-7.64-5.89-.09-11.79-.64-17.67-1.17-4.47-.4-5.94,1.81-6.33,5.93-.65,6.77-1.63,13.52-2.63,20.25-.71,4.79-3.49,7.2-8.51,6.73s-10.23-.85-16-1.32C299.05,322.1,309.9,319.12,314.94,326.22Zm38.77,9.32c3.71,1.21,7.14,1.06,7.92-3.83,1.95-12.23,3.89-24.49,5.14-36.81.41-4-.73-8.6-6.23-9.6C358.24,302.24,356,318.7,353.71,335.54ZM127.5,20.69c1.29-3.72,2.77-6,2.66-8.16-.13-2.69-.86-6.45-2.69-7.62-1.6-1-5.59.22-7.61,1.71-3.14,2.33-5.49,5.71-8.18,8.65C124.47,7.78,125.51,8,127.5,20.69ZM29.76,35c5.63-7.22,3.85-11-7.52-14.18ZM112,24.64l.83,1.89c1.93.14,5.06,1.07,5.59.27,2.38-3.58,4-7.66,5.92-11.55l-2.67-1.63Z"/><path class="cls-10" d="M20.79,343.55c-2-.57-4-1-5.91-1.72-4.35-1.54-11.33-.28-10.53-7.87.73-7.06,7-5.13,11.36-5.36C27.52,328,27.63,328,28,315.74c0-1.14,0-2.28.07-3.42,1.8-34.4,3.22-68.73,9.1-102.91,3.74-21.75,2.3-44.4,3.15-66.64a49.25,49.25,0,0,0,0-8.84c-.3-2-1.14-4.76-2.65-5.68-10.14-6.18-17.5-14.48-21.06-25.9-7.27-23.27-6.18-36.6,12.64-51a23.65,23.65,0,0,0,2.94-3.44c-4.34-5-9.2-9.41-12.39-14.77a90.66,90.66,0,0,1-8.31-19.63C10.41,10,12.43,6.81,17,6.82A18,18,0,0,1,34.67,21.14C31,19.33,27.08,17,22.87,15.61c-1-.35-4.61,2.65-4.42,3.53C20.34,27.66,24,35.28,32.36,40.88c1.31-2.85,2.76-5.16,3.44-7.68,2-7.47,7.7-10.21,14.43-11.3,21.66-3.5,42.41.34,62.53,8.38,4.07,1.63,7.71,5.53,11.75,5.83,21.85,1.65,43.68,2.76,62.67,15.75,1.2.83,3.25.81,4.84.62,2.33-.28,4.73-1.84,6.88-1.49,5.59.92,11,2.89,16.6,3.87,17,3,34.32,4.68,51,8.83,23,5.73,46.07,10.73,69.85,11.81,22.39,1,44.12,4.68,65.38,12.53C439,101.79,465,126,477.09,164.2c13.29,42.11,40.46,73.48,76.58,97.38,16.38,10.84,34.25,19.13,54.72,19.17,2.9,0,6.09,1.39,8.64.57,6.8-2.18,14-15.83,12.55-23-1.93-9.35-4.38-18.6-6.24-28a211.19,211.19,0,0,1-3.25-21.52c-.53-5.6,2.86-8.14,8.35-8.47,9.74-.57,21.17,6.13,25.28,15.71,7.4,17.27,12,35,6,53.75-3,9.27-6.7,18.3-10.19,27.39-6.33,16.51-19.4,23.87-36,22.73C593.22,318.51,573,315,552.77,312c-3.48-.51-6.93-2.34-10-4.16C520.87,295,502.67,277.77,486.2,258.8c-17.12-19.72-36.8-35.11-62.11-42.67-14.2-4.24-26.49,3.34-26.81,18.06-.42,19.34.49,38.71.84,58.07.44,24.37,1.22,48.73,1.2,73.09,0,9.61-4.3,14-13.65,16.23-7.51,1.8-15.11,3.58-22.77,4.29a31.77,31.77,0,0,1-14.6-2.05c-2.53-1.05-4.29-5.28-5.09-8.41-.24-.94,3.83-3.18,6.12-4.49a26.09,26.09,0,0,1,5.05-1.71l-.22-2.08c-3.92-.47-8-.52-11.71-1.57-2-.56-3.44-2.86-5.14-4.38,1.9-.91,3.73-2.34,5.72-2.6,3.1-.42,6.3,0,9.46,0l.39-2.88c-4-.89-7.94-1.7-11.87-2.68-3.18-.8-5.46-1.1-4.14-6.27,1.16-4.52,3.07-5.14,6.51-5.4,4.53-.33,9.07-.74,13.62-.89s7.32-2.21,8.34-6.55c1.56-6.62,3.62-13.21,4.35-19.93a119.7,119.7,0,0,0,.41-23.71c-.29-3.13-3.21-7.08-6.06-8.72-10.38-6-22.11-6.07-33.72-5.81-19.82.43-39.62,1.15-59.44,1.55-47.57,1-95.15,1.61-142.72,2.86-9.23.25-18.44,2.44-27.57,4.2-1.66.32-4.22,3-4.12,4.4.78,10.65,1.5,21.38,3.42,31.86a177.26,177.26,0,0,1,1.42,53.76C100.5,381,96,384.92,90.17,385a113.21,113.21,0,0,0-16.57,1.31c-11.18,1.88-18.54-3.65-18.8-14.9,2.23-.1,4.47-.25,6.72-.28s4.46,0,6.68.07l.42-2.65c-3.44-.84-7-1.3-10.26-2.65-2.61-1.08-4.77-3.24-7.13-4.93,2.75-1,5.43-2.42,8.28-3,2.31-.48,4.81,0,7.22,0l.39-2.48c-3.51-1.15-7.24-1.9-10.47-3.59-2.48-1.31-4.34-3.82-6.48-5.79,2.54-.83,5.07-2.32,7.62-2.36,9-.14,12.35-3.19,12.09-12.41-.27-9.56-.77-19.12-1.24-28.67-.34-7-.8-14.07-1.21-21.11l-2.27-.2c-.43,1.83-1.29,3.68-1.22,5.49.59,14.56,1.43,29.11,2,43.67.31,7.65-1.09,8.59-8.33,9.14-3.75.29-9.45,1.26-10.53,3.62-1.33,2.94,1.19,7.65,2.29,12.69-3.59,3.44-2.44,8.09,2.68,12.91-2.38,1.38-4.32,3.5-6.09,3.37A246.94,246.94,0,0,1,18.28,369c-2.68-.5-4.79-4-7.17-6.18,2.18-1.51,4.38-3,6.53-4.55.31-.23.38-.79,1-2.21-1.81-.59-3.72-.83-5.18-1.76a44.59,44.59,0,0,1-5.22-4.53c1.94-1.08,3.78-2.47,5.85-3.14s4.35-.62,6.54-.89Zm53.6-223.63c1.79-.51,4.06-1.89,4.7-3.45a168.08,168.08,0,0,0,7.5-21.1c1.49-5.67-.73-10.51-5.76-14.19-2-1.44-2.74-4.43-4.17-6.63-1.06-1.64-2.15-4.36-3.5-4.53a164.51,164.51,0,0,0-18.84-1.11c-1.25,0-3.68,1.7-3.59,2.35.83,6-3.88,8-7.36,11.16C37.93,87.33,37.71,95,42.2,100.78a7.06,7.06,0,0,1,1.73,4c-.45,13.3,3.25,17.34,16.58,18.21C65.15,122,69.85,121.22,74.39,119.92ZM46.85,59.33c5.54-.15,10.9-4.53,10.48-8.59s-1.63-8.69-6.58-7.5c-3.86.94-11.34-.89-10,7.42C40.83,55.08,40.9,59.48,46.85,59.33Zm42-9.74c0-5.42-4.52-5.94-8.78-6.41-5.43-.6-8.08,2.26-7.29,7,.43,2.59,3.48,4.76,5.35,7.12C84.45,56.26,88.91,55.42,88.88,49.59Z"/><path class="cls-10" d="M298.58,311.31c.47,10.79,11.32,7.81,16.36,14.91-4.84-.32-8.21-.93-11.5-.63-2.1.19-4.08,1.71-6.11,2.64,1.76,1.38,3.32,3.26,5.32,4,3.38,1.32,7,1.95,10.56,2.87-.15.87-.31,1.75-.47,2.63A61.5,61.5,0,0,0,305,337c-1.33,0-2.65,1-4,1.6.54,1.17,1,3.3,1.63,3.37,9.57,1.09,19.17,1.89,28.75,2.77,3-7.29,9.41-7.38,15.83-8,1.21-.11,3-2.3,3.2-3.72,2.2-14.81,4.17-29.66,6.13-44.51.67-5.09-1.51-7.56-6.86-7.64-5.89-.09-11.79-.64-17.67-1.17-4.47-.4-5.94,1.81-6.33,5.93-.65,6.77-1.63,13.52-2.63,20.25-.71,4.79-3.49,7.2-8.51,6.73S304.33,311.78,298.58,311.31Z"/><g class="cls-11"><polygon class="cls-12" points="360.46 302.16 356.46 321.16 315.46 302.16 315.46 289.16 360.46 302.16"/></g><path class="cls-10" d="M111.68,15.27C124.47,7.78,125.51,8,127.5,20.69c1.29-3.72,2.77-6,2.66-8.16-.13-2.69-.86-6.45-2.69-7.62-1.6-1-5.59.22-7.61,1.71C116.72,9,114.37,12.33,111.68,15.27Z"/><path class="cls-13" d="M22.24,20.86,29.76,35C35.39,27.82,33.61,24.08,22.24,20.86Z"/><path class="cls-13" d="M121.63,13.62l-9.67,11,.83,1.89c1.93.14,5.06,1.07,5.59.27,2.38-3.58,4-7.66,5.92-11.55Z"/><path d="M43.93,104.76a7.06,7.06,0,0,0-1.73-4C37.71,95,37.93,87.33,43.37,82.42c3.48-3.14,8.19-5.11,7.36-11.16-.09-.65,2.34-2.36,3.59-2.35A164.51,164.51,0,0,1,73.16,70c1.35.17,2.44,2.89,3.5,4.53,1.43,2.2,2.22,5.19,4.17,6.63,5,3.68,7.25,8.52,5.76,14.19a168.08,168.08,0,0,1-7.5,21.1c-.64,1.56-2.91,2.94-4.7,3.45-4.54,1.3-9.24,2.07-13.88,3C47.18,122.1,43.48,118.06,43.93,104.76Zm33.33,6.61c2.14-6,.31-9.81-5.77-11.35-8.1-2-15.6.57-22.67,4-3.73,1.82-2.83,10.1,1.4,12.23,3.31,1.67,7.24,2.11,9.53,2.73C67.46,118.05,74.44,119.28,77.26,111.37ZM43.14,92.48c-1.25,4.07,1.17,6.75,6.4,5.48,9.26-2.24,18.52-4.13,27.91.24C83.36,101,83.81,96,83,92.55c-.78-3.14-3.3-6-5.58-8.46-.34-.38-3.84,1.6-5.42,3-5.2,4.67-15.83,1.38-20.53-8.62C48,84,44.53,87.93,43.14,92.48ZM66.29,74l-7.49,1.5,7.29,9.2,1.16-1.22C67,80.68,66.67,77.84,66.29,74Z"/><path d="M40.74,50.66c.09,4.42.16,8.82,6.11,8.67,5.54-.15,10.9-4.53,10.48-8.59s-1.63-8.69-6.58-7.5C46.89,44.18,39.41,42.35,40.74,50.66Z"/><path d="M78.16,57.33c6.29-1.07,10.75-1.91,10.72-7.74,0-5.42-4.52-5.94-8.78-6.41-5.43-.6-8.08,2.26-7.29,7C73.24,52.8,76.29,55,78.16,57.33Z"/><path class="cls-13" d="M59.75,119c7.71-1,14.69.28,17.51-7.63,2.14-6,.31-9.81-5.77-11.35-8.1-2-15.6.57-22.67,4-3.73,1.82-2.83,10.1,1.4,12.23C53.53,117.94,57.46,118.38,59.75,119Z"/><path class="cls-13" d="M51.42,78.48c-3.41,5.55-6.89,9.45-8.28,14-1.25,4.07,1.17,6.75,6.4,5.48,9.26-2.24,18.52-4.13,27.91.24C83.36,101,83.81,96,83,92.55c-.78-3.14-3.3-6-5.58-8.46-.34-.38-3.84,1.6-5.42,3C66.75,91.77,56.12,88.48,51.42,78.48Z"/><path class="cls-5" d="M67.25,83.52c-.29-2.84-.58-5.68-1-9.48l-7.49,1.5,7.29,9.2Z"/><path class="cls-5" d="M54.1,51.22c.07-5-2.17-5-4.93-5.06s-6.41-.8-6.5,5.62,3.61,4.33,6.37,4.37S54,56.21,54.1,51.22Z"/><path class="cls-5" d="M86.6,49.16c0-2.76-3.26-4-6-4s-5-.78-5,2.78,2.14,7.17,4.9,7.21S86.56,51.92,86.6,49.16Z"/><ellipse cx="49.1" cy="51.15" rx="6.42" ry="2.14" transform="translate(-2.71 99.56) rotate(-89.22)"/><ellipse cx="80.52" cy="50.15" rx="6.42" ry="2.14" transform="translate(29.28 129.98) rotate(-89.22)"/><g class="cls-14"><path class="cls-15" d="M605.75,212.86c2.74,5.1-5.11,196.5-5.11,196.5l-31.15-6-8.21-183.76Z"/><path class="cls-13" d="M491.11,43.31c2.52,3.07,44.39-10.42,44.39-10.42l-21,323.26L481.59,354Z"/><polygon class="cls-12" points="434.87 -30.65 392.56 -8.6 412.6 312.35 455.15 286.66 446.3 -37.12 434.87 -30.65"/><path class="cls-16" d="M345.4,4.69c-3.82,8.28,3.31,282.51-2.5,280.64s-51.37-7.92-51.37-7.92L309,9.09Z"/><path class="cls-12" d="M280.36-41c-4.86,3.08-32.55,380.22-32.55,380.22L206.8,317,221.68-57.37Z"/><path class="cls-15" d="M182.75-69.9C177.76-62.14,171.2,302,166.82,303s-28.58-25.65-28.58-25.65l-3.77-396.23Z"/><polygon class="cls-17" points="702.14 275.15 610.1 231.29 609.84 260.71 672.78 301.4 702.14 275.15"/><polygon class="cls-15" points="367.2 309.87 443.42 322.75 466.24 289.74 362.87 279.73 367.2 309.87"/><polygon class="cls-13" points="371.29 316.16 452.2 356.35 446.95 399.79 356.71 337.18 371.29 316.16"/><path class="cls-12" d="M56.1,340.1,69,344.78V334.53l-43-25L25.24,325,7.58,326.46c14,6.56,32.07,14,44.94,19.12Z"/><polygon class="cls-15" points="69.02 291.23 28.09 274.04 26.96 291.27 69.02 315.98 69.02 291.23"/><polygon class="cls-15" points="67.71 315.98 69.02 344.78 65.68 344.2 130.49 375.42 161.83 354.06 67.71 315.98"/><polygon class="cls-13" points="66.75 294.79 67.52 311.82 175.25 318.81 157.13 282.24 67.16 288.38 66.75 294.79"/></g><path d="M314.52,281q-65.24,1.13-130.46,2.32c-22.09.44-44.18.95-66.24,1.88-16.55.71-18.67,3.68-16.32,19.83,3.38,23.22,6.63,46.41,3.82,70-1,8.67-6.63,14-15.3,13.69a47.8,47.8,0,0,0-12,1.13c-9.39,2.05-18.49.82-24.37-6.63-4.49-5.7-9.5-6.62-15.65-7.32-7.87-.88-15.84-1.75-23.38-4-2.75-.8-4.83-5.2-6.41-8.36s-2-6.56-2.87-9.89c-.4-1.53-1.49-3.56-.9-4.55,2.4-4-.6-5.91-2.42-8.63a9.75,9.75,0,0,1,6.77-15.39,67.54,67.54,0,0,1,8.18-.52c4.39-.14,7.14-1.35,7.1-6.72-.06-8.61.49-17.24,1-25.85q2.45-38.16,5.11-76.29a16.83,16.83,0,0,1,.86-3.94c1.32-4.12,3.39-8.12,3.93-12.33a191.23,191.23,0,0,0,1.16-21.15c.22-14,.37-28.06.12-42.08a9.45,9.45,0,0,0-3.66-6.63c-16.79-11.3-21.89-28.15-23.44-47-.92-11.2,3.42-19.83,11.1-27.44,7.46-7.38,7.54-7.69-.33-15.47C13.06,32.79,8.74,24.93,7.93,15.13,7.35,8.2,10.71,2.56,16.16,3.58,24.43,5.13,33.4,6.15,37.52,15.86c.91,2.15,4.81,4.69,6.95,4.39,18.43-2.58,36.76-5.48,54.77,2.19a32.51,32.51,0,0,0,5.05,1.3l-1.16-1.64C108.64,15.67,113.69,8.75,119.8,3c5.35-5.08,12.39-2.3,13.48,5a26.77,26.77,0,0,1-1,11.12c-1.4,4.7-3.76,9.11-5.85,14,1.65.16,2.76.21,3.84.39,15.42,2.45,31.47,1.59,46,9a57,57,0,0,0,13.11,5.14c6.81,1.54,13.85,2,20.76,3.21,5.15.86,10.23,2.23,15.38,3.1,14.35,2.43,29,3.56,43,7.32,23.66,6.35,47.48,11,71.94,11.93a196.57,196.57,0,0,1,75.24,17.79c29.13,13.32,50,34,61.71,64.19,6.39,16.51,12.88,33.23,21.72,48.47,13.58,23.43,34,41,56.28,55.94,17,11.34,35.53,19.64,56.76,19,2.16-.06,4.9-.12,6.34-1.37,5.77-5,9.36-11.32,8-19.28-1.08-6.5-2.76-12.9-4.09-19.36-1.89-9.13-4.12-18.21-5.45-27.42s3.32-13.86,12.54-13.53c7.69.27,14.64,2.56,20.38,8.23,10.61,10.49,13.21,24.51,15,38,3.08,23.55-5.47,44.86-17.48,64.66-4.66,7.68-12.28,11.79-21.17,13.68C607.79,326,590,320.66,572,319.17c-20.88-1.72-38.13-10.09-52.88-24.24-16.75-16.07-33.38-32.28-49.66-48.83-13.39-13.6-29.92-21.33-47.7-26.68C411,216.2,401.51,222.9,401.19,234c-.48,16.61-.18,33.26.13,49.88.49,27.1,1.35,54.19,1.86,81.28.17,8.72-3.36,16.41-12,18.49-12,2.88-24.53,5.34-36.81,5.29-12.62-.06-16.43-6.63-15.49-18.82-2.19-3.34-4.79-7.06-4.56-10.59.46-6.85-1.65-10-8.27-10.31a164.79,164.79,0,0,1-20.31-2.3c-5-.88-9-3.47-8.5-9.62.06-.83,0-2.06-.52-2.49-6.48-5.41-2.91-9.74.28-12.42l-1.9-11.82c3.75-.58,7.48-1.4,11.25-1.68,2.91-.21,5.94.69,8.8.28,1.65-.24,4.16-1.88,4.41-3.24,1.48-7.95,2.4-16,3.62-24.86C319.05,281,316.78,280.94,314.52,281ZM14.31,347c-2.07.67-3.91,2.06-5.85,3.14a43.67,43.67,0,0,0,5.23,4.52c1.46.94,3.36,1.18,5.17,1.77-.63,1.41-.69,2-1,2.21-2.14,1.56-4.34,3-6.52,4.55,2.37,2.15,4.48,5.68,7.17,6.18a247,247,0,0,0,27.7,3.25c1.78.13,3.71-2,6.1-3.37-5.13-4.82-6.27-9.47-2.68-12.91-1.1-5-3.63-9.75-2.29-12.69,1.08-2.36,6.78-3.34,10.52-3.62,7.25-.55,8.65-1.49,8.33-9.14-.6-14.56-1.44-29.11-2-43.67-.08-1.81.79-3.66,1.22-5.49l2.27.2c.4,7,.86,14.07,1.21,21.11.47,9.55,1,19.11,1.24,28.67C70.36,340.92,67,344,58,344.12c-2.56,0-5.09,1.53-7.62,2.36,2.13,2,4,4.48,6.48,5.79,3.23,1.69,7,2.44,10.46,3.59L67,358.34c-2.42,0-4.92-.48-7.23,0-2.84.6-5.52,2-8.27,3,2.36,1.69,4.52,3.84,7.12,4.93,3.23,1.35,6.83,1.81,10.26,2.65l-.41,2.65c-2.23,0-4.46-.11-6.68-.07s-4.5.18-6.73.28c.26,11.25,7.63,16.77,18.81,14.9a113.07,113.07,0,0,1,16.56-1.31c5.87-.11,10.34-4.06,11.15-10.65A177.26,177.26,0,0,0,100.1,321c-1.91-10.49-2.64-21.21-3.41-31.86-.11-1.42,2.45-4.08,4.12-4.4,9.13-1.76,18.34-4,27.57-4.2,47.57-1.25,95.15-1.9,142.72-2.86,19.81-.4,39.62-1.12,59.43-1.56,11.61-.25,23.34-.19,33.73,5.82,2.84,1.64,5.77,5.59,6.05,8.72a119.7,119.7,0,0,1-.4,23.71c-.74,6.72-2.79,13.31-4.35,19.93-1,4.34-3.88,6.4-8.35,6.55s-9.08.55-13.62.89c-3.43.25-5.35.88-6.5,5.4-1.33,5.17,1,5.47,4.13,6.27,3.94,1,7.92,1.79,11.88,2.68l-.39,2.87c-3.16,0-6.37-.42-9.47,0-2,.26-3.82,1.69-5.72,2.6,1.7,1.52,3.18,3.82,5.14,4.38,3.76,1.05,7.79,1.1,11.71,1.57l.22,2.08a26.23,26.23,0,0,0-5,1.71c-2.29,1.31-6.37,3.55-6.13,4.49.8,3.13,2.56,7.36,5.1,8.41a31.73,31.73,0,0,0,14.59,2.05c7.66-.71,15.26-2.5,22.78-4.29,9.35-2.24,13.64-6.62,13.65-16.23,0-24.36-.76-48.73-1.2-73.09-.36-19.36-1.26-38.73-.84-58.07.32-14.72,12.61-22.3,26.8-18.06,25.32,7.56,45,22.95,62.11,42.67,16.47,19,34.67,36.23,56.54,49.08,3.11,1.82,6.55,3.65,10,4.16,20.23,2.94,40.45,6.47,60.81,7.87,16.56,1.14,29.64-6.22,36-22.73,3.48-9.09,7.23-18.12,10.18-27.39,6-18.71,1.38-36.48-6-53.75-4.11-9.58-15.53-16.28-25.27-15.71-5.5.32-8.88,2.87-8.36,8.47a211.64,211.64,0,0,0,3.26,21.52c1.86,9.36,4.3,18.61,6.23,27.95,1.49,7.21-5.74,20.87-12.54,23.05-2.55.82-5.74-.57-8.64-.57-20.47,0-38.34-8.33-54.73-19.17-36.11-23.9-63.28-55.27-76.58-97.38-12.07-38.25-38.06-62.41-75.32-76.17-21.27-7.86-43-11.52-65.38-12.54-23.78-1.07-46.81-6.07-69.86-11.8-16.71-4.15-34-5.83-51-8.83-5.59-1-11-2.95-16.61-3.87-2.15-.35-4.55,1.21-6.88,1.49-1.59.19-3.63.21-4.84-.62-19-13-40.82-14.1-62.67-15.75-4-.31-7.68-4.2-11.74-5.83-20.12-8-40.88-11.88-62.54-8.38C43.72,23.35,38,26.09,36,33.56c-.68,2.52-2.14,4.83-3.44,7.68-8.4-5.6-12-13.22-13.91-21.74-.2-.89,3.37-3.88,4.41-3.53,4.22,1.4,8.13,3.72,11.8,5.53A18,18,0,0,0,17.25,7.18c-4.61,0-6.63,3.2-5.54,6.7A90.5,90.5,0,0,0,20,33.52c3.2,5.36,8.06,9.72,12.4,14.77a24.29,24.29,0,0,1-2.94,3.44c-18.82,14.38-19.92,27.71-12.65,51,3.57,11.42,10.92,19.72,21.07,25.9,1.51.92,2.35,3.66,2.64,5.68a49.25,49.25,0,0,1,0,8.84c-.86,22.24.58,44.89-3.15,66.64-5.88,34.18-7.31,68.5-9.11,102.91-.06,1.14,0,2.28-.06,3.42-.36,12.27-.48,12.24-12.29,12.86-4.38.23-10.62-1.7-11.36,5.36-.79,7.59,6.19,6.33,10.53,7.87,1.93.69,3.94,1.15,5.92,1.72l-.15,2.2C18.67,346.38,16.37,346.33,14.31,347Zm300.85-20.42c-4.84-.32-8.22-.93-11.51-.63-2.1.18-4.07,1.71-6.1,2.64,1.75,1.38,3.32,3.25,5.31,4,3.38,1.32,7,1.95,10.57,2.87-.16.87-.32,1.75-.47,2.63a61.69,61.69,0,0,0-7.74-.78c-1.34,0-2.65,1-4,1.6.54,1.17,1,3.3,1.63,3.37,9.56,1.09,19.16,1.89,28.75,2.77,3-7.29,9.41-7.39,15.82-8,1.21-.11,3-2.3,3.2-3.72,2.21-14.81,4.18-29.66,6.13-44.51.68-5.09-1.5-7.57-6.85-7.64-5.9-.09-11.79-.64-17.67-1.17-4.48-.4-5.94,1.81-6.34,5.93-.64,6.77-1.62,13.52-2.63,20.25-.71,4.78-3.48,7.2-8.51,6.73s-10.23-.85-16-1.32C299.27,322.45,310.12,319.48,315.16,326.58Zm38.77,9.32c3.71,1.21,7.14,1.06,7.92-3.83,1.94-12.24,3.88-24.49,5.14-36.81.4-4-.73-8.6-6.23-9.6C358.45,302.59,356.22,319.06,353.93,335.9ZM127.72,21.05c1.29-3.72,2.76-6,2.66-8.16-.14-2.69-.86-6.45-2.69-7.62-1.6-1-5.6.22-7.61,1.71-3.14,2.32-5.5,5.71-8.19,8.65C124.68,8.14,125.72,8.34,127.72,21.05ZM30,35.4c5.63-7.23,3.85-11-7.51-14.18ZM112.17,25l.83,1.89c1.94.14,5.07,1.07,5.59.27,2.38-3.58,4-7.66,5.93-11.56L121.85,14Z"/></g></svg>