<?xml version="1.0" encoding="utf-8"?>
<!-- Generator: Adobe Illustrator 26.0.1, SVG Export Plug-In . SVG Version: 6.00 Build 0)  -->
<svg version="1.1" id="Layer_1" xmlns="http://www.w3.org/2000/svg" xmlns:xlink="http://www.w3.org/1999/xlink" x="0px" y="0px"
	 viewBox="0 0 484.1 309.8" style="enable-background:new 0 0 484.1 309.8;" xml:space="preserve">
<style type="text/css">
	.st0{clip-path:url(#SVGID_00000171691807886118144040000000661677922978324636_);}
	.st1{clip-path:url(#SVGID_00000154394026901280384480000008012719179083660928_);}
	.st2{opacity:0.61;}
	.st3{fill:#FFFFFF;}
	.st4{fill:#E06124;}
	.st5{fill:#A2D9D7;}
	.st6{fill:#8B2AB1;}
	.st7{fill:#82A637;}
	.st8{clip-path:url(#SVGID_00000050634219494580298710000008727452789090739615_);}
	.st9{clip-path:url(#SVGID_00000162342035732545616520000012703402862996177804_);}
	.st10{clip-path:url(#SVGID_00000009582359687648574770000002640613900831571873_);}
	.st11{fill:#FFE882;}
</style>
<g id="Layer_4">
	<g>
		<defs>
			<rect id="SVGID_1_" x="-4769.4" y="957.6" width="2248" height="2508"/>
		</defs>
		<clipPath id="SVGID_00000146478321374012107520000003708300940533202318_">
			<use xlink:href="#SVGID_1_"  style="overflow:visible;"/>
		</clipPath>
		<g style="clip-path:url(#SVGID_00000146478321374012107520000003708300940533202318_);">
			<g>
				<defs>
					<path id="SVGID_00000099652620708486583860000007904786869174022278_" d="M1951,2975.2c-38.6-56.8-34.9-129.3,2.9-187.7
						c46-71.1,135.8-120.1,182.8-190.9c45-67.9,44.9-151.3,7.7-220.8s-109.2-125.2-194-159.8c-51.2-20.9-108.8-35.5-148.7-68.2
						c-48.6-39.8-62.7-99.8-108.7-141.5c-55.9-50.7-148.3-65.3-234.2-65.8s-173.1,9.9-257.1-2.9c-95.8-14.6-179-58.2-268.1-89
						s-196.1-48.2-282.7-10.7c-134.2,58.1-149.2,212.4-268,288.9c-60.3,38.9-140.6,52.9-203.3,89.4
						c-68.9,40.1-110.7,105.4-121.5,172s7.3,134.2,40.6,195.2c32.8,60.2,80.4,115.1,105.4,177.7c19.1,47.7,24.3,97.3,23.9,147.7
						c29.2,10,55.5,24,76.6,43.1c46,41.7,60.1,101.7,108.7,141.5c40,32.8,97.5,47.3,148.7,68.2c84.8,34.6,156.8,90.3,194,159.8
						c19.8,37,29,77.9,26.6,118.4c27.4,10.2,53.7,23.5,81,34.1c143.5,56,332.2,32.2,450.2-56.7c34.4-25.9,63-56.6,99.5-80.8
						s84.2-41.8,130.2-34.4c40.1,6.5,71,30.4,99.6,53.3l146,117c44.3,35.4,124.7,60.3,121.4,110.6
						c88.8-57.9,167.7-128.8,208.4-213.6s38.2-185-25.3-258.7C2051.5,3061.9,1986.3,3027.1,1951,2975.2z"/>
				</defs>
				<clipPath id="SVGID_00000164493782811226010800000015173441148022440637_">
					<use xlink:href="#SVGID_00000099652620708486583860000007904786869174022278_"  style="overflow:visible;"/>
				</clipPath>
				<g style="clip-path:url(#SVGID_00000164493782811226010800000015173441148022440637_);">
					<g class="st2">
						<path class="st3" d="M362.5-113.5c-12.9-42.3-31.1-79.2-51.6-104.6c-36.9-45.8-56.7-30.2-87.7-17.7
							c-44.9,18.1-24.9,76.5-87.7-2.6c-5.3-8.3-16-8.8-20.6-5c-3.8,3.2-1.2,12.6,0.7,20.2c0.5,2.2,1.1,4.5,1.7,6.7
							c0.1,0.3,0,0.6,0.1,0.9l185.7,751.1c-29.7-17.6-65.6-6.7-92.2,33.2c-36.9,55.3-41.8,145-10.7,200.4s86.1,55.5,123.1,0.2
							c30.8-46.1,34.2-115.5,20.6-169.8l-163.7-662c40,5.6,22.5,6.5,44.9-19.7c17.8-20.9,33-56.5,57.1-58.7
							c35.4-3.2,30.6,45,54.7,101.9c8,18.9,18.4,35.5,28.3,40.8C399,19.6,374.5-74.3,362.5-113.5z"/>
						<path class="st3" d="M40.3,302.4c37.4-2.2,71.7-50.7,72.7-90.5S95.6,134.3,79.6,97.1C67.1,68.6,56.4,39.4,47.3,9.6
							c-26.5-89-32.6-182.4-66.9-269.3c-1.4-3.5-3.2-7.4-7.2-8.8c-5.3-1.9-10.9,1.8-14.9,5.5c-35.8,33.1-45.5,82.3-40.5,127.6
							S-59.2-46.9-46.9-2.7c24.2,86.8,27.3,177,47.5,264.6c2.2,9.5,4.8,19.3,11.8,26.7S19.2,300.7,40.3,302.4"/>
						<path class="st3" d="M446.5,625.8c37.4-2.2,71.7-50.7,72.7-90.5s-17.4-77.6-33.4-114.8c-12.4-28.5-23.2-57.7-32.2-87.5
							c-26.5-89-32.6-182.4-66.9-269.3c-1.4-3.5-3.2-7.4-7.2-8.8c-5.3-1.9-10.9,1.8-14.9,5.5c-35.8,33.1-45.5,82.3-40.5,127.6
							s22.9,88.6,35.2,132.8c24.2,86.8,27.3,177,47.5,264.6c2.2,9.5,4.8,19.3,11.8,26.7S425.4,624.1,446.5,625.8"/>
						<path class="st3" d="M871.6,1534.1c5.9,16.4,15.3,31.4,27.4,43.9c-23.2-2.6-46.6-1.7-69.5,2.6c-61.7,12-115.2,44.2-167.1,75.6
							c0.2-33.6,15-65.7,20.2-98.9c5-33.2-2.9-72.1-35.7-89.9c-15.3-8.2-33.6-10.5-51.5-11.5c-58-3.3-116,5.3-170.5,25.4
							c20-33.8,31.6-71.8,34-111c0.9-14.6-0.1-30.2-9.3-42.7c-11.5-15.8-33.8-22.8-55-26.5c-71.1-12.8-147.5-1-209.2,32.3
							c8.5-31.2,34.2-56,52.4-83.7c18.2-27.8,28.2-64.9,5.4-90c-24.6-27.4-72.7-25.1-111.3-16.2c-45.3,10.6-89,27.1-130.1,49
							c25.7-37.2,52.1-76.1,55.7-119.5c3.5-43.2-23.4-91.9-72-102c-22.8-4.9-47.1-0.6-69.9,4.4c-56.1,12.3-110.9,29.8-163.7,52.3
							c44.2-43.3,73.7-98.1,83.7-155.4c2.7-14.9,3.8-31.2-5.1-44.3c-15.6-23.2-53.1-24.9-83.6-20.7c-74.3,10.1-145,38.9-201.4,82
							c9.7-55,93.7-84.3,97.5-139.7c3-46.5-57.1-80.5-110.3-76.9s-98.9,32.9-141.3,61c24.1-39.9,40.3-84.1,47.8-130.1
							c3.8-24.1,4.9-49.9-8.4-71.3c-19.6-32-66.3-45.1-107.7-40.6s-78.7,23.2-114.7,41.3c27-33.7,43.1-73.8,46.2-114.8
							c1.4-18.4-0.7-39.1-16-52c-18.6-15.8-48.5-13.8-73.9-8.8c-57.6,11.4-112.6,32.8-160.8,62.3c39.4-46.4,48.9-110.9,24.3-164.6
							c-24.8-53.6-82.7-94.7-148.1-104.6c79.2-14.5,159.2-24.6,239.5-30.2c15.3-1.1,35,1.4,45.1,9.6c29.4-14.2,58.8-28.4,88.2-42.6
							c-26.8,41.5-53.9,91.1-31.8,134.6c20.3,39.5,76.2,57.2,125.5,52.4s93.6-27.4,136.3-49.4c-35.2,19.5-62.5,51.1-69.8,87
							s7.2,75.3,39.7,98.1c59.9,41.8,147.5,16.4,217.6-10.6c-33.2,45.3-57.8,106.7-22,150.5c21.8,27.1,62,39.4,99.8,39.4
							c38,0,74.8-10.4,110.9-20.8c-51.4,34.4-49.3,110-2.9,149.5s123.1,43.4,181.3,18.4c-9.5,27.3-19,55.8-13,83.8
							c9.2,43.6,55.1,75.8,104.4,86.8c49.2,11,101.3,4.2,150.9-5.4c-38,43.8-67.1,105.1-34.3,152.1c22.8,32.6,70,47.5,113.8,46.2
							s85.6-16,126.2-30.4c-12.5,30.6-25.1,62.3-23.4,94.7s21.2,66.6,55.9,78.4c62,20.8,126.7-36.1,192.7-29.2
							c-42.9,48.1-39.4,122.8,7.6,167.7c47,45,132.2,54.8,191,22.1C871,1436.6,855.9,1489,871.6,1534.1z"/>
					</g>
				</g>
			</g>
		</g>
	</g>
</g>
<g id="Layer_8">
	<path d="M432.3,309.7c-0.4-19.7-0.7-38.7-1.1-58.6c-6.8-0.3-12.5-0.8-18.2-0.8c-6.1,0.1-8.5-3.5-8.7-8.7
		c-0.5-11.1-0.5-22.3-0.7-33.5c-0.1-1.6,0.1-3.3,0.5-4.8c2.2-6.6-2-8.3-6.9-9.5c-2.3-0.5-4.6-0.8-7-0.9c-7.4-0.5-14.7-1.1-22.1-1.4
		c-10.6-0.3-21.3-0.4-31.9-0.4c-16.1,0-32.2,0.1-48.3,0.1c-27.7,0-55.4,0.5-83-0.3c-25.1-0.7-50.2-2.8-75.3-4.4
		c-10.1-0.7-20.2-2.1-30.3-2.7c-8-0.5-8.5,0.3-8.6,8.5c-0.1,8.7,0.2,17.4-0.1,26.1c-0.4,10.9-3.8,14.4-14.6,15.6
		c-9.1,1-18.3,2.1-28.5,3.3c0.2,10.7,0.5,21.8,0.7,33c0.1,4.7,0.5,9.3,0.5,14c0,2.9-1.1,4.6-4.7,4.3c-7-0.6-14.1-0.7-21.5-1.1
		c-0.2-7.1-0.4-13.1-0.5-19.2c-0.5-15.1-1-30.2-3.4-45.2c-1.7-11,0.4-22.6,0.3-33.9c-0.1-7.4-0.6-14.7-1.5-22
		c-2.6-20.6-5.6-41.1-8.2-61.7C8.2,95.1,7.3,84.3,6.2,73.5C5.7,67.3,5.5,61,4.6,54.9C3.8,49.5,2,44.2,0.9,38.8
		C-2.2,25.2,3,15.1,14.4,7.9c1.8-1.2,4.1-2.1,5.3-3.8c4.1-5.6,8.5-4,13.1-1.2C43.3,9.2,47.5,19,48,30.7c1,27.5,1.8,55.1,2.9,82.6
		c0.2,6.1,1.3,12.2,2,18.1c0.6,0.4,1,0.7,1.2,0.6c10.8-1.9,11.1-1.6,12,9.4c0.4,5.2,0.9,10.4,1.5,16.3l8.8-1.4
		c-0.8-1.2-1.6-2.4-2.5-3.5c-9-10-9.4-21.9-7.1-34c1.6-8,6.3-11,14.5-10.9c3.8,0,7.6,0.3,11.4,0.6c2.8,0.2,4-0.8,3.8-3.7
		c0-2.2,0.2-4.3,0.7-6.4c0.7-4.6,4.8-8,9.5-7.9c5.5,0.2,9.1,3.2,9.9,8.2c0.4,2.5,0.6,5,0.8,6.6c8.6-0.9,16.7-2.1,24.9-2.4
		c6.5-0.3,9.2,2.3,10,8.9c1.5,12.2-1.2,23.7-7,34.4c-0.3,0.6-0.6,1.2-1.3,2.6l15.5-0.6c-0.5-8.3-1-16.3-1.6-25.1c4,0,8,0.3,12,0.7
		c1,0.2,2.3,2.1,2.6,3.4c1.3,6.4,2.2,12.8,3.4,20l13.5-0.7c-7.9-5.8-9.2-14.1-11.1-21.8c-3-12.1,9.2-24.4,21.4-22.3
		c3.7,0.7,7.4,1.5,11.2,2c3,0.4,4.6-0.7,4.8-4.2c0.2-3.8,0.9-7.5,1.9-11.2c1.2-4.6,4.6-6.9,9.3-6.6c4.5,0.3,8.1,2.1,9.1,7
		c0.8,4,1.4,8.1,2.2,12.5c4-0.9,7.9-2.1,11.9-2.6c9.2-1.2,13.3,1.8,16,10.5c2.4,7.6,2,15.9-1.1,23.3c-1,2.5-2,5-3.3,8.2l10-0.8
		l1-22.4c6,1,11.4,1.7,16.8,2.9c0.6,0.1,1.3,2.4,1.2,3.7c-0.4,5-1.1,10-1.8,15.2l16.2,0.7c-3.2-5.1-6.6-9.6-9-14.4
		c-3.9-7.9-2.8-15.2,4.1-19.8c3.9-2.5,9.4-3.3,14.2-3.5c7.3-0.3,14.7,0.5,22.2,0.8c0.1-2.8,0.2-6.3,0.5-9.8c0.3-4.3,1.9-7.8,6.7-8.7
		c5.2-0.9,9.5,1,11.7,5.8c1.9,4.2,2.8,8.8,4.1,12.9c6.8-0.9,13.3-1.9,19.9-2.6c1.5-0.2,3,0.3,4.2,1.2c7.4,8.1,8.2,19.3,2.3,28.5
		c-2.9,4.6-5.6,9.2-9,14.8l24.7,1.1c0-7.1,0-14.6,0-22.2c6.3,0.3,12,0.4,17.7,1c1.5,0.5,2.7,1.7,3.1,3.3c0.2,5,0.1,10.1-0.5,15.1
		c-0.5,4.3-0.9,7.6,5,7.3c2.3-0.1,4.6,0.7,7.8,1.2c0-9.1-0.1-17.8-0.1-26.4c0.1-19,0.3-38,0.3-57c0-7.5-0.1-15-0.2-22.4
		c0.1-1.1-0.2-2.1-0.7-3.1c-10.3-12.2-1.1-30.1,10.4-36.2c1.8-0.8,3.4-2,4.8-3.4c5.3-6,11.4-4.6,17.2-1.6c10.8,5.7,15,15.7,16.8,27
		c2.3,14.4-0.2,28.6-1.9,43c-3.2,26.9-9.1,53.5-7.5,81c0.4,7.1-1.8,14.3-2.4,21.5c-0.4,5.2,0.1,10.4-0.3,15.6
		c-0.4,5.6-1.4,11.1-1.9,16.6c-0.5,3.7-0.7,7.5-0.8,11.3c0.4,11-0.7,22-3.4,32.7c-2,7.5-0.4,16.1,0.2,24.2c0.8,10.5,2.2,20.8,3,31.3
		c0.1,1-1.7,2.1-2.6,3.1c-0.1,0.1-0.4,0-0.5,0C453.8,309.1,442.5,305.4,432.3,309.7z M469.2,164.7c-17-3.3-33.9-6.8-50.7-9.9
		c-9.1-1.7-18.2-3.3-27.4-4.3c-9.5-1-19-1.2-28.5-1.7c-6.3-0.4-12.6-0.9-19-1.2c-23.6-1.1-47.1-3-70.7-3c-17.2,0-34.5,2.5-51.7,3.7
		c-19.6,1.4-39.3,2.5-58.9,3.7c-7.6,0.5-15.1,0.8-22.7,1.2c-13.1,0.8-26.3,1-39.3,2.7c-11.2,1.4-22,5.3-33.1,6.9
		c-12.2,1.8-24.7,2.1-37,3.1c-10.9,0.9-12.3,2.9-8.6,13.2c0.5,1.4,2.2,3.1,3.5,3.2c8.6,0.5,17.2,1,25.9,0.7
		c5.7-0.2,11.4-2.1,17.2-2.4c8.5-0.4,16.8-3,25.6,0.4c4.4,1.7,10,0.1,15.1,0.4c24.9,1.7,49.8,4.4,74.7,5.3
		c42.3,1.5,84.7,1.9,127,2.7c8,0.1,15.9-0.5,23.9-0.6c11.2-0.2,22.4-0.7,33.6,0c12.5,0.8,24.9,2.7,37.4,4.1c0.5,0,1.1-0.2,1.6-0.2
		c8.7,0.3,17.4,0,26,1c10.9,1.2,21.9,0.6,32.6-1.9C466.6,182.5,467.8,174.5,469.2,164.7z M114.5,110.9c-0.4-4.3-0.4-7.9-1.1-11.4
		c-0.8-4-3.8-6.9-7.6-6.3c-2.2,0.3-4.5,3.6-5.7,6c-1,2.1-0.7,5-0.3,7.4c0.7,4.3-0.2,6.1-5,5.2c-5.2-0.8-10.4-1.2-15.7-1.2
		c-5.5-0.2-9.7,2.8-9.8,8.1c-0.1,8.4,0.1,17,2.1,25.1c2.1,8.4,9.1,11.4,17.7,10.3c15.2-1.9,30.5-3.9,45.8-5.1c5-0.4,7.4-2.4,9.6-6.4
		c4.6-8.6,5.6-17.9,5.4-27.3c-0.1-4-0.9-8.6-5.9-9.1c-5.4-0.5-10.8-0.3-16.1,0.5C123.5,107.4,119.3,109.3,114.5,110.9z M438.6,64.5
		c-0.4,8.2-1,16.1-1,24c-0.1,19.9,0.1,39.8,0.1,59.7c0,3.8,1,6.3,5.5,7.1c6,1.1,11.8,3.3,17.8,4.8c3,0.8,6.2,1.1,9.3,1.6
		c0.4-9,0.7-17.1,1.2-25.1c0.4-7.4,0.8-14.8,1.5-22.1c1.4-14,3-28,4.5-42c0.5-4.4-0.8-6.5-5.8-6.6c-9.6-0.2-19.1-1.1-28.7-1.6
		C441.5,64.3,440.1,64.4,438.6,64.5z M218,107.7c-6.5-0.9-13.4-1.6-20.1-2.9c-5-1-8.7,0.1-12,4.1c-5.9,7.1-5.6,14.4-2.5,22.8
		c3.6,9.6,8.6,14.7,18.4,14.2c17.3-0.9,34.6-2.2,51.9-3.8c2.6-0.4,4.9-1.8,6.3-3.9c5.2-8.6,6.1-18,3.2-27.7c-1.7-5.8-5.1-8.5-11.2-8
		c-4.1,0.3-8.1,1.7-12.1,2.6c-1.6,0.4-3.2,1.2-4.9,1.8c-0.8-6-1-11.4-2.5-16.5c-0.6-2.2-3.8-4.9-5.9-5s-5.2,2.7-5.8,4.9
		C219.3,95.3,219,100.6,218,107.7z M49,161.7c0.4-9.1,1.3-17.2,1.1-25.2c-0.7-20.6-1.8-41.1-2.9-61.7c-0.3-2.4-0.8-4.9-1.5-7.2
		L9.2,65.9c0.9,11.9,1.3,22.6,2.5,33.1c2.1,18.3,4.6,36.6,7.1,54.8c0.1,2,0.7,3.9,1.5,5.7c0.8,1.4,2.6,3.2,4,3.2
		C32.8,162.7,41.2,162.1,49,161.7z M356.5,108.1c-1.4-5.1-2.3-10.7-4.7-15.6c-1-2.1-5.1-3.7-7.9-3.7c-1.3,0-3.5,4.2-3.7,6.6
		c-0.3,4,0.7,8.1,1.2,12.8c-1.6,0.2-3.1,0.2-4.7,0.2c-8.4-1-16.9-2.2-25.3-3c-8-0.7-14.6,4.6-15,11.7c-0.5,9.4,11,23.4,20.5,24.4
		c13.7,1.4,27.5,1.6,41,3.8c12.6,2.1,19.5-2.6,25.1-13.4c4.4-8.6,4.7-15.9,0-24c-1.5-2.7-3.2-3.9-6.5-3.3
		C369.9,106,363,107,356.5,108.1z M467.5,195.2c-1.7-0.1-3-0.4-4.2-0.1c-13.5,3.3-26.9,2.3-40.4,0.2c-2.8-0.4-5.7-0.9-6.9,2.8
		c-0.6,0.7-1.5,1-2.3,0.9c-6.7-2.6-6.6,1.8-6.9,6.2c-0.1,2-0.8,3.9-0.7,5.9c0.2,10.4,0.4,20.8,1.1,31.2c0.1,1.8,2.8,4.7,4.5,4.8
		c15.3,0.9,30.6,1.5,45.9,1.8c2.1,0,5.3-2,6-3.9c1.3-3.9,1.9-8.1,1.9-12.2c0.4-11.7-1.4-23.5,2.2-35
		C467.8,197,467.7,196.1,467.5,195.2L467.5,195.2z M21.9,187.1c0.8,3.8,0.9,7.7,0.3,11.5c-1,7.8,0.2,15.8,0.9,23.7
		c0.5,5.5,1.9,10.7,9.5,8.7c0.8-0.2,1.8,0.5,2.6,0.5c10.6,0.2,21.2,0.5,31.8,0.6c3,0,6.1-1,9.1-1.2c8.6-0.7,10.9-2.5,11.2-11.2
		c0.3-10.7,0.1-21.3,0.1-32c0-4.1-2-5.8-6.2-5.2c-7.2,1-14.3,2-21.5,2.5C47.4,185.8,35.1,186.3,21.9,187.1z M481.3,43.7
		c-0.7-6.4-0.9-12-2.1-17.3c-2-8.6-6-16.3-14-21c-4.2-2.5-8.2-3.3-12.5,0.2c-3.2,2.6-6.9,4.6-10.3,7c-7.4,5.3-10.6,12.6-9.6,21.6
		c0.6,6.2,3.8,9.1,9.9,9.2C455.1,43.7,467.5,43.6,481.3,43.7z M23.5,47.7v0.2l6.5,0.3c2.2,0.1,4.3,0.2,6.5,0.2
		c7.7,0.1,7.9-0.1,8.1-7.5c0.1-2.5,0.4-5,0.3-7.6c-0.2-9.7-2.7-18.5-10.6-25c-6.1-5-7.9-5.1-14.5-0.7c-1.3,0.9-2.8,1.6-4.2,2.5
		C3.8,17.8-0.4,30.5,5,43.5c0.9,1.7,2.5,2.9,4.4,3.3C14.1,47.5,18.8,47.4,23.5,47.7z M464.6,305.9c-0.5-4.6-0.9-8.7-1.2-12.7
		c-1-11.8-2-23.7-2.9-35.5c-0.2-2.9-1.3-4.4-4.3-4.2c-7.1,0.4-14.3,0.7-21.7,1c0.4,17.1,0.8,34.1,1.2,50.2L464.6,305.9z M23.9,235.1
		c0.4,16.4,0.8,32.3,1.3,48.8l19.4-1.3c0.3-0.6,0.6-1,0.6-1.3c-0.1-14.1-0.1-28.1-0.5-42.2c0-1.1-2.7-2.9-4.3-3
		C35.3,235.4,30.1,235.4,23.9,235.1z M480.5,48c-13.3-0.6-25.4-1-37.4-1.8c-6.9-0.5-5.6,4.9-6.3,8.4c-0.7,4,0.9,6.8,5.8,7
		s9.7,1,14.5,1.3c7.5,0.5,15,0.7,22.6,1.1L480.5,48z M7.7,62.4c9.8,0.5,19.1,0.9,28.5,1.3s9.7-0.1,8.4-9.1c-0.2-1.2-2.2-3-3.5-3.1
		c-7.6-0.5-15.1-0.6-22.7-0.8c-11-0.3-10.5-2.8-11,11C7.4,61.8,7.5,62.1,7.7,62.4z M405.2,128.3c-0.3,6-0.7,11.7-0.7,17.5
		c0.3,1.4,1.3,2.6,2.7,3.1c3.6,0.6,7.2,1,10.9,1.3c0.5-3.3,1.1-6.1,1.4-9c1.2-12.9,0.1-14-12.9-13.4
		C406.1,127.9,405.6,128,405.2,128.3z M275.8,121.7c-0.3,5.6-0.6,10.7-0.6,15.9c0.2,1.1,1,2.1,2,2.6c5.5,1.7,8.2-0.2,9-5.9
		c0.2-1.6,0.8-3.1,1.1-4.7c0.8-3.9,0-6.8-4.8-7C280.6,122.4,278.7,122.1,275.8,121.7z M172.7,147.1c-0.9-5.9-1.4-11.7-2.9-17.1
		c-0.4-1.6-3.7-2.5-5.6-3.7c-0.8,1.7-2.1,3.3-2.3,5c-0.2,3.2-0.1,6.5,0.4,9.7C163.4,148.8,163.5,148.8,172.7,147.1L172.7,147.1z
		 M64.3,158.9c-0.3-4.9-0.5-9.2-1-13.5c-0.3-3-0.9-6.1-1.7-9c-0.2-0.9-1.8-1.5-2.7-2.2c-0.7,0.9-2,1.9-2,2.8
		c0.2,7.5,0.8,14.9,1.2,22.8L64.3,158.9z M54.1,144.2l-1.6,0.1c0.3,4.9,0.6,9.9,0.8,14.8L55,159L54.1,144.2z"/>
	<path class="st4" d="M469.2,164.7c-1.4,9.9-2.5,17.9-3.8,26.9c-10.7,2.5-21.7,3.1-32.6,1.9c-8.6-1-17.3-0.7-26-1
		c-0.5,0-1.1,0.3-1.6,0.2c-12.5-1.4-24.9-3.3-37.4-4.1c-11.1-0.7-22.4-0.1-33.6,0c-8,0.1-15.9,0.8-23.9,0.6
		c-42.3-0.7-84.7-1.2-127-2.7c-24.9-0.9-49.8-3.5-74.7-5.3c-5-0.3-10.7,1.3-15.1-0.4c-8.8-3.4-17.1-0.8-25.6-0.4
		c-5.7,0.3-11.4,2.2-17.2,2.4c-8.6,0.3-17.2-0.2-25.9-0.7c-1.2-0.1-3-1.9-3.5-3.2c-3.6-10.4-2.3-12.4,8.6-13.2
		c12.3-1,24.8-1.4,37-3.1c11.1-1.6,22-5.5,33.1-6.9c13-1.7,26.2-1.9,39.3-2.7c7.6-0.5,15.1-0.8,22.7-1.2c19.6-1.2,39.3-2.4,58.9-3.7
		c17.3-1.2,34.5-3.7,51.7-3.7c23.6,0,47.1,1.9,70.7,3c6.3,0.3,12.6,0.9,19,1.2c9.5,0.6,19,0.7,28.5,1.7c9.2,1,18.3,2.6,27.4,4.3
		C435.3,157.9,452.1,161.3,469.2,164.7z"/>
	<path class="st5" d="M114.5,110.9c4.8-1.5,9-3.4,13.3-4.1c5.3-0.8,10.7-1,16.1-0.5c5,0.5,5.8,5.1,5.9,9.1
		c0.3,9.5-0.8,18.8-5.4,27.4c-2.1,3.9-4.6,6-9.6,6.4c-15.3,1.2-30.5,3.2-45.8,5.1c-8.5,1-15.6-2-17.7-10.3c-2-8-2.2-16.7-2.1-25.1
		c0.1-5.3,4.3-8.3,9.8-8.1c5.2,0,10.5,0.4,15.7,1.2c4.9,0.8,5.7-0.9,5-5.2c-0.4-2.4-0.6-5.3,0.3-7.4c1.1-2.4,3.4-5.7,5.7-6
		c3.8-0.6,6.9,2.2,7.6,6.3C114.1,102.9,114.1,106.6,114.5,110.9z"/>
	<path class="st6" d="M438.6,64.5c1.5-0.1,2.9-0.2,4.4-0.2c9.6,0.6,19.1,1.4,28.7,1.6c5,0.1,6.3,2.2,5.8,6.6c-1.6,14-3.1,28-4.5,42
		c-0.7,7.4-1.1,14.8-1.5,22.1c-0.5,8-0.8,16.1-1.2,25.1c-3.1-0.5-6.2-0.9-9.3-1.6c-5.9-1.5-11.8-3.7-17.8-4.8
		c-4.5-0.9-5.5-3.3-5.5-7.1c0-19.9-0.2-39.8-0.1-59.7C437.6,80.7,438.2,72.8,438.6,64.5z"/>
	<path class="st5" d="M218,107.7c1-7.2,1.3-12.4,2.8-17.3c0.6-2.2,3.9-4.9,5.8-4.9s5.3,2.8,5.9,5c1.5,5,1.7,10.5,2.5,16.4
		c1.7-0.6,3.3-1.4,4.9-1.8c4-1,8-2.3,12.1-2.6c6.1-0.5,9.5,2.3,11.2,8c2.9,9.7,2,19-3.2,27.7c-1.5,2.1-3.8,3.5-6.4,3.9
		c-17.3,1.5-34.6,2.9-51.9,3.8c-9.8,0.5-14.8-4.6-18.4-14.2c-3.1-8.4-3.4-15.7,2.5-22.8c3.3-4,7-5.1,12-4.1
		C204.6,106.1,211.5,106.8,218,107.7z"/>
	<path class="st6" d="M49,161.7c-7.8,0.4-16.2,1-24.7,1.1c-1.4,0-3.2-1.8-4-3.2c-0.9-1.8-1.4-3.7-1.5-5.7c-2.4-18.3-5-36.5-7.1-54.8
		c-1.2-10.6-1.6-21.2-2.5-33.1l36.5,1.7c0.8,2.3,1.3,4.7,1.5,7.2c1.1,20.5,2.2,41.1,2.9,61.7C50.4,144.5,49.5,152.6,49,161.7z"/>
	<path class="st5" d="M356.5,108.1c6.5-1.1,13.4-2.1,20.2-3.5c3.3-0.7,5,0.6,6.5,3.3c4.7,8.1,4.4,15.4,0,24
		c-5.6,10.9-12.6,15.5-25.1,13.4c-13.5-2.2-27.4-2.4-41-3.8c-9.5-1-21-15-20.5-24.4c0.4-7,7-12.4,15-11.7c8.5,0.8,16.9,2,25.3,3
		c1.6,0.1,3.1,0,4.7-0.2c-0.5-4.7-1.5-8.8-1.2-12.8c0.2-2.4,2.4-6.6,3.7-6.6c2.7,0,6.8,1.6,7.9,3.7
		C354.2,97.4,355.1,103,356.5,108.1z"/>
	<path class="st7" d="M467.5,195.2c0.2,0.9,0.2,1.8,0.2,2.6c-3.6,11.5-1.8,23.3-2.2,35c0,4.1-0.6,8.2-1.9,12.1
		c-0.7,1.8-3.9,3.9-6,3.9c-15.3-0.2-30.6-0.8-45.9-1.8c-1.6-0.1-4.4-3-4.5-4.8c-0.7-10.4-0.9-20.8-1.1-31.2c0-2,0.6-3.9,0.7-5.9
		c0.2-4.4,0.2-8.9,6.9-6.2c0.9,0.1,1.8-0.2,2.3-0.9c1.3-3.7,4.1-3.2,6.9-2.8c13.5,2,26.9,3,40.4-0.2
		C464.5,194.8,465.8,195.1,467.5,195.2z"/>
	<path class="st7" d="M21.9,187.1c13.2-0.7,25.6-1.3,37.9-2.1c7.2-0.5,14.4-1.6,21.5-2.5c4.1-0.6,6.2,1.1,6.2,5.2
		c0,10.7,0.3,21.4-0.1,32c-0.3,8.7-2.6,10.6-11.2,11.2c-3.1,0.2-6.1,1.2-9.1,1.2c-10.6,0-21.2-0.3-31.8-0.6c-0.9,0-1.9-0.7-2.6-0.5
		c-7.7,2-9.1-3.2-9.5-8.7c-0.7-7.9-1.9-16-0.9-23.7C22.7,194.7,22.6,190.8,21.9,187.1z"/>
	<path class="st4" d="M481.3,43.7c-13.7-0.1-26.2,0-38.6-0.3c-6.1-0.1-9.3-3-9.9-9.2c-1-9,2.2-16.3,9.6-21.6c3.4-2.4,7.1-4.4,10.3-7
		c4.3-3.5,8.3-2.7,12.5-0.2c8,4.8,12,12.4,14,21C480.4,31.7,480.5,37.3,481.3,43.7z"/>
	<path class="st4" d="M23.5,47.7c-4.7-0.2-9.4-0.2-14-0.8c-1.9-0.4-3.6-1.6-4.5-3.3c-5.4-13-1.3-25.7,10.6-33.5
		c1.4-0.9,2.8-1.6,4.2-2.5c6.6-4.4,8.4-4.3,14.5,0.7c7.9,6.5,10.4,15.3,10.6,25c0,2.5-0.2,5.1-0.3,7.6c-0.2,7.4-0.5,7.7-8.1,7.5
		c-2.2,0-4.3-0.2-6.5-0.2l-6.5-0.3L23.5,47.7z"/>
	<path class="st4" d="M464.6,305.9l-29-1.3c-0.4-16.1-0.8-33.1-1.2-50.2c7.5-0.3,14.6-0.6,21.7-1c3-0.1,4.1,1.4,4.3,4.2
		c0.9,11.9,1.9,23.7,2.9,35.5C463.7,297.3,464.2,301.3,464.6,305.9z"/>
	<path class="st4" d="M23.9,235.1c6.1,0.3,11.3,0.3,16.5,0.9c1.6,0.2,4.3,1.9,4.3,3c0.4,14.1,0.4,28.1,0.5,42.2
		c0,0.3-0.3,0.6-0.6,1.3l-19.4,1.4C24.8,267.4,24.4,251.5,23.9,235.1z"/>
	<path class="st4" d="M480.5,48l-0.7,15.9c-7.6-0.3-15.1-0.6-22.6-1.1c-4.9-0.3-9.7-1.2-14.5-1.3s-6.5-3-5.8-7
		c0.6-3.5-0.6-8.9,6.3-8.4C455.1,47,467.2,47.4,480.5,48z"/>
	<path class="st4" d="M7.7,62.4c-0.2-0.3-0.3-0.5-0.3-0.8c0.5-13.8,0-11.3,11-11c7.6,0.2,15.2,0.3,22.7,0.8c1.3,0.1,3.3,1.9,3.5,3.1
		c1.3,9.1,0.8,9.5-8.4,9.1S17.5,62.8,7.7,62.4z"/>
	<path class="st6" d="M405.2,128.3c0.4-0.2,0.9-0.4,1.3-0.5c13-0.6,14.1,0.5,12.9,13.4c-0.3,2.8-0.8,5.6-1.4,9
		c-3.6-0.2-7.3-0.7-10.9-1.3c-1.4-0.5-2.4-1.7-2.7-3.1C404.5,140,404.9,134.2,405.2,128.3z"/>
	<path class="st6" d="M275.8,121.7c2.9,0.4,4.8,0.7,6.7,0.8c4.8,0.2,5.6,3.1,4.8,7c-0.3,1.6-0.9,3.1-1.1,4.7c-0.8,5.7-3.5,7.6-9,5.9
		c-1-0.5-1.8-1.4-2-2.6C275.2,132.4,275.6,127.3,275.8,121.7z"/>
	<path class="st6" d="M172.7,147.1c-9.2,1.7-9.3,1.7-10.4-6.1c-0.5-3.2-0.6-6.5-0.4-9.7c0.1-1.7,1.5-3.3,2.3-5
		c2,1.2,5.2,2.1,5.6,3.7C171.3,135.4,171.8,141.2,172.7,147.1z"/>
	<path class="st6" d="M64.3,158.9l-6,0.9c-0.5-7.8-1-15.3-1.2-22.8c0-0.9,1.3-1.9,2-2.8c0.9,0.7,2.4,1.3,2.7,2.2
		c0.8,2.9,1.4,6,1.7,9C63.8,149.8,64,154.1,64.3,158.9z"/>
	<path class="st6" d="M54.1,144.2L55,159l-1.7,0.1c-0.3-4.9-0.6-9.9-0.8-14.8L54.1,144.2z"/>
	<g>
		<defs>
			<rect id="SVGID_00000012451400031153773040000009164952007346831292_" x="1247" y="-307.4" width="438" height="452"/>
		</defs>
		<clipPath id="SVGID_00000176754785415205611160000011424079531735829395_">
			<use xlink:href="#SVGID_00000012451400031153773040000009164952007346831292_"  style="overflow:visible;"/>
		</clipPath>
		<g style="clip-path:url(#SVGID_00000176754785415205611160000011424079531735829395_);">
			<g>
				<defs>
					<rect id="SVGID_00000081648148784395994550000008722238620056238251_" x="1233" y="-306.4" width="452" height="451"/>
				</defs>
				<clipPath id="SVGID_00000117678374622541974470000006619973801440154757_">
					<use xlink:href="#SVGID_00000081648148784395994550000008722238620056238251_"  style="overflow:visible;"/>
				</clipPath>
				<g style="clip-path:url(#SVGID_00000117678374622541974470000006619973801440154757_);">
					<g>
						<defs>
							<rect id="SVGID_00000060032520541439432970000013637871210621359508_" x="1248.7" y="-172.4" width="432.4" height="310.5"/>
						</defs>
						<clipPath id="SVGID_00000162310782110827426230000015838559853399922307_">
							<use xlink:href="#SVGID_00000060032520541439432970000013637871210621359508_"  style="overflow:visible;"/>
						</clipPath>
						<g style="clip-path:url(#SVGID_00000162310782110827426230000015838559853399922307_);">
							<path class="st11" d="M363.9,62.2c9.9,9.4,23.4,13.6,33.8,22.4l-0.6-0.5c1.9,1.6,3.5,3.4,4.9,5.3c0.7,1,1.3,2.1,1.7,3.2
								c0,0,0.3,0.9,0.2,0.4c0.1,0.5,0.3,2.6,0.3,0.9c-0.1-3.1,0.3-6.3,1.2-9.3c1-3.3-0.6,0.7,0.4-1.2c-0.5,0.9-1,1.8-1.7,2.6
								c-1.6,1.7-3.4,3.3-5.3,4.6c-8,5.5-17.6,8.6-25.1,14.9c-4,3.5-7.1,8-8.9,13c-3,8.4-4.1,17.4-2.9,26.3
								c1.3,9.2,7.3,16.3,14.2,22.1c9.4,7.8,20.7,13.3,31.9,18c1.5,0.6,3.1-6.3,3.2-6.6c1-4,1.4-8.2,1.2-12.3
								c0.7,11.9-5.3,20.3-2.3,15.1c-0.6,1.1-0.2,0.3,0.1,0.1c0.5-0.5,1-0.9,1.6-1.3c1.4-1,3-1.8,4.5-2.4l-0.7,0.3
								c3.4-1.5,6.9-2.7,10.3-4.1c4-1.7,7.9-3.5,11.8-5.6c9.3-4.8,18.5-10,28-14.3L465,154c5.2-2.4,10.8-3.8,16.5-4.1
								c5.7-0.1,11.3,0.7,16.7,2.4c10.5,3.3,19.4,10.1,29.6,14.2c18.9,7.6,40.4,9.6,60.6,8.1c5.7-0.4,11.3-1.2,16.9-2.4
								c6.7-1.4,13.2-3.6,19.9-5.2c2.1-0.5,2.8-5.1,3.2-6.6c1-4,1.4-8.2,1.2-12.3c-0.1-1-0.1-0.8,0,0.4c0,1.9-0.3,3.7-0.6,5.6
								c-0.1,0.8-0.4,1.6-0.6,2.4c0.3-0.7,0.3-0.8,0.1-0.4s-0.1,0.3,0.2-0.4c0.2-0.4,0.4-0.8,0.7-1.2c0.4-0.7,0.8-1.3,1.3-1.9
								c1.6-1.9,3.3-3.7,5.2-5.2c4.5-3.6,9.5-6.6,14.8-8.9l-0.7,0.3c6.6-2.9,13.4-5.2,20.4-6.9c6.6-1.6,13.3-2.9,19.8-5.2
								c6.1-2,11.6-5.5,16.1-10.1c4.6-4.8,8.9-9.2,15-12l-0.7,0.3c3.6-1.6,7.4-2.7,11.2-3.6c1.8-0.4,2.5-3.9,2.9-5.3
								c1-3.7,1.6-7.5,1.6-11.3c0-0.7,0-1.3,0-2c0-1.9-0.2,2,0,0c0,0.2-0.5,2.9-0.1,1c0-0.1-0.5,2.6-0.2,1.3s-0.3,1-0.3,1
								c0.1-0.3,0.1-1.1,0.4-1.3c0,0-0.6,1.6-0.2,0.6c0.1-0.3,0.2-0.7,0.4-1c-0.4,1,0.3-0.6,0.5-0.9c0.6-1.2,1.3-2.3,2.1-3.4
								c3.4-4.6,7.7-8.4,11.8-12.4c4.5-4.3,8.7-8.8,11.9-14.2c4.8-8.2,6.7-18,7-27.4c0.2-5.7-0.6-11.6-3.5-16.6
								c-2.5-4-5.7-7.4-9.6-10c-9.4-6.8-20.8-9.2-31.9-11.8c-6.3-1.3-12.5-3.1-18.5-5.3c-5.5-2.2-10.7-5.4-15.3-9.2l0.6,0.5
								c-5.6-4.8-10.4-10.4-16-15.3c-6.2-5.6-13.7-9.7-21.8-12.1c-18.2-5.1-38.1-2.4-56.2,1.7c-9.5,2.2-18.9,4.9-28.4,7
								c-9.9,2.3-20,3.7-30.2,4.2c-20.5,0.9-41.1-1.6-61.5,1c-9.1,1.1-18.8,3.1-26.5,8.3c-3.8,2.6-6.8,6-10,9.2
								c-3.2,3.4-7.1,6.2-11.4,8.2l0.7-0.3c-6.9,3-14.3,4.4-21.5,6.2c-7.5,1.7-14.9,4.1-22,7.1c-6.1,2.7-12.1,5.9-17.1,10.4
								c-6.4,5.7-9.8,13.2-11.4,21.5C355.6,42,355.5,53.9,363.9,62.2c2.2,2.2,3.9-6.4,4.1-7.4c0.6-2.9,0.9-5.8,1-8.7
								c0-1.4,0.3-4.3-0.7-5.4c-3-2.8-5.1-6.4-6.1-10.5c0.1,0.5,0.1,1,0.1,0.2c0.1,1.6,0,3.2-0.3,4.7c-0.2,1.4-0.5,2.7-0.9,4
								s0.1-0.2,0.2-0.5c-0.4,0.9-0.2,0.4,0.1-0.2c0.2-0.5,0.5-0.9,0.7-1.3c0.5-0.8,1-1.5,1.6-2.2c5.1-6.1,12.3-10.2,19.4-13.4
								l-0.7,0.3c6.6-2.9,13.4-5.1,20.4-6.8c6.9-1.7,14-3,20.7-5.5c6-2.2,11.4-5.8,15.8-10.5c4.4-4.6,8.6-8.7,14.4-11.4l-0.7,0.3
								c12.3-5.5,26.6-6.3,40-6.4c16-0.2,32.1,1.1,48.1-0.1c15.1-1.2,29.7-5.1,44.4-8.8c14.1-3.6,28.3-6.4,42.9-6.4
								c15.3,0,30.2,3.5,42.1,13.5l-0.6-0.5C678.8-13.3,685.9-4,696,1.7c12.1,6.8,26.3,8.2,39.4,12.1c7.2,2.1,14.1,5.2,20,10
								l-0.6-0.5c3.6,3,6.5,6.8,8.3,11.1c0.3,0.8,0-0.4,0.1,0.5c0.1,0.7,0.3,1.3,0.4,2s0-0.2,0-0.3c0,1.6,0-0.2,0-0.5
								c0,0.3-0.1,1.5,0-0.1c0.1-1.4,0.2-2.8,0.5-4.2c0,0.1,0.5-2.2,0.2-1.1s0.2-0.7,0.2-0.7c-0.1,0.4-0.3,0.8-0.5,1.2
								c0-0.1,0.4-0.9,0.1-0.2c-0.7,1.4-1.4,2.8-2.3,4.1c-6.9,10.7-18.8,17.2-24.9,28.5c-5.1,9.5-6.8,21.3-6.7,32l4.4-16.6
								c-7.8,1.8-15.3,4.6-21.2,10.1c-2.6,2.4-4.9,5.1-7.4,7.5c-2.8,2.7-6.1,4.9-9.6,6.5l0.7-0.3c-11.6,5-24.5,6.2-36.4,10.5
								c-10.2,3.6-21.3,8.7-28.3,17.3c-2.9,3.7-5.1,7.9-6.3,12.4c-2,6.6-2.8,13.6-2.3,20.5l4.4-18.9c-7.1,1.7-14,4-21.1,5.5
								c-6.2,1.2-12.6,2-18.9,2.3c-12.9,0.7-25.9-0.2-38.6-2.8c-5.8-1.2-11.6-2.8-17.2-4.9c-5.8-2.4-11.5-5.2-16.9-8.4
								c-12.3-6.8-26.4-11.4-40.5-7.4c-7.4,2.1-14.2,6.1-21,9.6c-7.5,3.9-14.8,8.1-22.5,11.5l0.7-0.3c-5.4,2.4-11.1,4-16.3,6.7
								c-2.2,1-4.2,2.6-5.5,4.6c-1,1.7-1.7,3.6-2.2,5.5c-1.3,4.8-1.9,9.8-1.6,14.8l4.4-18.9c-11.4-4.8-22.8-10.4-32.3-18.4l0.6,0.5
								c-3.7-3-6.8-6.5-9.4-10.5c-1-1.6-1.8-3.4-2.4-5.3c-0.1-0.5-0.3-1-0.4-1.5l-0.1-0.5c-0.1-0.8-0.1-0.7,0,0.3
								c-0.2-0.3-0.1-2.9,0,0.3c0-1.1,0-0.7-0.1,1.2c-0.1,1-0.2,2-0.4,3c0,0.3-1,4-0.4,2.1c-0.8,2.6-0.2,0.8,0,0.2
								c-0.7,1.7,0,0,0.2-0.3c0.3-0.5,0.5-1,0.9-1.4c0.2-0.3,1.2-1.6,1.8-2.2c1-1.1,2.1-2.1,3.3-3.1c4-3.3,8.7-5.6,13.3-8
								c4.4-2.1,8.7-4.6,12.7-7.5c5.1-3.9,8-9.2,9.6-15.3c2.1-8.1,3.5-18.1-0.4-26c-2.2-4.5-6.2-7.8-10.2-10.7
								c-8.9-6.3-19.3-10.4-27.7-17.4l0.6,0.5c-0.7-0.6-1.3-1.2-2-1.8c-2.2-2.1-3.9,6.3-4.1,7.4c-0.6,2.9-0.9,5.8-1,8.7
								C363.2,58.2,362.9,61.2,363.9,62.2z"/>
						</g>
					</g>
				</g>
			</g>
		</g>
	</g>
</g>
</svg>
