<?xml version="1.0" encoding="utf-8"?>
<!-- Generator: Adobe Illustrator 26.0.1, SVG Export Plug-In . SVG Version: 6.00 Build 0)  -->
<svg version="1.1" id="Layer_1" xmlns="http://www.w3.org/2000/svg" xmlns:xlink="http://www.w3.org/1999/xlink" x="0px" y="0px"
	 viewBox="0 0 197.6 254.8" style="enable-background:new 0 0 197.6 254.8;" xml:space="preserve">
<style type="text/css">
	.st0{clip-path:url(#SVGID_00000164502206779704277650000003608475523746151336_);}
	.st1{clip-path:url(#SVGID_00000132081141727010902690000008681546855543995298_);}
	.st2{opacity:0.61;}
	.st3{fill:#FFFFFF;}
	.st4{fill:#E06124;}
</style>
<g id="Layer_4">
	<g>
		<defs>
			<rect id="SVGID_1_" x="-3937.8" y="1078.6" width="2248" height="2508"/>
		</defs>
		<clipPath id="SVGID_00000036216043952826451320000008086412220356488877_">
			<use xlink:href="#SVGID_1_"  style="overflow:visible;"/>
		</clipPath>
		<g style="clip-path:url(#SVGID_00000036216043952826451320000008086412220356488877_);">
			<g>
				<defs>
					<path id="SVGID_00000017518415442678013170000017333662604416502173_" d="M2782.6,3096.3c-38.6-56.8-34.9-129.3,2.9-187.7
						c46.1-71.1,135.8-120.1,182.8-190.9c45.1-67.9,44.9-151.3,7.7-220.8s-109.2-125.2-194-159.8c-51.2-20.9-108.8-35.5-148.7-68.2
						c-48.6-39.8-62.7-99.8-108.7-141.5c-55.9-50.7-148.3-65.3-234.2-65.8s-173.1,9.9-257.1-2.9c-95.8-14.6-179.1-58.2-268-89
						s-196.1-48.2-282.8-10.7c-134.2,58.1-149.2,212.4-268,288.9c-60.3,38.9-140.6,52.9-203.3,89.4
						c-68.9,40.1-110.7,105.4-121.5,172s7.3,134.2,40.6,195.2c32.9,60.1,80.4,115.1,105.4,177.7c19.1,47.7,24.3,97.3,23.9,147.7
						c29.2,10,55.5,24,76.6,43.1c46,41.7,60.1,101.7,108.7,141.5c40,32.7,97.5,47.3,148.8,68.2c84.8,34.6,156.8,90.3,194,159.8
						c19.8,37,29,77.9,26.6,118.4c27.4,10.2,53.8,23.5,81,34.1c143.5,56,332.2,32.2,450.2-56.7c34.4-25.9,63.1-56.6,99.5-80.8
						s84.2-41.8,130.1-34.4c40.1,6.5,71,30.4,99.6,53.3l146,117c44.3,35.5,124.7,60.3,121.4,110.6
						c88.8-57.9,167.7-128.8,208.4-213.6s38.2-185-25.2-258.7C2883.1,3183,2817.8,3148.2,2782.6,3096.3z"/>
				</defs>
				<clipPath id="SVGID_00000106845719275476211950000007483047670563592094_">
					<use xlink:href="#SVGID_00000017518415442678013170000017333662604416502173_"  style="overflow:visible;"/>
				</clipPath>
				<g style="clip-path:url(#SVGID_00000106845719275476211950000007483047670563592094_);">
					<g class="st2">
						<path class="st3" d="M397.5-671.9c-12.9-42.3-31.1-79.2-51.5-104.6c-37-45.8-56.7-30.2-87.7-17.7
							c-44.9,18.2-24.9,76.5-87.7-2.7c-5.3-8.3-16-8.8-20.6-5c-3.8,3.2-1.2,12.6,0.7,20.2c0.5,2.2,1.1,4.5,1.7,6.7
							c0,0.3,0,0.6,0.1,1L338.2-22.8c-29.7-17.6-65.6-6.6-92.2,33.2c-36.9,55.3-41.8,145-10.8,200.4s86.1,55.5,123.1,0.2
							c30.8-46.1,34.2-115.5,20.6-169.8l-163.7-662c40,5.6,22.5,6.5,44.9-19.7c17.8-20.9,33-56.5,57.1-58.7
							c35.4-3.2,30.6,45,54.7,101.9c8,18.9,18.4,35.5,28.3,40.8C434-538.9,409.5-632.7,397.5-671.9z"/>
						<path class="st3" d="M1703.2,1655.1c5.9,16.4,15.2,31.4,27.4,43.9c-23.2-2.6-46.6-1.7-69.5,2.6
							c-61.7,12-115.2,44.2-167.1,75.6c0.2-33.6,15-65.7,20.2-98.9c5-33.2-2.9-72.1-35.7-89.8c-15.3-8.2-33.6-10.5-51.5-11.5
							c-58-3.3-116,5.3-170.5,25.4c20-33.8,31.6-71.8,34-111c0.8-14.6-0.1-30.2-9.3-42.7c-11.5-15.8-33.8-22.8-55-26.5
							c-71.1-12.8-147.5-1-209.2,32.3c8.5-31.2,34.2-56,52.4-83.7s28.2-64.9,5.4-90c-24.6-27.4-72.7-25.1-111.3-16.2
							c-45.3,10.6-89,27.1-130.1,48.9c25.7-37.2,52.1-76.1,55.7-119.5c3.5-43.2-23.4-91.9-72-102c-22.8-4.9-47.1-0.6-69.9,4.4
							c-56.1,12.3-110.9,29.8-163.7,52.3c44.2-43.3,73.7-98.1,83.7-155.4c2.7-14.9,3.8-31.2-5.1-44.3
							c-15.7-23.2-53.1-24.9-83.6-20.7c-74.3,10.1-145,38.9-201.4,82c9.7-55,93.7-84.3,97.5-139.7c3-46.5-57.1-80.6-110.3-76.9
							s-98.9,32.9-141.3,61c24.1-39.9,40.4-84,47.9-130c3.8-24.1,4.9-49.9-8.4-71.3c-19.6-32-66.4-45.1-107.7-40.6
							S76.1,636,40.1,654.2c27-33.7,43.1-73.8,46.2-114.8c1.4-18.4-0.7-39.1-16-52c-18.6-15.8-48.5-13.8-73.9-8.8
							c-57.6,11.4-112.6,32.8-160.8,62.3c39.3-46.4,48.9-110.9,24.3-164.6c-24.8-53.6-82.7-94.7-148.1-104.6
							c79.2-14.5,159.1-24.5,239.5-30.2c15.3-1.1,35,1.4,45.1,9.6c29.4-14.2,58.8-28.4,88.2-42.6c-26.7,41.5-53.9,91.1-31.8,134.6
							c20.3,39.5,76.2,57.2,125.5,52.4s93.6-27.4,136.3-49.4c-35.2,19.5-62.5,51.1-69.8,87s7.1,75.3,39.7,98.1
							c59.9,41.7,147.4,16.3,217.5-10.7c-33.2,45.3-57.8,106.7-22,150.5c21.8,27.1,62,39.4,99.8,39.4c38,0,74.8-10.4,110.9-20.8
							c-51.5,34.4-49.3,110-2.9,149.4s123.1,43.4,181.3,18.4c-9.4,27.3-19,55.8-13,83.8c9.2,43.6,55.1,75.9,104.4,86.9
							c49.2,11,101.3,4.2,150.9-5.4c-38,43.8-67.1,105.1-34.3,152.1c22.7,32.6,70,47.5,113.8,46.2s85.6-16,126.2-30.4
							c-12.5,30.6-25.1,62.3-23.4,94.7s21.2,66.6,55.9,78.4c62,20.8,126.7-36.1,192.7-29.2c-42.9,48.1-39.4,122.8,7.6,167.7
							s132.2,54.8,191,22.1C1702.5,1557.7,1687.5,1610.1,1703.2,1655.1z"/>
					</g>
				</g>
			</g>
		</g>
	</g>
</g>
<g id="Layer_8">
	<path class="st4" d="M78.4,32.5c-4.1-10.2-9.8-19.1-16.2-25.2c-11.6-11-17.8-7.3-27.5-4.2C20.5,7.5,26.8,21.5,7.1,2.5
		C5.4,0.8,2.8,0.3,0.6,1.3c-1.2,0.8-0.4,3,0.2,4.9C1,6.7,1.2,7.2,1.4,7.8c0,0.1,0,0.1,0,0.2l58.4,180.6c-9.3-4.2-20.6-1.6-29,8
		c-11.6,13.3-13.1,34.9-3.4,48.2c9.8,13.3,27.1,13.3,38.7,0.1c9.7-11.1,10.8-27.8,6.5-40.8L21.1,44.8c12.6,1.3,7.1,1.6,14.1-4.7
		c5.6-5,10.4-13.6,18-14.1c11.1-0.8,9.6,10.8,17.2,24.5c2.5,4.6,5.7,8.6,8.9,9.8C89.9,64.5,82.2,42,78.4,32.5z"/>
	<path class="st4" d="M101,204.7c10.5-0.5,18.1-17.1,18.4-26s-3-11.7-7.5-20.1c-3.5-6.3-6.6-12.9-9.2-19.6c-7.5-20-9.3-41-19.1-60.5
		c-0.3-0.9-1.1-1.7-2-2c-1.5-0.4-3.1,0.4-4.2,1.2c-10.1,7.4-12.8,18.4-11.3,28.6s6.5,19.9,10,29.8c6.9,19.5,7.8,39.8,13.6,59.4
		c0.6,2.1,1.4,4.3,3.3,6S95.1,204.3,101,204.7"/>
	<path class="st4" d="M112,104.5c0,0.1,0,0.2,0,0.2l11.7,32.5c5.3,6.8,7.5,7.2,12.6,7.1c0-1.2,4.6-1.5,10.4-6.7s10.7-14,18.4-14.5
		c11.4-0.8,9.9,11.1,17.7,25.2c2.6,4.7,5.9,8.8,9.1,10.1c10.9,4.4,3-18.8-0.9-28.5c-4.2-10.4-10-19.6-16.6-25.8
		c-11.9-11.3-18.3-7.5-28.3-4.4c-14.5,4.5-8,18.9-28.3-0.7c-1.7-1.8-4.4-2.3-6.6-1.2c-1.2,0.8-0.4,3.1,0.2,5
		C111.6,103.4,111.8,104,112,104.5z"/>
</g>
</svg>
