<svg xmlns="http://www.w3.org/2000/svg" xmlns:xlink="http://www.w3.org/1999/xlink" viewBox="0 0 197.55 254.78"><defs><style>.cls-1{fill:none;}.cls-2{clip-path:url(#clip-path);}.cls-3{clip-path:url(#clip-path-2);}.cls-4{opacity:0.61;}.cls-5{fill:#fff;}.cls-6{fill:#e06124;}</style><clipPath id="clip-path"><rect class="cls-1" x="-3937.78" y="1078.64" width="2248" height="2508"/></clipPath><clipPath id="clip-path-2"><path class="cls-1" d="M2782.58,3096.27c-38.6-56.82-34.91-129.28,2.88-187.69,46.05-71.15,135.83-120.14,182.77-190.94,45.05-67.94,44.95-151.29,7.69-220.79s-109.24-125.17-194-159.76c-51.24-20.91-108.77-35.47-148.74-68.22-48.6-39.82-62.7-99.79-108.68-141.51-55.87-50.69-148.28-65.31-234.18-65.84s-173.1,9.93-257.14-2.91c-95.77-14.63-179.05-58.18-268.05-89s-196.12-48.2-282.75-10.68c-134.19,58.14-149.24,212.41-268,288.94-60.33,38.88-140.64,52.9-203.29,89.4-68.89,40.13-110.72,105.44-121.52,172s7.3,134.21,40.63,195.22c32.86,60.15,80.38,115.12,105.44,177.68,19.1,47.69,24.28,97.3,23.87,147.69,29.18,10,55.48,24,76.57,43.15,46,41.72,60.08,101.68,108.68,141.51,40,32.74,97.5,47.31,148.75,68.22,84.77,34.58,156.75,90.27,194,159.76,19.83,37,29,77.92,26.58,118.36,27.45,10.18,53.75,23.49,81,34.11,143.54,56,332.18,32.23,450.22-56.73,34.43-25.94,63.05-56.6,99.47-80.78s84.22-41.79,130.15-34.36c40.1,6.49,71,30.42,99.6,53.3l146,117c44.26,35.46,124.7,60.27,121.44,110.58,88.76-57.92,167.72-128.77,208.36-213.56s38.2-185-25.25-258.74C2883.11,3183,2817.84,3148.19,2782.58,3096.27Z"/></clipPath></defs><g id="Layer_4" data-name="Layer 4"><g class="cls-2"><g class="cls-3"><g class="cls-4"><path class="cls-5" d="M397.52-671.93C384.6-714.22,366.38-751.18,346-776.52,309-822.36,289.3-806.74,258.29-794.2c-44.86,18.15-24.94,76.47-87.74-2.65-5.27-8.28-16-8.76-20.55-5-3.8,3.17-1.23,12.61.66,20.25.54,2.18,1.13,4.46,1.7,6.7,0,.32,0,.62.13,1L338.23-22.81C308.58-40.38,272.61-29.44,246,10.35c-36.95,55.27-41.76,145-10.75,200.35s86.12,55.46,123.07.18c30.84-46.13,34.22-115.47,20.58-169.83L215.22-620.9c40,5.61,22.47,6.55,44.85-19.73,17.81-20.91,33.05-56.5,57.13-58.68,35.38-3.2,30.61,45,54.74,101.86,8,18.87,18.37,35.53,28.33,40.78C434-538.88,409.48-632.74,397.52-671.93Z"/><path class="cls-5" d="M1703.16,1655.14a123.7,123.7,0,0,0,27.36,43.95,234.63,234.63,0,0,0-69.47,2.59c-61.72,12-115.23,44.21-167.07,75.64.18-33.57,15-65.68,20.19-98.93,5-33.23-2.94-72.07-35.68-89.85-15.28-8.19-33.6-10.5-51.47-11.49a423.52,423.52,0,0,0-170.51,25.41,247.31,247.31,0,0,0,34-111c.85-14.64-.1-30.24-9.29-42.68-11.51-15.78-33.8-22.84-55-26.5-71.1-12.82-147.52-1-209.25,32.34,8.48-31.16,34.17-56,52.4-83.68s28.17-64.89,5.45-90c-24.62-27.4-72.68-25.07-111.27-16.2a536.47,536.47,0,0,0-130.1,48.94c25.67-37.22,52.08-76.13,55.7-119.52,3.45-43.23-23.38-91.88-72-102-22.82-4.92-47.06-.59-69.86,4.42a926.66,926.66,0,0,0-163.73,52.27c44.24-43.34,73.66-98.07,83.71-155.36,2.73-14.89,3.8-31.2-5.09-44.26-15.67-23.23-53.13-24.94-83.6-20.72-74.29,10.07-145,38.91-201.35,82,9.7-55,93.67-84.27,97.46-139.71,3-46.52-57.14-80.56-110.29-76.9s-98.92,32.94-141.32,61A366.2,366.2,0,0,0,271,724.86c3.8-24.14,4.88-49.93-8.41-71.33-19.6-32-66.35-45.14-107.68-40.62S76.14,636,40.12,654.23c27-33.68,43.08-73.83,46.18-114.78,1.44-18.44-.74-39.09-16-52-18.6-15.84-48.52-13.76-73.92-8.76-57.6,11.42-112.59,32.78-160.76,62.35,39.35-46.39,48.88-110.87,24.27-164.61-24.77-53.58-82.7-94.66-148.06-104.64A2179.12,2179.12,0,0,1-48.71,241.62c15.31-1.14,35,1.4,45.12,9.57q44.09-21.36,88.2-42.58C57.87,250.1,30.67,299.74,52.82,343.23c20.3,39.52,76.2,57.24,125.46,52.44s93.62-27.38,136.29-49.42c-35.24,19.53-62.53,51.12-69.79,87s7.15,75.3,39.73,98.06c59.87,41.73,147.41,16.33,217.55-10.67-33.22,45.3-57.84,106.69-22,150.49,21.83,27.1,61.95,39.36,99.81,39.4,38,0,74.79-10.41,110.86-20.8-51.46,34.41-49.3,110-2.9,149.44s123.09,43.4,181.27,18.4c-9.44,27.31-19,55.82-13,83.78,9.19,43.6,55.07,75.86,104.43,86.86,49.2,11,101.26,4.25,150.87-5.38-38,43.76-67.11,105.1-34.34,152.07,22.74,32.62,70,47.5,113.78,46.16s85.62-16,126.24-30.37c-12.49,30.63-25.07,62.32-23.43,94.74s21.22,66.56,55.95,78.36c62,20.85,126.69-36.11,192.71-29.18-42.87,48.09-39.39,122.84,7.58,167.69s132.2,54.78,191,22.08C1702.54,1557.65,1687.47,1610.1,1703.16,1655.14Z"/></g></g></g></g><g id="Layer_8" data-name="Layer 8"><path class="cls-6" d="M78.42,32.54C74.36,22.37,68.63,13.48,62.21,7.39,50.61-3.63,44.4.12,34.66,3.14,20.55,7.5,26.82,21.53,7.07,2.5A5.6,5.6,0,0,0,.62,1.31c-1.2.76-.39,3,.2,4.87.17.52.36,1.07.54,1.61A.93.93,0,0,0,1.4,8L59.78,188.63c-9.32-4.22-20.62-1.59-29,8-11.62,13.29-13.13,34.86-3.38,48.17s27.07,13.34,38.68.05c9.7-11.1,10.76-27.77,6.47-40.84L21.12,44.81c12.58,1.35,7.06,1.58,14.1-4.74,5.59-5,10.38-13.59,18-14.11,11.13-.77,9.63,10.81,17.21,24.49C72.9,55,76.15,59,79.29,60.26,89.9,64.54,82.18,42,78.42,32.54Z"/><path class="cls-6" d="M101,204.72c10.54-.47,18.14-17.07,18.39-26s-3-11.72-7.49-20.08A157.75,157.75,0,0,1,102.75,139c-7.53-20-9.34-41-19.09-60.5a3.35,3.35,0,0,0-2-2c-1.5-.42-3.08.4-4.18,1.22-10.07,7.41-12.75,18.45-11.29,28.62s6.53,19.91,10,29.84c6.9,19.5,7.85,39.76,13.6,59.44.63,2.12,1.36,4.33,3.35,6s1.93,2.7,7.86,3.09"/><path class="cls-6" d="M112,104.51a2,2,0,0,0,0,.24l11.69,32.46c5.33,6.84,7.51,7.21,12.61,7.13,0-1.2,4.65-1.5,10.42-6.68s10.67-14,18.44-14.49c11.42-.79,9.88,11.1,17.67,25.15,2.58,4.66,5.93,8.77,9.15,10.07,10.89,4.39,3-18.79-.89-28.46-4.17-10.44-10-19.57-16.64-25.83-11.92-11.31-18.29-7.46-28.3-4.36-14.48,4.48-8,18.88-28.32-.66a5.75,5.75,0,0,0-6.63-1.22c-1.23.78-.4,3.11.21,5C111.63,103.4,111.83,104,112,104.51Z"/></g></svg>