<svg id="Layer_1" data-name="Layer 1" xmlns="http://www.w3.org/2000/svg" xmlns:xlink="http://www.w3.org/1999/xlink" viewBox="0 0 505.93 216.51"><defs><style>.cls-1{fill:none;}.cls-2{fill:#f6ca0f;}.cls-3{fill:#fff;}.cls-4{clip-path:url(#clip-path);}.cls-5{fill:#070707;}.cls-6{fill:#f19983;}</style><clipPath id="clip-path"><path class="cls-1" d="M504.32,108.76c-7.28-15-18.08-24.44-35.91-25.46a227.76,227.76,0,0,1-42.2-6.37c-9.65-2.44-18.48-8.12-27.66-12.4-16-7.47-30.09-18-44.73-27.82C326.48,18.4,296.92,4.76,262.71,4.56,249.93,4.49,237.17,2.12,224.37,1c-4.24-.36-8.55.08-12.83.07-9.94,0-19.9-.36-29.83-.07-6.13.19-12.22,1.84-18.33,1.85-5.79,0-11.57-1.24-17.35-2-1.71-.22-3.41-.95-5.1-.89-10.24.39-20.49.74-30.71,1.47q-14.7,1-29.34,2.88c-2.54.32-5,1.8-7.36,3.09-12.89,7.15-22.7,18.1-33.92,27.32C26.84,45.25,22.36,59.08,19.28,74.25c-2.46,12.07-4.73,24-4.37,36.46a14.61,14.61,0,0,1-7.12,13.2c-8.22,5.22-10.38,18-4.32,27.75,5.19,8.3,10.8,16.28,18.63,22.7,3.1,2.54,4.56,7.86,5.42,12.18,1.19,6,1.07,12.31,1.58,18.48.55,6.72,2.56,8.73,9.22,8.62,10.93-.17,21.86-.53,32.78-.94,4.72-.17,7.84-2.8,7.57-7.78a77.86,77.86,0,0,0-3.22-17c-1-3.6-2.17-7,1.19-9.53,8.62-6.61,9.28-16,9.57-25.67.17-5.53.81-11,1.28-17,6-.24,11.38-.72,16.75-.62,12.9.23,25.34-2.39,37.3-6.71,4.14-1.5,7.26-5.86,11.3-9.3.61,6.73,1.33,13.83,1.88,20.94.43,5.52.82,11.05.93,16.59.17,8.81.13,17.62.12,26.43,0,8.09-.46,16.19,0,24.25.16,3.15,2.19,6.2,3.38,9.29l9.45-5c.74.52,2.52,2.67,4.45,2.81s4.14-1.65,5.14-2.11c3.54,1.24,7.46,4,9.44,3,2.54-1.31,3.53-5.64,5.34-8.94a14.69,14.69,0,0,0,2.16,2.18c4.19,2.93,8.89,1.06,9.23-3.82,1.48-21.19,3.52-42.37,3.92-63.58.19-10.29-2-20.86-4.59-30.9-2.94-11.23-11.84-18.76-20.36-26.9,10.33-2.2,20.39-3.63,30.48-.12a59.29,59.29,0,0,1,10.93,4.63A85.83,85.83,0,0,0,252.14,98c10,2,19.82,5.32,29.77,7.84,3,.74,3.65,2.46,2.81,4.84-2,5.75-.72,11.34.66,16.86,2.87,11.47,6.14,22.84,9,34.32,1.67,6.75,1.43,6.81-5.09,8.71-4.78,1.39-6.25,5.53-3.5,9.57a7.23,7.23,0,0,1,.62,2.86c.55,3.71.9,7.46,1.72,11.11.19.81,2,1.67,3.11,1.78,6,.59,12,1.77,17.89,1.17,6.78-.69,11.31-5.48,13.68-11.86,4.06-10.94,6.86-22.09,4.93-33.93a56.71,56.71,0,0,1-.26-5.82c6.9,5.16,12.83,10.11,19.28,14.26,4.59,2.95,9.83,4.93,14.86,7.15,2.57,1.13,6,1.4,5.44,5.33-.55,3.56-3.47,4-6.55,4.12a42.66,42.66,0,0,0-7,1c-3.38.7-5.2,2.37-3.28,6a3.22,3.22,0,0,1,.36,1.77c-.35,3.94-.92,7.87-1.07,11.81a3.7,3.7,0,0,0,2,2.72c5.58,2.26,11.11,4.88,16.92,6.22,5.55,1.28,10.47-1.16,14.52-5.34,6.84-7,6.92-15.94,7.33-24.82.17-3.48-.22-7.19.85-10.39,3.22-9.61-5.07-23.3-16.94-25.91a38.81,38.81,0,0,1-10.61-3.68,8,8,0,0,1-3.52-5.8c-.18-12.53,0-25.07.35-37.6.16-6,5-10.07,10.86-8.94,11.34,2.18,22.72,4.16,33.3,9.37q28.82,14.2,58,27.64A175.84,175.84,0,0,0,484,128.28c6,1.88,11.9,1.25,16.91-3.32S507.36,115,504.32,108.76Z"/></clipPath></defs><path class="cls-2" d="M171.77,82.8c1.23.61,2.44,1.28,3.71,1.82,3.3,1.41,7.45,1.95,9.78,4.31,5.21,5.23,10.63,10.8,13.94,17.26,6.05,11.78,6.7,25,6.53,38.07-.15,10.92-1.33,21.83-2.11,32.74-.6,8.38-1.14,16.78-2,25.13-.17,1.62-1.86,3.09-2.85,4.63-.94-1.52-2.38-2.94-2.68-4.58-.45-2.46.11-5.08-.16-7.59-.14-1.36-1.12-2.63-2.26-5.13-1,2.67-1.59,3.8-1.88,5-1.05,4.48-1.76,9.06-3.11,13.44-.57,1.85-2.4,3.31-3.66,5-1-1.83-2.55-3.59-2.74-5.49-.36-3.6.21-7.29.15-10.93,0-1.39-.72-2.76-1.34-4.94-4.7,6.77-1.41,15.68-8.64,20.83-2.78-6.93,1.37-13.26-1.55-19.08a4.16,4.16,0,0,0-1.87,2.3c-1.12,3.8-1.73,7.82-3.39,11.36-1.22,2.6-3.77,4.57-5.72,6.82-.56-2.8-1.63-5.6-1.59-8.39.16-12.71.94-25.42.91-38.13,0-10.29-.63-20.6-1.5-30.85-.69-8.13-2.18-16.18-3.32-24.27l-1.74-.61c-1.09,1.44-2.5,2.74-3.21,4.34-2.59,5.86-6.55,9.39-13,11.42-15.13,4.79-30.63,5-46.16,5.21-2.49,0-5.21-1.24-7.46-2.52-3.79-2.16-7.47-2.62-11.29-.59A4.63,4.63,0,0,0,69.41,132c-.12.49,1.3,1.73,2.22,2,4,1.25,8.13,2.28,12.56,3.49-.43,6.36-.87,12.79-1.35,19.91-3.59-1.82-6.59-3.38-9.63-4.83-.48-.23-1.55-.17-1.74.13-1.21,2-3,4-3.11,6.11a6.48,6.48,0,0,0,3.08,5.1c3.15,1.43,6.79,1.79,11,2.78-2.63,3.18-4.91,6.62-7.86,9.34-3.81,3.51-3.74,7-2,11.5a53.25,53.25,0,0,1,3.34,13.75c.66,7.21-3.6,9.89-10.43,7.3-.13-3.21,0-6.4-.45-9.51-.5-3.58-1.15-8.41-5.58-8.08-4.09.3-4.86,4.94-4.79,8.7.06,3.42.6,6.83.93,10.2-7.36,1.37-8.83.71-11.25-5.56-1-2.64-1.39-5.52-2.24-8.23a25.45,25.45,0,0,0-1.87-3.82l-2,.81,4.92,17.11c-1.41.05-2.79.16-4.18.16-6.52,0-6.58,0-7.22-6.77-.51-5.21-.63-10.47-1.28-15.66-.8-6.36-2.14-13-7.61-16.86-8.46-6-14-14.25-18.43-23.19-3.65-7.31-1.55-16.84,4.2-20.82C16,122,18.34,115,17.72,106.48a25.19,25.19,0,0,1,.15-5.69c1.7-10.92,2.95-22,5.44-32.72C26,56.61,29.8,45.5,40.12,38.05c4.09-3,8.24-6.25,11.24-10.24C58.22,18.71,68.46,14.32,77.29,8a12.39,12.39,0,0,1,6.25-2c16.3-1,32.62-1.75,48.94-2.55,1.87-.09,3.76.12,5.64.07,2.85-.08,5.86-.93,8.51-.29,9.86,2.41,19.63,3.29,29.67,1.16,3.62-.76,7.48-.48,11.23-.48,3.95,0,7.91.47,11.85.35,7.59-.24,15.21-1.4,22.76-1,12.34.65,24.61,2.67,36.95,3.35,22.56,1.23,44.48,4.55,64.47,16,10.57,6.06,22.43,10.49,31.67,18.12C373.16,55.51,393.87,65.08,414.37,75c16.11,7.76,34.13,10,51.87,10.53,16.18.46,26.95,7.71,34.51,21.22,2.69,4.8,4.5,9.61.85,14.68a14.16,14.16,0,0,1-15.78,5,174.39,174.39,0,0,1-20.55-7.48C446,110,426.72,101,407.68,91.56c-11.57-5.72-23.95-8.23-36.41-10.49A11.49,11.49,0,0,0,357.75,92.2c-.33,12.36-.16,24.74-.39,37.11-.08,4.17.53,7.42,5.28,8.6,3.49.88,6.8,2.45,10.29,3.33,9.46,2.38,16.84,11.28,16.17,19.82-.63,7.9-1.41,15.78-1.91,23.68-.8,12.66-12.69,24.63-26.14,16.86-.94-.55-2.2-.56-3.12-1.13-1.85-1.17-5-2.44-5.08-3.85-.29-3.84,3.39-2.52,5.63-3,.21,0,.34-.47,1-1.44l-7.05-2.87c.25-6.23,5.85,0,7.83-3.72-2.6-1.42-5.11-2.79-7.63-4.15l.32-1.47c3.24-.28,6.48-.58,9.73-.82,4.22-.32,6.76-2.66,7.48-6.7s-1.78-6.74-5.22-7.39C351,162.41,341.26,152.7,331.55,144s-17.7-19.49-25.43-30.1c-5.3-7.28-12.18-9.63-20.28-10.88-7.63-1.18-15.25-2.55-22.76-4.35a155.8,155.8,0,0,1-17.18-5.47c-6.2-2.27-12.18-5.16-18.41-7.35-7.71-2.73-15.47-6.57-23.4-7.11C193.65,78,183,80,172.47,80.89ZM38.32,160.59c-.14,4,4.91,7.62,9.89,7.37,4.16-.21,5.29-2.81,5.17-6.43-.19-5.46-3.66-8-9.31-7.76C38.15,153.9,38.43,157.56,38.32,160.59Zm6-28.82a8.59,8.59,0,0,0-4.17-10.32c-4.47-2.27-10.57-.58-14,4.55Z"/><path d="M86.21,152.67c-.29,9.68-.95,19.06-9.57,25.67-3.36,2.58-2.22,5.93-1.19,9.53a77.86,77.86,0,0,1,3.22,17c.27,5-2.85,7.61-7.57,7.78-10.92.41-21.85.77-32.78.94-6.66.11-8.67-1.9-9.22-8.62-.51-6.17-.39-12.45-1.58-18.48-.86-4.32-2.32-9.64-5.42-12.18-7.83-6.42-13.44-14.4-18.63-22.7-6.06-9.71-3.9-22.53,4.32-27.75a14.61,14.61,0,0,0,7.12-13.2c-.36-12.44,1.91-24.39,4.37-36.46,3.08-15.17,7.56-29,20.32-39.49,11.22-9.22,21-20.17,33.92-27.32,2.32-1.29,4.82-2.77,7.36-3.09q14.63-1.83,29.34-2.88C120.44.74,130.69.39,140.93,0c1.69-.06,3.39.67,5.1.89,5.78.75,11.56,2,17.35,2,6.11,0,12.2-1.66,18.33-1.85,9.93-.29,19.89,0,29.83.07,4.28,0,8.59-.43,12.83-.07,12.8,1.09,25.56,3.46,38.34,3.53,34.21.2,63.77,13.84,91.11,32.15,14.64,9.81,28.69,20.35,44.73,27.82,9.18,4.28,18,10,27.66,12.4a227.76,227.76,0,0,0,42.2,6.37c17.83,1,28.63,10.43,35.91,25.46,3,6.27,1.72,11.52-3.42,16.2S490,130.16,484,128.28a175.84,175.84,0,0,1-21.41-7.88q-29.18-13.45-58-27.64c-10.58-5.21-22-7.19-33.3-9.37-5.9-1.13-10.7,3-10.86,8.94-.34,12.53-.53,25.07-.35,37.6a8,8,0,0,0,3.52,5.8,38.81,38.81,0,0,0,10.61,3.68c11.87,2.61,20.16,16.3,16.94,25.91-1.07,3.2-.68,6.91-.85,10.39-.41,8.88-.49,17.79-7.33,24.82-4.05,4.18-9,6.62-14.52,5.34-5.81-1.34-11.34-4-16.92-6.22a3.7,3.7,0,0,1-2-2.72c.15-3.94.72-7.87,1.07-11.81a3.22,3.22,0,0,0-.36-1.77c-1.92-3.68-.1-5.35,3.28-6a42.66,42.66,0,0,1,7-1c3.08-.11,6-.56,6.55-4.12.6-3.93-2.87-4.2-5.44-5.33-5-2.22-10.27-4.2-14.86-7.15-6.45-4.15-12.38-9.1-19.28-14.26a56.71,56.71,0,0,0,.26,5.82c1.93,11.84-.87,23-4.93,33.93-2.37,6.38-6.9,11.17-13.68,11.86-5.87.6-11.93-.58-17.89-1.17-1.13-.11-2.92-1-3.11-1.78-.82-3.65-1.17-7.4-1.72-11.11a7.23,7.23,0,0,0-.62-2.86c-2.75-4-1.28-8.18,3.5-9.57,6.52-1.9,6.76-2,5.09-8.71-2.83-11.48-6.1-22.85-9-34.32-1.38-5.52-2.69-11.11-.66-16.86.84-2.38.15-4.1-2.81-4.84-10-2.52-19.73-5.79-29.77-7.84a85.83,85.83,0,0,1-27.42-10.29,59.29,59.29,0,0,0-10.93-4.63c-10.09-3.51-20.15-2.08-30.48.12,8.52,8.14,17.42,15.67,20.36,26.9,2.62,10,4.78,20.61,4.59,30.9-.4,21.21-2.44,42.39-3.92,63.58-.34,4.88-5,6.75-9.23,3.82a14.69,14.69,0,0,1-2.16-2.18c-1.81,3.3-2.8,7.63-5.34,8.94-2,1-5.9-1.73-9.44-3-1,.46-3.14,2.26-5.14,2.11s-3.71-2.29-4.45-2.81l-9.45,5c-1.19-3.09-3.22-6.14-3.38-9.29-.44-8.06,0-16.16,0-24.25,0-8.81,0-17.62-.12-26.43-.11-5.54-.5-11.07-.93-16.59-.55-7.11-1.27-14.21-1.88-20.94-4,3.44-7.16,7.8-11.3,9.3-12,4.32-24.4,6.94-37.3,6.71-5.37-.1-10.75.38-16.75.62C87,141.63,86.38,147.14,86.21,152.67ZM204.09,78.73c7.93.54,15.69,4.38,23.4,7.11,6.23,2.19,12.21,5.08,18.41,7.35a155.8,155.8,0,0,0,17.18,5.47c7.51,1.8,15.13,3.17,22.76,4.35,8.1,1.25,15,3.6,20.28,10.88,7.73,10.61,15.74,21.4,25.43,30.1s19.43,18.42,33.36,21.07c3.44.65,5.94,3.35,5.22,7.39s-3.26,6.38-7.48,6.7c-3.25.24-6.49.54-9.73.82l-.32,1.47c2.52,1.36,5,2.73,7.63,4.15-2,3.73-7.58-2.51-7.83,3.72l7.05,2.87c-.63,1-.76,1.4-1,1.44-2.24.48-5.92-.84-5.63,3,.1,1.41,3.23,2.68,5.08,3.85.92.57,2.18.58,3.12,1.13,13.45,7.77,25.34-4.2,26.14-16.86.5-7.9,1.28-15.78,1.91-23.68.67-8.54-6.71-17.44-16.17-19.82-3.49-.88-6.8-2.45-10.29-3.33-4.75-1.18-5.36-4.43-5.28-8.6.23-12.37.06-24.75.39-37.11a11.49,11.49,0,0,1,13.52-11.13c12.46,2.26,24.84,4.77,36.41,10.49,19,9.42,38.28,18.46,57.59,27.32a174.39,174.39,0,0,0,20.55,7.48,14.16,14.16,0,0,0,15.78-5c3.65-5.07,1.84-9.88-.85-14.68C493.19,93.2,482.42,86,466.24,85.49,448.5,85,430.48,82.72,414.37,75c-20.5-9.88-41.21-19.45-59.14-34.27-9.24-7.63-21.1-12.06-31.67-18.12-20-11.47-41.91-14.79-64.47-16-12.34-.68-24.61-2.7-36.95-3.35-7.55-.4-15.17.76-22.76,1-3.94.12-7.9-.34-11.85-.35-3.75,0-7.61-.28-11.23.48-10,2.13-19.81,1.25-29.67-1.16-2.65-.64-5.66.21-8.51.29-1.88,0-3.77-.16-5.64-.07C116.16,4.19,99.84,5,83.54,5.94A12.39,12.39,0,0,0,77.29,8c-8.83,6.33-19.07,10.72-25.93,19.82-3,4-7.15,7.28-11.24,10.24C29.8,45.5,26,56.61,23.31,68.07c-2.49,10.75-3.74,21.8-5.44,32.72a25.19,25.19,0,0,0-.15,5.69C18.34,115,16,122,8.61,127.09c-5.75,4-7.85,13.51-4.2,20.82,4.46,8.94,10,17.15,18.43,23.19,5.47,3.91,6.81,10.5,7.61,16.86.65,5.19.77,10.45,1.28,15.66.64,6.74.7,6.75,7.22,6.77,1.39,0,2.77-.11,4.18-.16l-4.92-17.11,2-.81a25.45,25.45,0,0,1,1.87,3.82c.85,2.71,1.22,5.59,2.24,8.23,2.42,6.27,3.89,6.93,11.25,5.56-.33-3.37-.87-6.78-.93-10.2-.07-3.76.7-8.4,4.79-8.7,4.43-.33,5.08,4.5,5.58,8.08.43,3.11.32,6.3.45,9.51,6.83,2.59,11.09-.09,10.43-7.3a53.25,53.25,0,0,0-3.34-13.75c-1.71-4.51-1.78-8,2-11.5,3-2.72,5.23-6.16,7.86-9.34-4.23-1-7.87-1.35-11-2.78a6.48,6.48,0,0,1-3.08-5.1c.1-2.09,1.9-4.13,3.11-6.11.19-.3,1.26-.36,1.74-.13,3,1.45,6,3,9.63,4.83.48-7.12.92-13.55,1.35-19.91-4.43-1.21-8.53-2.24-12.56-3.49-.92-.28-2.34-1.52-2.22-2a4.63,4.63,0,0,1,2.15-2.68c3.82-2,7.5-1.57,11.29.59,2.25,1.28,5,2.55,7.46,2.52,15.53-.21,31-.42,46.16-5.21,6.41-2,10.37-5.56,13-11.42.71-1.6,2.12-2.9,3.21-4.34l1.74.61c1.14,8.09,2.63,16.14,3.32,24.27.87,10.25,1.47,20.56,1.5,30.85,0,12.71-.75,25.42-.91,38.13,0,2.79,1,5.59,1.59,8.39,2-2.25,4.5-4.22,5.72-6.82,1.66-3.54,2.27-7.56,3.39-11.36a4.16,4.16,0,0,1,1.87-2.3c2.92,5.82-1.23,12.15,1.55,19.08,7.23-5.15,3.94-14.06,8.64-20.83.62,2.18,1.32,3.55,1.34,4.94.06,3.64-.51,7.33-.15,10.93.19,1.9,1.78,3.66,2.74,5.49,1.26-1.65,3.09-3.11,3.66-5,1.35-4.38,2.06-9,3.11-13.44.29-1.2.86-2.33,1.88-5,1.14,2.5,2.12,3.77,2.26,5.13.27,2.51-.29,5.13.16,7.59.3,1.64,1.74,3.06,2.68,4.58,1-1.54,2.68-3,2.85-4.63.9-8.35,1.44-16.75,2-25.13.78-10.91,2-21.82,2.11-32.74.17-13-.48-26.29-6.53-38.07-3.31-6.46-8.73-12-13.94-17.26-2.33-2.36-6.48-2.9-9.78-4.31-1.27-.54-2.48-1.21-3.71-1.82l.7-1.91C183,80,193.65,78,204.09,78.73Zm85.37,104.54.38,1.31,8.05,3.36-.46,1.46a28.31,28.31,0,0,0-5,.28c-.9.2-1.62,1.23-2.42,1.88.64.76,1.18,2.05,2,2.21,13.4,2.74,24.83,2.3,29.6-12.84,3.85-12.23,5.61-24.36,2.91-36.93a15.82,15.82,0,0,0-3-6.3c-6.17-7.81-12.43-15.55-18.93-23.09-3-3.42-6-7.35-11.24-7-1.26.09-3.18,1.41-3.46,2.51-.74,2.87-1.47,6.07-.9,8.88,1.91,9.41,4.41,18.71,6.65,28.06,1.61,6.74,3.24,13.48,4.71,20.26.72,3.27-.67,5.17-4.19,5.27-.95,0-2.13,0-2.77.49a38.56,38.56,0,0,0-3.79,4,43.23,43.23,0,0,0,4.3,1.14c2.11.34,4.25.48,6.37.71l-.36,1.32Zm-229,11c-4.22,3.65-4,12,.53,15.46C63,204.35,63.19,199.41,60.48,194.27Z"/><path class="cls-2" d="M297.92,180.24l-8.46,3,.38,1.31,8.05,3.36-.46,1.46a28.31,28.31,0,0,0-5,.28c-.9.2-1.62,1.23-2.42,1.88.64.76,1.18,2.05,2,2.21,13.4,2.74,24.83,2.3,29.6-12.84,3.85-12.23,5.61-24.36,2.91-36.93a15.82,15.82,0,0,0-3-6.3c-6.17-7.81-12.43-15.55-18.93-23.09-3-3.42-6-7.35-11.24-7-1.26.09-3.18,1.41-3.46,2.51-.74,2.87-1.47,6.07-.9,8.88,1.91,9.41,4.41,18.71,6.65,28.06,1.61,6.74,3.24,13.48,4.71,20.26.72,3.27-.67,5.17-4.19,5.27-.95,0-2.13,0-2.77.49a38.56,38.56,0,0,0-3.79,4,43.23,43.23,0,0,0,4.3,1.14c2.11.34,4.25.48,6.37.71Z"/><path class="cls-2" d="M61,209.73c2-5.38,2.18-10.32-.53-15.46C56.26,197.92,56.46,206.23,61,209.73Z"/><path d="M53.38,161.53c.12,3.62-1,6.22-5.17,6.43-5,.25-10-3.33-9.89-7.37.11-3-.17-6.69,5.75-6.82C49.72,153.52,53.19,156.07,53.38,161.53Zm-4.08-3.28c-2-1.11-5.07-.55-7.57-.15-.4.07-.31,3.16-.45,4.86l1.59.16,1.07-3.67c1.91-1.49,3.82.35,5.33,5.34C51.5,162.41,51.49,159.48,49.3,158.25Z"/><path d="M40.11,121.45a8.59,8.59,0,0,1,4.17,10.32L26.15,126C29.54,120.87,35.64,119.18,40.11,121.45ZM33,123l-.47,1.46,8.17,3.13.71-2.2Z"/><path class="cls-2" d="M49.27,164.79c2.23-2.38,2.22-5.31,0-6.54-2-1.11-5.07-.55-7.57-.15-.4.07-.31,3.16-.45,4.86l1.59.16c.36-1.22.71-2.44,1.08-3.66C45.85,158,47.76,159.8,49.27,164.79Z"/><path class="cls-2" d="M41.39,125.4,33,123l-.47,1.46,8.17,3.13Z"/><ellipse class="cls-3" cx="76.06" cy="160.59" rx="2.94" ry="5.63" transform="translate(-101.41 169.41) rotate(-67.5)"/><ellipse class="cls-3" cx="46.29" cy="161.09" rx="4.51" ry="5.63" transform="translate(-120.26 142.22) rotate(-67.5)"/><ellipse cx="46.42" cy="161.08" rx="1.47" ry="5.39"/><ellipse cx="76.79" cy="160.83" rx="4.65" ry="0.98" transform="translate(-101.41 163.83) rotate(-65.44)"/><g class="cls-4"><path d="M6.31,102.22A110.93,110.93,0,0,1,96,123.54,146.94,146.94,0,0,0,53,84.7C45.12,80,36.09,76,27.06,77.6,15,79.77,6.32,93.4,9.5,105.26"/><path d="M25.88,51.73a133.09,133.09,0,0,1,81.53,46.81C102.35,75,85,55.74,65.14,42c-6.2-4.29-13-8.27-20.56-8.79s-15.84,3.41-18.1,10.61"/><path d="M71.54,12.51A180.25,180.25,0,0,1,129.18,75c2.82-25.92-9.14-51-21.56-73.89C106.45-1,105.17-3.29,103-4.44S98.25-5.37,95.84-5a99.49,99.49,0,0,0-33,10.45"/><path d="M141.39.66A97,97,0,0,1,163.13,62.8a89.29,89.29,0,0,0,7.77-44.36c-.48-5.91-1.63-11.94-4.79-17s-8.66-8.9-14.6-8.76c-5.32.13-10,3.32-14.16,6.71"/><path d="M136.32,155.43c9.21-32,18.28-67,5.18-97.61l14.76,51.24c1.89,6.55,3.79,13.25,3.41,20.05-.22,3.92-1.39,8.09-4.49,10.52a18,18,0,0,1-6.15,2.7l-20.53,6.08"/><path d="M116.34,151.19a171.57,171.57,0,0,0,.38-44.19,78.5,78.5,0,0,1,5,36.34c-.46,4.54-1.46,9.34-4.65,12.6s-9.23,4.07-12.14.55"/><path d="M187.66,2.2a504.35,504.35,0,0,1,19.48,64.41,98.5,98.5,0,0,0,7.78-39.76c-.12-8.57-1.62-17.67-7.33-24.07S190.85-5.77,184.74.24"/><path d="M234.37-3.62A101.83,101.83,0,0,1,243,78.29,73.15,73.15,0,0,0,252,9.75c-2.83-7.23-8.4-14.93-16.16-14.61"/><path d="M270.3-2.33A158.21,158.21,0,0,1,268.77,79c9.77-7.29,18.74-16.1,24.13-27s6.86-24.25,1.82-35.36S277.42-2.55,265.37-.72"/><path d="M322.06,8.4c4.08,14.53,1.32,30.34-4.93,44.07s-15.78,25.69-25.69,37.07c9.59.92,18.33-5.12,25.81-11.18,8.58-7,17.24-15.07,19.74-25.83,3-13.08-3.82-26.25-10.83-37.7"/><path d="M358.2,39.17a168.55,168.55,0,0,1-22.78,73.45c18.49-14,27.8-36.77,35.53-58.64,1.12-3.16,2.23-6.59,1.28-9.81-2.15-7.24-12.06-7.8-19.56-6.89"/><path d="M336.34,164.69l6.54-45.16A113.1,113.1,0,0,1,349,154c.11,5.24-.37,11-4.12,14.7s-11.69,2.71-12.54-2.46"/><path d="M206.67,113a4,4,0,0,1,0-4.48,474.57,474.57,0,0,0-30.72,37.72,66.76,66.76,0,0,0,43.66-20.35,5.22,5.22,0,0,0,1.2-1.64c.72-1.79-.54-3.72-1.73-5.25q-5.31-6.86-10.64-13.7a1.62,1.62,0,0,0-1.22,2.58"/><path d="M214.84,151.26A75.6,75.6,0,0,1,178.42,172a121.4,121.4,0,0,0,40.57,6.5,134.53,134.53,0,0,0-2.33-33.69"/><path d="M412.82,59.09a92.37,92.37,0,0,1-14,44.88c7.76-1.58,15.47-4.5,21.25-9.92s9.3-13.67,7.6-21.4-9.46-14.12-17.28-12.87"/><path d="M444.57,79.17a50.15,50.15,0,0,1-13.32,39,50.76,50.76,0,0,0,13.81-3.54c6.65-2.73,12.87-7,16.71-13.08s5-14.13,1.75-20.56a28.57,28.57,0,0,0-22,.07"/><path d="M486.16,91.32a109.79,109.79,0,0,1-10.1,36.15,40.58,40.58,0,0,0,20.69-31,9.12,9.12,0,0,0-.37-4.44c-1.22-2.89-4.93-4-8-3.35s-5.61,2.72-8.05,4.7"/><path d="M265.54,147.43a133.38,133.38,0,0,0,57.27,13.85,387.87,387.87,0,0,0-51.53-33.63,32.09,32.09,0,0,0-2.72,21.76"/><path d="M277.87,169.29a90.33,90.33,0,0,0,48.06,16.4L284.1,156.38a5,5,0,0,0-2.23-1.07c-4.84-.53-2.71,10.17-7.5,11"/></g><path class="cls-5" d="M49.28,136.18c2,2.74,2.45,6.19,2.95,9.46a65.86,65.86,0,0,1,.88,11.13,1.51,1.51,0,0,0,3,.39,57.56,57.56,0,0,0,1.57-14.09,25.58,25.58,0,0,0-.54-6.6c-.67-2.26-3.52-2.74-5.53-3.13-1.38-.27-2.63,1.41-1.46,2.5a8,8,0,0,1,2.57,6.23c-.07,1.93,2.93,1.93,3,0a11,11,0,0,0-3.45-8.35l-1.46,2.51a20.91,20.91,0,0,1,2.82.75c.49.17.61.16.7.66a10.6,10.6,0,0,1,.13,1.25,54.56,54.56,0,0,1,.22,5.86,53.59,53.59,0,0,1-1.47,11.62l3,.4a72.29,72.29,0,0,0-1-11.93c-.55-3.52-1.1-7.23-3.26-10.17-1.12-1.54-3.73,0-2.59,1.51Z"/><path class="cls-5" d="M48.32,151a12,12,0,0,1,12,1.29,1.51,1.51,0,0,0,2.05-.53,1.54,1.54,0,0,0-.54-2.06,14.93,14.93,0,0,0-15-1.29,1.52,1.52,0,0,0-.54,2,1.54,1.54,0,0,0,2,.54Z"/><path class="cls-5" d="M43,144.86c7.53-2.63,16.08-3.05,22.8,1.83,1.56,1.14,3.06-1.46,1.52-2.59-7.32-5.32-16.91-5-25.11-2.14-1.81.64-1,3.54.79,2.9Z"/><path class="cls-6" d="M54.21,192.71a17.08,17.08,0,0,0,.14,15.5,1.51,1.51,0,0,0,2,.54c2.44-1.49,2.49-4.83,2.6-7.38.11-2.74-.24-5.69-2-7.93a1.51,1.51,0,0,0-2.74.35,22.81,22.81,0,0,0-.62,8.89,1.54,1.54,0,0,0,1.5,1.5,1.51,1.51,0,0,0,1.5-1.5,20.63,20.63,0,0,1,.52-8.09l-2.75.36a9.15,9.15,0,0,1,1.56,6,27,27,0,0,1-.24,3.24c-.11.71-.29,1.63-.88,2l2,.54a13.89,13.89,0,0,1-.14-12.48,1.54,1.54,0,0,0-.54-2.05,1.51,1.51,0,0,0-2,.54Z"/></svg>