<svg xmlns="http://www.w3.org/2000/svg" xmlns:xlink="http://www.w3.org/1999/xlink" viewBox="0 0 861.63 368.8"><defs><style>.cls-1{fill:none;}.cls-2{clip-path:url(#clip-path);}.cls-3{fill:#cce277;}.cls-4{clip-path:url(#clip-path-2);}.cls-5{opacity:0.61;}.cls-6{fill:#fff;}.cls-7{fill:#ffe882;}.cls-8{fill:#e06124;}.cls-9{fill:#0c0c0c;}.cls-10{clip-path:url(#clip-path-3);}.cls-11{fill:#9fd6d4;}.cls-12{fill:#80a337;}.cls-13{fill:#ebd540;}.cls-14{fill:#a357a3;}</style><clipPath id="clip-path"><rect class="cls-1" x="-4463.7" y="-1577.2" width="2248" height="2508"/></clipPath><clipPath id="clip-path-2"><path class="cls-1" d="M2256.66,440.44c-38.6-56.82-34.92-129.28,2.88-187.69,46-71.16,135.83-120.15,182.77-190.95,45-67.93,44.94-151.29,7.68-220.78s-109.24-125.18-194-159.77c-51.25-20.9-108.78-35.47-148.74-68.22-48.6-39.82-62.7-99.78-108.69-141.51-55.87-50.68-148.27-65.3-234.18-65.84s-173.09,9.94-257.13-2.9c-95.77-14.64-179-58.19-268.06-89s-196.11-48.21-282.74-10.68c-134.19,58.13-149.25,212.4-268,288.94-60.34,38.87-140.64,52.9-203.29,89.4-68.89,40.13-110.72,105.44-121.53,172s7.3,134.22,40.64,195.23c32.85,60.14,80.38,115.12,105.43,177.67,19.1,47.69,24.28,97.3,23.87,147.7,29.19,10,55.49,24,76.57,43.15,46,41.72,60.09,101.68,108.69,141.5,40,32.75,97.49,47.31,148.74,68.22,84.78,34.59,156.76,90.27,194,159.77,19.84,37,29,77.92,26.59,118.35,27.44,10.18,53.74,23.5,81,34.11,143.54,56,332.18,32.24,450.21-56.72,34.44-26,63-56.61,99.48-80.79s84.21-41.78,130.15-34.35c40.09,6.49,71,30.42,99.6,53.3l146,116.95c44.26,35.45,124.7,60.26,121.44,110.58,88.76-57.92,167.72-128.78,208.36-213.56s38.2-185-25.26-258.75C2357.19,527.15,2291.92,492.36,2256.66,440.44Z"/></clipPath><clipPath id="clip-path-3"><path class="cls-1" d="M2.74,185.35C15.15,159.74,33.53,143.73,63.9,142a386.25,386.25,0,0,0,71.84-10.84c16.43-4.15,31.47-13.82,47.1-21.11C210.16,97.31,234.07,79.36,259,62.66c46.55-31.18,96.88-54.4,155.14-54.74,21.76-.12,43.49-4.16,65.27-6C486.64,1.3,494,2,501.26,2c16.93-.05,33.88-.61,50.8-.11,10.43.32,20.81,3.13,31.21,3.14,9.85,0,19.7-2.11,29.54-3.39,2.91-.37,5.81-1.61,8.68-1.5,17.43.65,34.88,1.26,52.28,2.5q25,1.77,50,4.9c4.34.54,8.59,3.06,12.55,5.26C758.21,25,774.93,43.64,794,59.35c21.72,17.84,29.35,41.39,34.6,67.22,4.18,20.56,8.06,40.91,7.43,62.09-.26,8.86,3.59,17.06,12.14,22.48,14,8.88,17.67,30.71,7.35,47.24-8.84,14.14-18.4,27.72-31.73,38.65-5.28,4.33-7.76,13.38-9.22,20.74-2,10.27-1.83,21-2.69,31.47-.94,11.43-4.36,14.87-15.7,14.68-18.61-.3-37.22-.9-55.82-1.6-8-.29-13.34-4.78-12.89-13.26.53-9.76,2.79-19.57,5.48-29,1.75-6.12,3.71-11.83-2-16.22-14.68-11.27-15.81-27.23-16.3-43.71-.28-9.42-1.38-18.81-2.17-29-10.22-.41-19.38-1.22-28.53-1.06-22,.4-43.15-4.06-63.5-11.42-7.06-2.55-12.36-10-19.24-15.84-1.05,11.46-2.27,23.54-3.21,35.65-.73,9.4-1.39,18.83-1.58,28.25-.29,15-.23,30-.2,45,0,13.77.77,27.57,0,41.29-.29,5.36-3.75,10.55-5.76,15.81l-16.09-8.59c-1.27.88-4.3,4.54-7.58,4.78s-7.05-2.81-8.76-3.59c-6,2.11-12.69,6.79-16.06,5.05-4.33-2.23-6-9.6-9.1-15.22a26.12,26.12,0,0,1-3.68,3.72c-7.13,5-15.14,1.8-15.72-6.52-2.52-36.07-6-72.13-6.66-108.24-.33-17.52,3.34-35.52,7.81-52.62,5-19.13,20.16-31.95,34.67-45.8-17.6-3.75-34.72-6.18-51.9-.2-6.36,2.21-12.89,4.45-18.62,7.88-14.57,8.69-30,14.14-46.68,17.52-17.1,3.48-33.76,9.06-50.7,13.34-5,1.27-6.22,4.2-4.78,8.25,3.46,9.8,1.23,19.3-1.12,28.7-4.9,19.53-10.47,38.89-15.28,58.44-2.84,11.5-2.43,11.6,8.67,14.83,8.15,2.37,10.64,9.42,6,16.3-.87,1.28-.83,3.21-1.07,4.86-.94,6.32-1.52,12.71-2.93,18.92-.31,1.38-3.37,2.84-5.28,3-10.15,1-20.48,3-30.47,2-11.54-1.17-19.26-9.32-23.3-20.19-6.91-18.62-11.67-37.61-8.39-57.76.45-2.8.27-5.69.44-9.92C292.16,256.55,282.05,265,271.07,272c-7.81,5-16.72,8.4-25.29,12.17-4.39,1.93-10.29,2.39-9.26,9.09.93,6,5.9,6.81,11.15,7a72,72,0,0,1,11.91,1.74c5.76,1.19,8.86,4,5.58,10.3a5.73,5.73,0,0,0-.61,3c.61,6.71,1.57,13.39,1.83,20.11.06,1.54-1.87,4-3.45,4.63-9.49,3.85-18.91,8.31-28.81,10.59-9.44,2.17-17.82-2-24.72-9.09-11.64-12-11.78-27.15-12.48-42.27-.28-5.92.38-12.23-1.45-17.68-5.47-16.38,8.64-39.68,28.85-44.13,6.22-1.37,12.6-3.18,18.07-6.27,3-1.69,6-6.44,6-9.86.29-21.33,0-42.69-.6-64-.27-10.21-8.44-17.16-18.51-15.23-19.3,3.71-38.68,7.08-56.69,16q-49.07,24.18-98.77,47.07c-11.73,5.41-24.1,9.56-36.46,13.41-10.27,3.21-20.25,2.13-28.79-5.65C-.18,205-2.43,196,2.74,185.35Z"/></clipPath></defs><g id="Layer_4" data-name="Layer 4"><g class="cls-2"><path class="cls-3" d="M2256.66,440.44c-38.6-56.82-34.92-129.28,2.88-187.69,46-71.16,135.83-120.15,182.77-190.95,45-67.93,44.94-151.29,7.68-220.78s-109.24-125.18-194-159.77c-51.25-20.9-108.78-35.47-148.74-68.22-48.6-39.82-62.7-99.78-108.69-141.51-55.87-50.68-148.27-65.3-234.18-65.84s-173.09,9.94-257.13-2.9c-95.77-14.64-179-58.19-268.06-89s-196.11-48.21-282.74-10.68c-134.19,58.13-149.25,212.4-268,288.94-60.34,38.87-140.64,52.9-203.29,89.4-68.89,40.13-110.72,105.44-121.53,172s7.3,134.22,40.64,195.23c32.85,60.14,80.38,115.12,105.43,177.67,19.1,47.69,24.28,97.3,23.87,147.7,29.19,10,55.49,24,76.57,43.15,46,41.72,60.09,101.68,108.69,141.5,40,32.75,97.49,47.31,148.74,68.22,84.78,34.59,156.76,90.27,194,159.77,19.84,37,29,77.92,26.59,118.35,27.44,10.18,53.74,23.5,81,34.11,143.54,56,332.18,32.24,450.21-56.72,34.44-26,63-56.61,99.48-80.79s84.21-41.78,130.15-34.35c40.09,6.49,71,30.42,99.6,53.3l146,116.95c44.26,35.45,124.7,60.26,121.44,110.58,88.76-57.92,167.72-128.78,208.36-213.56s38.2-185-25.26-258.75C2357.19,527.15,2291.92,492.36,2256.66,440.44Z"/><g class="cls-4"><g class="cls-5"><path class="cls-6" d="M939.68-652.3c-12.91-42.29-31.14-79.25-51.56-104.59-36.92-45.83-56.65-30.22-87.66-17.68-44.87,18.15-25,76.48-87.75-2.65-5.26-8.28-16-8.75-20.54-4.95-3.81,3.16-1.23,12.6.66,20.24.54,2.19,1.13,4.47,1.7,6.7.05.32,0,.62.12,1L880.4-3.18C850.74-20.75,814.77-9.81,788.17,30c-36.95,55.28-41.75,145-10.74,200.35s86.11,55.46,123.06.19C931.33,184.38,934.72,115,921.08,60.68L757.38-601.26c40,5.6,22.48,6.54,44.86-19.74,17.8-20.91,33-56.49,57.13-58.67,35.38-3.2,30.61,45,54.74,101.86,8,18.87,18.36,35.52,28.33,40.77C976.19-519.25,951.65-613.11,939.68-652.3Z"/><path class="cls-6" d="M607.26-135.23A324,324,0,0,0,566.9-33.92c-4.07,19.29-6.22,39.47.15,58.28s22.83,36,44.84,40.19c14.14,2.67,28.8-.18,42.82-3.26,37.86-8.32,78.64-20.69,98.45-50,18.06-26.71,13.19-61.91-5.23-88.43s-48.37-45.53-79.81-60.07c-11.42-5.28-23.54-10.17-36.46-10.73-21.47-.93-42.78,11.68-49.69,29.4"/><path class="cls-6" d="M1070.91,709.22a124,124,0,0,0,27.8,43.74,234.83,234.83,0,0,0-69.45,3.11C967.67,768.48,914.48,801.15,863,833c-.16-33.57,14.32-65.79,19.2-99.07,4.71-33.26-3.66-72-36.57-89.58-15.37-8.08-33.7-10.25-51.59-11.1a422.85,422.85,0,0,0-170.25,26.7,246.78,246.78,0,0,0,32.91-111.22c.71-14.65-.4-30.24-9.72-42.61-11.66-15.69-34-22.58-55.23-26.08-71.23-12.29-147.52.13-208.92,33.91,8.16-31.23,33.61-56.3,51.57-84.07s27.52-65.1,4.55-90C414,312.6,366,315.29,327.48,324.46a534.67,534.67,0,0,0-129.61,49.91c25.3-37.41,51.32-76.52,54.51-119.93,3-43.26-24.29-91.7-73-101.48-22.88-4.75-47.07-.23-69.82,4.94A924.59,924.59,0,0,0-53.65,211.41c43.81-43.68,72.69-98.63,82.17-156C31.1,40.51,32,24.19,23,11.2,7.09-11.9-30.39-13.34-60.81-8.89c-74.19,10.63-144.6,40-200.53,83.53,9.15-55.08,92.83-85,96.07-140.43,2.58-46.54-57.94-80.13-111-76.07S-374.91-108.18-417-79.81a365.26,365.26,0,0,0,46.56-130.44c3.55-24.16,4.38-50-9.13-71.25-19.91-31.9-66.79-44.64-108.08-39.82s-78.48,23.7-114.32,42.19c26.63-33.88,42.35-74.15,45-115.13,1.26-18.45-1.13-39.08-16.53-51.83-18.75-15.7-48.66-13.39-74-8.2-57.49,11.86-112.26,33.63-160.14,63.56C-768.75-437.42-759.85-502-785-555.52c-25.3-53.38-83.64-94-149.1-103.51a2176.81,2176.81,0,0,1,239.17-32c15.29-1.25,35,1.14,45.21,9.24q43.88-21.7,87.77-43.25c-26.33,41.69-53,91.53-30.45,134.85,20.69,39.37,76.77,56.67,126,51.5s93.34-28.09,135.79-50.45c-35.05,19.8-62,51.59-68.93,87.55s7.9,75.25,40.71,97.76c60.28,41.28,147.57,15.22,217.43-12.31-32.76,45.56-56.77,107.13-20.51,150.65,22.1,26.94,62.34,38.89,100.2,38.65,38-.26,74.68-11,110.65-21.63C-2.19-213.71.71-138.15,47.51-99S171-56.57,229-82c-9.17,27.37-18.42,56-12.15,83.88,9.62,43.52,55.82,75.43,105.3,86.06,49.3,10.64,101.29,3.49,150.8-6.51-37.55,44-66.06,105.59-32.83,152.32,23.07,32.44,70.44,47,114.24,45.3s85.46-16.6,125.94-31.32c-12.19,30.73-24.46,62.51-22.49,94.91,2,32.55,21.87,66.4,56.72,77.94,62.2,20.38,126.33-37.06,192.41-30.63-42.38,48.41-38.16,123.14,9.24,167.62,47.42,44.64,132.75,53.79,191.26,20.65C1069.32,611.74,1054.78,664.29,1070.91,709.22Z"/><path class="cls-6" d="M2832.93,300.76a123.68,123.68,0,0,0,27.37,44,234.38,234.38,0,0,0-69.48,2.59c-61.71,11.94-115.22,44.21-167.06,75.63.17-33.57,15-65.68,20.19-98.92,5-33.23-2.94-72.08-35.68-89.85-15.29-8.2-33.6-10.51-51.48-11.49a423.23,423.23,0,0,0-170.51,25.41,247.37,247.37,0,0,0,34-111c.84-14.64-.11-30.24-9.3-42.68-11.51-15.78-33.79-22.84-55-26.5-71.11-12.82-147.52-1-209.25,32.34,8.47-31.16,34.16-56,52.4-83.67s28.17-64.9,5.45-90c-24.62-27.4-72.68-25.08-111.28-16.2a536,536,0,0,0-130.09,48.93c25.66-37.21,52.08-76.13,55.69-119.52,3.46-43.23-23.38-91.87-72-102-22.83-4.93-47.06-.59-69.86,4.41a926.53,926.53,0,0,0-163.74,52.28c44.24-43.35,73.67-98.08,83.72-155.36,2.73-14.9,3.8-31.21-5.09-44.27-15.68-23.22-53.14-24.94-83.6-20.72-74.3,10.07-145,38.91-201.35,82,9.69-55,93.67-84.27,97.46-139.71,3-46.52-57.14-80.55-110.29-76.9s-98.92,32.94-141.33,61a366.15,366.15,0,0,0,47.85-130.08c3.79-24.14,4.88-49.93-8.42-71.32-19.59-32-66.34-45.14-107.68-40.63s-78.71,23.11-114.74,41.33c27-33.68,43.09-73.84,46.19-114.79,1.44-18.44-.74-39.09-16-52-18.6-15.84-48.53-13.76-73.92-8.76-57.61,11.42-112.59,32.78-160.77,62.35,39.36-46.39,48.89-110.87,24.28-164.61-24.77-53.57-82.7-94.66-148.07-104.64a2182,2182,0,0,1,239.48-30.22c15.3-1.14,35,1.4,45.11,9.58q44.1-21.37,88.21-42.59c-26.75,41.49-53.94,91.13-31.8,134.62,20.31,39.52,76.21,57.24,125.47,52.45s93.62-27.39,136.28-49.43c-35.24,19.53-62.52,51.12-69.79,87s7.15,75.31,39.73,98.06c59.88,41.73,147.41,16.33,217.55-10.67-33.21,45.31-57.83,106.7-22,150.49,21.83,27.1,62,39.36,99.81,39.4,38,0,74.79-10.4,110.86-20.8-51.45,34.41-49.29,110-2.89,149.45s123.08,43.39,181.27,18.4c-9.45,27.3-19,55.81-13,83.78,9.19,43.59,55.08,75.85,104.44,86.85,49.19,11,101.25,4.25,150.86-5.37-38,43.75-67.1,105.09-34.34,152.06,22.75,32.62,70,47.5,113.78,46.16s85.63-16,126.25-30.36c-12.49,30.62-25.07,62.31-23.43,94.73s21.21,66.56,55.94,78.36c62,20.85,126.7-36.11,192.71-29.18-42.86,48.09-39.38,122.85,7.58,167.69,47,45,132.2,54.79,191,22.08C2832.31,203.28,2817.25,255.72,2832.93,300.76Z"/></g></g><path class="cls-7" d="M2306.9,247c-44.83,66.7-117.81,107.34-167.45,169.84-47.58,59.89-66.54,148.05-27.84,217.49,39.72,71.25,123.77,103,167.77,171.23A211.38,211.38,0,0,1,2313,918.65c.2,40.54-12.21,79.71-31.31,115.17-45.12,83.75-121.95,146.94-200.27,198.36l2,5.54c1.2-31.32-21.17-51.35-45.37-67.46-15.26-10.15-31.37-19-47-28.44-16.56-10-31.55-21.45-46.64-33.53q-63.28-50.65-126.49-101.37c-34.39-27.62-71.21-55.11-117-57.48-45.27-2.33-89.85,16.54-126,42.6-37.29,26.89-68.9,60.84-107.22,86.41-68.07,45.43-150.25,68.58-231.46,73.57-46.28,2.84-93.06-.3-138.37-10.3-51-11.24-96.12-35.27-144.68-53.3l1.14,8.57a242.05,242.05,0,0,0-44.76-154.42c-28.63-40.35-67.49-72.88-109.66-98.3-48-29-100.9-44.56-152.3-66-25.16-10.49-50.79-23-70.65-42-18.48-17.74-32.63-38.79-46-60.51-15.63-25.43-30.89-51.46-52.8-72.12-22.36-21.09-49.8-35.41-78.61-45.54l1.28,5.86c.35-58.25-6.74-116.41-31.61-169.67-23.67-50.67-58.85-94.72-87.5-142.48C252,202.2,229.51,146.51,227.86,88.07,226.37,35.23,246.8-15.24,280.52-55.47c34.44-41.07,80-66.45,129.32-85.61,48.41-18.81,99.64-33.25,143.49-61.92,78-51,112-139.69,168.34-209.9,32.05-39.94,72.57-71.43,122-86.73,52.45-16.25,108.94-14.93,162.55-5.61,112,19.47,211.21,79,321.16,105.65,118.15,28.62,238.49,3.17,358,14.17,50.63,4.65,103,15.32,147.1,41.8s66.48,69.31,93.55,111.15c13,20,27.74,38.93,46.59,53.78,20.24,15.94,43.88,27,67.67,36.53,50.67,20.34,102.07,36.29,149,65,83.92,51.44,163.18,143,147.74,248.51-4,27.2-15.13,52.67-30,75.61-2.59,4-3.1,10.61-3,15.23,0,1.72.18,8.38,2.71,4.5,29-44.57,41.73-99.33,36.86-152.22-4.68-50.95-26.52-97.95-59.32-136.86-33.16-39.34-75.73-70.32-121.25-93.85-49.49-25.58-104.35-38.28-153.75-63.86-24.32-12.59-45.34-29-62.36-50.6-15.69-19.91-27.82-42.24-41.39-63.57-13.27-20.86-28.19-40.57-47.48-56.26s-41.54-27.08-64.75-35.55c-112.91-41.2-235.4-17.51-352.35-21.52-62-2.13-121.33-14.87-179.74-35.45-55.65-19.62-109.45-44.24-165.51-62.75-105.14-34.7-232.61-49.3-325.38,23.89C696-423.38,665.09-329,600.22-262.29c-37.73,38.81-84.88,60.87-135,79.43-50.47,18.69-102.76,35.5-145.56,69.32C236.77-48,206,61.84,230.48,163c14,57.52,44.07,107.57,76.52,156.35,33.33,50.12,66.15,100.05,79.3,159.71,6.92,31.37,9,63.49,8.79,95.55,0,1.16-.37,5.28,1.28,5.86,26.13,9.18,51.34,21.72,72.39,40,19.46,16.87,34.08,38.16,47.56,59.89,13.3,21.45,25.83,43.57,42.4,62.74,15.95,18.45,34.77,32.69,56.34,44,46.66,24.49,98.54,36.92,145.83,60.12,45.4,22.27,88,51.6,122.08,89.21,40.86,45.11,69.12,103.9,65.87,165.88-.08,1.55-1.07,7.75,1.14,8.57,42.48,15.76,82.37,37.17,126.36,48.85a485.06,485.06,0,0,0,121.27,15.73c79.79.48,160.88-16.76,231.87-53.7,37.48-19.5,69.27-45.69,101-73.28,35.17-30.56,72-59.08,117.84-71.12,44.78-11.74,87.55-3.16,126.06,21.87,40.56,26.36,77.2,59.77,114.9,90,23,18.43,45.81,37.15,69.06,55.27,15.18,11.83,32,21.35,48.56,31.08,25.28,14.86,72.11,37.71,70.76,72.92,0,1-.14,6.93,2,5.54,129.51-85,265.13-219.24,235.43-389.29a218.47,218.47,0,0,0-49.28-104.6c-26.33-30.64-59.65-54.17-90.22-80.25-31.07-26.52-60.16-56.72-72.34-96.73-13.35-43.88-3.77-87.51,20.73-125.5,48.29-74.87,132.92-117,182.6-190.92,2.63-3.91,3.1-10.67,3-15.24C2309.59,249.7,2309.47,243.16,2306.9,247Z"/></g></g><g id="Layer_8" data-name="Layer 8"><path d="M712.66,231c-10.22-.41-19.38-1.22-28.53-1.06-22,.4-43.14-4.07-63.5-11.42-7.06-2.55-12.36-10-19.24-15.84-1,11.46-2.27,23.54-3.21,35.65-.73,9.4-1.39,18.82-1.58,28.25-.29,15-.22,30-.19,45,0,13.78.76,27.58,0,41.3-.29,5.36-3.75,10.55-5.76,15.81l-16.09-8.59c-1.27.87-4.3,4.54-7.58,4.78s-7-2.81-8.75-3.59c-6,2.11-12.7,6.78-16.07,5.05-4.33-2.23-6-9.61-9.09-15.22a26.22,26.22,0,0,1-3.69,3.72c-7.12,5-15.14,1.8-15.72-6.52-2.51-36.07-6-72.13-6.66-108.24-.32-17.52,3.34-35.52,7.81-52.62,5-19.13,20.16-31.95,34.67-45.8-17.6-3.75-34.72-6.18-51.9-.2-6.36,2.21-12.88,4.45-18.62,7.88-14.56,8.69-30,14.13-46.68,17.52-17.1,3.48-33.76,9.06-50.7,13.34-5,1.27-6.21,4.2-4.78,8.25,3.46,9.79,1.24,19.3-1.12,28.7-4.89,19.53-10.46,38.89-15.28,58.44-2.84,11.5-2.43,11.6,8.67,14.83,8.15,2.37,10.64,9.42,6,16.3-.87,1.28-.83,3.21-1.07,4.86-.93,6.32-1.52,12.71-2.93,18.92-.31,1.37-3.37,2.84-5.28,3-10.15,1-20.48,3-30.47,2-11.54-1.17-19.26-9.32-23.3-20.19-6.91-18.62-11.67-37.61-8.39-57.77.45-2.79.28-5.68.45-9.92-11.75,8.8-21.86,17.22-32.84,24.29-7.81,5-16.72,8.39-25.29,12.17-4.38,1.93-10.29,2.38-9.26,9.09.93,6,5.9,6.81,11.15,7a72.92,72.92,0,0,1,11.91,1.73c5.77,1.2,8.86,4,5.58,10.3a5.75,5.75,0,0,0-.61,3c.61,6.71,1.58,13.39,1.83,20.11.06,1.54-1.87,4-3.45,4.63-9.48,3.85-18.91,8.31-28.8,10.59-9.45,2.17-17.83-2-24.73-9.09-11.64-12-11.78-27.15-12.48-42.27-.28-5.93.38-12.24-1.44-17.68-5.48-16.38,8.63-39.68,28.84-44.13,6.22-1.37,12.6-3.18,18.07-6.27,3-1.69,5.95-6.45,6-9.86.29-21.34,0-42.69-.6-64-.27-10.22-8.44-17.16-18.5-15.23-19.31,3.71-38.69,7.07-56.7,15.95Q123.7,182.12,74,205c-11.73,5.41-24.11,9.57-36.47,13.42-10.27,3.21-20.25,2.13-28.79-5.65-8.74-8-11-16.91-5.83-27.58,12.41-25.6,30.79-41.61,61.16-43.36A385.43,385.43,0,0,0,135.91,131c16.43-4.14,31.48-13.82,47.1-21.1,27.32-12.72,51.23-30.67,76.17-47.37C305.73,31.33,356.05,8.1,414.31,7.77c21.76-.12,43.49-4.16,65.27-6,7.23-.62,14.56.12,21.85.11,16.94-.05,33.89-.62,50.8-.11,10.43.31,20.81,3.12,31.22,3.14,9.84,0,19.69-2.11,29.53-3.39,2.91-.38,5.81-1.61,8.68-1.5C639.1.66,656.55,1.27,674,2.5q25,1.79,49.95,4.9c4.35.55,8.59,3.06,12.55,5.26,21.94,12.19,38.65,30.83,57.76,46.53,21.71,17.85,29.34,41.4,34.59,67.23,4.18,20.56,8.06,40.91,7.43,62.09-.26,8.85,3.59,17.05,12.14,22.48,14,8.88,17.67,30.71,7.35,47.24-8.84,14.14-18.4,27.72-31.73,38.65-5.27,4.32-7.76,13.38-9.21,20.74-2,10.26-1.83,21-2.7,31.46-.94,11.44-4.36,14.88-15.7,14.69-18.61-.3-37.22-.91-55.82-1.6-8-.3-13.34-4.78-12.88-13.26.52-9.76,2.78-19.57,5.48-29,1.74-6.12,3.7-11.83-2-16.22-14.68-11.27-15.81-27.23-16.3-43.72C714.55,250.54,713.45,241.15,712.66,231ZM568,137.73l1.18,3.25c-2.1,1-4.15,2.19-6.31,3.1-5.62,2.41-12.68,3.33-16.66,7.34-8.86,8.91-18.09,18.38-23.74,29.39-10.29,20.06-11.4,42.64-11.11,64.81.25,18.6,2.27,37.18,3.59,55.76,1,14.27,2,28.56,3.47,42.78.3,2.77,3.18,5.27,4.87,7.89,1.58-2.59,4-5,4.55-7.8.76-4.18-.19-8.65.27-12.92.25-2.32,1.9-4.48,3.85-8.74,1.73,4.55,2.72,6.48,3.2,8.52,1.79,7.62,3,15.42,5.29,22.88,1,3.15,4.1,5.65,6.25,8.44,1.63-3.11,4.34-6.11,4.66-9.34.6-6.14-.36-12.41-.26-18.61,0-2.36,1.23-4.7,2.29-8.42,8,11.53,2.39,26.71,14.7,35.48,4.75-11.81-2.33-22.58,2.65-32.5a7.15,7.15,0,0,1,3.17,3.93c1.91,6.46,3,13.31,5.78,19.33,2.07,4.43,6.41,7.78,9.74,11.62,1-4.76,2.77-9.54,2.71-14.29-.28-21.64-1.61-43.28-1.55-64.92.05-17.52,1.07-35.07,2.55-52.54,1.18-13.83,3.72-27.54,5.65-41.31l3-1c1.86,2.45,4.27,4.65,5.47,7.39,4.41,10,11.15,16,22.07,19.45,25.76,8.15,52.15,8.5,78.6,8.86,4.24,0,8.86-2.1,12.7-4.29,6.45-3.68,12.72-4.45,19.23-1a7.88,7.88,0,0,1,3.65,4.56c.2.83-2.22,2.94-3.78,3.43-6.86,2.13-13.84,3.88-21.39,5.94.74,10.83,1.48,21.77,2.31,33.89,6.12-3.09,11.21-5.75,16.39-8.22.81-.38,2.65-.28,3,.23,2.07,3.36,5.13,6.83,5.31,10.4.14,2.91-2.6,7.5-5.25,8.69-5.37,2.42-11.56,3-18.76,4.72,4.47,5.41,8.36,11.27,13.38,15.9,6.48,6,6.37,11.92,3.46,19.58a90.19,90.19,0,0,0-5.69,23.42c-1.13,12.27,6.13,16.83,17.76,12.42.22-5.46,0-10.88.76-16.18.85-6.1,2-14.33,9.51-13.76,7,.52,8.26,8.41,8.15,14.81-.1,5.82-1,11.63-1.58,17.37,12.52,2.33,15,1.21,19.15-9.47,1.73-4.49,2.37-9.39,3.81-14,.7-2.28,2.1-4.34,3.19-6.5l3.43,1.38L788.18,358c2.4.1,4.77.28,7.13.27,11.09,0,11.19,0,12.3-11.51.85-8.88,1.07-17.83,2.18-26.67,1.35-10.83,3.63-22.05,12.94-28.7,14.41-10.29,23.79-24.28,31.39-39.49,6.21-12.45,2.63-28.67-7.16-35.46-12.55-8.7-16.56-20.59-15.5-35.08a43,43,0,0,0-.26-9.69c-2.9-18.61-5-37.41-9.27-55.72-4.52-19.51-11-38.42-28.61-51.12-7-5-14-10.64-19.14-17.42C762.5,31.85,745.06,24.38,730,13.6a21.16,21.16,0,0,0-10.64-3.49c-27.76-1.65-55.54-3-83.32-4.33-3.19-.16-6.4.19-9.6.11-4.86-.14-10-1.59-14.51-.49-16.78,4.1-33.41,5.59-50.51,2-6.16-1.3-12.73-.83-19.11-.82-6.73,0-13.47.8-20.19.59-12.93-.4-25.9-2.38-38.75-1.7-21,1.11-41.9,4.55-62.92,5.7-38.41,2.09-75.72,7.75-109.76,27.27-18,10.33-38.2,17.86-53.93,30.87-30.53,25.23-65.8,41.52-100.7,58.34C128.64,140.86,98,144.7,67.76,145.56,40.2,146.34,21.87,158.69,9,181.7c-4.57,8.17-7.66,16.36-1.44,25a24.12,24.12,0,0,0,26.87,8.45c11.83-3.73,23.74-7.56,35-12.73,32.88-15.09,65.64-30.48,98.06-46.52,19.71-9.74,40.77-14,62-17.86a19.58,19.58,0,0,1,23,19c.55,21,.26,42.13.66,63.19.13,7.1-.91,12.62-9,14.65-5.94,1.49-11.58,4.17-17.51,5.66-16.11,4.06-28.68,19.21-27.54,33.76,1.06,13.44,2.4,26.86,3.25,40.31,1.36,21.56,21.61,41.94,44.5,28.7,1.61-.93,3.75-.95,5.31-1.93,3.16-2,8.48-4.14,8.66-6.54.48-6.55-5.77-4.29-9.6-5.11-.35-.08-.57-.81-1.64-2.45l12-4.88c-.43-10.62-10,0-13.33-6.35l13-7.07-.55-2.49c-5.51-.48-11-1-16.55-1.41-7.19-.54-11.52-4.51-12.74-11.4s3-11.47,8.88-12.58c23.72-4.51,40.27-21.05,56.8-35.88s30.14-33.19,43.3-51.25c9-12.4,20.74-16.39,34.54-18.52,13-2,26-4.34,38.75-7.41a265.8,265.8,0,0,0,29.26-9.31c10.56-3.87,20.74-8.79,31.33-12.53,13.14-4.63,26.35-11.17,39.86-12.1C531.91,132.84,550,136.28,568,137.73ZM354.35,306.9l-.61-2.25c3.62-.39,7.26-.63,10.85-1.22a70.52,70.52,0,0,0,7.32-1.94c-2.12-2.29-4.05-4.81-6.45-6.76-1.09-.88-3.11-.78-4.71-.83-6-.17-8.36-3.4-7.15-9,2.51-11.53,5.28-23,8-34.48,3.81-15.93,8.07-31.76,11.32-47.79,1-4.78-.27-10.23-1.53-15.11-.48-1.87-3.75-4.13-5.88-4.28-9-.64-14.14,6.06-19.15,11.88-11.07,12.84-21.73,26-32.24,39.33a27.07,27.07,0,0,0-5,10.72c-4.59,21.4-1.6,42.06,5,62.87,8.13,25.79,27.59,26.54,50.41,21.87,1.31-.26,2.22-2.46,3.31-3.76-1.36-1.11-2.58-2.86-4.12-3.2-2.72-.61-5.64-.37-8.47-.48l-.8-2.49,13.71-5.72.65-2.22Zm403.39,50.21c7.76-6,8.09-20.12.9-26.33C754,339.53,754.39,348,757.74,357.11Z"/><path class="cls-8" d="M568,137.73c-18-1.45-36.06-4.89-53.84-3.68-13.51.93-26.72,7.47-39.86,12.1-10.59,3.74-20.77,8.66-31.33,12.53A265.8,265.8,0,0,1,413.68,168c-12.78,3.07-25.76,5.4-38.75,7.41-13.8,2.13-25.5,6.12-34.54,18.52-13.16,18.06-26.8,36.43-43.3,51.25s-33.08,31.37-56.8,35.88c-5.86,1.11-10.11,5.71-8.88,12.58S237,304.49,244.15,305c5.52.42,11,.93,16.55,1.41l.55,2.49-13,7.07c3.37,6.36,12.9-4.27,13.33,6.35l-12,4.88c1.07,1.64,1.29,2.37,1.64,2.45,3.83.82,10.08-1.44,9.6,5.11-.18,2.4-5.5,4.57-8.66,6.54-1.56,1-3.7,1-5.31,1.93-22.89,13.24-43.14-7.14-44.5-28.7-.85-13.45-2.19-26.87-3.25-40.31-1.14-14.55,11.43-29.7,27.54-33.76,5.93-1.49,11.57-4.17,17.51-5.66,8.08-2,9.12-7.55,9-14.65-.4-21.06-.11-42.14-.66-63.19a19.58,19.58,0,0,0-23-19c-21.22,3.84-42.28,8.12-62,17.86-32.42,16-65.18,31.43-98.06,46.52-11.25,5.17-23.16,9-35,12.73A24.12,24.12,0,0,1,7.55,206.7c-6.22-8.64-3.13-16.83,1.44-25,12.88-23,31.21-35.36,58.77-36.14,30.2-.86,60.88-4.7,88.32-17.93,34.9-16.82,70.17-33.11,100.7-58.34,15.73-13,35.93-20.54,53.93-30.87,34-19.52,71.35-25.18,109.76-27.27,21-1.15,41.9-4.59,62.92-5.7,12.85-.68,25.82,1.3,38.75,1.7,6.72.21,13.46-.58,20.19-.59,6.38,0,12.95-.48,19.11.82C578.54,11,595.17,9.5,612,5.4c4.53-1.1,9.65.35,14.51.49,3.2.08,6.41-.27,9.6-.11,27.78,1.36,55.56,2.68,83.32,4.33A21.16,21.16,0,0,1,730,13.6c15,10.78,32.48,18.25,44.16,33.76,5.11,6.78,12.17,12.38,19.14,17.42,17.57,12.7,24.09,31.61,28.61,51.12,4.24,18.31,6.37,37.11,9.27,55.72a43,43,0,0,1,.26,9.69c-1.06,14.49,2.95,26.38,15.5,35.08,9.79,6.79,13.37,23,7.16,35.46-7.6,15.21-17,29.2-31.39,39.49-9.31,6.65-11.59,17.87-12.94,28.7-1.11,8.84-1.33,17.79-2.18,26.67-1.11,11.48-1.21,11.49-12.3,11.51-2.36,0-4.73-.17-7.13-.27l8.38-29.12-3.43-1.38c-1.09,2.16-2.49,4.22-3.19,6.5-1.44,4.62-2.08,9.52-3.81,14-4.13,10.68-6.63,11.8-19.15,9.47.55-5.74,1.48-11.55,1.58-17.37.11-6.4-1.19-14.29-8.15-14.81-7.55-.57-8.66,7.66-9.51,13.76-.74,5.3-.54,10.72-.76,16.18-11.63,4.41-18.89-.15-17.76-12.42a90.19,90.19,0,0,1,5.69-23.42c2.91-7.66,3-13.59-3.46-19.58-5-4.63-8.91-10.49-13.38-15.9,7.2-1.68,13.39-2.3,18.76-4.72,2.65-1.19,5.39-5.78,5.25-8.69-.18-3.57-3.24-7-5.31-10.4-.31-.51-2.15-.61-3-.23-5.18,2.47-10.27,5.13-16.39,8.22-.83-12.12-1.57-23.06-2.31-33.89,7.55-2.06,14.53-3.81,21.39-5.94,1.56-.49,4-2.6,3.78-3.43a7.88,7.88,0,0,0-3.65-4.56c-6.51-3.45-12.78-2.68-19.23,1-3.84,2.19-8.46,4.34-12.7,4.29-26.45-.36-52.84-.71-78.6-8.86-10.92-3.46-17.66-9.48-22.07-19.45-1.2-2.74-3.61-4.94-5.47-7.39l-3,1c-1.93,13.77-4.47,27.48-5.65,41.31-1.48,17.47-2.5,35-2.55,52.54-.06,21.64,1.27,43.28,1.55,64.92.06,4.75-1.75,9.53-2.71,14.29-3.33-3.84-7.67-7.19-9.74-11.62-2.83-6-3.87-12.87-5.78-19.33a7.15,7.15,0,0,0-3.17-3.93c-5,9.92,2.1,20.69-2.65,32.5-12.31-8.77-6.7-24-14.7-35.48-1.06,3.72-2.25,6.06-2.29,8.42-.1,6.2.86,12.47.26,18.61-.32,3.23-3,6.23-4.66,9.34-2.15-2.79-5.28-5.29-6.25-8.44-2.29-7.46-3.5-15.26-5.29-22.88-.48-2-1.47-4-3.2-8.52-1.95,4.26-3.6,6.42-3.85,8.74-.46,4.27.49,8.74-.27,12.92-.51,2.79-3,5.21-4.55,7.8-1.69-2.62-4.57-5.12-4.87-7.89-1.52-14.22-2.45-28.51-3.47-42.78-1.32-18.58-3.34-37.16-3.59-55.76-.29-22.17.82-44.75,11.11-64.81,5.65-11,14.88-20.48,23.74-29.39,4-4,11-4.93,16.66-7.34,2.16-.91,4.21-2.06,6.31-3.1ZM786.58,261.82c-9.61-.42-15.52,3.91-15.84,13.21-.2,6.17,1.72,10.59,8.79,11,8.49.44,17.09-5.66,16.85-12.55C796.2,268.28,796.66,262.05,786.58,261.82Zm30.52-47.29c-5.77-8.72-16.16-11.61-23.77-7.73-6.14,3.13-9.58,11-7.09,17.56Z"/><path class="cls-8" d="M354.35,306.9l14.41,5.16-.65,2.22L354.4,320l.8,2.49c2.83.11,5.75-.13,8.47.48,1.54.34,2.76,2.09,4.12,3.2-1.09,1.3-2,3.5-3.31,3.76-22.82,4.67-42.28,3.92-50.41-21.87-6.56-20.81-9.55-41.47-5-62.87a27.07,27.07,0,0,1,5-10.72c10.51-13.3,21.17-26.49,32.24-39.33,5-5.82,10.16-12.52,19.15-11.88,2.13.15,5.4,2.41,5.88,4.28,1.26,4.88,2.5,10.33,1.53,15.11-3.25,16-7.51,31.86-11.32,47.79-2.75,11.48-5.52,22.95-8,34.48-1.21,5.58,1.15,8.81,7.15,9,1.6.05,3.62,0,4.71.83,2.4,1.95,4.33,4.47,6.45,6.76a70.52,70.52,0,0,1-7.32,1.94c-3.59.59-7.23.83-10.85,1.22Z"/><path class="cls-9" d="M757.74,357.11c-3.35-9.16-3.7-17.58.9-26.33C765.83,337,765.5,351.15,757.74,357.11Z"/><path d="M786.58,261.82c10.08.23,9.62,6.46,9.8,11.61.24,6.89-8.36,13-16.85,12.55-7.07-.36-9-4.78-8.79-11C771.06,265.73,777,261.4,786.58,261.82Zm-8.85,18.77c2.58-8.51,5.83-11.63,9.08-9.09l1.82,6.25,2.71-.29c-.23-2.88-.09-8.15-.77-8.26-4.26-.68-9.51-1.65-12.88.25C774,271.55,773.93,276.54,777.73,280.59Z"/><path d="M817.1,214.53l-30.86,9.83c-2.49-6.56,1-14.43,7.09-17.56C800.94,202.92,811.33,205.81,817.1,214.53Zm-26-1,1.21,3.75,13.9-5.33-.78-2.49Z"/><path class="cls-6" d="M777.73,280.59c-3.8-4-3.77-9,0-11.14,3.37-1.9,8.62-.93,12.88-.25.68.11.54,5.38.77,8.26l-2.71.29q-.9-3.12-1.83-6.24C783.56,269,780.31,272.08,777.73,280.59Z"/><path class="cls-8" d="M791.15,213.52l14.33-4.07.78,2.49-13.9,5.33Z"/><ellipse class="cls-6" cx="783.42" cy="274.27" rx="10.01" ry="8.34"/><g class="cls-10"><path class="cls-11" d="M187,188.94c4.83-12.61,9.82-213.2,9.82-213.2L221-2.75,217.18,185.8Z"/><path class="cls-9" d="M389,183.52C390.4,177.09,389-46,389-46H420.1s17.06,242.66,12.62,244.47S389,183.52,389,183.52Z"/><path class="cls-12" d="M460.45,176.09c5.26-12.08,6.7-223,6.7-223H495l6.67,241Z"/><path class="cls-9" d="M619.13,211.52,482.38,171s-3.22,24.36-.75,23.06,121.83,52.13,121.83,52.13Z"/><path class="cls-11" d="M608.52,245.93s-134.06-.05-137.9,0-15.91,22.84-13.87,25.23,151.77,0,151.77,0Z"/><path class="cls-13" d="M608,291.76c7.92.69-151.12-4.69-151.12-4.69v20.1l151.41,5.47Z"/><path class="cls-9" d="M77.52,56.93,159.3,201.69l19.75-13.44S124.13,44.35,114,48.57,77.52,56.93,77.52,56.93Z"/><polygon class="cls-12" points="87.4 238.44 12.78 82.51 -21.91 104.02 59.4 259.53 87.4 238.44"/><polygon class="cls-11" points="60.36 76.25 128.27 198.09 94.39 208.6 39.59 67.78 60.36 76.25"/><path class="cls-12" d="M579.2,157.09C627.43,93.28,728.74-34.58,730.89-41.21l20,22.33L607.74,188.72C599.84,176.87,589.93,163.32,579.2,157.09Z"/><path class="cls-9" d="M620.77,218.38c-5.53-4.25,140.44-191.1,146-186.84l43.38,32.53c-15.71-11.36-184.21,162.14-168.5,173.5C635.7,220.48,624.85,225.88,620.77,218.38Z"/><path class="cls-11" d="M650.43,267.8C629.79,247,809.92,85.49,830.55,106.25l13.86,31.85c-81.93,28.14-145.16,79.14-184.35,159.53C657.4,289.19,654,278.68,650.43,267.8Z"/><path class="cls-9" d="M657.08-72.72,547.82,149.8c-5.22-.84-10.55.48-15.86,4.9a53.51,53.51,0,0,0-13.25,16.69l-1.38-3.6L618.63-91.92"/><polygon class="cls-12" points="280.2 274.2 149.46 295 159.06 319.58 292.84 290.61 280.2 274.2"/><polygon class="cls-9" points="309.64 239.18 278.77 265.93 194.56 224.81 199.92 188.85 309.64 239.18"/><polygon class="cls-14" points="322.98 216.71 340.5 194.19 226.78 150.78 217.33 173 322.98 216.71"/><polygon class="cls-11" points="396.12 271.56 394.3 254.4 304.63 270.93 307.13 290.12 396.12 271.56"/><polygon class="cls-13" points="392.89 242.58 387.27 226.14 309.64 236.73 304.63 259.49 392.89 242.58"/><polygon class="cls-9" points="764.97 227.13 754.52 223.47 758.38 259.69 764.97 259.69 764.97 227.13"/><path class="cls-9" d="M788.3,244.05c-14.88-3.1-29.41-.76-43.82,3.42l-.24,7.84c11.46-5,27.55-5.57,45.1-4.73Z"/><path class="cls-9" d="M790.23,230.26c-18.54-2-36.68,1.5-54.69,6.82l-.37,7.92c14.34-5.94,34.41-7.74,56.29-8.25Z"/><path class="cls-6" d="M720.86,273c0,2.53,3.55,4.59,7.93,4.59s12.93-2.48,12.93-5-2.3-6.67-6.68-6.67S720.86,270.48,720.86,273Z"/><ellipse cx="732.43" cy="272.1" rx="2.41" ry="7.95" transform="translate(-12.66 36.87) rotate(-2.86)"/><ellipse cx="783.31" cy="274.6" rx="2.41" ry="7.95" transform="translate(-12.72 39.41) rotate(-2.86)"/></g><path d="M712.66,231c-10.22-.41-19.38-1.22-28.53-1.06-22,.4-43.14-4.07-63.5-11.42-7.06-2.55-12.36-10-19.24-15.84-1,11.46-2.27,23.54-3.21,35.65-.73,9.4-1.39,18.82-1.58,28.25-.29,15-.22,30-.19,45,0,13.78.76,27.58,0,41.3-.29,5.36-3.75,10.55-5.76,15.81l-16.09-8.59c-1.27.87-4.3,4.54-7.58,4.78s-7-2.81-8.75-3.59c-6,2.11-12.7,6.78-16.07,5.05-4.33-2.23-6-9.61-9.09-15.22a26.22,26.22,0,0,1-3.69,3.72c-7.12,5-15.14,1.8-15.72-6.52-2.51-36.07-6-72.13-6.66-108.24-.32-17.52,3.34-35.52,7.81-52.62,5-19.13,20.16-31.95,34.67-45.8-17.6-3.75-34.72-6.18-51.9-.2-6.36,2.21-12.88,4.45-18.62,7.88-14.56,8.69-30,14.13-46.68,17.52-17.1,3.48-33.76,9.06-50.7,13.34-5,1.27-6.21,4.2-4.78,8.25,3.46,9.79,1.24,19.3-1.12,28.7-4.89,19.53-10.46,38.89-15.28,58.44-2.84,11.5-2.43,11.6,8.67,14.83,8.15,2.37,10.64,9.42,6,16.3-.87,1.28-.83,3.21-1.07,4.86-.93,6.32-1.52,12.71-2.93,18.92-.31,1.37-3.37,2.84-5.28,3-10.15,1-20.48,3-30.47,2-11.54-1.17-19.26-9.32-23.3-20.19-6.91-18.62-11.67-37.61-8.39-57.77.45-2.79.28-5.68.45-9.92-11.75,8.8-21.86,17.22-32.84,24.29-7.81,5-16.72,8.39-25.29,12.17-4.38,1.93-10.29,2.38-9.26,9.09.93,6,5.9,6.81,11.15,7a72.92,72.92,0,0,1,11.91,1.73c5.77,1.2,8.86,4,5.58,10.3a5.75,5.75,0,0,0-.61,3c.61,6.71,1.58,13.39,1.83,20.11.06,1.54-1.87,4-3.45,4.63-9.48,3.85-18.91,8.31-28.8,10.59-9.45,2.17-17.83-2-24.73-9.09-11.64-12-11.78-27.15-12.48-42.27-.28-5.93.38-12.24-1.44-17.68-5.48-16.38,8.63-39.68,28.84-44.13,6.22-1.37,12.6-3.18,18.07-6.27,3-1.69,5.95-6.45,6-9.86.29-21.34,0-42.69-.6-64-.27-10.22-8.44-17.16-18.5-15.23-19.31,3.71-38.69,7.07-56.7,15.95Q123.7,182.12,74,205c-11.73,5.41-24.11,9.57-36.47,13.42-10.27,3.21-20.25,2.13-28.79-5.65-8.74-8-11-16.91-5.83-27.58,12.41-25.6,30.79-41.61,61.16-43.36A385.43,385.43,0,0,0,135.91,131c16.43-4.14,31.48-13.82,47.1-21.1,27.32-12.72,51.23-30.67,76.17-47.37C305.73,31.33,356.05,8.1,414.31,7.77c21.76-.12,43.49-4.16,65.27-6,7.23-.62,14.56.12,21.85.11,16.94-.05,33.89-.62,50.8-.11,10.43.31,20.81,3.12,31.22,3.14,9.84,0,19.69-2.11,29.53-3.39,2.91-.38,5.81-1.61,8.68-1.5C639.1.66,656.55,1.27,674,2.5q25,1.79,49.95,4.9c4.35.55,8.59,3.06,12.55,5.26,21.94,12.19,38.65,30.83,57.76,46.53,21.71,17.85,29.34,41.4,34.59,67.23,4.18,20.56,8.06,40.91,7.43,62.09-.26,8.85,3.59,17.05,12.14,22.48,14,8.88,17.67,30.71,7.35,47.24-8.84,14.14-18.4,27.72-31.73,38.65-5.27,4.32-7.76,13.38-9.21,20.74-2,10.26-1.83,21-2.7,31.46-.94,11.44-4.36,14.88-15.7,14.69-18.61-.3-37.22-.91-55.82-1.6-8-.3-13.34-4.78-12.88-13.26.52-9.76,2.78-19.57,5.48-29,1.74-6.12,3.7-11.83-2-16.22-14.68-11.27-15.81-27.23-16.3-43.72C714.55,250.54,713.45,241.15,712.66,231ZM568,137.73l1.18,3.25c-2.1,1-4.15,2.19-6.31,3.1-5.62,2.41-12.68,3.33-16.66,7.34-8.86,8.91-18.09,18.38-23.74,29.39-10.29,20.06-11.4,42.64-11.11,64.81.25,18.6,2.27,37.18,3.59,55.76,1,14.27,2,28.56,3.47,42.78.3,2.77,3.18,5.27,4.87,7.89,1.58-2.59,4-5,4.55-7.8.76-4.18-.19-8.65.27-12.92.25-2.32,1.9-4.48,3.85-8.74,1.73,4.55,2.72,6.48,3.2,8.52,1.79,7.62,3,15.42,5.29,22.88,1,3.15,4.1,5.65,6.25,8.44,1.63-3.11,4.34-6.11,4.66-9.34.6-6.14-.36-12.41-.26-18.61,0-2.36,1.23-4.7,2.29-8.42,8,11.53,2.39,26.71,14.7,35.48,4.75-11.81-2.33-22.58,2.65-32.5a7.15,7.15,0,0,1,3.17,3.93c1.91,6.46,3,13.31,5.78,19.33,2.07,4.43,6.41,7.78,9.74,11.62,1-4.76,2.77-9.54,2.71-14.29-.28-21.64-1.61-43.28-1.55-64.92.05-17.52,1.07-35.07,2.55-52.54,1.18-13.83,3.72-27.54,5.65-41.31l3-1c1.86,2.45,4.27,4.65,5.47,7.39,4.41,10,11.15,16,22.07,19.45,25.76,8.15,52.15,8.5,78.6,8.86,4.24,0,8.86-2.1,12.7-4.29,6.45-3.68,12.72-4.45,19.23-1a7.88,7.88,0,0,1,3.65,4.56c.2.83-2.22,2.94-3.78,3.43-6.86,2.13-13.84,3.88-21.39,5.94.74,10.83,1.48,21.77,2.31,33.89,6.12-3.09,11.21-5.75,16.39-8.22.81-.38,2.65-.28,3,.23,2.07,3.36,5.13,6.83,5.31,10.4.14,2.91-2.6,7.5-5.25,8.69-5.37,2.42-11.56,3-18.76,4.72,4.47,5.41,8.36,11.27,13.38,15.9,6.48,6,6.37,11.92,3.46,19.58a90.19,90.19,0,0,0-5.69,23.42c-1.13,12.27,6.13,16.83,17.76,12.42.22-5.46,0-10.88.76-16.18.85-6.1,2-14.33,9.51-13.76,7,.52,8.26,8.41,8.15,14.81-.1,5.82-1,11.63-1.58,17.37,12.52,2.33,15,1.21,19.15-9.47,1.73-4.49,2.37-9.39,3.81-14,.7-2.28,2.1-4.34,3.19-6.5l3.43,1.38L788.18,358c2.4.1,4.77.28,7.13.27,11.09,0,11.19,0,12.3-11.51.85-8.88,1.07-17.83,2.18-26.67,1.35-10.83,3.63-22.05,12.94-28.7,14.41-10.29,23.79-24.28,31.39-39.49,6.21-12.45,2.63-28.67-7.16-35.46-12.55-8.7-16.56-20.59-15.5-35.08a43,43,0,0,0-.26-9.69c-2.9-18.61-5-37.41-9.27-55.72-4.52-19.51-11-38.42-28.61-51.12-7-5-14-10.64-19.14-17.42C762.5,31.85,745.06,24.38,730,13.6a21.16,21.16,0,0,0-10.64-3.49c-27.76-1.65-55.54-3-83.32-4.33-3.19-.16-6.4.19-9.6.11-4.86-.14-10-1.59-14.51-.49-16.78,4.1-33.41,5.59-50.51,2-6.16-1.3-12.73-.83-19.11-.82-6.73,0-13.47.8-20.19.59-12.93-.4-25.9-2.38-38.75-1.7-21,1.11-41.9,4.55-62.92,5.7-38.41,2.09-75.72,7.75-109.76,27.27-18,10.33-38.2,17.86-53.93,30.87-30.53,25.23-65.8,41.52-100.7,58.34C128.64,140.86,98,144.7,67.76,145.56,40.2,146.34,21.87,158.69,9,181.7c-4.57,8.17-7.66,16.36-1.44,25a24.12,24.12,0,0,0,26.87,8.45c11.83-3.73,23.74-7.56,35-12.73,32.88-15.09,65.64-30.48,98.06-46.52,19.71-9.74,40.77-14,62-17.86a19.58,19.58,0,0,1,23,19c.55,21,.26,42.13.66,63.19.13,7.1-.91,12.62-9,14.65-5.94,1.49-11.58,4.17-17.51,5.66-16.11,4.06-28.68,19.21-27.54,33.76,1.06,13.44,2.4,26.86,3.25,40.31,1.36,21.56,21.61,41.94,44.5,28.7,1.61-.93,3.75-.95,5.31-1.93,3.16-2,8.48-4.14,8.66-6.54.48-6.55-5.77-4.29-9.6-5.11-.35-.08-.57-.81-1.64-2.45l12-4.88c-.43-10.62-10,0-13.33-6.35l13-7.07-.55-2.49c-5.51-.48-11-1-16.55-1.41-7.19-.54-11.52-4.51-12.74-11.4s3-11.47,8.88-12.58c23.72-4.51,40.27-21.05,56.8-35.88s30.14-33.19,43.3-51.25c9-12.4,20.74-16.39,34.54-18.52,13-2,26-4.34,38.75-7.41a265.8,265.8,0,0,0,29.26-9.31c10.56-3.87,20.74-8.79,31.33-12.53,13.14-4.63,26.35-11.17,39.86-12.1C531.91,132.84,550,136.28,568,137.73ZM354.35,306.9l-.61-2.25c3.62-.39,7.26-.63,10.85-1.22a70.52,70.52,0,0,0,7.32-1.94c-2.12-2.29-4.05-4.81-6.45-6.76-1.09-.88-3.11-.78-4.71-.83-6-.17-8.36-3.4-7.15-9,2.51-11.53,5.28-23,8-34.48,3.81-15.93,8.07-31.76,11.32-47.79,1-4.78-.27-10.23-1.53-15.11-.48-1.87-3.75-4.13-5.88-4.28-9-.64-14.14,6.06-19.15,11.88-11.07,12.84-21.73,26-32.24,39.33a27.07,27.07,0,0,0-5,10.72c-4.59,21.4-1.6,42.06,5,62.87,8.13,25.79,27.59,26.54,50.41,21.87,1.31-.26,2.22-2.46,3.31-3.76-1.36-1.11-2.58-2.86-4.12-3.2-2.72-.61-5.64-.37-8.47-.48l-.8-2.49,13.71-5.72.65-2.22Zm403.39,50.21c7.76-6,8.09-20.12.9-26.33C754,339.53,754.39,348,757.74,357.11Z"/><ellipse class="cls-6" cx="730.87" cy="273.02" rx="10.01" ry="7.09" transform="translate(-44.72 188.31) rotate(-14.25)"/><ellipse cx="730.04" cy="273.02" rx="1.67" ry="8.76" transform="translate(-44.74 188.1) rotate(-14.25)"/></g></svg>