<svg id="Layer_1" data-name="Layer 1" xmlns="http://www.w3.org/2000/svg" xmlns:xlink="http://www.w3.org/1999/xlink" viewBox="0 0 503.64 296.59"><defs><style>.cls-1{fill:none;}.cls-2{fill:#f6ca0f;}.cls-3{fill:#fff;}.cls-4{clip-path:url(#clip-path);}.cls-5{fill:#f19983;}</style><clipPath id="clip-path"><path class="cls-1" d="M497.21,247.47A49.33,49.33,0,0,0,491,247c-3.32-.16-5.4-1.1-5.31-5.17.13-6.53-.2-13.08-.53-19.62q-1.46-28.95-3.09-57.9a12.32,12.32,0,0,0-.61-3c-1-3.14-2.48-6.2-2.85-9.4a140.59,140.59,0,0,1-.66-16c0-10.64,0-21.29.34-31.92a7.2,7.2,0,0,1,2.84-5C494,90.57,498,77.84,499.4,63.53c.81-8.48-2.39-15.07-8.14-20.92-5.58-5.68-5.64-5.91.41-11.73,5.33-5.13,8.68-11,9.4-18.47.51-5.25-2-9.56-6.12-8.84-6.29,1.09-13.1,1.77-16.33,9.09-.71,1.62-3.69,3.51-5.31,3.26-13.95-2.15-27.82-4.54-41.55,1.1a25.74,25.74,0,0,1-3.85.93l.89-1.23C424.69,11.78,420.94,6.49,416.36,2c-4-3.91-9.37-1.88-10.27,3.63a20.15,20.15,0,0,0,.68,8.44c1,3.58,2.75,6.94,4.29,10.67-1.26.11-2.1.13-2.92.25-11.72,1.7-23.88.88-34.95,6.36a42.84,42.84,0,0,1-10,3.77c-5.18,1.09-10.52,1.41-15.77,2.22-3.92.6-7.78,1.58-11.7,2.19-10.9,1.69-22,2.4-32.68,5.11-18,4.57-36.12,7.86-54.68,8.31a149.18,149.18,0,0,0-57.24,12.71c-22.22,9.8-38.28,25.29-47.45,48.05-5,12.45-10.11,25.06-17,36.53-10.54,17.63-26.18,30.78-43.25,41.84-13,8.43-27.15,14.53-43.24,13.81-1.64-.07-3.71-.14-4.79-1.1-4.33-3.85-7-8.68-5.9-14.7.88-4.92,2.22-9.76,3.3-14.65,1.53-6.9,3.31-13.76,4.41-20.73s-2.37-10.54-9.37-10.39c-5.83.12-11.13,1.79-15.53,6C4.18,158.23,2.06,168.83.59,179-2,196.85,4.27,213.1,13.18,228.24c3.45,5.87,9.18,9.06,15.9,10.59,13.91,3.16,27.44-.71,41.15-1.66,15.85-1.09,29-7.25,40.35-17.83,12.87-12,25.64-24.14,38.16-36.52C159,172.64,171.65,167,185.19,163.08c8.17-2.34,15.29,2.84,15.42,11.28.19,12.6-.21,25.22-.61,37.82-.66,20.54-1.59,41.08-2.26,61.62-.21,6.61,2.39,12.47,8.94,14.14,9.1,2.31,18.55,4.31,27.86,4.39,9.57.09,12.53-4.85,11.94-14.11,1.7-2.51,3.71-5.3,3.56-8-.27-5.2,1.36-7.56,6.38-7.74A124.61,124.61,0,0,0,271.85,261c3.82-.62,6.83-2.54,6.55-7.21,0-.63,0-1.56.41-1.89,5-4,2.31-7.34-.08-9.41.64-3.68,1.1-6.31,1.56-8.94-2.84-.49-5.66-1.15-8.51-1.39-2.21-.19-4.51.45-6.68.11-1.25-.19-3.13-1.47-3.31-2.5-1-6-1.65-12.15-2.49-18.89,3.11,0,4.83,0,6.54,0,33,1,65.94,2,98.91,3.1,16.75.56,33.49,1.17,50.22,2.11,12.53.7,14.12,3,12.17,15.2-2.8,17.57-5.51,35.13-3.62,53,.69,6.59,4.88,10.7,11.46,10.54a36.37,36.37,0,0,1,9.06,1c7.11,1.65,14,.81,18.55-4.78,3.47-4.27,7.28-4.92,12-5.38,6-.59,12-1.17,17.77-2.77,2.09-.58,3.71-3.89,4.94-6.27s1.58-5,2.28-7.47c.32-1.16,1.17-2.69.73-3.44-1.77-3.07.52-4.48,1.93-6.52A7.39,7.39,0,0,0,497.21,247.47ZM230.74,213.93c1.57,12.87,3.1,25.38,4.66,38.17-2.83.88-5.43.73-6-3-1.35-9.3-2.69-18.62-3.52-28C225.65,218.13,226.56,214.64,230.74,213.93Z"/></clipPath></defs><path d="M259.3,210.85c.84,6.74,1.45,12.85,2.49,18.89.18,1,2.06,2.31,3.31,2.5,2.17.34,4.47-.3,6.68-.11,2.85.24,5.67.9,8.51,1.39-.46,2.63-.92,5.26-1.56,8.94,2.39,2.07,5.06,5.38.08,9.41-.39.33-.45,1.26-.41,1.89.28,4.67-2.73,6.59-6.55,7.21a124.61,124.61,0,0,1-15.43,1.53c-5,.18-6.65,2.54-6.38,7.74.15,2.68-1.86,5.47-3.56,8,.59,9.26-2.37,14.2-11.94,14.11-9.31-.08-18.76-2.08-27.86-4.39-6.55-1.67-9.15-7.53-8.94-14.14.67-20.54,1.6-41.08,2.26-61.62.4-12.6.8-25.22.61-37.82-.13-8.44-7.25-13.62-15.42-11.28-13.54,3.87-26.16,9.56-36.45,19.74-12.52,12.38-25.29,24.51-38.16,36.52-11.33,10.58-24.5,16.74-40.35,17.83-13.71,1-27.24,4.82-41.15,1.66-6.72-1.53-12.45-4.72-15.9-10.59C4.27,213.1-2,196.85.59,179c1.47-10.2,3.59-20.8,11.75-28.65,4.4-4.24,9.7-5.91,15.53-6,7-.15,10.45,3.51,9.37,10.39s-2.88,13.83-4.41,20.73c-1.08,4.89-2.42,9.73-3.3,14.65-1.09,6,1.57,10.85,5.9,14.7,1.08,1,3.15,1,4.79,1.1,16.09.72,30.23-5.38,43.24-13.81,17.07-11.06,32.71-24.21,43.25-41.84,6.86-11.47,12-24.08,17-36.53,9.17-22.76,25.23-38.25,47.45-48A149.18,149.18,0,0,1,248.37,53c18.56-.45,36.67-3.74,54.68-8.31,10.64-2.71,21.78-3.42,32.68-5.11,3.92-.61,7.78-1.59,11.7-2.19,5.25-.81,10.59-1.13,15.77-2.22a42.84,42.84,0,0,0,10-3.77c11.07-5.48,23.23-4.66,34.95-6.36.82-.12,1.66-.14,2.92-.25-1.54-3.73-3.29-7.09-4.29-10.67a20.15,20.15,0,0,1-.68-8.44C407,.15,412.36-1.88,416.36,2c4.58,4.46,8.33,9.75,12.44,14.69L427.91,18a25.74,25.74,0,0,0,3.85-.93c13.73-5.64,27.6-3.25,41.55-1.1,1.62.25,4.6-1.64,5.31-3.26,3.23-7.32,10-8,16.33-9.09,4.14-.72,6.63,3.59,6.12,8.84-.72,7.42-4.07,13.34-9.4,18.47-6.05,5.82-6,6.05-.41,11.73,5.75,5.85,8.95,12.44,8.14,20.92C498,77.84,494,90.57,481.14,99a7.2,7.2,0,0,0-2.84,5c-.34,10.63-.37,21.28-.34,31.92a140.59,140.59,0,0,0,.66,16c.37,3.2,1.89,6.26,2.85,9.4a12.32,12.32,0,0,1,.61,3q1.59,28.95,3.09,57.9c.33,6.54.66,13.09.53,19.62-.09,4.07,2,5,5.31,5.17a49.33,49.33,0,0,1,6.2.48,7.39,7.39,0,0,1,5,11.74c-1.41,2-3.7,3.45-1.93,6.52.44.75-.41,2.28-.73,3.44-.7,2.51-1.1,5.19-2.28,7.47s-2.85,5.69-4.94,6.27c-5.74,1.6-11.8,2.18-17.77,2.77-4.67.46-8.48,1.11-12,5.38-4.53,5.59-11.44,6.43-18.55,4.78a36.37,36.37,0,0,0-9.06-1c-6.58.16-10.77-3.95-11.46-10.54-1.89-17.92.82-35.48,3.62-53,1.95-12.22.36-14.5-12.17-15.2-16.73-.94-33.47-1.55-50.22-2.11-33-1.11-65.94-2.08-98.91-3.1C264.13,210.81,262.41,210.85,259.3,210.85Zm228.57,52.42-.09-1.68c1.5-.4,3-.74,4.5-1.24,3.31-1.12,8.59-.09,8.06-5.86-.48-5.36-5.24-4-8.56-4.18-8.94-.59-9-.57-9.18-9.88,0-.86,0-1.73,0-2.59-1-26.11-1.75-52.15-5.85-78.13-2.61-16.54-1.28-33.69-1.7-50.57a37.42,37.42,0,0,1,.08-6.7c.25-1.53.91-3.6,2.07-4.29,7.75-4.58,13.42-10.79,16.24-19.42,5.75-17.57,5.06-27.69-9.07-38.79a18.06,18.06,0,0,1-2.19-2.63c3.34-3.79,7.07-7,9.55-11.07a69.17,69.17,0,0,0,6.5-14.81c.86-2.65-.64-5.1-4.13-5.15A13.64,13.64,0,0,0,480.57,17a72.11,72.11,0,0,1,9-4.07c.79-.25,3.47,2.06,3.31,2.72-1.52,6.45-4.34,12.19-10.77,16.35a41.31,41.31,0,0,1-2.53-5.86c-1.45-5.69-5.73-7.83-10.82-8.72-16.39-2.87-32.17-.18-47.51,5.72-3.1,1.19-5.9,4.1-9,4.29-16.59,1-33.16,1.65-47.69,11.31a5.87,5.87,0,0,1-3.68.41c-1.76-.23-3.57-1.44-5.2-1.2-4.25.64-8.38,2.08-12.63,2.77-12.93,2.1-26.07,3.19-38.78,6.17-17.54,4.11-35.06,7.66-53.1,8.23-17,.54-33.5,3.1-49.71,8.83-28.39,10-48.35,28.11-57.9,57-10.51,31.8-31.44,55.31-59.07,73.06-12.54,8.06-26.17,14.15-41.7,14-2.2,0-4.63,1-6.55.35-5.14-1.73-10.49-12.15-9.28-17.61,1.56-7.06,3.51-14,5-21.13a160.35,160.35,0,0,0,2.7-16.29c.45-4.24-2.09-6.2-6.26-6.5-7.37-.54-16.11,4.43-19.32,11.65-5.79,13-9.45,26.45-5.12,40.7C6.15,206.16,8.9,213,11.45,220c4.63,12.58,14.47,18.3,27.05,17.61,15.45-.85,30.82-3.32,46.19-5.35a21.89,21.89,0,0,0,7.65-3c16.72-9.52,30.7-22.42,43.38-36.63,13.18-14.78,28.26-26.25,47.54-31.72,10.81-3.07,20.05,2.8,20.14,14,.12,14.67-.77,29.35-1.23,44-.59,18.47-1.43,36.93-1.67,55.41-.09,7.28,3.12,10.65,10.19,12.44a124.35,124.35,0,0,0,17.23,3.49,24,24,0,0,0,11.08-1.4c1.94-.77,3.31-4,3.95-6.33.2-.7-2.87-2.45-4.59-3.47a20,20,0,0,0-3.81-1.34l.19-1.58c3-.31,6-.31,8.89-1.07,1.5-.4,2.64-2.14,3.94-3.27-1.43-.71-2.8-1.81-4.31-2a50.38,50.38,0,0,0-7.17-.09l-.27-2.19c3-.63,6-1.2,9-1.91,2.42-.57,4.15-.77,3.2-4.7-.83-3.45-2.27-3.94-4.87-4.17-3.44-.3-6.88-.65-10.32-.82s-5.53-1.75-6.26-5.05c-1.12-5-2.61-10.05-3.1-15.15a90.89,90.89,0,0,1-.06-18c.25-2.37,2.51-5.33,4.68-6.55,7.93-4.45,16.83-4.37,25.63-4.06,15,.53,30,1.28,45.06,1.79C334.87,210,371,211,407,212.43c7,.28,14,2,20.87,3.46,1.26.26,3.17,2.31,3.08,3.38A226.68,226.68,0,0,1,428,243.4a134.64,134.64,0,0,0-1.63,40.75c.54,5,3.89,8,8.34,8.19a86.37,86.37,0,0,1,12.55,1.16c8.46,1.54,14.1-2.57,14.41-11.1-1.69-.1-3.39-.24-5.1-.29s-3.37,0-5.06,0l-.29-2c2.62-.61,5.35-.92,7.81-1.91,2-.79,3.65-2.41,5.45-3.66a44.2,44.2,0,0,0-6.24-2.38c-1.75-.39-3.65-.08-5.48-.08l-.27-1.88c2.68-.84,5.51-1.36,8-2.61,1.9-1,3.34-2.85,5-4.33-1.92-.65-3.82-1.81-5.75-1.86-6.86-.2-9.34-2.55-9-9.54.3-7.25.77-14.49,1.23-21.73.33-5.33.75-10.66,1.13-16l1.73-.13a16.49,16.49,0,0,1,.87,4.18c-.6,11-1.38,22.06-2,33.09-.32,5.8.74,6.52,6.22,7,2.84.25,7.15,1,7.95,2.85,1,2.24-1,5.78-1.87,9.6,2.69,2.64,1.77,6.16-2.16,9.76,1.79,1.07,3.24,2.7,4.58,2.62a187.67,187.67,0,0,0,21.05-2.18c2-.35,3.67-3,5.5-4.61-1.64-1.17-3.29-2.32-4.9-3.52-.24-.18-.28-.61-.75-1.69a16.86,16.86,0,0,0,3.94-1.28,32.92,32.92,0,0,0,4-3.38,26.46,26.46,0,0,0-4.4-2.44A26,26,0,0,0,487.87,263.27Zm-210.42-29c-4.36.3-8.25.53-12.12.84s-5.9-1.55-6.39-5.19c-.69-5.12-1.37-10.24-1.79-15.38-.25-3.13-1.34-4.82-4.74-4.56-4.46.34-8.94.69-13.41.7-4.06,0-5.73,1.86-5.28,5.72,1.33,11.28,2.68,22.56,4.2,33.82.14,1.08,1.47,2.75,2.38,2.85,4.86.5,9.74.64,11.92,6.2,7.28-.56,14.57-1.08,21.83-1.8.5-.05.85-1.66,1.27-2.54-1-.45-2-1.23-3-1.26a48.78,48.78,0,0,0-5.88.51l-.33-2a69.79,69.79,0,0,0,8.05-2.06c1.52-.57,2.72-2,4.07-3-1.53-.72-3-1.9-4.6-2.06-2.5-.26-5.06.17-8.74.36C268.79,240.1,277,242.47,277.45,234.29Zm-46.71-20.36c-4.18.71-5.09,4.2-4.83,7.22.83,9.35,2.17,18.67,3.52,28,.54,3.71,3.14,3.86,6,3C233.84,239.31,232.31,226.8,230.74,213.93ZM422.23,11.72c-2-2.25-3.76-4.85-6.12-6.64C414.6,3.93,411.58,3,410.36,3.7c-1.4.87-2,3.72-2.12,5.75-.1,1.66,1,3.39,1.93,6.22C411.81,6.05,412.61,5.91,422.23,11.72ZM490,16.88c-8.65,2.33-10,5.14-5.84,10.68C486.22,23.76,488.11,20.32,490,16.88ZM414.7,10.37l-2,1.2A74.7,74.7,0,0,0,417,20.4c.39.61,2.77-.07,4.24-.15l.65-1.42Z"/><path class="cls-2" d="M487.87,263.27a26,26,0,0,1,4.95.74,26.46,26.46,0,0,1,4.4,2.44,32.92,32.92,0,0,1-4,3.38,16.86,16.86,0,0,1-3.94,1.28c.47,1.08.51,1.51.75,1.69,1.61,1.2,3.26,2.35,4.9,3.52-1.83,1.6-3.46,4.26-5.5,4.61a187.67,187.67,0,0,1-21.05,2.18c-1.34.08-2.79-1.55-4.58-2.62,3.93-3.6,4.85-7.12,2.16-9.76.89-3.82,2.85-7.36,1.87-9.6-.8-1.81-5.11-2.6-7.95-2.85-5.48-.5-6.54-1.22-6.22-7,.61-11,1.39-22.06,2-33.09a16.49,16.49,0,0,0-.87-4.18l-1.73.13c-.38,5.33-.8,10.66-1.13,16-.46,7.24-.93,14.48-1.23,21.73-.3,7,2.18,9.34,9,9.54,1.93.05,3.83,1.21,5.75,1.86-1.64,1.48-3.08,3.36-5,4.33-2.46,1.25-5.29,1.77-8,2.61l.27,1.88c1.83,0,3.73-.31,5.48.08a44.2,44.2,0,0,1,6.24,2.38c-1.8,1.25-3.46,2.87-5.45,3.66-2.46,1-5.19,1.3-7.81,1.91l.29,2c1.69,0,3.38,0,5.06,0s3.41.19,5.1.29c-.31,8.53-5.95,12.64-14.41,11.1a86.37,86.37,0,0,0-12.55-1.16c-4.45-.15-7.8-3.18-8.34-8.19A134.64,134.64,0,0,1,428,243.4,226.68,226.68,0,0,0,431,219.27c.09-1.07-1.82-3.12-3.08-3.38C421,214.47,414,212.71,407,212.43,371,211,334.87,210,298.81,208.79c-15-.51-30-1.26-45.06-1.79-8.8-.31-17.7-.39-25.63,4.06-2.17,1.22-4.43,4.18-4.68,6.55a90.89,90.89,0,0,0,.06,18c.49,5.1,2,10.12,3.1,15.15.73,3.3,2.87,4.89,6.26,5.05s6.88.52,10.32.82c2.6.23,4,.72,4.87,4.17.95,3.93-.78,4.13-3.2,4.7-3,.71-6,1.28-9,1.91l.27,2.19a50.38,50.38,0,0,1,7.17.09c1.51.22,2.88,1.32,4.31,2-1.3,1.13-2.44,2.87-3.94,3.27-2.86.76-5.92.76-8.89,1.07l-.19,1.58a20,20,0,0,1,3.81,1.34c1.72,1,4.79,2.77,4.59,3.47-.64,2.37-2,5.56-3.95,6.33a24,24,0,0,1-11.08,1.4,124.35,124.35,0,0,1-17.23-3.49c-7.07-1.79-10.28-5.16-10.19-12.44.24-18.48,1.08-36.94,1.67-55.41.46-14.68,1.35-29.36,1.23-44-.09-11.17-9.33-17-20.14-14-19.28,5.47-34.36,16.94-47.54,31.72-12.68,14.21-26.66,27.11-43.38,36.63a21.89,21.89,0,0,1-7.65,3c-15.37,2-30.74,4.5-46.19,5.35-12.58.69-22.42-5-27-17.61C8.9,213,6.15,206.16,4,199.1c-4.33-14.25-.67-27.68,5.12-40.7,3.21-7.22,11.95-12.19,19.32-11.65,4.17.3,6.71,2.26,6.26,6.5A160.35,160.35,0,0,1,32,169.54c-1.5,7.08-3.45,14.07-5,21.13-1.21,5.46,4.14,15.88,9.28,17.61,1.92.65,4.35-.37,6.55-.35,15.53.18,29.16-5.91,41.7-14,27.63-17.75,48.56-41.26,59.07-73.06,9.55-28.88,29.51-46.94,57.9-57,16.21-5.73,32.72-8.29,49.71-8.83,18-.57,35.56-4.12,53.1-8.23,12.71-3,25.85-4.07,38.78-6.17,4.25-.69,8.38-2.13,12.63-2.77,1.63-.24,3.44,1,5.2,1.2a5.87,5.87,0,0,0,3.68-.41c14.53-9.66,31.1-10.28,47.69-11.31,3.06-.19,5.86-3.1,9-4.29,15.34-5.9,31.12-8.59,47.51-5.72,5.09.89,9.37,3,10.82,8.72A41.31,41.31,0,0,0,482.11,32c6.43-4.16,9.25-9.9,10.77-16.35.16-.66-2.52-3-3.31-2.72a72.11,72.11,0,0,0-9,4.07A13.64,13.64,0,0,1,494.09,6.28c3.49,0,5,2.5,4.13,5.15a69.17,69.17,0,0,1-6.5,14.81c-2.48,4-6.21,7.28-9.55,11.07a18.06,18.06,0,0,0,2.19,2.63c14.13,11.1,14.82,21.22,9.07,38.79-2.82,8.63-8.49,14.84-16.24,19.42-1.16.69-1.82,2.76-2.07,4.29a37.42,37.42,0,0,0-.08,6.7c.42,16.88-.91,34,1.7,50.57,4.1,26,4.83,52,5.85,78.13,0,.86,0,1.73,0,2.59.15,9.31.24,9.29,9.18,9.88,3.32.22,8.08-1.18,8.56,4.18.53,5.77-4.75,4.74-8.06,5.86-1.47.5-3,.84-4.5,1.24ZM459.92,93.92c10.12-.52,13-3.55,12.76-13.64a5.36,5.36,0,0,1,1.36-3c3.46-4.36,3.37-10.16-.7-13.94-2.61-2.41-6.16-4-5.47-8.54.08-.48-1.75-1.81-2.7-1.81a121.81,121.81,0,0,0-14.3.65c-1,.11-1.88,2.16-2.7,3.39-1.11,1.66-1.73,3.92-3.23,5-3.85,2.74-5.58,6.38-4.51,10.7A126.88,126.88,0,0,0,445.9,88.8c.47,1.19,2.18,2.26,3.53,2.66C452.86,92.5,456.42,93.13,459.92,93.92Zm15.74-54.63c1.09-6.29-4.6-5-7.52-5.73-3.74-1-4.72,2.63-5.07,5.62s3.67,6.45,7.86,6.62C475.45,46,475.55,42.64,475.66,39.29ZM447.21,44c1.45-1.77,3.78-3.38,4.13-5.35.65-3.6-1.33-5.8-5.45-5.4-3.24.31-6.65.66-6.73,4.77C439.08,42.4,442.46,43.09,447.21,44Z"/><path class="cls-2" d="M277.45,234.29c-.46,8.18-8.66,5.81-12.56,11.14,3.68-.19,6.24-.62,8.74-.36,1.58.16,3.07,1.34,4.6,2.06-1.35,1-2.55,2.44-4.07,3a69.79,69.79,0,0,1-8.05,2.06l.33,2a48.78,48.78,0,0,1,5.88-.51c1,0,2,.81,3,1.26-.42.88-.77,2.49-1.27,2.54-7.26.72-14.55,1.24-21.83,1.8-2.18-5.56-7.06-5.7-11.92-6.2-.91-.1-2.24-1.77-2.38-2.85-1.52-11.26-2.87-22.54-4.2-33.82-.45-3.86,1.22-5.72,5.28-5.72,4.47,0,8.95-.36,13.41-.7,3.4-.26,4.49,1.43,4.74,4.56.42,5.14,1.1,10.26,1.79,15.38.49,3.64,2.57,5.49,6.39,5.19S273.09,234.59,277.45,234.29Z"/><path class="cls-2" d="M422.23,11.72c-9.62-5.81-10.42-5.67-12.06,3.95-.94-2.83-2-4.56-1.93-6.22.13-2,.72-4.88,2.12-5.75,1.22-.75,4.24.23,5.75,1.38C418.47,6.87,420.22,9.47,422.23,11.72Z"/><path class="cls-2" d="M490,16.88c-1.88,3.44-3.77,6.88-5.84,10.68C480,22,481.34,19.21,490,16.88Z"/><path class="cls-2" d="M414.7,10.37l7.22,8.46-.65,1.42c-1.47.08-3.85.76-4.24.15a74.7,74.7,0,0,1-4.37-8.83Z"/><path d="M459.92,93.92c-3.5-.79-7.06-1.42-10.49-2.46-1.35-.4-3.06-1.47-3.53-2.66a126.88,126.88,0,0,1-5.47-16.08c-1.07-4.32.66-8,4.51-10.7,1.5-1.07,2.12-3.33,3.23-5,.82-1.23,1.68-3.28,2.7-3.39a121.81,121.81,0,0,1,14.3-.65c.95,0,2.78,1.33,2.7,1.81-.69,4.59,2.86,6.13,5.47,8.54,4.07,3.78,4.16,9.58.7,13.94a5.36,5.36,0,0,0-1.36,3C472.89,90.37,470,93.4,459.92,93.92Zm.62-3c1.75-.44,4.73-.74,7.25-2,3.24-1.57,4-7.84,1.2-9.26-5.33-2.68-11-4.75-17.16-3.28-4.63,1.11-6.05,4-4.49,8.55C449.4,91,454.71,90.11,460.54,90.91Zm6.73-30.64c-3.66,7.54-11.76,9.92-15.66,6.33-1.18-1.08-3.81-2.62-4.08-2.34-1.75,1.86-3.69,4-4.31,6.36-.69,2.6-.4,6.37,4.11,4.34,7.16-3.22,14.17-1.69,21.17.11,3.95,1,5.81-1,4.91-4.1C472.4,67.51,469.8,64.52,467.27,60.27Zm-12,3.66.86.94,5.63-6.9L456,56.75C455.71,59.63,455.47,61.78,455.22,63.93Z"/><path d="M475.66,39.29c-.11,3.35-.21,6.69-4.73,6.51-4.19-.17-8.21-3.54-7.86-6.62s1.33-6.58,5.07-5.62C471.06,34.31,476.75,33,475.66,39.29Z"/><path d="M447.21,44c-4.75-.87-8.13-1.56-8-6,.08-4.11,3.49-4.46,6.73-4.77,4.12-.4,6.1,1.8,5.45,5.4C451,40.58,448.66,42.19,447.21,44Z"/><path class="cls-2" d="M460.54,90.91c-5.83-.8-11.14.07-13.2-6-1.56-4.54-.14-7.44,4.49-8.55,6.16-1.47,11.83.6,17.16,3.28,2.8,1.42,2,7.69-1.2,9.26C465.27,90.17,462.29,90.47,460.54,90.91Z"/><path class="cls-2" d="M467.27,60.27c2.53,4.25,5.13,7.24,6.14,10.7.9,3.11-1,5.11-4.91,4.1-7-1.8-14-3.33-21.17-.11-4.51,2-4.8-1.74-4.11-4.34.62-2.37,2.56-4.5,4.31-6.36.27-.28,2.9,1.26,4.08,2.34C455.51,70.19,463.61,67.81,467.27,60.27Z"/><path class="cls-2" d="M455.22,63.93c.25-2.15.49-4.3.82-7.18L461.71,58l-5.63,6.9Z"/><path class="cls-3" d="M465.52,39.58c0-3.79,1.7-3.79,3.79-3.79s4.87-.54,4.87,4.33-2.78,3.24-4.87,3.24S465.52,43.36,465.52,39.58Z"/><path class="cls-3" d="M440.9,37.68c0-2.09,2.51-3,4.6-3s3.79-.54,3.79,2.17-1.7,5.41-3.79,5.41A5.33,5.33,0,0,1,440.9,37.68Z"/><ellipse cx="469.31" cy="39.58" rx="1.62" ry="4.87"/><ellipse cx="445.5" cy="38.49" rx="1.62" ry="4.87"/><g class="cls-4"><path d="M382.19,9.09c.54.17.25-1-.28-.81s-.59.93-.55,1.5l2,31.75c1.6,25.64,3.29,51.69,12.1,75.82a290.94,290.94,0,0,1,6.2-104.06,20.28,20.28,0,0,0-22.25-6.18"/><path d="M365.28,15.65c-2.56.41-3.8,3.3-4.58,5.77-5.16,16.34-10.35,32.83-11.88,49.89s.86,35,9.94,49.49c-3.35-14.88-.57-30.4,2.63-45.31q5.64-26.23,13-52a9.83,9.83,0,0,0,.56-3.54c-.27-2.93-3.19-5-6.1-5.41s-5.82.6-8.6,1.54"/><path d="M319.48,25.47c-3.14.24-4.56,4-5.14,7.08a147.64,147.64,0,0,0,21.23,107.18,196.38,196.38,0,0,1-2.74-104.11c.58-2.34,1.2-4.84.42-7.13C331.38,23,323.67,23,317.94,24"/><path d="M274.33,31.24a49.74,49.74,0,0,0-8,18.58c-3.8,16.77-1.61,34.46,3.5,50.88s13,31.8,20.93,47.08c-6.32-13.2-6.09-28.47-5.73-43.1.49-20.46,1-41,5.12-61.09.57-2.77,1.2-5.73.16-8.36-2.34-6-10.94-6-16.95-3.65"/><path d="M235.76,37.08c-13.31,21.37-14.27,48.64-8.08,73s18.87,46.59,31.6,68.31a172.21,172.21,0,0,1-13.76-58c-1.32-22.51,1.8-45,4.25-67.42.35-3.25.49-7.06-2-9.22-3.84-3.38-9.84.28-14.9-.5"/><path d="M196.46,52.63c-4.83,15.68-3.71,32.71.41,48.58S208,132.05,215,146.9a244.63,244.63,0,0,1-3.13-89.2c.23-1.56.46-3.25-.25-4.66-1.19-2.38-4.45-2.84-7-2.22s-5,2-7.66,2.17"/><path d="M367.14,224.22c-2.56-16.16,2.07-32.46,4.86-48.58s3.37-34-6-47.43a107.58,107.58,0,0,1,13.18,66.42c-.74,5.82-2,11.69-4.95,16.77s-7.78,9.31-13.55,10.37a2.37,2.37,0,0,1,1-3.47"/><path d="M404.87,215.45c8.84-19.29,17.88-39.61,16.4-60.78C419.68,131.78,405.9,110.9,405.36,88c4.28,12.56,13.54,22.64,21.67,33.13s15.59,22.64,15.18,35.9c-.51,16.26-12.52,29.61-18.13,44.88-2.48,6.77-3.7,13.93-4.9,21a41.64,41.64,0,0,1-17.05-4"/><path d="M489.71,106.54A114.56,114.56,0,0,1,463,131c-3.4,2.23-7.11,4.5-8.81,8.19,5.57-.73,11.26-.29,16.82-1.11s11.31-3.18,14.24-8a19.1,19.1,0,0,0,2.29-6.62A35.5,35.5,0,0,0,487,108.6"/><path d="M486,144.19C476,160,465.34,176.52,449,185.68c6.16-1,12.59,0,18.61-1.67,7.29-2,13.23-7.91,15.92-15a31.21,31.21,0,0,0-.46-22.17"/><path d="M414.64,52.79c7.87-5.51,17-11.3,26.39-9.14A26.48,26.48,0,0,0,425.64,53c-2.14,2.66-4.72,6.14-8,5.3s-3.85-6-1.69-8.82"/><path d="M420.26,76.66a63.58,63.58,0,0,1,14.53-13.44A31.5,31.5,0,0,0,426,82.29c-4.39.62-8.67-4-7.74-8.3"/><path d="M503,52.63,488.7,49.09c-3.85-1-7.94-1.89-11.7-.63a59.34,59.34,0,0,1,28.73,20.16,24.13,24.13,0,0,0-3.31-17.57"/><path d="M499.17,87.11c-3.54-7.23-7.49-14.92-14.58-18.74A78.93,78.93,0,0,0,492.7,91a1.81,1.81,0,0,0,.93,1,1.77,1.77,0,0,0,1.31-.36A21.89,21.89,0,0,0,500.2,87"/><path d="M491.25,190a206.22,206.22,0,0,1-25.91,28.07c5.28-.16,10.72-.34,15.56-2.49s9-6.77,8.87-12.06c0-2.74-1.19-5.42-.9-8.15.06-.54.07-1.25-.44-1.42s-.35,1-.06.57"/><path d="M425.17,229.69a133.48,133.48,0,0,0,21.95-3.43,111.92,111.92,0,0,1-16,16.7,4.19,4.19,0,0,1-2.4,1.25c-1.76.08-2.84-1.85-3.49-3.49a19.35,19.35,0,0,1-1.77-6.71c0-2.33.93-4.82,3-5.94"/><path d="M419.7,260.2c1.69,1.22,4,.46,5.95-.36a161.51,161.51,0,0,0,18.48-9.45,127,127,0,0,1-15.73,19c-1.69,1.67-4.27,3.39-6.21,2a5.22,5.22,0,0,1-1.67-3l-2.26-7.94"/><path d="M490.94,224A156.57,156.57,0,0,1,467.71,244c5.51,2.63,12,1.32,18-.05,5.09-1.17,11-3.07,12.53-8.06s-2.5-10.09-6.25-13.9"/><path d="M317.08,215.92c1.37.45,2.44-1.19,2.89-2.56,5.23-15.85,2.07-33.13-1.64-49.4q-2.65-11.58-5.64-23.08a242.32,242.32,0,0,1,24.23,68.53c.89,4.68,1.11,10.62-3,13a10,10,0,0,1-6.33.76,30.32,30.32,0,0,1-17.53-8.87"/><path d="M288.08,218.21l-2.87-13.66L273,146.37c2.89,2.2,4.42,5.71,5.82,9.06l18.54,44c2,4.73,4,9.84,2.92,14.84a2.72,2.72,0,0,1-.91,1.72,2.88,2.88,0,0,1-1.48.4,41.43,41.43,0,0,1-11.55-.67"/><path d="M190.73,182.55a58.78,58.78,0,0,0,35.17.68c-5.69,6.24-13,12-21.44,12.05a9.19,9.19,0,0,1-5.1-1.21,11.12,11.12,0,0,1-3.08-3.52,65.27,65.27,0,0,1-5.45-10.66"/><path d="M190.78,212.58c-.64,1.76,1.84,2.93,3.7,3.07A50.24,50.24,0,0,0,217.54,212a24.63,24.63,0,0,1-15.89,14.38c-2.39.69-5.29.88-7.05-.88a7.82,7.82,0,0,1-1.75-4.21,64.37,64.37,0,0,1-1.08-11.75"/><path d="M170.53,179.79c-4.53-11.91-5.3-24.91-5.21-37.65.09-13.39,1.31-27.46,8.7-38.62,1.45,5.89.2,12-.13,18.11-.83,15.49,4.45,30.56,8.79,45.45a7.52,7.52,0,0,1,.39,4,6.56,6.56,0,0,1-2.92,3.39,23.37,23.37,0,0,1-12.67,3.93"/><path d="M152.67,190.4a44.32,44.32,0,0,1-11.82-36c1.72-.58,3,1.58,3.57,3.31a111.23,111.23,0,0,0,14.71,29.32,58.37,58.37,0,0,1-5.46,4.71"/><path d="M131.85,213.27c-8.55-4.77-12.66-14.62-16.16-23.76-1.34-3.52-2.63-7.73-.5-10.85a129.46,129.46,0,0,0,16.37,22c2.07,2.23,4.34,4.7,4.43,7.74s-3.64,6-6,4.08"/><path d="M111.9,230.9c-5.31-5.51-10.7-11.15-14-18.06s-4.12-15.43-.27-22a73.25,73.25,0,0,0,16.79,28.89,6.05,6.05,0,0,1,1.63,2.33c.47,1.53-.34,3.13-1.12,4.53-1.23,2.21-2.81,4.67-5.32,5"/><path d="M73.61,240.53a81.17,81.17,0,0,1-8.08-23.65c-1-5.76-.9-12.8,4-16.08a153.26,153.26,0,0,0,13.18,39.37,106.52,106.52,0,0,1-13.82-2.51"/><path d="M39.71,239.56c-6.11-7.1-5.77-18.85.73-25.58a83.63,83.63,0,0,0,5.3,29.15l-10.49-4.41"/><path d="M6.93,221.06a1.79,1.79,0,0,1-.95,2,63,63,0,0,1,12.14-33.31c.95-1.29,3.18-2.43,3.8-.95a51.16,51.16,0,0,0-9.52,35,7.21,7.21,0,0,1-6.73-3.17"/><path d="M-9.75,183.71c4.24-3.7,8.72-7.23,13.88-9.46s11.11-3.08,16.44-1.29A56.1,56.1,0,0,0,2.83,184.83c-2.58,2.57-5.73,5.66-9.27,4.77-4.12-1-5-6.43-5-10.68"/></g><path d="M452.86,17.54A12.6,12.6,0,0,1,454.79,24c.19,2.69.18,5.4.24,8.1a1.51,1.51,0,0,0,3,.4,38.73,38.73,0,0,0,1.14-16.34A1.51,1.51,0,0,0,457.67,15a13.24,13.24,0,0,0-2.57.56,1.51,1.51,0,0,0,0,2.89,2.94,2.94,0,0,0,3.11-.89,1.53,1.53,0,0,0-.67-2.51,5.4,5.4,0,0,0-2.79-.21,1.5,1.5,0,0,0-1,1.84,1.53,1.53,0,0,0,1.84,1.05,2.48,2.48,0,0,1,1.2.21l-.66-2.51c-.14.17-.11.15-.2.13v2.89a10.09,10.09,0,0,1,1.78-.45l-1.45-1.1a35,35,0,0,1-1.14,14.75l2.95.4c-.07-2.87,0-5.76-.28-8.62a15.16,15.16,0,0,0-2.3-7.44c-1.08-1.58-3.68-.08-2.59,1.52Z"/><path d="M449.82,31.39a11.45,11.45,0,0,1,14-.45,1.52,1.52,0,0,0,2.06-.54,1.53,1.53,0,0,0-.54-2,14.46,14.46,0,0,0-17.6.92c-1.46,1.27.67,3.38,2.12,2.12Z"/><path d="M441.51,29.49A27.06,27.06,0,0,1,470.73,27c1.7.93,3.21-1.66,1.52-2.59a30.17,30.17,0,0,0-32.86,2.93c-1.51,1.21.63,3.32,2.12,2.12Z"/><path class="cls-5" d="M455.3,56.54a7.82,7.82,0,0,0-2.17,5.08,3.58,3.58,0,0,0,1,2.57,3,3,0,0,0,3.47.34,9.73,9.73,0,0,0,2.16-1.68,5.06,5.06,0,0,0,1.56-2.43,3.47,3.47,0,0,0-.43-2.81,3,3,0,0,0-3.1-1.21,3.83,3.83,0,0,0-2.53,1.83,8.24,8.24,0,0,0-.87,3.27,1.51,1.51,0,0,0,1.9,1.45,9.21,9.21,0,0,0,2.1-1.22,3.19,3.19,0,0,0,1.44-2.17,2.56,2.56,0,0,0-.25-1.21,4.69,4.69,0,0,0-.63-1.19,2.69,2.69,0,0,0-2.73-1.07,1.5,1.5,0,0,0-1.08,1.65A1.48,1.48,0,0,0,456.6,59h.17c.17,0,.12,0-.13,0a2,2,0,0,0,.26.06c.11,0,.11,0,0,0s-.13,0,0,0a.56.56,0,0,1,.15.1c-.18-.15-.21-.17-.1-.07A1.5,1.5,0,1,0,459,57,3.24,3.24,0,0,0,456.6,56l.39,3c-.25,0-.29,0-.13,0-.24,0-.3-.05-.19,0l-.15-.06c.14.08.11.06-.08-.08,0,0,.21.19.2.19-.13-.16-.16-.2-.1-.1l.08.12c0,.09.08.17.13.26.13.27-.12-.31,0,.05,0,0,0,.11.05.16s0,.14,0-.08L457,59c-.08.13-.06.1.08-.09a4,4,0,0,0-.41.41l-.26.23.11-.09-.16.12a5.19,5.19,0,0,1-.5.31l-.25.14c-.09,0-.51.23-.09,0l1.9,1.45a2.66,2.66,0,0,0,0-.28s0,.37,0,.11.05-.32.08-.47.07-.32.11-.47l.06-.23c0-.07.13-.24.12-.31s-.17.32,0,.1l.14-.24a1.4,1.4,0,0,0,.1-.16c-.1.25-.16.2,0,.08s.37-.36.17-.18,0,0,0,0l.21-.12c-.32.21-.22.09-.07,0l.15,0c.27-.08-.32,0-.13,0h.19s.31,0,0,0,0,0,0,0c.25,0-.17-.06-.15-.07l.13.08q-.28-.24-.12-.09a1.14,1.14,0,0,0,.11.11c-.2-.12-.18-.27-.09-.09s0,.17,0-.13a.88.88,0,0,0,0,.15,1.74,1.74,0,0,0,.05.22c-.12-.32,0-.3,0-.16v.23c0,.27.08-.36,0-.08s-.06.25-.1.38.06-.14.06-.14a.8.8,0,0,1-.13.24c0,.06-.07.11-.1.16l-.06.08c-.09.13-.07.1.07-.08,0,0-.31.34-.35.38-.21.21-.44.41-.67.61l-.35.31s-.21.19-.23.18l.15-.11-.15.11a2.65,2.65,0,0,1-.42.26S456,62,456,62l.18-.08L456,62c-.16.06-.08-.08.14,0h-.09c-.16,0-.12,0,.14,0a.83.83,0,0,0-.18-.05c.23.11.27.12.14.06l-.06,0c-.24-.12.28.25.09.06s0-.13.1.14l-.11-.18c-.07-.11,0-.17.06.17,0-.12-.07-.24-.1-.36s0,.33,0,.13,0-.17,0-.26,0-.29,0-.43-.07.41,0,.14l.06-.28a4.94,4.94,0,0,1,.15-.55l.06-.18c0-.07.15-.3.13-.36s-.15.33,0,.09l.12-.25a5,5,0,0,1,.29-.5s.33-.46.32-.47-.21.25-.06.08l.25-.29a1.5,1.5,0,1,0-2.12-2.12Z"/></svg>