<svg id="Layer_1" data-name="Layer 1" xmlns="http://www.w3.org/2000/svg" viewBox="0 0 433.72 398.18"><defs><style>.cls-1{fill:#f6ca0f;}.cls-2{fill:#f19983;}</style></defs><polygon class="cls-1" points="385.99 211.28 430.95 203.48 431.55 235.85 385.99 238.25 385.99 211.28"/><path class="cls-1" d="M140.92,227.89a23.67,23.67,0,0,0-3.39,7.75,22.38,22.38,0,0,1-6.38,11.7c-3,3-4.41,6.74-5.88,10.68a103.63,103.63,0,0,1-9,19.32,248.81,248.81,0,0,0-12.53,23.23c-3.4,6.88-6.4,13.95-9.57,20.95C90.05,330.6,86,339.7,81.82,348.75,80,352.61,78.68,357,75.93,360c-3.52,3.91-7.79,7.44-13.55,8.19-4.1.53-6.59-.68-8-4.57a26.08,26.08,0,0,1-1.61-13.69c-1.13,1.89-2.19,3.83-3.41,5.67-1,1.49-2.06,2.87-4.09,3.22a4.67,4.67,0,0,1-4.71-1.45c-1.74-2-3.07-4.2-2.54-7.05a11.43,11.43,0,0,0,0-1.79c-.4.45-.65.67-.83.93a10.26,10.26,0,0,1-12.9,3.23,3.54,3.54,0,0,0-.86-.35c-4.36-.85-5.39-3.89-4.62-8.23,1-5.74,3.54-10.93,5.74-16.25a5,5,0,0,0,.56-2c-2.16,2.4-4.16,5-6.52,7.17a41.93,41.93,0,0,1-7.72,6c-3.07,1.73-7.65-.1-8.91-3.41-2.63-6.91-3.08-14,1.46-20.22a34.77,34.77,0,0,1,11.44-10.24c11.63-6.33,21.9-14.33,30.08-24.79,3.5-4.47,6.51-9.34,9.7-14.06,3-4.36,5.82-8.78,8.78-13.14,2.75-4,5.33-8.19,9-11.55,5.36-4.87,10.51-10,15.74-15a110.19,110.19,0,0,0,18.21-22.49c2.37-3.94,4.91-7.76,7.43-11.6a2.62,2.62,0,0,0,.16-2.69,22.82,22.82,0,0,1-1.6-6.42,58.65,58.65,0,0,1,2.22-19.28c.93-3.25,3.4-5.07,5.21-7.45,1.93-2.53,4.52-4.56,6.93-6.92a16.42,16.42,0,0,1-2.1-1.92c-2.16-2.69-4.69-5.23-6.22-8.25-2.08-4.1-.41-8.17,1.55-12,2.88-5.62,10.36-5.08,13.64-1.49,1.79,2,3.61,3.87,5.58,6a17.48,17.48,0,0,0,.17-2.05,58,58,0,0,1,3.32-22.24c3.34-8.93,6.87-17.62,13.07-25.09,9-10.87,18.35-21.44,29.89-29.67,12.82-9.15,25.79-18.13,39.07-26.61,9-5.73,18.52-10.58,28-15.56,2.92-1.54,6.26-2.32,9.48-3.24,6.3-1.8,12.59-3.77,19-5.07A146.2,146.2,0,0,1,298.65.36C303.5,0,308.39,0,313.26,0c6.24,0,12.47.29,18.71.44,10.55.24,20.72,2.62,30.83,5.4,5.67,1.57,11.42,2.89,17,4.62,7.05,2.16,14.24,4.4,19.76,9.52,7.38,6.83,14.46,14,17.57,24a34.46,34.46,0,0,1,1.23,6.54c.56,5.34,1,10.71,1.45,16.07.51,6,1.07,12.06,1.49,18.1.94,13.44.9,27,3.72,40.23,1,4.59,1.6,9.26,2.16,13.92.66,5.47,1,11,1.61,16.46,1,8.6.84,17.24,1.16,25.87.11,3.13.78,6.24,1.16,9.37.32,2.64.78,5.27.86,7.92q.36,12,.43,24a24.27,24.27,0,0,1-.72,4.34l-.75-.07c-.24-7.38-.47-14.75-.71-22.31-14.58,3.08-28.35,9.12-43.41,8.2v25a73.57,73.57,0,0,0,7.32-1.16,56.78,56.78,0,0,1,16.59-1.49c6.25.2,12.51-.38,18.77-.61,1,0,1.55-.39,1.41-1.47-.19-1.4-.37-2.81-.59-4.52,1.34-1.14,2.85-.77,3.37,1.36l-.87.23c-.13,4.26-.25,8.28-.39,12.3-.13,3.82-.19,7.65-.44,11.46a65,65,0,0,1-8,26.47,25.22,25.22,0,0,0-1.74,3.49c-1.46,4.23-4.92,6.2-8.68,7.82a3.83,3.83,0,0,1-1.95-.06c-6.1-.92-10.52-4.4-14.07-9.22a42.49,42.49,0,0,0-2.95-4.06c-4.3-4.61-6-10.22-7-16.29a158.86,158.86,0,0,1-2.22-22.19c-.14-8.43-.69-16.86-.61-25.28.09-9.53.67-19.06,1.08-28.59.26-6.25.53-12.49.91-18.73.32-5.41,1-10.81,1.19-16.23.34-9.71.43-19.42.62-29.13.09-4.29.08-8.57.23-12.85.33-9-.88-17.8-2.17-26.62-.84-5.8-2.07-11.54-3.14-17.31a2,2,0,0,0-.52-.94c-.8,10.11-3.25,20-3.16,30.21.09,9.77-.78,19.54-1.19,29.32-.35,8.42-.69,16.83-1,25.25-.27,8.62,0,17.28-.76,25.84-1,11.25-2.78,22.43-4.36,33.63-1.44,10.28-3.14,20.52-4.57,30.8-1.26,9.06-2.48,18.13-3.42,27.22-1,9.78-1.57,19.59-2.49,29.38-.28,3.06-1.07,6.07-1.61,9.11-.76,4.26-1.54,8.51-2.24,12.78-1.41,8.66-2.74,17.33-4.18,26-1.05,6.31-3.6,11.85-8.83,15.85a10.58,10.58,0,0,1-2.06,1.25c-2.31,1-4,.38-4.95-2-1.49-3.88-2.83-7.81-4.24-11.72-.14-.39-.3-.77-.32-.83-1.6,3.89-3.24,7.94-4.92,12a9,9,0,0,1-1.12,1.92c-2.79,3.62-6.07,3.67-8.92.08-3.77-4.74-5.3-10.45-6.7-16.18-.13-.53-.25-1.07-.5-2.11a30.88,30.88,0,0,1-1.06,3.51,72.76,72.76,0,0,1-3.6,7.5c-1.44,2.43-3.62,3.06-6.3,2.17-2.93-1-5.4-2.64-6.61-5.59-1.67-4-3.17-8.15-4.77-12.32-1,1.47-2,3.27-3.32,4.85-1.91,2.33-4,4.55-6.06,6.72a1.86,1.86,0,0,1-1.78.18c-1.38-1-3-1.95-3.83-3.34-3.09-5.29-4-10.71-1.9-16.9a63.09,63.09,0,0,1,6.32-14.16c1.75-2.75,2.86-5.91,4.39-8.81,1-1.86,2.3-3.53,3.33-5.36a30.92,30.92,0,0,0,2.19-4.66c2.2-6.14,6.16-11.25,9.45-16.76,2.22-3.72,4.35-7.51,6.5-11.27a5,5,0,0,0,.56-1.38c1.77-7.58,5.3-14.54,7.73-21.86,1.83-5.54,2.58-11.43,3.9-17.14,2-8.68,3.9-17.39,6.15-26a123.5,123.5,0,0,0,3.45-24.94c.45-8.83,1.28-17.63,1.77-26.46s.8-17.94,1.12-26.91a15.84,15.84,0,0,0-.46-4c-.67-3-2.36-5-5.48-5.62-1.39-.27-2.77-.58-4.27-.9-.32,2.69-.61,5.25-.95,7.79-.89,6.62-1.74,13.23-2.73,19.83-1.63,10.88-3.46,21.73-5,32.63-.62,4.43-.61,8.95-1,13.42-.12,1.45-.8,2.85-.92,4.3a75.71,75.71,0,0,1-3.73,16.8c-1.47,4.57-2,9.44-3.11,14.13-.66,2.69-1.72,5.29-2.61,7.93-1.31,3.87-2.43,7.83-4,11.59-3.58,8.58-7.56,17-11.08,25.59-3.7,9.06-6.88,18.34-10.63,27.38-3.53,8.53-7.58,16.85-11.26,25.32a53.75,53.75,0,0,1-10,15.37,13.57,13.57,0,0,1-6.67,4.2c-2.7.68-4.8-.39-5.31-3.16a68.13,68.13,0,0,1-.56-7.77c-.68,1.35-1.36,2.76-2.1,4.14a5.37,5.37,0,0,1-4,3.05c-2.72.47-4.74-.57-5.29-3.32-.5-2.52-.58-5.13-.85-7.65a16,16,0,0,1-2.58,1.48c-2.88,1-4.92.25-5.65-2.68-.67-2.71-.6-5.61-.81-8.42a6.57,6.57,0,0,0,0-1.65c-.84.9-1.66,1.82-2.53,2.69a5,5,0,0,1-7.14,0,3,3,0,0,1-.79-2,39.51,39.51,0,0,1,.69-7c1.06-4.53,2.28-9,3.69-13.44a24.53,24.53,0,0,1,3.09-6.71c4.08-5.77,8.4-11.36,12.67-17,5.75-7.6,11-15.51,14.12-24.59,1.11-3.18,2.32-6.33,3.59-9.45,3.18-7.83,6.48-15.61,9.62-23.46,5.84-14.62,11.18-29.43,15.54-44.57,1.43-5,2.29-10.12,3.41-15.19l-.53-.3c-3.06,4-6.54,7.73-9.08,12-2.74,4.6-4.56,9.74-6.84,14.62-4,8.59-8.27,17.08-12.06,25.78-4.58,10.51-8.75,21.2-13.19,31.77-1.54,3.65-3.23,7.26-5.11,10.74-4.89,9.06-9.78,18.13-15,27-2.92,5-6.31,9.8-9.62,14.59-6.21,9-10.95,18.74-16,28.37-2.89,5.55-5.68,11.15-8.67,16.65-1.23,2.28-3,4.28-4.27,6.52-2.36,4-4.44,8.25-6.86,12.25-2.89,4.76-6.13,9.31-9,14.08a80.79,80.79,0,0,0-4.39,8.72c-1.44,3.21-2.63,6.53-4,9.77a34.91,34.91,0,0,1-2.44,5c-1.68,2.65-2.64,5.82-5.7,7.51-3.39,1.87-9.08,1.34-11.86-1.33-1.42-1.37-1-3.09-.93-4.74a16.38,16.38,0,0,1,.35-2c-2.48,1.94-5.06,2.73-7.59,1.08-2.82-1.83-2.86-4.82-2.25-7.69-1.82,1.35-3.59,2.74-5.46,4-2.42,1.64-8.12,1.17-9.78-1-1-1.33-1.35-3.16-2-4.77l.42-.18c-.11,0-.26-.16-.32-.12-4.56,3-9.8-2.3-9.81-7a26.91,26.91,0,0,1,2.19-10.82c1.49-3.53,2.56-7.25,4.13-10.74,2.14-4.74,4.82-9.24,6.85-14,3.56-8.39,6.73-16.94,10.23-25.35a44.83,44.83,0,0,1,4.6-8.69c5.49-7.74,9.85-16.14,14.63-24.29,2.69-4.58,3.89-9.62,5.6-14.52,2.84-8.14,5.85-16.21,8.63-24.36a32,32,0,0,0,.34-20.43c-.3-.94-.52-1.91-.76-2.85C146,220.77,143.26,224.19,140.92,227.89Z"/><path d="M148.67,217.15c-2.65,3.62-5.41,7-7.75,10.74a23.67,23.67,0,0,0-3.39,7.75,22.38,22.38,0,0,1-6.38,11.7c-3,3-4.41,6.74-5.88,10.68a103.63,103.63,0,0,1-9,19.32,248.81,248.81,0,0,0-12.53,23.23c-3.4,6.88-6.4,13.95-9.57,20.95C90.05,330.6,86,339.7,81.82,348.75,80,352.61,78.68,357,75.93,360c-3.52,3.91-7.79,7.44-13.55,8.19-4.1.53-6.59-.68-8-4.57a26.08,26.08,0,0,1-1.61-13.69c-1.13,1.89-2.19,3.83-3.41,5.67-1,1.49-2.06,2.87-4.09,3.22a4.67,4.67,0,0,1-4.71-1.45c-1.74-2-3.07-4.2-2.54-7.05a11.43,11.43,0,0,0,0-1.79c-.4.45-.65.67-.83.93a10.26,10.26,0,0,1-12.9,3.23,3.54,3.54,0,0,0-.86-.35c-4.36-.85-5.39-3.89-4.62-8.23,1-5.74,3.54-10.93,5.74-16.25a5,5,0,0,0,.56-2c-2.16,2.4-4.16,5-6.52,7.17a41.93,41.93,0,0,1-7.72,6c-3.07,1.73-7.65-.1-8.91-3.41-2.63-6.91-3.08-14,1.46-20.22a34.77,34.77,0,0,1,11.44-10.24c11.63-6.33,21.9-14.33,30.08-24.79,3.5-4.47,6.51-9.34,9.7-14.06,3-4.36,5.82-8.78,8.78-13.14,2.75-4,5.33-8.19,9-11.55,5.36-4.87,10.51-10,15.74-15a110.19,110.19,0,0,0,18.21-22.49c2.37-3.94,4.91-7.76,7.43-11.6a2.62,2.62,0,0,0,.16-2.69,22.82,22.82,0,0,1-1.6-6.42,58.65,58.65,0,0,1,2.22-19.28c.93-3.25,3.4-5.07,5.21-7.45,1.93-2.53,4.52-4.56,6.93-6.92a16.42,16.42,0,0,1-2.1-1.92c-2.16-2.69-4.69-5.23-6.22-8.25-2.08-4.1-.41-8.17,1.55-12,2.88-5.62,10.36-5.08,13.64-1.49,1.79,2,3.61,3.87,5.58,6a17.48,17.48,0,0,0,.17-2.05,58,58,0,0,1,3.32-22.24c3.34-8.93,6.87-17.62,13.07-25.09,9-10.87,18.35-21.44,29.89-29.67,12.82-9.15,25.79-18.13,39.07-26.61,9-5.73,18.52-10.58,28-15.56,2.92-1.54,6.26-2.32,9.48-3.24,6.3-1.8,12.59-3.77,19-5.07A146.2,146.2,0,0,1,298.65.36C303.5,0,308.39,0,313.26,0c6.24,0,12.47.29,18.71.44,10.55.24,20.72,2.62,30.83,5.4,5.67,1.57,11.42,2.89,17,4.62,7.05,2.16,14.24,4.4,19.76,9.52,7.38,6.83,14.46,14,17.57,24a34.46,34.46,0,0,1,1.23,6.54c.56,5.34,1,10.71,1.45,16.07.51,6,1.07,12.06,1.49,18.1.94,13.44.9,27,3.72,40.23,1,4.59,1.6,9.26,2.16,13.92.66,5.47,1,11,1.61,16.46,1,8.6.84,17.24,1.16,25.87.11,3.13.78,6.24,1.16,9.37.32,2.64.78,5.27.86,7.92q.36,12,.43,24a24.27,24.27,0,0,1-.72,4.34l-.75-.07c-.24-7.38-.47-14.75-.71-22.31-14.58,3.08-28.35,9.12-43.41,8.2v25a73.57,73.57,0,0,0,7.32-1.16,56.78,56.78,0,0,1,16.59-1.49c6.25.2,12.51-.38,18.77-.61,1,0,1.55-.39,1.41-1.47-.19-1.4-.37-2.81-.59-4.52,1.34-1.14,2.85-.77,3.37,1.36l-.87.23c-.13,4.26-.25,8.28-.39,12.3-.13,3.82-.19,7.65-.44,11.46a65,65,0,0,1-8,26.47,25.22,25.22,0,0,0-1.74,3.49c-1.46,4.23-4.92,6.2-8.68,7.82a3.83,3.83,0,0,1-1.95-.06c-6.1-.92-10.52-4.4-14.07-9.22a42.49,42.49,0,0,0-2.95-4.06c-4.3-4.61-6-10.22-7-16.29a158.86,158.86,0,0,1-2.22-22.19c-.14-8.43-.69-16.86-.61-25.28.09-9.53.67-19.06,1.08-28.59.26-6.25.53-12.49.91-18.73.32-5.41,1-10.81,1.19-16.23.34-9.71.43-19.42.62-29.13.09-4.29.08-8.57.23-12.85.33-9-.88-17.8-2.17-26.62-.84-5.8-2.07-11.54-3.14-17.31a2,2,0,0,0-.52-.94c-.8,10.11-3.25,20-3.16,30.21.09,9.77-.78,19.54-1.19,29.32-.35,8.42-.69,16.83-1,25.25-.27,8.62,0,17.28-.76,25.84-1,11.25-2.78,22.43-4.36,33.63-1.44,10.28-3.14,20.52-4.57,30.8-1.26,9.06-2.48,18.13-3.42,27.22-1,9.78-1.57,19.59-2.49,29.38-.28,3.06-1.07,6.07-1.61,9.11-.76,4.26-1.54,8.51-2.24,12.78-1.41,8.66-2.74,17.33-4.18,26-1.05,6.31-3.6,11.85-8.83,15.85a10.58,10.58,0,0,1-2.06,1.25c-2.31,1-4,.38-4.95-2-1.49-3.88-2.83-7.81-4.24-11.72-.14-.39-.3-.77-.32-.83-1.6,3.89-3.24,7.94-4.92,12a9,9,0,0,1-1.12,1.92c-2.79,3.62-6.07,3.67-8.92.08-3.77-4.74-5.3-10.45-6.7-16.18-.13-.53-.25-1.07-.5-2.11a30.88,30.88,0,0,1-1.06,3.51,72.76,72.76,0,0,1-3.6,7.5c-1.44,2.43-3.62,3.06-6.3,2.17-2.93-1-5.4-2.64-6.61-5.59-1.67-4-3.17-8.15-4.77-12.32-1,1.47-2,3.27-3.32,4.85-1.91,2.33-4,4.55-6.06,6.72a1.86,1.86,0,0,1-1.78.18c-1.38-1-3-1.95-3.83-3.34-3.09-5.29-4-10.71-1.9-16.9a63.09,63.09,0,0,1,6.32-14.16c1.75-2.75,2.86-5.91,4.39-8.81,1-1.86,2.3-3.53,3.33-5.36a30.92,30.92,0,0,0,2.19-4.66c2.2-6.14,6.16-11.25,9.45-16.76,2.22-3.72,4.35-7.51,6.5-11.27a5,5,0,0,0,.56-1.38c1.77-7.58,5.3-14.54,7.73-21.86,1.83-5.54,2.58-11.43,3.9-17.14,2-8.68,3.9-17.39,6.15-26a123.5,123.5,0,0,0,3.45-24.94c.45-8.83,1.28-17.63,1.77-26.46s.8-17.94,1.12-26.91a15.84,15.84,0,0,0-.46-4c-.67-3-2.36-5-5.48-5.62-1.39-.27-2.77-.58-4.27-.9-.32,2.69-.61,5.25-.95,7.79-.89,6.62-1.74,13.23-2.73,19.83-1.63,10.88-3.46,21.73-5,32.63-.62,4.43-.61,8.95-1,13.42-.12,1.45-.8,2.85-.92,4.3a75.71,75.71,0,0,1-3.73,16.8c-1.47,4.57-2,9.44-3.11,14.13-.66,2.69-1.72,5.29-2.61,7.93-1.31,3.87-2.43,7.83-4,11.59-3.58,8.58-7.56,17-11.08,25.59-3.7,9.06-6.88,18.34-10.63,27.38-3.53,8.53-7.58,16.85-11.26,25.32a53.75,53.75,0,0,1-10,15.37,13.57,13.57,0,0,1-6.67,4.2c-2.7.68-4.8-.39-5.31-3.16a68.13,68.13,0,0,1-.56-7.77c-.68,1.35-1.36,2.76-2.1,4.14a5.37,5.37,0,0,1-4,3.05c-2.72.47-4.74-.57-5.29-3.32-.5-2.52-.58-5.13-.85-7.65a16,16,0,0,1-2.58,1.48c-2.88,1-4.92.25-5.65-2.68-.67-2.71-.6-5.61-.81-8.42a6.57,6.57,0,0,0,0-1.65c-.84.9-1.66,1.82-2.53,2.69a5,5,0,0,1-7.14,0,3,3,0,0,1-.79-2,39.51,39.51,0,0,1,.69-7c1.06-4.53,2.28-9,3.69-13.44a24.53,24.53,0,0,1,3.09-6.71c4.08-5.77,8.4-11.36,12.67-17,5.75-7.6,11-15.51,14.12-24.59,1.11-3.18,2.32-6.33,3.59-9.45,3.18-7.83,6.48-15.61,9.62-23.46,5.84-14.62,11.18-29.43,15.54-44.57,1.43-5,2.29-10.12,3.41-15.19l-.53-.3c-3.06,4-6.54,7.73-9.08,12-2.74,4.6-4.56,9.74-6.84,14.62-4,8.59-8.27,17.08-12.06,25.78-4.58,10.51-8.75,21.2-13.19,31.77-1.54,3.65-3.23,7.26-5.11,10.74-4.89,9.06-9.78,18.13-15,27-2.92,5-6.31,9.8-9.62,14.59-6.21,9-10.95,18.74-16,28.37-2.89,5.55-5.68,11.15-8.67,16.65-1.23,2.28-3,4.28-4.27,6.52-2.36,4-4.44,8.25-6.86,12.25-2.89,4.76-6.13,9.31-9,14.08a80.79,80.79,0,0,0-4.39,8.72c-1.44,3.21-2.63,6.53-4,9.77a34.91,34.91,0,0,1-2.44,5c-1.68,2.65-2.64,5.82-5.7,7.51-3.39,1.87-9.08,1.34-11.86-1.33-1.42-1.37-1-3.09-.93-4.74a16.38,16.38,0,0,1,.35-2c-2.48,1.94-5.06,2.73-7.59,1.08-2.82-1.83-2.86-4.82-2.25-7.69-1.82,1.35-3.59,2.74-5.46,4-2.42,1.64-8.12,1.17-9.78-1-1-1.33-1.35-3.16-2-4.77l.42-.18c-.11,0-.26-.16-.32-.12-4.56,3-9.8-2.3-9.81-7a26.91,26.91,0,0,1,2.19-10.82c1.49-3.53,2.56-7.25,4.13-10.74,2.14-4.74,4.82-9.24,6.85-14,3.56-8.39,6.73-16.94,10.23-25.35a44.83,44.83,0,0,1,4.6-8.69c5.49-7.74,9.85-16.14,14.63-24.29,2.69-4.58,3.89-9.62,5.6-14.52,2.84-8.14,5.85-16.21,8.63-24.36a32,32,0,0,0,.34-20.43C149.13,219.06,148.91,218.09,148.67,217.15ZM343.42,3.38c.54,1,1,1.76,1.35,2.53a96.44,96.44,0,0,1,8.44,26.84c1.81,10.87,3.86,21.73,6.56,32.41,2,7.93,4.59,15.69,5,23.94.09,1.81.2,3.61.3,5.42l-.66.26a26,26,0,0,1-2.05-2.4,142.29,142.29,0,0,1-9.64-17.18c-4.28-8.6-6.41-17.61-7.5-27.06a166.06,166.06,0,0,0-3.51-19.92A52.2,52.2,0,0,0,328.59,4.35a7.52,7.52,0,0,0-7-2.32,27.51,27.51,0,0,1-4.63.18c-3.41-.14-6.84-.78-10.21-.51-8.51.69-17.06,1.37-25.46,2.81-6.44,1.1-12.68,3.33-19,5.07-.92.25-1.83.53-3.29,1,4.11,2.42,7.63,4.76,11.39,6.64,5.52,2.78,10.11,6.72,14.43,11,3.9,3.87,6.16,8.85,8.46,13.72s4.45,10.08,6.6,15.15a7.34,7.34,0,0,1,.22,2.12l-.62.17a19.8,19.8,0,0,1-1.15-1.77c-1.16-2.27-2.14-4.63-3.42-6.83-4.52-7.8-9.86-15-17.68-19.76a64.87,64.87,0,0,0-19.39-7.45c-4.87-1.13-9.84-2.26-13.33-6.35-17.31,9.19-33.4,20.11-49.61,31.26,1.67,1,3,1.75,4.31,2.62,9.09,6.18,15,14.93,19.33,24.77,3.64,8.35,7.6,16.4,13.24,23.62S243.2,113,251.64,116.66s16.93,4,25-1.45a13.5,13.5,0,0,1,1.57-.78l.5.45a7.1,7.1,0,0,1-1.11,1.74c-6.64,5.53-13.75,10-22.77,10.32-6.49.22-13,.33-18.79-3.23a55.84,55.84,0,0,1-15.7-13.56Q209.95,96.52,200,82.57c-5.63-7.87-12.41-13.74-22.4-15.21-3.63-.54-6.72-.66-8.73,3a3.76,3.76,0,0,1-.52.54l-9.13,10.46A31.87,31.87,0,0,1,171.3,91.91c1,1.44,1.87,2.94,3,4.28a46.59,46.59,0,0,0,11.92,10.3c6.77,4.1,14,6.9,22.06,7.08,2.54.05,5.08-.22,7.61-.22a7.71,7.71,0,0,1,2.2.7,11.38,11.38,0,0,1-.75,1.8c-1.91,3.12-5.14,4-8.39,4.57-7.66,1.31-14.48-.85-20.61-5.45-2.09-1.56-4.19-3.12-6.15-4.82-4.27-3.7-8.31-7.66-12.69-11.21-4.87-3.94-10.34-6.62-16.86-6.39a2.55,2.55,0,0,0-2.58,1.7c-1.3,3.15-2.54,6.33-4,9.42-4.58,9.87-5.5,20.34-5,31.14a21.45,21.45,0,0,0,2.53,0,50.57,50.57,0,0,1,15.58.43,15.86,15.86,0,0,0,3.87.4,28.26,28.26,0,0,1,12.52,2.26c1.85.78,3,.45,4.57-1.15,3.44-3.54,7.19-6.72,12.7-6.88,4.33-.14,8.5,3.89,7.66,8.16-1.23,6.26-3.58,11.79-10.08,14.37a1.47,1.47,0,0,0-.88,2.21c1,2.4,2,4.82,3.13,7.14,2.16,4.32,3.89,8.7,3.68,13.66a28.78,28.78,0,0,0,.37,4.43c1,8.6-2.11,15.36-9,20.49-5.49,4.06-12.08,5.39-18.37,7.34-5.92,1.83-12.05,1.54-18.24.92-12.58-1.27-23.77-5.59-33.4-13.85-.64-.54-1.25-1.12-2-1.79l-8.82,13.79,1.61,1.22c5,3.83,10.84,6.22,16.41,9.1a86.09,86.09,0,0,1,10.76,7.23c.71.52.9,1.74,1.34,2.63a13.69,13.69,0,0,1-2.89-.36c-6.56-2.27-13-4.73-19.65-6.87a21.15,21.15,0,0,1-8-4.49c-.55-.5-1.12-1-1.69-1.45-1.11-.91-1.82-.76-2.84.44-3.94,4.62-8,9.19-12.17,13.56-3.48,3.61-7.31,6.87-10.93,10.34-2.86,2.75-6,5.3-8.4,8.43-4.5,5.91-8.57,12.17-12.76,18.31-.9,1.31-1.58,2.76-2.42,4.25,1.76.39,3.5.4,4.82,1.14,4.05,2.27,7.93,4.84,11.88,7.27,2.16,1.32,4.28,2.69,6.51,3.87s4.41,2,6.55,3.1c.54.28.82,1.09,1.22,1.66-.73.18-1.5.63-2.16.5-2.8-.54-5.58-1.19-8.34-1.91a121.22,121.22,0,0,1-20.19-6.93c-1.44-.67-3.24-1.64-4.53-1.28s-2.15,2.23-3.18,3.45c-1.74,2.05-3.47,4.12-5.26,6.24,18.53,8.61,34.21,21.17,50.6,32.75,6.9-14.68,13.22-29.41,22-42.9-.17-.11-.21-.16-.27-.17l-.91-.16c-6.43-1-11.4-4.14-14.73-9.9a36.09,36.09,0,0,0-5-6.47c-5.07-5.38-11.63-8.84-17.54-13.13-.69-.51-1.36-1-2.32-1.78,5.87-1.67,10.92-1.74,15.22,2.53,1.23,1.22,2.55,2.35,3.83,3.53,5.41,5,11.55,9,17.78,12.84,2,1.21,4.33,1.78,6.5,2.68,1.86.78,2.83.11,3.38-1.75.33-1.11,1.1-2.09,1.49-3.19.79-2.25,1.45-4.53,2.08-6.51-2.8-1.49-5.29-2.62-7.58-4.07q-6.88-4.39-13.58-9.08c-4.32-3-8.54-6.17-12.77-9.31a10.93,10.93,0,0,1-1.41-1.93,21.52,21.52,0,0,1,2.73.37c2.27.64,4.55,1.24,6.76,2.05,7.51,2.75,15,5.42,22.44,8.47,2.94,1.21,5.72,2.58,9,2.81,1.18.09,2-.08,2.48-1.05a34.27,34.27,0,0,0,2.86-6.75,28.39,28.39,0,0,1,5.32-11.14c2.12-2.74,4-5.7,5.94-8.55a5.17,5.17,0,0,1,1.54-1.8c.46-.23,1.77.1,1.84.4a89.92,89.92,0,0,1,2,9.43c.22,1.54.76,2,2.22,1.95,5.71-.06,11.43.09,17.15-.08a45,45,0,0,0,8.06-1.09c9.33-2,18.57-4.43,28-6.08,5.51-1,11.23-.8,16.86-1.09a9.67,9.67,0,0,1,2.93.33c.47.13.81.74,1.21,1.14-.48.29-.94.78-1.44.82-1.42.12-2.86-.05-4.28.07-3.76.29-7.6.27-11.25,1.09-12.65,2.82-24.64,8-37.45,10.38-5.93,1.1-11.71,2.75-17.83,1.63a20.43,20.43,0,0,0-3.66,0l-2.84,10.94a28.25,28.25,0,0,0,5.18.23c6.62-.88,13.35-1.44,19.79-3.09a129.13,129.13,0,0,1,27.56-3.69c3.78-.13,7.56-.23,11.32-.58,5.37-.49,10.71-1.17,16-1.87a2.38,2.38,0,0,0,1.58-1.24c3-6.82,5.87-13.67,8.76-20.53,2.26-5.37,4.4-10.8,6.74-16.13,3.84-8.74,7.71-17.46,11.76-26.11,2.23-4.76,4.49-9.51,8-13.6A185.71,185.71,0,0,0,278,143.16c6.19-9,13.66-16.86,20.8-25a2.57,2.57,0,0,0,.5-1.63c-.23-6.14-3-11.32-6.4-16.2a13.23,13.23,0,0,0-9.05-5.64,104.53,104.53,0,0,1-12.3-2.72,71,71,0,0,1-9.42-4c-8.27-3.88-15.08-9.39-18.64-18.08-1.61-3.95-2.7-8.11-4-12.2-.14-.43.13-1,.22-1.48l.54.06a23.55,23.55,0,0,0,7.39,8c2.9,2,5.87,4,8.8,5.94a33.52,33.52,0,0,0,16.57,5.46c8.37.67,16.21,2.9,22.56,8.9,3.16,3,6.75,5.65,8.16,10a106.74,106.74,0,0,1,2.72,10.59c.52,2.4.72,4.86,1,7.15l9.72-2.55v-3.06c0-.37-.18-1,0-1.08,1.71-1.21.4-2.5.13-3.73-.81-3.63-1.9-7.2-2.42-10.87-.61-4.32.42-8.5,2.07-12.53a22.57,22.57,0,0,0,1.85-11.27q-.83-6.92-2.18-13.76c-1.48-7.57-3.5-15-7.75-21.58-1.63-2.53-2.88-5.52-6.08-6.73-.27-.1-.48-.85-.39-1.23a1.35,1.35,0,0,1,.92-.83,3.13,3.13,0,0,1,1.61.3q2.89,1.24,5.73,2.6c2.06,1,4.33,1.7,6.1,3.06,5,3.86,8,9.24,10.34,15,4.39,10.76,4.67,21.31-1.41,31.63-4.89,8.28-6.25,17.42-6.12,26.87a19.11,19.11,0,0,1,.14,2.38c-.2,1.87-.52,3.73-.78,5.48a47.93,47.93,0,0,1,5.88,1.47c2.31.91,4.39,2,5.08,4.93a35.81,35.81,0,0,1,.84,10.67c-.53,8.41-.7,16.84-1.25,25.24-.13,1.92.53,2.42,2.08,2.81a137.57,137.57,0,0,0,27,3.74c2.63.14,5.25.41,8.45.66-.8.86-1.13,1.48-1.65,1.73a14.28,14.28,0,0,1-3.62,1.35c-3.29.58-6.61,1-9.93,1.42-5.92.68-11.84,1.28-17.8.42l-5-.7c-1.59,11.91-.79,23.9-4.23,35.56,2.85.34,5.3.71,7.76.9,5.49.44,11,.78,16.49,1.19,7.47.55,14.88.41,22-2.11a2.67,2.67,0,0,0,1.49-1.76,275,275,0,0,0,3-34.39c.07-6.58.27-13.15.41-19.73.07-3.16.08-6.33.25-9.49.49-9.28,1.13-18.55,1.55-27.83.29-6.19.31-12.4.46-18.6a14.52,14.52,0,0,1,.11-1.48c.6-4.54,1.21-9.08,1.79-13.63.52-4,.94-8.12,1.53-12.16.09-.59.91-1.08,1.4-1.62.42.59,1.07,1.12,1.24,1.77.71,2.71,1.28,5.45,1.86,8,3-3,5.82-6.09,8.9-8.84,4.19-3.74,7.23-8,7.55-13.79.15-2.65.33-5.31.52-8,.05-.67.22-1.32.33-2l.55,0a6.4,6.4,0,0,1,.52,1.21c.46,2,.95,4.1,1.31,6.18a26.91,26.91,0,0,1-6.64,23.63c-3.41,3.83-6.63,7.85-9.71,12-.79,1-.91,2.74-1,4.16a19.13,19.13,0,0,0,.47,4.24c.73,4.19,1,4.41,5.24,5.2a5.25,5.25,0,0,0,.55.09c4.2.25,8.4.54,12.61.72,3.48.15,6.77.8,9.6,3l3.37,2.62c-.13-2.77-.21-5.15-.36-7.53-.32-5.32-.59-10.64-1-16-.6-7.09-1.28-14.17-2.09-21.24a61.07,61.07,0,0,0-1.83-10.73c-2.8-9.34-9.94-15.61-16.65-22a29.67,29.67,0,0,0-9-5.36c-4.89-2.06-10-3.58-15-5.27a32.63,32.63,0,0,0-3.76-.82,43.62,43.62,0,0,1-1.18,18c-1.31,4.66-2.75,9.28-4.16,13.9a17.31,17.31,0,0,0-.75,8.42,44.48,44.48,0,0,1,.43,4.77l-.77.2a29.08,29.08,0,0,1-1.57-3A32.74,32.74,0,0,1,360.93,36c.53-4.25,2.05-8.39,3.32-12.52.73-2.4,1.48-4.74.89-7.27-.54-2.29-1-4.61-1.73-6.84a3,3,0,0,0-1.74-1.76c-4.85-1.3-9.74-2.46-14.63-3.62C345.93,3.67,344.78,3.58,343.42,3.38Zm-49.68,285.4c-1,2.14-2,4.12-2.88,6.13s-1.5,3.95-2.52,5.78c-3.72,6.71-7.73,13.26-11.27,20.06-1.55,3-2.12,6.44-3.35,9.61a13.65,13.65,0,0,0,.72,11.66,24.46,24.46,0,0,0,2.81,4.3,1.57,1.57,0,0,0,2.68,0c1.66-2.06,3.45-4,5-6.14s2.88-4.35,4.38-6.47c.3-.42,1-.55,1.5-.82.21.46.62.93.6,1.39-.23,5.17,1.9,9.67,3.92,14.21a8.77,8.77,0,0,0,5.17,4.55c2.39.93,4,.61,5.27-1.59a36.53,36.53,0,0,0,3.14-6.7c.9-2.56,1.4-5.27,2.17-7.88.16-.54.78-.95,1.18-1.41.3.53.86,1.08.85,1.61-.18,4.88,1.14,9.46,2.76,14,1.17,3.21,2.43,6.41,5,8.82,1.38,1.27,2.71,1.42,4.17.26a7.56,7.56,0,0,0,1.91-2.23,44.77,44.77,0,0,0,5.23-15,7.67,7.67,0,0,1,.91-2.57c.21-.38.83-.53,1.26-.79a4.5,4.5,0,0,1,.65,1.32c.2,1.59,0,3.28.47,4.78,1.3,4.2,2.82,8.33,4.31,12.47a1.64,1.64,0,0,0,2.56,1,16.08,16.08,0,0,0,2.78-1.83,21,21,0,0,0,7.08-12.77c1.72-9.76,3.22-19.55,4.85-29.32.69-4.12,1.63-8.2,2.24-12.32s1-8.34,1.41-12.52c.55-5.67,1-11.34,1.54-17,.29-3.24.59-6.48.89-9.65-1-.28-1.72-.42-2.4-.68-8.47-3.2-17.22-4.93-26.26-4-6.94.68-13.08-1.44-19.13-4.31-.37-.17-.6-.63-1.11-1.19a8.91,8.91,0,0,1,1.57-.27c3.46.21,6.92.44,10.38.67,11.49.76,22.92-.43,34.36-1.17,3.84-.24,4.81-1.33,4.55-4.48-8.81-2-17.67-3.65-26.79-3.59-5,0-10-.37-14.81-2.28a60.09,60.09,0,0,0-7.52-2c-.59,1.89-1,3.83-1.78,5.65-2.76,6.77-5.78,13.44-7.39,20.62a8.68,8.68,0,0,1-.92,2.23c-2.21,3.88-4.47,7.73-6.7,11.59-.47.82-.91,1.65-1.45,2.61l1.41.32c4.48.9,9,1.64,13.44,2.75,7.17,1.81,14.33,3.45,21.82,3.25a23.5,23.5,0,0,1,5.84.9c4,.94,7.91,2,11.88,3,1.36.35,2.8.47,4.12.94.41.14.54,1.07.81,1.64-.59.19-1.22.6-1.76.51-3.11-.52-6.19-1.23-9.29-1.75a42.24,42.24,0,0,0-7.55-.94A148.52,148.52,0,0,1,315.32,292c-5.2-.74-10.45-1.26-15.66-2C297.71,289.73,295.79,289.21,293.74,288.78Zm-167.29,8.79c-1.53,2.22-3,4.25-4.38,6.4a62.77,62.77,0,0,0-4.19,7.45c-5.69,12.93-9.83,26.5-16.75,38.93-2.39,4.29-3.89,9.12-5.45,13.82A51.18,51.18,0,0,0,94,372.66c-.33,2.06.63,3.7,2.06,5.15,2.28,2.31,5.93,1.3,7.24-1.68,1.93-4.43,4.2-8.7,6.4-13,.19-.36.92-.45,1.4-.67.07.48.34,1.05.18,1.42-2.11,4.75-4.33,9.44-6.42,14.19-1.37,3.13-1.35,6,1.81,7a8.75,8.75,0,0,0,4.57,0c4.65-1.24,7.45-4.48,8.72-9,.69-2.45,1.14-5,1.82-7.4a7.27,7.27,0,0,1,1.32-1.89c.25.7.83,1.46.72,2.09-.71,3.89-1.59,7.74-2.37,11.62a24.3,24.3,0,0,0-.81,5.09c0,2.57,2.15,3.89,4.67,3.33,2-.44,2.89-1.92,3.63-3.64,1.88-4.39,2.44-9.06,3-13.74.07-.59.69-1.12,1.06-1.67.3.58.9,1.18.86,1.73-.24,2.84-.52,5.68-1,8.48-.76,4.08-1.78,8.1-2.56,12.18a2.77,2.77,0,0,0,.6,2.16c3.55,3.52,10.33,2.45,12.68-2,1.37-2.56,2.73-5.14,3.93-7.79,1.6-3.54,3-7.19,4.59-10.73a83.41,83.41,0,0,1,4.58-9.05c2.43-3.95,5.27-7.65,7.76-11.56a55.9,55.9,0,0,0,2.93-6,39,39,0,0,1-20.67-8.55,124,124,0,0,0-20.27-12.77,44.16,44.16,0,0,1-4.63-2.76c-.36-.24-.43-.91-.64-1.39a7.3,7.3,0,0,1,1.31-.46,2.44,2.44,0,0,1,1.09.16c4,1.15,7.94,2.44,12,3.45,7.75,1.95,15.5,4,23.33,5.51,5.27,1.05,10.68,1.37,16,1.93a2.26,2.26,0,0,0,1.89-.72c2.78-5.1,5.45-10.26,8.19-15.48a7.71,7.71,0,0,0-1.47-1,95.91,95.91,0,0,0-9.53-3.05c-9.62-2.14-19.3-3.95-28.91-6.08A44.84,44.84,0,0,1,126.45,297.57ZM291.15,246c-.48-.13-.77-.23-1.06-.29-4-.69-8.1-1.2-12.08-2.09q-14.14-3.15-28.22-6.65c-2-.49-2.68.07-3.38,1.83-4.21,10.56-8.68,21-15.85,30-4.31,5.43-8.34,11.09-12.55,16.61a24.56,24.56,0,0,0-4.54,8.88c-1.07,4.2-2.36,8.35-3.38,12.56a25.17,25.17,0,0,0-.64,5.68,2.38,2.38,0,0,0,1.27,1.86c1,.26,2.64.43,3.22-.15,3.15-3.21,6.66-6.19,8.22-10.66a29.65,29.65,0,0,1,1.76-3.9c.18-.34.77-.48,1.18-.71a4.16,4.16,0,0,1,.52,1.25,3.12,3.12,0,0,1-.36,1.42c-1,2.25-2.1,4.5-3.22,6.71-2.16,4.25-3,8.68-1.62,13.33.73,2.54,3.16,3,5,1.08a6.08,6.08,0,0,0,1.28-2c1.14-3.07,2.14-6.18,3.3-9.24.21-.57.93-1,1.42-1.42.22.61.72,1.28.62,1.84-.51,2.74-1.13,5.46-1.79,8.16-.76,3.08-1.53,6.13-.9,9.34.3,1.5.25,3.26,2.27,3.6a3.76,3.76,0,0,0,4.26-2.28,25.52,25.52,0,0,0,1.83-3.85c1.38-4.5,2.6-9.06,4-13.57.28-.94-.13-2.8,1.51-2.44,1.46.31.65,1.89.48,2.89-1.06,6.29-2.55,12.52-2.34,19a9.06,9.06,0,0,0,.35,2.37c.46,1.55,1.6,2.39,3.11,1.69,1.94-.91,4.13-1.8,5.47-3.35,3-3.4,6-6.93,8-10.91,4.58-9.07,8.79-18.35,12.72-27.72s7.31-19,10.94-28.47c.39-1,.85-2,1.32-3.11-2.28-.22-4.32-.3-6.33-.64q-6.58-1.11-13.15-2.45-8.47-1.72-16.89-3.63a9.29,9.29,0,0,1-2.32-1.31l.19-.59a6.41,6.41,0,0,1,1.72-.44c2.9.15,5.79.39,8.69.59,2.34.17,4.69.45,7,.45,2.67,0,5.33-.35,8-.33,5,0,10.05.2,15.07.42a2.3,2.3,0,0,0,2.52-1.61C288.78,251.2,289.93,248.73,291.15,246Zm26.06-133.81c-1.22.12-2.09.13-2.92.3a28.39,28.39,0,0,0-13.19,6.6,117.88,117.88,0,0,0-11.88,12.78c-4,4.77-7.59,9.81-11.2,14.86a14.28,14.28,0,0,0-2.1,4.94c-1,4.1-1.41,8.33-2.55,12.37-2,7.16-4.29,14.25-6.62,21.31-1.83,5.53-3.91,11-5.88,16.46-.26.73-.55,1.44-.86,2.26.82.19,1.41.36,2,.48,4.07.77,8.15,1.57,12.23,2.3,6.65,1.2,13.28,2.48,20.1,2.14a31,31,0,0,1,5.18.27c.48.05.89.68,1.34,1.05-.48.38-.93,1-1.45,1.09-4,.55-8,1.45-12,1.38-10-.17-20-.79-30.27-1.23-2,6.4-6.6,12.12-7.72,19.61l10.67,1.72c6.6,1,13.25,1.82,19.77,3.2,4.51,1,8.84,2.73,13.35,4.17,2.15-6.19,4.63-12.24,6.31-18.5,2.07-7.7,3.27-15.62,5.83-23.23,1.18-3.48,1.14-7.37,1.67-11.26-1.28,0-2.21.09-3.12,0-3.31-.37-6.79-.29-9.89-1.32A63.35,63.35,0,0,0,279.35,183a38.87,38.87,0,0,1-6.67-1.49c-.41-.11-.66-.79-1-1.21.44-.24.87-.66,1.33-.7a40.46,40.46,0,0,1,6.85-.37,51.76,51.76,0,0,0,15.52-.8c3.92-.86,7.79-2,11.64-3.08a2.54,2.54,0,0,0,1.47-1.63c1-5.42,1.92-10.85,2.7-16.3,1.21-8.46,2.26-16.94,3.42-25.4.63-4.6,1.35-9.18,2-13.78C316.86,116.36,317,114.45,317.21,112.21ZM89.66,326.36a30.67,30.67,0,0,1-4.24-2.69c-3.14-2.8-6.21-5.7-9.18-8.69-5.94-6-13.16-10.12-20.34-14.3-4.81-2.8-9.81-5.28-14.71-7.92a6.49,6.49,0,0,1-1.53-1.05c-1.08-1.1-1.93-.9-2.95.15C30.57,298.24,23,302.61,15.41,307a35.94,35.94,0,0,0-10.7,9.66c-4.11,5.53-3.45,11.84-1.3,18a5.14,5.14,0,0,0,6.85,2.58A24.9,24.9,0,0,0,16.32,333c4.35-4.49,8.42-9.27,12.66-13.88.36-.39,1.13-.41,1.7-.6a4.59,4.59,0,0,1-.12,1.68c-1.23,2.44-2.66,4.78-3.82,7.25-2.57,5.44-5,10.94-6.27,16.87-.63,3-.1,4.87,1.81,5.64a29.17,29.17,0,0,0,4.78,1.52c4.56.94,7.57-.49,9.61-4.69a85.06,85.06,0,0,0,3.51-8.37c1.7-4.72,3.22-9.51,4.88-14.24.17-.5.81-.83,1.23-1.24.19.56.68,1.21.54,1.68-1.65,5.51-3.38,11-5.1,16.49a32.21,32.21,0,0,0-1.6,5.12c-.42,3-1.33,6.12.86,9,1.81,2.34,4.43,2.59,6.24.28a26.74,26.74,0,0,0,5.62-12.2c.52-3.1,1-6.21,1.53-9.31.34-2,.66-4,1.1-6,.09-.38.72-.64,1.1-1,.21.42.64.87.6,1.26-.72,6.83-1.2,13.71-2.35,20.47a27.24,27.24,0,0,0,1.25,14.58c.31.82.89,1.9,1.6,2.16a10.88,10.88,0,0,0,10.09-1.13,57.52,57.52,0,0,0,6.33-4.87,4.66,4.66,0,0,0,1.47-2.79c.37-4,.5-8,.74-12.06,0-.76.17-1.52.26-2.28l.72-.2c.3.64.84,1.27.85,1.91.09,3.19,0,6.38,0,8.92C81.84,344.46,85.79,335.33,89.66,326.36Zm113-41.88a15.5,15.5,0,0,0-1.69-.36c-6.7-.88-12.87-3.49-19.08-5.95-6.91-2.74-13.74-5.69-20.64-8.45-3.28-1.31-6.65-2.38-9.95-3.63a8.48,8.48,0,0,1-1.76-1.23l.28-.79a15.31,15.31,0,0,1,2.89.21c2,.52,4,1.35,6,1.79,5.39,1.18,10.92,1.81,16.18,3.39a99.17,99.17,0,0,0,32.31,3.7c2.24-.07,3.87-.62,5-2.89C215,265,218,259.8,220.83,254.58c1-1.77,2-3.52,3.14-5.49-2.3-.11-4.27-.31-6.24-.3-3.53,0-7.07.05-10.6.29-4.87.32-9.76.65-14.6,1.32-6.64.92-13.27,2-20,1.55-7.84-.54-15.66-1.38-23.5-2a1.85,1.85,0,0,0-1.51.8c-2.28,6.1-4.73,12.15-6.59,18.38a61.1,61.1,0,0,1-5.66,12.9c-1.41,2.47-2.71,5-4,7.55-1.09,2.14-1,2.2,1.21,3.25A71.93,71.93,0,0,0,158,299.06a57.08,57.08,0,0,1,26,8.49,34.26,34.26,0,0,1,3.64,2.87ZM176.37,186.6c-.64-1.24,0-2.35,1.22-3.17a41.87,41.87,0,0,1,5.94-3.81c4.87-2.3,7.27-6,7.78-11.34a12.2,12.2,0,0,0-1.18-7.34,34.89,34.89,0,0,1-2.35-5.65c-1.05-3.32-1-3.7,2.21-5,5.39-2.23,7.19-6.88,8.55-11.88a4.39,4.39,0,0,0-1.66-5,8,8,0,0,0-8.84-.28c-3.47,2.15-7,4.31-9,8.3-6-3.22-12.46-3.68-18.9-4-.36,0-.75.44-1.49.92l2.06.57q8.7,2.42,17.37,4.83a3,3,0,0,1,1.35.6,10.87,10.87,0,0,1,1.15,1.71,5.3,5.3,0,0,1-1.82.46c-1.72-.22-3.42-.6-5.12-.94-4.49-.91-9-1.84-13.47-2.72a8.44,8.44,0,0,0-1.67,0l0,.54c.62.14,1.23.31,1.85.42,6.86,1.14,13.21,3.79,19.54,6.5.46.19.74.8,1.11,1.22a9.33,9.33,0,0,1-1.72.62,3.7,3.7,0,0,1-1.27-.24c-5.79-1.36-11.58-2.74-17.38-4a18.83,18.83,0,0,0-3.11-.22l-.15.7a4.41,4.41,0,0,0,1.27.66c3.91.66,7.83,1.21,11.72,1.91.92.16,2.54.87,2.5,1.13-.22,1.5-1.59,1.15-2.67,1.18a2.22,2.22,0,0,1-.37,0c-2.89-.36-5.77-.83-8.67-1.07-2.19-.18-4.42,0-6.62-.13-2.86-.23-5.7-.67-8.55-1a29.7,29.7,0,0,1-3.67-.48c-.4-.1-.73-.84-.89-1.35,0-.14.66-.74,1-.74,3.57,0,7.13.13,10.7.12.43,0,.86-.56,1.29-.86l-.32-.57c-.73,0-1.47,0-2.2,0-6.2-.16-12.4-.3-18.59-.52-.57,0-1.12-.53-1.68-.81.49-.44.93-1.14,1.5-1.28a36,36,0,0,1,4-.53c5.54-.71,11.07-1.33,16.67-.61a3.75,3.75,0,0,0,1.41-.41l-.07-.6c-3.53-.46-7-1.08-10.59-1.31-2.06-.14-4.17.4-6.26.55a1.92,1.92,0,0,1-1.39-.54c-.16-.17.07-1,.36-1.23a9.85,9.85,0,0,1,3.21-1.63c4.76-.91,9.55-1.57,14.35-.12.33.1.82-.33,1.24-.52l-.14-.61a28.05,28.05,0,0,0-3.62-.41c-3.35.06-6.7.18-10,.41-1.77.12-2.72-.62-3.78-2a63,63,0,0,0-7.29-8.34c-2.07-1.91-4.91-1.78-7.35-.46-3.54,1.9-5.66,9.36-3.89,13,2.06,4.25,5.44,7.34,9.06,10.18,1,.79.81,1.57.07,1.86-4.3,1.67-5.83,5.58-7.52,9.25a12.17,12.17,0,0,0-1.31,6.08,24.19,24.19,0,0,0,5.55,13.37,4.65,4.65,0,0,1,.93,1.79c.1.39-.18.88-.29,1.33-.39-.11-.89-.1-1.15-.34A27.3,27.3,0,0,1,121,178.3c-2.1-3.16-3.84-6.56-5.66-9.75,0-.1,0,.1-.1.31-1.34,5-1.14,10.09-1,15.16a2.43,2.43,0,0,0,1.48,1.64c2.11.66,4.29,1.12,6.46,1.57,1.52.31,3.1.32,4.57.75.76.22,1.34,1.06,2,1.62-.72.45-1.4,1.18-2.17,1.28-3.05.4-6.13.61-9.09.88,3,3.59,7.15,5.8,11.41,8.08a54.73,54.73,0,0,0,21,6.5c3.39.31,6.81.89,10.17.7,8-.46,15.51-3.1,22.79-6.3a17.08,17.08,0,0,0,7.91-6.37c-7.59.63-13.94-.05-14.9-2,2.5-.54,4.87-1.17,7.27-1.53,2.75-.41,5.54-.58,8.31-.87a3,3,0,0,0,3-2.44c1-3.87.35-7.65,0-11.88-.76,1.13-1.31,1.87-1.78,2.67a13.78,13.78,0,0,1-8.9,6.52C181.29,185.44,178.93,186,176.37,186.6ZM323,205.65c-2.23,10.81-4.43,21.54-6.67,32.43.6,0,1.08-.08,1.56-.1,4.26-.1,8.52-.39,12.77-.25,4.69.16,9.37.74,14.05,1.08,3.93.28,7.87.38,11.79.74,2.71.24,5.39.79,8.08,1.2,1.15.17,1.71-.09,1.9-1.49,1.25-9.19,2.64-18.36,4-27.54l.85-5.67C355.17,210.7,339.36,209.67,323,205.65Zm66.66,56.9c.59,3.66,1.06,7.51,3.49,10.78,2.11,2.84,4.19,5.7,6.31,8.53a20.52,20.52,0,0,0,12.39,7.95,3.56,3.56,0,0,0,2.33-.23c2.57-1.44,5-3.06,6.27-5.94.64-1.48,1.36-2.92,2.14-4.34A66.9,66.9,0,0,0,430.74,248c0-1.27-.28-1.9-1.72-1.95-9.54-.36-18.73-2.65-27.93-5-4.53-1.15-9.24-1.57-14.25-2.38.53,5.74,1.07,11,1.47,16.32.11,1.4.64,1.73,2,1.73,6.33,0,12.66.11,18.93-1a5.3,5.3,0,0,1,1.55.21c-.21.54-.27,1.35-.66,1.56-1.87,1-3.76,2.25-5.79,2.68C399.53,261.17,394.67,261.76,389.64,262.55Zm40.85-60.91c-.88-9.26-1.76-18.64-2.68-28.38-2.21,0-4.69.16-7.14,0-4.81-.38-9.6-1-14.4-1.43a13,13,0,0,0-3,.45c-.93-.37-2-.83-3-1.16s-2.17-.54-3.25-.83l-8.59-2.43c-.49,11.9-1,23.62-1.47,35.44a76.6,76.6,0,0,0,20.35,0c5.38-.76,10.78-1.48,16.19-2A49.81,49.81,0,0,1,430.49,201.64ZM420.1,102.22c-10.72.59-21.18-.54-29.77-8.4V124.5c5.11-2.19,9.69-4.32,14.4-6.1s9.85-1.77,15-1.81a3.35,3.35,0,0,1-1.43,1.74c-3.87,2-7.79,3.8-11.65,5.78a39.33,39.33,0,0,1-14.47,4.46c-1.24.12-1.52.67-1.55,1.78q-.13,4.54-.45,9.08c-.08,1.13.46,1.47,1.41,1.44,4.89-.18,9.79-.27,14.67-.6s10-.94,15-1.32a26.54,26.54,0,0,1,4.16.29C423.63,126.94,421.9,114.78,420.1,102.22Zm6.06,40.63c-4.24.62-8.26,1.58-12.3,1.71-7.55.24-15.08.47-22.55,1.79-1.25.22-1.63.57-1.64,1.82-.05,4-.23,7.92-.39,11.88,0,1.26-.18,2.51-.29,4,9.54-3.5,18.92-2.42,28.31-.9,2.93.48,5.85,1,8.78,1.46,1.19.18,1.87-.3,1.76-1.68-.27-3.57-.41-7.15-.71-10.73C426.87,149.06,426.48,145.89,426.16,142.85Z"/><path class="cls-1" d="M343.42,3.38c1.36.2,2.51.29,3.62.56,4.89,1.16,9.78,2.32,14.63,3.62a3,3,0,0,1,1.74,1.76c.71,2.23,1.19,4.55,1.73,6.84.59,2.53-.16,4.87-.89,7.27C363,27.56,361.46,31.7,360.93,36a32.74,32.74,0,0,0,1.78,16.49,29.08,29.08,0,0,0,1.57,3l.77-.2a44.48,44.48,0,0,0-.43-4.77,17.31,17.31,0,0,1,.75-8.42c1.41-4.62,2.85-9.24,4.16-13.9a43.62,43.62,0,0,0,1.18-18,32.63,32.63,0,0,1,3.76.82c5,1.69,10.16,3.21,15,5.27a29.67,29.67,0,0,1,9,5.36c6.71,6.41,13.85,12.68,16.65,22A61.07,61.07,0,0,1,417,54.34c.81,7.07,1.49,14.15,2.09,21.24.45,5.31.72,10.63,1,16,.15,2.38.23,4.76.36,7.53l-3.37-2.62c-2.83-2.19-6.12-2.84-9.6-3-4.21-.18-8.41-.47-12.61-.72a5.25,5.25,0,0,1-.55-.09c-4.27-.79-4.51-1-5.24-5.2a19.13,19.13,0,0,1-.47-4.24c.07-1.42.19-3.11,1-4.16,3.08-4.11,6.3-8.13,9.71-12A26.91,26.91,0,0,0,406,43.45c-.36-2.08-.85-4.13-1.31-6.18a6.4,6.4,0,0,0-.52-1.21l-.55,0c-.11.66-.28,1.31-.33,2-.19,2.65-.37,5.31-.52,8-.32,5.81-3.36,10.05-7.55,13.79-3.08,2.75-5.88,5.82-8.9,8.84-.58-2.54-1.15-5.28-1.86-8-.17-.65-.82-1.18-1.24-1.77-.49.54-1.31,1-1.4,1.62-.59,4-1,8.11-1.53,12.16-.58,4.55-1.19,9.09-1.79,13.63a14.52,14.52,0,0,0-.11,1.48c-.15,6.2-.17,12.41-.46,18.6-.42,9.28-1.06,18.55-1.55,27.83-.17,3.16-.18,6.33-.25,9.49-.14,6.58-.34,13.15-.41,19.73a275,275,0,0,1-3,34.39,2.67,2.67,0,0,1-1.49,1.76c-7.16,2.52-14.57,2.66-22,2.11-5.49-.41-11-.75-16.49-1.19-2.46-.19-4.91-.56-7.76-.9,3.44-11.66,2.64-23.65,4.23-35.56l5,.7c6,.86,11.88.26,17.8-.42,3.32-.38,6.64-.84,9.93-1.42a14.28,14.28,0,0,0,3.62-1.35c.52-.25.85-.87,1.65-1.73-3.2-.25-5.82-.52-8.45-.66a137.57,137.57,0,0,1-27-3.74c-1.55-.39-2.21-.89-2.08-2.81.55-8.4.72-16.83,1.25-25.24a35.81,35.81,0,0,0-.84-10.67c-.69-3-2.77-4-5.08-4.93a47.93,47.93,0,0,0-5.88-1.47c.26-1.75.58-3.61.78-5.48a19.11,19.11,0,0,0-.14-2.38c-.13-9.45,1.23-18.59,6.12-26.87,6.08-10.32,5.8-20.87,1.41-31.63-2.35-5.75-5.33-11.13-10.34-15-1.77-1.36-4-2.08-6.1-3.06q-2.83-1.35-5.73-2.6a3.13,3.13,0,0,0-1.61-.3,1.35,1.35,0,0,0-.92.83c-.09.38.12,1.13.39,1.23,3.2,1.21,4.45,4.2,6.08,6.73,4.25,6.56,6.27,14,7.75,21.58q1.35,6.84,2.18,13.76A22.57,22.57,0,0,1,317,78.42c-1.65,4-2.68,8.21-2.07,12.53.52,3.67,1.61,7.24,2.42,10.87.27,1.23,1.58,2.52-.13,3.73-.16.12,0,.71,0,1.08v3.06l-9.72,2.55c-.32-2.29-.52-4.75-1-7.15a106.74,106.74,0,0,0-2.72-10.59c-1.41-4.31-5-7-8.16-10-6.35-6-14.19-8.23-22.56-8.9a33.52,33.52,0,0,1-16.57-5.46c-2.93-2-5.9-3.91-8.8-5.94a23.55,23.55,0,0,1-7.39-8l-.54-.06c-.09.5-.36,1-.22,1.48,1.26,4.09,2.35,8.25,4,12.2,3.56,8.69,10.37,14.2,18.64,18.08a71,71,0,0,0,9.42,4,104.53,104.53,0,0,0,12.3,2.72,13.23,13.23,0,0,1,9.05,5.64c3.41,4.88,6.17,10.06,6.4,16.2a2.57,2.57,0,0,1-.5,1.63c-7.14,8.17-14.61,16-20.8,25a185.71,185.71,0,0,1-11.52,14.61c-3.47,4.09-5.73,8.84-8,13.6-4.05,8.65-7.92,17.37-11.76,26.11-2.34,5.33-4.48,10.76-6.74,16.13-2.89,6.86-5.79,13.71-8.76,20.53a2.38,2.38,0,0,1-1.58,1.24c-5.34.7-10.68,1.38-16,1.87-3.76.35-7.54.45-11.32.58a129.13,129.13,0,0,0-27.56,3.69c-6.44,1.65-13.17,2.21-19.79,3.09a28.25,28.25,0,0,1-5.18-.23l2.84-10.94a20.43,20.43,0,0,1,3.66,0c6.12,1.12,11.9-.53,17.83-1.63,12.81-2.36,24.8-7.56,37.45-10.38,3.65-.82,7.49-.8,11.25-1.09,1.42-.12,2.86,0,4.28-.07.5,0,1-.53,1.44-.82-.4-.4-.74-1-1.21-1.14a9.67,9.67,0,0,0-2.93-.33c-5.63.29-11.35.12-16.86,1.09-9.39,1.65-18.63,4.08-28,6.08a45,45,0,0,1-8.06,1.09c-5.72.17-11.44,0-17.15.08-1.46,0-2-.41-2.22-1.95a89.92,89.92,0,0,0-2-9.43c-.07-.3-1.38-.63-1.84-.4a5.17,5.17,0,0,0-1.54,1.8c-2,2.85-3.82,5.81-5.94,8.55a28.39,28.39,0,0,0-5.32,11.14,34.27,34.27,0,0,1-2.86,6.75c-.46,1-1.3,1.14-2.48,1.05-3.25-.23-6-1.6-9-2.81-7.39-3.05-14.93-5.72-22.44-8.47-2.21-.81-4.49-1.41-6.76-2.05a21.52,21.52,0,0,0-2.73-.37,10.93,10.93,0,0,0,1.41,1.93c4.23,3.14,8.45,6.3,12.77,9.31s9,6.15,13.58,9.08c2.29,1.45,4.78,2.58,7.58,4.07-.63,2-1.29,4.26-2.08,6.51-.39,1.1-1.16,2.08-1.49,3.19-.55,1.86-1.52,2.53-3.38,1.75-2.17-.9-4.53-1.47-6.5-2.68-6.23-3.85-12.37-7.84-17.78-12.84-1.28-1.18-2.6-2.31-3.83-3.53-4.3-4.27-9.35-4.2-15.22-2.53,1,.73,1.63,1.27,2.32,1.78,5.91,4.29,12.47,7.75,17.54,13.13a36.09,36.09,0,0,1,5,6.47c3.33,5.76,8.3,8.86,14.73,9.9l.91.16c.06,0,.1.06.27.17-8.74,13.49-15.06,28.22-22,42.9C76.7,307.35,61,294.79,42.49,286.18c1.79-2.12,3.52-4.19,5.26-6.24,1-1.22,1.9-3.09,3.18-3.45s3.09.61,4.53,1.28a121.22,121.22,0,0,0,20.19,6.93c2.76.72,5.54,1.37,8.34,1.91.66.13,1.43-.32,2.16-.5-.4-.57-.68-1.38-1.22-1.66-2.14-1.12-4.42-2-6.55-3.1s-4.35-2.55-6.51-3.87c-4-2.43-7.83-5-11.88-7.27-1.32-.74-3.06-.75-4.82-1.14.84-1.49,1.52-2.94,2.42-4.25,4.19-6.14,8.26-12.4,12.76-18.31,2.39-3.13,5.54-5.68,8.4-8.43,3.62-3.47,7.45-6.73,10.93-10.34,4.21-4.37,8.23-8.94,12.17-13.56,1-1.2,1.73-1.35,2.84-.44.57.47,1.14.95,1.69,1.45a21.15,21.15,0,0,0,8,4.49c6.6,2.14,13.09,4.6,19.65,6.87a13.69,13.69,0,0,0,2.89.36c-.44-.89-.63-2.11-1.34-2.63a86.09,86.09,0,0,0-10.76-7.23c-5.57-2.88-11.37-5.27-16.41-9.1l-1.61-1.22,8.82-13.79c.74.67,1.35,1.25,2,1.79,9.63,8.26,20.82,12.58,33.4,13.85,6.19.62,12.32.91,18.24-.92,6.29-1.95,12.88-3.28,18.37-7.34,6.92-5.13,10-11.89,9-20.49a28.78,28.78,0,0,1-.37-4.43c.21-5-1.52-9.34-3.68-13.66-1.16-2.32-2.11-4.74-3.13-7.14a1.47,1.47,0,0,1,.88-2.21c6.5-2.58,8.85-8.11,10.08-14.37.84-4.27-3.33-8.3-7.66-8.16-5.51.16-9.26,3.34-12.7,6.88-1.56,1.6-2.72,1.93-4.57,1.15A28.26,28.26,0,0,0,163,135.63a15.86,15.86,0,0,1-3.87-.4,50.57,50.57,0,0,0-15.58-.43,21.45,21.45,0,0,1-2.53,0c-.48-10.8.44-21.27,5-31.14,1.43-3.09,2.67-6.27,4-9.42a2.55,2.55,0,0,1,2.58-1.7c6.52-.23,12,2.45,16.86,6.39,4.38,3.55,8.42,7.51,12.69,11.21,2,1.7,4.06,3.26,6.15,4.82,6.13,4.6,12.95,6.76,20.61,5.45,3.25-.56,6.48-1.45,8.39-4.57a11.38,11.38,0,0,0,.75-1.8,7.71,7.71,0,0,0-2.2-.7c-2.53,0-5.07.27-7.61.22-8-.18-15.29-3-22.06-7.08a46.59,46.59,0,0,1-11.92-10.3c-1.09-1.34-2-2.84-3-4.28a31.87,31.87,0,0,0-12.07-10.56l9.13-10.46a3.76,3.76,0,0,0,.52-.54c2-3.65,5.1-3.53,8.73-3,10,1.47,16.77,7.34,22.4,15.21q9.94,13.94,20.3,27.58A55.84,55.84,0,0,0,236,123.71c5.82,3.56,12.3,3.45,18.79,3.23,9-.3,16.13-4.79,22.77-10.32a7.1,7.1,0,0,0,1.11-1.74l-.5-.45a13.5,13.5,0,0,0-1.57.78c-8,5.42-16.4,5.16-25,1.45s-14.38-10.13-19.91-17.21-9.6-15.27-13.24-23.62C214.2,66,208.25,57.24,199.16,51.06c-1.28-.87-2.64-1.61-4.31-2.62,16.21-11.15,32.3-22.07,49.61-31.26,3.49,4.09,8.46,5.22,13.33,6.35A64.87,64.87,0,0,1,277.18,31c7.82,4.78,13.16,12,17.68,19.76,1.28,2.2,2.26,4.56,3.42,6.83a19.8,19.8,0,0,0,1.15,1.77l.62-.17a7.34,7.34,0,0,0-.22-2.12c-2.15-5.07-4.24-10.18-6.6-15.15s-4.56-9.85-8.46-13.72c-4.32-4.28-8.91-8.22-14.43-11C266.58,15.3,263.06,13,259,10.54c1.46-.43,2.37-.71,3.29-1,6.33-1.74,12.57-4,19-5.07,8.4-1.44,16.95-2.12,25.46-2.81,3.37-.27,6.8.37,10.21.51A27.51,27.51,0,0,0,321.55,2a7.52,7.52,0,0,1,7,2.32,52.2,52.2,0,0,1,13.14,23.87,166.06,166.06,0,0,1,3.51,19.92c1.09,9.45,3.22,18.46,7.5,27.06a142.29,142.29,0,0,0,9.64,17.18,26,26,0,0,0,2.05,2.4l.66-.26c-.1-1.81-.21-3.61-.3-5.42-.43-8.25-3-16-5-23.94-2.7-10.68-4.75-21.54-6.56-32.41a96.44,96.44,0,0,0-8.44-26.84C344.39,5.14,344,4.39,343.42,3.38Z"/><path class="cls-1" d="M293.74,288.78c2.05.43,4,1,5.92,1.21,5.21.71,10.46,1.23,15.66,2a148.52,148.52,0,0,0,23.17,1.62,42.24,42.24,0,0,1,7.55.94c3.1.52,6.18,1.23,9.29,1.75.54.09,1.17-.32,1.76-.51-.27-.57-.4-1.5-.81-1.64-1.32-.47-2.76-.59-4.12-.94-4-1-7.91-2.1-11.88-3a23.5,23.5,0,0,0-5.84-.9c-7.49.2-14.65-1.44-21.82-3.25-4.43-1.11-9-1.85-13.44-2.75l-1.41-.32c.54-1,1-1.79,1.45-2.61,2.23-3.86,4.49-7.71,6.7-11.59a8.68,8.68,0,0,0,.92-2.23c1.61-7.18,4.63-13.85,7.39-20.62.74-1.82,1.19-3.76,1.78-5.65a60.09,60.09,0,0,1,7.52,2c4.79,1.91,9.78,2.31,14.81,2.28,9.12-.06,18,1.61,26.79,3.59.26,3.15-.71,4.24-4.55,4.48-11.44.74-22.87,1.93-34.36,1.17-3.46-.23-6.92-.46-10.38-.67a8.91,8.91,0,0,0-1.57.27c.51.56.74,1,1.11,1.19,6.05,2.87,12.19,5,19.13,4.31,9-.89,17.79.84,26.26,4,.68.26,1.4.4,2.4.68-.3,3.17-.6,6.41-.89,9.65-.51,5.67-1,11.34-1.54,17-.41,4.18-.8,8.36-1.41,12.52s-1.55,8.2-2.24,12.32c-1.63,9.77-3.13,19.56-4.85,29.32a21,21,0,0,1-7.08,12.77,16.08,16.08,0,0,1-2.78,1.83,1.64,1.64,0,0,1-2.56-1c-1.49-4.14-3-8.27-4.31-12.47-.46-1.5-.27-3.19-.47-4.78a4.5,4.5,0,0,0-.65-1.32c-.43.26-1.05.41-1.26.79a7.67,7.67,0,0,0-.91,2.57,44.77,44.77,0,0,1-5.23,15,7.56,7.56,0,0,1-1.91,2.23c-1.46,1.16-2.79,1-4.17-.26-2.59-2.41-3.85-5.61-5-8.82-1.62-4.5-2.94-9.08-2.76-14,0-.53-.55-1.08-.85-1.61-.4.46-1,.87-1.18,1.41-.77,2.61-1.27,5.32-2.17,7.88a36.53,36.53,0,0,1-3.14,6.7c-1.32,2.2-2.88,2.52-5.27,1.59a8.77,8.77,0,0,1-5.17-4.55c-2-4.54-4.15-9-3.92-14.21,0-.46-.39-.93-.6-1.39-.51.27-1.2.4-1.5.82-1.5,2.12-2.82,4.38-4.38,6.47s-3.36,4.08-5,6.14a1.57,1.57,0,0,1-2.68,0,24.46,24.46,0,0,1-2.81-4.3,13.65,13.65,0,0,1-.72-11.66c1.23-3.17,1.8-6.64,3.35-9.61,3.54-6.8,7.55-13.35,11.27-20.06,1-1.83,1.65-3.87,2.52-5.78S292.73,290.92,293.74,288.78Z"/><path class="cls-1" d="M126.45,297.57a44.84,44.84,0,0,0,18.6,8.48c9.61,2.13,19.29,3.94,28.91,6.08a95.91,95.91,0,0,1,9.53,3.05,7.71,7.71,0,0,1,1.47,1c-2.74,5.22-5.41,10.38-8.19,15.48a2.26,2.26,0,0,1-1.89.72c-5.35-.56-10.76-.88-16-1.93-7.83-1.55-15.58-3.56-23.33-5.51-4-1-8-2.3-12-3.45a2.44,2.44,0,0,0-1.09-.16,7.3,7.3,0,0,0-1.31.46c.21.48.28,1.15.64,1.39a44.16,44.16,0,0,0,4.63,2.76,124,124,0,0,1,20.27,12.77,39,39,0,0,0,20.67,8.55,55.9,55.9,0,0,1-2.93,6c-2.49,3.91-5.33,7.61-7.76,11.56a83.41,83.41,0,0,0-4.58,9.05c-1.62,3.54-3,7.19-4.59,10.73-1.2,2.65-2.56,5.23-3.93,7.79-2.35,4.41-9.13,5.48-12.68,2a2.77,2.77,0,0,1-.6-2.16c.78-4.08,1.8-8.1,2.56-12.18.51-2.8.79-5.64,1-8.48,0-.55-.56-1.15-.86-1.73-.37.55-1,1.08-1.06,1.67-.56,4.68-1.12,9.35-3,13.74-.74,1.72-1.59,3.2-3.63,3.64-2.52.56-4.63-.76-4.67-3.33a24.3,24.3,0,0,1,.81-5.09c.78-3.88,1.66-7.73,2.37-11.62.11-.63-.47-1.39-.72-2.09a7.27,7.27,0,0,0-1.32,1.89c-.68,2.44-1.13,5-1.82,7.4-1.27,4.55-4.07,7.79-8.72,9a8.75,8.75,0,0,1-4.57,0c-3.16-1-3.18-3.86-1.81-7,2.09-4.75,4.31-9.44,6.42-14.19.16-.37-.11-.94-.18-1.42-.48.22-1.21.31-1.4.67-2.2,4.3-4.47,8.57-6.4,13-1.31,3-5,4-7.24,1.68-1.43-1.45-2.39-3.09-2.06-5.15a51.18,51.18,0,0,1,1.65-8.49c1.56-4.7,3.06-9.53,5.45-13.82,6.92-12.43,11.06-26,16.75-38.93a62.77,62.77,0,0,1,4.19-7.45C123.4,301.82,124.92,299.79,126.45,297.57Z"/><path class="cls-1" d="M291.15,246c-1.22,2.71-2.37,5.18-3.44,7.68a2.3,2.3,0,0,1-2.52,1.61c-5-.22-10.05-.38-15.07-.42-2.66,0-5.32.34-8,.33-2.34,0-4.69-.28-7-.45-2.9-.2-5.79-.44-8.69-.59a6.41,6.41,0,0,0-1.72.44l-.19.59a9.29,9.29,0,0,0,2.32,1.31q8.42,1.91,16.89,3.63,6.56,1.34,13.15,2.45c2,.34,4.05.42,6.33.64-.47,1.11-.93,2.09-1.32,3.11-3.63,9.49-7,19.09-10.94,28.47s-8.14,18.65-12.72,27.72c-2,4-5,7.51-8,10.91-1.34,1.55-3.53,2.44-5.47,3.35-1.51.7-2.65-.14-3.11-1.69a9.06,9.06,0,0,1-.35-2.37c-.21-6.44,1.28-12.67,2.34-19,.17-1,1-2.58-.48-2.89-1.64-.36-1.23,1.5-1.51,2.44-1.35,4.51-2.57,9.07-4,13.57a25.52,25.52,0,0,1-1.83,3.85,3.76,3.76,0,0,1-4.26,2.28c-2-.34-2-2.1-2.27-3.6-.63-3.21.14-6.26.9-9.34.66-2.7,1.28-5.42,1.79-8.16.1-.56-.4-1.23-.62-1.84-.49.46-1.21.85-1.42,1.42-1.16,3.06-2.16,6.17-3.3,9.24a6.08,6.08,0,0,1-1.28,2c-1.83,2-4.26,1.46-5-1.08-1.35-4.65-.54-9.08,1.62-13.33,1.12-2.21,2.17-4.46,3.22-6.71a3.12,3.12,0,0,0,.36-1.42,4.16,4.16,0,0,0-.52-1.25c-.41.23-1,.37-1.18.71a29.65,29.65,0,0,0-1.76,3.9c-1.56,4.47-5.07,7.45-8.22,10.66-.58.58-2.2.41-3.22.15a2.38,2.38,0,0,1-1.27-1.86,25.17,25.17,0,0,1,.64-5.68c1-4.21,2.31-8.36,3.38-12.56a24.56,24.56,0,0,1,4.54-8.88c4.21-5.52,8.24-11.18,12.55-16.61,7.17-9,11.64-19.44,15.85-30,.7-1.76,1.41-2.32,3.38-1.83q14.07,3.49,28.22,6.65c4,.89,8.05,1.4,12.08,2.09C290.38,245.79,290.67,245.89,291.15,246Z"/><path class="cls-1" d="M317.21,112.21c-.22,2.24-.35,4.15-.61,6-.63,4.6-1.35,9.18-2,13.78-1.16,8.46-2.21,16.94-3.42,25.4-.78,5.45-1.72,10.88-2.7,16.3a2.54,2.54,0,0,1-1.47,1.63c-3.85,1.12-7.72,2.22-11.64,3.08a51.76,51.76,0,0,1-15.52.8,40.46,40.46,0,0,0-6.85.37c-.46,0-.89.46-1.33.7.33.42.58,1.1,1,1.21a38.87,38.87,0,0,0,6.67,1.49A63.35,63.35,0,0,1,294.06,186c3.1,1,6.58,1,9.89,1.32.91.1,1.84,0,3.12,0-.53,3.89-.49,7.78-1.67,11.26-2.56,7.61-3.76,15.53-5.83,23.23-1.68,6.26-4.16,12.31-6.31,18.5-4.51-1.44-8.84-3.22-13.35-4.17-6.52-1.38-13.17-2.16-19.77-3.2l-10.67-1.72c1.12-7.49,5.73-13.21,7.72-19.61,10.24.44,20.25,1.06,30.27,1.23,4,.07,8-.83,12-1.38.52-.07,1-.71,1.45-1.09-.45-.37-.86-1-1.34-1.05a31,31,0,0,0-5.18-.27c-6.82.34-13.45-.94-20.1-2.14-4.08-.73-8.16-1.53-12.23-2.3-.61-.12-1.2-.29-2-.48.31-.82.6-1.53.86-2.26,2-5.48,4.05-10.93,5.88-16.46,2.33-7.06,4.61-14.15,6.62-21.31,1.14-4,1.59-8.27,2.55-12.37a14.28,14.28,0,0,1,2.1-4.94c3.61-5.05,7.24-10.09,11.2-14.86a117.88,117.88,0,0,1,11.88-12.78,28.39,28.39,0,0,1,13.19-6.6C315.12,112.34,316,112.33,317.21,112.21Z"/><path class="cls-1" d="M89.66,326.36c-3.87,9-7.82,18.1-11.48,26.57,0-2.54,0-5.73,0-8.92,0-.64-.55-1.27-.85-1.91l-.72.2c-.09.76-.21,1.52-.26,2.28-.24,4-.37,8.05-.74,12.06a4.66,4.66,0,0,1-1.47,2.79,57.52,57.52,0,0,1-6.33,4.87,10.88,10.88,0,0,1-10.09,1.13c-.71-.26-1.29-1.34-1.6-2.16a27.24,27.24,0,0,1-1.25-14.58c1.15-6.76,1.63-13.64,2.35-20.47,0-.39-.39-.84-.6-1.26-.38.32-1,.58-1.1,1-.44,2-.76,4-1.1,6-.52,3.1-1,6.21-1.53,9.31a26.74,26.74,0,0,1-5.62,12.2c-1.81,2.31-4.43,2.06-6.24-.28-2.19-2.84-1.28-5.95-.86-9a32.21,32.21,0,0,1,1.6-5.12c1.72-5.49,3.45-11,5.1-16.49.14-.47-.35-1.12-.54-1.68-.42.41-1.06.74-1.23,1.24-1.66,4.73-3.18,9.52-4.88,14.24a85.06,85.06,0,0,1-3.51,8.37c-2,4.2-5.05,5.63-9.61,4.69A29.17,29.17,0,0,1,22.28,350c-1.91-.77-2.44-2.68-1.81-5.64,1.27-5.93,3.7-11.43,6.27-16.87,1.16-2.47,2.59-4.81,3.82-7.25a4.59,4.59,0,0,0,.12-1.68c-.57.19-1.34.21-1.7.6-4.24,4.61-8.31,9.39-12.66,13.88a24.9,24.9,0,0,1-6.06,4.24,5.14,5.14,0,0,1-6.85-2.58c-2.15-6.13-2.81-12.44,1.3-18A35.94,35.94,0,0,1,15.41,307c7.55-4.41,15.16-8.78,21.3-15.16,1-1.05,1.87-1.25,2.95-.15a6.49,6.49,0,0,0,1.53,1.05c4.9,2.64,9.9,5.12,14.71,7.92,7.18,4.18,14.4,8.32,20.34,14.3,3,3,6,5.89,9.18,8.69A30.67,30.67,0,0,0,89.66,326.36Z"/><path class="cls-1" d="M202.69,284.48l-15,25.94a34.26,34.26,0,0,0-3.64-2.87,57.08,57.08,0,0,0-26-8.49,71.93,71.93,0,0,1-25.51-6.25c-2.26-1.05-2.3-1.11-1.21-3.25,1.29-2.54,2.59-5.08,4-7.55a61.1,61.1,0,0,0,5.66-12.9c1.86-6.23,4.31-12.28,6.59-18.38a1.85,1.85,0,0,1,1.51-.8c7.84.64,15.66,1.48,23.5,2,6.71.46,13.34-.63,20-1.55,4.84-.67,9.73-1,14.6-1.32,3.53-.24,7.07-.27,10.6-.29,2,0,3.94.19,6.24.3-1.13,2-2.16,3.72-3.14,5.49C218,259.8,215,265,212.29,270.27c-1.14,2.27-2.77,2.82-5,2.89a99.17,99.17,0,0,1-32.31-3.7c-5.26-1.58-10.79-2.21-16.18-3.39-2-.44-4-1.27-6-1.79a15.31,15.31,0,0,0-2.89-.21l-.28.79a8.48,8.48,0,0,0,1.76,1.23c3.3,1.25,6.67,2.32,9.95,3.63,6.9,2.76,13.73,5.71,20.64,8.45,6.21,2.46,12.38,5.07,19.08,5.95A15.5,15.5,0,0,1,202.69,284.48Z"/><path class="cls-1" d="M176.37,186.6c2.56-.61,4.92-1.16,7.29-1.74a13.78,13.78,0,0,0,8.9-6.52c.47-.8,1-1.54,1.78-2.67.4,4.23,1,8,0,11.88a3,3,0,0,1-3,2.44c-2.77.29-5.56.46-8.31.87-2.4.36-4.77,1-7.27,1.53,1,1.93,7.31,2.61,14.9,2a17.08,17.08,0,0,1-7.91,6.37c-7.28,3.2-14.78,5.84-22.79,6.3-3.36.19-6.78-.39-10.17-.7a54.73,54.73,0,0,1-21-6.5c-4.26-2.28-8.37-4.49-11.41-8.08,3-.27,6-.48,9.09-.88.77-.1,1.45-.83,2.17-1.28-.66-.56-1.24-1.4-2-1.62-1.47-.43-3-.44-4.57-.75-2.17-.45-4.35-.91-6.46-1.57A2.43,2.43,0,0,1,114.2,184c-.13-5.07-.33-10.17,1-15.16.05-.21.13-.41.1-.31,1.82,3.19,3.56,6.59,5.66,9.75a27.3,27.3,0,0,0,4.35,4.31c.26.24.76.23,1.15.34.11-.45.39-.94.29-1.33a4.65,4.65,0,0,0-.93-1.79,24.19,24.19,0,0,1-5.55-13.37,12.17,12.17,0,0,1,1.31-6.08c1.69-3.67,3.22-7.58,7.52-9.25.74-.29.92-1.07-.07-1.86-3.62-2.84-7-5.93-9.06-10.18-1.77-3.62.35-11.08,3.89-13,2.44-1.32,5.28-1.45,7.35.46a63,63,0,0,1,7.29,8.34c1.06,1.4,2,2.14,3.78,2,3.34-.23,6.69-.35,10-.41a28.05,28.05,0,0,1,3.62.41l.14.61c-.42.19-.91.62-1.24.52-4.8-1.45-9.59-.79-14.35.12a9.85,9.85,0,0,0-3.21,1.63c-.29.18-.52,1.06-.36,1.23a1.92,1.92,0,0,0,1.39.54c2.09-.15,4.2-.69,6.26-.55,3.54.23,7.06.85,10.59,1.31l.07.6a3.75,3.75,0,0,1-1.41.41c-5.6-.72-11.13-.1-16.67.61a36,36,0,0,0-4,.53c-.57.14-1,.84-1.5,1.28.56.28,1.11.79,1.68.81,6.19.22,12.39.36,18.59.52.73,0,1.47,0,2.2,0l.32.57c-.43.3-.86.86-1.29.86-3.57,0-7.13-.11-10.7-.12-.36,0-1.06.6-1,.74.16.51.49,1.25.89,1.35A29.7,29.7,0,0,0,146,151c2.85.34,5.69.78,8.55,1,2.2.17,4.43-.05,6.62.13,2.9.24,5.78.71,8.67,1.07a2.22,2.22,0,0,0,.37,0c1.08,0,2.45.32,2.67-1.18,0-.26-1.58-1-2.5-1.13-3.89-.7-7.81-1.25-11.72-1.91a4.41,4.41,0,0,1-1.27-.66l.15-.7a18.83,18.83,0,0,1,3.11.22c5.8,1.3,11.59,2.68,17.38,4a3.7,3.7,0,0,0,1.27.24,9.33,9.33,0,0,0,1.72-.62c-.37-.42-.65-1-1.11-1.22-6.33-2.71-12.68-5.36-19.54-6.5-.62-.11-1.23-.28-1.85-.42l0-.54a8.44,8.44,0,0,1,1.67,0c4.5.88,9,1.81,13.47,2.72,1.7.34,3.4.72,5.12.94a5.3,5.3,0,0,0,1.82-.46,10.87,10.87,0,0,0-1.15-1.71,3,3,0,0,0-1.35-.6q-8.67-2.43-17.37-4.83l-2.06-.57c.74-.48,1.13-.94,1.49-.92,6.44.33,12.86.79,18.9,4,2-4,5.51-6.15,9-8.3a8,8,0,0,1,8.84.28,4.39,4.39,0,0,1,1.66,5c-1.36,5-3.16,9.65-8.55,11.88-3.2,1.32-3.26,1.7-2.21,5a34.89,34.89,0,0,0,2.35,5.65,12.2,12.2,0,0,1,1.18,7.34c-.51,5.31-2.91,9-7.78,11.34a41.87,41.87,0,0,0-5.94,3.81C176.42,184.25,175.73,185.36,176.37,186.6ZM133,185.27a50,50,0,0,0,1.3,6.57,9.19,9.19,0,0,0,7.22,6.55,98.48,98.48,0,0,0,11.9,2c4.59.34,11.71-3.53,14.13-9.64,2.24-5.66,2.16-11.74,2.64-17.73a8.41,8.41,0,0,0-2.59-6.93c-1.82-1.88-3.71-4.3-6-5a20.92,20.92,0,0,0-17.36,2.31C136.4,168.21,133.68,175.83,133,185.27Zm58.45-44.83c-.27-3.28-1.95-4.41-4.56-3.27a12.62,12.62,0,0,0-3.23,2.4c-.34.32-.3,1.05-.44,1.59a4.8,4.8,0,0,0,1.66.35c2.39-.36,3.27.6,2.52,2.89-.14.41-.47.78-.5,1.18a5.87,5.87,0,0,0,.28,1.47c.44-.11,1-.08,1.3-.35A10.13,10.13,0,0,0,191.45,140.44Zm-63.19,1.81c.15-1.18.3-1.88.31-2.58.07-3.29.9-3.95,4.08-3.25.35.08,1,0,1.1-.2a1.25,1.25,0,0,0-.14-1.17,10,10,0,0,0-2.29-2.13c-2.08-1.23-5.46-.31-5.88,1.59a7.33,7.33,0,0,0,.91,6.07A13.33,13.33,0,0,0,128.26,142.25Zm12.85,14.39c.58-.95,1.1-1.46,1.16-2s-.47-1-.73-1.45c-.5.44-1.27.81-1.41,1.34S140.61,155.63,141.11,156.64Zm31.91-.31c-.59.84-1.2,1.34-1.26,1.9s.62.92,1,1.38a14,14,0,0,0,1.33-2C174.14,157.5,173.58,157,173,156.33Z"/><path class="cls-1" d="M323,205.65c16.38,4,32.19,5,48.31.4l-.85,5.67c-1.34,9.18-2.73,18.35-4,27.54-.19,1.4-.75,1.66-1.9,1.49-2.69-.41-5.37-1-8.08-1.2-3.92-.36-7.86-.46-11.79-.74-4.68-.34-9.36-.92-14.05-1.08-4.25-.14-8.51.15-12.77.25-.48,0-1,.06-1.56.1C318.55,227.19,320.75,216.46,323,205.65Z"/><path class="cls-1" d="M389.64,262.55c5-.79,9.89-1.38,14.66-2.38,2-.43,3.92-1.67,5.79-2.68.39-.21.45-1,.66-1.56a5.3,5.3,0,0,0-1.55-.21c-6.27,1.1-12.6,1-18.93,1-1.32,0-1.85-.33-2-1.73-.4-5.3-.94-10.58-1.47-16.32,5,.81,9.72,1.23,14.25,2.38,9.2,2.33,18.39,4.62,27.93,5,1.44,0,1.75.68,1.72,1.95a66.9,66.9,0,0,1-8.17,31.33c-.78,1.42-1.5,2.86-2.14,4.34-1.25,2.88-3.7,4.5-6.27,5.94a3.56,3.56,0,0,1-2.33.23,20.52,20.52,0,0,1-12.39-7.95c-2.12-2.83-4.2-5.69-6.31-8.53C390.7,270.06,390.23,266.21,389.64,262.55Z"/><path class="cls-1" d="M430.49,201.64a49.81,49.81,0,0,0-7-.38c-5.41.5-10.81,1.22-16.19,2a76.6,76.6,0,0,1-20.35,0c.49-11.82,1-23.54,1.47-35.44l8.59,2.43c1.08.29,2.19.49,3.25.83s2.07.79,3,1.16a13,13,0,0,1,3-.45c4.8.42,9.59,1.05,14.4,1.43,2.45.2,4.93,0,7.14,0C428.73,183,429.61,192.38,430.49,201.64Z"/><path class="cls-1" d="M420.1,102.22c1.8,12.56,3.53,24.72,5.29,37a26.54,26.54,0,0,0-4.16-.29c-5,.38-10,1-15,1.32s-9.78.42-14.67.6c-.95,0-1.49-.31-1.41-1.44q.31-4.53.45-9.08c0-1.11.31-1.66,1.55-1.78a39.33,39.33,0,0,0,14.47-4.46c3.86-2,7.78-3.82,11.65-5.78a3.35,3.35,0,0,0,1.43-1.74c-5.15,0-10.23,0-15,1.81s-9.29,3.91-14.4,6.1V93.82C398.92,101.68,409.38,102.81,420.1,102.22Z"/><path class="cls-1" d="M426.16,142.85c.32,3,.71,6.21,1,9.39.3,3.58.44,7.16.71,10.73.11,1.38-.57,1.86-1.76,1.68-2.93-.45-5.85-1-8.78-1.46-9.39-1.52-18.77-2.6-28.31.9.11-1.53.24-2.78.29-4,.16-4,.34-7.92.39-11.88,0-1.25.39-1.6,1.64-1.82,7.47-1.32,15-1.55,22.55-1.79C417.9,144.43,421.92,143.47,426.16,142.85Z"/><path d="M133,185.27c.68-9.44,3.4-17.06,11.22-21.87a20.92,20.92,0,0,1,17.36-2.31c2.31.69,4.2,3.11,6,5a8.41,8.41,0,0,1,2.59,6.93c-.48,6-.4,12.07-2.64,17.73-2.42,6.11-9.54,10-14.13,9.64a98.48,98.48,0,0,1-11.9-2,9.19,9.19,0,0,1-7.22-6.55A50,50,0,0,1,133,185.27Zm5.69-13.67a25.66,25.66,0,0,0-3.64,12.59c-.09,2.52,0,2.92,2.43,3.12,3.81.32,7.64.33,11.47.47.93,0,1.55-.29,1.62-1.33.13-2.15.29-4.3.38-6.45a1.22,1.22,0,0,0-.52-.88c-1.7-1.13-3.43-2.2-5.15-3.3C143.17,174.48,141.06,173.12,138.69,171.6Zm-3,18a7.67,7.67,0,0,0,6.1,6.74c3.31.73,6.69,1.2,10,1.83,4.91.94,11.36-3.15,13.41-7.43-2.59-.32-5.08-.84-7.57-.9C150.35,189.68,143.06,189.69,135.67,189.62Zm16.83-2.34c4.3.54,8.45,1,12.6,1.58,1.35.18,1.57-.79,1.72-1.69.44-2.62.92-5.24,1.16-7.88.18-2,0-4.14,0-5.91-4.67,1.85-9.37,3.68-14,5.61a2.06,2.06,0,0,0-1,1.44C152.69,182.76,152.62,185.11,152.5,187.28ZM156,162.39c-6.54.12-11.88,2.14-15.73,7.08l1.17,1.78c3.8-2.79,7.9-3.61,11.93-4.52,1.13-.26,1.76-.61,2-1.74C155.52,164.16,155.77,163.34,156,162.39Zm9.3,9.17-.18.56,3.3-2.09a71.73,71.73,0,0,0-5.21-5.71,9.38,9.38,0,0,0-3.93-1.76c-1.95-.48-1.53,1.4-2,2.38s-.17,1.43.8,2C160.56,168.35,162.91,170,165.31,171.56Zm-1.71,1.66a15.8,15.8,0,0,0-6.45-4.57,1,1,0,0,0-.93.27c-1.16,2.53-2.92,4.85-2.87,8.11Zm-12.67,3.84c1-2.84,2-5.62,3.13-8.72l-10.56,3.53.1.59Z"/><path d="M191.45,140.44a10.13,10.13,0,0,1-3,6.26c-.3.27-.86.24-1.3.35a5.87,5.87,0,0,1-.28-1.47c0-.4.36-.77.5-1.18.75-2.29-.13-3.25-2.52-2.89a4.8,4.8,0,0,1-1.66-.35c.14-.54.1-1.27.44-1.59a12.62,12.62,0,0,1,3.23-2.4C189.5,136,191.18,137.16,191.45,140.44Z"/><path d="M128.26,142.25a13.33,13.33,0,0,1-1.91-1.67,7.33,7.33,0,0,1-.91-6.07c.42-1.9,3.8-2.82,5.88-1.59a10,10,0,0,1,2.29,2.13,1.25,1.25,0,0,1,.14,1.17c-.11.21-.75.28-1.1.2-3.18-.7-4,0-4.08,3.25C128.56,140.37,128.41,141.07,128.26,142.25Z"/><path d="M141.11,156.64c-.5-1-1.1-1.66-1-2.12s.91-.9,1.41-1.34c.26.48.78,1,.73,1.45S141.69,155.69,141.11,156.64Z"/><path d="M173,156.33c.56.69,1.12,1.17,1,1.33a14,14,0,0,1-1.33,2c-.35-.46-1-1-1-1.38S172.43,157.17,173,156.33Z"/><path class="cls-1" d="M138.69,171.6c2.37,1.52,4.48,2.88,6.59,4.22,1.72,1.1,3.45,2.17,5.15,3.3a1.22,1.22,0,0,1,.52.88c-.09,2.15-.25,4.3-.38,6.45-.07,1-.69,1.36-1.62,1.33-3.83-.14-7.66-.15-11.47-.47-2.44-.2-2.52-.6-2.43-3.12A25.66,25.66,0,0,1,138.69,171.6Z"/><path class="cls-1" d="M135.67,189.62c7.39.07,14.68.06,22,.24,2.49.06,5,.58,7.57.9-2.05,4.28-8.5,8.37-13.41,7.43-3.34-.63-6.72-1.1-10-1.83A7.67,7.67,0,0,1,135.67,189.62Z"/><path class="cls-1" d="M152.5,187.28c.12-2.17.19-4.52.43-6.85a2.06,2.06,0,0,1,1-1.44c4.67-1.93,9.37-3.76,14-5.61,0,1.77.15,3.86,0,5.91-.24,2.64-.72,5.26-1.16,7.88-.15.9-.37,1.87-1.72,1.69C161,188.32,156.8,187.82,152.5,187.28Z"/><path class="cls-2" d="M156,162.39c-.24,1-.49,1.77-.65,2.6-.22,1.13-.85,1.48-2,1.74-4,.91-8.13,1.73-11.93,4.52l-1.17-1.78C144.13,164.53,149.47,162.51,156,162.39Z"/><path class="cls-2" d="M165.31,171.56c-2.4-1.56-4.75-3.21-7.23-4.64-1-.55-1.27-1-.8-2s.06-2.86,2-2.38a9.38,9.38,0,0,1,3.93,1.76,71.73,71.73,0,0,1,5.21,5.71l-3.3,2.09Z"/><path class="cls-2" d="M163.6,173.22,153.35,177c0-3.26,1.71-5.58,2.87-8.11a1,1,0,0,1,.93-.27A15.8,15.8,0,0,1,163.6,173.22Z"/><path class="cls-2" d="M150.93,177.06l-7.33-4.6-.1-.59,10.56-3.53C152.94,171.44,152,174.22,150.93,177.06Z"/></svg>