<svg id="Layer_1" data-name="Layer 1" xmlns="http://www.w3.org/2000/svg" xmlns:xlink="http://www.w3.org/1999/xlink" viewBox="0 0 397.13 220.5"><defs><style>.cls-1,.cls-4{fill:none;}.cls-2{fill:#f6ca0f;}.cls-3{fill:#ebd540;}.cls-4{stroke:#a5dcda;stroke-miterlimit:10;stroke-width:22.68px;}.cls-5{fill:#80a337;}.cls-6{fill:#fffefd;}.cls-7{fill:#fff;}.cls-8{clip-path:url(#clip-path);}</style><clipPath id="clip-path"><path class="cls-1" d="M395.57,138.9c-.81-2.22-2.17-5.76-3.56-5.9-2.3-.23-4.84,1.77-7.23,2.93-.46.23-.71.93-1,1.42-1.89,2.88-3.35,6.22-5.8,8.5a14.09,14.09,0,0,1-7.79,3.31c-2.89.28-3.39-2.86-4-5.13a66,66,0,0,1-2.06-9.66q-1.39-14.25-2.31-28.55-.88-13.89-1.25-27.82c-.1-3.76.85-7.55.65-11.29-.52-9.6-1-19.23-2.27-28.76-1.42-11-6.9-19.49-18.06-22.88-5.19-1.57-10.65-2.25-16-3.2C311,9.42,297,10.41,283.2,12.38q-20.07,2.86-40,7c-11.59,2.39-23,5.6-34.51,8.41-12.91,3.16-25.79,6.87-39.22,6.45a130,130,0,0,1-21.72-2.6c-10.75-2.18-21.39-4.91-32-7.77-5.93-1.6-11.65-4-17.48-5.94-4-1.35-8.23-2.27-12.11-3.94C78.51,10.68,70.76,7.39,63.41,3.4,51.62-3,41.18.47,31.13,7a49.92,49.92,0,0,0-16.26,17.6c-.76-1.09-1.24-1.74-1.68-2.42A8.39,8.39,0,0,0,3.06,18.71,3.19,3.19,0,0,0,1.5,20.45C0,24.69,2.11,30.81,5.82,33.68a4.81,4.81,0,0,1,1.84,3C8.27,49,9,61.21,9.13,73.46c.1,15.13-.84,30.28-.5,45.4.29,12.92,1.95,25.81,2.66,38.74.78,14.29,1.22,28.6,1.71,42.91.13,3.69-.51,7.45,0,11.08a11.63,11.63,0,0,0,3.26,6.84c1.14,1,4.06-.06,6.94-.24,1.83,2.66,3.85,0,5.82-1.75,3.38,5.6,5.92,5.39,9.87-.52,4.48,4.33,6.53,3.85,8.88-2.1a8,8,0,0,0,.73-2.38c.35-7.26,1.05-14.53.82-21.78-.24-7.57-1.77-15.11-2.06-22.68-.64-16.81-.83-33.64-1.29-50.46-.07-2.61.88-4.09,3.44-4.5,5-.82,10.08-1.6,15.11-2.43,1.79-.29,2.69.31,2.77,2.22.44,9.47,1.06,18.94,1.35,28.42.25,8.12-.16,16.26.23,24.36.71,14.7,1.8,29.38,2.76,44.07a18.64,18.64,0,0,0,.72,4.21c1.37,4.35,3.82,4.91,6.84,1.57,2.09,2,4.25,4,6,.83,1.86.15,3.6.83,4.59.24,1.33-.8,2.08-2.57,3.22-4.09,1.53,3.17,3.81,4.92,7.23,4.06a6.45,6.45,0,0,0,5-6.64c0-6.85-.35-13.7-.6-20.56-.48-13.56-.89-27.13-1.52-40.69-.54-11.65-1.32-23.29-2-34.93-.26-4.34-.62-8.68-1-13.46,5.44.53,10.26,1,15.07,1.46,7.77.82,15.52,1.89,23.31,2.46,3.39.25,6.86-.7,10.28-.67,8.93.08,17.86.52,26.79.59,11.47.1,22.83-.82,33.84-4.42,9-3,18-6.08,27.14-8.55a77.49,77.49,0,0,1,16.79-2.56c5.87-.26,9.08,3.19,9.63,8.53,1.61,15.73,3.49,31.43,4.89,47.18a35.68,35.68,0,0,1-7.18,25.53c-4.76,6.24-10,12.17-14.26,18.71-3.82,5.84-8.38,8.79-15.47,8.18-3.86-.32-7.36,2.15-7.21,4.48.23,3.5,3.15,4.76,5.89,6a4.84,4.84,0,0,0,1.75.29c7.56.25,15.13.6,22.7.62,2.4,0,5.51-.13,7.07-1.54a74.54,74.54,0,0,0,10.19-11.66A233.9,233.9,0,0,0,285.1,173c4.92-8.69,12.55-16.06,12.71-27.2.08-6-.2-11.67-2.93-16.94-3.38-6.53-7.16-12.85-10.73-19.28-.95-1.71-1.78-3.47-2.63-5.14L298,112.32c4.27,2,7.46,5,8.58,9.81,1.8,7.73,3.94,15.38,5.54,23.15,1.38,6.69,3.37,13.57.05,20.23a59.34,59.34,0,0,1-7,11.48c-5.74,6.91-11.88,13.55-21,16.23-4.41,1.3-6.63,3.79-6.19,7s4.27,6.08,8.12,6.21c2.13.07,4.26.46,6.38.46,6.25,0,12.53,1.12,18.71-1.09,6-2.14,12.15-3.86,18.22-5.8,3.49-1.12,7-2.11,10.38-3.56a4.78,4.78,0,0,0,2.56-3.39c.17-7.25.08-14.52-.14-21.77a80.63,80.63,0,0,0-1.07-8.73c-1-7-2.24-14-2.86-21-.46-5.16.11-10.4-.12-15.59-.31-6.89-.92-13.77-1.47-20.66-.38-4.86-1-9.71-1.27-14.58-.4-6.63-.62-13.27-.92-19.91l1.07-.1c1.55,4.86,3.72,9.62,4.54,14.61,2.28,13.8,3.92,27.72,6,41.56a102.23,102.23,0,0,0,9,30.18c2.5,5.12,6.51,7.69,11.7,9,2.29.57,4.61,1,6.91,1.58,8.61,2,20-4.84,22.45-13.35A24.64,24.64,0,0,0,395.57,138.9Zm-89.46,55c-.12.17-.24.32-.36.47.12-.15.24-.3.36-.47a7.71,7.71,0,0,1,.53-.71h0A7.71,7.71,0,0,0,306.11,193.93Zm-.48-1.1.7.27Z"/></clipPath></defs><path d="M333.59,70.85c.3,6.64.52,13.28.92,19.91.3,4.87.89,9.72,1.27,14.58.55,6.89,1.16,13.77,1.47,20.66.23,5.19-.34,10.43.12,15.59.62,7,1.89,14,2.86,21a80.63,80.63,0,0,1,1.07,8.73c.22,7.25.31,14.52.14,21.77a4.78,4.78,0,0,1-2.56,3.39c-3.34,1.45-6.89,2.44-10.38,3.56-6.07,1.94-12.22,3.66-18.22,5.8-6.18,2.21-12.46,1.09-18.71,1.09-2.12,0-4.25-.39-6.38-.46-3.85-.13-7.67-3-8.12-6.21s1.78-5.72,6.19-7c9.08-2.68,15.22-9.32,21-16.23a59.34,59.34,0,0,0,7-11.48c3.32-6.66,1.33-13.54-.05-20.23-1.6-7.77-3.74-15.42-5.54-23.15-1.12-4.85-4.31-7.78-8.58-9.81l-16.49-7.85c.85,1.67,1.68,3.43,2.63,5.14,3.57,6.43,7.35,12.75,10.73,19.28,2.73,5.27,3,11,2.93,16.94C296.65,157,289,164.34,284.1,173a233.9,233.9,0,0,1-13.79,20.79,74.54,74.54,0,0,1-10.19,11.66c-1.56,1.41-4.67,1.54-7.07,1.54-7.57,0-15.14-.37-22.7-.62a4.84,4.84,0,0,1-1.75-.29c-2.74-1.23-5.66-2.49-5.89-6-.15-2.33,3.35-4.8,7.21-4.48,7.09.61,11.65-2.34,15.47-8.18,4.28-6.54,9.5-12.47,14.26-18.71a35.68,35.68,0,0,0,7.18-25.53c-1.4-15.75-3.28-31.45-4.89-47.18-.55-5.34-3.76-8.79-9.63-8.53a77.49,77.49,0,0,0-16.79,2.56c-9.15,2.47-18.13,5.6-27.14,8.55-11,3.6-22.37,4.52-33.84,4.42-8.93-.07-17.86-.51-26.79-.59-3.42,0-6.89.92-10.28.67-7.79-.57-15.54-1.64-23.31-2.46-4.81-.51-9.63-.93-15.07-1.46.34,4.78.7,9.12,1,13.46.7,11.64,1.48,23.28,2,34.93.63,13.56,1,27.13,1.52,40.69.25,6.86.63,13.71.6,20.56a6.45,6.45,0,0,1-5,6.64c-3.42.86-5.7-.89-7.23-4.06-1.14,1.52-1.89,3.29-3.22,4.09-1,.59-2.73-.09-4.59-.24-1.73,3.16-3.89,1.21-6-.83-3,3.34-5.47,2.78-6.84-1.57a18.64,18.64,0,0,1-.72-4.21c-1-14.69-2-29.37-2.76-44.07-.39-8.1,0-16.24-.23-24.36-.29-9.48-.91-18.95-1.35-28.42-.08-1.91-1-2.51-2.77-2.22-5,.83-10.07,1.61-15.11,2.43-2.56.41-3.51,1.89-3.44,4.5.46,16.82.65,33.65,1.29,50.46.29,7.57,1.82,15.11,2.06,22.68.23,7.25-.47,14.52-.82,21.78a8,8,0,0,1-.73,2.38c-2.35,6-4.4,6.43-8.88,2.1-3.95,5.91-6.49,6.12-9.87.52-2,1.74-4,4.41-5.82,1.75-2.88.18-5.8,1.23-6.94.24A11.63,11.63,0,0,1,12,211.59c-.49-3.63.15-7.39,0-11.08-.49-14.31-.93-28.62-1.71-42.91-.71-12.93-2.37-25.82-2.66-38.74-.34-15.12.6-30.27.5-45.4C8,61.21,7.27,49,6.66,36.72a4.81,4.81,0,0,0-1.84-3C1.11,30.81-1,24.69.5,20.45a3.19,3.19,0,0,1,1.56-1.74,8.39,8.39,0,0,1,10.13,3.51c.44.68.92,1.33,1.68,2.42A49.92,49.92,0,0,1,30.13,7C40.18.47,50.62-3,62.41,3.4c7.35,4,15.1,7.28,22.81,10.58,3.88,1.67,8.08,2.59,12.11,3.94,5.83,2,11.55,4.34,17.48,5.94,10.59,2.86,21.23,5.59,32,7.77a130,130,0,0,0,21.72,2.6c13.43.42,26.31-3.29,39.22-6.45,11.5-2.81,22.92-6,34.51-8.41q19.86-4.11,40-7c13.82-2,27.75-3,41.66-.51,5.37,1,10.83,1.63,16,3.2C351,18.46,356.52,26.93,357.94,38c1.23,9.53,1.75,19.16,2.27,28.76.2,3.74-.75,7.53-.65,11.29q.36,13.92,1.25,27.82.9,14.3,2.31,28.55a66,66,0,0,0,2.06,9.66c.58,2.27,1.08,5.41,4,5.13a14.09,14.09,0,0,0,7.79-3.31c2.45-2.28,3.91-5.62,5.8-8.5.33-.49.58-1.19,1-1.42,2.39-1.16,4.93-3.16,7.23-2.93,1.39.14,2.75,3.68,3.56,5.9a24.64,24.64,0,0,1,.61,15.42c-2.4,8.51-13.84,15.35-22.45,13.35-2.3-.53-4.62-1-6.91-1.58-5.19-1.3-9.2-3.87-11.7-9a102.23,102.23,0,0,1-9-30.18c-2-13.84-3.68-27.76-6-41.56-.82-5-3-9.75-4.54-14.61ZM91.47,201.11l1,.1c.34,2.28.68,4.57,1,6.85.39,2.65,1.36,5.12,4.32,5.36,3.18.26,4.12-2.28,4.58-4.9a13.28,13.28,0,0,0,.17-2.82c-.62-12-1.3-24-1.9-36-.44-9-.69-18-1.21-27-.81-14.22-1.67-28.44-2.76-42.63-.21-2.65.31-3.63,2.87-3.36q9.15,1,18.29,2c6.5.74,13,1.86,19.5,2.23,5.82.32,11.69-.15,17.54-.26,3.68-.08,7.35-.14,11-.23,13.05-.32,26.21,1.07,39-3.18,11.44-3.8,23-7.31,34.55-10.76,5.69-1.69,11.8-3.54,17.35-.69,7,3.59,13.35,8.41,20.15,12.41s13.71,7.94,20.83,11.34c5,2.38,8.8,5.27,10.11,10.87,2,8.65,4.37,17.24,6.14,25.94,1.24,6.13,2.47,12.33-.09,18.61-3.62,8.89-8.51,16.71-16.49,22.36-2.06,1.45-3.87,3.25-6.21,5.25,4.62,0,8.52,0,12.41,0a7.37,7.37,0,0,1,2,.63c-.5.57-.89,1.42-1.51,1.64-1.33.46-2.81.48-4.16.88-2.05.61-3.27,1.59-2.31,4.17,1.55,4.17,3.42,5.4,8.68,4,5.59-1.44,11-3.47,16.55-5.14,4.52-1.37,9.08-2.6,13.63-3.89,2.1-.6,3.19-1.87,2.9-4.18s-.91-5-.6-7.37a64.93,64.93,0,0,0-2-24.37c-2.59-10.24-1-20.6-2.48-30.82-.95-6.74-.8-13.64-1.22-20.45-.34-5.42-.8-10.83-1.18-16.24-.4-5.78-.74-11.56-1.18-17.34-.27-3.57-.68-7.14-1-10.54,3.85-1.38,5.56,0,6.43,2.82,1.61,5.16,3.46,10.28,4.68,15.54,1.48,6.35,2.56,12.81,3.52,19.26,1.27,8.55,1.8,17.24,3.5,25.69,1.85,9.14,4.55,18.11,7.2,27.07a11.91,11.91,0,0,0,3.94,5.68c5.44,4.21,12.17,5.81,18.69,5.78a16.88,16.88,0,0,0,14.85-9.14c2.93-6,1.33-13.06-1.26-19.36-.29-.7-2.51-1.46-3-1.09a34.89,34.89,0,0,0-5.57,5.23c-2.59,3-4.62,6.53-7.52,9.13-3.77,3.39-9.57,2.76-10.66-.88-1.74-5.78-3.58-11.66-4.16-17.61-1.4-14.24-2.21-28.54-3-42.82a203.45,203.45,0,0,1,.25-23.42c.51-8.88-1.1-17.93-2.21-26.85C354,27.36,347.74,20,336.64,17.06a77.39,77.39,0,0,0-12.52-2.27c-7.83-.69-15.75-1.76-23.53-1.24-12.7.86-25.32,2.82-38,4.43-5.43.7-10.88,1.4-16.21,2.58-8.58,1.91-17,4.29-25.6,6.34-12.78,3.07-25.54,6.26-38.39,9-12.68,2.68-25.3,1.28-37.88-1.37-14.64-3.08-29.07-6.78-43-12.31-4.38-1.73-9.28-2.18-13.6-4-9.58-4.06-19-8.55-28.39-13C54.49,2.72,49.36,2,44,3.65a3.5,3.5,0,0,0-2.13,2.24c-.47,3.76-.61,7.57-.88,11.47,3.12.9,5.8,2.34,5.06,5.61-.52,2.33-2.34,4.37-3.33,6.11.49.32,2.35.89,2.62,1.89.39,1.38.09,3.65-.85,4.52a14.38,14.38,0,0,1-5.87,2.93c-3,.82-5.32-.42-6.51-3.48s.46-4.55,3.33-5.3c-2.28-1.21-4.47-1.95-6.1-3.34-2.72-2.32-2.4-3.79.55-5.61,1-.6,2.49-1.37,2.56-2.16.29-3.24.12-6.52.12-10.25-7.32,5.41-13.8,10.87-17.3,19.38,4,2.28,3.94,5.1,1.53,8.75a8.26,8.26,0,0,0-.67,5.84C17.5,48,19,53.84,24.47,57.49a9.59,9.59,0,0,1,2.69,2.84c1.4,2.28.26,5.64-1.72,5.29-5.88-1-11.58-2.69-13.83-9.09a39.09,39.09,0,0,1-2-9.68,25.19,25.19,0,0,1,4.21-16.56,5.52,5.52,0,0,0-4.6,5.81C9.24,44,7.53,52,10,59.78c3.1,9.6,10,14.81,19.84,16.82-3.58-10.7-3-13.81,2.4-13.78-.84,7.44-.42,9.06,2.91,10.83.59-2.38,1.17-4.73,1.86-7.5a15.71,15.71,0,0,1-2.55-2.22c-1.93-2.47-1.61-5,1.09-5.67,4.75-1.17,9.67-1.68,14.16-2.41,3.22,4.63-.39,6.38-2.54,8.19.61,2.43,1.13,4.49,1.64,6.55,1.93-4.68,6.28-8.09,6.66-13.53a14.87,14.87,0,0,1,1.43-4.36c1.16-2.85,2.51-5.64,3.6-8.52A13.73,13.73,0,0,0,60.25,33a17.73,17.73,0,0,0-.48,3.18,9.12,9.12,0,0,1-8,7.48c-3.08.25-4.78-1.12-4.21-4.1.39-2.1,1.2-4.72,2.74-5.87,2.32-1.73,5.45-2.38,8.7-3.67l-9.79-5.19a9.6,9.6,0,0,1,4-1.47c1.25-.24,2.5-.52,3.22-.67.22-1.4,0-3.06.71-3.73a13.56,13.56,0,0,1,4.85-2.79c1.43-.5,3.33-.89,4.61-.34,3.54,1.51,4.33,4,2.37,7.59a13.11,13.11,0,0,0-1.31,9.13c1.65,9.35,3.25,18.71.75,28.26-2,7.64-4.29,14.79-12.07,18.75-8.28,4.22-16.78,2.57-24.9.53-7.88-2-16-4.61-20.75-13.1-.39,12.81-.78,24.78-1.09,36.75-.12,4.64-.32,9.31,0,13.93.83,12.13,2.13,24.23,2.83,36.36.56,9.51.42,19.06.77,28.59.12,3.18,1.09,6.35,1.12,9.53,0,6.29-.32,12.6-.41,18.9a6.09,6.09,0,0,0,.75,3.41c.7,1,2,1.6,3.07,2.36.6-.9,1.54-1.75,1.72-2.73.31-1.62,0-3.34.19-5a11.51,11.51,0,0,1,1.07-2.75l.95.22c.07,1.26.16,2.51.22,3.77.09,2.33-.47,5.12,2.57,5.77.38.08,1.62-3.54,2.37-5.48.44-1.16.7-2.41,1-3.62a82.34,82.34,0,0,1,2.57,9,2.89,2.89,0,0,0,2.13,1.76,3.52,3.52,0,0,0,2.68-1.59,42.77,42.77,0,0,0,1.58-6.11c.29-1.2.62-2.39.93-3.58l1.09.18c.1,1.83-.12,3.76.41,5.46S41.1,215,42,216.46c1-1.32,2.05-2.58,2.9-4a4.69,4.69,0,0,0,.53-2.41c-.09-9.63,0-19.26-.41-28.89-.31-8.07-1.31-16.12-1.66-24.2s-.29-16.35-.42-24.53c-.11-6.44-.31-12.87-.33-19.31,0-1.49-.41-3.3,2.27-3.6,6.47-.73,12.91-1.78,19.35-2.78,4.64-.72,4.63-.78,4.25,3.9a7.69,7.69,0,0,0,0,1.07c.31,4.56.78,9.12.88,13.69.17,7.84-.11,15.69.2,23.52.37,9.63,1.22,19.24,1.71,28.86.53,10.51.82,21,1.41,31.54.09,1.73,1.19,3.41,1.83,5.11l1.82-.35c0-1.93-.06-3.86,0-5.79.08-1.75.3-3.48.45-5.22l1.16,0c1.1,3.81-.54,8.77,4.11,11.18,3.21-3.33-1.5-8.34,3.49-12.07a53.25,53.25,0,0,0,.06,6.46,35.51,35.51,0,0,0,1.39,5H88.8ZM264.71,93.59l-.86.5c1.27,8.56,2.9,17.09,3.73,25.69.92,9.53.79,19.17,1.77,28.69a18.93,18.93,0,0,1-2.07,11.09,223.35,223.35,0,0,1-13.36,20.76c-3.61,5.12-7.91,9.76-11.65,14.81-1.16,1.56-1.83,2.52-4.11,2.3-1.53-.15-3.22,1.34-4.83,2.09,1,1.69,1.76,3.64,3.11,5,.73.73,2.49.62,3.76.56A144,144,0,0,0,255.49,204a11.94,11.94,0,0,0,6.63-3.46,100.43,100.43,0,0,0,8.69-11.85c6.19-9.41,11.95-19.11,18.44-28.3,3.66-5.2,4.42-10.89,4.95-16.78.24-2.67.51-5.53-.19-8-.81-2.92-2.57-5.6-4.1-8.28-3.63-6.37-8.41-12.32-10.78-19.12C276.46,100.45,270.21,97.7,264.71,93.59ZM47.92,79.24c12.28-.55,18.2-9.31,19.13-27.89-2.27,4.57-3.47,9.58-9.3,10.22C58.47,69.76,54,74.84,47.92,79.24ZM26.05,63c-9.22-8.87-16.14-17.71-9.95-31.1-3.42,4.47-4.23,7.37-4.28,14.55C11.74,56.32,15.29,60.72,26.05,63Zm3.44-40.33c2.77,3.84,9,5.27,12.32,3.5A4.05,4.05,0,0,0,43.73,23c-.16-1-1.84-2.65-2.7-2.56C37.38,20.79,33.8,21.73,29.49,22.62Zm35.25,16L57.42,58.39C63.34,58.71,67.36,46.38,64.74,38.65ZM46.93,74.54c-.84-2.94-1.1-5.43-2.33-7.28-.4-.6-4-.11-4.94.95-1.22,1.41-1.23,3.86-1.89,6.33ZM294.72,196.2c-.63,0-2-.29-2.65.23a54.72,54.72,0,0,0-4.91,4.62c1.45,1,2.79,2.32,4.39,2.87s3.44.27,5,.35C295.94,201.52,295.36,199,294.72,196.2ZM38.92,5.19c-1.51.9-3.25,1.42-3.3,2.06-.26,3.68-.12,7.4-.12,11.25l3.42-.93ZM287.83,194.42c-3.05,1.25-5.68,2.19-8.11,3.49-.38.2-.28,2.51.32,3.06a21.56,21.56,0,0,0,4.16,2.63ZM34.27,31.89l-.65,1.6c1.11,1,2.24,2.81,3.32,2.77,2-.06,3.93-1.18,5.83-2,.08,0-.43-2.24-.76-2.26C39.44,31.8,36.85,31.89,34.27,31.89ZM224.78,199.33l-.4,1.52,7.91,4.15c-.78-3.11-1.28-5.09-1.89-7.48ZM56.19,65.46l-1.26-.62L50,74.61l.67.35Z"/><path class="cls-2" d="M264.71,93.59c5.5,4.11,11.75,6.86,14.42,14.56,2.37,6.8,7.15,12.75,10.78,19.12,1.53,2.68,3.29,5.36,4.1,8.28.7,2.51.43,5.37.19,8-.53,5.89-1.29,11.58-4.95,16.78-6.49,9.19-12.25,18.89-18.44,28.3a100.43,100.43,0,0,1-8.69,11.85,11.94,11.94,0,0,1-6.63,3.46,144,144,0,0,1-15.29,1.08c-1.27.06-3,.17-3.76-.56-1.35-1.34-2.11-3.29-3.11-5,1.61-.75,3.3-2.24,4.83-2.09,2.28.22,3-.74,4.11-2.3,3.74-5,8-9.69,11.65-14.81a223.35,223.35,0,0,0,13.36-20.76,18.93,18.93,0,0,0,2.07-11.09c-1-9.52-.85-19.16-1.77-28.69-.83-8.6-2.46-17.13-3.73-25.69Z"/><path class="cls-2" d="M47.92,79.24c6-4.4,10.55-9.48,9.83-17.67,5.83-.64,7-5.65,9.3-10.22C66.12,69.93,60.2,78.69,47.92,79.24Z"/><path class="cls-3" d="M26.05,63C15.29,60.72,11.74,56.32,11.82,46.4c0-7.18.86-10.08,4.28-14.55C9.91,45.24,16.83,54.08,26.05,63Z"/><path class="cls-3" d="M29.49,22.62c4.31-.89,7.89-1.83,11.54-2.23.86-.09,2.54,1.54,2.7,2.56a4.05,4.05,0,0,1-1.92,3.17C38.47,27.89,32.26,26.46,29.49,22.62Z"/><path class="cls-2" d="M68.83,41c2.62,7.73-1.4,20.06-7.32,19.74Z"/><path class="cls-2" d="M46.93,74.54H37.77c.66-2.47.67-4.92,1.89-6.33.91-1.06,4.54-1.55,4.94-.95C45.83,69.11,46.09,71.6,46.93,74.54Z"/><path class="cls-2" d="M294.72,196.2c.64,2.79,1.22,5.32,1.84,8.07-1.57-.08-3.43.18-5-.35s-2.94-1.89-4.39-2.87a54.72,54.72,0,0,1,4.91-4.62C292.77,195.91,294.09,196.23,294.72,196.2Z"/><path d="M38.92,5.19V17.57l-3.42.93c0-3.85-.14-7.57.12-11.25C35.67,6.61,37.41,6.09,38.92,5.19Z"/><path class="cls-2" d="M287.83,194.42l-3.63,9.18A21.56,21.56,0,0,1,280,201c-.6-.55-.7-2.86-.32-3.06C282.15,196.61,284.78,195.67,287.83,194.42Z"/><path class="cls-4" d="M34.27,31.89c2.58,0,5.17-.09,7.74.11.33,0,.84,2.22.76,2.26-1.9.82-3.86,1.94-5.83,2-1.08,0-2.21-1.78-3.32-2.77Z"/><path class="cls-2" d="M224.78,199.33l5.62-1.81c.61,2.39,1.11,4.37,1.89,7.48l-7.91-4.15Z"/><path class="cls-2" d="M56.19,65.46,50.67,75,50,74.61l4.93-9.77Z"/><path d="M27.71,46.76c-2.06-.59-4.15-.83-5.83-1.8a4.76,4.76,0,0,1-2.14-3.52c0-1.21,1.28-3.31,2.19-3.42,3.3-.39,6.83-.72,10,.09s2.82,5.71-.19,7.44A18.33,18.33,0,0,1,27.71,46.76Z"/><path d="M26.63,36.91c.93.14,2.21.36,3.5.54,2.35.35,3.68,1.74,3.56,4.07s-1.44,4.16-3.94,4.27a16.08,16.08,0,0,1-6.63-.71A6.54,6.54,0,0,1,19.62,41c-.48-2.63,2-3.43,4.15-4A15.64,15.64,0,0,1,26.63,36.91Z"/><path class="cls-2" d="M26.7,38.61c-2.41,0-4.38,0-5.18,1.33a2.93,2.93,0,0,0,0,2.76c1.51,3,8.65,3.47,10.33.78a3.47,3.47,0,0,0-.31-3.79C30.6,38.59,29.14,38.6,26.7,38.61Z"/><path class="cls-2" d="M57.75,33.39c-1.06-1.09-3.18-.79-4.48,0-.44.25-.42.34-2.43,2.73-1.41,1.66-1.62,1.85-1.75,2.39a3.18,3.18,0,0,0,1.35,3.46c1,.47,2.17-.27,3.8-1.34s4.12-2.7,4.18-5.13A2.87,2.87,0,0,0,57.75,33.39Z"/><ellipse cx="27.01" cy="41.72" rx="4.13" ry="2.76" transform="translate(-14.95 68.34) rotate(-89.47)"/><ellipse cx="53.58" cy="37.48" rx="2.76" ry="4.13" transform="translate(-11.51 31.21) rotate(-29.47)"/><path class="cls-5" d="M64.74,38.65c2.62,7.73-1.4,20.06-7.32,19.74Z"/><path class="cls-2" d="M91.47,201.11,88.8,213.73H87.07a35.51,35.51,0,0,1-1.39-5,53.25,53.25,0,0,1-.06-6.46c-5,3.73-.28,8.74-3.49,12.07-4.65-2.41-3-7.37-4.11-11.18l-1.16,0c-.15,1.74-.37,3.47-.45,5.22-.07,1.93,0,3.86,0,5.79l-1.82.35c-.64-1.7-1.74-3.38-1.83-5.11-.59-10.5-.88-21-1.41-31.54-.49-9.62-1.34-19.23-1.71-28.86-.31-7.83,0-15.68-.2-23.52-.1-4.57-.57-9.13-.88-13.69a7.69,7.69,0,0,1,0-1.07c.38-4.68.39-4.62-4.25-3.9-6.44,1-12.88,2-19.35,2.78-2.68.3-2.27,2.11-2.27,3.6,0,6.44.22,12.87.33,19.31.13,8.18.06,16.36.42,24.53s1.35,16.13,1.66,24.2c.37,9.63.32,19.26.41,28.89a4.69,4.69,0,0,1-.53,2.41c-.85,1.4-1.92,2.66-2.9,4-.94-1.43-2.24-2.75-2.73-4.32s-.31-3.63-.41-5.46l-1.09-.18c-.31,1.19-.64,2.38-.93,3.58a42.77,42.77,0,0,1-1.58,6.11,3.52,3.52,0,0,1-2.68,1.59A2.89,2.89,0,0,1,30.49,216a82.34,82.34,0,0,0-2.57-9c-.34,1.21-.6,2.46-1,3.62-.75,1.94-2,5.56-2.37,5.48-3-.65-2.48-3.44-2.57-5.77-.06-1.26-.15-2.51-.22-3.77l-.95-.22a11.51,11.51,0,0,0-1.07,2.75c-.19,1.66.12,3.38-.19,5-.18,1-1.12,1.83-1.72,2.73-1.05-.76-2.37-1.35-3.07-2.36a6.09,6.09,0,0,1-.75-3.41c.09-6.3.46-12.61.41-18.9,0-3.18-1-6.35-1.12-9.53-.35-9.53-.21-19.08-.77-28.59-.7-12.13-2-24.23-2.83-36.36-.32-4.62-.12-9.29,0-13.93.31-12,.7-23.94,1.09-36.75,4.77,8.49,12.87,11.11,20.75,13.1,8.12,2,16.62,3.69,24.9-.53,7.78-4,10.07-11.11,12.07-18.75,2.5-9.55.9-18.91-.75-28.26A13.11,13.11,0,0,1,69,23.46c2-3.62,1.17-6.08-2.37-7.59-1.28-.55-3.18-.16-4.61.34A13.56,13.56,0,0,0,57.2,19c-.71.67-.49,2.33-.71,3.73-.72.15-2,.43-3.22.67a9.6,9.6,0,0,0-4,1.47l9.79,5.19c-3.25,1.29-6.38,1.94-8.7,3.67C48.81,34.88,48,37.5,47.61,39.6c-.57,3,1.13,4.35,4.21,4.1a9.12,9.12,0,0,0,8-7.48A17.73,17.73,0,0,1,60.25,33a13.73,13.73,0,0,1,.29,11.14c-1.09,2.88-2.44,5.67-3.6,8.52a14.87,14.87,0,0,0-1.43,4.36c-.38,5.44-4.73,8.85-6.66,13.53-.51-2.06-1-4.12-1.64-6.55,2.15-1.81,5.76-3.56,2.54-8.19-4.49.73-9.41,1.24-14.16,2.41-2.7.66-3,3.2-1.09,5.67a15.71,15.71,0,0,0,2.55,2.22c-.69,2.77-1.27,5.12-1.86,7.5-3.33-1.77-3.75-3.39-2.91-10.83-5.42,0-6,3.08-2.4,13.78-9.81-2-16.74-7.22-19.84-16.82C7.53,52,9.24,44,9.19,36.1a5.52,5.52,0,0,1,4.6-5.81A25.19,25.19,0,0,0,9.58,46.85a39.09,39.09,0,0,0,2,9.68c2.25,6.4,8,8.07,13.83,9.09,2,.35,3.12-3,1.72-5.29a9.59,9.59,0,0,0-2.69-2.84C19,53.84,17.5,48,16.14,42.25a8.26,8.26,0,0,1,.67-5.84c2.41-3.65,2.52-6.47-1.53-8.75,3.5-8.51,10-14,17.3-19.38,0,3.73.17,7-.12,10.25-.07.79-1.59,1.56-2.56,2.16C27,22.51,26.63,24,29.35,26.3c1.63,1.39,3.82,2.13,6.1,3.34-2.87.75-4.53,2.2-3.33,5.3s3.48,4.3,6.51,3.48a14.38,14.38,0,0,0,5.87-2.93c.94-.87,1.24-3.14.85-4.52-.27-1-2.13-1.57-2.62-1.89,1-1.74,2.81-3.78,3.33-6.11.74-3.27-1.94-4.71-5.06-5.61.27-3.9.41-7.71.88-11.47A3.5,3.5,0,0,1,44,3.65C49.36,2,54.49,2.72,59.55,5.14c9.4,4.48,18.81,9,28.39,13,4.32,1.84,9.22,2.29,13.6,4,13.94,5.53,28.37,9.23,43,12.31,12.58,2.65,25.2,4,37.88,1.37,12.85-2.71,25.61-5.9,38.39-9,8.55-2,17-4.43,25.6-6.34,5.33-1.18,10.78-1.88,16.21-2.58,12.64-1.61,25.26-3.57,38-4.43,7.78-.52,15.7.55,23.53,1.24a77.39,77.39,0,0,1,12.52,2.27C347.74,20,354,27.36,355.42,38.63c1.11,8.92,2.72,18,2.21,26.85a203.45,203.45,0,0,0-.25,23.42c.82,14.28,1.63,28.58,3,42.82.58,5.95,2.42,11.83,4.16,17.61,1.09,3.64,6.89,4.27,10.66.88,2.9-2.6,4.93-6.15,7.52-9.13a34.89,34.89,0,0,1,5.57-5.23c.51-.37,2.73.39,3,1.09,2.59,6.3,4.19,13.33,1.26,19.36a16.88,16.88,0,0,1-14.85,9.14c-6.52,0-13.25-1.57-18.69-5.78a11.91,11.91,0,0,1-3.94-5.68c-2.65-9-5.35-17.93-7.2-27.07-1.7-8.45-2.23-17.14-3.5-25.69-1-6.45-2-12.91-3.52-19.26-1.22-5.26-3.07-10.38-4.68-15.54-.87-2.82-2.58-4.2-6.43-2.82.33,3.4.74,7,1,10.54.44,5.78.78,11.56,1.18,17.34.38,5.41.84,10.82,1.18,16.24.42,6.81.27,13.71,1.22,20.45,1.45,10.22-.11,20.58,2.48,30.82a64.93,64.93,0,0,1,2,24.37c-.31,2.39.31,4.92.6,7.37s-.8,3.58-2.9,4.18c-4.55,1.29-9.11,2.52-13.63,3.89-5.53,1.67-11,3.7-16.55,5.14-5.26,1.37-7.13.14-8.68-4-1-2.58.26-3.56,2.31-4.17,1.35-.4,2.83-.42,4.16-.88.62-.22,1-1.07,1.51-1.64a7.37,7.37,0,0,0-2-.63c-3.89-.06-7.79,0-12.41,0,2.34-2,4.15-3.8,6.21-5.25,8-5.65,12.87-13.47,16.49-22.36,2.56-6.28,1.33-12.48.09-18.61-1.77-8.7-4.12-17.29-6.14-25.94-1.31-5.6-5.13-8.49-10.11-10.87-7.12-3.4-14-7.34-20.83-11.34s-13.15-8.82-20.15-12.41c-5.55-2.85-11.66-1-17.35.69-11.56,3.45-23.11,7-34.55,10.76-12.78,4.25-25.94,2.86-39,3.18-3.67.09-7.34.15-11,.23-5.85.11-11.72.58-17.54.26-6.52-.37-13-1.49-19.5-2.23q-9.13-1-18.29-2c-2.56-.27-3.08.71-2.87,3.36,1.09,14.19,2,28.41,2.76,42.63.52,9,.77,18,1.21,27,.6,12,1.28,24,1.9,36a13.28,13.28,0,0,1-.17,2.82c-.46,2.62-1.4,5.16-4.58,4.9-3-.24-3.93-2.71-4.32-5.36-.33-2.28-.67-4.57-1-6.85ZM27.71,46.76a18.33,18.33,0,0,0,4-1.21c3-1.73,3.23-6.65.19-7.44s-6.68-.48-10-.09c-.91.11-2.18,2.21-2.19,3.42A4.76,4.76,0,0,0,21.88,45C23.56,45.93,25.65,46.17,27.71,46.76Z"/><path d="M333.59,70.85c.3,6.64.52,13.28.92,19.91.3,4.87.89,9.72,1.27,14.58.55,6.89,1.16,13.77,1.47,20.66.23,5.19-.34,10.43.12,15.59.62,7,1.89,14,2.86,21a80.63,80.63,0,0,1,1.07,8.73c.22,7.25.31,14.52.14,21.77a4.78,4.78,0,0,1-2.56,3.39c-3.34,1.45-6.89,2.44-10.38,3.56-6.07,1.94-12.22,3.66-18.22,5.8-6.18,2.21-12.46,1.09-18.71,1.09-2.12,0-4.25-.39-6.38-.46-3.85-.13-7.67-3-8.12-6.21s1.78-5.72,6.19-7c9.08-2.68,15.22-9.32,21-16.23a59.34,59.34,0,0,0,7-11.48c3.32-6.66,1.33-13.54-.05-20.23-1.6-7.77-3.74-15.42-5.54-23.15-1.12-4.85-4.31-7.78-8.58-9.81l-16.49-7.85c.85,1.67,1.68,3.43,2.63,5.14,3.57,6.43,7.35,12.75,10.73,19.28,2.73,5.27,3,11,2.93,16.94C296.65,157,289,164.34,284.1,173a233.9,233.9,0,0,1-13.79,20.79,74.54,74.54,0,0,1-10.19,11.66c-1.56,1.41-4.67,1.54-7.07,1.54-7.57,0-15.14-.37-22.7-.62a4.84,4.84,0,0,1-1.75-.29c-2.74-1.23-5.66-2.49-5.89-6-.15-2.33,3.35-4.8,7.21-4.48,7.09.61,11.65-2.34,15.47-8.18,4.28-6.54,9.5-12.47,14.26-18.71a35.68,35.68,0,0,0,7.18-25.53c-1.4-15.75-3.28-31.45-4.89-47.18-.55-5.34-3.76-8.79-9.63-8.53a77.49,77.49,0,0,0-16.79,2.56c-9.15,2.47-18.13,5.6-27.14,8.55-11,3.6-22.37,4.52-33.84,4.42-8.93-.07-17.86-.51-26.79-.59-3.42,0-6.89.92-10.28.67-7.79-.57-15.54-1.64-23.31-2.46-4.81-.51-9.63-.93-15.07-1.46.34,4.78.7,9.12,1,13.46.7,11.64,1.48,23.28,2,34.93.63,13.56,1,27.13,1.52,40.69.25,6.86.63,13.71.6,20.56a6.45,6.45,0,0,1-5,6.64c-3.42.86-5.7-.89-7.23-4.06-1.14,1.52-1.89,3.29-3.22,4.09-1,.59-2.73-.09-4.59-.24-1.73,3.16-3.89,1.21-6-.83-3,3.34-5.47,2.78-6.84-1.57a18.64,18.64,0,0,1-.72-4.21c-1-14.69-2-29.37-2.76-44.07-.39-8.1,0-16.24-.23-24.36-.29-9.48-.91-18.95-1.35-28.42-.08-1.91-1-2.51-2.77-2.22-5,.83-10.07,1.61-15.11,2.43-2.56.41-3.51,1.89-3.44,4.5.46,16.82.65,33.65,1.29,50.46.29,7.57,1.82,15.11,2.06,22.68.23,7.25-.47,14.52-.82,21.78a8,8,0,0,1-.73,2.38c-2.35,6-4.4,6.43-8.88,2.1-3.95,5.91-6.49,6.12-9.87.52-2,1.74-4,4.41-5.82,1.75-2.88.18-5.8,1.23-6.94.24A11.63,11.63,0,0,1,12,211.59c-.49-3.63.15-7.39,0-11.08-.49-14.31-.93-28.62-1.71-42.91-.71-12.93-2.37-25.82-2.66-38.74-.34-15.12.6-30.27.5-45.4C8,61.21,7.27,49,6.66,36.72a4.81,4.81,0,0,0-1.84-3C1.11,30.81-1,24.69.5,20.45a3.19,3.19,0,0,1,1.56-1.74,8.39,8.39,0,0,1,10.13,3.51c.44.68.92,1.33,1.68,2.42A49.92,49.92,0,0,1,30.13,7C40.18.47,50.62-3,62.41,3.4c7.35,4,15.1,7.28,22.81,10.58,3.88,1.67,8.08,2.59,12.11,3.94,5.83,2,11.55,4.34,17.48,5.94,10.59,2.86,21.23,5.59,32,7.77a130,130,0,0,0,21.72,2.6c13.43.42,26.31-3.29,39.22-6.45,11.5-2.81,22.92-6,34.51-8.41q19.86-4.11,40-7c13.82-2,27.75-3,41.66-.51,5.37,1,10.83,1.63,16,3.2C351,18.46,356.52,26.93,357.94,38c1.23,9.53,1.75,19.16,2.27,28.76.2,3.74-.75,7.53-.65,11.29q.36,13.92,1.25,27.82.9,14.3,2.31,28.55a66,66,0,0,0,2.06,9.66c.58,2.27,1.08,5.41,4,5.13a14.09,14.09,0,0,0,7.79-3.31c2.45-2.28,3.91-5.62,5.8-8.5.33-.49.58-1.19,1-1.42,2.39-1.16,4.93-3.16,7.23-2.93,1.39.14,2.75,3.68,3.56,5.9a24.64,24.64,0,0,1,.61,15.42c-2.4,8.51-13.84,15.35-22.45,13.35-2.3-.53-4.62-1-6.91-1.58-5.19-1.3-9.2-3.87-11.7-9a102.23,102.23,0,0,1-9-30.18c-2-13.84-3.68-27.76-6-41.56-.82-5-3-9.75-4.54-14.61ZM91.47,201.11l1,.1c.34,2.28.68,4.57,1,6.85.39,2.65,1.36,5.12,4.32,5.36,3.18.26,4.12-2.28,4.58-4.9a13.28,13.28,0,0,0,.17-2.82c-.62-12-1.3-24-1.9-36-.44-9-.69-18-1.21-27-.81-14.22-1.67-28.44-2.76-42.63-.21-2.65.31-3.63,2.87-3.36q9.15,1,18.29,2c6.5.74,13,1.86,19.5,2.23,5.82.32,11.69-.15,17.54-.26,3.68-.08,7.35-.14,11-.23,13.05-.32,26.21,1.07,39-3.18,11.44-3.8,23-7.31,34.55-10.76,5.69-1.69,11.8-3.54,17.35-.69,7,3.59,13.35,8.41,20.15,12.41s13.71,7.94,20.83,11.34c5,2.38,8.8,5.27,10.11,10.87,2,8.65,4.37,17.24,6.14,25.94,1.24,6.13,2.47,12.33-.09,18.61-3.62,8.89-8.51,16.71-16.49,22.36-2.06,1.45-3.87,3.25-6.21,5.25,4.62,0,8.52,0,12.41,0a7.37,7.37,0,0,1,2,.63c-.5.57-.89,1.42-1.51,1.64-1.33.46-2.81.48-4.16.88-2.05.61-3.27,1.59-2.31,4.17,1.55,4.17,3.42,5.4,8.68,4,5.59-1.44,11-3.47,16.55-5.14,4.52-1.37,9.08-2.6,13.63-3.89,2.1-.6,3.19-1.87,2.9-4.18s-.91-5-.6-7.37a64.93,64.93,0,0,0-2-24.37c-2.59-10.24-1-20.6-2.48-30.82-.95-6.74-.8-13.64-1.22-20.45-.34-5.42-.8-10.83-1.18-16.24-.4-5.78-.74-11.56-1.18-17.34-.27-3.57-.68-7.14-1-10.54,3.85-1.38,5.56,0,6.43,2.82,1.61,5.16,3.46,10.28,4.68,15.54,1.48,6.35,2.56,12.81,3.52,19.26,1.27,8.55,1.8,17.24,3.5,25.69,1.85,9.14,4.55,18.11,7.2,27.07a11.91,11.91,0,0,0,3.94,5.68c5.44,4.21,12.17,5.81,18.69,5.78a16.88,16.88,0,0,0,14.85-9.14c2.93-6,1.33-13.06-1.26-19.36-.29-.7-2.51-1.46-3-1.09a34.89,34.89,0,0,0-5.57,5.23c-2.59,3-4.62,6.53-7.52,9.13-3.77,3.39-9.57,2.76-10.66-.88-1.74-5.78-3.58-11.66-4.16-17.61-1.4-14.24-2.21-28.54-3-42.82a203.45,203.45,0,0,1,.25-23.42c.51-8.88-1.1-17.93-2.21-26.85C354,27.36,347.74,20,336.64,17.06a77.39,77.39,0,0,0-12.52-2.27c-7.83-.69-15.75-1.76-23.53-1.24-12.7.86-25.32,2.82-38,4.43-5.43.7-10.88,1.4-16.21,2.58-8.58,1.91-17,4.29-25.6,6.34-12.78,3.07-25.54,6.26-38.39,9-12.68,2.68-25.3,1.28-37.88-1.37-14.64-3.08-29.07-6.78-43-12.31-4.38-1.73-9.28-2.18-13.6-4-9.58-4.06-19-8.55-28.39-13C54.49,2.72,49.36,2,44,3.65a3.5,3.5,0,0,0-2.13,2.24c-.47,3.76-.61,7.57-.88,11.47,3.12.9,5.8,2.34,5.06,5.61-.52,2.33-2.34,4.37-3.33,6.11.49.32,2.35.89,2.62,1.89.39,1.38.09,3.65-.85,4.52a14.38,14.38,0,0,1-5.87,2.93c-3,.82-5.32-.42-6.51-3.48s.46-4.55,3.33-5.3c-2.28-1.21-4.47-1.95-6.1-3.34-2.72-2.32-2.4-3.79.55-5.61,1-.6,2.49-1.37,2.56-2.16.29-3.24.12-6.52.12-10.25-7.32,5.41-13.8,10.87-17.3,19.38,4,2.28,3.94,5.1,1.53,8.75a8.26,8.26,0,0,0-.67,5.84C17.5,48,19,53.84,24.47,57.49a9.59,9.59,0,0,1,2.69,2.84c1.4,2.28.26,5.64-1.72,5.29-5.88-1-11.58-2.69-13.83-9.09a39.09,39.09,0,0,1-2-9.68,25.19,25.19,0,0,1,4.21-16.56,5.52,5.52,0,0,0-4.6,5.81C9.24,44,7.53,52,10,59.78c3.1,9.6,10,14.81,19.84,16.82-3.58-10.7-3-13.81,2.4-13.78-.84,7.44-.42,9.06,2.91,10.83.59-2.38,1.17-4.73,1.86-7.5a15.71,15.71,0,0,1-2.55-2.22c-1.93-2.47-1.61-5,1.09-5.67,4.75-1.17,9.67-1.68,14.16-2.41,3.22,4.63-.39,6.38-2.54,8.19.61,2.43,1.13,4.49,1.64,6.55,1.93-4.68,6.28-8.09,6.66-13.53a14.87,14.87,0,0,1,1.43-4.36c1.16-2.85,2.51-5.64,3.6-8.52A13.73,13.73,0,0,0,60.25,33a17.73,17.73,0,0,0-.48,3.18,9.12,9.12,0,0,1-8,7.48c-3.08.25-4.78-1.12-4.21-4.1.39-2.1,1.2-4.72,2.74-5.87,2.32-1.73,5.45-2.38,8.7-3.67l-9.79-5.19a9.6,9.6,0,0,1,4-1.47c1.25-.24,2.5-.52,3.22-.67.22-1.4,0-3.06.71-3.73a13.56,13.56,0,0,1,4.85-2.79c1.43-.5,3.33-.89,4.61-.34,3.54,1.51,4.33,4,2.37,7.59a13.11,13.11,0,0,0-1.31,9.13c1.65,9.35,3.25,18.71.75,28.26-2,7.64-4.29,14.79-12.07,18.75-8.28,4.22-16.78,2.57-24.9.53-7.88-2-16-4.61-20.75-13.1-.39,12.81-.78,24.78-1.09,36.75-.12,4.64-.32,9.31,0,13.93.83,12.13,2.13,24.23,2.83,36.36.56,9.51.42,19.06.77,28.59.12,3.18,1.09,6.35,1.12,9.53,0,6.29-.32,12.6-.41,18.9a6.09,6.09,0,0,0,.75,3.41c.7,1,2,1.6,3.07,2.36.6-.9,1.54-1.75,1.72-2.73.31-1.62,0-3.34.19-5a11.51,11.51,0,0,1,1.07-2.75l.95.22c.07,1.26.16,2.51.22,3.77.09,2.33-.47,5.12,2.57,5.77.38.08,1.62-3.54,2.37-5.48.44-1.16.7-2.41,1-3.62a82.34,82.34,0,0,1,2.57,9,2.89,2.89,0,0,0,2.13,1.76,3.52,3.52,0,0,0,2.68-1.59,42.77,42.77,0,0,0,1.58-6.11c.29-1.2.62-2.39.93-3.58l1.09.18c.1,1.83-.12,3.76.41,5.46S41.1,215,42,216.46c1-1.32,2.05-2.58,2.9-4a4.69,4.69,0,0,0,.53-2.41c-.09-9.63,0-19.26-.41-28.89-.31-8.07-1.31-16.12-1.66-24.2s-.29-16.35-.42-24.53c-.11-6.44-.31-12.87-.33-19.31,0-1.49-.41-3.3,2.27-3.6,6.47-.73,12.91-1.78,19.35-2.78,4.64-.72,4.63-.78,4.25,3.9a7.69,7.69,0,0,0,0,1.07c.31,4.56.78,9.12.88,13.69.17,7.84-.11,15.69.2,23.52.37,9.63,1.22,19.24,1.71,28.86.53,10.51.82,21,1.41,31.54.09,1.73,1.19,3.41,1.83,5.11l1.82-.35c0-1.93-.06-3.86,0-5.79.08-1.75.3-3.48.45-5.22l1.16,0c1.1,3.81-.54,8.77,4.11,11.18,3.21-3.33-1.5-8.34,3.49-12.07a53.25,53.25,0,0,0,.06,6.46,35.51,35.51,0,0,0,1.39,5H88.8ZM264.71,93.59l-.86.5c1.27,8.56,2.9,17.09,3.73,25.69.92,9.53.79,19.17,1.77,28.69a18.93,18.93,0,0,1-2.07,11.09,223.35,223.35,0,0,1-13.36,20.76c-3.61,5.12-7.91,9.76-11.65,14.81-1.16,1.56-1.83,2.52-4.11,2.3-1.53-.15-3.22,1.34-4.83,2.09,1,1.69,1.76,3.64,3.11,5,.73.73,2.49.62,3.76.56A144,144,0,0,0,255.49,204a11.94,11.94,0,0,0,6.63-3.46,100.43,100.43,0,0,0,8.69-11.85c6.19-9.41,11.95-19.11,18.44-28.3,3.66-5.2,4.42-10.89,4.95-16.78.24-2.67.51-5.53-.19-8-.81-2.92-2.57-5.6-4.1-8.28-3.63-6.37-8.41-12.32-10.78-19.12C276.46,100.45,270.21,97.7,264.71,93.59ZM47.92,79.24c12.28-.55,18.2-9.31,19.13-27.89-2.27,4.57-3.47,9.58-9.3,10.22C58.47,69.76,54,74.84,47.92,79.24ZM26.05,63c-9.22-8.87-16.14-17.71-9.95-31.1-3.42,4.47-4.23,7.37-4.28,14.55C11.74,56.32,15.29,60.72,26.05,63Zm3.44-40.33c2.77,3.84,9,5.27,12.32,3.5A4.05,4.05,0,0,0,43.73,23c-.16-1-1.84-2.65-2.7-2.56C37.38,20.79,33.8,21.73,29.49,22.62Zm35.25,16L57.42,58.39C63.34,58.71,67.36,46.38,64.74,38.65ZM46.93,74.54c-.84-2.94-1.1-5.43-2.33-7.28-.4-.6-4-.11-4.94.95-1.22,1.41-1.23,3.86-1.89,6.33ZM294.72,196.2c-.63,0-2-.29-2.65.23a54.72,54.72,0,0,0-4.91,4.62c1.45,1,2.79,2.32,4.39,2.87s3.44.27,5,.35C295.94,201.52,295.36,199,294.72,196.2ZM38.92,5.19c-1.51.9-3.25,1.42-3.3,2.06-.26,3.68-.12,7.4-.12,11.25l3.42-.93ZM287.83,194.42c-3.05,1.25-5.68,2.19-8.11,3.49-.38.2-.28,2.51.32,3.06a21.56,21.56,0,0,0,4.16,2.63ZM34.27,31.89l-.65,1.6c1.11,1,2.24,2.81,3.32,2.77,2-.06,3.93-1.18,5.83-2,.08,0-.43-2.24-.76-2.26C39.44,31.8,36.85,31.89,34.27,31.89ZM224.78,199.33l-.4,1.52,7.91,4.15c-.78-3.11-1.28-5.09-1.89-7.48ZM56.19,65.46l-1.26-.62L50,74.61l.67.35Z"/><path d="M26.63,36.91c.93.14,2.21.36,3.5.54,2.35.35,3.68,1.74,3.56,4.07s-1.44,4.16-3.94,4.27a16.08,16.08,0,0,1-6.63-.71A6.54,6.54,0,0,1,19.62,41c-.48-2.63,2-3.43,4.15-4A15.64,15.64,0,0,1,26.63,36.91Z"/><path class="cls-6" d="M26.7,38.61c-2.41,0-4.38,0-5.18,1.33a2.93,2.93,0,0,0,0,2.76c1.51,3,8.65,3.47,10.33.78a3.47,3.47,0,0,0-.31-3.79C30.6,38.59,29.14,38.6,26.7,38.61Z"/><path class="cls-7" d="M57.75,33.39c-1.06-1.09-3.18-.79-4.48,0-.44.25-.42.34-2.43,2.73-1.41,1.66-1.62,1.85-1.75,2.39a3.18,3.18,0,0,0,1.35,3.46c1,.47,2.17-.27,3.8-1.34s4.12-2.7,4.18-5.13A2.87,2.87,0,0,0,57.75,33.39Z"/><ellipse cx="27.01" cy="41.72" rx="4.13" ry="2.76" transform="translate(-14.95 68.34) rotate(-89.47)"/><ellipse cx="53.58" cy="37.48" rx="2.76" ry="4.13" transform="translate(-11.51 31.21) rotate(-29.47)"/><g class="cls-8"><path d="M79.08,9.53a113.58,113.58,0,0,1,9.69,65c5.28-8.54,7.61-18.69,7.76-28.72s-1.78-20-4.51-29.68a45.69,45.69,0,0,1-15.37-9"/><path d="M111.77,22.66a106.17,106.17,0,0,1-9.21,62.27c7.54-4.39,11.81-12.72,14.87-20.89,2.78-7.44,4.91-15.31,4.42-23.24s-3.92-16-10.43-20.55"/><path d="M133.18,24.62a123.31,123.31,0,0,1,.26,68.32,84.69,84.69,0,0,0,15.21-51.4c-.15-4.82-.86-10-4.12-13.55-2.77-3-6.88-4.32-10.8-5.51"/><path d="M110.93,122.24a255.09,255.09,0,0,0,11.41-43.57c-.08,3.5-.32,7-.56,10.49q-1.08,15.72-2.17,31.43a5.86,5.86,0,0,1-.74,3c-.93,1.36-2.81,1.67-4.47,1.67a22.24,22.24,0,0,1-6.77-1.08"/><path d="M142.74,120c-1.05.18-1-1.58-.35-2.44,4.27-6,9.94-11,13.73-17.41,6.15-10.33,6.65-23,5.93-35,1.29,8.64,2.24,17.39,1.59,26.11s-3,17.44-7.76,24.74a9.1,9.1,0,0,1-3.94,3.76c-2.74,1.09-6.18-.27-8.64,1.36-1.76,1.17-3.23,3.81-5.18,3"/><path d="M161.63,29.3c3,4.12,6.56,7.77,9.71,11.75a71.84,71.84,0,0,1,15.32,44.08,80.8,80.8,0,0,0-3.45-47.61c-.87-2.2-1.92-4.47-3.88-5.8A12.19,12.19,0,0,0,175,30.17a111.65,111.65,0,0,0-12.72-2"/><path d="M201.92,120.87a173.46,173.46,0,0,0,2.37-50.69c.87,0,1.35,1,1.64,1.79l3.69,10.36c3.06,8.6,6.16,17.86,3.81,26.68a15.05,15.05,0,0,1-2.81,5.78,11.41,11.41,0,0,1-11.55,3.61"/><path d="M196.79,26.25c1.52,2.81,3.76,5.14,5.83,7.56a80.15,80.15,0,0,1,18.44,41.25c-.71-11,4.77-21.76,3.21-32.62-.75-5.2-3.08-10-5.38-14.75a6.89,6.89,0,0,0-2.55-3.29,6.38,6.38,0,0,0-3.68-.42,54.67,54.67,0,0,0-15,3.6"/><path d="M235.88,111.84a171.68,171.68,0,0,0,2.41-67.24c6.79,10.64,10.49,23,12.28,35.5.88,6.15,1.31,12.44.19,18.55a15.71,15.71,0,0,1-2.06,5.82c-2.55,3.9-7.39,5.49-11.86,6.8a6.66,6.66,0,0,1-3.65.37c-1.2-.34-2.2-1.67-1.72-2.81"/><path d="M239.41,15.92c6.53,7.46,13,15.14,17.65,23.87s7.63,18.69,6.68,28.56a84,84,0,0,0-4.15-47.9,5.57,5.57,0,0,0-1.77-2.7,5.87,5.87,0,0,0-3-.74l-12.93-.82"/><path d="M279.21,16.16a174.56,174.56,0,0,1,3.4,43.57,117.3,117.3,0,0,1-5,30.13,120.23,120.23,0,0,0,21.2-68.11,5.81,5.81,0,0,0-.54-2.95A5.46,5.46,0,0,0,296,16.91a30,30,0,0,0-15.8-3.52"/><path d="M315,8.81A215.41,215.41,0,0,1,300.62,91.1a140,140,0,0,0,29.86-62.19c1-4.95,1.68-10.28-.36-14.9s-7.77-8-12.29-5.7"/><path d="M350.91,20.09c-3.63,15.21-11.1,29.18-18.5,43a92.36,92.36,0,0,0,17.64-17.58c2.66-3.5,5.12-7.27,6.21-11.52s.63-9.09-2.08-12.54c-.75-.95-2.24-1.77-3-.86"/><path d="M296.52,123.05c6.49-2.41,10.57-8.69,14.2-14.58l8.69-14.11a54.64,54.64,0,0,1-17.79,36l-4.82-7"/><path d="M340.5,108.11a68.54,68.54,0,0,1-7.59,11.53,30.83,30.83,0,0,1-3.63,3.86c-4.44,3.83-10.53,5.58-14.43,10a78.17,78.17,0,0,0,17.18-6.3c4.57-2.32,9.37-5.8,9.87-10.9.24-2.48-.61-4.92-1.45-7.27"/><path d="M309.28,149.28a1.06,1.06,0,0,0-1.45,1,57.16,57.16,0,0,0,21.85-4,57.47,57.47,0,0,1-15.85,8.41,7.11,7.11,0,0,1-3,.54,3.71,3.71,0,0,1-2-6.51"/><path d="M343.71,147.9A158.84,158.84,0,0,1,323.21,167l11.3-1.63c3.48-.5,7-1,10.18-2.62a2.11,2.11,0,0,0,1.05-.9,2.17,2.17,0,0,0,.07-1.24l-1.33-10.42a4,4,0,0,0-.61-2,1.37,1.37,0,0,0-1.83-.4"/><path d="M249.47,179.29a44.92,44.92,0,0,0,24.75-1.16c-.18-.86-1.14-1.27-2-1.55l-15.56-5.2a1.48,1.48,0,0,0-.69-.12,1.61,1.61,0,0,0-.92.65l-4.82,5.61"/><path d="M303.76,163.27a76.28,76.28,0,0,1-29.73-.06,39.49,39.49,0,0,0,22.41,10.95A2.6,2.6,0,0,0,298,174a2.52,2.52,0,0,0,.74-.75c2-2.73,3.88-5.89,3.57-9.25"/><path d="M260.75,141.27a74.82,74.82,0,0,0,29.17,2.3c-2.76,3.86-7.64,5.56-12.31,6.37s-9.52,1-13.92,2.72q-1.19-8.07-1.67-16.21"/><path d="M110.19,135q-14.59,3.93-29.5,6.57a41.63,41.63,0,0,0,25.41,10.41c1.57.08,3.39,0,4.33-1.31a5.18,5.18,0,0,0,.57-3.53L110.19,137c0-.34-.12-.77-.46-.84s-.35.68-.06.49"/><path d="M106.15,163.85a152.75,152.75,0,0,1-24.27,1.43c8.07,4.5,16.37,9.09,25.51,10.45a1.73,1.73,0,0,0,1.53-.27,1.67,1.67,0,0,0,.32-1.12,18.43,18.43,0,0,0-3.18-10.79"/><path d="M111.2,186a205.22,205.22,0,0,0-29.11,1.5l6.66,4.34c6,3.9,12.69,8,19.78,7a3.57,3.57,0,0,0,2.54-1.2,3.82,3.82,0,0,0,.43-2.46,41.51,41.51,0,0,0-1.74-9.7"/><path d="M5.45,129.79c-.53.24,0,1,.58,1.25,5.84,2.36,12.42,1.44,18.65.49l12.14-1.85A67.67,67.67,0,0,1,14.9,140.06c-1.87.51-4,.9-5.66-.05-1.83-1-2.54-3.29-2.86-5.36a28,28,0,0,1-.3-4.29"/><path d="M6,163a62,62,0,0,0,32.16-9.09c-1.42,2.18-3.72,3.6-6,4.95L12.53,170.81a3.92,3.92,0,0,1-2.57.81,3.57,3.57,0,0,1-2-1.56c-2.29-3-3.67-7.54-1.08-10.26"/><path d="M8,183.65c-.73.27.27,1.24,1.05,1.24a50.81,50.81,0,0,0,27.78-8.14,67,67,0,0,1-18.25,17,14.9,14.9,0,0,1-5.51,2.41,6,6,0,0,1-5.51-1.77,8.37,8.37,0,0,1-1.42-3.29A64.47,64.47,0,0,1,4.49,182"/><path d="M369.51,77.84c-3.64,4.18-7.35,8.43-12.05,11.36-1.3.82-2.67,1.52-4,2.23l-7.24,3.73a60.61,60.61,0,0,0,11.74.31c2-.13,4-.41,5.57-1.67A9.25,9.25,0,0,0,366,89.43a42.64,42.64,0,0,0,1.86-8"/><path d="M366.55,106.91c-6.95,2.49-11.19,9.75-17.9,12.82,3.21.5,6.52,1,9.66.18s6.09-3.3,6.38-6.53c.16-1.76-.46-3.48-.76-5.22"/><path d="M370.44,125.09l-16.17,14.29a1.76,1.76,0,0,0-.79,1.27c0,1,1.51,1.14,2.51.92l10.06-2.22a4.94,4.94,0,0,0,2.33-1,4.74,4.74,0,0,0,1.11-3.3,61.17,61.17,0,0,0-.11-9.18"/><path d="M376.5,147.65c-.86,4-1.74,8.1-1.44,12.2s1.9,8.29,5.17,10.78A89.87,89.87,0,0,1,382,148.68l-4.56.85"/></g></svg>