<?xml version="1.0" encoding="utf-8"?>
<!-- Generator: Adobe Illustrator 26.0.1, SVG Export Plug-In . SVG Version: 6.00 Build 0)  -->
<svg version="1.1" id="Layer_1" xmlns="http://www.w3.org/2000/svg" xmlns:xlink="http://www.w3.org/1999/xlink" x="0px" y="0px"
	 viewBox="0 0 375.2 278" style="enable-background:new 0 0 375.2 278;" xml:space="preserve">
<style type="text/css">
	.st0{fill:#F6CA0F;}
	.st1{fill:#F19983;}
	.st2{fill:#EBD540;}
	.st3{fill:none;stroke:#A5DCDA;stroke-width:22.6772;stroke-miterlimit:10;}
	.st4{fill:#80A337;}
	.st5{fill:#FFFEFD;}
	.st6{fill:#FFFFFF;}
	.st7{clip-path:url(#SVGID_00000051383949904923708930000003355093939561726105_);}
	.st8{clip-path:url(#SVGID_00000114076107914659882540000015687457133710085551_);}
	.st9{clip-path:url(#SVGID_00000070802666568821720920000008838881446574781365_);}
	.st10{clip-path:url(#SVGID_00000002376837794376598300000015955521328369441446_);}
	.st11{fill:#070707;}
</style>
<g>
	<g>
		<path class="st0" d="M305.5,76c0-1,0-1.8,0.1-2.6c0.3-1.7,0.4-3.5,1.1-5c0.5-1.2,1.6-2.4,2.8-3.2c2.5-1.5,5.2-2.6,8.2-2.5
			c1.1,0,2.1-0.2,3.1-0.6c2.1-0.9,4.3-0.7,6.5-0.4c2,0.2,3.9,0.8,5.9,1.1c5.3,0.8,9.2,3.4,12.4,7.1c0.6,0.7,1.2,1.3,1.8,1.9
			c1.5-0.6,2.8-1.1,4.2-1.5c3.6-1.2,7.3-2.2,10.9-3.4c1.5-0.5,2.9-1.3,4.2-2.2c1.2-0.8,2.4-0.8,3.9-1c0.1-0.7,0.3-1.4,0.3-2
			c-0.3-5.5,0.1-11-1-16.4c-0.9-4.5-1.9-9-3.9-13.2c-0.5-1-1.3-1.9-2.1-2.8c-1.8-2-3.6-4-5.5-5.9c-1.6-1.6-3.8-2.2-6-2.9
			c-0.7-0.2-1.4-0.4-2-0.6c-3.1-1.2-6.4-1.6-9.6-2c-1.2-0.2-2.4-0.5-3.7-0.6c-1.2-0.1-2.5-0.2-3.7-0.1c-0.8,0-1.4,0-1.7-0.7
			c-0.3-0.7-0.9-0.8-1.6-0.8c-1.8,0-3.6-0.1-5.4,0c-3.6,0.2-7.1,0.5-10.7,0.8c-4.5,0.4-8.8,1.3-12.5,3.9c-1.1,0.8-2.2,1.7-3.1,2.8
			c-2.5,2.9-4.8,6-5.9,9.7c-0.7,2.2-1.6,4.4-2.3,6.7c-1.8,5.9-2.5,11.8-2.8,17.8c-0.2,3.4-0.2,6.7,0.2,10c0.1,1,0.4,1.7,1.3,2.2
			c2.1,1,4.1,2.1,6.2,3c3.1,1.2,6.2,2.3,9.3,3.5C304.8,75.8,305.1,75.9,305.5,76z M317.3,45.6c0,0.5,0,0.7,0,1
			c0.1,2-0.5,3.8-2.1,5.3c-1.9,1.8-4.4,1.8-6.8,2.1c-0.5,0.1-1.1-0.1-1.5-0.4c-1-0.8-2.1-1.5-3-2.5c-2.7-3-3.9-6.7-4.9-10.5
			c-0.2-0.7-0.1-1.7,0.2-2.4c1-2.6,3.4-3.6,6-4.4c1.3-0.4,2.7-0.5,4-0.7c2.5-0.4,4.1,0.5,5,2.5c0.2,0.4,0.4,0.8,0.6,1.2
			C316.5,39.7,317.6,42.6,317.3,45.6z M348.8,50.6c-2,0.1-3.9-0.2-5.3-1.4c-2.9-2.4-5.2-5.3-5.6-9.1c-0.3-2.3,0.3-4.2,2.3-5.8
			c1.4-1.1,3.1-1.6,4.8-1.9c2.1-0.4,4.2-0.9,6.3,0.4c1,0.6,1.7,1.5,2.4,2.3c2.5,3.1,3.3,6.6,2.2,10.5
			C354.9,48.6,352,50.7,348.8,50.6z M294.1,46.4c0.3-0.2,0.5-0.4,0.7-0.4c0.2,0,0.3,0.2,0.4,0.4c-0.2,0.1-0.3,0.3-0.5,0.3
			C294.6,46.8,294.4,46.6,294.1,46.4z"/>
		<path class="st0" d="M204.3,103c0.3,0.5,0.6,0.9,0.8,1.1c-0.4,1.1-0.7,1.9-1,2.8c-1.1,2.9-1.5,5.9-1.4,9c0.1,3.4,0.1,6.8,0.1,10.2
			c0,2-0.3,4.1-0.5,6.1c-0.8,8.7-1.7,17.4-2.5,26c-0.7,6.6-1.3,13.3-2.1,19.9c-0.6,5.3-1.4,10.5-2.2,15.8
			c-0.8,5.7-1.7,11.4-2.6,17.1c-0.4,2.9-0.7,5.8-1.1,8.7c-0.5,4-1,8-1.3,12c-0.4,4.8-0.5,9.6-0.8,14.4c-0.3,3.8-0.6,7.7-1.1,11.5
			c-0.4,3.8-0.2,7.6,0.2,11.3c0.4,3.3,2.4,4.6,5.8,5.5c1.3,0.4,3-1.2,3.3-2.7c0.5-2.4,0.9-4.8,0.9-7.2c0-0.8,0.3-1.6,0.5-2.3
			c1.8-0.4,3.2,0.2,4.9,0.7c-0.1,1.2-0.1,2.4-0.2,3.7c-0.1,1.9-0.2,3.7,0.6,5.5c0.2,0.5,0.5,0.9,0.8,1.5c2-3,2.7-6.1,2.8-9.3
			c0.1-3.8,0.8-3.1,4-2.4c0.4,0.1,0.8,0.4,1.2,0.6c-0.2,3.3-0.5,6.7,1.3,10c0.4-0.6,0.8-1,0.9-1.4c0.4-1.4,0.9-2.8,1-4.2
			c0.3-3.6,0.6-7.3,0.7-10.9c0.2-4.3,0.1-8.6,0.2-12.9c0-1.2-0.1-2.4,0-3.6c0.3-4.5,0.1-8.9-0.5-13.3c-0.2-1.5-0.1-3.1-0.1-4.6
			c0.2-9.3,0.4-18.6,0.5-27.9c0-3.3-0.4-6.6-0.5-9.9c-0.1-3.4,0-6.8,0.1-10.2c0.2-6.3,0.6-12.6,0.8-19c0.1-5.3,0.1-10.7,0-16
			c0-4.1-0.1-8.1-0.1-12.2c0-1.6,0.3-3.2,0.3-4.8c0-3.2-0.2-6.5,0-9.7c0.1-2.1,0.4-4.3,0.9-6.4c0.5-2,1.9-3.1,4.2-3.8
			c3.1-0.9,6.1-0.6,9.2,0c2.1,0.4,3.8,1.4,5.6,2.2c0.4,0.2,0.9,0.6,0.9,0.9c0.2,1.9,1.3,3.3,2.1,5c0.6,1.3,0.9,2.6,0.9,4
			c0.1,2.8,0.3,5.6,0.4,8.4c0.3,6.2,0.6,12.5,0.9,18.7c0.1,2.4,0.5,4.7,0.5,7.1c0.1,3,0,5.9-0.2,8.9c-0.3,4.3-0.8,8.6-1,12.9
			c-0.4,6.3-0.6,12.5-0.9,18.8c-0.4,7.9-0.7,15.7-1.1,23.6c-0.2,4.2-0.6,8.4-1.2,12.5c-0.8,5.1-1.7,10.3-3,15.3
			c-0.6,2.3-1,4.7-1.5,7c-0.8,3.6-1.7,7.1-2.5,10.7c-0.8,3.7-1.7,7.5-2.4,11.2c-0.4,1.9-0.4,3.9,0.1,5.9c0.9-0.5,1.5-1.3,2.3-1.4
			c0.8-0.1,1.6,0.4,2.6,0.7c0.1-0.6,0.3-1,0.4-1.5c0.5-2.4,2.7-3.3,4.8-2c0.6,0.4,1,0.8,1.6,1.3c-0.4,0.4-0.7,0.7-1,1
			c-1.1,1.1-0.8,2.4,0.6,3.2c0.8,0.4,1.5,0.1,1.6-0.7c0.1-0.6,0-1.2,0-1.8c0-1.5,0-3,1-4.3c1-1.3,2.6-1.3,3.5,0
			c0.9,1.4,1.1,2.9,0.8,4.5c-0.1,0.5-0.1,1.2,0.2,1.5c0.7,0.9,1.8,0.7,2.5-0.4c1.2-1.9,1.8-4,1.4-6.1c-0.6-2.5-0.4-5.1,0.2-7.5
			c1-4.3,1-8.5,1.3-12.8c0.6-9.7,1.1-19.4,1.3-29c0.1-5.2,0.1-10.4,0-15.7c-0.1-4.1-0.5-8.2-0.7-12.3c-0.1-1.7-0.1-3.4,0-5.1
			c0.2-5.3,0-10.7-0.3-16c-0.1-1.5,0-3,0.1-4.5c0.4-5.7,0.9-11.3,1.2-17c0.4-5.6,0.7-11.1,1.1-16.7c0.1-0.9,0-1.9,0-2.8
			c0-3.9,0.7-7.7,1.5-11.5c0.5-2.4,0.9-4.8,1.3-7.2c0.2-1.8,1-3.2,2.5-4.4c0.9-0.7,1.7-1.4,2.6-2.1c2.1-1.7,4.6-2.7,7.2-3.3
			c0.2,0,0.4-0.1,0.5-0.1c2.8,0.7,5.7-0.4,8.5,0.1c0.6,0.1,1.3-0.1,2-0.1c3.2,0,6.1-1.3,9.2-2c1.3-0.3,2.1-1.3,3.1-2
			c0.5-0.4,0.9-0.9,1.3-1.4c-0.1-0.2-0.1-0.4-0.2-0.5c-2.5-2.1-4.1-4.9-5.6-7.6c-1.6-2.9-3.3-5.8-4.5-8.8c-1-2.6-1.6-5.3-2.2-8.1
			c-1.7-7.7-0.9-15.5,0-23.3c0.2-2.1,0.8-4.2,1.2-6.5c-2.1-0.5-4.1-1.1-6.1-1.5c-4.3-0.9-8.6-1.8-12.9-2.7c-1.7-0.3-3.4-0.7-5.1-0.9
			c-8.5-1.1-16.9-2.2-25.4-3.2c-8.4-1-16.9-1.7-25.4-2.1c-6.4-0.2-12.8-0.8-19.2-1.2c-4-0.2-8.1-0.3-12.1-0.4c-4.6,0-9.2,0-13.8,0.1
			c-11,0.3-22.1,0.7-33.1,1.1c-8.3,0.3-16.6,0.9-24.9,1.3c-3.9,0.2-7.8,0.2-11.6,0.3c-4.1,0.1-8.2,0.1-12.3,0.4
			c-6.5,0.4-13,0.8-19.5,1.3c-2.3,0.2-4.6,0.4-6.9,0.7c-4.2,0.7-8.4,1.4-12.5,2.3c-1.3,0.3-2.4,0.5-3.4-0.5
			c-0.3-0.3-0.8-0.5-1.3-0.5c-3.8-0.1-7.7-0.1-11.4,1.1c-4,1.3-7.1,3.6-9.3,7c-3.2,4.7-5.1,9.8-6.4,15.1C10.8,65.1,9,71.3,8.5,77.7
			c-0.1,1.7-0.8,3.5-1,5.2c-0.4,3.1-0.7,6.1-1,9.2c-0.1,1.3-0.2,2.5-0.4,3.8c-0.3,3.4-0.7,6.8-1.1,10.2c-0.1,1.2-0.3,2.3-0.3,3.5
			c0,4.6,0.1,9.1,0.2,13.7c0,0.6,0.1,1.4,0.4,1.9c1.5,2.6,1.8,5.5,2.5,8.3c0.8,3,2.5,5.5,4.5,7.8c1.3,1.5,2.7,3,4.1,4.4
			c1.2,1.3,2.4,2.7,3.7,3.9c1.9,1.8,4.3,2.8,7.2,2.7c1.4-0.1,1.9-0.5,2.5-1.7c1.8-4.2,2.4-8.5,2.7-12.9c0.2-2.5,0.7-5,0.9-7.6
			c0.2-2.3,0.2-4.5,0.2-6.8c0-2-0.2-4-0.3-6.1c0-1.2-0.1-2.3,0-3.5c0.1-4.7,0.4-9.4,0.1-14c-0.2-3.6,0-7.3-0.3-10.9
			c-0.4-5.2,0.1-10.3,0.4-15.5c0.1-1.8,0.5-3.5,0.8-5.2c0.2-1.2,0.3-2.4,0.3-3.6c0-1.2,0.3-2.3,1.1-3.3c0.4-0.4,0.6-0.9,1-1.4
			c1.7-2.4,4.7-3.4,7.7-2.7c2.1,0.5,3.8,1.3,5.3,2.7c0.7,0.7,1.2,1.3,1.2,2.3c0,4,0,8,0,12c-0.1,3.4-0.2,6.7-0.4,10.1
			c-0.2,3.6-0.5,7.1-0.8,10.7c-0.3,3.4-0.7,6.8-0.9,10.2c-0.2,2.9-0.2,5.8-0.4,8.7c-0.4,6.8-0.9,13.5-1.4,20.3
			c-0.1,1.4-0.1,2.7-0.2,4.1c-0.1,5.4-0.2,10.8-0.8,16.2c-0.2,1.3-0.1,2.6-0.2,4c-0.2,3.1-0.5,6.2-0.8,9.4c-0.1,1.4-0.2,2.7-0.3,4.1
			c-0.1,1.7-0.3,3.4-0.5,5.1c-0.1,1.5-0.3,3-0.5,4.4c-0.3,2.1-0.6,4.2-0.9,6.3c-0.2,1.9-0.4,3.8-0.6,5.7c-0.4,2.7-0.9,5.5-1.2,8.2
			c-0.4,3-0.8,5.9-1.2,8.9c-0.4,3.3-0.7,6.6-1.2,9.9c-0.7,4.8-1.5,9.5-2.2,14.2c-0.6,4.2-1.3,8.3-1.8,12.5c-0.3,2.1,0.5,4,1.6,5.7
			c0.9,1.4,2.6,1.4,4.1,1.6c0.2,0,0.7-0.3,0.8-0.5c0.5-1,1.1-2,1.4-3c0.3-1.2,0.2-2.5,0.4-3.8c0.2-1.8,1.2-2.3,2.9-1.4
			c0.6,0.3,1.2,0.7,1.9,1.2c0,2.2-0.1,4.5-0.1,6.8c0,1.1,0.1,2.3,0.4,3.4c0.2,1.1,0.9,1.5,1.8,1.3c1.1-0.1,1.5-0.7,1.6-1.8
			c0.2-1.8,0.4-3.5,0.6-5.3c0.1-0.9,0.6-1.2,1.6-1.1c2.2,0.2,3.4,1.6,3.1,3.7c-0.2,1.4-0.3,2.7-0.4,4.1c-0.1,0.9,0.1,1.7,0.8,2.8
			c0.3-1.3,0.4-2.3,0.7-3.2c1.2-4.6,1.2-9.2,0.9-13.8c-0.1-1-0.1-2-0.1-3c-0.4-5-0.2-10.1-0.4-15.1c-0.2-5.1-0.5-10.2,0-15.3
			c0.4-4.2,1-8.3,1.4-12.5c0.2-1.8,0.4-3.5,0.5-5.3c0.2-4.3,1.3-8.4,2-12.6c0.6-3.6,1.2-7.2,1.6-10.8c0.8-7.9,1.6-15.8,2.1-23.7
			c0.4-6,0.5-12,0.6-18c0.1-5.9-0.1-11.8-0.1-17.6c0-3.6,0-7.1-0.1-10.7c-0.1-1.7-0.4-3.5-0.5-5.2c-0.1-2.2-0.2-4.4,0-6.6
			c0.3-2.9,3-4.7,5.7-5.4c1.1-0.3,2.3-0.3,3.4-0.5c1.3-0.3,2.5,0.1,3.6,0.6c1,0.5,1.9,1,2.8,1.6c0.4,0.3,0.8,0.8,0.9,1.3
			c0.9,2.6,0.8,5.3,0.1,8c-1,4.2-1.6,8.4-1.1,12.6c0.1,0.9,0,1.9,0.1,2.8c0.3,4.1,0.8,8.2,1.1,12.3c0.3,3.6,0.5,7.1,0.5,10.7
			c0.1,4.7-0.1,9.4,0.1,14c0.2,3.7-0.1,7.5-0.2,11.2c-0.1,7-0.1,14.1-0.1,21.1c0,2.3-0.2,4.5-0.3,6.8c0,0.6-0.1,1.2,0,1.8
			c0.5,4.1-0.3,8.2-0.9,12.3c-0.8,5.5-1.6,11.1-2.5,16.6c-0.5,3.3-1.4,6.5-2,9.8c-1.1,5.7-2.1,11.3-3.1,17
			c-0.6,3.4-1.2,6.8-1.8,10.1c-0.6,3.5-1.4,7-2,10.4c-0.2,0.8-0.2,1.7-0.2,2.5c0,1.3,0.7,2.2,1.7,2.4c0.9,0.2,1.9-0.4,2.6-1.5
			c0.4-0.7,0.9-1.5,1.2-2.2c0.7-1.5,1.2-1.8,2.9-1.5c0.6,0.1,1.2,0.4,1.9,0.6c0.2,2,0.3,4,0.7,6.1c1.6-1.4,2.2-2.9,2.3-4.5
			c0.2-2.6,1.6-3.1,4.2-2c0.2,0.1,0.4,0.2,0.6,0.3c0,2.7-1.7,5.3-0.7,8.2c1.4-0.8,1.7-1.9,1.8-3.1c0.4-5.2,1-10.3,1.2-15.5
			c0.3-5.9,0.2-11.8,0.5-17.7c0.4-6.7,1-13.4,1.7-20.1c0.5-4.8,1.2-9.6,1.8-14.5c0.4-3.2,1-6.5,1.2-9.7c0.3-5.1,0.3-10.1,0.4-15.2
			c0.1-6.1,0.1-12.2,0.4-18.3c0.1-3.8,0.6-7.6,0.9-11.4c0.5-6.2,0.1-12.4-0.2-18.6c-0.2-4.2-0.2-8.3-0.4-12.5
			c-0.1-1.5-0.2-3-0.4-4.6c-0.1-1.1-0.2-2.2-0.2-3.3c-0.1-2.5-0.2-4.9-0.3-7.4c0-0.7,0.1-1.4,0.3-2.1c0.2-0.7,0.8-1,1.4-1.1
			c0.5-0.1,1-0.1,1.4-0.1c0.9-0.1,1.7,0.1,2.1,0.9c0.4,0.7,1.1,0.9,1.9,1c6.5,0.4,13,0.3,19.5-0.6c0.5-0.1,1-0.2,1.4-0.1
			c5.3,0,10.6-0.1,15.9,0.1c3.2,0.1,6.4,0.6,9.6,0.9c2.7,0.2,5.5,0.3,8.2,0.2c3.5-0.1,6.9,0.4,10.3,0.8c4.2,0.5,8.5,0.9,12.7,1.3
			c4.3,0.4,8.6,0.6,12.9,1.1c1.5,0.2,2.9,0.7,4.4,1.1c1.4,0.4,2.8,0.9,4.2,1.1C202.8,103.5,203.5,103.2,204.3,103z"/>
		<path d="M291,26c-2.6,4.1-3.6,8.5-5.4,12.7c-2.2-0.6-4.5-1.1-6.7-1.7c-5.1-1.1-10.2-2.3-15.3-3.4c-1.7-0.4-3.5-0.4-5.3-0.7
			c-6.3-0.8-12.7-1.7-19-2.5c-8.2-1-16.5-1.8-24.8-2.3c-8.7-0.5-17.3-1.2-26-1.6c-5.2-0.3-10.5-0.3-15.7-0.2
			c-13.5,0.3-27.1,0.6-40.6,1.1c-8.1,0.3-16.2,0.8-24.3,1.3c-1.7,0.1-3.3,0-5,0.1c-7.2,0.2-14.3,0.3-21.5,0.6
			c-6,0.3-11.9,0.8-17.9,1.3c-4.2,0.4-8.4,0.9-12.6,1.5c-1.3,0.2-2.6,0.6-3.8,0.9c-1.2,0.3-2.2,0.3-3.5,0c-1.6-0.4-3.3-0.2-5-0.1
			c-2.9,0.2-5.8,0.4-8.7,0.7c-2.4,0.2-4.6,1.1-6.6,2.2c-2.8,1.6-5.7,3.3-7.5,5.9c-1.7,2.5-3.3,5.2-4.6,7.9c-1.3,2.9-2.4,5.9-3.2,9
			C6.5,63.3,5.5,68,4.5,72.7c-0.1,0.6-0.1,1.2-0.2,1.8c-0.6,4-1.3,8-1.7,12c-0.8,7.1-1.3,14.3-2.2,21.4c-0.5,4.5-0.3,8.9-0.3,13.4
			c0,1.7,0.3,3.4,0.5,5.1c0,0.2,0,0.5,0.2,0.6c1.7,2.6,2,5.7,2.8,8.5c0.8,2.8,2.3,5.4,4.2,7.6c2.6,3,5.7,5.6,8.2,8.6
			c1.6,1.9,3.8,2.8,6.1,3.5c0.5,0.2,1.1,0.2,1.7,0.2c0.6,0,1.2-0.2,1.8,0c4,0.9,6.3-1.7,8.2-4.2c1.1-1.4,1.4-3.3,1.8-5
			c0.8-2.9,0.9-5.9,1.4-8.8c0.7-4.6,0.8-9.1,1-13.7c0.1-1.5-0.2-3-0.2-4.4c-0.1-1.9-0.3-3.7-0.2-5.6c0.1-4.7,0.3-9.4,0.3-14
			c0-3.3,0-6.7-0.2-10c-0.4-4.7,0-9.3,0.2-14c0.1-1.3,0.3-2.6,0.4-3.9c0.3-2.3,0.7-4.6,0.9-6.9c0.1-1.9,1.4-3.2,2.3-4.6
			c0.4-0.6,1.4-0.9,2.1-0.6c1.4,0.7,2.7,1.6,2.7,3.3c0.2,4.4,0.2,8.8-0.1,13.2c-0.2,2.8-0.2,5.6-0.4,8.4c-0.1,2-0.4,3.9-0.6,5.9
			c-0.1,1.6-0.3,3.2-0.3,4.8c-0.5,8.7-0.8,17.5-1.4,26.2c-0.3,5.5-1,11-1.3,16.5c-0.4,6.9-0.6,13.9-1.2,20.8
			c-0.6,7.6-1.4,15.2-2.1,22.7c-0.4,3.7-0.8,7.5-1.4,11.2c-0.7,4.8-1.6,9.5-2.3,14.3c-0.5,3.6-0.9,7.2-1.4,10.9
			c-0.3,2.3-0.7,4.6-1.1,6.9c-0.6,4.2-1.3,8.3-1.9,12.5c-0.5,3.2-0.9,6.4-1.4,9.5c-0.4,2.6,0.4,5,1.6,7.3c0.7,1.2,1.9,1.9,3.3,2.3
			c0.4,0.1,0.8,0.3,1.2,0.3c2.4,0.4,4.9,0.8,7.5,1.2c0.3,0.4,0.6,1,1,1.6c1.6,1.9,3.9,2.4,6.4,2c1.2-0.2,1.8,0,2.5,0.9
			c1.9,2.4,4.9,2.9,7.9,1.5c0.8-0.4,1.2-1,1.4-1.9c0.4-2.4,0.9-4.9,1.4-7.3c0.1-0.7,0.2-1.3,0.2-2c-0.1-5.1-0.2-10.1-0.3-15.2
			c-0.1-3.1-0.1-6.1-0.2-9.2c-0.2-6.8-0.2-13.6,0.5-20.5c0.4-4.7,1.2-9.3,1.6-14c0.4-4,1.2-8,1.9-12c0.5-2.6,0.9-5.2,1.2-7.9
			c0.9-8,1.8-15.9,2.5-23.9c0.6-6.8,1-13.5,1.2-20.3c0.2-6.9-0.2-13.7-0.2-20.6c0-3.3,0.2-6.6,0.4-9.9c0.1-0.9,0-1.6-1-2.1
			c-0.7-0.3-0.8-0.9-0.8-1.5c0.1-2.5,0.2-5.1,0.5-7.6c0.2-2.1,1.8-3.3,3.8-4c1.1-0.4,1.8-0.1,2.4,0.8c1.8,2.6,2.3,5.6,1.5,8.7
			c-1.1,4.7-1.7,9.5-1.3,14.3c0,0.6,0.1,1.2,0.1,1.8c0.2,3.4,0.5,6.8,0.7,10.2c0.2,3.4,0.4,6.8,0.5,10.2c0.1,4.8,0,9.6,0.1,14.3
			c0,3,0.2,6,0.2,9.1c0,4.5-0.2,8.9-0.3,13.4c-0.2,7-0.5,14-0.4,20.9c0.1,6.5-1,12.8-2.1,19.2c-0.7,4.1-1.3,8.2-2,12.3
			c-0.4,2.4-1.1,4.8-1.6,7.1c-0.4,2-0.7,3.9-1.1,5.9c-0.7,3.9-1.4,7.7-2.1,11.6c-0.5,2.6-0.8,5.1-1.4,7.7c-0.7,3.6-1.5,7.3-2.3,10.9
			c-0.2,1.2-0.3,2.4-0.6,3.6c-0.6,2.1,1.2,4.2,4,4.4c2.4,0.1,4.8,0.2,7-1.4c0.3,1.7,1.3,2.7,2.8,3.3c1.2,0.5,2.4,0.9,3.6,0.7
			c0.9,0.6,1.5,1.4,2.4,1.7c0.9,0.3,2.1,0.3,3,0c1.4-0.6,2.7-1.5,3.8-2.4c1.4-1.3,1.9-2.9,2.3-4.7c0.6-3.3,1-6.5,1.3-9.8
			c0.5-5.6,0.9-11.2,1.1-16.8c0.2-6.3,0.3-12.7,1-19c0.7-5.8,1.5-11.6,2.3-17.4c1-7.8,2-15.7,2-23.6c0.1-7.5,0.2-15.1,0.4-22.6
			c0.1-3.5,0.6-7,0.8-10.6c0.5-6.9,0.4-13.9,0.1-20.8c-0.2-3.8-0.2-7.6-0.3-11.4c-0.1-4.3-0.3-8.7-0.4-13c0-0.4,0-0.8,0.1-1.4
			c1.5,0,3,0,4.4,0c1.9,0,3.8,0.1,5.7,0c3.6-0.2,7.1-0.6,10.7-0.8c1.2-0.1,2.4,0.2,3.5,0.2c3.2,0,6.5-0.2,9.7-0.1
			c4.4,0.2,8.8,0.6,13.2,0.8c3,0.2,6.1,0.2,9.1,0.3c3.2,0,6.4,0.3,9.6,0.9c3,0.5,6,0.8,9,1c4,0.3,8,0.5,11.9,0.8
			c1.8,0.2,3.6,0.5,5.4,0.8c1.7,0.3,3.3,0.6,5,1c0.3,0.1,0.7,0.2,1.2,0.4c-0.1,0.7-0.2,1.3-0.4,1.9c-0.9,2.5-1.3,4.9-1.3,7.5
			c0,3.9,0,7.8-0.1,11.7c0,1.8-0.3,3.5-0.5,5.3c-0.5,4.2-1.1,8.4-1.5,12.7c-0.6,5.8-1,11.5-1.6,17.3c-0.7,6.4-1.5,12.7-2.3,19.1
			c-0.2,1.5-0.6,3.1-0.8,4.6c-1,7.4-2,14.9-3,22.3c-0.5,3.6-1.2,7.1-1.6,10.7c-0.6,5.5-1.1,11.1-1.6,16.6c-0.3,2.9-0.6,5.7-0.8,8.6
			c-0.2,3.2-0.3,6.4-0.5,9.6c-0.2,3-0.6,6.1-0.7,9.1c-0.1,2.9,0.2,5.8,0.4,8.7c0.1,1.4,1,2.4,2.2,3.1c1.3,0.7,2.6,1.6,4,2
			c2.1,0.6,4.4,0.7,6.6-0.2c1.1-0.5,2.1-1,3.1-1.5c0.2,0.1,0.4,0.1,0.4,0.2c0.6,1.5,1.7,2.1,3.4,1.9c0.1,0,0.2,0,0.4,0
			c2.4,0.5,4.1-0.7,5.5-2.3c0.1-0.1,0.2-0.3,0.4-0.4c0,0,0.1,0,0.3-0.1c1.5,1.1,3.5,0.9,5.2,0.8c2-0.2,3.8-1.4,4.6-3.3
			c0.8-1.8,1.1-3.7,1.2-5.7c0.1-1.8,0.3-3.5,0.4-5.3c0.2-2.3,0.3-4.5,0.4-6.8c0.2-6.3,0.5-12.5,0.6-18.8c0-2.4-0.3-4.7-0.5-7
			c-0.1-2.1-0.3-4.2-0.3-6.2c0.1-5.4,0.3-10.9,0.3-16.3c0-5.6,0-11.1-0.2-16.6c-0.1-5.3-0.7-10.5-0.1-15.8
			c1.1-10.2,0.9-20.3,1.1-30.5c0.1-5.4,0-10.8,0-16.1c0-1.6,0.4-3.2,0.4-4.8c0.1-3.3,0-6.6,0.1-9.9c0.1-2.3,0.4-4.5,1.3-6.6
			c0.6-1.4,1-1.7,2.6-1.4c1.9,0.3,3.6,1,5.1,2c0.2,0.2,0.4,0.4,0.5,0.6c1.4,3.3,3.1,6.5,3.1,10.3c0,6.9,0.5,13.8,0.9,20.7
			c0.2,4.1,0.6,8.1,0.8,12.2c0.1,2.8-0.1,5.6-0.2,8.4c-0.1,3-0.3,6.1-0.6,9.1c-0.2,1.8-0.6,3.6-0.7,5.4c-0.3,6.4-0.6,12.9-0.8,19.3
			c-0.2,4.5-0.2,9-0.4,13.5c-0.3,5.7-0.8,11.3-1.3,17c-0.3,2.7-0.8,5.5-1.4,8.2c-1,4.9-2.1,9.8-3.3,14.6c-0.8,3.7-1.8,7.5-2.6,11.2
			c-0.6,2.9-1.2,5.8-1.8,8.6c-0.3,1.5-0.8,3-1,4.6c-0.2,1.7-0.3,3.5-0.4,5.3c0,0.3,0,0.5,0.1,0.8c0.2,1.3,0.6,1.6,2.1,1.7
			c5.1,0.1,10.1,0.1,15.2,0.1c3.6,0,7.2,0.1,10.7,0c2.4,0,3.7-1.4,3.5-3.6c0-0.3-0.1-0.7,0.1-0.8c1.4-1.2,1.1-2.8,1-4.2
			c-0.2-2.5,0.1-4.9,0.8-7.4c0.8-2.6,0.8-5.2,0.8-7.9c0-2.1,0.3-4.3,0.4-6.4c0.2-3.5,0.5-6.9,0.7-10.4c0.1-1.4,0-2.9,0-4.3
			c0.2-7.3,0.5-14.6,0.5-22c0-5.7-0.4-11.3-0.7-16.9c0-1.2-0.1-2.3,0-3.5c0-5.7,0.1-11.3,0.1-17c0-7,0.9-14,1.4-20.9
			c0.3-3.9,0.5-7.8,0.7-11.7c0.2-3.9,0.3-7.8,0.7-11.7c0.4-3.8,1.2-7.5,1.9-11.3c0.3-1.8,1.2-3.4,1.1-5.3c0-0.6,0.3-1.3,0.7-1.8
			c1-1.3,2.1-2.6,3.1-3.9c0.2-0.3,0.5-0.5,0.8-0.6c2-0.7,3.9-1.4,5.9-2.1c0.2-0.1,0.4-0.1,0.5-0.1c2.1,0,4.2-0.2,6.2,0
			c2.7,0.3,5.4-0.3,8-0.4c0.7,0,1.5-0.4,2.2-0.6c0.6-0.2,1.1-0.5,1.7-0.6c2.2-0.2,4-1.1,5.5-2.8c1.5,0.9,3,1.6,4.4,2.5
			c3.3,2.1,6.9,3.6,10.7,4.8c1,0.3,1.9,0.8,3,1.1c3.3,0.7,6.6,1.4,9.9,1.9c1.1,0.2,2.2-0.1,3.4-0.2c0.8-0.1,1.6-0.4,2.3-0.3
			c3.2,0.4,6.2-0.5,9.2-1.2c0.9-0.2,1.9-0.6,2.7-1c3.3-2,6.8-3.6,9.7-6.1c1.1-1,2.2-1.9,3.4-2.8c2.8-2,4.6-4.8,6.8-7.2
			c2.4-2.7,4.5-5.7,6-8.9c2.2-4.8,3-9.8,3.3-14.9c0.1-2,0.4-4.1,0.4-6.1c0-3-0.1-6-0.3-9c-0.2-2.5-0.3-5.1-0.8-7.5
			c-0.8-3.8-1.9-7.5-2.9-11.3c-0.2-0.8-0.4-1.5-0.3-2.4c0.2-2.4,0.2-4.8,1-7.2c0.6-1.8-0.1-3.5-0.6-5.2c-0.6-1.9-1.6-3.7-2.3-5.6
			c-1.1-3.3-3.5-6-4.4-9.4c-0.4-1.4-1.5-2.6-3-3.2c-0.7-0.3-1.4-0.3-2.2,0.2c-0.9,0.6-1.9,0.9-2.8,1.5c-1.3,1-2.5,2-3.8,3.1
			c-0.5,0.4-0.9,0.9-1.4,1.3c-3,2.3-5.1,5-6.6,8.4c-1-0.1-2.1-0.2-3.1-0.4c-3.2-0.6-6.5-0.6-9.5-1.8c-1.2-0.5-2.5-0.6-3.8-0.5
			c-4.1,0.3-8.2,0.6-12.3,0.9c-3.1,0.3-6.2,0.6-9.4,0.9c-0.2-0.5-0.5-1.1-0.6-1.7c-0.1-1.1-0.7-2-1.4-2.7c-2.5-2.4-5-4.9-7.5-7.2
			c-0.6-0.6-1.4-1-2.1-1.5c-2.5-1.7-5.3-1.5-8.1-0.5c-1,0.4-1.8,1-2,2c-0.2,1-0.5,2.1-0.5,3.1c0,2.5,0.3,4.9,1.1,7.3
			c0.9,2.7,1.9,5.4,2.9,8c0.2,0.6,0.5,1.2,0.6,1.9C289.2,24.3,289.7,25.3,291,26z M204.3,103c-0.8,0.2-1.5,0.5-2,0.4
			c-1.4-0.3-2.8-0.8-4.2-1.1c-1.5-0.4-2.9-1-4.4-1.1c-4.3-0.4-8.6-0.7-12.9-1.1c-4.3-0.4-8.5-0.8-12.7-1.3
			c-3.4-0.4-6.8-0.9-10.3-0.8c-2.7,0.1-5.5-0.1-8.2-0.2c-3.2-0.2-6.4-0.8-9.6-0.9c-5.3-0.2-10.6-0.1-15.9-0.1c-0.5,0-1,0.1-1.4,0.1
			c-6.5,0.9-13,1-19.5,0.6c-0.8-0.1-1.5-0.3-1.9-1c-0.4-0.8-1.2-1-2.1-0.9c-0.5,0.1-1,0.1-1.4,0.1C97,96,96.4,96.3,96.2,97
			c-0.2,0.7-0.3,1.4-0.3,2.1c0.1,2.5,0.2,4.9,0.3,7.4c0.1,1.1,0.1,2.2,0.2,3.3c0.1,1.5,0.3,3,0.4,4.6c0.1,4.2,0.2,8.3,0.4,12.5
			c0.3,6.2,0.7,12.4,0.2,18.6c-0.3,3.8-0.8,7.6-0.9,11.4c-0.2,6.1-0.2,12.2-0.4,18.3c-0.1,5.1-0.1,10.1-0.4,15.2
			c-0.2,3.2-0.8,6.5-1.2,9.7c-0.6,4.8-1.3,9.6-1.8,14.5c-0.7,6.7-1.3,13.4-1.7,20.1c-0.3,5.9-0.2,11.8-0.5,17.7
			c-0.3,5.2-0.8,10.3-1.2,15.5c-0.1,1.2-0.4,2.3-1.8,3.1c-1-2.8,0.7-5.5,0.7-8.2c-0.2-0.1-0.4-0.2-0.6-0.3c-2.5-1.1-4-0.5-4.2,2
			c-0.1,1.6-0.7,3.1-2.3,4.5c-0.4-2.1-0.5-4.1-0.7-6.1c-0.7-0.2-1.2-0.5-1.9-0.6c-1.7-0.3-2.2,0-2.9,1.5c-0.3,0.8-0.8,1.5-1.2,2.2
			c-0.7,1.1-1.7,1.7-2.6,1.5c-1-0.2-1.7-1.1-1.7-2.4c0-0.8,0-1.7,0.2-2.5c0.7-3.5,1.4-7,2-10.4c0.6-3.4,1.2-6.8,1.8-10.1
			c1-5.7,2.1-11.3,3.1-17c0.6-3.3,1.4-6.5,2-9.8c0.9-5.5,1.7-11,2.5-16.6c0.6-4.1,1.4-8.2,0.9-12.3c-0.1-0.6,0-1.2,0-1.8
			c0.1-2.3,0.3-4.5,0.3-6.8c0.1-7,0-14.1,0.1-21.1c0.1-3.7,0.4-7.5,0.2-11.2c-0.2-4.7,0-9.3-0.1-14c-0.1-3.6-0.3-7.1-0.5-10.7
			c-0.3-4.1-0.7-8.2-1.1-12.3c-0.1-0.9,0-1.9-0.1-2.8c-0.5-4.3,0.1-8.4,1.1-12.6c0.6-2.7,0.7-5.4-0.1-8c-0.2-0.5-0.5-1-0.9-1.3
			c-0.9-0.6-1.9-1.1-2.8-1.6c-1.1-0.5-2.3-0.9-3.6-0.6c-1.1,0.2-2.3,0.2-3.4,0.5c-2.8,0.7-5.4,2.5-5.7,5.4c-0.2,2.2-0.1,4.4,0,6.6
			c0.1,1.7,0.5,3.5,0.5,5.2c0.1,3.6,0.1,7.1,0.1,10.7c0,5.9,0.2,11.8,0.1,17.6c-0.1,6-0.2,12-0.6,18c-0.5,7.9-1.3,15.8-2.1,23.7
			c-0.4,3.6-1,7.2-1.6,10.8c-0.7,4.2-1.8,8.4-2,12.6c-0.1,1.8-0.3,3.5-0.5,5.3c-0.5,4.2-1.1,8.3-1.4,12.5c-0.4,5.1-0.2,10.2,0,15.3
			c0.2,5,0,10.1,0.4,15.1c0.1,1,0.1,2,0.1,3c0.3,4.6,0.3,9.2-0.9,13.8c-0.2,0.9-0.4,1.9-0.7,3.2c-0.7-1.1-0.9-1.9-0.8-2.8
			c0.1-1.4,0.2-2.7,0.4-4.1c0.3-2.1-0.9-3.5-3.1-3.7c-1-0.1-1.5,0.2-1.6,1.1c-0.3,1.7-0.5,3.5-0.6,5.3c-0.1,1.1-0.6,1.7-1.6,1.8
			c-1,0.1-1.6-0.2-1.8-1.3c-0.2-1.1-0.4-2.3-0.4-3.4c0-2.3,0.1-4.6,0.1-6.8c-0.8-0.5-1.3-0.8-1.9-1.2c-1.7-0.9-2.7-0.5-2.9,1.4
			c-0.2,1.3-0.1,2.6-0.4,3.8c-0.3,1-0.9,2-1.4,3c-0.1,0.3-0.6,0.6-0.8,0.5c-1.5-0.2-3.2-0.2-4.1-1.6c-1.1-1.7-1.9-3.7-1.6-5.7
			c0.5-4.2,1.2-8.3,1.8-12.5c0.7-4.7,1.5-9.5,2.2-14.2c0.5-3.3,0.8-6.6,1.2-9.9c0.4-3,0.8-5.9,1.2-8.9c0.4-2.7,0.9-5.5,1.2-8.2
			c0.3-1.9,0.4-3.8,0.6-5.7c0.3-2.1,0.6-4.2,0.9-6.3c0.2-1.5,0.3-3,0.5-4.4c0.2-1.7,0.3-3.4,0.5-5.1c0.1-1.4,0.2-2.7,0.3-4.1
			c0.3-3.1,0.5-6.2,0.8-9.4c0.1-1.3,0-2.6,0.2-4c0.7-5.4,0.7-10.8,0.8-16.2c0-1.4,0.1-2.7,0.2-4.1c0.5-6.8,1-13.5,1.4-20.3
			c0.2-2.9,0.2-5.8,0.4-8.7c0.2-3.4,0.6-6.8,0.9-10.2c0.3-3.6,0.6-7.1,0.8-10.7c0.2-3.4,0.3-6.7,0.4-10.1c0.1-4,0-8,0-12
			c0-0.9-0.5-1.6-1.2-2.3c-1.5-1.5-3.2-2.3-5.3-2.7c-3-0.7-6,0.3-7.7,2.7c-0.3,0.5-0.6,1-1,1.4c-0.8,1-1.1,2.1-1.1,3.3
			c0,1.2-0.2,2.4-0.3,3.6c-0.2,1.8-0.7,3.5-0.8,5.2c-0.3,5.2-0.8,10.3-0.4,15.5c0.3,3.6,0.1,7.2,0.3,10.9c0.3,4.6-0.1,9.3-0.1,14
			c0,1.2,0,2.3,0,3.5c0.1,2,0.3,4,0.3,6.1c0,2.3,0,4.5-0.2,6.8c-0.2,2.5-0.7,5-0.9,7.6c-0.3,4.4-0.9,8.8-2.7,12.9
			c-0.5,1.2-1,1.7-2.5,1.7c-2.8,0.1-5.2-0.9-7.2-2.7c-1.3-1.2-2.5-2.6-3.7-3.9c-1.4-1.5-2.8-2.9-4.1-4.4c-2.1-2.3-3.7-4.8-4.5-7.8
			c-0.7-2.8-1.1-5.7-2.5-8.3c-0.3-0.6-0.4-1.3-0.4-1.9c-0.1-4.6-0.2-9.1-0.2-13.7c0-1.1,0.2-2.3,0.3-3.5c0.4-3.4,0.7-6.8,1.1-10.2
			c0.1-1.3,0.2-2.5,0.4-3.8c0.3-3.1,0.6-6.1,1-9.2c0.2-1.7,0.9-3.5,1-5.2c0.5-6.3,2.3-12.5,3.7-18.7c1.3-5.3,3.2-10.4,6.4-15.1
			c2.3-3.4,5.3-5.8,9.3-7c3.7-1.2,7.5-1.2,11.4-1.1c0.4,0,1,0.2,1.3,0.5c1,1.1,2.1,0.8,3.4,0.5c4.2-0.8,8.3-1.6,12.5-2.3
			c2.3-0.4,4.6-0.6,6.9-0.7c6.5-0.5,13-1,19.5-1.3c4.1-0.2,8.2-0.3,12.3-0.4c3.9-0.1,7.8-0.1,11.6-0.3c8.3-0.4,16.6-1,24.9-1.3
			c11-0.5,22.1-0.8,33.1-1.1c4.6-0.1,9.2-0.1,13.8-0.1c4.1,0,8.1,0.2,12.1,0.4c6.4,0.3,12.8,0.9,19.2,1.2c8.5,0.3,17,1.1,25.4,2.1
			c8.5,1,16.9,2.1,25.4,3.2c1.7,0.2,3.4,0.6,5.1,0.9c4.3,0.9,8.6,1.8,12.9,2.7c2,0.4,4.1,1,6.1,1.5c-0.4,2.2-1,4.3-1.2,6.5
			c-0.9,7.8-1.7,15.6,0,23.3c0.6,2.7,1.1,5.5,2.2,8.1c1.2,3,2.9,5.9,4.5,8.8c1.6,2.7,3.2,5.4,5.6,7.6c0.1,0.1,0.1,0.3,0.2,0.5
			c-0.4,0.5-0.8,1-1.3,1.4c-1,0.7-1.8,1.7-3.1,2c-3.1,0.6-6,2-9.2,2c-0.7,0-1.3,0.2-2,0.1c-2.8-0.5-5.7,0.5-8.5-0.1
			c-0.2,0-0.4,0-0.5,0.1c-2.6,0.6-5.1,1.6-7.2,3.3c-0.9,0.7-1.7,1.4-2.6,2.1c-1.5,1.2-2.3,2.6-2.5,4.4c-0.3,2.4-0.8,4.8-1.3,7.2
			c-0.8,3.8-1.5,7.6-1.5,11.5c0,0.9,0.1,1.9,0,2.8c-0.3,5.6-0.7,11.1-1.1,16.7c-0.4,5.7-0.9,11.3-1.2,17c-0.1,1.5-0.2,3-0.1,4.5
			c0.3,5.3,0.6,10.6,0.3,16c-0.1,1.7,0,3.4,0,5.1c0.2,4.1,0.6,8.2,0.7,12.3c0.1,5.2,0.1,10.4,0,15.7c-0.2,9.7-0.7,19.4-1.3,29
			c-0.3,4.3-0.3,8.6-1.3,12.8c-0.6,2.5-0.8,5-0.2,7.5c0.5,2.1-0.2,4.2-1.4,6.1c-0.6,1-1.7,1.2-2.5,0.4c-0.3-0.3-0.3-1-0.2-1.5
			c0.3-1.6,0.2-3.1-0.8-4.5c-0.9-1.3-2.6-1.3-3.5,0c-1,1.3-1,2.8-1,4.3c0,0.6,0.1,1.2,0,1.8c-0.1,0.8-0.9,1.1-1.6,0.7
			c-1.4-0.7-1.6-2-0.6-3.2c0.3-0.3,0.5-0.5,1-1c-0.6-0.5-1.1-0.9-1.6-1.3c-2.1-1.3-4.3-0.4-4.8,2c-0.1,0.5-0.2,0.9-0.4,1.5
			c-1-0.3-1.8-0.8-2.6-0.7c-0.8,0.1-1.4,0.8-2.3,1.4c-0.5-2-0.5-4-0.1-5.9c0.8-3.8,1.6-7.5,2.4-11.2c0.8-3.6,1.7-7.1,2.5-10.7
			c0.5-2.3,0.9-4.7,1.5-7c1.3-5.1,2.3-10.2,3-15.3c0.6-4.2,1-8.3,1.2-12.5c0.5-7.9,0.8-15.7,1.1-23.6c0.3-6.3,0.5-12.5,0.9-18.8
			c0.3-4.3,0.8-8.6,1-12.9c0.2-3,0.3-5.9,0.2-8.9c0-2.4-0.4-4.7-0.5-7.1c-0.3-6.2-0.6-12.5-0.9-18.7c-0.1-2.8-0.4-5.6-0.4-8.4
			c0-1.4-0.3-2.7-0.9-4c-0.7-1.6-1.9-3.1-2.1-5c0-0.3-0.5-0.7-0.9-0.9c-1.9-0.8-3.6-1.8-5.6-2.2c-3-0.6-6-0.8-9.2,0
			c-2.2,0.6-3.7,1.8-4.2,3.8c-0.5,2.1-0.8,4.2-0.9,6.4c-0.1,3.2,0.1,6.5,0,9.7c0,1.6-0.3,3.2-0.3,4.8c0,4.1,0.1,8.1,0.1,12.2
			c0,5.3,0.1,10.7,0,16c-0.2,6.3-0.6,12.6-0.8,19c-0.1,3.4-0.2,6.8-0.1,10.2c0.1,3.3,0.5,6.6,0.5,9.9c-0.1,9.3-0.3,18.6-0.5,27.9
			c0,1.5-0.1,3.1,0.1,4.6c0.6,4.4,0.8,8.8,0.5,13.3c-0.1,1.2,0,2.4,0,3.6c0,4.3,0,8.6-0.2,12.9c-0.1,3.6-0.4,7.3-0.7,10.9
			c-0.1,1.4-0.6,2.8-1,4.2c-0.1,0.4-0.5,0.8-0.9,1.4c-1.8-3.4-1.5-6.7-1.3-10c-0.4-0.2-0.8-0.5-1.2-0.6c-3.1-0.8-3.8-1.4-4,2.4
			c-0.1,3.2-0.8,6.3-2.8,9.3c-0.3-0.6-0.6-1-0.8-1.5c-0.7-1.8-0.7-3.6-0.6-5.5c0.1-1.2,0.1-2.5,0.2-3.7c-1.7-0.5-3.1-1-4.9-0.7
			c-0.2,0.8-0.5,1.6-0.5,2.3c0,2.4-0.4,4.8-0.9,7.2c-0.3,1.5-2,3.1-3.3,2.7c-3.4-1-5.5-2.2-5.8-5.5c-0.4-3.8-0.7-7.5-0.2-11.3
			c0.4-3.8,0.8-7.7,1.1-11.5c0.3-4.8,0.4-9.6,0.8-14.4c0.3-4,0.8-8,1.3-12c0.3-2.9,0.7-5.8,1.1-8.7c0.8-5.7,1.7-11.4,2.6-17.1
			c0.8-5.3,1.5-10.5,2.2-15.8c0.8-6.6,1.4-13.3,2.1-19.9c0.9-8.7,1.7-17.4,2.5-26c0.2-2,0.4-4.1,0.5-6.1c0.1-3.4,0-6.8-0.1-10.2
			c-0.1-3,0.3-6,1.4-9c0.3-0.8,0.6-1.7,1-2.8C204.9,103.9,204.6,103.5,204.3,103z M305.5,76c-0.5-0.1-0.8-0.2-1-0.3
			c-3.1-1.1-6.3-2.2-9.3-3.5c-2.1-0.9-4.2-2-6.2-3c-0.9-0.4-1.2-1.2-1.3-2.2c-0.4-3.3-0.4-6.7-0.2-10c0.3-6,1-12,2.8-17.8
			c0.7-2.2,1.6-4.4,2.3-6.7c1.1-3.7,3.4-6.7,5.9-9.7c0.9-1,2-1.9,3.1-2.8c3.7-2.6,8-3.5,12.5-3.9c3.6-0.3,7.1-0.6,10.7-0.8
			c1.8-0.1,3.6,0,5.4,0c0.7,0,1.3,0.1,1.6,0.8c0.3,0.8,0.9,0.8,1.7,0.7c1.2,0,2.5,0,3.7,0.1c1.2,0.1,2.4,0.5,3.7,0.6
			c3.3,0.4,6.6,0.8,9.6,2c0.6,0.2,1.3,0.4,2,0.6c2.2,0.7,4.4,1.3,6,2.9c1.9,1.9,3.7,3.9,5.5,5.9c0.8,0.9,1.6,1.8,2.1,2.8
			c2.1,4.2,3.1,8.7,3.9,13.2c1,5.4,0.7,10.9,1,16.4c0,0.7-0.2,1.4-0.3,2c-1.5,0.2-2.7,0.2-3.9,1c-1.3,0.9-2.7,1.7-4.2,2.2
			c-3.6,1.2-7.3,2.3-10.9,3.4c-1.4,0.4-2.7,1-4.2,1.5c-0.6-0.6-1.2-1.3-1.8-1.9c-3.2-3.7-7.1-6.4-12.4-7.1c-2-0.3-3.9-0.9-5.9-1.1
			c-2.2-0.3-4.4-0.4-6.5,0.4c-1,0.4-2,0.6-3.1,0.6c-3,0-5.8,1-8.2,2.5c-1.2,0.7-2.3,1.9-2.8,3.2c-0.7,1.6-0.8,3.3-1.1,5
			C305.6,74.2,305.6,75,305.5,76z M320,91.3c-0.3-0.2-0.5-0.3-0.7-0.5c-3.3-3.2-6.1-6.8-7.4-11.2c-0.3-1.1-1-2.1-1.2-3.2
			c-0.3-2.3-0.3-4.7,0.4-7c0.5-1.8,1.6-3.1,3.5-3.4c1.7-0.3,3.4-0.4,5.1-0.5c1.2-0.1,2.3-0.1,3.4-0.8c0.4-0.3,1.1-0.4,1.7-0.3
			c1.8,0.2,3.5,0.5,5.2,0.9c3.4,0.8,6.6,1.9,9.2,4.1c1.6,1.3,2.7,2.8,3.9,4.3c1.4,1.8,2.8,3.7,3.3,6c0.3,1.4,0.7,2.9,1.3,4.2
			c0.8,2.1,1.2,4.3,1.4,6.6c0.3,2.8-1.3,5.6-4,6.9c-1.7,0.8-3.5,1.1-5.3,1.4c-2.6,0.4-4.9-0.5-7.2-1.2c-2.8-0.9-5.5-2.2-8.2-3.4
			c-0.6-0.2-1-0.6-1.6-1c3.4-2.3,4.9-5.8,7.7-8.3c1.3,1.3,2.6,2.4,3.7,3.6c1.6,1.8,3.6,3.2,4.9,5.2c0.9,1.5,2.8,1.5,4.4,0.2
			c-3.2-4.7-7.6-8.5-11.3-12.9c0.3-0.3,0.7-0.7,1-1.1c0.4-0.7,1-1.6,0.9-2.3c-0.2-1.6-0.7-3.2-1.2-4.7c-0.1-0.4-0.6-0.7-1-1.1
			c-1.8-1.5-4-1.4-6.2-0.8c-1.8,0.5-3.3,1.6-3.8,3.3c-0.7,2.6,0.1,6,3.6,7.6c0.6,0.2,1.1,0.5,1.7,0.9
			C324.7,85.8,322.4,88.5,320,91.3z M310.9,88.3c0.7,0.8,1.2,1.6,1.8,2.2c1.3,1.3,2.5,2.6,3.9,3.7c5,3.6,10.7,6,16.9,7.4
			c3.9,0.8,7.7,0.2,11.4-1c2.7-0.8,4.4-2.8,6.3-4.7c2-2,2.5-4.4,2.5-6.9c0-0.5,0-1.1,0.1-1.7c4.2-0.8,7.9-3.2,12.5-3.4
			c-1.6,2.5-3,4.9-4.9,7c-1.3,1.5-2.6,3.1-4,4.6c-2.4,2.8-5.6,4.6-8.3,7c-0.2,0.2-0.5,0.2-0.8,0.4c-1.3,0.7-2.6,1.2-3.7,2
			c-2.7,1.9-5.9,2.1-9,2.5c-1.7,0.2-3.3,0.2-5,0.3c-0.4,0-0.8,0.2-1.2,0.2c-2.4-0.4-4.9-0.5-7.1-1.3c-3.9-1.2-7.8-2.4-11.3-4.4
			c-1.6-0.9-3.2-1.8-4.8-2.7c-1.8-1-2.9-2.7-4.4-4.1C304.2,92.3,307.3,90.2,310.9,88.3z M367.9,27.7c-1.4-1.6-3-2.8-3.9-4.4
			c-1.2-2.2-3-3.4-5.2-4.2c-1.8-0.7-3.7-1.2-5.5-1.8c-1.2-0.4-2.4-0.8-3.5-1.2c1-2.5,2.1-4.7,4.1-6.5c1.6-1.4,3.2-2.9,4.9-4.2
			c0.7-0.6,1.7-1,2.6-1.5c0.3,0.4,0.6,0.7,0.7,1c0.4,2.1,1.8,3.8,2.8,5.6c0.2,0.4,0.5,0.9,0.7,1.3c0.5,0.9,0.9,1.9,1.4,2.8
			c1.6,3,2.9,6.2,2,9.7C368.6,25.3,368.3,26.3,367.9,27.7z M293.5,22.6c-0.4-1-0.7-1.9-1-2.7c-0.9-2.4-1.8-4.8-2.6-7.3
			c-0.8-2.5-1.5-5-1.2-7.7c0.1-0.7,0.2-1.5,0.3-2.2c2-0.5,3.6-0.3,5,0.9c0.4,0.4,0.8,0.7,1.3,1.1c1.6,1.4,3.2,3,4.9,4.3
			c2,1.7,3.3,3.7,3.5,6.4C299.6,17,296.5,19.6,293.5,22.6z M288.9,73.3c4.4,1,16.7,5.7,17.8,6.8c-1,0.8-1.7,1.1-3.5,1.5
			c-2.3,0.5-4.7,0.9-6.8,2c-0.8,0.4-1.7,0.7-2.7,1.2C291.4,81.2,289.7,77.5,288.9,73.3z M349.2,74.3c1-0.5,1.8-0.9,2.8-1.3
			c2.5-0.9,5-1.8,7.6-2.6c0.8-0.3,1.6-0.7,2.4-0.8c2-0.2,3.8-0.9,5.5-1.9c0.9-0.5,1.8-1,2.8-1.6c0.3,2-0.1,4-0.4,5.7
			c-2.5,0.8-4.9,1.5-7.3,2.3c-1.8,0.6-3.5,1.2-5.2,1.7c-2.2,0.6-4.5,1.2-6.6,1.7C350.1,76.4,349.7,75.4,349.2,74.3z M351.6,80.1
			c1.3-0.4,2.4-0.7,3.6-1c3.1-1,6.4-1.4,9.4-2.7c1.4-0.6,2.8-1.2,4.5-1.1c0.1,2.4-1,4.3-1.7,6.2c-0.8-0.1-1.4-0.3-2-0.1
			c-2.7,0.6-5.4,1-7.9,2.2c-1.1,0.5-2.3,0.8-3.4,1.1c-0.7,0.2-1.2,0.1-1.4-0.6C352.4,82.8,352,81.6,351.6,80.1z M295.2,87.5
			c4-2.8,8.5-3.1,12.7-4.5c0.5,1,0.8,1.9,1.2,2.7c-3.4,2.3-6.7,4.5-10.1,6.9C297.7,91,296.4,89.2,295.2,87.5z M326.9,73.6
			c0.7,0.4,2,0.2,2.3,1.2c0.4,1.3,0.8,2.6,0.9,4c0.1,1-0.7,1.4-1.6,0.9c-1.5-0.7-2.2-2-2.5-3.5C325.7,75.1,325.9,74.3,326.9,73.6z"
			/>
		<path class="st0" d="M320,91.3c2.4-2.8,4.7-5.5,7.1-8.4c-0.6-0.3-1.1-0.6-1.7-0.9c-3.4-1.5-4.3-5-3.6-7.6c0.5-1.7,2-2.8,3.8-3.3
			c2.2-0.6,4.4-0.6,6.2,0.8c0.4,0.3,0.9,0.6,1,1.1c0.5,1.6,1,3.1,1.2,4.7c0.1,0.7-0.5,1.5-0.9,2.3c-0.2,0.4-0.7,0.8-1,1.1
			c3.7,4.4,8.1,8.2,11.3,12.9c-1.6,1.3-3.5,1.2-4.4-0.2c-1.3-2-3.3-3.5-4.9-5.2c-1.1-1.2-2.4-2.3-3.7-3.6c-2.9,2.5-4.4,6-7.7,8.3
			c0.6,0.4,1.1,0.8,1.6,1c2.7,1.2,5.4,2.5,8.2,3.4c2.3,0.7,4.6,1.7,7.2,1.2c1.8-0.3,3.7-0.6,5.3-1.4c2.7-1.3,4.3-4.1,4-6.9
			c-0.2-2.2-0.6-4.4-1.4-6.6c-0.5-1.4-0.9-2.8-1.3-4.2c-0.6-2.3-1.9-4.2-3.3-6c-1.2-1.5-2.3-3.1-3.9-4.3c-2.7-2.2-5.8-3.4-9.2-4.1
			c-1.7-0.4-3.5-0.6-5.2-0.9c-0.5-0.1-1.3,0-1.7,0.3c-1.1,0.8-2.2,0.8-3.4,0.8c-1.7,0.1-3.5,0.1-5.1,0.5c-2,0.4-3.1,1.7-3.5,3.4
			c-0.6,2.3-0.7,4.7-0.4,7c0.2,1.1,0.9,2.1,1.2,3.2c1.3,4.4,4.1,8,7.4,11.2C319.5,91,319.7,91.1,320,91.3z"/>
		<path class="st0" d="M310.9,88.3c-3.6,1.9-6.7,3.9-9.2,7c1.4,1.4,2.5,3.1,4.4,4.1c1.6,0.9,3.2,1.8,4.8,2.7c3.5,2,7.5,3.2,11.3,4.4
			c2.3,0.7,4.7,0.9,7.1,1.3c0.4,0.1,0.8-0.1,1.2-0.2c1.7-0.1,3.3-0.1,5-0.3c3.1-0.4,6.3-0.6,9-2.5c1.2-0.8,2.5-1.4,3.7-2
			c0.3-0.1,0.6-0.2,0.8-0.4c2.7-2.4,6-4.2,8.3-7c1.3-1.5,2.6-3.1,4-4.6c1.9-2.1,3.3-4.5,4.9-7c-4.6,0.2-8.3,2.6-12.5,3.4
			c0,0.6-0.1,1.1-0.1,1.7c0,2.5-0.5,4.9-2.5,6.9c-1.8,1.8-3.6,3.8-6.3,4.7c-3.7,1.1-7.5,1.8-11.4,1c-6.3-1.4-11.9-3.8-16.9-7.4
			c-1.5-1-2.7-2.4-3.9-3.7C312.1,89.9,311.6,89.2,310.9,88.3z"/>
		<path class="st0" d="M367.9,27.7c0.4-1.4,0.8-2.4,1-3.4c0.9-3.6-0.4-6.7-2-9.7c-0.5-0.9-0.9-1.9-1.4-2.8c-0.2-0.4-0.4-0.9-0.7-1.3
			c-1-1.8-2.4-3.5-2.8-5.6c-0.1-0.3-0.4-0.5-0.7-1c-0.9,0.5-1.9,0.9-2.6,1.5c-1.7,1.3-3.3,2.8-4.9,4.2c-2,1.8-3.1,4-4.1,6.5
			c1.2,0.4,2.4,0.8,3.5,1.2c1.8,0.6,3.7,1.1,5.5,1.8c2.3,0.8,4.1,2.1,5.2,4.2C364.8,24.9,366.4,26.1,367.9,27.7z"/>
		<path class="st0" d="M293.5,22.6c3-3,6.1-5.6,10.1-7.1c-0.1-2.7-1.4-4.7-3.5-6.4c-1.7-1.4-3.3-2.9-4.9-4.3
			c-0.4-0.4-0.8-0.7-1.3-1.1c-1.4-1.2-3-1.4-5-0.9c-0.1,0.7-0.2,1.4-0.3,2.2c-0.2,2.7,0.5,5.2,1.2,7.7c0.8,2.4,1.7,4.8,2.6,7.3
			C292.8,20.7,293.1,21.6,293.5,22.6z"/>
		<path class="st0" d="M288.9,73.3c0.8,4.2,2.5,7.9,4.8,11.5c1-0.4,1.8-0.7,2.7-1.2c2.2-1.1,4.5-1.5,6.8-2c1.8-0.4,2.5-0.6,3.5-1.5
			C305.6,79,293.3,74.3,288.9,73.3z"/>
		<path class="st0" d="M349.2,74.3c0.5,1.1,1,2.1,1.5,3.3c2.2-0.5,4.4-1.1,6.6-1.7c1.8-0.5,3.5-1.2,5.2-1.7c2.4-0.8,4.8-1.5,7.3-2.3
			c0.3-1.8,0.6-3.7,0.4-5.7c-1,0.6-1.9,1.1-2.8,1.6c-1.7,1-3.5,1.7-5.5,1.9c-0.8,0.1-1.6,0.5-2.4,0.8c-2.5,0.9-5.1,1.7-7.6,2.6
			C351,73.4,350.1,73.9,349.2,74.3z"/>
		<path class="st0" d="M351.6,80.1c0.4,1.5,0.8,2.7,1.1,4c0.2,0.7,0.7,0.8,1.4,0.6c1.1-0.4,2.3-0.6,3.4-1.1c2.5-1.2,5.2-1.6,7.9-2.2
			c0.6-0.1,1.2,0.1,2,0.1c0.8-1.9,1.8-3.9,1.7-6.2c-1.6-0.1-3.1,0.5-4.5,1.1c-3,1.3-6.3,1.7-9.4,2.7
			C354.1,79.5,352.9,79.8,351.6,80.1z"/>
		<path class="st0" d="M295.2,87.5c1.2,1.7,2.5,3.5,3.8,5.2c3.5-2.4,6.8-4.6,10.1-6.9c-0.4-0.8-0.8-1.7-1.2-2.7
			C303.6,84.5,299.1,84.8,295.2,87.5z"/>
		<path class="st0" d="M326.9,73.6c-1,0.7-1.2,1.5-1,2.6c0.4,1.5,1,2.8,2.5,3.5c1,0.5,1.8,0.1,1.6-0.9c-0.2-1.3-0.5-2.7-0.9-4
			C328.8,73.7,327.6,74,326.9,73.6z"/>
		<path d="M317.3,45.6c0.3-3.1-0.8-5.9-2.4-8.7c-0.2-0.4-0.4-0.8-0.6-1.2c-0.9-2-2.6-2.9-5-2.5c-1.4,0.2-2.7,0.3-4,0.7
			c-2.6,0.7-5,1.8-6,4.4c-0.3,0.7-0.4,1.7-0.2,2.4c1,3.7,2.2,7.5,4.9,10.5c0.8,0.9,1.9,1.7,3,2.5c0.4,0.3,1,0.5,1.5,0.4
			c2.4-0.3,4.9-0.3,6.8-2.1c1.6-1.5,2.1-3.3,2.1-5.3C317.3,46.4,317.3,46.1,317.3,45.6z M313,47.9c0,0.4,0,0.5,0,0.6
			c0,0.8-0.1,1.6-0.9,2c-0.8,0.5-2.1,0.4-2.8-0.4c-1.2-1.3-2.6-2.5-3.4-4c-1.1-2-1.7-4.2-2.4-6.4c-0.5-1.4,0.3-2.7,1.7-3
			c1.1-0.2,2.2-0.4,3.3-0.7c1.4-0.3,1.7-0.1,2.1,1.3c0.3,0.9,0.7,1.8,1.1,2.7c0.2,0.6,0.5,1.2,0.7,1.8C312.9,44,313.6,46,313,47.9z"
			/>
		<path d="M348.8,50.6c3.2,0.1,6.1-2,7-4.9c1.1-3.9,0.3-7.4-2.2-10.5c-0.7-0.8-1.3-1.7-2.4-2.3c-2.1-1.3-4.2-0.7-6.3-0.4
			c-1.6,0.3-3.3,0.8-4.8,1.9c-2.1,1.6-2.6,3.5-2.3,5.8c0.5,3.8,2.8,6.6,5.6,9.1C344.9,50.4,346.8,50.7,348.8,50.6z M352.2,44.2
			c-0.1,0.5-0.2,1.1-0.4,1.6c-0.4,1.5-1.7,2.2-3.1,1.7c-0.7-0.2-1.5-0.5-2-1c-2.6-2.3-4.5-4.9-4.4-8.5c0-1.3,0.4-2,1.8-2.6
			c0.7-0.3,1.3-0.5,2-0.6c1.3-0.2,2.4,0.1,3.1,1.3c0.4,0.7,0.9,1.4,1.3,2.1C351.6,40.1,352.1,42,352.2,44.2z"/>
		<path class="st0" d="M294.1,46.4c0.3,0.2,0.5,0.4,0.6,0.4c0.2,0,0.3-0.2,0.5-0.3c-0.1-0.1-0.3-0.4-0.4-0.4
			C294.7,46,294.5,46.2,294.1,46.4z"/>
		<path class="st6" d="M313,47.9c0.7-1.9-0.1-3.9-0.6-5.9c-0.2-0.6-0.5-1.2-0.7-1.8c-0.4-0.9-0.8-1.8-1.1-2.7
			c-0.4-1.3-0.6-1.5-2.1-1.3c-1.1,0.2-2.2,0.4-3.3,0.7c-1.4,0.3-2.2,1.5-1.7,3c0.7,2.2,1.4,4.4,2.4,6.4c0.8,1.5,2.2,2.8,3.4,4
			c0.7,0.7,1.9,0.8,2.8,0.4c0.8-0.5,1-1.2,0.9-2C313,48.4,313,48.3,313,47.9z"/>
		<path class="st6" d="M352.2,44.2c0-2.1-0.5-4.1-1.7-5.9c-0.4-0.7-0.9-1.4-1.3-2.1c-0.7-1.2-1.8-1.5-3.1-1.3
			c-0.7,0.1-1.4,0.3-2,0.6c-1.3,0.6-1.8,1.3-1.8,2.6c0,3.5,1.8,6.2,4.4,8.5c0.5,0.5,1.3,0.8,2,1c1.5,0.5,2.8-0.3,3.1-1.7
			C351.9,45.2,352,44.7,352.2,44.2z"/>
		<ellipse cx="347.3" cy="40.9" rx="2" ry="8.8"/>
		<ellipse cx="309" cy="43.7" rx="2" ry="8.8"/>
		<g>
			<g>
				<path d="M324.6,16.2c3.3,6.2,2.4,13.4,1.5,20c-0.2,1.6,2.1,1.8,2.8,0.8c2.7-3.9,3.7-8.7,4.1-13.4c0.1-1.2,0.2-2.3,0.2-3.5
					c0.1-1.1,0.2-2.3-0.1-3.5c-0.3-1.1-1.1-2.2-2.2-2.5c-0.5-0.2-1.1-0.2-1.7,0c-0.2,0-0.6,0.1-0.7,0.2c-0.4,0.3-0.3-0.3,0.1,0.4
					c-0.8,0.6-1.6,1.2-2.4,1.8c1.1,1.4,1.7,3.1,1.7,4.9c1-0.1,2-0.3,2.9-0.4c-0.4-1.4-0.6-2.8-0.4-4.3c-0.9,0.1-1.8,0.2-2.7,0.4
					c0.6,0.8,0.2,2.3,0.1,3.3c-0.1,1.4-0.2,2.7-0.3,4.1c1,0,2,0,3,0c-0.2-1.7-0.1-3.3,0.3-5c-1-0.1-2-0.3-2.9-0.4
					c-0.3,2.5-0.4,4.9-0.3,7.4c0.1,1.9,3.1,1.9,3,0c-0.1-2.5,0-5,0.3-7.4c0.2-1.7-2.6-2-2.9-0.4c-0.4,1.9-0.6,3.8-0.4,5.8
					c0.2,1.9,2.9,2,3,0c0.1-1.6,0.2-3.3,0.3-4.9c0.1-1.4,0.2-2.8-0.6-3.9c-0.7-0.9-2.5-1.1-2.7,0.4c-0.3,2-0.2,4,0.4,5.9
					c0.5,1.6,3,1.3,2.9-0.4c0-2.6-0.9-5-2.6-7c-1.1-1.3-3.3,0.4-2.4,1.8c0.5,0.8,1.4,1.3,2.4,1.2c0.5,0,0.9-0.3,1.4-0.3
					c0.3,0,0.3,0,0.5,0.4c0.2,0.9,0,2.1,0,3c-0.1,1.1-0.1,2.2-0.2,3.3c-0.4,4.1-1.3,8.2-3.7,11.7c0.9,0.3,1.9,0.5,2.8,0.8
					c1-7.2,1.6-14.8-1.9-21.5C326.3,13,323.7,14.5,324.6,16.2L324.6,16.2z"/>
			</g>
		</g>
		<g>
			<g>
				<path d="M320,31.9c6-1.3,12.2-0.7,17.9,1.6c0.7,0.3,1.6-0.3,1.8-1c0.2-0.9-0.3-1.5-1-1.8c-6.2-2.5-13-3.1-19.5-1.6
					C317.3,29.4,318.1,32.3,320,31.9L320,31.9z"/>
			</g>
		</g>
		<g>
			<g>
				<path d="M314.7,25.8c9.4-1,19.6-2,28.3,2.6c1.7,0.9,3.2-1.7,1.5-2.6c-9.2-4.9-19.8-4.1-29.8-3C312.8,23,312.7,26,314.7,25.8
					L314.7,25.8z"/>
			</g>
		</g>
	</g>
	<g>
		<defs>
			<path id="SVGID_00000126293506713053468330000002088528019837506736_" d="M375,52.5c-0.2-2.5-0.3-5.1-0.8-7.5
				c-0.8-3.8-1.9-7.5-2.9-11.3c-0.2-0.8-0.4-1.5-0.3-2.4c0.2-2.4,0.2-4.8,1-7.2c0.6-1.8-0.1-3.5-0.6-5.2c-0.6-1.9-1.6-3.7-2.3-5.6
				c-1.1-3.3-3.5-6-4.4-9.4c-0.4-1.4-1.5-2.6-3-3.2c-0.7-0.3-1.4-0.3-2.2,0.2c-0.9,0.6-1.9,0.9-2.8,1.5c-1.3,1-2.5,2-3.8,3.1
				c-0.5,0.4-0.9,0.9-1.4,1.3c-3,2.3-5.1,5-6.6,8.4c-1-0.1-2.1-0.2-3.1-0.4c-3.2-0.6-6.5-0.6-9.5-1.8c-1.2-0.5-2.5-0.6-3.8-0.5
				c-4.1,0.3-8.2,0.6-12.3,0.9c-3.1,0.3-6.2,0.6-9.4,0.9c-0.2-0.5-0.5-1.1-0.6-1.7c-0.1-1.1-0.7-2-1.4-2.7c-2.5-2.4-5-4.9-7.5-7.2
				c-0.6-0.6-1.4-1-2.1-1.5c-2.5-1.7-5.3-1.5-8.1-0.5c-1,0.4-1.8,1-2,2c-0.2,1-0.5,2.1-0.5,3.1c0,2.5,0.3,4.9,1.1,7.3
				c0.9,2.7,1.9,5.4,2.9,8c0.2,0.6,0.5,1.2,0.6,1.9c0.1,1.2,0.6,2.2,1.9,2.9c-2.6,4.1-3.6,8.5-5.4,12.7c-2.2-0.6-4.5-1.1-6.7-1.7
				c-5.1-1.1-10.2-2.3-15.3-3.4c-1.7-0.4-3.5-0.4-5.3-0.7c-6.3-0.8-12.7-1.7-19-2.5c-8.2-1-16.5-1.8-24.8-2.3
				c-8.7-0.5-17.3-1.2-26-1.6c-5.2-0.3-10.5-0.3-15.7-0.2c-13.5,0.3-27.1,0.6-40.6,1.1c-8.1,0.3-16.2,0.8-24.3,1.3
				c-1.7,0.1-3.3,0-5,0.1c-7.2,0.2-14.3,0.3-21.5,0.6c-6,0.3-11.9,0.8-17.9,1.3c-4.2,0.4-8.4,0.9-12.6,1.5c-1.3,0.2-2.6,0.6-3.8,0.9
				c-1.2,0.3-2.2,0.3-3.5,0c-1.6-0.4-3.3-0.2-5-0.1c-2.9,0.2-5.8,0.4-8.7,0.7c-2.4,0.2-4.6,1.1-6.6,2.2c-2.8,1.6-5.7,3.3-7.5,5.9
				c-1.7,2.5-3.3,5.2-4.6,7.9c-1.3,2.9-2.4,5.9-3.2,9C6.5,63.3,5.5,68,4.5,72.7c-0.1,0.6-0.1,1.2-0.2,1.8c-0.6,4-1.3,8-1.7,12
				c-0.8,7.1-1.3,14.3-2.2,21.4c-0.5,4.5-0.3,8.9-0.3,13.4c0,1.7,0.3,3.4,0.5,5.1c0,0.2,0,0.5,0.2,0.6c1.7,2.6,2,5.7,2.8,8.5
				c0.8,2.8,2.3,5.4,4.2,7.6c2.6,3,5.7,5.6,8.2,8.6c1.6,1.9,3.8,2.8,6.1,3.5c0.5,0.2,1.1,0.2,1.7,0.2c0.6,0,1.2-0.2,1.8,0
				c4,0.9,6.3-1.7,8.2-4.2c1.1-1.4,1.4-3.3,1.8-5c0.8-2.9,0.9-5.9,1.4-8.8c0.7-4.6,0.8-9.1,1-13.7c0.1-1.5-0.2-3-0.2-4.4
				c-0.1-1.9-0.3-3.7-0.2-5.6c0.1-4.7,0.3-9.4,0.3-14c0-3.3,0-6.7-0.2-10c-0.4-4.7,0-9.3,0.2-14c0.1-1.3,0.3-2.6,0.4-3.9
				c0.3-2.3,0.7-4.6,0.9-6.9c0.1-1.9,1.4-3.2,2.3-4.6c0.4-0.6,1.4-0.9,2.1-0.6c1.4,0.7,2.7,1.6,2.7,3.3c0.2,4.4,0.2,8.8-0.1,13.2
				c-0.2,2.8-0.2,5.6-0.4,8.4c-0.1,2-0.4,3.9-0.6,5.9c-0.1,1.6-0.3,3.2-0.3,4.8c-0.5,8.7-0.8,17.5-1.4,26.2c-0.3,5.5-1,11-1.3,16.5
				c-0.4,6.9-0.6,13.9-1.2,20.8c-0.6,7.6-1.4,15.2-2.1,22.7c-0.4,3.7-0.8,7.5-1.4,11.2c-0.7,4.8-1.6,9.5-2.3,14.3
				c-0.5,3.6-0.9,7.2-1.4,10.9c-0.3,2.3-0.7,4.6-1.1,6.9c-0.6,4.2-1.3,8.3-1.9,12.5c-0.5,3.2-0.9,6.4-1.4,9.5
				c-0.4,2.6,0.4,5,1.6,7.3c0.7,1.2,1.9,1.9,3.3,2.3c0.4,0.1,0.8,0.3,1.2,0.3c2.4,0.4,4.9,0.8,7.5,1.2c0.3,0.4,0.6,1,1,1.6
				c1.6,1.9,3.9,2.4,6.4,2c1.2-0.2,1.8,0,2.5,0.9c1.9,2.4,4.9,2.9,7.9,1.5c0.8-0.4,1.2-1,1.4-1.9c0.4-2.4,0.9-4.9,1.4-7.3
				c0.1-0.7,0.2-1.3,0.2-2c-0.1-5.1-0.2-10.1-0.3-15.2c-0.1-3.1-0.1-6.1-0.2-9.2c-0.2-6.8-0.2-13.6,0.5-20.5c0.4-4.7,1.2-9.3,1.6-14
				c0.4-4,1.2-8,1.9-12c0.5-2.6,0.9-5.2,1.2-7.9c0.9-8,1.8-15.9,2.5-23.9c0.6-6.8,1-13.5,1.2-20.3c0.2-6.9-0.2-13.7-0.2-20.6
				c0-3.3,0.2-6.6,0.4-9.9c0.1-0.9,0-1.6-1-2.1c-0.7-0.3-0.8-0.9-0.8-1.5c0.1-2.5,0.2-5.1,0.5-7.6c0.2-2.1,1.8-3.3,3.8-4
				c1.1-0.4,1.8-0.1,2.4,0.8c1.8,2.6,2.3,5.6,1.5,8.7c-1.1,4.7-1.7,9.5-1.3,14.3c0,0.6,0.1,1.2,0.1,1.8c0.2,3.4,0.5,6.8,0.7,10.2
				c0.2,3.4,0.4,6.8,0.5,10.2c0.1,4.8,0,9.6,0.1,14.3c0,3,0.2,6,0.2,9.1c0,4.5-0.2,8.9-0.3,13.4c-0.2,7-0.5,14-0.4,20.9
				c0.1,6.5-1,12.8-2.1,19.2c-0.7,4.1-1.3,8.2-2,12.3c-0.4,2.4-1.1,4.8-1.6,7.1c-0.4,2-0.7,3.9-1.1,5.9c-0.7,3.9-1.4,7.7-2.1,11.6
				c-0.5,2.6-0.8,5.1-1.4,7.7c-0.7,3.6-1.5,7.3-2.3,10.9c-0.2,1.2-0.3,2.4-0.6,3.6c-0.6,2.1,1.2,4.2,4,4.4c2.4,0.1,4.8,0.2,7-1.4
				c0.3,1.7,1.3,2.7,2.8,3.3c1.2,0.5,2.4,0.9,3.6,0.7c0.9,0.6,1.5,1.4,2.4,1.7c0.9,0.3,2.1,0.3,3,0c1.4-0.6,2.7-1.5,3.8-2.4
				c1.4-1.3,1.9-2.9,2.3-4.7c0.6-3.3,1-6.5,1.3-9.8c0.5-5.6,0.9-11.2,1.1-16.8c0.2-6.3,0.3-12.7,1-19c0.7-5.8,1.5-11.6,2.3-17.4
				c1-7.8,2-15.7,2-23.6c0.1-7.5,0.2-15.1,0.4-22.6c0.1-3.5,0.6-7,0.8-10.6c0.5-6.9,0.4-13.9,0.1-20.8c-0.2-3.8-0.2-7.6-0.3-11.4
				c-0.1-4.3-0.3-8.7-0.4-13c0-0.4,0-0.8,0.1-1.4c1.5,0,3,0,4.4,0c1.9,0,3.8,0.1,5.7,0c3.6-0.2,7.1-0.6,10.7-0.8
				c1.2-0.1,2.4,0.2,3.5,0.2c3.2,0,6.5-0.2,9.7-0.1c4.4,0.2,8.8,0.6,13.2,0.8c3,0.2,6.1,0.2,9.1,0.3c3.2,0,6.4,0.3,9.6,0.9
				c3,0.5,6,0.8,9,1c4,0.3,8,0.5,11.9,0.8c1.8,0.2,3.6,0.5,5.4,0.8c1.7,0.3,3.3,0.6,5,1c0.3,0.1,0.7,0.2,1.2,0.4
				c-0.1,0.7-0.2,1.3-0.4,1.9c-0.9,2.5-1.3,4.9-1.3,7.5c0,3.9,0,7.8-0.1,11.7c0,1.8-0.3,3.5-0.5,5.3c-0.5,4.2-1.1,8.4-1.5,12.7
				c-0.6,5.8-1,11.5-1.6,17.3c-0.7,6.4-1.5,12.7-2.3,19.1c-0.2,1.5-0.6,3.1-0.8,4.6c-1,7.4-2,14.9-3,22.3c-0.5,3.6-1.2,7.1-1.6,10.7
				c-0.6,5.5-1.1,11.1-1.6,16.6c-0.3,2.9-0.6,5.7-0.8,8.6c-0.2,3.2-0.3,6.4-0.5,9.6c-0.2,3-0.6,6.1-0.7,9.1
				c-0.1,2.9,0.2,5.8,0.4,8.7c0.1,1.4,1,2.4,2.2,3.1c1.3,0.7,2.6,1.6,4,2c2.1,0.6,4.4,0.7,6.6-0.2c1.1-0.5,2.1-1,3.1-1.5
				c0.2,0.1,0.4,0.1,0.4,0.2c0.6,1.5,1.7,2.1,3.4,1.9c0.1,0,0.2,0,0.4,0c2.4,0.5,4.1-0.7,5.5-2.3c0.1-0.1,0.2-0.3,0.4-0.4
				c0,0,0.1,0,0.3-0.1c1.5,1.1,3.5,0.9,5.2,0.8c2-0.2,3.8-1.4,4.6-3.3c0.8-1.8,1.1-3.7,1.2-5.7c0.1-1.8,0.3-3.5,0.4-5.3
				c0.2-2.3,0.3-4.5,0.4-6.8c0.2-6.3,0.5-12.5,0.6-18.8c0-2.4-0.3-4.7-0.5-7c-0.1-2.1-0.3-4.2-0.3-6.2c0.1-5.4,0.3-10.9,0.3-16.3
				c0-5.6,0-11.1-0.2-16.6c-0.1-5.3-0.7-10.5-0.1-15.8c1.1-10.2,0.9-20.3,1.1-30.5c0.1-5.4,0-10.8,0-16.1c0-1.6,0.4-3.2,0.4-4.8
				c0.1-3.3,0-6.6,0.1-9.9c0.1-2.3,0.4-4.5,1.3-6.6c0.6-1.4,1-1.7,2.6-1.4c1.9,0.3,3.6,1,5.1,2c0.2,0.2,0.4,0.4,0.5,0.6
				c1.4,3.3,3.1,6.5,3.1,10.3c0,6.9,0.5,13.8,0.9,20.7c0.2,4.1,0.6,8.1,0.8,12.2c0.1,2.8-0.1,5.6-0.2,8.4c-0.1,3-0.3,6.1-0.6,9.1
				c-0.2,1.8-0.6,3.6-0.7,5.4c-0.3,6.4-0.6,12.9-0.8,19.3c-0.2,4.5-0.2,9-0.4,13.5c-0.3,5.7-0.8,11.3-1.3,17
				c-0.3,2.7-0.8,5.5-1.4,8.2c-1,4.9-2.1,9.8-3.3,14.6c-0.8,3.7-1.8,7.5-2.6,11.2c-0.6,2.9-1.2,5.8-1.8,8.6c-0.3,1.5-0.8,3-1,4.6
				c-0.2,1.7-0.3,3.5-0.4,5.3c0,0.3,0,0.5,0.1,0.8c0.2,1.3,0.6,1.6,2.1,1.7c5.1,0.1,10.1,0.1,15.2,0.1c3.6,0,7.2,0.1,10.7,0
				c2.4,0,3.7-1.4,3.5-3.6c0-0.3-0.1-0.7,0.1-0.8c1.4-1.2,1.1-2.8,1-4.2c-0.2-2.5,0.1-4.9,0.8-7.4c0.8-2.6,0.8-5.2,0.8-7.9
				c0-2.1,0.3-4.3,0.4-6.4c0.2-3.5,0.5-6.9,0.7-10.4c0.1-1.4,0-2.9,0-4.3c0.2-7.3,0.5-14.6,0.5-22c0-5.7-0.4-11.3-0.7-16.9
				c0-1.2-0.1-2.3,0-3.5c0-5.7,0.1-11.3,0.1-17c0-7,0.9-14,1.4-20.9c0.3-3.9,0.5-7.8,0.7-11.7c0.2-3.9,0.3-7.8,0.7-11.7
				c0.4-3.8,1.2-7.5,1.9-11.3c0.3-1.8,1.2-3.4,1.1-5.3c0-0.6,0.3-1.3,0.7-1.8c1-1.3,2.1-2.6,3.1-3.9c0.2-0.3,0.5-0.5,0.8-0.6
				c2-0.7,3.9-1.4,5.9-2.1c0.2-0.1,0.4-0.1,0.5-0.1c2.1,0,4.2-0.2,6.2,0c2.7,0.3,5.4-0.3,8-0.4c0.7,0,1.5-0.4,2.2-0.6
				c0.6-0.2,1.1-0.5,1.7-0.6c2.2-0.2,4-1.1,5.5-2.8c1.5,0.9,3,1.6,4.4,2.5c3.3,2.1,6.9,3.6,10.7,4.8c1,0.3,1.9,0.8,3,1.1
				c3.3,0.7,6.6,1.4,9.9,1.9c1.1,0.2,2.2-0.1,3.4-0.2c0.8-0.1,1.6-0.4,2.3-0.3c3.2,0.4,6.2-0.5,9.2-1.2c0.9-0.2,1.9-0.6,2.7-1
				c3.3-2,6.8-3.6,9.7-6.1c1.1-1,2.2-1.9,3.4-2.8c2.8-2,4.6-4.8,6.8-7.2c2.4-2.7,4.5-5.7,6-8.9c2.2-4.8,3-9.8,3.3-14.9
				c0.1-2,0.4-4.1,0.4-6.1C375.2,58.6,375.2,55.5,375,52.5z"/>
		</defs>
		<clipPath id="SVGID_00000016798075364855544110000008018388575890961596_">
			<use xlink:href="#SVGID_00000126293506713053468330000002088528019837506736_"  style="overflow:visible;"/>
		</clipPath>
		<g style="clip-path:url(#SVGID_00000016798075364855544110000008018388575890961596_);">
			<path d="M243.3,28.5c-1.5,22.6,2.4,45.5,11.3,66.3c-3.8-22.5-4.7-45.9,1.6-67.8c-5.6-1.8-11.7-2.2-17.4-1"/>
		</g>
		<g style="clip-path:url(#SVGID_00000016798075364855544110000008018388575890961596_);">
			<path d="M218.6,19.1c-2.5,5.1-3,10.9-3.2,16.6c-0.3,6.3-0.4,12.6-0.4,18.9c0.1,13.9,1.5,28.9,11,39.1c-5.8-22-4.6-45.8,3.4-67.1
				c0.3-0.9,0.7-1.9,0.2-2.7c-0.4-0.8-1.3-1.1-2.2-1.3c-4.3-1-8.8-1-13,0.1"/>
		</g>
		<g style="clip-path:url(#SVGID_00000016798075364855544110000008018388575890961596_);">
			<path d="M194.3,17.7c-7.1,11.5-8.5,25.5-9.3,38.9c-0.6,11.5-0.6,24.2,7,32.8c-1.2-12.1-2.3-24.3-1-36.5
				c1.3-12.1,5-24.2,12.5-33.8c-5-1.1-10.5-0.5-15.1,1.8"/>
		</g>
		<g style="clip-path:url(#SVGID_00000016798075364855544110000008018388575890961596_);">
			<path d="M157.5,22.4c0.6,19,3.2,38,7.7,56.4c0.8,3.3,1.8,6.8,4.6,8.7c-6.4-21.3-5.7-44.8,2-65.7c-5.9,1.4-11.9,2.7-17.9,3.7"/>
		</g>
		<g style="clip-path:url(#SVGID_00000016798075364855544110000008018388575890961596_);">
			<path d="M128.4,22.5c-6.2,21.3-3.2,45.1,8,64.3c-5.6-19-1-39.4,3.2-58.7c0.2-0.9,0.4-1.9,0-2.7c-0.6-1.3-2.2-1.6-3.6-1.6
				c-2.8,0-5.6,0.6-8.2,1.8"/>
		</g>
		<g style="clip-path:url(#SVGID_00000016798075364855544110000008018388575890961596_);">
			<path d="M95.7,23.1c-0.8,20.3,3,40.8,10.9,59.5c-3.2-19.2-3.2-38.9,0.1-58.1c0.2-0.9,0.2-2.1-0.5-2.7c-0.3-0.3-0.8-0.3-1.2-0.4
				c-4.4-0.5-9,1-12.4,4"/>
		</g>
		<g style="clip-path:url(#SVGID_00000016798075364855544110000008018388575890961596_);">
			<path d="M67.3,29.2c-0.5,17.2,4,34.5,12.9,49.2c-2.5-17.2-4.9-35.2,0.3-51.8c0.4-1.3,0.8-2.8,0.1-3.9c-0.9-1.5-3-1.4-4.7-0.9
				c-3.6,1-6.9,3.4-9,6.4"/>
		</g>
		<g style="clip-path:url(#SVGID_00000016798075364855544110000008018388575890961596_);">
			<path d="M149.5,119.6c-0.5-17-0.8-34.1-1.1-51.1c2.7,15,6.9,29.8,12.4,44c-4.7,1.8-9.5,3.1-14.4,4.1"/>
		</g>
		<g style="clip-path:url(#SVGID_00000016798075364855544110000008018388575890961596_);">
			<path d="M125.8,116.8c-6.5-11.6-9.8-24.9-9.3-38.2c6.3,10.7,11.2,22.3,14.6,34.2c0.2,0.6,0.3,1.4-0.1,1.8c-0.3,0.3-0.6,0.3-1,0.4
				c-2.8,0.4-5.8,0.1-8.5-0.8"/>
		</g>
		<g style="clip-path:url(#SVGID_00000016798075364855544110000008018388575890961596_);">
			<path d="M274.7,125.5c-9.8-2-19.9-2.9-29.9-2.8c4.8,10.2,13.5,18.6,23.9,23c3.9-6.5,6.6-13.7,7.7-21.2c0.1,1-0.3,2-0.9,2.8"/>
		</g>
		<g style="clip-path:url(#SVGID_00000016798075364855544110000008018388575890961596_);">
			<path d="M267.4,162.5c-7.5-0.4-15,0.2-22.3,1.8c5.3,5.6,11.6,10.1,18.5,13.3c0.6,0.3,1.2,0.5,1.9,0.4c1.2-0.3,1.5-1.8,1.5-3
				c0.3-4.6,0.5-9.2,0.8-13.9c0-0.4,0-0.9-0.4-1c-0.4-0.1-0.6,0.7-0.2,0.6"/>
		</g>
		<g style="clip-path:url(#SVGID_00000016798075364855544110000008018388575890961596_);">
			<path d="M265.9,194c-7.6,0.5-15.3,0.9-22.9,1.1c7.2,5,14.4,9.9,21.6,14.9c0.8,0.6,2,1.2,2.8,0.6c0.5-0.4,0.7-1,0.8-1.6
				c1.4-6.7,1.8-13.6,1-20.4"/>
		</g>
		<g style="clip-path:url(#SVGID_00000016798075364855544110000008018388575890961596_);">
			<path d="M199,122.6c-1.5,1.4-3.8,2-5.8,1.5c9.4,3.6,21-0.6,29.3,5c-8.6,5.2-17.7,9.5-27.2,12.7c-0.9-6.6-1.5-13.2-1.6-19.9"/>
		</g>
		<g style="clip-path:url(#SVGID_00000016798075364855544110000008018388575890961596_);">
			<path d="M188.7,160.3c9.6-0.5,19.2-0.2,28.7,1c-2.1,4.7-7,7.8-12.1,8.9c-5.1,1.1-10.4,0.6-15.5-0.2c-0.6-0.1-1.2-0.2-1.7-0.6
				c-0.4-0.4-0.7-0.9-0.9-1.4c-1.1-3.1-1.4-6.4-0.7-9.6"/>
		</g>
		<g style="clip-path:url(#SVGID_00000016798075364855544110000008018388575890961596_);">
			<path d="M185.3,194.4c9.7,1.1,19.4,2.3,29.1,3.4c0.5,0.1,1,0.1,1.5,0.4c1.2,0.7,1.2,2.6,0.3,3.7c-0.9,1.1-2.3,1.6-3.6,2
				c-8.8,2.9-17.8,5.3-26.9,7c-1,0.2-2.2,0.3-2.9-0.4c-0.6-0.6-0.7-1.5-0.7-2.3c-0.1-4.9,0.8-9.8,2.7-14.3"/>
		</g>
		<g style="clip-path:url(#SVGID_00000016798075364855544110000008018388575890961596_);">
			<path d="M104.6,120.6c-7,2.1-14,4.3-21,6.4c7.1,4.7,14.5,9.4,22.9,10.8c1.4,0.2,3.1,0.2,3.9-0.9c0.4-0.6,0.5-1.4,0.5-2.1
				c0.1-5.6-1.6-11.2-4.7-15.8c-0.4-0.6-0.8-1.1-1.5-1.3c-0.6-0.2-1.5,0.4-1.3,1"/>
		</g>
		<g style="clip-path:url(#SVGID_00000016798075364855544110000008018388575890961596_);">
			<path d="M110.2,152c-8.8,1.3-17.5,3.8-25.8,7.2c7.5,6.5,15.8,11.9,24.8,16.1c0.4-7.6,0.3-15.2-0.2-22.8c-0.6-1.4,1.9-2.7,2.7-1.5
				s-1.4,3-2.4,1.9"/>
		</g>
		<g style="clip-path:url(#SVGID_00000016798075364855544110000008018388575890961596_);">
			<path d="M107.1,192.9c-7.8,0.3-15.5,0.5-23.3,0.8c6,7.1,12.1,14.2,18.1,21.3c0.3,0.4,0.7,0.8,1.2,1c1.4,0.4,2.4-1.4,2.8-2.8
				c1.8-7,2.7-14.3,2.9-21.5"/>
		</g>
		<g style="clip-path:url(#SVGID_00000016798075364855544110000008018388575890961596_);">
			<path d="M44.3,115.8c8.8,3.7,17.5,7.7,26,12.1c-6.5,4.5-13.6,8.2-21,11c-6.4-7.4-8.2-18.4-4.5-27.4c-0.1,0.6-0.3,1.3-0.4,1.9"/>
		</g>
		<g style="clip-path:url(#SVGID_00000016798075364855544110000008018388575890961596_);">
			<path d="M36.3,163.5c8.8,2.2,17.6,4.2,26.4,6.1c1.5,0.3,3.5,1.7,2.5,2.9c-0.2,0.3-0.5,0.4-0.8,0.6c-9,4.6-19.2,7-29.3,6.8
				c-1-5.5-1.2-11.1-0.4-16.6"/>
		</g>
		<g style="clip-path:url(#SVGID_00000016798075364855544110000008018388575890961596_);">
			<path d="M30.2,199.1c0.2-0.3-0.5-0.4-0.6-0.1s0.3,0.6,0.6,0.8c9.6,4.7,19.8,8.3,30.3,10.6c-6.9,5.7-14.7,12.5-23.5,11.1
				c-1.9-0.3-3.9-1.1-5-2.7c-0.9-1.4-1-3.1-1.1-4.8c-0.2-4.9-0.5-9.8-0.7-14.7"/>
		</g>
		<g style="clip-path:url(#SVGID_00000016798075364855544110000008018388575890961596_);">
			<path d="M-1.6,109.5c6.9,3.3,13.7,6.5,20.6,9.8c4.8,2.3,10,4.7,15.3,4C22.9,111.4,11.6,99.5,0.3,87.6c-2.1,8.2-3.3,16.7-3.8,25.1
				"/>
		</g>
		<g style="clip-path:url(#SVGID_00000016798075364855544110000008018388575890961596_);">
			<path d="M-0.4,70.9c10.7,9.1,21.8,18.4,35.1,23c-10.1-6.7-17.6-17.3-20.5-29.1c-0.3-1.3-0.7-2.8-1.8-3.6
				c-1.7-1.3-4.2-0.1-5.7,1.4c-2.2,2.2-3.7,5-4.2,8.1"/>
		</g>
		<g style="clip-path:url(#SVGID_00000016798075364855544110000008018388575890961596_);">
			<path d="M14.3,42.4C19.4,53,26.8,62.5,35.9,70c-4.7-10.9-9.5-22.1-9.6-34c-4,1.1-7.9,2.3-11.9,3.4"/>
		</g>
	</g>
</g>
<g>
	<g>
		<path class="st1" d="M325.5,74.6c0.1,1,0.2,2,0.6,3c0.2,0.5,0.4,1,0.7,1.5c0.3,0.5,0.6,1.1,1.1,1.5c0.8,0.5,1.7,0.3,2.4-0.3
			c0.4-0.3,0.7-0.9,0.8-1.4c0.1-0.5,0.1-1.1,0-1.6c-0.1-0.5-0.2-0.9-0.3-1.4c-0.4-1.1-1-2.1-1.8-2.9c-0.6-0.6-1.6-0.6-2.1,0
			c-0.6,0.6-0.6,1.5,0,2.1c0.1,0.1,0.2,0.2,0.3,0.3c0,0.1,0.1,0.1,0.1,0.2c-0.3-0.2-0.1-0.2,0,0c0.2,0.3,0.3,0.5,0.5,0.8
			c0,0.1,0.1,0.1,0.1,0.2c0.1,0.2-0.1-0.3,0-0.1c0.1,0.2,0.1,0.3,0.2,0.5c0.1,0.3,0.2,0.6,0.2,0.9c0-0.1,0-0.3-0.1-0.4
			c0,0.3,0.1,0.6,0,1c0-0.1,0-0.3,0.1-0.4c0,0.1,0,0.2-0.1,0.3c-0.1,0.3,0.2-0.4,0-0.1c-0.2,0.3,0.2-0.2,0.1-0.1
			c0.1-0.1,0.3-0.2,0.5-0.3c0,0-0.1,0-0.1,0c0.1,0,0.3,0,0.4-0.1c0,0-0.1,0-0.1,0c0.1,0,0.3,0,0.4,0.1c-0.3-0.1,0.6,0.5,0.4,0.2
			c0.3,0.3,0.1,0.1,0,0c-0.1-0.2-0.2-0.3-0.3-0.5c-0.1-0.2-0.2-0.3-0.2-0.5c-0.1-0.3,0.1,0.2,0,0c0-0.1-0.1-0.2-0.1-0.3
			c-0.3-0.7-0.4-1.4-0.5-2.1c0,0.1,0,0.3,0.1,0.4c0-0.2,0-0.4-0.1-0.6c-0.1-0.8-0.7-1.5-1.5-1.5C326.2,73.1,325.5,73.7,325.5,74.6
			L325.5,74.6z"/>
	</g>
</g>
</svg>
