<svg id="Flag" xmlns="http://www.w3.org/2000/svg" xmlns:xlink="http://www.w3.org/1999/xlink" viewBox="0 0 1050 1048.99"><defs><style>.cls-1{fill:none;}.cls-2{clip-path:url(#clip-path);}.cls-3{fill:#fff;}.cls-4{fill:#cc0001;}.cls-5{fill:#010066;}.cls-6{fill:#fc0;}</style><clipPath id="clip-path"><circle class="cls-1" cx="525" cy="523.82" r="525"/></clipPath></defs><g class="cls-2"><rect class="cls-3" x="-43.85" y="-11.19" width="1990" height="1046.41"/><rect class="cls-4" x="-43.82" y="-14.78" width="1988.33" height="75.51"/><rect class="cls-4" x="-43.82" y="132.91" width="1988.33" height="75.51"/><rect class="cls-4" x="-43.82" y="280.6" width="1988.33" height="75.51"/><rect class="cls-4" x="-43.82" y="428.29" width="1988.33" height="75.51"/><rect class="cls-4" x="-43.82" y="575.98" width="1988.33" height="75.51"/><rect class="cls-4" x="-43.82" y="723.67" width="1988.33" height="75.51"/><rect class="cls-4" x="-43.82" y="871.36" width="1988.33" height="75.51"/><rect class="cls-5" x="-43.84" y="-14.76" width="996.31" height="590.8"/><path class="cls-6" d="M230.13,282.85c0-104.71,84.81-189.59,189.42-189.59a188.88,188.88,0,0,1,62.69,10.68,212.46,212.46,0,0,0-117-35c-118,0-213.7,95.76-213.7,213.88s95.67,213.89,213.7,213.89a212.54,212.54,0,0,0,117-35,188.88,188.88,0,0,1-62.69,10.68C314.94,472.45,230.13,387.56,230.13,282.85Z"/><path class="cls-6" d="M662.42,283.37l88.77-38.11c-.18-.86-.4-1.7-.59-2.55l-97.4,3.48,65.46-72.41c-.2-.26-.41-.51-.6-.77l-88,45.83,26.88-95.46-61.35,79.4L579.19,103l-1.7,0-17.86,98.92-61.9-80.76-.39.2,27.53,97.22-88.59-47.81c-.42.52-.84,1.06-1.25,1.59L501.4,245.6s-58.73-1.39-99.44-2.95c0,.12-.06.24-.08.37,37.74,16.58,90,39.75,90,39.75l-89.31,38.44c38.9-.79,98.22-1.87,98.22-1.87l-65.45,72.24,1.38,1.75L524.57,347l-27.68,94.93c.7.35,1.4.73,2.11,1.07l59.73-80.54s12,67.39,17.25,98.09h.29c.81,0,1.6,0,2.4-.06l17.55-98.07,59.64,79.4.42-.21L629.74,346.4l87,45.8c.33-.41.66-.82,1-1.25-22.24-25.32-63.29-71.61-63.29-71.61l95.83,3.1c.19-.8.38-1.6.55-2.41Z"/></g></svg>