<svg id="Layer_1" data-name="Layer 1" xmlns="http://www.w3.org/2000/svg" xmlns:xlink="http://www.w3.org/1999/xlink" viewBox="0 0 2029.08 2207.16"><defs><style>.cls-1{fill:none;}.cls-2{clip-path:url(#clip-path);}.cls-3{clip-path:url(#clip-path-2);}.cls-4{opacity:0.61;}.cls-5{fill:#fff;}.cls-6{fill:#882aae;}</style><clipPath id="clip-path" transform="translate(722.8 908.38)"><rect class="cls-1" x="-4372.42" y="600.06" width="2248" height="2508"/></clipPath><clipPath id="clip-path-2" transform="translate(722.8 908.38)"><path class="cls-1" d="M2347.94,2617.7c-38.6-56.83-34.91-129.28,2.88-187.69,46-71.16,135.83-120.15,182.77-191,45-67.94,44.94-151.29,7.69-220.78s-109.25-125.18-194-159.77c-51.24-20.91-108.78-35.47-148.74-68.22-48.6-39.82-62.7-99.79-108.68-141.51-55.87-50.68-148.28-65.3-234.19-65.84s-173.09,9.93-257.13-2.91c-95.77-14.63-179-58.18-268-89s-196.12-48.2-282.75-10.67c-134.19,58.13-149.25,212.4-268,288.93-60.34,38.88-140.64,52.91-203.29,89.41-68.89,40.13-110.72,105.44-121.53,172s7.3,134.21,40.64,195.23C528.47,2286,576,2341,601,2403.55c19.11,47.69,24.28,97.3,23.88,147.69,29.18,10,55.48,24,76.56,43.15,46,41.72,60.09,101.69,108.69,141.51,40,32.75,97.5,47.31,148.75,68.22,84.77,34.59,156.75,90.27,194,159.76,19.83,37,29,77.92,26.58,118.36,27.45,10.18,53.74,23.49,81,34.11,143.54,56,332.18,32.23,450.22-56.73,34.43-25.94,63-56.6,99.47-80.78s84.22-41.79,130.15-34.35c40.09,6.48,71,30.41,99.6,53.3l146,116.95c44.26,35.45,124.7,60.26,121.44,110.57,88.76-57.92,167.72-128.77,208.36-213.56s38.2-185-25.26-258.74C2448.47,2704.4,2383.2,2669.62,2347.94,2617.7Z"/></clipPath></defs><g id="Layer_4" data-name="Layer 4"><g class="cls-2"><g class="cls-3"><g class="cls-4"><path class="cls-5" d="M361.15-773c-12.92-42.34-31.15-79.3-51.56-104.64-36.93-45.83-56.66-30.22-87.67-17.68C177.06-877.17,197-818.84,134.18-898c-5.27-8.28-16-8.76-20.55-5-3.8,3.16-1.23,12.6.66,20.24.54,2.19,1.13,4.46,1.7,6.7.05.32.05.62.13,1l185.74,751.1c-29.65-17.57-65.62-6.63-92.22,33.16-36.95,55.28-41.76,145-10.74,200.35S285,165,322,109.77C352.8,63.63,356.18-5.71,342.54-60.07L178.85-722c40,5.61,22.47,6.55,44.85-19.73,17.81-20.91,33.05-56.49,57.13-58.67,35.39-3.21,30.61,45,54.74,101.85,8,18.88,18.37,35.53,28.33,40.78C397.66-640,373.11-733.86,361.15-773Z" transform="translate(722.8 908.38)"/><path class="cls-5" d="M1268.52,1176.56a123.61,123.61,0,0,0,27.36,44,234.26,234.26,0,0,0-69.47,2.58c-61.72,12-115.23,44.22-167.07,75.64.18-33.57,15-65.68,20.19-98.92,5-33.24-2.94-72.08-35.68-89.86-15.29-8.19-33.6-10.5-51.48-11.48a423.32,423.32,0,0,0-170.51,25.4,247.13,247.13,0,0,0,34-111c.85-14.64-.1-30.24-9.3-42.68-11.5-15.78-33.79-22.84-55-26.5-71.1-12.82-147.52-1-209.25,32.34,8.47-31.16,34.17-56,52.4-83.67s28.17-64.9,5.45-90c-24.62-27.4-72.68-25.08-111.28-16.2a535.78,535.78,0,0,0-130.09,48.93c25.67-37.21,52.08-76.13,55.7-119.52,3.45-43.23-23.39-91.88-72-102-22.82-4.93-47.06-.6-69.86,4.41A925.73,925.73,0,0,0,149,670.31C193.19,627,222.61,572.23,232.66,515c2.73-14.9,3.8-31.21-5.09-44.27-15.67-23.27-53.14-25-83.57-20.73C69.68,460-1,488.87-57.38,532c9.7-55,93.67-84.27,97.46-139.71,3-46.52-57.14-80.55-110.29-76.9-53.14,3.8-98.92,32.94-141.33,61a366,366,0,0,0,47.85-130.08c3.8-24.14,4.88-49.93-8.42-71.32-19.59-32-66.34-45.15-107.67-40.63s-78.72,23.11-114.74,41.33c27-33.68,43.08-73.84,46.18-114.79,1.44-18.44-.74-39.09-16-51.95C-382.95-6.92-412.88-4.84-438.27.16-495.88,11.58-550.86,32.94-599,62.51c39.35-46.39,48.88-110.87,24.27-164.61-24.77-53.57-82.7-94.66-148.07-104.64A2181.09,2181.09,0,0,1-483.35-237c15.3-1.14,35,1.4,45.12,9.58Q-394.14-248.75-350-270c-26.75,41.49-53.94,91.13-31.8,134.62,20.31,39.52,76.21,57.24,125.47,52.45s93.62-27.39,136.28-49.43c-35.24,19.53-62.52,51.12-69.79,87S-182.69,30-150.11,52.7C-90.26,94.49-2.72,69.09,67.41,42.09,34.2,87.4,9.58,148.79,45.41,192.58c21.83,27.1,62,39.36,99.81,39.4,38,0,74.79-10.4,110.86-20.8-51.46,34.41-49.3,110-2.9,149.45S376.27,404,434.45,379c-9.44,27.3-19,55.81-13,83.78,9.18,43.59,55.07,75.85,104.43,86.85,49.19,11,101.26,4.25,150.87-5.38-38,43.76-67.11,105.1-34.34,152.07,22.74,32.62,70,47.5,113.77,46.16s85.63-16,126.25-30.37c-12.43,30.66-25,62.35-23.43,94.77s21.22,66.56,56,78.36c62,20.85,126.69-36.11,192.7-29.18-42.86,48.09-39.38,122.85,7.58,167.69s132.21,54.79,191,22.08C1267.89,1079.08,1252.83,1131.52,1268.52,1176.56Z" transform="translate(722.8 908.38)"/></g></g></g></g><g id="Layer_8" data-name="Layer 8"><path d="M254,55.07a49.67,49.67,0,0,0-5.82.94,82.57,82.57,0,0,1-20.43,3c-8.48.4-16.91,1.84-25.36,2.76C191,63,179.6,64.19,168.2,65.4l-2.68.28c1.62,11.72,3.51,23.18,4.72,34.71,1.5,14.34,2.43,28.73,3.6,43.1,1.38,16.81,2.61,33.64,4.17,50.43,1.22,13.18,2.9,26.31,4.24,39.48.33,3.26.08,6.58.18,9.87,0,1.37-.58,1.66-1.82,1.73-13.39.76-26.77,1.68-40.16,2.33-7.41.36-14.87.43-22.13-1.52a19.94,19.94,0,0,1-10-5.65c-2.9-3.23-3.68-6.88-1.57-10.73a30.82,30.82,0,0,1,17.93-15.08,68.55,68.55,0,0,1,20.62-3.48c3.92,0,7.83-.55,12-.88-7-14.44-7.86-29.73-10.45-44.65-2.21-12.69-5.11-25.26-7.33-38-1.58-9-2.57-18.18-3.76-27.29-.9-6.93-1.65-13.88-2.65-20.79a2.86,2.86,0,0,0-2.24-1.64A100.92,100.92,0,0,0,119.12,79c-17.37,3.39-34.71,7-52.07,10.38-4.79.94-9.66,1.51-14.45,2.25.94,4.54,2.14,9,2.75,13.53,2.53,18.89,4.9,37.79,7.29,56.69Q64.86,179.42,67,197c1.31,10.87,2.72,21.73,3.74,32.63A22.39,22.39,0,0,1,69.36,238a6.73,6.73,0,0,1-6.91,5c-12-.24-23.62,2.54-35.41,4a56.42,56.42,0,0,1-12.59.43c-7.84-.8-13.1-5.83-14.11-13.63-1.8-13.87,3-25.58,15.67-31.16,3.6-1.59,7.8-2,11.78-2.49,4.81-.64,9.68-.86,14.79-1.29-1.19-5.25-2.48-10-3.3-14.75-2.53-14.87-4.86-29.78-7.3-44.68-2.36-14.39-4.79-28.76-7.12-43.16-2.51-15.47-5.05-30.94-7.35-46.45-.85-5.74-.9-11.6-1.57-17.37-.33-2.82-1.28-5.57-1.86-8.38a37.3,37.3,0,0,1-.37-3.8c4.49-.38,8.75-.76,13-1.07,6-.45,12.13-.66,18.16-1.32,11.15-1.22,22.25.05,33.37.25q21.63.38,43.27-.2c10.62-.29,21.23-1.17,31.82-2.13,14.44-1.32,28.86-2.89,43.28-4.49,14.25-1.57,28.47-3.4,42.72-5,15.17-1.68,30.37-3.14,45.54-4.79,2.73-.3,5.41-1,8.61-1.67,0,3.17.42,6.2.08,9.14-1,8.88-2.56,17.7-3.44,26.59-.7,7.12-.58,14.32-1.09,21.46-.73,10-2,20-2.47,30-.52,12-.72,23.94-.42,35.9q.54,21.48,2.22,42.93c1.27,16,3.23,32,4.75,48.07a49.57,49.57,0,0,1-.09,9.82c-.52,5-4.21,7.57-8.53,8.54A156.11,156.11,0,0,1,267,235c-5,.53-9.93.78-14.9,1a118.47,118.47,0,0,1-31.22-2c-2.85-.61-5.42-2.55-8.08-4-1.6-.85-1.45-2.14-.85-3.64,2-4.89,5.43-8.43,9.52-11.57,10.85-8.31,23.11-11.45,36.61-10.3,2.43.21,4.88.32,7.32.46a2,2,0,0,0,.53-.19c-3.37-10-2.19-20.51-3.26-30.77-1.87-17.86-4-35.7-5.68-53.58-1.2-13-1.92-26.08-2.56-39.14C254.05,72.79,254.14,64.28,254,55.07Zm15,151.41c-1.12,0-1.74.06-2.35,0-5-.24-9.93-.52-14.89-.73-11.94-.49-22.12,4.06-31.1,11.42-2.78,2.28-4.74,5.59-6.93,8.54-1.32,1.79-.69,3.41,1.25,4.3,2.43,1.12,4.88,2.57,7.45,2.92a157.58,157.58,0,0,0,19.87,1.8c8.26.09,16.54-.38,24.78-1a137.35,137.35,0,0,0,17.47-2.61c4-.85,7.06-3.32,7.25-8a68.31,68.31,0,0,0,0-8.82c-1.89-20.65-4.1-41.27-5.79-61.93-.9-11-1.26-22.07-1.34-33.11-.09-11.37.27-22.75.79-34.11.37-8.16,1.8-16.29,1.94-24.44a355.91,355.91,0,0,1,4.22-47.57c.57-3.7,1.35-7.46-.11-11.27C288.7,2.38,286,3,283.23,3.25c-12.67,1.29-25.37,2.33-38,3.76-18.68,2.11-37.3,4.66-56,6.67Q163,16.5,136.59,18.55c-17.25,1.36-34.53,2.21-51.85,1.47-10.37-.45-20.75-1.23-31.1-1-12.2.28-24.38,1.52-36.57,2.29-1.72.1-1.57.91-1.36,2.18,1,6,2.54,11.92,2.82,17.94C19.31,58.86,23.28,75.8,25.89,93c2.56,16.83,5.49,33.6,8.13,50.42s4.66,33.57,9,50c.55,2.08,1,4.19,1.49,6.43-.52.13-1,.24-1.57.32L24.8,201.78a25,25,0,0,0-17.5,9c-5.1,6-6.18,13.34-5.82,20.93s4.71,13.34,12.31,14.09c6.19.61,12.61-.12,18.82-1,9.35-1.34,18.62-3.37,28.12-3.08,5.54.16,8-2.27,8.55-8a45.93,45.93,0,0,0-.12-10.35C67,206.1,64.6,188.81,62.4,171.49c-2.23-17.64-4.24-35.31-6.58-52.94C54.6,109.3,54,99.89,50.31,91.12c-.08-.19.08-.47.15-.83a60.23,60.23,0,0,0,6-.54c16.89-3.15,33.77-6.38,50.66-9.57,7-1.32,13.89-2.74,20.88-3.82a12.22,12.22,0,0,1,6.36.72c.67.28.35,2.94.49,4.51a14.78,14.78,0,0,0,.18,1.76c.76,6.19,1.49,12.38,2.29,18.56,1,7.61,1.38,15.37,3.17,22.78,4.26,17.65,7.21,35.51,9.77,53.46,1.55,10.93,3.23,21.88,8.8,31.73a5.3,5.3,0,0,1,.14,1.19l-9.2,1c-6,.59-12.11.91-18.09,1.81A33.24,33.24,0,0,0,109.64,227c-4.25,5.62-3.31,11,2.69,14.76a27.75,27.75,0,0,0,13,3.89c18.57,1.29,37-.84,55.52-2.33-.07-4.46.15-8.94-.26-13.35-2.18-23.17-4.68-46.3-6.77-69.48-1.74-19.31-2.81-38.68-4.7-58-1.2-12.3-2.19-24.7-6-36.61a5.46,5.46,0,0,1,0-1.51c.73-.05,1.31-.1,1.9-.12a318.92,318.92,0,0,0,39-4c7.81-1.27,15.74-1.72,23.61-2.63q8.51-1,17-2.19c3.35-.47,6.68-1.13,10.18-1.74.15,1.19.24,1.68.26,2.17.32,9.69.38,19.4,1,29.08.94,14.81,2.14,29.6,3.42,44.39,1.72,19.9,3.65,39.79,5.41,59.69.42,6,.1,12,4.1,17.46Z" transform="translate(722.8 908.38)"/><path class="cls-6" d="M269,206.48c-4-5.53-3.69-11.51-4.21-17.35-1.76-19.9-3.69-39.79-5.41-59.69-1.28-14.79-2.48-29.58-3.42-44.39-.61-9.68-.67-19.39-1-29.08,0-.49-.11-1-.26-2.17-3.5.61-6.83,1.27-10.18,1.74q-8.49,1.2-17,2.19c-7.87.91-15.8,1.36-23.61,2.63a318.92,318.92,0,0,1-39,4c-.59,0-1.17.07-1.9.12A5.46,5.46,0,0,0,163,66c3.79,11.91,4.78,24.31,6,36.61,1.89,19.3,3,38.67,4.7,58,2.09,23.18,4.59,46.31,6.77,69.48.41,4.41.19,8.89.26,13.35-18.51,1.49-37,3.62-55.52,2.33a27.78,27.78,0,0,1-13-3.89c-6-3.72-6.94-9.14-2.69-14.76a33.21,33.21,0,0,1,22.29-13.18c6-.9,12.06-1.22,18.09-1.81,3.06-.31,6.12-.65,9.2-1a5.3,5.3,0,0,0-.14-1.19c-5.57-9.85-7.25-20.8-8.8-31.73-2.56-18-5.51-35.81-9.77-53.46-1.79-7.41-2.19-15.17-3.17-22.78-.8-6.18-1.53-12.37-2.29-18.56-.07-.58-.13-1.17-.18-1.76-.14-1.57.18-4.23-.49-4.51a12.22,12.22,0,0,0-6.36-.72c-7,1.08-13.93,2.5-20.88,3.82-16.89,3.19-33.77,6.42-50.66,9.57a60.23,60.23,0,0,1-6,.54c-.07.36-.23.64-.15.83,3.67,8.77,4.29,18.18,5.51,27.43,2.34,17.63,4.35,35.3,6.58,52.94,2.2,17.32,4.57,34.61,6.72,51.93a45.93,45.93,0,0,1,.12,10.35c-.6,5.75-3,8.18-8.55,8-9.5-.29-18.77,1.74-28.12,3.08-6.21.88-12.63,1.61-18.82,1-7.6-.75-11.94-6.41-12.31-14.09s.72-14.89,5.82-20.93a25,25,0,0,1,17.5-9q9.07-.81,18.14-1.66c.53-.08,1-.19,1.57-.32-.52-2.24-.94-4.35-1.49-6.43-4.3-16.44-6.33-33.28-9-50s-5.44-33.68-8-50.47c-2.61-17.15-6.58-34.09-7.36-51.52-.28-6-1.79-12-2.82-17.94-.21-1.27-.36-2.08,1.36-2.18,12.19-.77,24.37-2,36.57-2.29,10.35-.24,20.73.54,31.1,1,17.32.74,34.6-.11,51.85-1.47q26.34-2.07,52.63-4.87c18.69-2,37.31-4.56,56-6.67,12.65-1.43,25.35-2.47,38-3.76C286,3,288.69,2.43,291.55,2c1.46,3.81.68,7.57.11,11.27a355.91,355.91,0,0,0-4.22,47.57c-.14,8.15-1.57,16.28-1.94,24.44-.52,11.36-.88,22.74-.79,34.11.08,11,.44,22.11,1.34,33.11,1.69,20.66,3.9,41.28,5.79,61.93a68.31,68.31,0,0,1,0,8.82c-.19,4.63-3.23,7.1-7.25,8a137.35,137.35,0,0,1-17.47,2.61c-8.24.66-16.52,1.13-24.78,1a157.58,157.58,0,0,1-19.87-1.8c-2.57-.35-5-1.8-7.45-2.92-1.94-.89-2.57-2.51-1.25-4.3,2.19-3,4.15-6.26,6.93-8.54,9-7.36,19.16-11.91,31.1-11.42,5,.21,9.93.49,14.89.73C267.27,206.54,267.89,206.49,269,206.48Z" transform="translate(722.8 908.38)"/></g></svg>