<svg xmlns="http://www.w3.org/2000/svg" viewBox="0 0 155.49 100.88"><defs><style>.cls-1{opacity:0.28;}.cls-2{fill:#231f20;}</style></defs><g id="Layer_1" data-name="Layer 1"><path class="cls-2" d="M104.55,30.44c0,20.33-14.54,36.81-26.81,36.81-10.45,0-26.81-16.48-26.81-36.81S62.94,0,77.74,0,104.55,10.12,104.55,30.44Z"/><path class="cls-2" d="M93.16,65.61A85.33,85.33,0,0,1,77.74,81.34,85.69,85.69,0,0,1,62.32,65.61c-17.16,8.29-29.4,27.22-29.4,27.22a133.68,133.68,0,0,0,44.82,8,133.71,133.71,0,0,0,44.83-8S110.32,73.9,93.16,65.61Z"/><path class="cls-2" d="M144.45,38.19c0,12.45-8.91,22.55-16.42,22.55-6.4,0-16.43-10.1-16.43-22.55S119,19.54,128,19.54,144.45,25.74,144.45,38.19Z"/><path class="cls-2" d="M107.68,67.81a41.62,41.62,0,0,1,10.9-8.08A52.41,52.41,0,0,0,128,69.37a52.55,52.55,0,0,0,9.44-9.64c10.52,5.08,18,16.68,18,16.68A82,82,0,0,1,128,81.34a77.7,77.7,0,0,1-8.58-.5S112.55,72.59,107.68,67.81Z"/><path class="cls-2" d="M11,38.19c0,12.45,8.9,22.55,16.42,22.55,6.4,0,16.42-10.1,16.42-22.55S36.53,19.54,27.46,19.54,11,25.74,11,38.19Z"/><path class="cls-2" d="M47.81,67.81a41.62,41.62,0,0,0-10.9-8.08,52.41,52.41,0,0,1-9.45,9.64A52.78,52.78,0,0,1,18,59.73C7.5,64.81,0,76.41,0,76.41a81.89,81.89,0,0,0,27.46,4.93,77.51,77.51,0,0,0,8.57-.5S42.93,72.59,47.81,67.81Z"/></g></svg>