<?xml version="1.0" encoding="utf-8"?>
<!-- Generator: Adobe Illustrator 26.0.1, SVG Export Plug-In . SVG Version: 6.00 Build 0)  -->
<svg version="1.1" id="Layer_1" xmlns="http://www.w3.org/2000/svg" xmlns:xlink="http://www.w3.org/1999/xlink" x="0px" y="0px"
	 viewBox="0 0 557.5 557.5" style="enable-background:new 0 0 557.5 557.5;" xml:space="preserve">
<path d="M278.7,0C124.8,0,0,124.8,0,278.7s124.8,278.7,278.7,278.7s278.7-124.8,278.7-278.7S432.7,0,278.7,0z M278.7,531
	C139.4,531,26.4,418,26.4,278.7s113-252.3,252.3-252.3S531,139.4,531,278.7S418.1,531,278.7,531z"/>
<path d="M438.5,261.9l-228-148.6c-19-10.3-31.8,1-31.8,21.4v292.5c0,19.8,14,32.9,31.8,21.3l228-148.5
	C452.3,290.2,452.7,271.4,438.5,261.9z M206.4,414.2V147.7l211.2,133.2L206.4,414.2z"/>
</svg>
