<svg id="Layer_1" data-name="Layer 1" xmlns="http://www.w3.org/2000/svg" viewBox="0 0 557.47 557.47"><path d="M278.73,0C124.8,0,0,124.8,0,278.74S124.8,557.47,278.73,557.47s278.74-124.8,278.74-278.73S432.67,0,278.73,0Zm0,531c-139.34,0-252.3-113-252.3-252.3s113-252.31,252.3-252.31S531,139.39,531,278.74,418.08,531,278.73,531Z"/><path d="M438.49,261.91l-228-148.55c-19-10.32-31.77,1-31.77,21.35V427.2c0,19.8,14,32.89,31.76,21.33L438.47,300C452.31,290.2,452.67,271.42,438.49,261.91ZM206.35,414.21V147.69L417.53,280.94Z"/></svg>