<svg id="Layer_1" data-name="Layer 1" xmlns="http://www.w3.org/2000/svg" viewBox="0 0 119.26 119.25"><defs><style>.cls-1{fill:#231f20;}.cls-2{fill:#1f1d1e;}</style></defs><path class="cls-1" d="M36.15,24.5,92.9,57.27a5,5,0,0,1,0,8.73L36.15,98.76A5,5,0,0,1,29.29,97a5.08,5.08,0,0,1-.7-2.63V28.87a5,5,0,0,1,7.56-4.37Z" transform="translate(0)"/><path class="cls-2" d="M111.59,0H7.67A7.66,7.66,0,0,0,0,7.67H0V111.59a7.68,7.68,0,0,0,7.67,7.66H111.59a7.68,7.68,0,0,0,7.67-7.66V7.67A7.66,7.66,0,0,0,111.59,0ZM110,105.11a4.87,4.87,0,0,1-4.87,4.87h-91a4.87,4.87,0,0,1-4.87-4.87h0v-91a4.87,4.87,0,0,1,4.87-4.86h91A4.87,4.87,0,0,1,110,14.12v91Z" transform="translate(0)"/></svg>