<?xml version="1.0" encoding="utf-8"?>
<!-- Generator: Adobe Illustrator 26.0.1, SVG Export Plug-In . SVG Version: 6.00 Build 0)  -->
<svg version="1.1" id="Layer_1" xmlns="http://www.w3.org/2000/svg" xmlns:xlink="http://www.w3.org/1999/xlink" x="0px" y="0px"
	 viewBox="0 0 618.2 3543.3" style="enable-background:new 0 0 618.2 3543.3;" xml:space="preserve">
<style type="text/css">
	.st0{fill-rule:evenodd;clip-rule:evenodd;}
	.st1{font-family:'BaskervilleDisplayPTWeb-Regular';}
	.st2{font-size:326.04px;}
	.st3{font-size:185.37px;}
</style>
<path d="M310.4,0C156.4,0,31.6,124.8,31.6,278.7s124.8,278.7,278.7,278.7s278.7-124.8,278.7-278.7S464.3,0,310.4,0z M310.4,531
	C171,531,58.1,418,58.1,278.7S171,26.4,310.4,26.4s252.3,113,252.3,252.3S449.7,531,310.4,531z"/>
<path d="M470.1,261.9l-228-148.6c-19-10.3-31.8,1-31.8,21.4v292.5c0,19.8,14,32.9,31.8,21.3l228-148.5
	C483.9,290.2,484.3,271.4,470.1,261.9z M238,414.2c0-88.8,0-177.7,0-266.5l211.1,133.2L238,414.2z"/>
<path d="M310.4,1459c-153.9,0-278.7,124.8-278.7,278.7s124.8,278.7,278.7,278.7s278.7-124.8,278.7-278.7S464.3,1459,310.4,1459z
	 M310.4,1990c-139.4,0-252.3-113-252.3-252.3s113-252.3,252.3-252.3s252.3,113,252.3,252.3S449.7,1990,310.4,1990z"/>
<path class="st0" d="M467.3,1595.4l-97.5-53.9c-12.6-7-25.9,0-25.9,14.7v220.5c-33.7-24.2-82.6-16-116.4,3.5
	c-20.7,12-39,29.3-50.4,50.5c-12.4,23.1-16.3,50.8-2.8,74.2c26.9,46.7,94.3,39.6,134.6,16.3c33.2-19.2,64.1-56,61.7-96.5v-251.4
	l83.1,43.9C470.5,1626.3,485.5,1605.5,467.3,1595.4z M336.8,1861.1c-8.2,15.6-21.5,28.7-36.4,37.9c-28.3,17.7-79.5,27.9-101.5-4.6
	c-22.1-32.7,7.5-74.8,35.9-92.6c32-20,95-27.1,108.1,17.1C347.1,1833.2,343.5,1848.4,336.8,1861.1z"/>
<path d="M310.4,729.5c-153.9,0-278.7,124.8-278.7,278.7s124.8,278.7,278.7,278.7s278.7-124.8,278.7-278.7S464.3,729.5,310.4,729.5z
	 M310.4,1260.5c-139.3,0-252.3-113-252.3-252.3s113-252.3,252.3-252.3s252.3,113,252.3,252.3S449.7,1260.5,310.4,1260.5
	L310.4,1260.5z"/>
<path class="st0" d="M393.5,920v25.6c34.6,7.2,56.8,41.1,49.7,75.7c-5.2,25-24.7,44.5-49.7,49.7v25.6c43.3-6.2,76.7-43.2,76.7-88.2
	S436.8,926.2,393.5,920z"/>
<path class="st0" d="M317.2,863l-102.7,68.5H176c-14.1,0-25.6,11.5-25.6,25.6v102.3c0,14.1,11.5,25.6,25.6,25.6h38.4l102.1,68
	c19.1,12.7,38.6,7.6,38.6-16.9V880.3C355.1,856.8,336.2,850.3,317.2,863z M201.6,1059.4h-12.8c-7.1,0-12.8-3.5-12.8-10.6v-81.2
	c0-7,5.7-10.5,12.8-10.5h12.8c7.1,0,12.8,3.5,12.8,10.6v81.2C214.4,1055.9,208.7,1059.4,201.6,1059.4z M327.3,1127.2l-87.3-56v-126
	l87.3-56V1127.2z"/>
<path d="M310.4,2235.2c-153.9,0-278.7,124.8-278.7,278.8s124.8,278.7,278.7,278.7s278.7-124.8,278.7-278.7
	S464.3,2235.2,310.4,2235.2z M310.4,2766.2c-139.3,0-252.3-112.9-252.3-252.3s113-252.3,252.3-252.3s252.3,113,252.3,252.3
	S449.7,2766.3,310.4,2766.2L310.4,2766.2z"/>
<text transform="matrix(1.1 0 0 1 125.9302 2603.3896)" class="st1 st2">A</text>
<text transform="matrix(1.1 0 0 1 349.6201 2551.5703)" class="st1 st3">A</text>
<path d="M310.4,2985.8c-153.9,0-278.7,124.8-278.7,278.7s124.8,278.7,278.7,278.7s278.7-124.8,278.7-278.7
	S464.3,2985.8,310.4,2985.8z M310.4,3516.8c-139.3,0-252.3-112.9-252.3-252.3s113-252.3,252.3-252.3s252.3,112.9,252.3,252.3
	S449.7,3516.9,310.4,3516.8L310.4,3516.8z"/>
<path class="st0" d="M310.4,3108.6c-86.2,0-156,69.8-156,156s69.8,156,156,156s156-69.8,156-156l0,0
	C466.4,3178.4,396.5,3108.6,310.4,3108.6z M310.4,3390c-69.3,0-125.4-56.2-125.5-125.4s56.2-125.4,125.4-125.4
	s125.5,56.2,125.5,125.4l0,0C435.8,3333.8,379.6,3390,310.4,3390z"/>
<path class="st0" d="M168.5,3085c-13,0-23.6,10.6-23.6,23.6s10.6,23.6,23.6,23.6c13,0,23.6-10.6,23.6-23.6S181.6,3085,168.5,3085
	C168.5,3085,168.5,3085,168.5,3085z"/>
<path class="st0" d="M309.2,3444.1c-13,0-23.6,10.6-23.6,23.6s10.6,23.6,23.6,23.6c13,0,23.6-10.6,23.6-23.6
	S322.2,3444.1,309.2,3444.1C309.2,3444.1,309.2,3444.1,309.2,3444.1z"/>
<path class="st0" d="M313.5,3035.5c-13,0-23.6,10.6-23.6,23.6s10.6,23.6,23.6,23.6c13,0,23.6-10.6,23.6-23.6
	S326.5,3035.5,313.5,3035.5C313.5,3035.5,313.5,3035.5,313.5,3035.5z"/>
<path class="st0" d="M168.5,3391.1c-13,0-23.6,10.6-23.6,23.6s10.6,23.6,23.6,23.6c13,0,23.6-10.6,23.6-23.6
	C192.1,3401.6,181.6,3391.1,168.5,3391.1z"/>
<path class="st0" d="M110.8,3241c-13,0-23.6,10.6-23.6,23.6s10.6,23.6,23.6,23.6c13,0,23.6-10.6,23.6-23.6
	C134.4,3251.6,123.8,3241,110.8,3241z"/>
<path class="st0" d="M313.5,3120.8v287.6c79.4,0,143.8-64.4,143.8-143.8S392.9,3120.8,313.5,3120.8z"/>
</svg>
