<svg id="Layer_1" data-name="Layer 1" xmlns="http://www.w3.org/2000/svg" xmlns:xlink="http://www.w3.org/1999/xlink" viewBox="0 0 335 485"><defs><style>.cls-1{fill:none;}.cls-2{clip-path:url(#clip-path);}</style><clipPath id="clip-path"><path class="cls-1" d="M334.5,129.5c-1,0-11.11,1.12-14-3a33.32,33.32,0,0,0-3-4c-1.37-1.55-2.27-2.26-3-3-2.54-2.55-2.78-5.11-4-8-2.49-5.93-5.76-5.4-9-11-2.52-4.34-1.2-5.78-3-12-1.08-3.73-2.27-5.7-12-20-5.92-8.7-8.9-13.06-10-14-8.74-7.41-19.21-7.91-22-8a33,33,0,0,0-16,3c-9.86,4.77-14.34,13.69-17,19-1.95,3.88-3,7.25-5,14-2.47,8.19-3.86,12.23-4,16-.31,8.53,3.08,15.28,5,19,5.54,10.74,12.72,14.6,11,19-1.18,3-5.35,3.2-6,7-.42,2.49,1.23,3.24,1,6-.37,4.45-5.08,7.44-6,8-3.6,2.17-4.71.63-12,3-5.44,1.77-7.13,3.39-8,5s-.24,2.12-1,4c-1.6,4-5.52,4.42-10,8a25.64,25.64,0,0,0-6,7l-12,14c-.08.26-1.75,5.69-7,7-2.42.6-4.17-1.73-7-1a7.53,7.53,0,0,0-4,3l-77,9c-.53-.5-2.79-2.89-6-3-1.81-.06-2.29.66-4,1-6.44,1.29-14-6-14-6-.94-.9-2.23-2.4-2-4l120-24-11-98c0,2-148,16-151,19l11,52c-2,2.35-8.2.46-10,4-.57,1.13-.22,1.71,0,5,.38,5.59.67,9.86-1,14-1.06,2.63-2.3,3.72-2,6,.21,1.56,1,2.46,2,4,2.47,3.73,2.62,5.51,4,8,2.34,4.23,5.71,6,10,9s13.06,12,12,16c-1.27,4.81-17.66-1.1-30,3,0-2,3,211-2,211,8.67,3.73,13,.83,115-31,10.36-3.23,57.9-18,59-15,.43,1.17-6.59,4.11-20,14-8.63,6.37-13,9.64-16,14-2.63,3.84-5.22,9.42-6,28-1,22.9-1.44,34.35,4,40,11.69,12.14,39.2,8.28,44-2,3.1-6.65-4.81-12.78-2-22,2.41-7.92,10.3-10.08,21-16,31.41-17.38,35.55-38.3,54-37a22.63,22.63,0,0,1,13,5c8.37,7.07,8.07,19.15,8,21-.52,13.49-9.85,15.83-12,30-1.08,7.1-.34,17.06,4,23,11.26,15.42,70.5,1.5,69,0S334.5,129.5,334.5,129.5Z"/></clipPath></defs><g class="cls-2"><image width="900" height="1600" transform="translate(1 -107) scale(0.37)" xlink:href="WhatsApp%20Image%202023-09-27%20at%2016.09.28%20(1).png"/></g></svg>