<?xml version="1.0" encoding="utf-8"?>
<!-- Generator: Adobe Illustrator 26.0.1, SVG Export Plug-In . SVG Version: 6.00 Build 0)  -->
<svg version="1.1" id="Layer_1" xmlns="http://www.w3.org/2000/svg" xmlns:xlink="http://www.w3.org/1999/xlink" x="0px" y="0px"
	 viewBox="0 0 124 99" style="enable-background:new 0 0 124 99;" xml:space="preserve">
<style type="text/css">
	.st0{fill:#231F20;}
</style>
<path class="st0" d="M123.8,45.6v53.8l-11.1-11.7h-58c-8.5,0-15.5-6.9-15.5-15.4c0,0,0,0,0,0v-1h37.4c12.6,0,22.8-10.2,22.8-22.8
	V30.2h8.9C116.8,30.2,123.7,37.1,123.8,45.6z"/>
<path class="st0" d="M72.7,0.2H19C8.5,0.2-0.1,8.8-0.1,19.4c0,0,0,0,0,0v63l16.3-17.3h56.5c10.5,0,19.1-8.5,19.1-19.1V19.4
	C91.8,8.8,83.3,0.2,72.7,0.2z M24.1,39.5c-2.9,0-5.2-2.3-5.2-5.2c0-2.9,2.3-5.2,5.2-5.2c2.9,0,5.2,2.3,5.2,5.2l0,0
	C29.3,37.2,27,39.5,24.1,39.5z M45.9,39.5c-2.9,0-5.2-2.3-5.2-5.2s2.3-5.2,5.2-5.2c2.9,0,5.2,2.3,5.2,5.2l0,0
	C51.1,37.2,48.8,39.5,45.9,39.5z M67.7,39.5c-2.9,0-5.2-2.3-5.2-5.2c0-2.9,2.3-5.2,5.2-5.2s5.2,2.3,5.2,5.2
	C72.9,37.2,70.5,39.5,67.7,39.5z"/>
</svg>
