<svg id="Layer_1" data-name="Layer 1" xmlns="http://www.w3.org/2000/svg" viewBox="0 0 423.64 799.43"><defs><style>.cls-1{fill:#e06124;}.cls-2{fill:#a2d9d7;}.cls-3{fill:#8b2ab1;}</style></defs><path class="cls-1" d="M334.16,487.78c8,2.21,14.17,4.09,20.44,5.64,11.6,2.86,19.29,9.94,18.53,17.33s-11,13.86-22.41,13.34c-7.43-.33-14.79-2.1-22.22-2.56-2.09-.13-6.21,2.05-6.22,3.22-.39,29.91-14.55,55.43-25.59,82-2.88,6.91-5.46,13.94-8.39,20.83-2.11,5-.06,5.72,4.61,6.68a176.86,176.86,0,0,1,29.23,8.15c6.32,2.49,11.69,14.86,8.92,20.64-1.71,3.57-7.61,7.8-11.1,7.37-12.49-1.52-24.76-4.89-37.1-7.6-1.3-.28-2.54-.84-5.76-1.93-3.69,17.72-7.72,34.8-10.69,52.07-2.39,13.88-3.35,28-5.19,42-2.61,19.74-15.57,30.2-33.08,36.79-15.92,6-31.63,4-47.39-.27-4.28-1.17-8.4-3-12.71-4-8.34-2-13.3-6.49-14.21-15.56-.81-8.2-6.19-13.29-13.72-16.25-3.58-1.41-7.07-3-11.39-4.9,2.82-5.76,5.12-11,7.86-16,8.77-16,14.74-32.92,16.88-51,1.4-11.82,8.21-19.79,17.39-26.07,11.38-7.78,14.28-20.67,19.81-31.94.51-1-1.66-4.3-3.33-5.4-14.37-9.42-14.91-10.41-8.33-25.6a531.13,531.13,0,0,0,33.53-108.75c1.07-5.42,2.79-10.72,4.31-16.05a29,29,0,0,1,1.94-4.07c2.25.36,4.39.6,6.49,1,12.12,2.51,12.93,2.47,16.25-9.92,3.88-14.44,7.4-29,9.94-43.77,6.07-35.25,21.42-67,36.36-98.91,2.71-5.78,5.89-11.38,8.15-17.32,1.79-4.72,4.57-5.29,9-4.58,6,1,12.23,2.32,18.13,1.61,18.17-2.17,34.28,4.29,49.06,12.84,7.52,4.34,13.78,13,17.67,21.11,15.73,32.73,10.74,64.56-8.52,94C367,443.91,350.8,464.68,334.16,487.78Zm-127,123.5c-12.27,33-9.29,39.71,15.93,49.85a19.31,19.31,0,0,0,3.1,1.21c11.43,2.32,23.24,8.52,33.74-1.75,2.52-2.47,4.67-6.9,4.36-10.18-.27-2.74-3.93-6.35-6.88-7.42-8.8-3.19-18-5.27-27-7.88-7.27-2.1-8.47-7.48-4.88-12.87a203.56,203.56,0,0,1,19.57-25.33c8-8.67,18.39-15.33,25.39-24.63,14.27-19,21.28-40.43,15.29-64.58-4.42-17.77-17.55-29.47-34.39-29.74-3.38-.06-6.8,2.6-10.2,4,1.88,3.9,2.72,9.4,5.83,11.43,17.43,11.36,22.46,35.31,9.82,51.94-8,10.58-16.92,20.53-24.87,31.18C221.89,590,212.41,603.86,207.14,611.28Z"/><path class="cls-1" d="M103.62,487.53c2.52-11.8,5-23.6,7.85-36.78-11.94-1.57-23.35-2.77-34.64-4.68-4.73-.8-9.93-2.15-13.64-4.95-7.11-5.38-5.76-13.06,2.77-15.76a27.37,27.37,0,0,1,14.51-.13c8,2.11,15.65,5.63,23.47,8.48a18.89,18.89,0,0,0,3.33.81c2.58-25.61,3.15-50.95,8.1-75.41,5.86-29,13.81-57.75,33.49-81.57,17.32-21,40-28.33,66.1-21.27,17.84,4.82,34.87,11,49.83,22.1,4.5,3.35,6.75,6.84,3.09,12.53-24,37.36-38.45,79.31-56.85,119.36-5.55,12.08-12.25,23.63-18.39,35.44-1.5,2.89-2.86,5.85-4.57,9.35l13.46,4.37c-7.59,15.17-15.36,29.21-21.79,43.85-9.69,22.05-18.59,44.46-27.54,66.83A247.06,247.06,0,0,0,144,594.56c-1.83,6.45-5.07,8.56-12,7.66-11.81-1.55-11.71-1-14.45,10.54-3.44,14.59-3.94,28.8,1,43.41a37.1,37.1,0,0,1,.52,20.34c-4.13,15.22-9.86,30-15,44.94-1,2.77-2.3,5.4-4.39,10.23-1-4.48-1.75-6.7-2.08-9C94.93,703.93,85.81,687.93,74,673.88c-4.41-5.24-12.9-8.59-20-9.71-11.73-1.84-23.08,1.66-33.12,8.49-2.95,2-6.05,3.77-9.17,5.7-15.49-37.51-3.36-104,27.65-121.73-5.81-4.4-11.66-8.36-17-13-8.48-7.34-9.15-11.37-5.55-22,1.72-5.08,4.87-7.29,9.21-4,9,6.82,18.09,13.66,25.82,21.76,5.62,5.9,7.4,3.88,12.63-.57,12.56-10.69,23.83-22.13,31.62-36.75,2.6-4.89,5-9.91,7.45-14.87,1.24,13.47,2.1,27,3.83,40.38,1.69,13.17,2.11,26.41-3.68,38.34-5.06,10.42-12.22,16.16-21.85,4.53a35,35,0,0,0-2.89-3c-4.37-4.17-9.23-5.88-15.18-3.45-6.18,2.53-8.7,7.34-9.13,13.62-.92,13.55,8,24.26,22,25.15,19.19,1.21,35.45-5.58,47.55-20.72,10.95-13.71,13.67-30.1,13-47-.64-16-2.83-32-3.2-48.08-.43-18.72,3.75-24.17,22.28-14.27,4.32,2.3,10.57,5.37,13-.74,1.59-4,.17-11.29-2.73-14.66-13.47-15.65-42.61-10.79-54,8.81C108.74,472.81,106.56,480.39,103.62,487.53Z"/><path class="cls-2" d="M135.55,618.24c7.23-3.14,8.85-15.12,17.81-7.39l-3.72,10.58,2.83,1.64,7.09-10.82,7.83,2.12c-.86,4.58-1.62,8.68-2.38,12.77l2.72.89q2.82-5,5.62-10.06c11.15,4.7,12.9,7.94,7.09,18-4.19,7.25-9.3,14.54-15.65,19.82-9.34,7.75-15.15,16.67-16.35,28.63-2.1,20.89-10.66,39.4-20.7,57.45-2.66,4.78-5.09,6.07-10.42,3.65-14.79-6.73-14.66-6.39-9.16-21.24s11.52-29.54,15.15-44.82c2.07-8.7,1.47-18.87-.9-27.58-3.83-14-2.72-27.48.79-41,2.43-9.32,9.38-2.79,14.75-3.8C137.23,610.45,136.67,613.07,135.55,618.24Z"/><path class="cls-3" d="M13.66,683.69c11.75-9.33,24.13-16.09,39.52-15.5,8.08.32,14,3.68,18.84,10.27C84.86,695.85,93,715,94,736.63c.27,5.79-2.77,11.74-4.34,17.81C61.67,743.12,22.46,715.88,13.66,683.69Z"/><path class="cls-3" d="M388.75,63.19l-25.19-7.36,7.81-18.08-23.11-10c8.22-4.66,13.61-4.78,18.62-.62,4.67,3.88,6.57,1.52,8.46-2.86a81.86,81.86,0,0,1,7.18-14C386,5.3,390.58,1.7,397.27,5c7.09,3.49,8.09,9.25,5.52,16-1.77,4.69-3.88,9.25-5.83,13.87,4.73,1.32,9.6,2.28,14.11,4.14,1.7.7,2.54,3.47,3.78,5.29-1.8.77-3.63,2.27-5.38,2.18-5.44-.28-10.85-1.16-16.64-1.85Z"/><path class="cls-3" d="M168.55,609.54,162,607.29c11.35-43.44,23.52-86.13,46-126.8C201.63,526.52,185.05,567.74,168.55,609.54Z"/><path class="cls-3" d="M156.52,605.79l-10-2c14.53-49.77,34-97.16,61.93-141.61-.34,2.27-.2,4.76-1.1,6.77-7.28,16.16-15.83,31.84-21.92,48.43C176.83,541,170,565.29,162.27,589.27,160.52,594.73,158.5,600.12,156.52,605.79Z"/><path class="cls-3" d="M287.46,285c5.47-9.77,11.32-19.34,16.33-29.34,14.53-29.05,27.58-58.6,35.43-90.4,4.69-19,11.87-37.51,18.79-55.92a391.87,391.87,0,0,1,19.74-43.17c-1.05,4-1.77,8.11-3.19,12-7.89,21.34-16.07,42.57-23.86,63.94-2.46,6.74-3.81,13.89-6,20.74-4.59,14.2-8.56,28.69-14.33,42.4-10.31,24.52-21.66,48.6-32.87,72.73-1.59,3.43-4.85,6.08-7.33,9.1Z"/><path class="cls-3" d="M219.67,460.69l33.6-77.78c-4.81,21.67-9.83,44.28-14.86,66.88a44.13,44.13,0,0,1-1.33,4.79C233.33,465.33,232.35,465.73,219.67,460.69Z"/><path class="cls-3" d="M329,179c-14.64,58.89-52.21,107.09-77.59,161Z"/><path class="cls-3" d="M244.5,352.21,203.3,455.72l-6.49-2.8,44.41-102.78Z"/><path class="cls-3" d="M149.64,780.48,121,768.11l5.31-12.31C143,759.49,149.91,766.07,149.64,780.48Z"/><path class="cls-3" d="M99.84,742.82l21.94,9.48c-1.34,3.11-2.61,5.76-3.64,8.5-1.55,4.13-4,5.64-8.31,3.64-5.21-2.43-10.55-4.61-16.28-7.08Z"/><path class="cls-3" d="M313.38,100.66c1.79-5.33,3.23-9.66,5-15l25.72,7.87c-1.76,8-3.75,13.1-12.61,10.45C326.09,102.36,320.32,101.89,313.38,100.66Z"/><path class="cls-3" d="M334.61,66.36c-.76,2.87-.7,4.55-1.52,5.37A43.57,43.57,0,0,1,327.41,76c-1.44-2.55-4.65-5.73-4-7.53,2.2-6.19,5.64-12,8.93-17.72.56-1,2.77-1.5,4.12-1.36.78.09,2.2,2.3,1.92,2.93-4.49,10.23,4.34,10.34,9.75,13,1.47.72,3.06,1.19,5.22,2-.62,2.33-1.21,4.57-2,7.62Z"/><path class="cls-3" d="M393.8,122.24l-19.27-4.38c.34-5.28,1.9-8.12,7.66-5.25,6.7,3.33,13.64,7.21,15.7-6.33l2.58.88c1.48,3.57,4.65,7.48,4,10.63-1,5-4.4,9.61-7.14,14.17-.28.47-4.2-.39-4.22-.77C393,128.66,393.42,126.1,393.8,122.24Z"/><path class="cls-3" d="M404.78,87,387.3,83.57c1.14-7.47,3.59-7.45,21.65.4,1.41-4.25,2.8-8.42,4.7-14.13,1.9,2.26,4.31,3.89,4.11,5.09A156.5,156.5,0,0,1,413,95.59c-.36,1.18-4,1.35-6.18,2Z"/><path class="cls-3" d="M339.65,200.07l23.58-80,3.31,1q-12.53,40-25.06,80Z"/><path class="cls-3" d="M207.32,457.13l25.27-58.49c-5.53,20.68-11.73,41.11-21.2,60.28Z"/><path class="cls-3" d="M307,209.15l28.1-65.06.77.29-28.1,65.05Z"/><path class="cls-3" d="M286.86,303,258,369.68C266,347,269.83,322.34,286.86,303Z"/><path class="cls-3" d="M239.29,394.12l24.46-65.57,1.9.72Q253.79,362,241.93,394.81Z"/><path class="cls-3" d="M370.34,65.39l-17.81,41.24-.89-.31q7.94-21.12,15.88-42.25Z"/><path class="cls-3" d="M288.5,290.91l-18.95,27.66-.55-.26L285.07,289Z"/><path class="cls-3" d="M244.66,484.89c8.65-3.47,15.26-2.83,21.5,1.55,15.19,10.67,19.72,34.55,16.16,47.13-4.33,15.27-7.9,31.42-20.75,42.72-6.2,5.46-13.24,10.1-18.78,16.14-7.77,8.46-15.53,17.25-21.37,27.05s-3.75,15.06,6.84,19.54c7.55,3.2,16,4.28,23.84,6.8,2.83.9,7.37,3.35,7.29,4.9-.14,2.85-2.51,6.49-5,8.16-10.25,6.78-20.38,1-30.22-1.74-5.19-1.43-10-4.79-14.54-7.91-6.15-4.23-7-11.07-4.7-17.18,3.9-10.22,7.87-20.83,14.11-29.65,13.72-19.42,29.34-37.48,43.31-56.74,12.65-17.42,7.22-42.4-10.63-54.35C249.53,489.86,247.79,487.78,244.66,484.89Z"/><path class="cls-3" d="M164.11,471.25c-3.38-1.46-5.74-2.55-8.16-3.51-3.34-1.32-6.63-2.92-10.1-3.74-9.16-2.16-15.06,1.22-16,10.47-.95,9-.49,18.21-.11,27.31.8,19.56,4.79,39-.23,58.68-5.93,23.22-28.07,39.92-51.84,38.14-13.66-1-21.93-13.19-17.07-25.08,2.73-6.67,7.06-8.19,13.09-4.39A28.35,28.35,0,0,1,78,572.94c12.75,12.3,26.24,9,31.68-8.31a79.14,79.14,0,0,0,1.74-41.1c-3.48-15.88-5.36-31.57,1.23-47.35,7.69-18.45,21.4-27,38.91-23.2C160.62,455,164.86,460.37,164.11,471.25Z"/><path d="M274.69,280.51c6.81-15.07,15.46-28.76,19.25-43.68,9-35.51,24.67-68.3,38.05-102.05,3-7.59,4.54-15.76,7.07-24.79l-31.48-5.62c2.1-8,4.08-15.58,6.33-24.18L346,89.82c5.87-8.87,5.34-10.33-6.53-15.63-3.9,4.31-7.64,8.84-15.09,4.92-6.24-3.28-8.08-7.64-5.82-13.48,2.4-6.17,5.2-12.46,9.23-17.6,1.85-2.37,7.23-3.25,10.69-2.72s6.57,3,5.33,8.46c-2.05,9.1,6.89,5.15,10.15,8.26l8.17-22.7c-6.92-4.2-16.94-4.3-17.19-17.44l25.54-1.5c1.45-2.52,3.16-8,6.85-11.33C382,4.92,388.07.34,393.77,0c7.21-.4,13.34,5.24,16.11,12.47.89,2.33,0,5.69-.94,8.28-1.36,3.82-3.49,7.36-5.64,11.74,4.07,1.06,8,1,10.1,2.89,3.06,2.85,6.52,7.09,6.65,10.85.2,6.14-5.72,5.56-10.12,5.22-3.8-.29-7.57-1.17-11.36-1.8-2.59,7.9-5,15.23-7.63,23.24L403.79,77c3.15-3.94,5.07-8.62,8.32-9.9,5.75-2.25,12.4,4.79,11.43,11.66a88.83,88.83,0,0,1-4.09,16.94c-2,5.64-6.69,8.11-12.64,7-6.18-1.15-9-5-7.18-11.16-14-5.33-16.65-4.32-20.42,7.36-2.14,6.63-1.39,7.38,9.89,8.5,3.82-1.25,8-4.14,11.39-3.4,6.93,1.54,11.36,7.44,9.48,14.37-1.7,6.26-5.05,13.2-9.87,17.18-6,5-11.92.21-13.65-10.41l-12.65-2.83C363.11,151,354,179.85,341.74,207.21c-12.22,27.18-27.7,52.89-42.66,80.94,10.59,1,19,2.11,27.49,2.38,52.6,1.69,75.53,27,77.31,76.76,1,28-12.44,51.2-28.91,72.82-10.72,14.08-21,28.48-32.07,43.45,9.29,4,17.3,7.36,25.21,10.92,7.56,3.41,11.26,10.79,9.93,17.57-1,5.05-7,11.16-12.11,12.89-8,2.71-17.11,2.38-25.78,2.81-3.75.18-7.57-1-12.18-1.65-2.41,37.48-22,68.56-35,102.72,6.26,1.13,11.45,1.77,16.49,3,12.76,3.19,23.19,9,26.15,23.42,2.51,12.23-3.53,20.81-16,20.2-9.29-.45-18.51-2.78-27.72-4.52-3.19-.6-6.24-1.92-11.16-3.49-3.34,16.73-6.79,32.6-9.62,48.58-2.56,14.43-4.34,29-6.64,43.48-3.16,19.91-17.58,29.25-34.54,35.76-20.74,8-40.85,3.16-61-3.32-26.09-8.39-50.82-20.15-76-30.32l-5.74,6.25-1.8-.91c.14-2.78.29-5.56.45-8.76C48.3,739.05,14.13,716.3,4.09,671.34-5.37,629,.91,590,29.93,555.62c-4.38-3.76-9.37-7.6-13.84-12-7.38-7.24-7.49-22.26,0-29.17,1.76-1.62,6.15-2.47,8.1-1.41a181.31,181.31,0,0,1,21.44,13.78c4.15,3.09,7.45,7.32,10.84,10.76,27-17.08,41.37-41.64,46.89-71.93,1.95-10.68,1.24-11.75-9.61-13.29-7.41-1.05-14.88-1.71-22.26-2.94-10.22-1.7-18.73-10.12-17.52-16.89,1.49-8.34,11.75-14.31,22.49-12.56A76.76,76.76,0,0,1,90,424c4.15,1.5,8.15,3.46,13.68,5.85.31-4.56.78-7.94.73-11.32-.58-37.12,7.38-72.74,19.48-107.49,5.92-17,16.16-31.69,29-44.17,21.06-20.51,45.78-20.15,72.15-12C242.46,260.25,258.51,267.73,274.69,280.51ZM103.57,487.26c-2.48,5-4.86,10-7.46,14.87-7.79,14.62-19.06,26.06-31.62,36.75-5.23,4.45-7,6.47-12.63.57C44.13,531.35,35,524.51,26,517.69c-4.34-3.31-7.49-1.1-9.21,4-3.6,10.64-2.93,14.67,5.55,22,5.31,4.59,11.16,8.55,17,13-31,17.7-43.14,84.22-27.65,121.73,3.12-1.93,6.22-3.69,9.17-5.7,10-6.83,21.39-10.33,33.12-8.49,7.11,1.12,15.6,4.47,20,9.71,11.81,14,20.93,30,23.62,48.83.33,2.27,1,4.49,2.08,9,2.09-4.83,3.43-7.46,4.39-10.23,5.16-14.94,10.89-29.72,15-44.94a37.1,37.1,0,0,0-.52-20.34c-4.91-14.61-4.41-28.82-1-43.41,2.74-11.57,2.64-12.09,14.45-10.54,6.88.9,10.12-1.21,12-7.66a247.06,247.06,0,0,1,8.18-24.46c9-22.37,17.85-44.78,27.54-66.83,6.43-14.64,14.2-28.68,21.79-43.85l-13.46-4.37c1.71-3.5,3.07-6.46,4.57-9.35,6.14-11.81,12.84-23.36,18.39-35.44,18.4-40.05,32.81-82,56.85-119.36,3.66-5.69,1.41-9.18-3.09-12.53-15-11.12-32-17.28-49.83-22.1-26.1-7.06-48.78.3-66.1,21.27-19.68,23.82-27.63,52.6-33.49,81.57-5,24.46-5.52,49.8-8.1,75.41a18.89,18.89,0,0,1-3.33-.81c-7.82-2.85-15.46-6.37-23.47-8.48a27.37,27.37,0,0,0-14.51.13c-8.53,2.7-9.88,10.38-2.77,15.76,3.71,2.8,8.91,4.15,13.64,4.95,11.29,1.91,22.7,3.11,34.64,4.68-2.81,13.18-5.33,25-7.85,36.78Zm230.59.52C350.8,464.68,367,443.91,381.29,422c19.26-29.49,24.25-61.32,8.52-94-3.89-8.11-10.15-16.77-17.67-21.11-14.78-8.55-30.89-15-49.06-12.84-5.9.71-12.13-.65-18.13-1.61-4.41-.71-7.19-.14-9,4.58-2.26,5.94-5.44,11.54-8.15,17.32-14.94,31.93-30.29,63.66-36.36,98.91-2.54,14.73-6.06,29.33-9.94,43.77-3.32,12.39-4.13,12.43-16.25,9.92-2.1-.44-4.24-.68-6.49-1a29,29,0,0,0-1.94,4.07c-1.52,5.33-3.24,10.63-4.31,16.05A531.13,531.13,0,0,1,179,594.68c-6.58,15.19-6,16.18,8.33,25.6,1.67,1.1,3.84,4.35,3.33,5.4-5.53,11.27-8.43,24.16-19.81,31.94-9.18,6.28-16,14.25-17.39,26.07-2.14,18.12-8.11,35-16.88,51-2.74,5-5,10.22-7.86,16,4.32,1.87,7.81,3.49,11.39,4.9,7.53,3,12.91,8,13.72,16.25.91,9.07,5.87,13.55,14.21,15.56,4.31,1,8.43,2.83,12.71,4,15.76,4.29,31.47,6.26,47.39.27,17.51-6.59,30.47-17.05,33.08-36.79,1.84-14,2.8-28.11,5.19-42,3-17.27,7-34.35,10.69-52.07,3.22,1.09,4.46,1.65,5.76,1.93,12.34,2.71,24.61,6.08,37.1,7.6,3.49.43,9.39-3.8,11.1-7.37,2.77-5.78-2.6-18.15-8.92-20.64a176.86,176.86,0,0,0-29.23-8.15c-4.67-1-6.72-1.7-4.61-6.68,2.93-6.89,5.51-13.92,8.39-20.83,11-26.52,25.2-52,25.59-82,0-1.17,4.13-3.35,6.22-3.22,7.43.46,14.79,2.23,22.22,2.56,11.42.52,21.64-5.94,22.41-13.34s-6.93-14.47-18.53-17.33C348.33,491.87,342.13,490,334.16,487.78ZM135.55,618.24c1.12-5.17,1.68-7.79,2.4-11.11-5.37,1-12.32-5.52-14.75,3.8-3.51,13.48-4.62,26.91-.79,41,2.37,8.71,3,18.88.9,27.58-3.63,15.28-9.67,30-15.15,44.82s-5.63,14.51,9.16,21.24c5.33,2.42,7.76,1.13,10.42-3.65,10-18,18.6-36.56,20.7-57.45,1.2-12,7-20.88,16.35-28.63,6.35-5.28,11.46-12.57,15.65-19.82,5.81-10.07,4.06-13.31-7.09-18q-2.81,5-5.62,10.06l-2.72-.89c.76-4.09,1.52-8.19,2.38-12.77l-7.83-2.12-7.09,10.82-2.83-1.64,3.72-10.58C144.4,603.12,142.78,615.1,135.55,618.24ZM13.66,683.69c8.8,32.19,48,59.43,76,70.75,1.57-6.07,4.61-12,4.34-17.81-1-21.61-9.18-40.78-22-58.17-4.86-6.59-10.76-10-18.84-10.27C37.79,667.6,25.41,674.36,13.66,683.69ZM388.75,63.19l4.08-18.54c5.79.69,11.2,1.57,16.64,1.85,1.75.09,3.58-1.41,5.38-2.18-1.24-1.82-2.08-4.59-3.78-5.29-4.51-1.86-9.38-2.82-14.11-4.14,2-4.62,4.06-9.18,5.83-13.87,2.57-6.77,1.57-12.53-5.52-16-6.69-3.3-11.32.3-14.75,5.32a81.86,81.86,0,0,0-7.18,14c-1.89,4.38-3.79,6.74-8.46,2.86-5-4.16-10.4-4-18.62.62l23.11,10-7.81,18.08ZM168.55,609.54c16.5-41.8,33.08-83,39.44-129-22.49,40.67-34.66,83.36-46,126.8Zm-12-3.75c2-5.67,4-11.06,5.75-16.52,7.7-24,14.56-48.25,23.21-71.87,6.09-16.59,14.64-32.27,21.92-48.43.9-2,.76-4.5,1.1-6.77-27.91,44.45-47.4,91.84-61.93,141.61ZM287.46,285l2.68,2c2.48-3,5.74-5.67,7.33-9.1,11.21-24.13,22.56-48.21,32.87-72.73,5.77-13.71,9.74-28.2,14.33-42.4,2.22-6.85,3.57-14,6-20.74,7.79-21.37,16-42.6,23.86-63.94,1.42-3.85,2.14-8,3.19-12A391.87,391.87,0,0,0,358,109.3c-6.92,18.41-14.1,36.89-18.79,55.92-7.85,31.8-20.9,61.35-35.43,90.4C298.78,265.62,292.93,275.19,287.46,285ZM219.67,460.69c12.68,5,13.66,4.64,17.41-6.11a44.13,44.13,0,0,0,1.33-4.79c5-22.6,10.05-45.21,14.86-66.88ZM329,179l-77.59,161C276.82,286.05,314.39,237.85,329,179ZM244.5,352.21l-3.28-2.07L196.81,452.92l6.49,2.8ZM149.64,780.48c.27-14.41-6.68-21-23.33-24.68L121,768.11Zm-49.8-37.66-6.29,14.54c5.73,2.47,11.07,4.65,16.28,7.08,4.32,2,6.76.49,8.31-3.64,1-2.74,2.3-5.39,3.64-8.5ZM313.38,100.66c6.94,1.23,12.71,1.7,18.13,3.33,8.86,2.65,10.85-2.45,12.61-10.45L318.4,85.67C316.61,91,315.17,95.33,313.38,100.66Zm21.23-34.3,16.73,8.52c.8-3,1.39-5.29,2-7.62-2.16-.82-3.75-1.29-5.22-2-5.41-2.64-14.24-2.75-9.75-13,.28-.63-1.14-2.84-1.92-2.93-1.35-.14-3.56.38-4.12,1.36-3.29,5.75-6.73,11.53-8.93,17.72-.65,1.8,2.56,5,4,7.53a43.57,43.57,0,0,0,5.68-4.22C333.91,70.91,333.85,69.23,334.61,66.36Zm59.19,55.88c-.38,3.86-.82,6.42-.66,9,0,.38,3.94,1.24,4.22.77,2.74-4.56,6.15-9.15,7.14-14.17.62-3.15-2.55-7.06-4-10.63l-2.58-.88c-2.06,13.54-9,9.66-15.7,6.33-5.76-2.87-7.32,0-7.66,5.25Zm11-35.21,2.07,10.54c2.14-.63,5.82-.8,6.18-2a156.5,156.5,0,0,0,4.73-20.66c.2-1.2-2.21-2.83-4.11-5.09-1.9,5.71-3.29,9.88-4.7,14.13-18.06-7.85-20.51-7.87-21.65-.4Zm-65.13,113,1.83,1q12.54-40,25.06-80l-3.31-1ZM207.32,457.13l4.07,1.79c9.47-19.17,15.67-39.6,21.2-60.28Zm99.64-248,.77.28,28.1-65.05-.77-.29ZM286.86,303c-17,19.36-20.84,44-28.82,66.7Zm-47.57,91.14,2.64.69q11.85-32.78,23.72-65.54l-1.9-.72Zm131-328.73-2.82-1.32q-7.93,21.14-15.88,42.25l.89.31ZM288.5,290.91l-3.43-2L269,318.31l.55.26Z"/><path d="M207.14,611.28c5.27-7.42,14.75-21.31,24.81-34.77,8-10.65,16.83-20.6,24.87-31.18,12.64-16.63,7.61-40.58-9.82-51.94-3.11-2-3.95-7.53-5.83-11.43,3.4-1.4,6.82-4.06,10.2-4,16.84.27,30,12,34.39,29.74,6,24.15-1,45.62-15.29,64.58-7,9.3-17.41,16-25.39,24.63a203.56,203.56,0,0,0-19.57,25.33c-3.59,5.39-2.39,10.77,4.88,12.87,9,2.61,18.2,4.69,27,7.88,2.95,1.07,6.61,4.68,6.88,7.42.31,3.28-1.84,7.71-4.36,10.18-10.5,10.27-22.31,4.07-33.74,1.75a19.31,19.31,0,0,1-3.1-1.21C197.85,651,194.87,644.23,207.14,611.28Zm37.52-126.39c3.13,2.89,4.87,5,7,6.42,17.85,11.95,23.28,36.93,10.63,54.35-14,19.26-29.59,37.32-43.31,56.74-6.24,8.82-10.21,19.43-14.11,29.65-2.33,6.11-1.45,13,4.7,17.18,4.54,3.12,9.35,6.48,14.54,7.91,9.84,2.73,20,8.52,30.22,1.74,2.52-1.67,4.89-5.31,5-8.16.08-1.55-4.46-4-7.29-4.9-7.87-2.52-16.29-3.6-23.84-6.8-10.59-4.48-12.75-9.64-6.84-19.54s13.6-18.59,21.37-27.05c5.54-6,12.58-10.68,18.78-16.14,12.85-11.3,16.42-27.45,20.75-42.72,3.56-12.58-1-36.46-16.16-47.13C259.92,482.06,253.31,481.42,244.66,484.89Z"/><path d="M103.62,487.53c2.94-7.14,5.12-14.72,9-21.34,11.39-19.6,40.53-24.46,54-8.81,2.9,3.37,4.32,10.64,2.73,14.66-2.41,6.11-8.66,3-13,.74-18.53-9.9-22.71-4.45-22.28,14.27.37,16,2.56,32,3.2,48.08.67,16.93-2.05,33.32-13,47-12.1,15.14-28.36,21.93-47.55,20.72-14.08-.89-23-11.6-22-25.15.43-6.28,3-11.09,9.13-13.62,5.95-2.43,10.81-.72,15.18,3.45a35,35,0,0,1,2.89,3c9.63,11.63,16.79,5.89,21.85-4.53,5.79-11.93,5.37-25.17,3.68-38.34-1.73-13.4-2.59-26.91-3.83-40.38A2.61,2.61,0,0,1,103.62,487.53Zm60.49-16.28c.75-10.88-3.49-16.3-12.55-18.27-17.51-3.8-31.22,4.75-38.91,23.2-6.59,15.78-4.71,31.47-1.23,47.35a79.14,79.14,0,0,1-1.74,41.1c-5.44,17.31-18.93,20.61-31.68,8.31a28.35,28.35,0,0,0-4.34-3.81c-6-3.8-10.36-2.28-13.09,4.39C55.71,585.41,64,597.57,77.64,598.6c23.77,1.78,45.91-14.92,51.84-38.14,5-19.66,1-39.12.23-58.68-.38-9.1-.84-18.3.11-27.31,1-9.25,6.87-12.63,16-10.47,3.47.82,6.76,2.42,10.1,3.74C158.37,468.7,160.73,469.79,164.11,471.25Z"/></svg>