<svg xmlns="http://www.w3.org/2000/svg" xmlns:xlink="http://www.w3.org/1999/xlink" viewBox="0 0 237.5 294.41"><defs><style>.cls-1{fill:none;}.cls-2{clip-path:url(#clip-path);}.cls-3{fill:#cce277;}.cls-4{clip-path:url(#clip-path-2);}.cls-5{opacity:0.61;}.cls-6{fill:#fff;}.cls-7{fill:#ffe882;}.cls-8{fill:#a2d9d7;}.cls-9{fill:#e06124;}.cls-10{fill:#e36124;}.cls-11{fill:#82a637;}.cls-12{fill:#9fd6d4;}.cls-13{fill:#882aae;}</style><clipPath id="clip-path"><rect class="cls-1" x="-6288.52" y="-770.83" width="2248" height="2508"/></clipPath><clipPath id="clip-path-2"><path class="cls-1" d="M431.84,1246.8c-38.6-56.82-34.91-129.28,2.88-187.69C480.77,988,570.55,939,617.49,868.17c45-67.94,44.94-151.29,7.69-220.79s-109.25-125.17-194-159.76c-51.24-20.91-108.78-35.47-148.74-68.22-48.6-39.82-62.7-99.79-108.69-141.51C117.87,227.2,25.46,212.58-60.45,212.05s-173.09,9.93-257.13-2.91c-95.77-14.63-179-58.18-268.06-89s-196.11-48.2-282.74-10.68c-134.19,58.14-149.25,212.41-268,288.94-60.34,38.88-140.64,52.9-203.29,89.4-68.89,40.13-110.72,105.44-121.53,172s7.3,134.21,40.64,195.22c32.86,60.15,80.38,115.12,105.43,177.68,19.11,47.69,24.28,97.3,23.87,147.69,29.19,10,55.49,24,76.57,43.15,46,41.72,60.09,101.68,108.69,141.51,40,32.74,97.5,47.31,148.75,68.22,84.77,34.58,156.75,90.27,194,159.76,19.84,37,29,77.92,26.59,118.36,27.45,10.18,53.74,23.49,81,34.11,143.54,56,332.18,32.23,450.22-56.73,34.43-25.94,63.05-56.6,99.47-80.78s84.22-41.79,130.15-34.36c40.09,6.49,71,30.42,99.6,53.3l146,117c44.26,35.46,124.7,60.27,121.44,110.58,88.76-57.92,167.72-128.77,208.36-213.56s38.2-185-25.26-258.74C532.37,1333.51,467.1,1298.72,431.84,1246.8Z"/></clipPath></defs><g id="Layer_4" data-name="Layer 4"><g class="cls-2"><path class="cls-3" d="M431.84,1246.8c-38.6-56.82-34.91-129.28,2.88-187.69C480.77,988,570.55,939,617.49,868.17c45-67.94,44.94-151.29,7.69-220.79s-109.25-125.17-194-159.76c-51.24-20.91-108.78-35.47-148.74-68.22-48.6-39.82-62.7-99.79-108.69-141.51C117.87,227.2,25.46,212.58-60.45,212.05s-173.09,9.93-257.13-2.91c-95.77-14.63-179-58.18-268.06-89s-196.11-48.2-282.74-10.68c-134.19,58.14-149.25,212.41-268,288.94-60.34,38.88-140.64,52.9-203.29,89.4-68.89,40.13-110.72,105.44-121.53,172s7.3,134.21,40.64,195.22c32.86,60.15,80.38,115.12,105.43,177.68,19.11,47.69,24.28,97.3,23.87,147.69,29.19,10,55.49,24,76.57,43.15,46,41.72,60.09,101.68,108.69,141.51,40,32.74,97.5,47.31,148.75,68.22,84.77,34.58,156.75,90.27,194,159.76,19.84,37,29,77.92,26.59,118.36,27.45,10.18,53.74,23.49,81,34.11,143.54,56,332.18,32.23,450.22-56.73,34.43-25.94,63.05-56.6,99.47-80.78s84.22-41.79,130.15-34.36c40.09,6.49,71,30.42,99.6,53.3l146,117c44.26,35.46,124.7,60.27,121.44,110.58,88.76-57.92,167.72-128.77,208.36-213.56s38.2-185-25.26-258.74C532.37,1333.51,467.1,1298.72,431.84,1246.8Z"/><g class="cls-4"><g class="cls-5"><path class="cls-6" d="M100.75-842.48c-12.92-42.29-31.15-79.26-51.56-104.6C12.26-992.91-7.47-977.3-38.48-964.75c-44.86,18.14-24.94,76.47-87.74-2.65-5.27-8.29-16-8.76-20.55-5-3.8,3.16-1.23,12.61.66,20.25.54,2.18,1.13,4.46,1.7,6.69a8.17,8.17,0,0,0,.13,1L41.46-193.37C11.81-210.93-24.16-200-50.76-160.2c-36.95,55.27-41.76,145-10.75,200.34s86.12,55.46,123.07.19C92.4-5.8,95.78-75.14,82.14-129.51L-81.55-791.45c40,5.6,22.47,6.54,44.85-19.73,17.81-20.92,33.05-56.5,57.13-58.68,35.38-3.2,30.61,45,54.74,101.86,8,18.87,18.37,35.53,28.33,40.78C137.25-709.43,112.71-803.3,100.75-842.48Z"/><path class="cls-6" d="M166.59-33.71A324.25,324.25,0,0,0,126.23,67.61c-4.06,19.28-6.22,39.46.15,58.27s22.84,36.05,44.85,40.2c14.13,2.66,28.79-.18,42.81-3.27,37.87-8.32,78.64-20.69,98.45-50,18.06-26.71,13.19-61.9-5.22-88.43S258.9-21.13,227.46-35.67C216-41,203.91-45.84,191-46.41c-21.46-.93-42.78,11.68-49.69,29.4"/><path class="cls-6" d="M1008.11,1107.13a123.73,123.73,0,0,0,27.37,43.95,234.38,234.38,0,0,0-69.48,2.59c-61.71,11.94-115.22,44.21-167.06,75.63.18-33.57,15-65.68,20.19-98.92,5-33.23-2.94-72.07-35.68-89.85-15.29-8.2-33.6-10.51-51.48-11.49a423.23,423.23,0,0,0-170.51,25.41,247.33,247.33,0,0,0,34-111c.85-14.65-.11-30.25-9.3-42.69-11.5-15.77-33.79-22.83-55-26.49-71.11-12.83-147.52-1-209.25,32.34,8.47-31.17,34.17-56,52.4-83.68s28.17-64.89,5.45-90c-24.62-27.4-72.68-25.08-111.28-16.2a536,536,0,0,0-130.09,48.94c25.67-37.22,52.08-76.13,55.69-119.52,3.46-43.23-23.38-91.88-72-102-22.83-4.92-47.06-.59-69.86,4.42a925.68,925.68,0,0,0-163.74,52.27c44.25-43.35,73.67-98.08,83.72-155.36,2.73-14.9,3.8-31.21-5.09-44.27C-48.51,378-86,376.3-116.43,380.52c-74.3,10.08-145,38.92-201.35,82,9.69-55,93.67-84.27,97.46-139.7,3-46.52-57.14-80.56-110.29-76.9s-98.92,32.93-141.33,61a365.89,365.89,0,0,0,47.85-130.08c3.8-24.13,4.88-49.92-8.42-71.32-19.59-32-66.34-45.14-107.67-40.63S-618.9,88-654.92,106.22c27-33.68,43.08-73.83,46.18-114.79,1.44-18.44-.74-39.08-16-51.95-18.6-15.84-48.53-13.75-73.92-8.75C-756.28-57.85-811.26-36.49-859.44-6.92c39.36-46.4,48.89-110.88,24.28-164.61-24.77-53.58-82.7-94.66-148.07-104.64a2179.6,2179.6,0,0,1,239.48-30.22c15.3-1.14,35,1.39,45.11,9.57q44.1-21.36,88.21-42.59c-26.75,41.5-53.94,91.14-31.8,134.62,20.31,39.53,76.21,57.25,125.47,52.45s93.62-27.38,136.28-49.43c-35.24,19.54-62.52,51.12-69.79,87-7.28,35.76,7.15,75.3,39.73,98.06C-350.66,25.05-263.12-.34-193-27.34-226.2,18-250.82,79.35-215,123.15c21.82,27.09,62,39.35,99.8,39.39,38,0,74.79-10.4,110.86-20.79-51.45,34.41-49.29,110-2.89,149.44s123.09,43.4,181.27,18.4c-9.45,27.3-19,55.82-13,83.78,9.18,43.59,55.07,75.85,104.43,86.85,49.19,11,101.26,4.26,150.86-5.37-38,43.76-67.1,105.09-34.34,152.06,22.75,32.62,70,47.5,113.78,46.16s85.63-16,126.25-30.36C609.56,673.34,597,705,598.62,737.44c1.65,32.57,21.21,66.57,55.94,78.37,62,20.84,126.7-36.11,192.71-29.18-42.86,48.09-39.38,122.84,7.58,167.68,47,45,132.21,54.79,191,22.08C1007.49,1009.64,992.43,1062.08,1008.11,1107.13Z"/></g></g><path class="cls-7" d="M482.08,1053.35c-44.83,66.71-117.81,107.34-167.45,169.84-47.58,59.9-66.54,148.06-27.84,217.5,39.72,71.24,123.77,103,167.77,171.22A211.39,211.39,0,0,1,488.2,1725c.2,40.54-12.21,79.71-31.31,115.16-45.12,83.76-121.95,146.94-200.27,198.36l2,5.55c1.2-31.33-21.17-51.35-45.37-67.46-15.26-10.16-31.36-19-47-28.45-16.56-10-31.55-21.45-46.64-33.53Q56.28,1864-6.94,1813.28c-34.39-27.61-71.21-55.11-117-57.47-45.27-2.34-89.85,16.53-126,42.59-37.29,26.89-68.9,60.84-107.21,86.41-68.08,45.43-150.25,68.58-231.47,73.57-46.28,2.85-93.06-.29-138.37-10.29-51-11.25-96.12-35.27-144.68-53.3l1.14,8.57a242.08,242.08,0,0,0-44.76-154.43c-28.63-40.34-67.49-72.88-109.66-98.3-48-29-100.9-44.55-152.3-66-25.16-10.5-50.79-23-70.65-42.06-18.48-17.73-32.63-38.79-46-60.5-15.63-25.44-30.89-51.47-52.8-72.13-22.36-21.08-49.8-35.4-78.61-45.53l1.28,5.85c.35-58.24-6.74-116.41-31.61-169.67-23.67-50.67-58.85-94.71-87.5-142.48-29.73-49.56-52.22-105.24-53.87-163.68-1.49-52.85,18.94-103.32,52.67-143.55,34.43-41.07,80-66.45,129.31-85.61,48.41-18.8,99.64-33.25,143.49-61.92,78-51,112-139.68,168.34-209.9,32.05-39.93,72.57-71.43,122-86.73,52.45-16.25,108.94-14.92,162.55-5.61,112,19.48,211.22,79,321.16,105.65,118.15,28.63,238.5,3.18,358,14.17,50.63,4.66,103,15.33,147.1,41.81s66.48,69.31,93.55,111.14c13,20,27.74,38.93,46.6,53.78,20.24,16,43.88,27,67.66,36.53,50.67,20.34,102.07,36.29,149,65,83.92,51.43,163.18,143,147.75,248.5-4,27.21-15.14,52.68-30.05,75.61-2.59,4-3.1,10.61-3,15.24,0,1.72.19,8.38,2.71,4.49,29-44.56,41.73-99.33,36.86-152.21-4.68-51-26.52-98-59.32-136.87-33.16-39.33-75.73-70.31-121.25-93.85-49.49-25.58-104.35-38.28-153.75-63.85-24.32-12.6-45.34-29-62.36-50.6-15.69-19.91-27.82-42.25-41.39-63.58-13.27-20.86-28.18-40.56-47.48-56.25s-41.54-27.09-64.75-35.55C-144.6,379.12-267.09,402.8-384,398.79c-62-2.12-121.33-14.86-179.73-35.45-55.66-19.61-109.46-44.24-165.52-62.74-105.13-34.71-232.61-49.31-325.38,23.88-74.16,58.51-105.06,152.86-169.93,219.59-37.73,38.81-84.88,60.87-135,79.43-50.47,18.69-102.76,35.5-145.56,69.32-82.9,65.5-113.72,175.39-89.19,276.58,13.95,57.52,44.07,107.58,76.52,156.36,33.33,50.11,66.15,100,79.3,159.7,6.92,31.38,9,63.5,8.79,95.56,0,1.16-.37,5.27,1.29,5.85,26.12,9.18,51.33,21.73,72.38,40,19.46,16.86,34.08,38.15,47.56,59.89,13.3,21.44,25.83,43.56,42.41,62.73,15.95,18.46,34.76,32.69,56.33,44,46.66,24.48,98.54,36.91,145.83,60.11,45.4,22.27,88,51.6,122.08,89.21,40.87,45.11,69.12,103.9,65.87,165.88-.08,1.56-1.07,7.75,1.14,8.57,42.48,15.77,82.37,37.17,126.36,48.85a484.6,484.6,0,0,0,121.27,15.73c79.79.48,160.88-16.75,231.88-53.69,37.47-19.51,69.27-45.7,101-73.28,35.17-30.56,71.95-59.09,117.84-71.12,44.78-11.75,87.55-3.17,126.06,21.86,40.56,26.36,77.2,59.78,114.91,90,23,18.42,45.81,37.14,69.05,55.26,15.19,11.84,32,21.35,48.56,31.08,25.28,14.86,72.11,37.71,70.76,72.92,0,1-.14,6.93,2,5.54,129.51-85,265.13-219.24,235.43-389.29A218.43,218.43,0,0,0,441,1566.49c-26.33-30.65-59.65-54.17-90.22-80.25-31.07-26.52-60.16-56.73-72.34-96.74-13.34-43.87-3.77-87.51,20.73-125.5,48.29-74.86,132.92-117,182.6-190.92,2.63-3.91,3.1-10.67,3-15.24C484.77,1056.07,484.65,1049.52,482.08,1053.35Z"/></g></g><g id="Layer_8" data-name="Layer 8"><path class="cls-8" d="M100.79,199.48l4.18,3.6-17.3,20.65c-3.31-.55-5.91-1.19-8.55-1.35-1.77-.11-2.63,1.21-2,3,1.07,2.75,2.29,5.44,3.43,8.14-3.46,6.51-7.16,13.28-10.66,20.14-1.32,2.58-2,5.45-3.31,8.06-1.57,3.22-3.43,6.29-5.22,9.53A68.21,68.21,0,0,1,42.16,257.1c-7.49-7.48-12.42-16.7-17.58-25.81-6.06-10.71-9.08-22.27-11.45-34.2-1.8-9.08-.46-17.5,3.12-25.8C25,151,40.62,138.7,61.09,131.42c10.77-3.84,21.32-3.25,32.19-1.35,4.42.78,9,.35,13.48,1.07a46.31,46.31,0,0,1,12.47,3.45c4.88,2.33,9.26,5.7,13.85,8.63,1.52,1,1.73,2,.63,3.58-3.61,5.09-7.29,10.15-10.58,15.45-4.3,6.93-8,14.24-12.45,21.06C107.25,188.55,104.29,194,100.79,199.48ZM89.42,159.37c-3.13,3.68-9,6.43-15,7-2.53.25-4.92.78-7,3.1l9.57,3.72c-1.32,2.29-2.61,4.47-3.83,6.68a5.19,5.19,0,0,0-.29,1.45,4.66,4.66,0,0,0,1.49.21c9-1.81,14.72-7.32,17.85-15.78.7-1.87,1.6-3.66,2.43-5.47.65-1.41,1.41-1.95,2.93-.81,1,.74,2.34,1,4.06,1.62-.91-2.64-1.89-4.37-2-6.17-.23-2.6-.91-4.77-3.56-5.45s-4.32,1-5.19,3.43a17,17,0,0,1-2.5-.84c-3.72-2.06-6.37-.49-9.15,2.14-1.92,1.82-4.51,3-6.81,4.36-.64.4-1.34.7-2,1.05l-.05,1c2,.49,4.08,1.6,6,1.34,2.8-.38,5.5-1.63,8.16-2.71C86.23,158.56,87.8,157.68,89.42,159.37Z"/><path class="cls-8" d="M135.7,173.56a15.25,15.25,0,0,1,1.52-2.57c1.08-1.2,2.34-2.23,3.67-3.48l-1.06-1.07c1.75-2.95,3.5-5.9,5.42-9.17,2.28,1.48,4.59,2.72,6.61,4.32a109.24,109.24,0,0,1,26.7,30.95c5.33,9.13,10.37,18.33,13.71,28.4,3,9,4.08,18.25,4.84,27.59.56,6.89-2.85,12-7.68,16.39a54,54,0,0,1-30.2,13.83c-10.1,1.34-20.14,3.08-30.24,4.37-15.93,2-31.73,1.4-47.25-3.14-.49-.14-1-.34-1.73-.6l20-31.86c1.48.69,2.92,1.45,4.43,2a5.91,5.91,0,0,0,7.46-2.73c1.62-2.8,1.21-4.8-1.47-7.15-.07-.06-.2-.09-.22-.15-.39-1-.76-2-1.14-3-.92.57-1.83,1.16-2.78,1.68-.12.07-.44-.21-.91-.45,1.05-2.51,2.19-5,3.13-7.46,1.71-4.59,3.23-9.26,5-13.83,1.28-3.32,2.78-6.57,4.31-9.79.3-.62,1.21-1,2-1.58-1-1.85-.09-3.52,1.52-5.16.56-.58.39-1.81.82-2.61q3.75-6.92,7.65-13.76c1.9-3.35,3.91-6.63,5.87-10,.57.47,1.08,1.27,1.7,1.36,2.14.31,4.31.38,6.81.56-.22.89-.39,1.71-.64,2.51-.49,1.55-1.39,3.07-1.48,4.63-.35,6.55-3.63,11.47-8.21,15.78a23.39,23.39,0,0,0-1.77,2.06l.53,1,8.24-2.39c-1,3.7-2,7.86-3.11,12l1.38.58c8.19-8.06,15.12-16.92,17.33-28.89.68,2.31,1.43,4.58,1.18,6.73-.54,4.59-1.76,9.09-2.36,13.67a22.87,22.87,0,0,0,.44,6.42c.26,1.6,1.16,2.46,2.46.67a25.89,25.89,0,0,0,3.08-4.75c4.06-9.44,3.62-19,.09-28.44-1.42-3.81-3.51-7.11-7.51-8.9-1.05-.47-1.59-2-2.49-2.91s-1.7-1.85-2.68-2c-3.14-.5-5.69,2-5.86,5.22,0,.7-.29,1.74-.79,2C140,171.67,137.83,172.57,135.7,173.56Z"/><path class="cls-9" d="M60.48,272.78l-5.37,8.65c-3.54-2.27-7.16-4.33-10.5-6.75-12.2-8.84-21-20.54-27.68-33.88C10,227.08,4.54,212.87,2.78,197.49,1.37,185.26.78,173,4,160.9c4.72-17.69,15.67-30.51,32.19-38,17.87-8.14,36.52-10.8,55.75-4.93,8.6,2.62,17.28,5,25.69,8.16,7.63,2.85,12.79,9.09,17.91,15.14.28.34.23,1,.38,1.62-4-2.48-7.85-4.9-11.74-7.18-6.25-3.67-12.65-6.44-20.29-5.73-3.79.35-7.81-.47-11.57-1.4-16-4-30.81-.17-44.93,7.27C30.55,144.7,19,158.11,12.83,176.24c-2.59,7.69-2,15.25-.76,23.11,3.47,21.47,13.31,39.84,26.75,56.46,5.35,6.62,12.25,11.63,19.69,15.81C59.13,272,59.74,272.34,60.48,272.78Z"/><path class="cls-9" d="M74.14,287.67c1.8-2.59,3.24-4.66,4.53-6.53,7.09,1.32,13.9,2.92,20.8,3.81a115.32,115.32,0,0,0,32.34-.83c11.06-1.71,22.17-3.09,33.18-5a47.22,47.22,0,0,0,30.63-19.15c3.08-4.15,3.26-8.91,3-13.8-1.23-22.92-10.51-42.71-23.06-61.47-6.08-9.08-13.67-16.44-21.82-23.42-2.26-1.94-4.87-3.46-7.59-5.36l2.14-3.78a14.23,14.23,0,0,1,2.13,1.46c10.52,10.55,22.42,19.67,32,31.19,12.16,14.62,22,30.56,27.34,48.9A74.15,74.15,0,0,1,213,253.48c.07,10.64-6.09,18.41-14.45,24.36a53.38,53.38,0,0,1-22.67,8.9c-14.36,2.32-28.77,4.59-43.25,5.9-15.52,1.4-31-.14-46.39-2.85Z"/><path class="cls-10" d="M188.09,62.5c2.54-5.06,4.92-9.92,7.43-14.72A4.52,4.52,0,0,1,197.63,46c2.07-1,3-2.36,2.09-4.56a4.24,4.24,0,0,0-5.52-2A3,3,0,0,0,192.8,44c1.82,2.45.57,4.12-.47,6.11-.76,1.44-1.3,3-1.94,4.46-3.44-1.13-4.26-2.25-2.92-5.29,3-6.81,6.25-13.49,9.48-20.19.86-1.78,2-3.44,2.64-4.61l19.67,7.17c-1,3.15-1.28,7.87-3.71,10.81-3.75,4.56-4,10.42-7.23,15-1.89,2.65-3.56,5.46-5.49,8.45l-3.2-2.77c.55-1.87,1.48-2.74,3.51-2.77,1.05,0,2.88-1.11,2.94-1.84a6.47,6.47,0,0,0-1.24-4.6c-.77-.8-2.81-.6-4.24-.43a2.47,2.47,0,0,0-1.18,2.06c1.71,4-1.68,6.09-3.12,8.89a22.12,22.12,0,0,1-1.37,2L192,64.62l15.18-24.68c2,2.25,3.88,2.9,5.9,1.56,1.32-.88,3.51-1.24,2.94-3.62-.72-3.06-3-5.22-5.43-4.58-1.16.3-2.12,1.81-2.9,3s-1.22,2.76-2,4c-4.57,7.18-9.31,14.26-13.78,21.51C190.62,63.84,189.64,64.12,188.09,62.5Z"/><path class="cls-11" d="M90.39,241.28l8.1,5.7L78.34,278.92l-8.63-3.27C76.68,264.06,83.48,252.75,90.39,241.28Z"/><path class="cls-11" d="M67.82,274.66l-4.76-2.39c2.17-4.45,4.21-8.74,6.34-13Q75,248.12,80.76,237a23.7,23.7,0,0,1,1.7-2.43c1.81,1.49,3.43,2.86,5.09,4.18,1.3,1,1.36,2,.45,3.45-4.13,6.84-8,13.83-12.15,20.64C73.41,266.86,70.58,270.63,67.82,274.66Z"/><path class="cls-10" d="M208.07,1.8c7.31,2.65,14,5,20.57,7.47,1.75.65,2.79,2,2.24,3.82a118.46,118.46,0,0,1-4,11.78c-1.34,3.21-3.85,4.57-7.65,4.22A42.55,42.55,0,0,1,204,24.47c-3.69-1.83-3.84-2.86-2.27-6.62C203.85,12.69,205.83,7.46,208.07,1.8Zm18.55,15c-.19-.77-.13-2.12-.78-2.83-1.61-1.8-3.34-4.27-5.4-4.72-3.06-.67-6.45.08-9.68.43A6,6,0,0,0,207.37,11c-1.81,1.82-2.19,7.88-.92,10.19,3.39,6.17,13.14,7.56,18.1,2.6A7.31,7.31,0,0,0,226.62,16.82Z"/><path class="cls-11" d="M96.63,231.25,88.71,225l17.17-20.56c3.32,1.53,3.35,1.67,2.22,5.19C105.57,217.5,102.45,225,96.63,231.25Z"/><path class="cls-12" d="M172.12,27a12.89,12.89,0,0,1,3.66,1.7c4.12,3.52,8.1,7.2,12,11,.52.5.39,1.93.16,2.83a2.23,2.23,0,0,1-1.65,1.26c-7,.36-15.61-6.19-16.94-12.8C169,29.23,168.71,27.37,172.12,27Z"/><path class="cls-12" d="M220.08,37.05a14.6,14.6,0,0,1,10.07,3.12,30.24,30.24,0,0,1,5,4.94c1.56,1.82,1.09,3.64-1.25,4.1a21.05,21.05,0,0,1-6.95,0,18.49,18.49,0,0,1-4.8-1.86c-5.84-2.65-5.88-2.68-3.77-8.76C218.7,37.81,219.78,37.31,220.08,37.05Z"/><path class="cls-12" d="M181.14,14a7.7,7.7,0,0,1,2,.87c4.14,3.39,8.26,6.8,12.27,10.33a2.58,2.58,0,0,1,.37,2.46c-.81,1.16-2,2.84-3.12,2.85-5.48,0-13-6.88-13.81-12.26C178.57,16.39,178.75,14.78,181.14,14Z"/><path class="cls-11" d="M103.75,237l-5.81-4.75c6.24-6.91,9.65-15.34,12.4-24.06,3.63,1.13,3.71,1.2,2.56,4.45q-3.7,10.5-7.52,21C105,234.58,104.45,235.52,103.75,237Z"/><path class="cls-12" d="M211.54,54.8c4.79,2,9.06,4.42,11,9.37.5,1.28.83,3.65.2,4.12-1.15.87-3.5,1.43-4.63.81a89.67,89.67,0,0,1-9.55-6.65,1.52,1.52,0,0,1-.25-1.41C209.33,58.93,210.45,56.87,211.54,54.8Z"/><path class="cls-11" d="M128.26,167.57c2.12,1.53,3.8,2.74,5.72,4.14l-5.45,9.54-5.32-3.83Z"/><path class="cls-11" d="M68.56,276.86l8.62,3.4c-1.45,2.06-2.7,4-4.17,5.8a2.81,2.81,0,0,1-2.28.64c-1.86-.34-3.66-1-6.11-1.64C65.93,282.32,67.17,279.76,68.56,276.86Z"/><path class="cls-11" d="M67.13,276.12l-4.32,8.29L56.88,282l5-8.46Z"/><path class="cls-11" d="M146,140.32l4.54,3-5.15,9a41,41,0,0,1-3-3.14,2,2,0,0,1-.27-1.8C143.22,145.11,144.54,142.86,146,140.32Z"/><path class="cls-11" d="M123.72,189.05l-4.31,7.29c-4.92-3.25-5-1.69-.38-10.52Z"/><path class="cls-11" d="M141.68,158.43l-4,6.55-4.8-3.89,4.25-5.91Z"/><path class="cls-11" d="M92.74,230.43l-3.4,7.5L85,235.22l4.25-7Z"/><path class="cls-11" d="M127.5,183.13l-3,4.6-4.72-3.39,2.82-5.37Z"/><path class="cls-11" d="M104.78,247.86c1-1.9,1.91-3.83,3-5.68s2.59-1.71,3,.17A6.94,6.94,0,0,1,110,247C108.91,248.87,107.12,249,104.78,247.86Z"/><path class="cls-11" d="M132,162.38l4.8,4-2,3.85-5.6-3.85C130.15,165,130.94,163.88,132,162.38Z"/><path class="cls-11" d="M153.94,136.66,150.11,134l3.31-5.2,3.34,2.3Z"/><path class="cls-11" d="M159.57,115.78l-3.13,4.83-3.63-2.08c.81-1.81,1.58-3.51,2.52-5.6Z"/><path class="cls-11" d="M170.24,80.89c3.95,2.3,3.85,3.44-.58,7.51l-2.88-1.8Z"/><path class="cls-11" d="M162.19,102.15l4.12,2.93L164,109.16l-5.2-3.16Z"/><path class="cls-11" d="M139.69,148c-.52-1.44-1.24-2.39-1-3,.95-2.5,2.18-4.9,3.31-7.34,2.55.95,2.68,2.25,1.29,4.19C142.07,143.5,141.17,145.39,139.69,148Z"/><path class="cls-11" d="M160.61,114.3c-4.88-2.48-5-2.75-2.29-6.64l4.7,2.9C162.15,111.91,161.37,113.11,160.61,114.3Z"/><path class="cls-11" d="M151.87,127.65c-2.52,5.56-2.94,5.77-6.24,2.8l3.38-5.1Z"/><path class="cls-10" d="M210.22,40.89c-1.07-2.39-2.23-4.93,0-6,2.42-1.17,3.34,1.58,4.55,3.89Z"/><path class="cls-11" d="M183.86,76.44,180.66,82l-3.11-2.51,3-5Z"/><path class="cls-11" d="M97.61,244.27l-2.43-1.56,3.7-6.85C102.1,236.48,101.37,236.85,97.61,244.27Z"/><path class="cls-11" d="M142.32,156.79l-4.2-2.88,2.35-3.66C144.72,152.64,144.72,152.64,142.32,156.79Z"/><path class="cls-11" d="M112.2,190.53c-2.16-1-2.67-2.43-1.15-4.47,1-1.36,1.85-2.86,2.77-4.3C115.6,183.08,115.37,184.24,112.2,190.53Z"/><path class="cls-11" d="M149.33,135.37l3.82,2.73-1.9,3.66L147,139.07Z"/><path class="cls-11" d="M177.58,87.59c-1,1.49-1.74,2.7-2.66,4.11l-3.38-2.22c1.18-1.56,2.2-2.9,3.28-4.34Z"/><path class="cls-11" d="M100.84,246l3.83-6.72c3.32,1.58.9,3.51.2,4.91S103.86,248.43,100.84,246Z"/><path class="cls-11" d="M114.13,208.09c-3.58-1.72-3.58-1.72-1.35-6.58C116.22,203,116.09,203,114.13,208.09Z"/><path class="cls-11" d="M160,124.73c-.85,1.73-1.56,3.18-2.39,4.85l-3.25-2.11c.92-1.56,1.77-3,2.71-4.61Z"/><path class="cls-11" d="M155.65,121.92,153,126.36l-3.1-2.44,2.24-3.73Z"/><path class="cls-11" d="M108.81,196.32l-2.78-2.4,2.5-3.89C111.85,192.13,111.88,192.62,108.81,196.32Z"/><path class="cls-11" d="M114.87,195.08l3.55,2.87c-.68,1.32-1.29,2.49-1.9,3.66C112.85,199.55,112.85,199.54,114.87,195.08Z"/><path class="cls-11" d="M151.22,117.75l-2.55-1.26,3.28-5.94C154.41,111.81,154.41,111.81,151.22,117.75Z"/><path class="cls-11" d="M179,73.8c-.84,1.43-1.68,2.88-2.68,4.61l-2.64-2.33C176,71.92,176.4,71.77,179,73.8Z"/><path class="cls-11" d="M121.13,176c.88-3.66,2.7-6.93,4.5-10.33C126.84,167,124.22,173.18,121.13,176Z"/><path class="cls-11" d="M174.06,93.15,172,96.06l-3.85-2.54,2-2.93Z"/><path class="cls-11" d="M169.16,100.69,165,97.07l2-2.26L171,97.38Z"/><path class="cls-11" d="M97.72,234.26l-3.87,7.57-2.3-2,5.29-6.14Z"/><path class="cls-11" d="M103,199.52l2.26-4.13,2.86,2.32-2.49,3.93Z"/><path class="cls-11" d="M144.88,132.48l3.05,1.9-2.2,3.47C142.46,135.94,142.4,135.58,144.88,132.48Z"/><path class="cls-11" d="M160.85,116.93c2.64,1.35,2.58,2-.42,6l-2.44-1.5Z"/><path class="cls-11" d="M109.4,205.07l-2.59-2.18L109.3,199C111.54,200.1,111.54,200.38,109.4,205.07Z"/><path class="cls-11" d="M83.12,223.83l-2.85,6-2-6Z"/><path class="cls-11" d="M158,99.05l2.94,2-3.4,3.82-2-1.19Z"/><path class="cls-11" d="M182.16,83.89c.26-2.55,2-4.21,3-6.12.14-.25,1.28,0,2,.07.14.24.28.48.41.72Z"/><path class="cls-11" d="M145.73,122.69c2.36,1.81,2.27,2.15-1.53,6.55C143,127.9,143,127.64,145.73,122.69Z"/><path class="cls-10" d="M200.2,56.59c.91-1,1.7-2.08,1.84-2a5.09,5.09,0,0,1,2.28,2c.23.55-.62,1.55-1,2.35Z"/><path class="cls-10" d="M195,40.15a34.66,34.66,0,0,1,3.36,2.52,5.13,5.13,0,0,1-1.15,1.65,11.31,11.31,0,0,1-3.09-1.78C193.93,42.4,194.53,41.33,195,40.15Z"/><path class="cls-11" d="M184.83,66.7l2.85,1.68-1.52,3.08-2.83-1.65Z"/><path class="cls-11" d="M164.05,99.23c1.32,1.24,4.58,1.08,3.25,4.59C165.91,102.14,162.82,102.26,164.05,99.23Z"/><path class="cls-11" d="M166.55,92.48,164,90.65,165.74,88c1,.64,1.87,1.19,3,1.89Z"/><path class="cls-11" d="M134.52,152.87c1.3,1.75-.3,4.78-3.19,6.66l-.7-.38Z"/><path class="cls-11" d="M148.14,118.2l2.45,1.24-1.73,3.18C146.2,121.55,146.56,120.11,148.14,118.2Z"/><path class="cls-11" d="M190,73.89l-2.32-1.44,1.6-3.15L192,70.69Z"/><path class="cls-11" d="M81.57,231.32c.82-1.82,1.62-3.65,2.51-5.43.13-.26.93-.52,1-.42.3.34.7,1,.56,1.25-1,1.73-2.13,3.38-3.22,5.06Z"/><path class="cls-11" d="M177.12,81.23l2.59,2.28c-.39.76-.77,1.5-1.15,2.26C175.21,83.8,175.1,83.45,177.12,81.23Z"/><path class="cls-11" d="M136.81,152.56c-2.64-2.09.16-3.29.35-4.89C139.45,149,139.45,149,136.81,152.56Z"/><path class="cls-11" d="M163.58,96.37l-2.4-2,1.6-2.21,3.13,1.79Z"/><path class="cls-11" d="M128,164.85c-1.29-1.27-1.12-1.72,1.63-4.23C130.54,162,130.53,162,128,164.85Z"/><path class="cls-11" d="M153.88,109.8a8.31,8.31,0,0,1,.15-3c.19-.47,1.46-.48,3.07-.94l-2,4.06Z"/><path class="cls-11" d="M117.32,182.43l2.47-5.31c1.25,1.75.81,3-1.59,5.68Z"/><path class="cls-11" d="M174.16,81.83c-.84-1.39-3-2-1.64-4.64C173.63,78.78,176.63,79.11,174.16,81.83Z"/><path class="cls-11" d="M163.84,116.36c-2-1.37-1.75-2.25,1-4.54l.72.26C165,113.48,164.43,114.88,163.84,116.36Z"/><path class="cls-11" d="M184.46,75.05c-1.2-1.22-3.94-1-2.08-3.83C183.57,72.15,186,72.06,184.46,75.05Z"/><path class="cls-11" d="M189.61,65.14c-1.48,3-2.49.64-3.89.29C187,62.83,188.19,64.89,189.61,65.14Z"/><path class="cls-13" d="M157.6,209c-1.8-3.61-.59-6.7,0-9.78.47-2.68,1.54-5.33,1.53-8,0-3.18-.9-6.36-1.41-9.53a5.46,5.46,0,0,0-.35-2,9,9,0,0,0-1.91-1.65c-.45.55-1.31,1.13-1.27,1.64.71,8.29-3.14,14.94-7.62,21.33a59.78,59.78,0,0,1-6,7c-.2-4.56,2.17-8.11,4.65-12-3.74-.81-5.88,2.9-9.79,3,6.12-5.25,7.91-12.17,10.14-18.86,0-.09.1-.16.11-.25.24-1.78,1-3.7.6-5.31-.68-2.65-3,0-4.43-.78-.42-.23-1-.16-1.67-.83l4.81-1.71c-.14-.76-.36-1.61-.45-2.46a4,4,0,0,1,3.12-4.18c2.25-.22,2.22,1.6,2.7,3,.25.76.86,2,1.29,2,3.82-.08,5.67,2.6,7,5.33,4.82,10.28,5.55,20.79.77,31.36A24.24,24.24,0,0,1,157.6,209Z"/><path class="cls-13" d="M75,179.4l4.84-7.23-8.92-2.79.09-.64c3.72-1,7.57-1.57,11.12-3s6.6-3.52,10.2-5.51C89.52,171.55,82.26,179.17,75,179.4Z"/><path class="cls-13" d="M73.47,160.34c3.12-2.45,6-4.63,8.76-6.9,1.17-1,2.18-1.33,3.65-.51a32,32,0,0,0,5.58,2.38c.35.12,1.52-.85,1.51-1.3,0-1.77.29-3.29,2.37-3.07s2.75,1.8,2.58,3.78c-.08.95,0,1.91,0,2.86-2.94-1.82-3.36-1.69-4.67,1.52-3.66-2.26-7.28-3-11.1-.14A9,9,0,0,1,73.47,160.34Z"/><path class="cls-12" d="M225,17.15c.57,3.57-.56,5.66-3.87,7.18a10.44,10.44,0,0,1-12.9-3.44c-1.24-1.72-1.29-7,.18-8.56a4.78,4.78,0,0,1,2.88-1.05c2-.21,4-.07,5.95-.24C222.14,10.62,224.17,12.19,225,17.15Z"/><path d="M73.63,289l-3.25,3.6-.71-.48,1.57-3.76a38.33,38.33,0,0,1-5.64-1.72c-2.68-1.28-2.18,3-4.69,2.22.42-1,.82-2,1.33-3.16l-5.83-2.54-1.27,1.77c-.34-.23-.61-.34-.6-.42.21-1.73-.63-2.56-2.15-3.39-16.7-9-28.21-22.95-36.69-39.58C9,228.36,3.62,214.65,1.57,199.9c-1.84-13.21-2.65-26.51.92-39.54,4.89-17.88,16.19-30.57,32.74-38.78,9.55-4.73,19.82-6.43,30.22-7.79a58.33,58.33,0,0,1,22.18,1.5c8.79,2.27,17.45,5.06,26.18,7.57S129,131.54,135.09,138c.43.46.8,1,1.23,1.46a2.6,2.6,0,0,0,.64.32c1.59-4.15,2.94-8.39,4.78-12.4,6.73-14.63,14.22-28.81,23.57-42,5.47-7.73,10.48-15.68,17.44-22.26,1.95-1.84,2.79-4.87,4.11-7.37a1.16,1.16,0,0,0,0-.78c-1.28-5-1.29-5-.23-9.23a8.53,8.53,0,0,0-1.95-.52c-7.57-.24-11.83-5.41-15.77-10.83-2-2.74-1.78-6.43-.15-7.86s5.14-1.17,7.64.83c3.76,3,7.27,6.3,10.87,9.49.73.65,1.38,1.39,2.2,2.22l3.37-6.18c-2.68-1.35-5.25-2.66-7.84-3.94a14.42,14.42,0,0,1-7.55-9.52c-.67-2.33-.44-4.41,1.47-5.94,2.11-1.69,4.13-.68,6,.69,2.18,1.64,4.34,3.31,6.42,5.08s4,3.62,5.67,5.2L207.47,0c7.8,2.79,15.07,5.29,22.24,8,3.15,1.2,3.78,4.6,2.06,9-.86,2.18-1.34,4.58-2.55,6.54C227.68,26,226,28.7,223.6,30.21c-2,1.31-2.74,2.83-3.72,5a19.84,19.84,0,0,1,15.35,7.57c1.12,1.35,2.44,3.3,2.25,4.8-.31,2.53-2.77,3.17-5.2,3.46-5.11.61-9.39-1.67-13.74-3.69-2.56-1.19-3.83-.81-4.84,1.8-.4,1-.75,2.05-1.09,3.08a5.65,5.65,0,0,0-.09,1c1.44.78,2.93,1.61,4.44,2.41a16.62,16.62,0,0,1,7.79,9.46c1.06,2.89-1,6-4,5.67a18.77,18.77,0,0,1-7-2.53,61,61,0,0,1-6.66-5c-4.12,4.48-4.12,4.48-8.28,1.38C193.33,73,188,81.48,182.37,89.79c-2.43,3.61-5.36,6.89-7.9,10.43-1,1.39-2.66,3,.18,4.89-2.86-.5-3.33,1.34-4.08,3-4.64,10.16-9.24,20.34-14,30.42-1.4,2.93-3.47,5.52-5.19,8.3-.76,1.22-1.41,2.5-2,3.59,13,12.71,27.06,23.84,38.14,38.06,10.79,13.84,19.39,28.82,24.16,45.75a67.69,67.69,0,0,1,2.95,18.23c0,13.05-7.34,22.08-18.23,28.44-8.63,5-18.24,7.15-28,8.66-9.08,1.41-18.19,2.65-27.31,3.81-15.16,1.92-30.31,1-45.4-.82C88.27,291.62,81,290.19,73.63,289Zm62.08-115.43c-2,3.32-4,6.6-5.87,10q-3.9,6.84-7.65,13.76c-.43.8-.26,2-.82,2.61-1.61,1.64-2.5,3.31-1.52,5.16-.83.62-1.74,1-2,1.58-1.53,3.22-3,6.47-4.31,9.79-1.76,4.57-3.28,9.24-5,13.83-.94,2.51-2.08,4.95-3.13,7.46.47.24.79.52.91.45.95-.52,1.86-1.11,2.78-1.68.38,1,.75,2,1.14,3,0,.06.15.09.22.15,2.68,2.35,3.09,4.35,1.47,7.15a5.91,5.91,0,0,1-7.46,2.73c-1.51-.57-3-1.33-4.43-2L80,279.38c.76.26,1.24.46,1.73.6,15.52,4.54,31.32,5.17,47.25,3.14,10.1-1.29,20.14-3,30.24-4.37a54,54,0,0,0,30.2-13.83c4.83-4.42,8.24-9.5,7.68-16.39-.76-9.34-1.86-18.62-4.84-27.59-3.34-10.07-8.38-19.27-13.71-28.4a109.24,109.24,0,0,0-26.7-30.95c-2-1.6-4.33-2.84-6.61-4.32-1.92,3.27-3.67,6.22-5.42,9.17l1.06,1.07c-1.33,1.25-2.59,2.28-3.67,3.48a15.25,15.25,0,0,0-1.52,2.57Zm-34.92,25.91c3.5-5.44,6.46-10.93,9.89-16.17,4.46-6.82,8.15-14.13,12.45-21.06,3.29-5.3,7-10.36,10.58-15.45,1.1-1.57.89-2.62-.63-3.58-4.59-2.93-9-6.3-13.85-8.63a46.31,46.31,0,0,0-12.47-3.45c-4.43-.72-9.06-.29-13.48-1.07-10.87-1.9-21.42-2.49-32.19,1.35C40.62,138.7,25,151,16.25,171.29c-3.58,8.3-4.92,16.72-3.12,25.8,2.37,11.93,5.39,23.49,11.45,34.2,5.16,9.11,10.09,18.33,17.58,25.81a68.21,68.21,0,0,0,19.25,14.12c1.79-3.24,3.65-6.31,5.22-9.53,1.27-2.61,2-5.48,3.31-8.06,3.5-6.86,7.2-13.63,10.66-20.14-1.14-2.7-2.36-5.39-3.43-8.14-.68-1.76.18-3.08,2-3,2.64.16,5.24.8,8.55,1.35L105,203.08Zm-40.31,73.3c-.74-.44-1.35-.81-2-1.16-7.44-4.18-14.34-9.19-19.69-15.81-13.44-16.62-23.28-35-26.75-56.46-1.27-7.86-1.83-15.42.76-23.11C19,158.11,30.55,144.7,47.38,135.82c14.12-7.44,28.88-11.24,44.93-7.27,3.76.93,7.78,1.75,11.57,1.4,7.64-.71,14,2.06,20.29,5.73,3.89,2.28,7.69,4.7,11.74,7.18-.15-.65-.1-1.28-.38-1.62-5.12-6.05-10.28-12.29-17.91-15.14-8.41-3.13-17.09-5.54-25.69-8.16-19.23-5.87-37.88-3.21-55.75,4.93C19.66,130.39,8.71,143.21,4,160.9.78,173,1.37,185.26,2.78,197.49,4.54,212.87,10,227.08,16.93,240.8c6.71,13.34,15.48,25,27.68,33.88,3.34,2.42,7,4.48,10.5,6.75Zm13.66,14.89,12.1,2.12c15.36,2.71,30.87,4.25,46.39,2.85,14.48-1.31,28.89-3.58,43.25-5.9a53.38,53.38,0,0,0,22.67-8.9c8.36-5.95,14.52-13.72,14.45-24.36a74.15,74.15,0,0,0-3.24-19.83c-5.33-18.34-15.18-34.28-27.34-48.9-9.58-11.52-21.48-20.64-32-31.19a14.23,14.23,0,0,0-2.13-1.46l-2.14,3.78c2.72,1.9,5.33,3.42,7.59,5.36,8.15,7,15.74,14.34,21.82,23.42,12.55,18.76,21.83,38.55,23.06,61.47.26,4.89.08,9.65-3,13.8A47.22,47.22,0,0,1,165,279.08c-11,1.95-22.12,3.33-33.18,5a115.32,115.32,0,0,1-32.34.83c-6.9-.89-13.71-2.49-20.8-3.81C77.38,283,75.94,285.08,74.14,287.67Zm114-225.17c1.55,1.62,2.53,1.34,3.8-.72,4.47-7.25,9.21-14.33,13.78-21.51.81-1.26,1.19-2.79,2-4s1.74-2.65,2.9-3c2.4-.64,4.71,1.52,5.43,4.58.57,2.38-1.62,2.74-2.94,3.62-2,1.34-3.86.69-5.9-1.56L192,64.62l2.92,1.84a22.12,22.12,0,0,0,1.37-2c1.44-2.8,4.83-4.89,3.12-8.89a2.47,2.47,0,0,1,1.18-2.06c1.43-.17,3.47-.37,4.24.43a6.47,6.47,0,0,1,1.24,4.6c-.06.73-1.89,1.83-2.94,1.84-2,0-3,.9-3.51,2.77l3.2,2.77c1.93-3,3.6-5.8,5.49-8.45,3.25-4.56,3.48-10.42,7.23-15,2.43-2.94,2.71-7.66,3.71-10.81l-19.67-7.17c-.68,1.17-1.78,2.83-2.64,4.61-3.23,6.7-6.5,13.38-9.48,20.19-1.34,3-.52,4.16,2.92,5.29.64-1.48,1.18-3,1.94-4.46,1-2,2.29-3.66.47-6.11a3,3,0,0,1,1.4-4.61,4.24,4.24,0,0,1,5.52,2c.91,2.2,0,3.6-2.09,4.56a4.52,4.52,0,0,0-2.11,1.78C193,52.58,190.63,57.44,188.09,62.5ZM90.39,241.28c-6.91,11.47-13.71,22.78-20.68,34.37l8.63,3.27L98.49,247ZM67.82,274.66c2.76-4,5.59-7.8,8-11.81,4.16-6.81,8-13.8,12.15-20.64.91-1.5.85-2.42-.45-3.45-1.66-1.32-3.28-2.69-5.09-4.18a23.7,23.7,0,0,0-1.7,2.43Q75,248.13,69.4,259.28c-2.13,4.25-4.17,8.54-6.34,13ZM208.07,1.8c-2.24,5.66-4.22,10.89-6.39,16.05-1.57,3.76-1.42,4.79,2.27,6.62a42.55,42.55,0,0,0,15.25,4.62c3.8.35,6.31-1,7.65-4.22a118.46,118.46,0,0,0,4-11.78c.55-1.84-.49-3.17-2.24-3.82C222,6.84,215.38,4.45,208.07,1.8ZM96.63,231.25c5.82-6.24,8.94-13.75,11.47-21.58,1.13-3.52,1.1-3.66-2.22-5.19L88.71,225ZM172.12,27c-3.41.41-3.13,2.27-2.79,4,1.33,6.61,10,13.16,16.94,12.8a2.23,2.23,0,0,0,1.65-1.26c.23-.9.36-2.33-.16-2.83-3.88-3.77-7.86-7.45-12-11A12.89,12.89,0,0,0,172.12,27Zm48,10.09c-.3.26-1.38.76-1.65,1.55-2.11,6.08-2.07,6.11,3.77,8.76a18.49,18.49,0,0,0,4.8,1.86,21.05,21.05,0,0,0,6.95,0c2.34-.46,2.81-2.28,1.25-4.1a30.24,30.24,0,0,0-5-4.94A14.6,14.6,0,0,0,220.08,37.05ZM181.14,14c-2.39.78-2.57,2.39-2.28,4.25.82,5.38,8.33,12.29,13.81,12.26,1.07,0,2.31-1.69,3.12-2.85a2.58,2.58,0,0,0-.37-2.46c-4-3.53-8.13-6.94-12.27-10.33A7.7,7.7,0,0,0,181.14,14ZM103.75,237c.7-1.45,1.26-2.39,1.63-3.4q3.8-10.47,7.52-21c1.15-3.25,1.07-3.32-2.56-4.45-2.75,8.72-6.16,17.15-12.4,24.06ZM211.54,54.8c-1.09,2.07-2.21,4.13-3.22,6.24a1.52,1.52,0,0,0,.25,1.41,89.67,89.67,0,0,0,9.55,6.65c1.13.62,3.48.06,4.63-.81.63-.47.3-2.84-.2-4.12C220.6,59.22,216.33,56.82,211.54,54.8ZM128.26,167.57l-5,9.85,5.32,3.83,5.45-9.54C132.06,170.31,130.38,169.1,128.26,167.57ZM68.56,276.86c-1.39,2.9-2.63,5.46-3.94,8.2,2.45.68,4.25,1.3,6.11,1.64a2.81,2.81,0,0,0,2.28-.64c1.47-1.77,2.72-3.74,4.17-5.8Zm-1.43-.74-5.2-2.61-5,8.46,5.93,2.44ZM146,140.32c-1.42,2.54-2.74,4.79-3.91,7.12a2,2,0,0,0,.27,1.8,41,41,0,0,0,3,3.14l5.15-9Zm-22.24,48.73L119,185.82c-4.61,8.83-4.54,7.27.38,10.52Zm18-30.62-4.5-3.25-4.25,5.91,4.8,3.89Zm-48.94,72-3.45-2.2-4.25,7,4.3,2.71Zm34.76-47.3L122.58,179l-2.82,5.37,4.72,3.39Zm-22.72,64.73c2.34,1.09,4.13,1,5.22-.84a6.94,6.94,0,0,0,.77-4.67c-.44-1.88-2-1.88-3-.17S105.76,246,104.78,247.86ZM132,162.38c-1.06,1.5-1.85,2.64-2.8,4l5.6,3.85,2-3.85Zm21.94-25.72,2.82-5.56-3.34-2.3-3.31,5.2Zm5.63-20.88-4.24-2.85c-.94,2.09-1.71,3.79-2.52,5.6l3.63,2.08Zm10.67-34.89-3.46,5.71,2.88,1.8C174.09,84.33,174.19,83.19,170.24,80.89Zm-8.05,21.26L158.75,106l5.2,3.16,2.36-4.08ZM139.69,148c1.48-2.56,2.38-4.45,3.59-6.14,1.39-1.94,1.26-3.24-1.29-4.19-1.13,2.44-2.36,4.84-3.31,7.34C138.45,145.56,139.17,146.51,139.69,148Zm20.92-33.65c.76-1.19,1.54-2.39,2.41-3.74l-4.7-2.9C155.63,111.55,155.73,111.82,160.61,114.3Zm-8.74,13.35-2.86-2.3-3.38,5.1C148.93,133.42,149.35,133.21,151.87,127.65Zm58.35-86.76,4.55-2.11c-1.21-2.31-2.13-5.06-4.55-3.89C208,36,209.15,38.5,210.22,40.89ZM183.86,76.44l-3.34-2-3,5L180.66,82ZM97.61,244.27c3.76-7.42,4.49-7.79,1.27-8.41l-3.7,6.85Zm44.71-87.48c2.4-4.15,2.4-4.15-1.85-6.54l-2.35,3.66ZM112.2,190.53c3.17-6.29,3.4-7.45,1.62-8.77-.92,1.44-1.76,2.94-2.77,4.3C109.53,188.1,110,189.49,112.2,190.53Zm37.13-55.16-2.37,3.7,4.29,2.69,1.9-3.66Zm28.25-47.78-2.76-2.45c-1.08,1.44-2.1,2.78-3.28,4.34l3.38,2.22C175.84,90.29,176.62,89.08,177.58,87.59ZM100.84,246c3,2.48,3.39-.54,4-1.81s3.12-3.33-.2-4.91Zm13.29-37.86c2-5.13,2.09-5.09-1.35-6.58C110.55,206.37,110.55,206.37,114.13,208.09ZM160,124.73l-2.93-1.87c-.94,1.61-1.79,3-2.71,4.61l3.25,2.11C158.43,127.91,159.14,126.46,160,124.73Zm-4.34-2.81-3.5-1.73-2.24,3.73,3.1,2.44Zm-46.84,74.4c3.07-3.7,3-4.19-.28-6.29l-2.5,3.89Zm6.06-1.24c-2,4.46-2,4.47,1.65,6.53.61-1.17,1.22-2.34,1.9-3.66Zm36.35-77.33c3.19-5.94,3.19-5.94.73-7.2l-3.28,5.94ZM179,73.8c-2.61-2-3-1.88-5.32,2.28l2.64,2.33C177.33,76.68,178.17,75.23,179,73.8ZM121.13,176c3.09-2.81,5.71-9,4.5-10.33C123.83,169.06,122,172.33,121.13,176Zm52.93-82.84-3.94-2.56-2,2.93L172,96.06Zm-4.9,7.54L171,97.38l-4.06-2.57-2,2.26ZM97.72,234.26l-.88-.54-5.29,6.14,2.3,2ZM103,199.52l2.63,2.12,2.49-3.93-2.86-2.32Zm41.9-67c-2.48,3.1-2.42,3.46.85,5.37l2.2-3.47Zm16-15.55L158,121.44l2.44,1.5C163.43,119,163.49,118.28,160.85,116.93ZM109.4,205.07c2.14-4.69,2.14-5-.1-6.07l-2.49,3.89ZM83.12,223.83l-4.9,0,2,6ZM158,99.05l-2.44,4.65,2,1.19,3.4-3.82Zm24.14-15.16,5.33-5.33c-.13-.24-.27-.48-.41-.72-.67,0-1.81-.32-2-.07C184.13,79.68,182.42,81.34,182.16,83.89Zm-36.43,38.8c-2.7,5-2.76,5.21-1.53,6.55C148,124.84,148.09,124.5,145.73,122.69Zm54.47-66.1,3.14,2.31c.36-.8,1.21-1.8,1-2.35a5.09,5.09,0,0,0-2.28-2C201.9,54.51,201.11,55.58,200.2,56.59ZM195,40.15c-.45,1.18-1,2.25-.88,2.39a11.31,11.31,0,0,0,3.09,1.78,5.13,5.13,0,0,0,1.15-1.65A34.66,34.66,0,0,0,195,40.15ZM184.83,66.7l-1.5,3.11,2.83,1.65,1.52-3.08ZM164.05,99.23c-1.23,3,1.86,2.91,3.25,4.59C168.63,100.31,165.37,100.47,164.05,99.23Zm2.5-6.75,2.16-2.62c-1.1-.7-2-1.25-3-1.89L164,90.65Zm-32,60.39-3.89,6.28.7.38C134.22,157.65,135.82,154.62,134.52,152.87Zm13.62-34.67c-1.58,1.91-1.94,3.35.72,4.42l1.73-3.18ZM190,73.89l2-3.2-2.74-1.39-1.6,3.15ZM81.57,231.32l.87.46c1.09-1.68,2.22-3.33,3.22-5.06.14-.25-.26-.91-.56-1.25-.09-.1-.89.16-1,.42C83.19,227.67,82.39,229.5,81.57,231.32ZM177.12,81.23c-2,2.22-1.91,2.57,1.44,4.54.38-.76.76-1.5,1.15-2.26Zm-40.31,71.33c2.64-3.58,2.64-3.58.35-4.89C137,149.27,134.17,150.47,136.81,152.56Zm26.77-56.19,2.33-2.43-3.13-1.79-1.6,2.21ZM128,164.85c2.58-2.82,2.59-2.86,1.63-4.23C126.83,163.13,126.66,163.58,128,164.85Zm25.93-55,1.17.07,2-4.06c-1.61.46-2.88.47-3.07.94A8.31,8.31,0,0,0,153.88,109.8Zm-36.56,72.63.88.37c2.4-2.67,2.84-3.93,1.59-5.68Zm56.84-100.6c2.47-2.72-.53-3-1.64-4.64C171.13,79.78,173.32,80.44,174.16,81.83Zm-10.32,34.53c.59-1.48,1.16-2.88,1.73-4.28l-.72-.26C162.09,114.11,161.84,115,163.84,116.36Zm20.62-41.31c1.5-3-.89-2.9-2.08-3.83C180.52,74,183.26,73.83,184.46,75.05Zm5.15-9.91c-1.42-.25-2.59-2.31-3.89.29C187.12,65.78,188.13,68.12,189.61,65.14Z"/><path d="M135.7,173.56c2.13-1,4.31-1.89,6.35-3,.5-.27.75-1.31.79-2,.17-3.24,2.72-5.72,5.86-5.22,1,.16,1.89,1.21,2.68,2s1.44,2.44,2.49,2.91c4,1.79,6.09,5.09,7.51,8.9,3.53,9.47,4,19-.09,28.44a25.89,25.89,0,0,1-3.08,4.75c-1.3,1.79-2.2.93-2.46-.67a22.87,22.87,0,0,1-.44-6.42c.6-4.58,1.82-9.08,2.36-13.67.25-2.15-.5-4.42-1.18-6.73-2.21,12-9.14,20.83-17.33,28.89l-1.38-.58c1.07-4.16,2.15-8.32,3.11-12l-8.24,2.39-.53-1a23.39,23.39,0,0,1,1.77-2.06c4.58-4.31,7.86-9.23,8.21-15.78.09-1.56,1-3.08,1.48-4.63.25-.8.42-1.62.64-2.51-2.5-.18-4.67-.25-6.81-.56-.62-.09-1.13-.89-1.7-1.36ZM157.6,209a24.24,24.24,0,0,0,1.69-2.62c4.78-10.57,4.05-21.08-.77-31.36-1.28-2.73-3.13-5.41-7-5.33-.43,0-1-1.24-1.29-2-.48-1.44-.45-3.26-2.7-3a4,4,0,0,0-3.12,4.18c.09.85.31,1.7.45,2.46L140.1,173c.67.67,1.25.6,1.67.83,1.45.77,3.75-1.87,4.43.78.41,1.61-.36,3.53-.6,5.31,0,.09-.08.16-.11.25-2.23,6.69-4,13.61-10.14,18.86,3.91-.12,6.05-3.83,9.79-3-2.48,3.91-4.85,7.46-4.65,12a59.78,59.78,0,0,0,6-7c4.48-6.39,8.33-13,7.62-21.33,0-.51.82-1.09,1.27-1.64a9,9,0,0,1,1.91,1.65,5.46,5.46,0,0,1,.35,2c.51,3.17,1.39,6.35,1.41,9.53,0,2.66-1.06,5.31-1.53,8C157,202.34,155.8,205.43,157.6,209Z"/><path d="M89.42,159.37c-1.62-1.69-3.19-.81-4.91-.12-2.66,1.08-5.36,2.33-8.16,2.71-1.89.26-4-.85-6-1.34l.05-1c.67-.35,1.37-.65,2-1.05,2.3-1.41,4.89-2.54,6.81-4.36,2.78-2.63,5.43-4.2,9.15-2.14a17,17,0,0,0,2.5.84c.87-2.44,2.49-4.12,5.19-3.43s3.33,2.85,3.56,5.45c.15,1.8,1.13,3.53,2,6.17-1.72-.66-3.08-.88-4.06-1.62-1.52-1.14-2.28-.6-2.93.81-.83,1.81-1.73,3.6-2.43,5.47-3.13,8.46-8.86,14-17.85,15.78a4.66,4.66,0,0,1-1.49-.21,5.19,5.19,0,0,1,.29-1.45c1.22-2.21,2.51-4.39,3.83-6.68l-9.57-3.72c2-2.32,4.44-2.85,7-3.1C80.4,165.8,86.29,163.05,89.42,159.37ZM75,179.4c7.27-.23,14.53-7.85,17.33-19.13-3.6,2-6.74,4.15-10.2,5.51s-7.4,2-11.12,3l-.09.64,8.92,2.79Zm-1.52-19.06A9,9,0,0,0,82.1,159c3.82-2.89,7.44-2.12,11.1.14,1.31-3.21,1.73-3.34,4.66-1.52,0-1,0-1.91.06-2.86.17-2-.52-3.57-2.58-3.78S93,152.24,93,154c0,.45-1.16,1.42-1.51,1.3a32,32,0,0,1-5.58-2.38c-1.47-.82-2.48-.45-3.65.51C79.45,155.71,76.59,157.89,73.47,160.34Z"/><path d="M226.62,16.82a7.31,7.31,0,0,1-2.07,7c-5,5-14.71,3.57-18.1-2.6-1.27-2.31-.89-8.37.92-10.19a6,6,0,0,1,3.39-1.34c3.23-.35,6.62-1.1,9.68-.43,2.06.45,3.79,2.92,5.4,4.72C226.49,14.7,226.43,16.05,226.62,16.82Zm-1.66.33c-.79-5-2.82-6.53-7.76-6.11-2,.17-4,0-5.95.24a4.78,4.78,0,0,0-2.88,1.05c-1.47,1.58-1.42,6.84-.18,8.56a10.44,10.44,0,0,0,12.9,3.44C224.4,22.81,225.53,20.72,225,17.15Z"/></g></svg>