<svg id="Layer_1" data-name="Layer 1" xmlns="http://www.w3.org/2000/svg" viewBox="0 0 585.92 726.32"><defs><style>.cls-1{fill:#a2d9d7;}.cls-2{fill:#e06124;}.cls-3{fill:#e36124;}.cls-4{fill:#82a637;}.cls-5{fill:#9fd6d4;}.cls-6{fill:#882aae;}</style></defs><path class="cls-1" d="M248.66,492.13,259,501,216.27,552c-8.14-1.36-14.57-3-21.07-3.34-4.39-.26-6.49,3-4.82,7.32,2.63,6.8,5.64,13.44,8.46,20.08-8.54,16.07-17.66,32.76-26.3,49.7-3.25,6.36-5,13.45-8.17,19.88-3.87,7.94-8.46,15.53-12.87,23.51-18.94-9-33.82-21.14-47.5-34.82-18.47-18.47-30.62-41.21-43.35-63.69-15-26.42-22.4-54.94-28.25-84.36-4.46-22.4-1.14-43.17,7.69-63.65,21.58-50,60.13-80.39,110.61-98.37,26.59-9.46,52.61-8,79.42-3.32,10.91,1.91,22.32.86,33.26,2.64,10.48,1.71,21.31,4,30.77,8.5,12,5.76,22.83,14.08,34.16,21.29,3.76,2.38,4.28,5,1.55,8.83-8.9,12.56-18,25.05-26.09,38.12-10.61,17.09-19.71,35.14-30.72,52C264.59,465.15,257.28,478.69,248.66,492.13Zm-28.06-99c-7.73,9.08-22.26,15.87-36.93,17.28-6.24.61-12.13,1.93-17.19,7.63l23.59,9.2c-3.25,5.63-6.42,11-9.43,16.48-.56,1-.49,2.38-.71,3.58,1.22.19,2.52.74,3.66.51,22.19-4.46,36.31-18.06,44-38.94,1.71-4.6,3.94-9,6-13.49,1.59-3.47,3.47-4.8,7.23-2,2.42,1.8,5.77,2.36,10,4-2.25-6.51-4.65-10.77-5-15.22-.55-6.42-2.23-11.78-8.78-13.45s-10.64,2.45-12.79,8.47c-2.37-.78-4.43-1.13-6.16-2.09-9.2-5.06-15.74-1.2-22.58,5.28-4.75,4.5-11.12,7.29-16.81,10.78-1.58,1-3.3,1.72-5,2.57l-.13,2.5c4.93,1.22,10.06,3.95,14.74,3.31,6.89-.94,13.55-4,20.12-6.68C212.72,391.18,216.61,389,220.6,393.16Z"/><path class="cls-1" d="M334.77,428.17c1.23-2.13,2.15-4.54,3.76-6.33,2.66-3,5.76-5.52,9.05-8.6L345,410.62,358.34,388c5.63,3.63,11.32,6.7,16.31,10.65,26.84,21.21,48.54,46.74,65.86,76.36,13.16,22.52,25.58,45.21,33.83,70,7.35,22.12,10.06,45,11.94,68.06,1.38,17-7,29.53-18.95,40.44-21.2,19.38-46.09,30.38-74.51,34.13-24.91,3.29-49.69,7.59-74.61,10.76-39.3,5-78.27,3.46-116.55-7.74-1.21-.35-2.39-.82-4.28-1.48l49.34-78.6c3.67,1.7,7.21,3.59,10.94,5,7.34,2.75,14.48,0,18.39-6.72,4-6.93,3-11.86-3.62-17.67-.16-.14-.48-.2-.55-.36-.95-2.48-1.87-5-2.8-7.46-2.27,1.4-4.52,2.85-6.86,4.14-.31.17-1.1-.52-2.26-1.13,2.61-6.17,5.41-12.2,7.72-18.4,4.24-11.33,8-22.84,12.33-34.12,3.16-8.19,6.85-16.2,10.63-24.13.74-1.55,3-2.38,5-3.91-2.41-4.56-.21-8.68,3.75-12.72,1.4-1.43,1-4.48,2-6.44q9.26-17.07,18.86-33.95c4.71-8.26,9.67-16.37,14.51-24.55,1.39,1.17,2.66,3.12,4.19,3.34,5.26.77,10.62.94,16.8,1.4-.56,2.18-1,4.22-1.6,6.2-1.2,3.82-3.43,7.55-3.63,11.4-.87,16.17-9,28.31-20.27,38.94a60.83,60.83,0,0,0-4.36,5.07l1.32,2.56,20.31-5.9c-2.36,9.13-5,19.39-7.67,29.66l3.41,1.43c20.19-19.9,37.29-41.74,42.76-71.29,1.67,5.7,3.52,11.31,2.9,16.62-1.32,11.31-4.33,22.41-5.82,33.71-.68,5.15.27,10.61,1.1,15.83.63,4,2.85,6.08,6.06,1.68,2.75-3.76,5.77-7.51,7.59-11.73,10-23.29,8.93-46.8.23-70.16-3.5-9.39-8.65-17.55-18.53-22-2.59-1.16-3.92-4.94-6.15-7.19-1.95-1.95-4.19-4.55-6.6-4.94-7.75-1.23-14,4.87-14.47,12.87-.09,1.73-.71,4.28-1.93,5C345.4,423.5,340,425.73,334.77,428.17Z"/><path class="cls-2" d="M149.22,672.94c-4.29,6.91-8.4,13.52-13.25,21.35-8.76-5.59-17.66-10.68-25.92-16.66C80,655.83,58.31,627,41.77,594.06c-17-33.84-30.57-68.91-34.92-106.84C3.39,457,1.93,426.7,9.86,397c11.63-43.64,38.64-75.27,79.41-93.84C133.35,283,179.35,276.48,226.79,291c21.21,6.47,42.64,12.4,63.38,20.14,18.82,7,31.55,22.42,44.18,37.35.7.84.58,2.38.93,4-10-6.13-19.37-12.1-29-17.72-15.41-9-31.2-15.87-50.06-14.14-9.34.87-19.26-1.14-28.53-3.43-39.61-9.8-76-.44-110.84,17.93-41.51,21.9-70.15,55-85.23,99.71-6.4,19-5,37.61-1.88,57,8.55,53,32.83,98.29,66,139.3,13.2,16.32,30.21,28.69,48.56,39C145.87,671,147.38,671.87,149.22,672.94Z"/><path class="cls-2" d="M182.91,709.69l11.18-16.11c17.48,3.26,34.28,7.21,51.3,9.39,26.62,3.4,53.27,2,79.8-2.05,27.27-4.21,54.69-7.6,81.85-12.42,31.32-5.55,56.59-21.57,75.57-47.25,7.57-10.25,8-22,7.38-34-3-56.55-25.92-105.36-56.89-151.65-15-22.4-33.73-40.56-53.81-57.78-5.57-4.78-12-8.53-18.74-13.22,1.6-2.82,3.29-5.82,5.28-9.34,2.07,1.4,3.91,2.27,5.25,3.62,26,26,55.31,48.52,78.95,76.94,30,36.06,54.31,75.39,67.46,120.65,4.59,15.79,7.87,32.56,8,48.9.17,26.26-15,45.42-35.64,60.1-16.71,11.9-35.95,18.73-55.94,22-35.43,5.73-71,11.33-106.68,14.55-38.3,3.45-76.56-.33-114.45-7C203.29,713.24,193.81,711.6,182.91,709.69Z"/><path class="cls-3" d="M464,154.2c6.25-12.49,12.12-24.49,18.31-36.32a11.43,11.43,0,0,1,5.21-4.41c5.11-2.35,7.4-5.81,5.16-11.23-2-4.86-8.68-7.32-13.62-5C474,99.73,473,105,475.64,108.65c4.49,6,1.42,10.17-1.16,15.08-1.86,3.53-3.21,7.33-4.77,11-8.5-2.79-10.52-5.54-7.23-13,7.37-16.79,15.44-33.27,23.39-49.8,2.12-4.39,4.85-8.49,6.52-11.38l48.53,17.69c-2.47,7.78-3.16,19.41-9.15,26.68-9.26,11.24-9.82,25.7-17.84,37-4.66,6.54-8.78,13.47-13.55,20.84l-7.89-6.84c1.36-4.61,3.65-6.75,8.66-6.82,2.58,0,7.11-2.75,7.26-4.54.3-3.79-.62-8.79-3.07-11.36-1.88-2-6.93-1.48-10.45-1.06-1.23.15-3.42,3.93-2.92,5.1,4.22,9.85-4.15,15-7.7,21.92a49.74,49.74,0,0,1-3.38,4.92l-7.2-4.55,37.44-60.88c5,5.54,9.58,7.14,14.56,3.85,3.27-2.17,8.65-3.06,7.27-9-1.78-7.53-7.49-12.86-13.4-11.3-2.86.75-5.24,4.47-7.16,7.3-2.06,3-3,6.8-5,9.9-11.29,17.72-23,35.19-34,53.06C470.26,157.49,467.84,158.2,464,154.2Z"/><path class="cls-4" d="M223,595.24l20,14.06-49.73,78.8L172,680Z"/><path class="cls-4" d="M167.32,677.6l-11.76-5.92c5.35-11,10.39-21.56,15.66-32q13.88-27.54,28-54.94c1-1.93,2.49-3.59,4.19-6,4.46,3.67,8.45,7,12.55,10.3,3.22,2.55,3.37,4.81,1.13,8.52-10.19,16.86-19.71,34.12-30,50.93C181.1,658.34,174.13,667.65,167.32,677.6Z"/><path class="cls-3" d="M513.32,4.44c18,6.54,34.4,12.44,50.74,18.44,4.31,1.58,6.88,4.88,5.52,9.42a294.23,294.23,0,0,1-9.93,29.06c-3.32,7.92-9.51,11.27-18.87,10.41-13.49-1.22-25.78-5.51-37.63-11.4-9.1-4.52-9.48-7-5.59-16.33C502.9,31.31,507.79,18.4,513.32,4.44Zm45.76,37.05c-.47-1.9-.33-5.22-1.92-7-4-4.44-8.25-10.52-13.34-11.64-7.53-1.65-15.9.19-23.86,1.05-2.92.32-6.4,1.36-8.36,3.33-4.49,4.47-5.42,19.44-2.29,25.12C517.68,67.6,541.73,71,554,58.78,558.62,54.13,560.39,48.66,559.08,41.49Z"/><path class="cls-4" d="M238.38,570.5l-19.54-15.33c14.53-17.4,28.43-34,42.38-50.72,8.18,3.78,8.26,4.13,5.45,12.82C260.44,536.58,252.74,555.1,238.38,570.5Z"/><path class="cls-5" d="M424.61,66.52c2,.88,6.2,1.75,9.05,4.19,10.14,8.68,20,17.75,29.54,27.05,1.28,1.24,1,4.78.4,7-.35,1.34-2.6,3-4.07,3.1-17.17.89-38.52-15.27-41.79-31.56C416.9,72.11,416.21,67.53,424.61,66.52Z"/><path class="cls-5" d="M542.93,91.4c10.57-.7,18.13,2.82,24.86,7.71a74.68,74.68,0,0,1,12.45,12.18c3.84,4.5,2.7,9-3.07,10.11a52.56,52.56,0,0,1-17.16,0c-4.09-.58-8-2.84-11.85-4.6-14.41-6.53-14.51-6.61-9.29-21.62C539.54,93.29,542.2,92.05,542.93,91.4Z"/><path class="cls-5" d="M446.89,34.55c1.37.57,3.5,1,5,2.14,10.2,8.36,20.37,16.77,30.26,25.49,1.23,1.08,1.78,4.77.9,6.05-2,2.86-5.05,7-7.7,7-13.51.08-32-17-34.07-30.24C440.54,40.45,441,36.45,446.89,34.55Z"/><path class="cls-4" d="M255.94,584.61l-14.32-11.72c15.38-17,23.81-37.83,30.59-59.36,9,2.8,9.15,3,6.32,11q-9.13,25.9-18.56,51.71C259.06,578.71,257.68,581,255.94,584.61Z"/><path class="cls-5" d="M521.86,135.19c11.83,5,22.36,10.9,27.16,23.11,1.24,3.16,2.07,9,.51,10.18-2.85,2.14-8.64,3.52-11.42,2-8.33-4.6-15.85-10.71-23.55-16.4a3.71,3.71,0,0,1-.63-3.48C516.42,145.37,519.19,140.31,521.86,135.19Z"/><path class="cls-4" d="M316.42,413.39l14.12,10.21c-4.52,7.9-8.87,15.53-13.45,23.55L304,437.71C308.06,429.71,312.08,421.86,316.42,413.39Z"/><path class="cls-4" d="M169.13,683l21.26,8.38c-3.57,5.08-6.64,9.93-10.27,14.31-1.05,1.26-3.85,1.9-5.62,1.58-4.59-.84-9-2.37-15.09-4.06Z"/><path class="cls-4" d="M165.62,681.2l-10.68,20.45-14.62-6c4.25-7.1,8.19-13.69,12.46-20.85Z"/><path class="cls-4" d="M360.09,346.17l11.2,7.48-12.71,22.27c-2.88-2.92-5.43-5.13-7.48-7.74a5.08,5.08,0,0,1-.67-4.44C353.32,358,356.59,352.44,360.09,346.17Z"/><path class="cls-4" d="M305.21,466.38l-10.63,18c-12.13-8-12.31-4.17-.92-25.94Z"/><path class="cls-4" d="M349.54,390.84,339.78,407l-11.84-9.58,10.49-14.6Z"/><path class="cls-4" d="M228.78,568.47c-3,6.54-5.61,12.39-8.37,18.51l-10.62-6.68,10.48-17.25Z"/><path class="cls-4" d="M314.53,451.79l-7.44,11.35-11.63-8.37,7-13.26Z"/><path class="cls-4" d="M258.49,611.46c2.43-4.68,4.71-9.43,7.32-14,2.4-4.22,6.38-4.21,7.47.42a17.17,17.17,0,0,1-1.9,11.53C268.69,614,264.27,614.15,258.49,611.46Z"/><path class="cls-4" d="M325.63,400.6l11.85,9.84-4.93,9.5-13.81-9.51Z"/><path class="cls-4" d="M379.78,337.15l-9.45-6.57c2.71-4.25,5.26-8.27,8.16-12.84l8.24,5.69C384.45,327.92,382.37,332,379.78,337.15Z"/><path class="cls-4" d="M393.65,285.63l-7.71,11.92-9-5.14c2-4.46,3.9-8.66,6.21-13.81Z"/><path class="cls-4" d="M420,199.56c9.75,5.68,9.51,8.49-1.43,18.53l-7.1-4.45C414.4,208.76,417.19,204.16,420,199.56Z"/><path class="cls-4" d="M400.13,252l10.15,7.22-5.81,10.07-12.83-7.8C394.7,258.09,397.2,255.29,400.13,252Z"/><path class="cls-4" d="M344.62,365c-1.28-3.55-3.05-5.9-2.49-7.37,2.34-6.19,5.38-12.11,8.16-18.12,6.28,2.33,6.61,5.54,3.18,10.34C350.5,354,348.26,358.68,344.62,365Z"/><path class="cls-4" d="M396.23,282c-12.05-6.12-12.29-6.76-5.65-16.37l11.58,7.15Z"/><path class="cls-4" d="M374.67,314.92c-6.21,13.7-7.26,14.22-15.4,6.91,2.64-4,5.34-8.07,8.35-12.6Z"/><path class="cls-3" d="M518.63,100.87c-2.66-5.89-5.52-12.15,0-14.8,6-2.88,8.24,3.9,11.22,9.59Z"/><path class="cls-4" d="M453.58,188.57l-7.9,13.76L438,196.12l7.32-12.35Z"/><path class="cls-4" d="M240.8,602.61l-6-3.83,9.12-16.92C251.88,583.39,250.09,584.31,240.8,602.61Z"/><path class="cls-4" d="M351.1,386.81l-10.35-7.12c2.09-3.25,3.94-6.14,5.78-9C357,376.56,357,376.56,351.1,386.81Z"/><path class="cls-4" d="M276.8,470c-5.34-2.57-6.58-6-2.84-11,2.5-3.37,4.56-7.06,6.84-10.62C285.19,451.66,284.62,454.53,276.8,470Z"/><path class="cls-4" d="M368.41,334l9.43,6.73-4.7,9-10.59-6.64Z"/><path class="cls-4" d="M438.1,216.09l-6.56,10.14c-2.89-1.91-5.59-3.69-8.34-5.49l8.09-10.7Z"/><path class="cls-4" d="M248.77,606.76l9.44-16.58c8.21,3.9,2.24,8.67.51,12.12C257.14,605.43,256.22,612.89,248.77,606.76Z"/><path class="cls-4" d="M281.57,513.36c-8.85-4.24-8.85-4.24-3.33-16.22C286.71,500.8,286.39,500.72,281.57,513.36Z"/><path class="cls-4" d="M394.7,307.72l-5.89,12-8-5.21c2.27-3.85,4.37-7.4,6.71-11.38Z"/><path class="cls-4" d="M384,300.78l-6.52,11-7.66-6,5.54-9.2Z"/><path class="cls-4" d="M268.43,484.33l-6.85-5.91,6.16-9.62C275.94,474,276,475.21,268.43,484.33Z"/><path class="cls-4" d="M283.39,481.27l8.76,7.08c-1.69,3.25-3.18,6.13-4.69,9C278.41,492.29,278.4,492.26,283.39,481.27Z"/><path class="cls-4" d="M373.05,290.48l-6.27-3.09c2.81-5.1,5.44-9.89,8.08-14.67C380.92,275.83,380.92,275.83,373.05,290.48Z"/><path class="cls-4" d="M441.61,182.06,435,193.43l-6.53-5.73C434.27,177.43,435.17,177.05,441.61,182.06Z"/><path class="cls-4" d="M298.83,434.17c2.18-9,6.65-17.1,11.11-25.49C312.92,411.9,306.46,427.24,298.83,434.17Z"/><path class="cls-4" d="M429.42,229.8,424.21,237l-9.5-6.27,5-7.22Z"/><path class="cls-4" d="M417.31,248.4,407,239.48l4.88-5.58,10,6.34C420.45,242.73,419.22,245,417.31,248.4Z"/><path class="cls-4" d="M241.09,577.92c-3.1,6-6.19,12.09-9.56,18.67l-5.68-4.84,13.06-15.15Z"/><path class="cls-4" d="M254.06,492.22,259.62,482l7.07,5.72c-2,3.15-3.77,5.95-6.15,9.7Z"/><path class="cls-4" d="M357.42,326.82l7.53,4.69-5.42,8.56C351.44,335.36,351.31,334.47,357.42,326.82Z"/><path class="cls-4" d="M396.81,288.46c6.51,3.33,6.36,5-1,14.83l-6-3.69Z"/><path class="cls-4" d="M269.89,505.91l-6.4-5.38,6.17-9.6C275.16,493.65,275.18,494.34,269.89,505.91Z"/><path class="cls-4" d="M205.07,552.2,198,567c-1.93-5.65-3.27-9.54-5.07-14.81Z"/><path class="cls-4" d="M389.84,244.35l7.24,5-8.37,9.43-4.89-2.93Z"/><path class="cls-4" d="M449.39,207c.64-6.29,4.85-10.4,7.34-15.11.32-.61,3.14.09,4.8.18l1,1.76Z"/><path class="cls-4" d="M359.52,302.67c5.83,4.47,5.61,5.3-3.79,16.16C352.71,315.54,352.86,314.89,359.52,302.67Z"/><path class="cls-3" d="M493.9,139.6c2.24-2.47,4.2-5.13,4.54-4.94,2.16,1.23,4.74,2.77,5.62,4.86.57,1.35-1.53,3.81-2.43,5.78Z"/><path class="cls-3" d="M481,99.06a87.56,87.56,0,0,1,8.29,6.2c.18.17-2.45,4.23-2.85,4.08a28.14,28.14,0,0,1-7.62-4.4C478.43,104.6,479.9,102,481,99.06Z"/><path class="cls-4" d="M456,164.56l7,4.13-3.74,7.6-7-4.07Z"/><path class="cls-4" d="M404.71,244.79c3.25,3.07,11.3,2.68,8,11.34C409.31,252,401.67,252.28,404.71,244.79Z"/><path class="cls-4" d="M410.87,228.14l-6.4-4.49,4.42-6.62,7.31,4.66C414.21,224.11,412.61,226,410.87,228.14Z"/><path class="cls-4" d="M331.86,377.13c3.22,4.32-.75,11.81-7.87,16.44l-1.71-.94Z"/><path class="cls-4" d="M365.45,291.6l6.06,3-4.28,7.84C360.67,299.87,361.56,296.32,365.45,291.6Z"/><path class="cls-4" d="M468.67,182.29l-5.74-3.55c1.29-2.56,2.54-5,3.94-7.79l6.77,3.45Z"/><path class="cls-4" d="M201.23,570.66c2-4.48,4-9,6.19-13.39a3.27,3.27,0,0,1,2.53-1c.74.84,1.72,2.47,1.37,3.08-2.47,4.26-5.26,8.34-7.94,12.48Z"/><path class="cls-4" d="M437,200.4l6.41,5.62c-1,1.87-1.91,3.7-2.86,5.57C432.24,206.73,432,205.88,437,200.4Z"/><path class="cls-4" d="M337.51,376.38c-6.52-5.17.4-8.12.87-12.07C344,367.55,344,367.55,337.51,376.38Z"/><path class="cls-4" d="M403.56,237.75l-5.92-5,3.95-5.45,7.71,4.43Z"/><path class="cls-4" d="M315.64,406.7c-3.18-3.15-2.76-4.25,4-10.45C322.05,399.63,322,399.74,315.64,406.7Z"/><path class="cls-4" d="M379.62,270.88c0-2.55-.56-5.36.36-7.53.49-1.15,3.61-1.19,7.6-2.31l-5.07,10Z"/><path class="cls-4" d="M289.42,450.06,295.53,437c3.09,4.31,2,7.44-3.92,14Z"/><path class="cls-4" d="M429.65,201.89c-2.06-3.43-7.48-5.06-4-11.47C428.34,194.34,435.76,195.17,429.65,201.89Z"/><path class="cls-4" d="M404.19,287.06c-4.94-3.38-4.3-5.56,2.49-11.21l1.78.65C407.06,280,405.66,283.41,404.19,287.06Z"/><path class="cls-4" d="M455.06,185.15c-2.95-3-9.72-2.57-5.13-9.44C452.87,178,458.77,177.76,455.06,185.15Z"/><path class="cls-4" d="M467.76,160.7c-3.64,7.35-6.14,1.57-9.59.72C461.39,155,464.28,160.09,467.76,160.7Z"/><path class="cls-6" d="M388.79,515.7c-4.42-8.9-1.44-16.53-.11-24.12,1.16-6.61,3.8-13.16,3.77-19.73,0-7.84-2.23-15.66-3.48-23.5-.27-1.7,0-3.73-.87-5-1.11-1.67-3.1-2.74-4.71-4.08-1.09,1.36-3.23,2.81-3.12,4.06,1.74,20.44-7.74,36.85-18.81,52.61a144.15,144.15,0,0,1-14.88,17.4c-.49-11.25,5.36-20,11.47-29.66-9.2-2-14.48,7.17-24.15,7.46,15.1-13,19.53-30,25-46.53a3.76,3.76,0,0,0,.27-.62c.59-4.39,2.49-9.11,1.47-13.09-1.67-6.54-7.35,0-10.91-1.93-1.05-.56-2.49-.4-4.14-2.06l11.87-4.2c-.35-1.89-.87-4-1.09-6.08-.5-4.68,3.3-9.86,7.69-10.3,5.55-.56,5.47,3.95,6.64,7.5.62,1.87,2.14,4.94,3.2,4.92,9.41-.2,14,6.42,17.14,13.16,11.89,25.36,13.69,51.28,1.91,77.35C392.08,511.21,390.61,512.93,388.79,515.7Z"/><path class="cls-6" d="M185,442.58c4.23-6.33,8-11.88,11.92-17.83l-22-6.89.23-1.57c9.17-2.36,18.68-3.87,27.43-7.32,8.53-3.35,16.29-8.68,25.17-13.58C220.85,423.21,202.94,442,185,442.58Z"/><path class="cls-6" d="M181.26,395.57c7.69-6,14.74-11.42,21.6-17,2.89-2.37,5.38-3.26,9-1.25a81.39,81.39,0,0,0,13.75,5.88c.87.29,3.76-2.09,3.74-3.22-.05-4.36.72-8.1,5.84-7.57s6.78,4.43,6.38,9.34c-.2,2.34-.11,4.7-.14,7.05-7.24-4.49-8.28-4.18-11.52,3.74-9-5.56-18-7.48-27.39-.35A22.17,22.17,0,0,1,181.26,395.57Z"/><path class="cls-5" d="M555,42.31c1.4,8.81-1.39,14-9.56,17.7a25.73,25.73,0,0,1-31.82-8.46c-3.07-4.25-3.2-17.22.45-21.14,1.55-1.66,4.63-2.34,7.1-2.59,4.86-.5,9.8-.17,14.68-.58C548,26.21,553,30.06,555,42.31Z"/><path d="M181.63,713l-8,8.88-1.74-1.17c1.22-2.94,2.45-5.87,3.87-9.28-4.64-1.37-9.57-2.19-13.91-4.26-6.61-3.15-5.39,7.47-11.58,5.5l3.28-7.8-14.39-6.28L136,702.91c-.83-.54-1.51-.82-1.49-1,.53-4.28-1.53-6.34-5.3-8.38C88,671.24,59.65,636.9,38.73,595.88,22.14,563.36,8.94,529.54,3.87,493.15c-4.54-32.58-6.53-65.41,2.27-97.55,12.07-44.1,40-75.39,80.77-95.65,23.56-11.68,48.9-15.88,74.55-19.23a143.79,143.79,0,0,1,54.72,3.71c21.69,5.58,43.05,12.46,64.59,18.67,21.89,6.31,37.48,21.4,52.5,37.33,1.07,1.13,2,2.43,3,3.59.28.31.79.41,1.6.8,3.91-10.24,7.24-20.69,11.79-30.59,16.6-36.11,35.08-71.08,58.15-103.72,13.48-19.08,25.84-38.69,43-54.91,4.82-4.55,6.89-12,10.15-18.19a3,3,0,0,0,0-1.93c-3.17-12.41-3.18-12.4-.57-22.76-1.58-.44-3.18-1.23-4.81-1.28-18.69-.59-29.18-13.36-38.9-26.71-4.93-6.78-4.41-15.88-.39-19.39,3.73-3.26,12.68-2.89,18.87,2,9.26,7.39,17.93,15.53,26.8,23.4,1.81,1.6,3.41,3.44,5.42,5.49L475.76,81c-6.62-3.34-13-6.58-19.34-9.74-9.91-4.92-15.61-13-18.62-23.49-1.65-5.75-1.1-10.87,3.62-14.65,5.2-4.16,10.2-1.67,14.7,1.72,5.39,4,10.73,8.15,15.84,12.52s9.77,8.93,14,12.83L511.84,0C531.09,6.9,549,13.05,566.71,19.78c7.77,3,9.31,11.35,5.07,22.1-2.12,5.39-3.3,11.32-6.29,16.14-3.79,6.11-8.07,12.79-13.87,16.51-5,3.22-6.74,7-9.18,12.37,16,.49,28.36,7.14,37.89,18.66,2.76,3.34,6,8.14,5.55,11.84-.77,6.25-6.84,7.83-12.84,8.54-12.6,1.51-23.16-4.11-33.9-9.09-6.32-2.94-9.44-2-11.95,4.42-1,2.5-1.84,5.06-2.68,7.61a13.76,13.76,0,0,0-.22,2.55c3.55,1.94,7.23,4,11,6,9.63,5.13,15.59,13.36,19.23,23.33,2.6,7.12-2.44,14.82-10,14-5.92-.66-12-3.23-17.21-6.24-5.92-3.4-11-8.24-16.44-12.42-10.16,11-10.16,11-20.41,3.4C477,180.18,463.69,201,449.92,221.5c-6,8.92-13.22,17-19.51,25.75-2.46,3.42-6.54,7.47.44,12.07-7-1.24-8.2,3.28-10,7.32-11.46,25.06-22.8,50.18-34.68,75-3.44,7.22-8.56,13.63-12.8,20.47-1.87,3-3.48,6.18-5,8.87,32,31.34,66.76,58.8,94.1,93.89,26.62,34.15,47.83,71.11,59.6,112.87,4.1,14.56,7.32,30,7.28,45-.1,32.19-18.11,54.46-45,70.15-21.3,12.44-45,17.63-69,21.36-22.41,3.49-44.88,6.55-67.38,9.4-37.41,4.74-74.78,2.55-112-2C217.75,719.43,199.72,715.9,181.63,713ZM334.81,428.2c-4.84,8.18-9.8,16.29-14.51,24.55q-9.6,16.88-18.86,33.95c-1.06,2-.63,5-2,6.44-4,4-6.16,8.16-3.75,12.72-2,1.53-4.28,2.36-5,3.91-3.78,7.93-7.47,15.94-10.63,24.13-4.35,11.28-8.09,22.79-12.33,34.12-2.31,6.2-5.11,12.23-7.72,18.4,1.16.61,2,1.3,2.26,1.13,2.34-1.29,4.59-2.74,6.86-4.14.93,2.48,1.85,5,2.8,7.46.07.16.39.22.55.36,6.62,5.81,7.63,10.74,3.62,17.67-3.91,6.74-11.05,9.47-18.39,6.72-3.73-1.4-7.27-3.29-10.94-5l-49.34,78.6c1.89.66,3.07,1.13,4.28,1.48,38.28,11.2,77.25,12.75,116.55,7.74,24.92-3.17,49.7-7.47,74.61-10.76,28.42-3.75,53.31-14.75,74.51-34.13,11.92-10.91,20.33-23.44,18.95-40.44-1.88-23-4.59-45.94-11.94-68.06-8.25-24.84-20.67-47.53-33.83-70-17.32-29.62-39-55.15-65.86-76.36-5-3.95-10.68-7-16.31-10.65L345,410.62l2.61,2.62c-3.29,3.08-6.39,5.64-9.05,8.6-1.61,1.79-2.53,4.2-3.76,6.33Zm-86.15,63.93c8.62-13.44,15.93-27,24.39-39.9,11-16.82,20.11-34.87,30.72-52,8.12-13.07,17.19-25.56,26.09-38.12,2.73-3.87,2.21-6.45-1.55-8.83C317,346.11,306.17,337.79,294.15,332c-9.46-4.54-20.29-6.79-30.77-8.5-10.94-1.78-22.35-.73-33.26-2.64-26.81-4.7-52.83-6.14-79.42,3.32-50.48,18-89,48.37-110.61,98.37-8.83,20.48-12.15,41.25-7.69,63.65,5.85,29.42,13.28,57.94,28.25,84.36,12.73,22.48,24.88,45.22,43.35,63.69,13.68,13.68,28.56,25.85,47.5,34.82,4.41-8,9-15.57,12.87-23.51,3.14-6.43,4.92-13.52,8.17-19.88,8.64-16.94,17.76-33.63,26.3-49.7-2.82-6.64-5.83-13.28-8.46-20.08-1.67-4.32.43-7.58,4.82-7.32,6.5.39,12.93,2,21.07,3.34L259,501ZM149.22,672.94c-1.84-1.07-3.35-2-4.89-2.84-18.35-10.32-35.36-22.69-48.56-39-33.16-41-57.44-86.32-66-139.3-3.13-19.39-4.52-38,1.88-57,15.08-44.73,43.72-77.81,85.23-99.71,34.82-18.37,71.23-27.73,110.84-17.93,9.27,2.29,19.19,4.3,28.53,3.43,18.86-1.73,34.65,5.1,50.06,14.14,9.59,5.62,19,11.59,29,17.72-.35-1.61-.23-3.15-.93-4-12.63-14.93-25.36-30.32-44.18-37.35C269.43,303.36,248,297.43,226.79,291c-47.44-14.48-93.44-7.93-137.52,12.15C48.5,321.68,21.49,353.31,9.86,397c-7.93,29.75-6.47,60.08-3,90.27,4.35,37.93,17.91,73,34.92,106.84C58.31,627,80,655.83,110.05,677.63c8.26,6,17.16,11.07,25.92,16.66C140.82,686.46,144.93,679.85,149.22,672.94Zm33.69,36.75c10.9,1.91,20.38,3.55,29.85,5.22,37.89,6.7,76.15,10.48,114.45,7,35.71-3.22,71.25-8.82,106.68-14.55,20-3.23,39.23-10.06,55.94-22,20.63-14.68,35.81-33.84,35.64-60.1-.11-16.34-3.39-33.11-8-48.9C504.34,531.17,480,491.84,450,455.78c-23.64-28.42-53-50.93-78.95-76.94-1.34-1.35-3.18-2.22-5.25-3.62-2,3.52-3.68,6.52-5.28,9.34,6.71,4.69,13.17,8.44,18.74,13.22,20.08,17.22,38.82,35.38,53.81,57.78,31,46.29,53.87,95.1,56.89,151.65.65,12.07.19,23.79-7.38,34-19,25.68-44.25,41.7-75.57,47.25-27.16,4.82-54.58,8.21-81.85,12.42C298.66,705,272,706.37,245.39,703c-17-2.18-33.82-6.13-51.3-9.39ZM464,154.2c3.81,4,6.23,3.29,9.36-1.8,11-17.87,22.72-35.34,34-53.06,2-3.1,2.94-6.87,5-9.9,1.92-2.83,4.3-6.55,7.16-7.3,5.91-1.56,11.62,3.77,13.4,11.3,1.38,5.89-4,6.78-7.27,9-5,3.29-9.52,1.69-14.56-3.85l-37.44,60.88,7.2,4.55a49.74,49.74,0,0,0,3.38-4.92c3.55-6.91,11.92-12.07,7.7-21.92-.5-1.17,1.69-4.95,2.92-5.1,3.52-.42,8.57-.92,10.45,1.06,2.45,2.57,3.37,7.57,3.07,11.36-.15,1.79-4.68,4.5-7.26,4.54-5,.07-7.3,2.21-8.66,6.82l7.89,6.84c4.77-7.37,8.89-14.3,13.55-20.84,8-11.25,8.58-25.71,17.84-36.95,6-7.27,6.68-18.9,9.15-26.68L492.39,60.49c-1.67,2.89-4.4,7-6.52,11.38-7.95,16.53-16,33-23.39,49.8-3.29,7.51-1.27,10.26,7.23,13,1.56-3.66,2.91-7.46,4.77-11,2.58-4.91,5.65-9,1.16-15.08C473,105,474,99.73,479.09,97.28c4.94-2.36,11.62.1,13.62,5,2.24,5.42,0,8.88-5.16,11.23a11.43,11.43,0,0,0-5.21,4.41C476.15,129.71,470.28,141.71,464,154.2Zm-241,441L172,680l21.29,8.07L243,609.3ZM167.32,677.6c6.81-10,13.78-19.26,19.81-29.13,10.27-16.81,19.79-34.07,30-50.93,2.24-3.71,2.09-6-1.13-8.52-4.1-3.25-8.09-6.63-12.55-10.3-1.7,2.4-3.21,4.06-4.19,6q-14.1,27.42-28,54.94c-5.27,10.47-10.31,21.06-15.66,32Zm346-673.16c-5.53,14-10.42,26.87-15.76,39.6-3.89,9.28-3.51,11.81,5.59,16.33,11.85,5.89,24.14,10.18,37.63,11.4,9.36.86,15.55-2.49,18.87-10.41a294.23,294.23,0,0,0,9.93-29.06c1.36-4.54-1.21-7.84-5.52-9.42C547.72,16.88,531.35,11,513.32,4.44ZM238.38,570.5c14.36-15.4,22.06-33.92,28.29-53.23,2.81-8.69,2.73-9-5.45-12.82-14,16.69-27.85,33.32-42.38,50.72Zm186.23-504c-8.4,1-7.71,5.59-6.87,9.77,3.27,16.29,24.62,32.45,41.79,31.56,1.47-.08,3.72-1.76,4.07-3.1.58-2.21.88-5.75-.4-7-9.57-9.3-19.4-18.37-29.54-27.05C430.81,68.27,426.61,67.4,424.61,66.52ZM542.93,91.4c-.73.65-3.39,1.89-4.06,3.82-5.22,15-5.12,15.09,9.29,21.62,3.87,1.76,7.76,4,11.85,4.6a52.56,52.56,0,0,0,17.16,0c5.77-1.14,6.91-5.61,3.07-10.11a74.68,74.68,0,0,0-12.45-12.18C561.06,94.22,553.5,90.7,542.93,91.4Zm-96-56.85c-5.91,1.9-6.35,5.9-5.65,10.47,2,13.28,20.56,30.32,34.07,30.24,2.65,0,5.72-4.17,7.7-7,.88-1.28.33-5-.9-6.05-9.89-8.72-20.06-17.13-30.26-25.49C450.39,35.5,448.26,35.12,446.89,34.55ZM255.94,584.61c1.74-3.59,3.12-5.9,4-8.39q9.38-25.82,18.56-51.71c2.83-8,2.64-8.18-6.32-11-6.78,21.53-15.21,42.31-30.59,59.36ZM521.86,135.19c-2.67,5.12-5.44,10.18-7.93,15.39a3.71,3.71,0,0,0,.63,3.48c7.7,5.69,15.22,11.8,23.55,16.4,2.78,1.54,8.57.16,11.42-2,1.56-1.17.73-7-.51-10.18C544.22,146.09,533.69,140.17,521.86,135.19ZM316.42,413.39c-4.34,8.47-8.36,16.32-12.45,24.32l13.12,9.44c4.58-8,8.93-15.65,13.45-23.55ZM169.13,683l-9.72,20.21c6.05,1.69,10.5,3.22,15.09,4.06,1.77.32,4.57-.32,5.62-1.58,3.63-4.38,6.7-9.23,10.27-14.31Zm-3.51-1.83-12.84-6.44c-4.27,7.16-8.21,13.75-12.46,20.85l14.62,6Zm194.47-335c-3.5,6.27-6.77,11.83-9.66,17.57a5.08,5.08,0,0,0,.67,4.44c2,2.61,4.6,4.82,7.48,7.74l12.71-22.27ZM305.21,466.38l-11.55-7.95c-11.39,21.77-11.21,17.94.92,25.94Zm44.33-75.54-11.11-8-10.49,14.6L339.78,407ZM228.78,568.47l-8.51-5.42L209.79,580.3,220.41,587C223.17,580.86,225.82,575,228.78,568.47Zm85.75-116.68-12.12-10.28-7,13.26,11.63,8.37Zm-56,159.67c5.78,2.69,10.2,2.51,12.89-2.05a17.17,17.17,0,0,0,1.9-11.53c-1.09-4.63-5.07-4.64-7.47-.42C263.2,602,260.92,606.78,258.49,611.46ZM325.63,400.6l-6.89,9.83,13.81,9.51,4.93-9.5Zm54.15-63.45c2.59-5.11,4.67-9.23,7-13.72l-8.24-5.69c-2.9,4.57-5.45,8.59-8.16,12.84Zm13.87-51.52-10.46-7c-2.31,5.15-4.2,9.35-6.21,13.81l9,5.14ZM420,199.56c-2.78,4.6-5.57,9.2-8.53,14.08l7.1,4.45C429.48,208.05,429.72,205.24,420,199.56ZM400.13,252c-2.93,3.28-5.43,6.08-8.49,9.49l12.83,7.8,5.81-10.07ZM344.62,365c3.64-6.32,5.88-11,8.85-15.15,3.43-4.8,3.1-8-3.18-10.34-2.78,6-5.82,11.93-8.16,18.12C341.57,359.1,343.34,361.45,344.62,365Zm51.61-83,5.93-9.22-11.58-7.15C383.94,275.21,384.18,275.85,396.23,282Zm-21.56,32.95-7.05-5.69c-3,4.53-5.71,8.62-8.35,12.6C367.41,329.14,368.46,328.62,374.67,314.92Zm144-214,11.2-5.21c-3-5.69-5.25-12.47-11.22-9.59C513.11,88.72,516,95,518.63,100.87Zm-65.05,87.7-8.24-4.8L438,196.12l7.66,6.21Zm-212.78,414c9.29-18.3,11.08-19.22,3.13-20.75l-9.12,16.92Zm110.3-215.8c5.92-10.25,5.92-10.25-4.57-16.14-1.84,2.88-3.69,5.77-5.78,9ZM276.8,470c7.82-15.51,8.39-18.38,4-21.64-2.28,3.56-4.34,7.25-6.84,10.62C270.22,464,271.46,467.47,276.8,470ZM368.41,334l-5.86,9.13,10.59,6.64,4.7-9ZM438.1,216.09,431.29,210l-8.09,10.7c2.75,1.8,5.45,3.58,8.34,5.49ZM248.77,606.76c7.45,6.13,8.37-1.33,10-4.46,1.73-3.45,7.7-8.22-.51-12.12Zm32.8-93.4c4.82-12.64,5.14-12.56-3.33-16.22C272.72,509.12,272.72,509.12,281.57,513.36ZM394.7,307.72l-7.22-4.62c-2.34,4-4.44,7.53-6.71,11.38l8,5.21ZM384,300.78l-8.64-4.28-5.54,9.2,7.66,6ZM268.43,484.33c7.58-9.12,7.51-10.35-.69-15.53l-6.16,9.62Zm15-3.06c-5,11-5,11,4.07,16.1,1.51-2.89,3-5.77,4.69-9Zm89.66-190.79c7.87-14.65,7.87-14.65,1.81-17.76-2.64,4.78-5.27,9.57-8.08,14.67Zm68.56-108.42c-6.44-5-7.34-4.63-13.12,5.64l6.53,5.73ZM298.83,434.17c7.63-6.93,14.09-22.27,11.11-25.49C305.48,417.07,301,425.14,298.83,434.17ZM429.42,229.8l-9.72-6.31-5,7.22,9.5,6.27Zm-12.11,18.6c1.91-3.45,3.14-5.67,4.51-8.16l-10-6.34L407,239.48ZM241.09,577.92l-2.18-1.32-13.06,15.15,5.68,4.84C234.9,590,238,584,241.09,577.92Zm13-85.7,6.48,5.23c2.38-3.75,4.16-6.55,6.15-9.7L259.62,482Zm103.36-165.4c-6.11,7.65-6,8.54,2.11,13.25l5.42-8.56Zm39.39-38.36-7,11.14,6,3.69C403.17,293.48,403.32,291.79,396.81,288.46ZM269.89,505.91c5.29-11.57,5.27-12.26-.23-15l-6.17,9.6ZM205.07,552.2,193,552.14c1.8,5.27,3.14,9.16,5.07,14.81ZM389.84,244.35l-6,11.49,4.89,2.93,8.37-9.43ZM449.39,207l13.16-13.17-1-1.76c-1.66-.09-4.48-.79-4.8-.18C454.24,196.57,450,200.68,449.39,207Zm-89.87,95.7c-6.66,12.22-6.81,12.87-3.79,16.16C365.13,308,365.35,307.14,359.52,302.67ZM493.9,139.6l7.73,5.7c.9-2,3-4.43,2.43-5.78-.88-2.09-3.46-3.63-5.62-4.86C498.1,134.47,496.14,137.13,493.9,139.6ZM481,99.06c-1.12,2.91-2.59,5.54-2.18,5.88a28.14,28.14,0,0,0,7.62,4.4c.4.15,3-3.91,2.85-4.08A87.56,87.56,0,0,0,481,99.06Zm-25,65.5-3.69,7.66,7,4.07,3.74-7.6Zm-51.27,80.23c-3,7.49,4.6,7.2,8,11.34C416,247.47,408,247.86,404.71,244.79Zm6.16-16.65c1.74-2.1,3.34-4,5.33-6.45L408.89,217l-4.42,6.62Zm-79,149-9.58,15.5,1.71.94C331.11,388.94,335.08,381.45,331.86,377.13Zm33.59-85.53c-3.89,4.72-4.78,8.27,1.78,10.89l4.28-7.84ZM468.67,182.29l5-7.89L466.87,171c-1.4,2.78-2.65,5.23-3.94,7.79ZM201.23,570.66l2.15,1.14c2.68-4.14,5.47-8.22,7.94-12.48.35-.61-.63-2.24-1.37-3.08a3.27,3.27,0,0,0-2.53,1C205.23,561.67,203.26,566.18,201.23,570.66ZM437,200.4c-5,5.48-4.71,6.33,3.55,11.19.95-1.87,1.89-3.7,2.86-5.57Zm-99.44,176c6.5-8.83,6.5-8.83.87-12.07C337.91,368.26,331,371.21,337.51,376.38Zm66.05-138.63,5.74-6-7.71-4.43-3.95,5.45Zm-87.92,169c6.37-7,6.41-7.07,4-10.45C312.88,402.45,312.46,403.55,315.64,406.7Zm64-135.82,2.89.18,5.07-10c-4,1.12-7.11,1.16-7.6,2.31C379.06,265.52,379.66,268.33,379.62,270.88Zm-90.2,179.18,2.19.91c5.92-6.58,7-9.71,3.92-14ZM429.65,201.89c6.11-6.72-1.31-7.55-4-11.47C422.17,196.83,427.59,198.46,429.65,201.89Zm-25.46,85.17c1.47-3.65,2.87-7.11,4.27-10.56l-1.78-.65C399.89,281.5,399.25,283.68,404.19,287.06Zm50.87-101.91c3.71-7.39-2.19-7.16-5.13-9.44C445.34,182.58,452.11,182.13,455.06,185.15Zm12.7-24.45c-3.48-.61-6.37-5.7-9.59.72C461.62,162.27,464.12,168.05,467.76,160.7Z"/><path d="M334.77,428.17c5.26-2.44,10.63-4.67,15.68-7.47,1.22-.68,1.84-3.23,1.93-5,.43-8,6.72-14.1,14.47-12.87,2.41.39,4.65,3,6.6,4.94,2.23,2.25,3.56,6,6.15,7.19,9.88,4.41,15,12.57,18.53,22,8.7,23.36,9.78,46.87-.23,70.16-1.82,4.22-4.84,8-7.59,11.73-3.21,4.4-5.43,2.27-6.06-1.68-.83-5.22-1.78-10.68-1.1-15.83,1.49-11.3,4.5-22.4,5.82-33.71.62-5.31-1.23-10.92-2.9-16.62-5.47,29.55-22.57,51.39-42.76,71.29l-3.41-1.43c2.65-10.27,5.31-20.53,7.67-29.66l-20.31,5.9-1.32-2.56a60.83,60.83,0,0,1,4.36-5.07c11.3-10.63,19.4-22.77,20.27-38.94.2-3.85,2.43-7.58,3.63-11.4.63-2,1-4,1.6-6.2-6.18-.46-11.54-.63-16.8-1.4-1.53-.22-2.8-2.17-4.19-3.34Zm54,87.53c1.82-2.77,3.29-4.49,4.19-6.47,11.78-26.07,10-52-1.91-77.35-3.17-6.74-7.73-13.36-17.14-13.16-1.06,0-2.58-3.05-3.2-4.92-1.17-3.55-1.09-8.06-6.64-7.5-4.39.44-8.19,5.62-7.69,10.3.22,2.11.74,4.19,1.09,6.08l-11.87,4.2c1.65,1.66,3.09,1.5,4.14,2.06,3.56,1.91,9.24-4.61,10.91,1.93,1,4-.88,8.7-1.47,13.09a3.76,3.76,0,0,1-.27.62c-5.5,16.52-9.93,33.57-25,46.53,9.67-.29,15-9.46,24.15-7.46-6.11,9.67-12,18.41-11.47,29.66a144.15,144.15,0,0,0,14.88-17.4c11.07-15.76,20.55-32.17,18.81-52.61-.11-1.25,2-2.7,3.12-4.06,1.61,1.34,3.6,2.41,4.71,4.08.86,1.3.6,3.33.87,5,1.25,7.84,3.44,15.66,3.48,23.5,0,6.57-2.61,13.12-3.77,19.73C387.35,499.17,384.37,506.8,388.79,515.7Z"/><path d="M220.6,393.16c-4-4.15-7.88-2-12.11-.28-6.57,2.65-13.23,5.74-20.12,6.68-4.68.64-9.81-2.09-14.74-3.31l.13-2.5c1.65-.85,3.37-1.6,5-2.57,5.69-3.49,12.06-6.28,16.81-10.78,6.84-6.48,13.38-10.34,22.58-5.28,1.73,1,3.79,1.31,6.16,2.09,2.15-6,6.13-10.18,12.79-8.47s8.23,7,8.78,13.45c.39,4.45,2.79,8.71,5,15.22-4.24-1.62-7.59-2.18-10-4-3.76-2.82-5.64-1.49-7.23,2-2,4.47-4.28,8.89-6,13.49-7.74,20.88-21.86,34.48-44,38.94-1.14.23-2.44-.32-3.66-.51.22-1.2.15-2.57.71-3.58,3-5.47,6.18-10.85,9.43-16.48l-23.59-9.2c5.06-5.7,11-7,17.19-7.63C198.34,409,212.87,402.24,220.6,393.16ZM185,442.58c17.93-.55,35.84-19.37,42.75-47.19-8.88,4.9-16.64,10.23-25.17,13.58-8.75,3.45-18.26,5-27.43,7.32l-.23,1.57,22,6.89C193,430.7,189.24,436.25,185,442.58Zm-3.75-47a22.17,22.17,0,0,0,21.27-3.42c9.43-7.13,18.36-5.21,27.39.35,3.24-7.92,4.28-8.23,11.51-3.74,0-2.35-.05-4.71.15-7.05.4-4.91-1.29-8.81-6.38-9.34s-5.89,3.21-5.84,7.57c0,1.13-2.87,3.51-3.74,3.22a81.39,81.39,0,0,1-13.75-5.88c-3.63-2-6.12-1.12-9,1.25C196,384.15,189,389.53,181.26,395.57Z"/><path d="M559.08,41.49c1.31,7.17-.46,12.64-5.11,17.29C541.73,71,517.68,67.6,509.31,52.37c-3.13-5.68-2.2-20.65,2.29-25.12,2-2,5.44-3,8.36-3.33,8-.86,16.33-2.7,23.86-1.05,5.09,1.12,9.35,7.2,13.34,11.64C558.75,36.27,558.61,39.59,559.08,41.49Zm-4.09.82c-2-12.25-7-16.1-19.15-15.07-4.88.41-9.82.08-14.68.58-2.47.25-5.55.93-7.1,2.59-3.65,3.92-3.52,16.89-.45,21.14A25.73,25.73,0,0,0,545.43,60C553.6,56.27,556.39,51.12,555,42.31Z"/></svg>