<?xml version="1.0" encoding="utf-8"?>
<!-- Generator: Adobe Illustrator 26.0.1, SVG Export Plug-In . SVG Version: 6.00 Build 0)  -->
<svg version="1.1" id="Flag" xmlns="http://www.w3.org/2000/svg" xmlns:xlink="http://www.w3.org/1999/xlink" x="0px" y="0px"
	 viewBox="0 0 1050 1049" style="enable-background:new 0 0 1050 1049;" xml:space="preserve">
<style type="text/css">
	.st0{clip-path:url(#SVGID_00000098181160157525519260000015043188907497801637_);}
	.st1{fill:#FFFFFF;}
	.st2{fill:#CC0001;}
	.st3{fill:#010066;}
	.st4{fill:#FFCC00;}
	.st5{font-family:'ArialMT';}
	.st6{font-size:152.34px;}
	.st7{letter-spacing:1;}
	.st8{letter-spacing:-1;}
</style>
<g>
	<defs>
		<circle id="SVGID_1_" cx="525" cy="414.6" r="415.8"/>
	</defs>
	<clipPath id="SVGID_00000071562109127264738390000010214194274015120775_">
		<use xlink:href="#SVGID_1_"  style="overflow:visible;"/>
	</clipPath>
	<g style="clip-path:url(#SVGID_00000071562109127264738390000010214194274015120775_);">
		<rect x="68.4" y="1.7" class="st1" width="1576.1" height="828.8"/>
		<rect x="68.4" y="-1.2" class="st2" width="1574.7" height="59.8"/>
		<rect x="68.4" y="115.8" class="st2" width="1574.7" height="59.8"/>
		<rect x="68.4" y="232.8" class="st2" width="1574.7" height="59.8"/>
		<rect x="68.4" y="349.7" class="st2" width="1574.7" height="59.8"/>
		<rect x="68.4" y="466.7" class="st2" width="1574.7" height="59.8"/>
		<rect x="68.4" y="583.7" class="st2" width="1574.7" height="59.8"/>
		<rect x="68.4" y="700.6" class="st2" width="1574.7" height="59.8"/>
		<rect x="68.4" y="-1.2" class="st3" width="789.1" height="467.9"/>
		<path class="st4" d="M285.3,234.5c0-82.9,67.2-150.1,150-150.1c16.9,0,33.7,2.8,49.6,8.4c-27.5-18.1-59.7-27.7-92.7-27.7
			c-93.4,0-169.2,75.9-169.2,169.4s75.8,169.4,169.3,169.4c32.9,0,65.1-9.6,92.7-27.7c-16,5.6-32.7,8.5-49.6,8.5
			C352.5,384.7,285.3,317.5,285.3,234.5z"/>
		<path class="st4" d="M627.7,235l70.3-30.2c-0.1-0.7-0.3-1.4-0.5-2l-77.1,2.8l51.8-57.3l-0.5-0.6l-69.7,36.3l21.3-75.6l-48.6,62.9
			l-13-79h-1.3l-14.1,78.3l-49-64l-0.3,0.2l21.8,77l-70.2-37.9c-0.3,0.4-0.7,0.8-1,1.3l52.6,58c0,0-46.5-1.1-78.8-2.3
			c0,0.1,0,0.2-0.1,0.3c29.9,13.1,71.3,31.5,71.3,31.5l-70.8,30.4c30.8-0.6,77.8-1.5,77.8-1.5l-51.8,57.2l1.1,1.4l69.6-36.7
			l-21.9,75.2c0.5,0.3,1.1,0.6,1.7,0.9l47.3-63.8c0,0,9.5,53.4,13.7,77.7h0.2c0.6,0,1.3,0,1.9,0l13.9-77.7l47.2,62.9l0.3-0.2
			l-21-75.4l68.9,36.3l0.8-1c-17.6-20-50.1-56.7-50.1-56.7l75.9,2.4c0.2-0.6,0.3-1.3,0.4-1.9L627.7,235z"/>
	</g>
</g>
<text transform="matrix(1 0 0 1 336.63 994.3)" class="st5 st6 st7">M</text>
<text transform="matrix(1 0 0 1 460.02 994.3)" class="st5 st6">al</text>
<text transform="matrix(1 0 0 1 569.4 994.3)" class="st5 st6 st8">a</text>
<text transform="matrix(1 0 0 1 641.61 994.3)" class="st5 st6">y</text>
</svg>
