<svg id="Flag" xmlns="http://www.w3.org/2000/svg" xmlns:xlink="http://www.w3.org/1999/xlink" viewBox="0 0 1034.7 1034.7"><defs><style>.cls-1{fill:none;}.cls-2{clip-path:url(#clip-path);}.cls-3{clip-path:url(#clip-path-2);}.cls-4{fill:#ed2939;}.cls-5{fill:#fff;}.cls-6{font-size:152.34px;font-family:MyriadPro-Regular, Myriad Pro;}</style><clipPath id="clip-path"><circle class="cls-1" cx="511.26" cy="420.05" r="415.8"/></clipPath><clipPath id="clip-path-2"><rect class="cls-1" x="95.47" y="1.74" width="1585.99" height="836.73"/></clipPath></defs><g class="cls-2"><g class="cls-3"><polygon class="cls-4" points="1681.45 1.64 95.47 1.64 95.47 423.16 1681.45 423.16 1681.45 1.64 1681.45 1.64"/></g><polygon class="cls-5" points="95.47 423.16 95.47 838.47 1681.45 838.47 1681.45 423.16 95.47 423.16 95.47 423.16"/><path class="cls-5" d="M275.16,213.39c0-79.56,60.86-144.68,137.88-150a153.17,153.17,0,0,0-49.74-8.24c-86,0-155.78,70.83-155.78,158.2s69.74,158.2,155.78,158.2A153.43,153.43,0,0,0,413,363.36c-77-5.29-137.88-70.41-137.88-150Z"/><polygon class="cls-5" points="445.63 85.84 454.01 112.05 481.16 112.05 459.2 128.26 467.58 154.47 445.63 138.27 423.67 154.47 432.05 128.26 410.09 112.05 437.24 112.05 445.63 85.84 445.63 85.84"/><polygon class="cls-5" points="362.93 147.91 371.31 174.13 398.46 174.13 376.5 190.33 384.89 216.55 362.93 200.35 340.97 216.55 349.36 190.33 327.4 174.13 354.54 174.13 362.93 147.91 362.93 147.91"/><polygon class="cls-5" points="527.81 147.91 536.2 174.13 563.34 174.13 541.38 190.33 549.77 216.55 527.81 200.35 505.85 216.55 514.24 190.33 492.28 174.13 519.42 174.13 527.81 147.91 527.81 147.91"/><polygon class="cls-5" points="496.48 248.07 504.87 274.28 532.01 274.28 510.05 290.49 518.44 316.7 496.48 300.5 474.52 316.7 482.9 290.49 460.94 274.28 488.09 274.28 496.48 248.07 496.48 248.07"/><polygon class="cls-5" points="394.26 248.07 402.65 274.28 429.79 274.28 407.83 290.49 416.22 316.7 394.26 300.5 372.3 316.7 380.69 290.49 358.73 274.28 385.87 274.28 394.26 248.07 394.26 248.07"/></g><text class="cls-6" transform="translate(280.7 998.56)">English</text></svg>