<svg width="80" height="80" viewBox="0 0 80 80" fill="none" xmlns="http://www.w3.org/2000/svg">
<mask id="mask0_70_351" style="mask-type:luminance" maskUnits="userSpaceOnUse" x="0" y="0" width="80" height="80">
<path d="M39.7354 79.5041C61.6806 79.5041 79.4708 61.9139 79.4708 40.2152C79.4708 18.5165 61.6806 0.92627 39.7354 0.92627C17.7901 0.92627 0 18.5165 0 40.2152C0 61.9139 17.7901 79.5041 39.7354 79.5041Z" fill="white"/>
</mask>
<g mask="url(#mask0_70_351)">
<path d="M134.858 0.644531H-17.9829V79.7912H134.858V0.644531Z" fill="white"/>
<path d="M134.731 0.34668H-17.9819V6.60739H134.731V0.34668Z" fill="#B22234"/>
<path d="M134.731 12.5928H-17.9819V18.8535H134.731V12.5928Z" fill="#B22234"/>
<path d="M134.731 24.8394H-17.9819V31.1001H134.731V24.8394Z" fill="#B22234"/>
<path d="M134.731 37.0864H-17.9819V43.3471H134.731V37.0864Z" fill="#B22234"/>
<path d="M134.731 49.3315H-17.9819V55.5923H134.731V49.3315Z" fill="#B22234"/>
<path d="M134.731 61.5781H-17.9819V67.8388H134.731V61.5781Z" fill="#B22234"/>
<path d="M134.731 73.8252H-17.9819V80.0859H134.731V73.8252Z" fill="#B22234"/>
<path d="M43.0068 0.345703H-17.9854V43.3482H43.0068V0.345703Z" fill="#3C3B6E"/>
<path d="M2.41833 6.40527L2.989 8.16031H4.83617L3.3423 9.24553L3.91297 11.0006L2.41833 9.9161L0.92446 11.0006L1.49513 9.24553L0.000488281 8.16031H1.84766L2.41833 6.40527Z" fill="white"/>
<path d="M2.41833 15.0264L2.989 16.7814H4.83617L3.3423 17.8666L3.91297 19.6217L2.41833 18.5372L0.92446 19.6217L1.49513 17.8666L0.000488281 16.7814H1.84766L2.41833 15.0264Z" fill="white"/>
<path d="M2.41833 23.6475L2.989 25.4025H4.83617L3.3423 26.4877L3.91297 28.2428L2.41833 27.1583L0.92446 28.2428L1.49513 26.4877L0.000488281 25.4025H1.84766L2.41833 23.6475Z" fill="white"/>
<path d="M2.41833 32.2686L2.989 34.0236H4.83617L3.3423 35.1088L3.91297 36.8638L2.41833 35.7794L0.92446 36.8638L1.49513 35.1088L0.000488281 34.0236H1.84766L2.41833 32.2686Z" fill="white"/>
<path d="M12.6088 6.40527L13.1794 8.16031H15.0266L13.5327 9.24553L14.1034 11.0006L12.6088 9.9161L11.1149 11.0006L11.6856 9.24553L10.1909 8.16031H12.0381L12.6088 6.40527Z" fill="white"/>
<path d="M12.6088 15.0264L13.1794 16.7814H15.0266L13.5327 17.8666L14.1034 19.6217L12.6088 18.5372L11.1149 19.6217L11.6856 17.8666L10.1909 16.7814H12.0381L12.6088 15.0264Z" fill="white"/>
<path d="M12.6088 23.6475L13.1794 25.4025H15.0266L13.5327 26.4877L14.1034 28.2428L12.6088 27.1583L11.1149 28.2428L11.6856 26.4877L10.1909 25.4025H12.0381L12.6088 23.6475Z" fill="white"/>
<path d="M12.6088 32.2686L13.1794 34.0236H15.0266L13.5327 35.1088L14.1034 36.8638L12.6088 35.7794L11.1149 36.8638L11.6856 35.1088L10.1909 34.0236H12.0381L12.6088 32.2686Z" fill="white"/>
<path d="M22.7987 6.40527L23.3694 8.16031H25.2165L23.7227 9.24553L24.2933 11.0006L22.7987 9.9161L21.3048 11.0006L21.8755 9.24553L20.3809 8.16031H22.228L22.7987 6.40527Z" fill="white"/>
<path d="M22.7987 15.0264L23.3694 16.7814H25.2165L23.7227 17.8666L24.2933 19.6217L22.7987 18.5372L21.3048 19.6217L21.8755 17.8666L20.3809 16.7814H22.228L22.7987 15.0264Z" fill="white"/>
<path d="M22.7987 23.6475L23.3694 25.4025H25.2165L23.7227 26.4877L24.2933 28.2428L22.7987 27.1583L21.3048 28.2428L21.8755 26.4877L20.3809 25.4025H22.228L22.7987 23.6475Z" fill="white"/>
<path d="M22.7987 32.2686L23.3694 34.0236H25.2165L23.7227 35.1088L24.2933 36.8638L22.7987 35.7794L21.3048 36.8638L21.8755 35.1088L20.3809 34.0236H22.228L22.7987 32.2686Z" fill="white"/>
<path d="M32.9882 6.40527L33.5596 8.16031H35.406L33.9121 9.24553L34.4828 11.0006L32.9882 9.9161L31.4943 11.0006L32.0649 9.24553L30.5703 8.16031H32.4175L32.9882 6.40527Z" fill="white"/>
<path d="M32.9882 15.0264L33.5596 16.7814H35.406L33.9121 17.8666L34.4828 19.6217L32.9882 18.5372L31.4943 19.6217L32.0649 17.8666L30.5703 16.7814H32.4175L32.9882 15.0264Z" fill="white"/>
<path d="M32.9882 23.6475L33.5596 25.4025H35.406L33.9121 26.4877L34.4828 28.2428L32.9882 27.1583L31.4943 28.2428L32.0649 26.4877L30.5703 25.4025H32.4175L32.9882 23.6475Z" fill="white"/>
<path d="M32.9882 32.2686L33.5596 34.0236H35.406L33.9121 35.1088L34.4828 36.8638L32.9882 35.7794L31.4943 36.8638L32.0649 35.1088L30.5703 34.0236H32.4175L32.9882 32.2686Z" fill="white"/>
<path d="M7.58142 1.99268L8.15208 3.74771H9.99926L8.50539 4.83217L9.07605 6.58797L7.58142 5.50274L6.08755 6.58797L6.65821 4.83217L5.16357 3.74771H7.01075L7.58142 1.99268Z" fill="white"/>
<path d="M7.58142 10.6138L8.15208 12.3688H9.99926L8.50539 13.454L9.07605 15.2091L7.58142 14.1238L6.08755 15.2091L6.65821 13.454L5.16357 12.3688H7.01075L7.58142 10.6138Z" fill="white"/>
<path d="M7.58142 19.2349L8.15208 20.9899H9.99926L8.50539 22.0751L9.07605 23.8302L7.58142 22.7457L6.08755 23.8302L6.65821 22.0751L5.16357 20.9899H7.01075L7.58142 19.2349Z" fill="white"/>
<path d="M7.58142 27.856L8.15208 29.611H9.99926L8.50539 30.6962L9.07605 32.4512L7.58142 31.3668L6.08755 32.4512L6.65821 30.6962L5.16357 29.611H7.01075L7.58142 27.856Z" fill="white"/>
<path d="M7.58142 36.4771L8.15208 38.2321H9.99926L8.50539 39.3173L9.07605 41.0723L7.58142 39.9879L6.08755 41.0723L6.65821 39.3173L5.16357 38.2321H7.01075L7.58142 36.4771Z" fill="white"/>
<path d="M17.704 1.99268L18.2746 3.74771H20.1218L18.6272 4.83217L19.1978 6.58797L17.704 5.50274L16.2093 6.58797L16.78 4.83217L15.2861 3.74771H17.1333L17.704 1.99268Z" fill="white"/>
<path d="M17.704 10.6138L18.2746 12.3688H20.1218L18.6272 13.454L19.1978 15.2091L17.704 14.1238L16.2093 15.2091L16.78 13.454L15.2861 12.3688H17.1333L17.704 10.6138Z" fill="white"/>
<path d="M17.704 19.2349L18.2746 20.9899H20.1218L18.6272 22.0751L19.1978 23.8302L17.704 22.7457L16.2093 23.8302L16.78 22.0751L15.2861 20.9899H17.1333L17.704 19.2349Z" fill="white"/>
<path d="M17.704 27.856L18.2746 29.611H20.1218L18.6272 30.6962L19.1978 32.4512L17.704 31.3668L16.2093 32.4512L16.78 30.6962L15.2861 29.611H17.1333L17.704 27.856Z" fill="white"/>
<path d="M17.704 36.4771L18.2746 38.2321H20.1218L18.6272 39.3173L19.1978 41.0723L17.704 39.9879L16.2093 41.0723L16.78 39.3173L15.2861 38.2321H17.1333L17.704 36.4771Z" fill="white"/>
<path d="M27.8251 1.99268L28.3957 3.74771H30.2429L28.749 4.83217L29.3197 6.58797L27.8251 5.50274L26.3312 6.58797L26.9019 4.83217L25.4072 3.74771H27.2544L27.8251 1.99268Z" fill="white"/>
<path d="M27.8251 10.6138L28.3957 12.3688H30.2429L28.749 13.454L29.3197 15.2091L27.8251 14.1238L26.3312 15.2091L26.9019 13.454L25.4072 12.3688H27.2544L27.8251 10.6138Z" fill="white"/>
<path d="M27.8251 19.2349L28.3957 20.9899H30.2429L28.749 22.0751L29.3197 23.8302L27.8251 22.7457L26.3312 23.8302L26.9019 22.0751L25.4072 20.9899H27.2544L27.8251 19.2349Z" fill="white"/>
<path d="M27.8251 27.856L28.3957 29.611H30.2429L28.749 30.6962L29.3197 32.4512L27.8251 31.3668L26.3312 32.4512L26.9019 30.6962L25.4072 29.611H27.2544L27.8251 27.856Z" fill="white"/>
<path d="M27.8251 36.4771L28.3957 38.2321H30.2429L28.749 39.3173L29.3197 41.0723L27.8251 39.9879L26.3312 41.0723L26.9019 39.3173L25.4072 38.2321H27.2544L27.8251 36.4771Z" fill="white"/>
<path d="M38.1512 1.99268L38.7219 3.74771H40.5691L39.0752 4.83217L39.6459 6.58797L38.1512 5.50274L36.6574 6.58797L37.228 4.83217L35.7334 3.74771H37.5806L38.1512 1.99268Z" fill="white"/>
<path d="M38.1512 10.6138L38.7219 12.3688H40.5691L39.0752 13.454L39.6459 15.2091L38.1512 14.1238L36.6574 15.2091L37.228 13.454L35.7334 12.3688H37.5806L38.1512 10.6138Z" fill="white"/>
<path d="M38.1512 19.2349L38.7219 20.9899H40.5691L39.0752 22.0751L39.6459 23.8302L38.1512 22.7457L36.6574 23.8302L37.228 22.0751L35.7334 20.9899H37.5806L38.1512 19.2349Z" fill="white"/>
<path d="M38.1512 27.856L38.7219 29.611H40.5691L39.0752 30.6962L39.6459 32.4512L38.1512 31.3668L36.6574 32.4512L37.228 30.6962L35.7334 29.611H37.5806L38.1512 27.856Z" fill="white"/>
<path d="M38.1512 36.4771L38.7219 38.2321H40.5691L39.0752 39.3173L39.6459 41.0723L38.1512 39.9879L36.6574 41.0723L37.228 39.3173L35.7334 38.2321H37.5806L38.1512 36.4771Z" fill="white"/>
</g>
</svg>
