<svg width="82" height="81" viewBox="0 0 82 81" fill="none" xmlns="http://www.w3.org/2000/svg">
<mask id="mask0_70_294" style="mask-type:luminance" maskUnits="userSpaceOnUse" x="0" y="0" width="82" height="81">
<path d="M40.9405 80.8244C63.2596 80.8244 81.3528 62.7313 81.3528 40.4122C81.3528 18.0932 63.2596 0 40.9405 0C18.6215 0 0.52832 18.0932 0.52832 40.4122C0.52832 62.7313 18.6215 80.8244 40.9405 80.8244Z" fill="white"/>
</mask>
<g mask="url(#mask0_70_294)">
<path d="M150.334 -0.770996H-2.84766V79.7771H150.334V-0.770996Z" fill="white"/>
<path d="M150.207 -1.04688H-2.8457V4.76556H150.207V-1.04688Z" fill="#CC0001"/>
<path d="M150.207 10.3218H-2.8457V16.1342H150.207V10.3218Z" fill="#CC0001"/>
<path d="M150.207 21.6899H-2.8457V27.5024H150.207V21.6899Z" fill="#CC0001"/>
<path d="M150.207 33.0591H-2.8457V38.8715H150.207V33.0591Z" fill="#CC0001"/>
<path d="M150.207 44.4272H-2.8457V50.2397H150.207V44.4272Z" fill="#CC0001"/>
<path d="M150.207 55.7959H-2.8457V61.6083H150.207V55.7959Z" fill="#CC0001"/>
<path d="M150.207 67.1641H-2.8457V72.9765H150.207V67.1641Z" fill="#CC0001"/>
<path d="M73.8449 -1.04541H-2.84668V44.4318H73.8449V-1.04541Z" fill="#010066"/>
<path d="M18.2419 21.8633C18.2419 13.8032 24.7702 7.26951 32.8226 7.26951C34.4661 7.26885 36.0977 7.54682 37.6482 8.09161C34.9745 6.33153 31.8431 5.39478 28.6421 5.39747C19.559 5.39747 12.1924 12.7687 12.1924 21.861C12.1924 30.9534 19.5566 38.3253 28.6421 38.3253C31.843 38.3277 34.9744 37.3909 37.6482 35.6312C36.0977 36.176 34.4661 36.454 32.8226 36.4533C24.7702 36.4579 18.2419 29.9234 18.2419 21.8633Z" fill="#FFCC00"/>
<path d="M51.5181 21.9036L58.3513 18.9701C58.3374 18.9039 58.3205 18.8392 58.3058 18.7738L50.8084 19.0417L55.8472 13.4679C55.8318 13.4479 55.8157 13.4286 55.801 13.4086L49.0272 16.9364L51.0963 9.58829L46.3738 15.7002L45.1114 8.01953H44.9806L43.6058 15.634L38.841 9.41741L38.811 9.4328L40.9301 16.9164L34.1109 13.2362C34.0785 13.2762 34.0462 13.3178 34.0146 13.3586L39.1235 18.9963C39.1235 18.9963 34.6027 18.8893 31.469 18.7692C31.469 18.7784 31.4644 18.7877 31.4629 18.7977C34.368 20.0739 38.3907 21.8574 38.3907 21.8574L31.516 24.8164C34.5104 24.7556 39.0766 24.6724 39.0766 24.6724L34.0385 30.2332L34.1447 30.3679L40.907 26.8016L38.7763 34.1089C38.8302 34.1358 38.8841 34.1651 38.9388 34.1912L43.5365 27.9916C43.5365 27.9916 44.4602 33.179 44.8643 35.5422H44.8867C44.949 35.5422 45.0098 35.5422 45.0714 35.5376L46.4223 27.9886L51.0132 34.1004L51.0455 34.0843L49.0026 26.7554L55.6994 30.2809C55.7248 30.2493 55.7502 30.2178 55.7764 30.1847C54.0645 28.2356 50.9046 24.6724 50.9046 24.6724L58.2812 24.9111C58.2958 24.8495 58.3105 24.7879 58.3235 24.7256L51.5181 21.9036Z" fill="#FFCC00"/>
</g>
</svg>
