<svg width="273" height="66" viewBox="0 0 273 66" fill="none" xmlns="http://www.w3.org/2000/svg">
<rect width="273" height="65" rx="14" fill="#3D3D3D" fill-opacity="0.3"/>
<path d="M72.304 27.192C71.1947 27.192 70.224 26.9467 69.392 26.456C68.56 25.9653 67.9093 25.288 67.44 24.424C66.9707 23.5493 66.736 22.5413 66.736 21.4C66.736 20.2587 66.9707 19.256 67.44 18.392C67.9093 17.5173 68.56 16.8347 69.392 16.344C70.224 15.8533 71.1947 15.608 72.304 15.608C73.4133 15.608 74.384 15.8533 75.216 16.344C76.048 16.8347 76.6933 17.5173 77.152 18.392C77.6213 19.256 77.856 20.2587 77.856 21.4C77.856 22.5413 77.6213 23.5493 77.152 24.424C76.6933 25.288 76.048 25.9653 75.216 26.456C74.384 26.9467 73.4133 27.192 72.304 27.192ZM72.304 25.672C73.072 25.672 73.7387 25.5013 74.304 25.16C74.88 24.8187 75.328 24.328 75.648 23.688C75.968 23.048 76.128 22.2853 76.128 21.4C76.128 20.5147 75.968 19.752 75.648 19.112C75.328 18.472 74.88 17.9813 74.304 17.64C73.7387 17.2987 73.072 17.128 72.304 17.128C71.536 17.128 70.864 17.2987 70.288 17.64C69.712 17.9813 69.264 18.472 68.944 19.112C68.6347 19.752 68.48 20.5147 68.48 21.4C68.48 22.2853 68.6347 23.048 68.944 23.688C69.264 24.328 69.712 24.8187 70.288 25.16C70.864 25.5013 71.536 25.672 72.304 25.672ZM79.6814 30.52L79.6814 19.064L81.2014 19.064L81.3774 20.296C81.6334 19.9227 81.9854 19.592 82.4334 19.304C82.8814 19.016 83.4574 18.872 84.1614 18.872C84.9294 18.872 85.6067 19.0533 86.1934 19.416C86.78 19.7787 87.2387 20.2747 87.5694 20.904C87.9107 21.5333 88.0814 22.248 88.0814 23.048C88.0814 23.848 87.9107 24.5627 87.5694 25.192C87.2387 25.8107 86.78 26.3013 86.1934 26.664C85.6067 27.016 84.924 27.192 84.1454 27.192C83.5267 27.192 82.9774 27.0693 82.4974 26.824C82.028 26.5787 81.6547 26.232 81.3774 25.784L81.3774 30.52H79.6814ZM83.8574 25.72C84.5827 25.72 85.18 25.4747 85.6494 24.984C86.1187 24.4827 86.3534 23.832 86.3534 23.032C86.3534 22.5093 86.2467 22.0453 86.0334 21.64C85.82 21.2347 85.5267 20.92 85.1534 20.696C84.78 20.4613 84.348 20.344 83.8574 20.344C83.132 20.344 82.5347 20.5947 82.0654 21.096C81.6067 21.5973 81.3774 22.2427 81.3774 23.032C81.3774 23.832 81.6067 24.4827 82.0654 24.984C82.5347 25.4747 83.132 25.72 83.8574 25.72ZM93.6278 27.192C92.8491 27.192 92.1558 27.0213 91.5478 26.68C90.9504 26.328 90.4811 25.8427 90.1397 25.224C89.7984 24.6053 89.6277 23.8853 89.6277 23.064C89.6277 22.232 89.7931 21.5013 90.1238 20.872C90.4651 20.2427 90.9344 19.752 91.5318 19.4C92.1398 19.048 92.8438 18.872 93.6438 18.872C94.4224 18.872 95.0998 19.048 95.6758 19.4C96.2518 19.7413 96.6998 20.2 97.0198 20.776C97.3398 21.352 97.4998 21.9867 97.4998 22.68C97.4998 22.7867 97.4944 22.904 97.4838 23.032C97.4838 23.1493 97.4784 23.2827 97.4678 23.432L91.2918 23.432C91.3451 24.2 91.5957 24.7867 92.0437 25.192C92.5024 25.5867 93.0304 25.784 93.6278 25.784C94.1078 25.784 94.5078 25.6773 94.8278 25.464C95.1584 25.24 95.4038 24.9413 95.5638 24.568L97.2598 24.568C97.0464 25.3147 96.6198 25.9387 95.9798 26.44C95.3504 26.9413 94.5664 27.192 93.6278 27.192ZM93.6278 20.264C93.0624 20.264 92.5611 20.4347 92.1238 20.776C91.6864 21.1067 91.4197 21.608 91.3237 22.28L95.8038 22.28C95.7718 21.6613 95.5531 21.1707 95.1478 20.808C94.7424 20.4453 94.2358 20.264 93.6278 20.264ZM99.2595 27L99.2595 19.064L100.764 19.064L100.892 20.456C101.137 19.9653 101.494 19.5813 101.964 19.304C102.444 19.016 102.993 18.872 103.612 18.872C104.572 18.872 105.324 19.1707 105.868 19.768C106.422 20.3653 106.7 21.256 106.7 22.44L106.699 27L105.02 27L105.02 22.616C105.02 21.08 104.39 20.312 103.132 20.312C102.502 20.312 101.979 20.536 101.564 20.984C101.158 21.432 100.956 22.072 100.956 22.904L100.956 27L99.2595 27ZM114.312 27L111.976 19.064L113.672 19.064L115.208 25.048L116.936 19.064L118.824 19.064L120.552 25.048L122.088 19.064L123.784 19.064L121.448 27L119.704 27L117.88 20.76L116.056 27H114.312ZM126.141 17.56C125.821 17.56 125.555 17.464 125.341 17.272C125.139 17.0693 125.037 16.8187 125.037 16.52C125.037 16.2213 125.139 15.976 125.341 15.784C125.555 15.5813 125.821 15.48 126.141 15.48C126.461 15.48 126.723 15.5813 126.925 15.784C127.139 15.976 127.245 16.2213 127.245 16.52C127.245 16.8187 127.139 17.0693 126.925 17.272C126.723 17.464 126.461 17.56 126.141 17.56ZM125.293 27L125.293 19.064L126.989 19.064L126.989 27L125.293 27ZM132.556 27C131.778 27 131.159 26.8133 130.7 26.44C130.242 26.056 130.012 25.3787 130.012 24.408L130.012 20.488L128.652 20.488L128.652 19.064L130.012 19.064L130.22 17.048L131.708 17.048L131.708 19.064L133.948 19.064L133.948 20.488L131.708 20.488L131.708 24.408C131.708 24.8453 131.799 25.1493 131.98 25.32C132.172 25.48 132.498 25.56 132.956 25.56L133.868 25.56L133.868 27L132.556 27ZM135.697 27L135.697 15.48L137.393 15.48L137.393 20.344C137.66 19.8853 138.028 19.528 138.497 19.272C138.977 19.0053 139.505 18.872 140.081 18.872C141.03 18.872 141.777 19.1707 142.321 19.768C142.865 20.3653 143.137 21.256 143.137 22.44L143.137 27L141.457 27L141.457 22.616C141.457 21.08 140.844 20.312 139.617 20.312C138.977 20.312 138.444 20.536 138.017 20.984C137.601 21.432 137.393 22.072 137.393 22.904L137.393 27H135.697ZM152.926 27.192C152.147 27.192 151.448 27.016 150.83 26.664C150.222 26.312 149.742 25.8267 149.39 25.208C149.048 24.5787 148.878 23.8533 148.878 23.032C148.878 22.2107 149.048 21.4907 149.39 20.872C149.742 20.2427 150.222 19.752 150.83 19.4C151.448 19.048 152.147 18.872 152.926 18.872C153.907 18.872 154.728 19.128 155.39 19.64C156.062 20.152 156.494 20.8453 156.686 21.72L154.91 21.72C154.803 21.2827 154.568 20.9413 154.206 20.696C153.843 20.4507 153.416 20.328 152.926 20.328C152.51 20.328 152.126 20.4347 151.774 20.648C151.422 20.8507 151.139 21.1547 150.926 21.56C150.712 21.9547 150.606 22.4453 150.606 23.032C150.606 23.6187 150.712 24.1147 150.926 24.52C151.139 24.9147 151.422 25.2187 151.774 25.432C152.126 25.6453 152.51 25.752 152.926 25.752C153.416 25.752 153.843 25.6293 154.206 25.384C154.568 25.1387 154.803 24.792 154.91 24.344L156.686 24.344C156.504 25.1973 156.078 25.8853 155.406 26.408C154.734 26.9307 153.907 27.192 152.926 27.192ZM158.525 27L158.525 15.48L160.221 15.48L160.221 20.344C160.488 19.8853 160.856 19.528 161.325 19.272C161.805 19.0053 162.333 18.872 162.909 18.872C163.858 18.872 164.605 19.1707 165.149 19.768C165.693 20.3653 165.965 21.256 165.965 22.44L165.965 27H164.285L164.285 22.616C164.285 21.08 163.672 20.312 162.445 20.312C161.805 20.312 161.272 20.536 160.845 20.984C160.429 21.432 160.221 22.072 160.221 22.904L160.221 27L158.525 27ZM167.963 27L167.963 19.064L169.483 19.064L169.627 20.568C169.904 20.0453 170.288 19.6347 170.779 19.336C171.28 19.0267 171.883 18.872 172.587 18.872L172.587 20.648L172.123 20.648C171.653 20.648 171.232 20.728 170.859 20.888C170.496 21.0373 170.203 21.2987 169.979 21.672C169.765 22.0347 169.659 22.5413 169.659 23.192L169.659 27L167.963 27ZM177.534 27.192C176.777 27.192 176.094 27.0213 175.486 26.68C174.889 26.328 174.414 25.8427 174.062 25.224C173.71 24.5947 173.534 23.864 173.534 23.032C173.534 22.2 173.71 21.4747 174.062 20.856C174.425 20.2267 174.91 19.7413 175.518 19.4C176.126 19.048 176.803 18.872 177.55 18.872C178.307 18.872 178.985 19.048 179.582 19.4C180.19 19.7413 180.67 20.2267 181.022 20.856C181.385 21.4747 181.566 22.2 181.566 23.032C181.566 23.864 181.385 24.5947 181.022 25.224C180.67 25.8427 180.19 26.328 179.582 26.68C178.974 27.0213 178.291 27.192 177.534 27.192ZM177.534 25.736C177.939 25.736 178.313 25.6347 178.654 25.432C179.006 25.2293 179.289 24.9307 179.502 24.536C179.715 24.1307 179.822 23.6293 179.822 23.032C179.822 22.4347 179.715 21.9387 179.502 21.544C179.299 21.1387 179.022 20.8347 178.67 20.632C178.329 20.4293 177.955 20.328 177.55 20.328C177.145 20.328 176.766 20.4293 176.414 20.632C176.073 20.8347 175.795 21.1387 175.582 21.544C175.369 21.9387 175.262 22.4347 175.262 23.032C175.262 23.6293 175.369 24.1307 175.582 24.536C175.795 24.9307 176.073 25.2293 176.414 25.432C176.755 25.6347 177.129 25.736 177.534 25.736ZM183.4 27L183.4 19.064L184.904 19.064L185.048 20.184C185.304 19.7787 185.64 19.4587 186.056 19.224C186.483 18.9893 186.973 18.872 187.528 18.872C188.787 18.872 189.661 19.368 190.152 20.36C190.44 19.9013 190.824 19.5387 191.304 19.272C191.795 19.0053 192.323 18.872 192.888 18.872C193.88 18.872 194.659 19.1707 195.224 19.768C195.789 20.3653 196.072 21.256 196.072 22.44L196.072 27L194.376 27L194.376 22.616C194.376 21.08 193.789 20.312 192.616 20.312C192.019 20.312 191.528 20.536 191.144 20.984C190.771 21.432 190.584 22.072 190.584 22.904L190.584 27H188.888L188.888 22.616C188.888 21.08 188.296 20.312 187.112 20.312C186.525 20.312 186.04 20.536 185.656 20.984C185.283 21.432 185.096 22.072 185.096 22.904L185.096 27L183.4 27ZM199.016 17.56C198.696 17.56 198.43 17.464 198.216 17.272C198.014 17.0693 197.912 16.8187 197.912 16.52C197.912 16.2213 198.014 15.976 198.216 15.784C198.43 15.5813 198.696 15.48 199.016 15.48C199.336 15.48 199.598 15.5813 199.8 15.784C200.014 15.976 200.12 16.2213 200.12 16.52C200.12 16.8187 200.014 17.0693 199.8 17.272C199.598 17.464 199.336 17.56 199.016 17.56ZM198.168 27L198.168 19.064H199.864L199.864 27H198.168ZM205.031 27.192C204.071 27.192 203.314 26.8933 202.759 26.296C202.215 25.6987 201.943 24.808 201.943 23.624L201.943 19.064H203.639L203.639 23.448C203.639 24.984 204.269 25.752 205.527 25.752C206.157 25.752 206.674 25.528 207.079 25.08C207.485 24.632 207.687 23.992 207.687 23.16L207.687 19.064L209.383 19.064L209.383 27L207.879 27L207.751 25.608C207.506 26.0987 207.143 26.488 206.663 26.776C206.194 27.0533 205.65 27.192 205.031 27.192ZM211.541 27L211.541 19.064L213.045 19.064L213.189 20.184C213.445 19.7787 213.781 19.4587 214.197 19.224C214.623 18.9893 215.114 18.872 215.669 18.872C216.927 18.872 217.802 19.368 218.293 20.36C218.581 19.9013 218.965 19.5387 219.445 19.272C219.935 19.0053 220.463 18.872 221.029 18.872C222.021 18.872 222.799 19.1707 223.365 19.768C223.93 20.3653 224.213 21.256 224.213 22.44L224.213 27H222.517L222.517 22.616C222.517 21.08 221.93 20.312 220.757 20.312C220.159 20.312 219.669 20.536 219.285 20.984C218.911 21.432 218.725 22.072 218.725 22.904L218.725 27L217.029 27L217.029 22.616C217.029 21.08 216.437 20.312 215.253 20.312C214.666 20.312 214.181 20.536 213.797 20.984C213.423 21.432 213.237 22.072 213.237 22.904L213.237 27L211.541 27ZM71.536 48.192C70.9173 48.192 70.368 48.0693 69.888 47.824C69.4187 47.5787 69.0453 47.232 68.768 46.784L68.592 48L67.072 48L67.072 36.48H68.768L68.768 41.296C69.024 40.9227 69.376 40.592 69.824 40.304C70.272 40.016 70.848 39.872 71.552 39.872C72.32 39.872 72.9973 40.0533 73.584 40.416C74.1707 40.7787 74.6293 41.2747 74.96 41.904C75.3013 42.5333 75.472 43.248 75.472 44.048C75.472 44.848 75.3013 45.5627 74.96 46.192C74.6293 46.8107 74.1707 47.3013 73.584 47.664C72.9973 48.016 72.3147 48.192 71.536 48.192ZM71.248 46.72C71.9733 46.72 72.5707 46.4747 73.04 45.984C73.5093 45.4827 73.744 44.832 73.744 44.032C73.744 43.5093 73.6373 43.0453 73.424 42.64C73.2107 42.2347 72.9173 41.92 72.544 41.696C72.1707 41.4613 71.7387 41.344 71.248 41.344C70.5227 41.344 69.9253 41.5947 69.456 42.096C68.9973 42.5973 68.768 43.2427 68.768 44.032C68.768 44.832 68.9973 45.4827 69.456 45.984C69.9253 46.4747 70.5227 46.72 71.248 46.72ZM79.9944 48.192C79.3224 48.192 78.7677 48.08 78.3304 47.856C77.893 47.632 77.5677 47.3387 77.3544 46.976C77.141 46.6027 77.0344 46.1973 77.0344 45.76C77.0344 44.992 77.333 44.384 77.9304 43.936C78.5277 43.488 79.381 43.264 80.4904 43.264L82.5704 43.264L82.5704 43.12C82.5704 42.5013 82.3997 42.0373 82.0584 41.728C81.7277 41.4187 81.2957 41.264 80.7624 41.264C80.293 41.264 79.8824 41.3813 79.5304 41.616C79.189 41.84 78.981 42.176 78.9064 42.624L77.2104 42.624C77.2637 42.048 77.4557 41.5573 77.7864 41.152C78.1277 40.736 78.5544 40.4213 79.0664 40.208C79.589 39.984 80.1597 39.872 80.7784 39.872C81.8877 39.872 82.7464 40.1653 83.3544 40.752C83.9624 41.328 84.2664 42.1173 84.2664 43.12L84.2664 48H82.7944L82.6504 46.64C82.4264 47.0773 82.101 47.4453 81.6744 47.744C81.2477 48.0427 80.6877 48.192 79.9944 48.192ZM80.3304 46.816C80.789 46.816 81.173 46.7093 81.4824 46.496C81.8024 46.272 82.0477 45.9787 82.2184 45.616C82.3997 45.2533 82.5117 44.8533 82.5544 44.416H80.6664C79.9944 44.416 79.5144 44.5333 79.2264 44.768C78.949 45.0027 78.8104 45.296 78.8104 45.648C78.8104 46.0107 78.9437 46.2987 79.2104 46.512C79.4877 46.7147 79.861 46.816 80.3304 46.816ZM89.4119 48.192C88.4092 48.192 87.5825 47.9467 86.9319 47.456C86.2812 46.9653 85.9079 46.3147 85.8119 45.504H87.5239C87.6092 45.8667 87.8119 46.1813 88.1319 46.448C88.4519 46.704 88.8732 46.832 89.3959 46.832C89.9079 46.832 90.2812 46.7253 90.5159 46.512C90.7505 46.2987 90.8679 46.0533 90.8679 45.776C90.8679 45.3707 90.7025 45.0987 90.3719 44.96C90.0519 44.8107 89.6039 44.6773 89.0279 44.56C88.5799 44.464 88.1319 44.336 87.6839 44.176C87.2465 44.016 86.8785 43.792 86.5799 43.504C86.2919 43.2053 86.1479 42.8053 86.1479 42.304C86.1479 41.6107 86.4145 41.0347 86.9479 40.576C87.4812 40.1067 88.2279 39.872 89.1879 39.872C90.0732 39.872 90.7879 40.0853 91.3319 40.512C91.8865 40.9387 92.2119 41.5413 92.3079 42.32H90.6759C90.6225 41.9787 90.4625 41.712 90.1959 41.52C89.9399 41.328 89.5932 41.232 89.1559 41.232C88.7292 41.232 88.3985 41.3227 88.1639 41.504C87.9292 41.6747 87.8119 41.8987 87.8119 42.176C87.8119 42.4533 87.9719 42.672 88.2919 42.832C88.6225 42.992 89.0545 43.136 89.5879 43.264C90.1212 43.3813 90.6119 43.52 91.0599 43.68C91.5185 43.8293 91.8865 44.0533 92.1639 44.352C92.4412 44.6507 92.5799 45.088 92.5799 45.664C92.5905 46.3893 92.3079 46.992 91.7319 47.472C91.1665 47.952 90.3932 48.192 89.4119 48.192ZM98.1434 48.192C97.3647 48.192 96.6714 48.0213 96.0634 47.68C95.466 47.328 94.9967 46.8427 94.6554 46.224C94.314 45.6053 94.1434 44.8853 94.1434 44.064C94.1434 43.232 94.3087 42.5013 94.6394 41.872C94.9807 41.2427 95.45 40.752 96.0474 40.4C96.6554 40.048 97.3594 39.872 98.1594 39.872C98.938 39.872 99.6154 40.048 100.191 40.4C100.767 40.7413 101.215 41.2 101.535 41.776C101.855 42.352 102.015 42.9867 102.015 43.68C102.015 43.7867 102.01 43.904 101.999 44.032C101.999 44.1493 101.994 44.2827 101.983 44.432L95.8074 44.432C95.8607 45.2 96.1114 45.7867 96.5594 46.192C97.018 46.5867 97.546 46.784 98.1434 46.784C98.6234 46.784 99.0234 46.6773 99.3434 46.464C99.674 46.24 99.9194 45.9413 100.079 45.568L101.775 45.568C101.562 46.3147 101.135 46.9387 100.495 47.44C99.866 47.9413 99.082 48.192 98.1434 48.192ZM98.1434 41.264C97.578 41.264 97.0767 41.4347 96.6394 41.776C96.202 42.1067 95.9354 42.608 95.8394 43.28L100.319 43.28C100.287 42.6613 100.069 42.1707 99.6634 41.808C99.258 41.4453 98.7514 41.264 98.1434 41.264ZM112.27 48.192C111.652 48.192 111.102 48.0693 110.622 47.824C110.153 47.5787 109.78 47.232 109.502 46.784L109.326 48H107.806L107.806 36.48H109.502L109.502 41.296C109.758 40.9227 110.11 40.592 110.558 40.304C111.006 40.016 111.582 39.872 112.286 39.872C113.054 39.872 113.732 40.0533 114.318 40.416C114.905 40.7787 115.364 41.2747 115.694 41.904C116.036 42.5333 116.206 43.248 116.206 44.048C116.206 44.848 116.036 45.5627 115.694 46.192C115.364 46.8107 114.905 47.3013 114.318 47.664C113.732 48.016 113.049 48.192 112.27 48.192ZM111.982 46.72C112.708 46.72 113.305 46.4747 113.774 45.984C114.244 45.4827 114.478 44.832 114.478 44.032C114.478 43.5093 114.372 43.0453 114.158 42.64C113.945 42.2347 113.652 41.92 113.278 41.696C112.905 41.4613 112.473 41.344 111.982 41.344C111.257 41.344 110.66 41.5947 110.19 42.096C109.732 42.5973 109.502 43.2427 109.502 44.032C109.502 44.832 109.732 45.4827 110.19 45.984C110.66 46.4747 111.257 46.72 111.982 46.72ZM118.041 48L118.041 40.064L119.561 40.064L119.705 41.568C119.982 41.0453 120.366 40.6347 120.857 40.336C121.358 40.0267 121.961 39.872 122.665 39.872L122.665 41.648H122.201C121.731 41.648 121.31 41.728 120.937 41.888C120.574 42.0373 120.281 42.2987 120.057 42.672C119.843 43.0347 119.737 43.5413 119.737 44.192L119.737 48H118.041ZM127.612 48.192C126.855 48.192 126.172 48.0213 125.564 47.68C124.967 47.328 124.492 46.8427 124.14 46.224C123.788 45.5947 123.612 44.864 123.612 44.032C123.612 43.2 123.788 42.4747 124.14 41.856C124.503 41.2267 124.988 40.7413 125.596 40.4C126.204 40.048 126.881 39.872 127.628 39.872C128.385 39.872 129.063 40.048 129.66 40.4C130.268 40.7413 130.748 41.2267 131.1 41.856C131.463 42.4747 131.644 43.2 131.644 44.032C131.644 44.864 131.463 45.5947 131.1 46.224C130.748 46.8427 130.268 47.328 129.66 47.68C129.052 48.0213 128.369 48.192 127.612 48.192ZM127.612 46.736C128.017 46.736 128.391 46.6347 128.732 46.432C129.084 46.2293 129.367 45.9307 129.58 45.536C129.793 45.1307 129.9 44.6293 129.9 44.032C129.9 43.4347 129.793 42.9387 129.58 42.544C129.377 42.1387 129.1 41.8347 128.748 41.632C128.407 41.4293 128.033 41.328 127.628 41.328C127.223 41.328 126.844 41.4293 126.492 41.632C126.151 41.8347 125.873 42.1387 125.66 42.544C125.447 42.9387 125.34 43.4347 125.34 44.032C125.34 44.6293 125.447 45.1307 125.66 45.536C125.873 45.9307 126.151 46.2293 126.492 46.432C126.833 46.6347 127.207 46.736 127.612 46.736ZM134.765 48L132.429 40.064H134.125L135.661 46.048L137.389 40.064L139.277 40.064L141.005 46.048L142.541 40.064L144.237 40.064L141.901 48H140.157L138.333 41.76L136.509 48H134.765ZM148.802 48.192C147.8 48.192 146.973 47.9467 146.322 47.456C145.672 46.9653 145.298 46.3147 145.202 45.504L146.914 45.504C147 45.8667 147.202 46.1813 147.522 46.448C147.842 46.704 148.264 46.832 148.786 46.832C149.298 46.832 149.672 46.7253 149.907 46.512C150.141 46.2987 150.258 46.0533 150.258 45.776C150.258 45.3707 150.093 45.0987 149.763 44.96C149.443 44.8107 148.994 44.6773 148.418 44.56C147.97 44.464 147.522 44.336 147.074 44.176C146.637 44.016 146.269 43.792 145.97 43.504C145.682 43.2053 145.538 42.8053 145.538 42.304C145.538 41.6107 145.805 41.0347 146.338 40.576C146.872 40.1067 147.619 39.872 148.579 39.872C149.464 39.872 150.179 40.0853 150.723 40.512C151.277 40.9387 151.602 41.5413 151.698 42.32H150.066C150.013 41.9787 149.853 41.712 149.586 41.52C149.331 41.328 148.984 41.232 148.546 41.232C148.12 41.232 147.789 41.3227 147.554 41.504C147.32 41.6747 147.202 41.8987 147.202 42.176C147.202 42.4533 147.362 42.672 147.682 42.832C148.013 42.992 148.445 43.136 148.979 43.264C149.512 43.3813 150.002 43.52 150.451 43.68C150.909 43.8293 151.277 44.0533 151.554 44.352C151.832 44.6507 151.971 45.088 151.971 45.664C151.981 46.3893 151.699 46.992 151.123 47.472C150.557 47.952 149.784 48.192 148.802 48.192ZM157.534 48.192C156.755 48.192 156.062 48.0213 155.454 47.68C154.857 47.328 154.387 46.8427 154.046 46.224C153.705 45.6053 153.534 44.8853 153.534 44.064C153.534 43.232 153.699 42.5013 154.03 41.872C154.371 41.2427 154.841 40.752 155.438 40.4C156.046 40.048 156.75 39.872 157.55 39.872C158.329 39.872 159.006 40.048 159.582 40.4C160.158 40.7413 160.606 41.2 160.926 41.776C161.246 42.352 161.406 42.9867 161.406 43.68C161.406 43.7867 161.401 43.904 161.39 44.032C161.39 44.1493 161.385 44.2827 161.374 44.432L155.198 44.432C155.251 45.2 155.502 45.7867 155.95 46.192C156.409 46.5867 156.937 46.784 157.534 46.784C158.014 46.784 158.414 46.6773 158.734 46.464C159.065 46.24 159.31 45.9413 159.47 45.568H161.166C160.953 46.3147 160.526 46.9387 159.886 47.44C159.257 47.9413 158.473 48.192 157.534 48.192ZM157.534 41.264C156.969 41.264 156.467 41.4347 156.03 41.776C155.593 42.1067 155.326 42.608 155.23 43.28L159.71 43.28C159.678 42.6613 159.459 42.1707 159.054 41.808C158.649 41.4453 158.142 41.264 157.534 41.264ZM163.166 48L163.166 40.064H164.686L164.83 41.568C165.107 41.0453 165.491 40.6347 165.982 40.336C166.483 40.0267 167.086 39.872 167.79 39.872L167.79 41.648H167.326C166.856 41.648 166.435 41.728 166.062 41.888C165.699 42.0373 165.406 42.2987 165.182 42.672C164.968 43.0347 164.862 43.5413 164.862 44.192L164.862 48L163.166 48Z" fill="black"/>
<g clip-path="url(#clip0_389_303)">
<path d="M36.7595 48.519C46.0155 48.519 53.519 41.0155 53.519 31.7595C53.519 22.5035 46.0155 15 36.7595 15C27.5035 15 20 22.5035 20 31.7595C20 41.0155 27.5035 48.519 36.7595 48.519Z" fill="black"/>
<path d="M36.7597 45.8642C44.5494 45.8642 50.8642 39.5494 50.8642 31.7597C50.8642 23.9701 44.5494 17.6553 36.7597 17.6553C28.9701 17.6553 22.6553 23.9701 22.6553 31.7597C22.6553 39.5494 28.9701 45.8642 36.7597 45.8642Z" fill="#F7DA00"/>
<path d="M36.7594 40.7922C37.7952 40.7922 38.6349 39.9524 38.6349 38.9166C38.6349 37.8807 37.7952 37.041 36.7594 37.041C35.7235 37.041 34.8838 37.8807 34.8838 38.9166C34.8838 39.9524 35.7235 40.7922 36.7594 40.7922Z" fill="black"/>
<path d="M37.0223 35.9331C37.0223 35.9331 39.6153 29.0464 39.6153 25.5826C39.6153 24.8251 39.3144 24.0987 38.7788 23.5631C38.2432 23.0275 37.5168 22.7266 36.7593 22.7266C36.0019 22.7266 35.2754 23.0275 34.7398 23.5631C34.2042 24.0987 33.9033 24.8251 33.9033 25.5826C33.9033 29.0464 36.4959 35.9331 36.4959 35.9331H37.0223Z" fill="black"/>
</g>
<defs>
<clipPath id="clip0_389_303">
<rect width="33.5186" height="33.5186" fill="white" transform="translate(20 15)"/>
</clipPath>
</defs>
</svg>
